<svg width="513" height="272" viewBox="0 0 513 272" fill="none" xmlns="http://www.w3.org/2000/svg">
<g filter="url(#filter0_d_977_261)">
<path d="M24.5298 242.978L36.6798 196.16C37.2468 194.054 38.4618 190.652 42.4308 190.652C46.3998 190.652 47.6148 194.054 48.1818 196.16L60.3318 242.978C60.5748 243.869 61.3038 244.436 61.8708 244.436C62.8428 244.436 63.1668 243.221 63.2478 242.654L76.0458 191.3H80.5008L67.0548 243.869C66.0018 247.838 63.8958 248.648 61.7088 248.648C57.8208 248.648 56.6868 245.813 56.0388 243.464L43.7268 196.889C43.6458 196.484 43.3218 195.269 42.4308 195.269C41.5398 195.269 41.2158 196.484 41.1348 196.889L28.8228 243.464C28.1748 245.813 27.0408 248.648 23.1528 248.648C20.9658 248.648 18.8598 247.838 17.8068 243.869L4.36084 191.3H8.81584L21.6138 242.654C21.6948 243.221 22.0188 244.436 22.9908 244.436C23.5578 244.436 24.2868 243.869 24.5298 242.978ZM112.126 190.652C132.7 190.652 139.504 199.157 139.504 219.65C139.504 240.143 132.7 248.648 112.126 248.648C91.5516 248.648 84.5856 240.143 84.5856 219.65C84.5856 199.157 91.5516 190.652 112.126 190.652ZM89.2836 219.65C89.2836 237.713 93.7386 244.76 112.045 244.76C130.351 244.76 134.806 237.713 134.806 219.65C134.806 201.587 130.351 194.54 112.045 194.54C93.7386 194.54 89.2836 201.587 89.2836 219.65ZM149.25 248V199.967C149.25 194.297 151.842 191.3 157.755 191.3H181.65C192.018 191.3 194.934 198.185 194.934 207.905C194.934 217.949 192.423 224.915 182.298 224.915H169.743V225.32L196.311 248H189.912L164.883 226.454C164.073 225.725 163.344 225.239 163.344 224.186V222.89C163.344 221.675 164.073 221.027 165.288 221.027H182.055C189.831 221.027 190.236 215.114 190.236 207.905C190.236 200.291 189.264 195.188 180.84 195.188H157.674C155.811 195.188 153.624 196.079 153.624 198.995V248H149.25ZM252.719 248H246.158L217.565 226.049C213.434 222.809 212.705 220.541 212.705 218.84C212.705 217.382 213.515 215.357 216.836 212.684L243.404 191.3H249.722L220.724 214.79C219.185 216.086 217.16 217.22 217.16 218.921C217.16 220.784 219.509 222.485 221.372 223.862L252.719 248ZM205.253 248V191.3H209.627V248H205.253ZM256.89 191.3L276.816 243.059C277.221 244.112 277.788 244.274 278.193 244.274C278.598 244.274 279.165 244.112 279.57 243.059L299.496 191.3H304.437L283.134 244.922C282.567 246.461 281.433 248.648 278.193 248.648C274.953 248.648 273.819 246.461 273.252 244.922L251.949 191.3H256.89ZM351.452 248H317.837C312.815 248 310.142 246.056 310.142 240.386V198.833C310.142 193.163 312.815 191.3 317.837 191.3H351.128V195.188H317.999C314.921 195.188 314.516 196.403 314.516 198.833V217.058H350.318V220.946H314.516V240.386C314.516 242.816 314.921 244.112 317.999 244.112H351.452V248ZM360.372 248V199.967C360.372 194.297 362.964 191.3 368.877 191.3H392.772C403.14 191.3 406.056 198.185 406.056 207.905C406.056 217.949 403.545 224.915 393.42 224.915H380.865V225.32L407.433 248H401.034L376.005 226.454C375.195 225.725 374.466 225.239 374.466 224.186V222.89C374.466 221.675 375.195 221.027 376.41 221.027H393.177C400.953 221.027 401.358 215.114 401.358 207.905C401.358 200.291 400.386 195.188 391.962 195.188H368.796C366.933 195.188 364.746 196.079 364.746 198.995V248H360.372ZM414.837 248V244.112H446.832C450.234 244.112 453.474 242.33 453.474 234.392C453.474 230.666 452.664 227.264 446.346 225.077L423.747 217.301C417.672 215.195 413.946 212.036 413.946 204.098C413.946 195.998 417.834 191.3 426.744 191.3H455.499V195.188H426.744C420.831 195.188 418.644 197.618 418.644 204.098C418.644 207.743 418.887 211.145 424.395 213.089L446.427 220.865C453.231 223.214 458.172 225.482 458.172 234.392C458.172 241.358 455.58 248 446.832 248H414.837ZM508.39 248H474.775C469.753 248 467.08 246.056 467.08 240.386V198.833C467.08 193.163 469.753 191.3 474.775 191.3H508.066V195.188H474.937C471.859 195.188 471.454 196.403 471.454 198.833V217.058H507.256V220.946H471.454V240.386C471.454 242.816 471.859 244.112 474.937 244.112H508.39V248Z" fill="#FFF0F0"/>
</g>
<g filter="url(#filter1_d_977_261)">
<path d="M276.319 80.4993C276.319 90.8752 267.878 99.3173 257.497 99.3173C247.115 99.3173 238.683 90.8752 238.683 80.4993C238.683 70.1233 247.123 61.6812 257.497 61.6812C267.871 61.6812 276.319 70.1233 276.319 80.4993Z" fill="white"/>
<path d="M265.607 5.2809C265.607 2.36571 267.973 0.000140618 270.888 0.000140618C273.245 0.000140618 275.274 1.56103 275.932 3.76209C304.637 10.628 327.396 33.4126 334.23 62.1272C336.431 62.7763 338 64.8217 338 67.186C338 70.0936 335.627 72.4591 332.719 72.4591C329.812 72.4591 327.446 70.0936 327.446 67.186C327.446 65.5767 328.169 64.0732 329.392 63.0798C322.945 36.3291 301.721 15.0798 274.978 8.60799C273.984 9.8233 272.488 10.554 270.888 10.554C267.973 10.554 265.607 8.18844 265.607 5.2809Z" fill="white"/>
<path d="M177 67.1771C177 64.7542 178.602 62.7087 180.852 62.0928C181.666 58.6764 182.717 55.2919 183.982 52.0146C193.189 28.1957 214.232 9.78125 239.029 3.78509C239.685 1.59168 241.723 0.0320548 244.08 0.0320548C246.987 0.0320548 249.353 2.39762 249.353 5.31282C249.353 8.22801 246.987 10.5859 244.08 10.5859C242.462 10.5859 240.959 9.85522 239.965 8.63099C216.819 14.3058 197.173 31.5381 188.582 53.7884C187.407 56.8031 186.429 59.9402 185.666 63.1346C186.849 64.1281 187.555 65.6073 187.555 67.1759C187.555 70.0834 185.182 72.449 182.274 72.449C179.367 72.449 177.001 70.0834 177.001 67.1759L177 67.1771Z" fill="white"/>
<path d="M265.598 155.718C265.598 152.811 267.963 150.445 270.879 150.445C272.431 150.445 273.893 151.135 274.887 152.293C301.565 145.862 322.796 124.703 329.327 98.0595C328.119 97.066 327.405 95.5791 327.405 93.9851C327.405 91.0775 329.77 88.712 332.686 88.712C335.601 88.712 337.966 91.0775 337.966 93.9851C337.966 96.3749 336.374 98.4127 334.147 99.0529C327.231 127.586 304.513 150.24 275.963 157.098C275.355 159.349 273.277 160.999 270.879 160.999C267.963 160.999 265.598 158.633 265.598 155.718Z" fill="white"/>
<path d="M177.033 93.9775C177.033 91.07 179.398 88.7044 182.314 88.7044C185.229 88.7044 187.587 91.07 187.587 93.9775C187.587 95.5295 186.897 96.9922 185.739 97.9945C192.236 124.614 213.427 145.788 240.054 152.261C241.047 151.103 242.518 150.413 244.071 150.413C246.978 150.413 249.352 152.779 249.352 155.686C249.352 158.594 246.978 160.966 244.071 160.966C241.664 160.966 239.578 159.314 238.979 157.056C210.503 150.173 187.842 127.537 180.926 99.0695C178.684 98.4536 177.033 96.3762 177.033 93.9775Z" fill="white"/>
<path d="M297.598 130.182C297.598 133.098 295.232 135.463 292.317 135.463C291.43 135.463 290.576 135.25 289.813 134.831C280.071 140.653 268.909 143.726 257.46 143.726C246.011 143.726 235.045 140.703 225.37 134.979C224.582 135.414 223.694 135.652 222.782 135.652C219.875 135.652 217.501 133.286 217.501 130.371C217.501 127.456 219.875 125.098 222.782 125.098C225.69 125.098 228.063 127.464 228.063 130.371C228.063 130.527 228.063 130.691 228.046 130.848C236.934 136.047 247.086 138.799 257.458 138.799C267.831 138.799 278.131 136.006 287.068 130.717C287.044 130.545 287.035 130.364 287.035 130.182C287.035 127.275 289.408 124.909 292.316 124.909C295.223 124.909 297.597 127.275 297.597 130.182H297.598Z" fill="white"/>
<path d="M292.036 25.3464C291.1 25.3464 290.18 25.6015 289.391 26.0605C279.749 20.3934 268.735 17.4042 257.458 17.4042C246.181 17.4042 235.093 20.4189 225.418 26.1269C224.613 25.6499 223.693 25.3961 222.74 25.3961C219.832 25.3961 217.467 27.7617 217.467 30.6769C217.467 33.5921 219.832 35.95 222.74 35.95C225.647 35.95 228.021 33.5844 228.021 30.6769C228.021 30.5621 228.021 30.4384 228.013 30.3237C236.891 25.0914 247.06 22.3318 257.458 22.3318C267.857 22.3318 277.918 25.0671 286.78 30.2408C286.772 30.3645 286.763 30.4958 286.763 30.6272C286.763 33.5347 289.129 35.9003 292.036 35.9003C294.944 35.9003 297.317 33.5347 297.317 30.6272C297.317 27.7196 294.952 25.3464 292.036 25.3464ZM225.244 29.116L225.999 28.648C226.007 28.6404 226.016 28.6404 226.024 28.6404L225.243 29.1173L225.244 29.116Z" fill="white"/>
<path d="M250.92 108.327V113.255H231.775C230.856 114.922 229.097 115.998 227.142 115.998C224.235 115.998 221.869 113.632 221.869 110.717C221.869 108.721 223.019 106.907 224.752 106.019V86.332H229.68V106.093C230.616 106.602 231.372 107.382 231.857 108.327H250.92Z" fill="white"/>
<path d="M250.913 47.7357V52.6633H232.005C231.496 53.6733 230.682 54.4869 229.68 54.988V74.7823H224.752V54.9141C223.086 54.0023 222.009 52.245 222.009 50.29C222.009 47.3749 224.382 45.0093 227.29 45.0093C229.236 45.0093 230.986 46.0767 231.897 47.7357H250.911H250.913Z" fill="white"/>
<path d="M293.153 50.4303C293.153 52.4261 292.012 54.2407 290.27 55.1283V74.7172H285.343V55.0543C284.357 54.5124 283.569 53.6822 283.101 52.6645H264.104V47.737H283.348C284.284 46.1596 286.017 45.1496 287.882 45.1496C290.789 45.1496 293.155 47.5151 293.155 50.4303H293.153Z" fill="white"/>
<path d="M293.203 110.988C293.203 113.895 290.838 116.261 287.93 116.261C285.868 116.261 284.02 115.062 283.166 113.255H264.111V108.327H283.371C283.848 107.514 284.522 106.841 285.343 106.389V86.2658H290.27V106.258C292.036 107.136 293.202 108.968 293.202 110.989L293.203 110.988Z" fill="white"/>
<path d="M311.971 112.491C312.422 113.279 312.661 114.174 312.661 115.095C312.661 118.01 310.295 120.376 307.38 120.376C304.465 120.376 302.107 118.01 302.107 115.095C302.107 112.18 304.472 109.822 307.38 109.822C307.519 109.822 307.667 109.83 307.807 109.839C312.973 100.985 315.692 90.8821 315.692 80.5655C315.692 70.2488 312.932 59.9831 307.683 51.0794C307.519 51.096 307.354 51.1037 307.182 51.1037C304.275 51.1037 301.901 48.7381 301.901 45.8305C301.901 42.923 304.275 40.5498 307.182 40.5498C310.09 40.5498 312.463 42.9154 312.463 45.8305C312.463 46.7092 312.241 47.5878 311.814 48.3606C317.579 58.0601 320.618 69.1814 320.618 80.5655C320.618 91.9495 317.629 102.849 311.969 112.491H311.971Z" fill="white"/>
<path d="M212.926 115.251C212.926 118.158 210.56 120.524 207.645 120.524C204.73 120.524 202.372 118.158 202.372 115.251C202.372 114.322 202.61 113.444 203.054 112.655C197.321 102.988 194.298 91.9087 194.298 80.5654C194.298 69.2222 197.287 58.2909 202.956 48.6475C202.464 47.8428 202.2 46.9068 202.2 45.9376C202.2 43.0301 204.573 40.6645 207.48 40.6645C210.388 40.6645 212.754 43.0301 212.754 45.9376C212.754 48.8452 210.19 51.3995 207.168 51.2107C201.969 60.0647 199.226 70.1914 199.226 80.5654C199.226 90.9395 201.985 101.107 207.201 109.986C207.349 109.979 207.497 109.97 207.645 109.97C210.56 109.97 212.926 112.335 212.926 115.251Z" fill="white"/>
<path d="M275.25 125.148C275.25 127.399 273.418 129.23 271.167 129.23H243.496C241.245 129.23 239.414 127.399 239.414 125.148C239.414 122.897 241.245 121.066 243.496 121.066H271.167C273.418 121.066 275.25 122.897 275.25 125.148Z" fill="white"/>
<path d="M306.271 66.6514V94.3304C306.271 96.5812 304.439 98.4125 302.188 98.4125C299.938 98.4125 298.106 96.5812 298.106 94.3304V66.6514C298.106 64.4006 299.938 62.5694 302.188 62.5694C304.439 62.5694 306.271 64.4006 306.271 66.6514Z" fill="white"/>
<path d="M216.908 66.7176V94.389C216.908 96.6398 215.077 98.471 212.826 98.471C210.575 98.471 208.744 96.6398 208.744 94.389V66.7176C208.744 64.4668 210.575 62.6356 212.826 62.6356C215.077 62.6356 216.908 64.4668 216.908 66.7176Z" fill="white"/>
<path d="M275.61 35.9003C275.61 38.1511 273.779 39.9823 271.528 39.9823H243.849C241.598 39.9823 239.767 38.1511 239.767 35.9003C239.767 34.7755 240.227 33.7566 240.966 33.017C241.705 32.2774 242.723 31.8183 243.849 31.8183H271.528C273.779 31.8183 275.61 33.6495 275.61 35.9003Z" fill="white"/>
</g>
<defs>
<filter id="filter0_d_977_261" x="0.36084" y="190.652" width="512.029" height="65.996" filterUnits="userSpaceOnUse" color-interpolation-filters="sRGB">
<feFlood flood-opacity="0" result="BackgroundImageFix"/>
<feColorMatrix in="SourceAlpha" type="matrix" values="0 0 0 0 0 0 0 0 0 0 0 0 0 0 0 0 0 0 127 0" result="hardAlpha"/>
<feOffset dy="4"/>
<feGaussianBlur stdDeviation="2"/>
<feComposite in2="hardAlpha" operator="out"/>
<feColorMatrix type="matrix" values="0 0 0 0 0 0 0 0 0 0 0 0 0 0 0 0 0 0 0.25 0"/>
<feBlend mode="normal" in2="BackgroundImageFix" result="effect1_dropShadow_977_261"/>
<feBlend mode="normal" in="SourceGraphic" in2="effect1_dropShadow_977_261" result="shape"/>
</filter>
<filter id="filter1_d_977_261" x="173" y="0.000137329" width="169" height="168.999" filterUnits="userSpaceOnUse" color-interpolation-filters="sRGB">
<feFlood flood-opacity="0" result="BackgroundImageFix"/>
<feColorMatrix in="SourceAlpha" type="matrix" values="0 0 0 0 0 0 0 0 0 0 0 0 0 0 0 0 0 0 127 0" result="hardAlpha"/>
<feOffset dy="4"/>
<feGaussianBlur stdDeviation="2"/>
<feComposite in2="hardAlpha" operator="out"/>
<feColorMatrix type="matrix" values="0 0 0 0 0 0 0 0 0 0 0 0 0 0 0 0 0 0 0.25 0"/>
<feBlend mode="normal" in2="BackgroundImageFix" result="effect1_dropShadow_977_261"/>
<feBlend mode="normal" in="SourceGraphic" in2="effect1_dropShadow_977_261" result="shape"/>
</filter>
</defs>
</svg>
