<svg width="127" height="127" viewBox="0 0 127 127" fill="none" xmlns="http://www.w3.org/2000/svg">
<path d="M81.2493 108.148C81.2493 110.399 79.418 112.23 77.1672 112.23H49.4959C47.2451 112.23 45.4138 110.399 45.4138 108.148C45.4138 105.897 47.2451 104.066 49.4959 104.066H77.1672C79.418 104.066 81.2493 105.897 81.2493 108.148Z" fill="white"/>
<path d="M56.9201 91.3273V96.2548H37.7749C36.8555 97.9216 35.0969 98.9979 33.142 98.9979C30.2345 98.9979 27.8689 96.6323 27.8689 93.7171C27.8689 91.7214 29.0192 89.9067 30.7522 89.0191V69.332H35.6797V89.0931C36.6158 89.6019 37.372 90.3824 37.8566 91.3273H56.9201Z" fill="white"/>
<path d="M103.598 113.182C103.598 116.098 101.232 118.463 98.3171 118.463C97.4296 118.463 96.5764 118.25 95.8125 117.831C86.071 123.653 74.9088 126.726 63.4598 126.726C52.0107 126.726 41.0449 123.703 31.3697 117.979C30.5816 118.414 29.694 118.652 28.7822 118.652C25.8747 118.652 23.5015 116.286 23.5015 113.371C23.5015 110.456 25.8747 108.098 28.7822 108.098C31.6898 108.098 34.063 110.464 34.063 113.371C34.063 113.527 34.063 113.691 34.0464 113.848C42.9335 119.047 53.0857 121.799 63.4585 121.799C73.8313 121.799 84.1314 119.006 93.0682 113.717C93.044 113.545 93.0351 113.364 93.0351 113.182C93.0351 110.275 95.4083 107.909 98.3158 107.909C101.223 107.909 103.597 110.275 103.597 113.182H103.598Z" fill="white"/>
<path d="M56.9125 30.7357V35.6633H38.0046C37.4958 36.6732 36.6822 37.4868 35.6798 37.988V57.7822H30.7523V37.914C29.0856 37.0023 28.0093 35.245 28.0093 33.29C28.0093 30.3748 30.3825 28.0093 33.29 28.0093C35.236 28.0093 36.9857 29.0766 37.8975 30.7357H56.9113H56.9125Z" fill="white"/>
<path d="M99.1537 33.4303C99.1537 35.4261 98.0123 37.2407 96.2704 38.1283V57.7172H91.3428V38.0543C90.3571 37.5124 89.569 36.6822 89.101 35.6645H70.1038V30.737H89.3484C90.2844 29.1596 92.0174 28.1496 93.8818 28.1496C96.7894 28.1496 99.1549 30.5151 99.1549 33.4303H99.1537Z" fill="white"/>
<path d="M98.0366 8.34642C97.1005 8.34642 96.1798 8.60146 95.3917 9.06055C85.7496 3.39339 74.7354 0.404236 63.4585 0.404236C52.1816 0.404236 41.0934 3.4189 31.4181 9.12686C30.6135 8.64992 29.6928 8.39615 28.7401 8.39615C25.8326 8.39615 23.467 10.7617 23.467 13.6769C23.467 16.5921 25.8326 18.95 28.7401 18.95C31.6477 18.95 34.0209 16.5844 34.0209 13.6769C34.0209 13.5621 34.0209 13.4384 34.0133 13.3237C42.8915 8.09137 53.0602 5.33175 63.4585 5.33175C73.8568 5.33175 83.9184 8.06714 92.78 13.2408C92.7724 13.3645 92.7635 13.4958 92.7635 13.6272C92.7635 16.5347 95.129 18.9003 98.0366 18.9003C100.944 18.9003 103.317 16.5347 103.317 13.6272C103.317 10.7196 100.952 8.34642 98.0366 8.34642ZM31.2447 12.116L31.9997 11.648C32.0073 11.6404 32.0162 11.6404 32.0239 11.6404L31.2434 12.1173L31.2447 12.116Z" fill="white"/>
<path d="M112.271 49.6514V77.3304C112.271 79.5812 110.439 81.4125 108.188 81.4125C105.938 81.4125 104.106 79.5812 104.106 77.3304V49.6514C104.106 47.4006 105.938 45.5694 108.188 45.5694C110.439 45.5694 112.271 47.4006 112.271 49.6514Z" fill="white"/>
<path d="M99.2031 93.9876C99.2031 96.8951 96.8375 99.2607 93.93 99.2607C91.8679 99.2607 90.0201 98.062 89.1657 96.255H70.1111V91.3274H89.371C89.8479 90.5138 90.5213 89.8405 91.3425 89.3891V69.2658H96.27V89.2577C98.0362 90.1364 99.2018 91.9676 99.2018 93.9889L99.2031 93.9876Z" fill="white"/>
<path d="M117.971 95.491C118.422 96.2791 118.661 97.1743 118.661 98.0951C118.661 101.01 116.295 103.376 113.38 103.376C110.465 103.376 108.107 101.01 108.107 98.0951C108.107 95.1799 110.472 92.822 113.38 92.822C113.519 92.822 113.667 92.8296 113.807 92.8385C118.973 83.9846 121.692 73.8821 121.692 63.5655C121.692 53.2488 118.932 42.9831 113.684 34.0794C113.519 34.096 113.355 34.1036 113.182 34.1036C110.275 34.1036 107.902 31.7381 107.902 28.8305C107.902 25.923 110.275 23.5498 113.182 23.5498C116.09 23.5498 118.463 25.9153 118.463 28.8305C118.463 29.7092 118.241 30.5878 117.814 31.3606C123.579 41.0601 126.618 52.1814 126.618 63.5655C126.618 74.9495 123.629 85.849 117.97 95.491H117.971Z" fill="white"/>
<path d="M22.9082 49.7176V77.389C22.9082 79.6398 21.077 81.471 18.8262 81.471C16.5754 81.471 14.7441 79.6398 14.7441 77.389V49.7176C14.7441 47.4668 16.5754 45.6356 18.8262 45.6356C21.077 45.6356 22.9082 47.4668 22.9082 49.7176Z" fill="white"/>
<path d="M18.9257 98.2506C18.9257 101.158 16.5602 103.524 13.645 103.524C10.7298 103.524 8.37187 101.158 8.37187 98.2506C8.37187 97.3222 8.61034 96.4436 9.05412 95.6555C3.32065 85.9879 0.29834 74.9087 0.29834 63.5654C0.29834 52.2222 3.2875 41.2909 8.95593 31.6475C8.46368 30.8428 8.19971 29.9068 8.19971 28.9376C8.19971 26.0301 10.5729 23.6645 13.4805 23.6645C16.388 23.6645 18.7536 26.0301 18.7536 28.9376C18.7536 31.8452 16.1903 34.3995 13.168 34.2107C7.96889 43.0647 5.22586 53.1914 5.22586 63.5654C5.22586 73.9395 7.98547 84.1069 13.2012 92.9864C13.3491 92.9788 13.497 92.9698 13.645 92.9698C16.5602 92.9698 18.9257 95.3354 18.9257 98.2506Z" fill="white"/>
<path d="M81.61 18.9003C81.61 21.1511 79.7787 22.9823 77.5279 22.9823H49.8489C47.5981 22.9823 45.7668 21.1511 45.7668 18.9003C45.7668 17.7755 46.2272 16.7566 46.9656 16.017C47.7052 15.2774 48.7228 14.8183 49.8489 14.8183H77.5279C79.7787 14.8183 81.61 16.6495 81.61 18.9003Z" fill="white"/>
</svg>
