<svg width="706" height="247" viewBox="0 0 706 247" fill="none" xmlns="http://www.w3.org/2000/svg">
<path d="M11.7157 109V107.11H18.6997C19.8337 107.11 19.8877 106.174 19.8877 105.742C19.8877 105.256 19.7617 104.662 18.6637 104.32L13.6957 102.754C12.0397 102.232 11.5537 101.17 11.5537 99.442C11.5537 97.642 12.4357 96.4 14.4337 96.4H21.6877V98.29H15.0637C14.4697 98.29 14.0017 98.65 14.0017 99.55C14.0017 100.108 14.0917 100.648 15.0997 100.972L19.7077 102.43C21.5437 103.006 22.3357 103.78 22.3357 105.76C22.3357 107.614 21.5797 109 19.6357 109H11.7157ZM36.8289 99.226L33.6069 107.632C33.2289 108.604 32.8869 109.144 31.8069 109.144C30.7269 109.144 30.3849 108.604 30.0069 107.632L26.7849 99.226C26.7309 99.082 26.6049 98.812 26.4789 98.812C26.2809 98.812 26.2809 99.136 26.2809 99.19L26.3349 109H23.9589V97.912C23.9589 96.76 24.7329 96.256 25.9929 96.256C27.4329 96.256 27.8649 96.994 28.2069 97.876L31.4649 106.282C31.5909 106.552 31.6809 106.75 31.8069 106.75C31.9329 106.75 32.0229 106.552 32.1489 106.282L35.4069 97.876C35.7489 96.994 36.1809 96.256 37.6209 96.256C38.8809 96.256 39.6549 96.76 39.6549 97.912V109H37.2789L37.3509 99.19C37.3509 98.848 37.2069 98.812 37.1349 98.812C37.0089 98.812 36.8829 99.082 36.8289 99.226ZM40.4503 109L45.2023 97.678C45.6523 96.616 46.1383 96.256 47.2723 96.256C48.3523 96.256 48.8923 96.616 49.3423 97.678L54.0943 109H51.5923L50.2963 105.814H44.2303L42.9523 109H40.4503ZM46.9123 98.992L44.8423 104.122H49.6843L47.6323 98.992C47.5603 98.794 47.4343 98.47 47.2723 98.47C47.1103 98.47 46.9843 98.794 46.9123 98.992ZM57.2548 109H54.8788V98.29C54.8788 96.85 55.6348 96.4 56.7148 96.4H63.0688C65.4088 96.4 66.2188 97.858 66.2188 100.378C66.2188 102.97 65.4088 104.59 63.3028 104.59H62.0428V104.68L66.4708 109H63.4108L59.3428 104.914C59.0728 104.626 58.7488 104.212 58.7488 103.852V103.564C58.7488 103.06 59.1088 102.7 59.8108 102.7H62.2588C63.5728 102.7 63.7708 101.818 63.7708 100.378C63.7708 98.938 63.5008 98.29 61.9888 98.29H58.1548C57.4348 98.29 57.2548 98.47 57.2548 99.19V109ZM74.3076 109H71.9316V98.29H67.0176V96.4H79.2396V98.29H74.3076V109ZM94.5775 109H89.5015C85.4155 109 84.3355 106.12 84.3355 102.7C84.3355 99.28 85.3615 96.4 89.6815 96.4H94.3795V97.264H89.6815C86.4415 97.264 85.3795 99.28 85.3795 102.7C85.3795 106.12 86.3695 108.136 89.5195 108.136H94.5775V109ZM99.9441 99.352C103.364 99.352 104.66 100.792 104.66 104.212C104.66 107.632 103.364 109.108 99.9441 109.108C96.5241 109.108 95.2281 107.632 95.2281 104.212C95.2281 100.792 96.5241 99.352 99.9441 99.352ZM96.2001 104.212C96.2001 107.272 97.2441 108.262 99.9441 108.262C102.644 108.262 103.688 107.272 103.688 104.212C103.688 101.152 102.644 100.198 99.9441 100.198C97.2441 100.198 96.2001 101.152 96.2001 104.212ZM106.275 109V100.972C106.275 100.054 106.563 99.46 107.571 99.46H116.409C118.389 99.46 119.163 100.522 119.163 102.394V109H118.227V102.394C118.227 101.242 117.849 100.306 116.409 100.306H113.187V109H112.251V100.306H107.787C107.427 100.306 107.211 100.378 107.211 100.99V109H106.275ZM121.111 109V100.972C121.111 100.054 121.399 99.46 122.407 99.46H131.245C133.225 99.46 133.999 100.522 133.999 102.394V109H133.063V102.394C133.063 101.242 132.685 100.306 131.245 100.306H128.023V109H127.087V100.306H122.623C122.263 100.306 122.047 100.378 122.047 100.99V109H121.111ZM143.579 99.46V107.488C143.579 108.406 143.291 109 142.283 109H138.701C136.721 109 135.947 107.938 135.947 106.066V99.46H136.883V106.066C136.883 107.218 137.261 108.154 138.701 108.154H142.067C142.427 108.154 142.643 108.082 142.643 107.47V99.46H143.579ZM145.527 109V100.972C145.527 100.054 145.815 99.46 146.823 99.46H150.333C152.313 99.46 153.087 100.522 153.087 102.394V109H152.151V102.394C152.151 101.242 151.773 100.306 150.333 100.306H147.039C146.679 100.306 146.463 100.378 146.463 100.99V109H145.527ZM155.072 109V99.46H156.008V109H155.072ZM156.044 97.804H155.036V96.4H156.044V97.804ZM165.118 109H161.698C158.458 109 157.666 107.29 157.666 104.23C157.666 101.35 158.458 99.46 161.698 99.46H164.902V100.306H161.698C159.178 100.306 158.638 101.71 158.638 104.23C158.638 106.93 159.178 108.154 161.698 108.154H165.118V109ZM166.77 99.46H171.396C172.98 99.46 173.682 100.342 173.682 101.854V107.74C173.682 108.586 173.448 109 172.296 109H168.624C166.734 109 166.05 108.1 166.05 106.12C166.05 104.14 166.752 103.294 168.624 103.294H172.746V101.692C172.746 100.972 172.404 100.306 171.396 100.306H166.77V99.46ZM172.746 104.14H168.372C167.22 104.14 167.022 104.968 167.022 106.12C167.022 107.272 167.22 108.154 168.372 108.154H172.296C172.62 108.154 172.746 107.938 172.746 107.722V104.14ZM179.634 109H178.734C176.142 109 176.142 107.488 176.142 105.976V100.306H174.648V99.46H176.142V96.4H177.078V99.46H179.634V100.306H177.078V106.246C177.078 107.74 177.474 108.154 178.95 108.154H179.634V109ZM184.829 99.352C188.249 99.352 189.545 100.792 189.545 104.212C189.545 107.632 188.249 109.108 184.829 109.108C181.409 109.108 180.113 107.632 180.113 104.212C180.113 100.792 181.409 99.352 184.829 99.352ZM181.085 104.212C181.085 107.272 182.129 108.262 184.829 108.262C187.529 108.262 188.573 107.272 188.573 104.212C188.573 101.152 187.529 100.198 184.829 100.198C182.129 100.198 181.085 101.152 181.085 104.212ZM191.16 109V102.736C191.16 100.576 192.186 99.46 194.346 99.46H194.994V100.306H194.346C192.726 100.306 192.096 101.152 192.096 102.952V109H191.16Z" fill="#DBFDFF"/>
<path d="M70.7333 241V239.11H77.7173C78.8513 239.11 78.9053 238.174 78.9053 237.742C78.9053 237.256 78.7793 236.662 77.6813 236.32L72.7133 234.754C71.0573 234.232 70.5713 233.17 70.5713 231.442C70.5713 229.642 71.4533 228.4 73.4513 228.4H80.7053V230.29H74.0813C73.4873 230.29 73.0193 230.65 73.0193 231.55C73.0193 232.108 73.1093 232.648 74.1173 232.972L78.7253 234.43C80.5613 235.006 81.3533 235.78 81.3533 237.76C81.3533 239.614 80.5973 241 78.6533 241H70.7333ZM95.8465 231.226L92.6245 239.632C92.2465 240.604 91.9045 241.144 90.8245 241.144C89.7445 241.144 89.4025 240.604 89.0245 239.632L85.8025 231.226C85.7485 231.082 85.6225 230.812 85.4965 230.812C85.2985 230.812 85.2985 231.136 85.2985 231.19L85.3525 241H82.9765V229.912C82.9765 228.76 83.7505 228.256 85.0105 228.256C86.4505 228.256 86.8825 228.994 87.2245 229.876L90.4825 238.282C90.6085 238.552 90.6985 238.75 90.8245 238.75C90.9505 238.75 91.0405 238.552 91.1665 238.282L94.4245 229.876C94.7665 228.994 95.1985 228.256 96.6385 228.256C97.8985 228.256 98.6725 228.76 98.6725 229.912V241H96.2965L96.3685 231.19C96.3685 230.848 96.2245 230.812 96.1525 230.812C96.0265 230.812 95.9005 231.082 95.8465 231.226ZM99.4679 241L104.22 229.678C104.67 228.616 105.156 228.256 106.29 228.256C107.37 228.256 107.91 228.616 108.36 229.678L113.112 241H110.61L109.314 237.814H103.248L101.97 241H99.4679ZM105.93 230.992L103.86 236.122H108.702L106.65 230.992C106.578 230.794 106.452 230.47 106.29 230.47C106.128 230.47 106.002 230.794 105.93 230.992ZM116.272 241H113.896V230.29C113.896 228.85 114.652 228.4 115.732 228.4H122.086C124.426 228.4 125.236 229.858 125.236 232.378C125.236 234.97 124.426 236.59 122.32 236.59H121.06V236.68L125.488 241H122.428L118.36 236.914C118.09 236.626 117.766 236.212 117.766 235.852V235.564C117.766 235.06 118.126 234.7 118.828 234.7H121.276C122.59 234.7 122.788 233.818 122.788 232.378C122.788 230.938 122.518 230.29 121.006 230.29H117.172C116.452 230.29 116.272 230.47 116.272 231.19V241ZM133.325 241H130.949V230.29H126.035V228.4H138.257V230.29H133.325V241ZM144.685 241H143.713V229.894C143.713 228.742 144.181 228.4 145.261 228.4H150.553C152.947 228.4 153.811 229.498 153.811 232.09C153.811 234.898 152.947 235.852 150.553 235.852H144.685V241ZM144.685 234.988H150.553C152.479 234.988 152.767 233.998 152.767 232.09C152.767 230.29 152.407 229.264 150.553 229.264H145.405C144.685 229.264 144.685 229.606 144.685 230.038V234.988ZM155.501 241V228.4H156.437V241H155.501ZM158.78 231.46H163.406C164.99 231.46 165.692 232.342 165.692 233.854V239.74C165.692 240.586 165.458 241 164.306 241H160.634C158.744 241 158.06 240.1 158.06 238.12C158.06 236.14 158.762 235.294 160.634 235.294H164.756V233.692C164.756 232.972 164.414 232.306 163.406 232.306H158.78V231.46ZM164.756 236.14H160.382C159.23 236.14 159.032 236.968 159.032 238.12C159.032 239.272 159.23 240.154 160.382 240.154H164.306C164.63 240.154 164.756 239.938 164.756 239.722V236.14ZM167.63 241V232.972C167.63 232.054 167.918 231.46 168.926 231.46H172.436C174.416 231.46 175.19 232.522 175.19 234.394V241H174.254V234.394C174.254 233.242 173.876 232.306 172.436 232.306H169.142C168.782 232.306 168.566 232.378 168.566 232.99V241H167.63ZM177.14 241V232.972C177.14 232.054 177.428 231.46 178.436 231.46H181.946C183.926 231.46 184.7 232.522 184.7 234.394V241H183.764V234.394C183.764 233.242 183.386 232.306 181.946 232.306H178.652C178.292 232.306 178.076 232.378 178.076 232.99V241H177.14ZM194.3 241H189.62C186.992 241 186.326 239.02 186.326 236.302C186.326 233.08 187.19 231.352 190.412 231.352C192.77 231.352 194.516 232.288 194.516 234.988C194.516 236.086 194.228 236.554 193.148 236.554H187.298C187.298 238.228 187.586 240.154 189.62 240.154H194.3V241ZM187.298 235.708H193.148C193.454 235.708 193.544 235.456 193.544 235.276V235.15C193.544 232.81 192.392 232.198 190.43 232.198C188.306 232.198 187.298 232.972 187.298 235.708ZM196.142 241V234.736C196.142 232.576 197.168 231.46 199.328 231.46H199.976V232.306H199.328C197.708 232.306 197.078 233.152 197.078 234.952V241H196.142Z" fill="#DBFDFF"/>
<path d="M560.936 240V238.11H567.92C569.054 238.11 569.108 237.174 569.108 236.742C569.108 236.256 568.982 235.662 567.884 235.32L562.916 233.754C561.26 233.232 560.774 232.17 560.774 230.442C560.774 228.642 561.656 227.4 563.654 227.4H570.908V229.29H564.284C563.69 229.29 563.222 229.65 563.222 230.55C563.222 231.108 563.312 231.648 564.32 231.972L568.928 233.43C570.764 234.006 571.556 234.78 571.556 236.76C571.556 238.614 570.8 240 568.856 240H560.936ZM586.05 230.226L582.828 238.632C582.45 239.604 582.108 240.144 581.028 240.144C579.948 240.144 579.606 239.604 579.228 238.632L576.006 230.226C575.952 230.082 575.826 229.812 575.7 229.812C575.502 229.812 575.502 230.136 575.502 230.19L575.556 240H573.18V228.912C573.18 227.76 573.954 227.256 575.214 227.256C576.654 227.256 577.086 227.994 577.428 228.876L580.686 237.282C580.812 237.552 580.902 237.75 581.028 237.75C581.154 237.75 581.244 237.552 581.37 237.282L584.628 228.876C584.97 227.994 585.402 227.256 586.842 227.256C588.102 227.256 588.876 227.76 588.876 228.912V240H586.5L586.572 230.19C586.572 229.848 586.428 229.812 586.356 229.812C586.23 229.812 586.104 230.082 586.05 230.226ZM589.671 240L594.423 228.678C594.873 227.616 595.359 227.256 596.493 227.256C597.573 227.256 598.113 227.616 598.563 228.678L603.315 240H600.813L599.517 236.814H593.451L592.173 240H589.671ZM596.133 229.992L594.063 235.122H598.905L596.853 229.992C596.781 229.794 596.655 229.47 596.493 229.47C596.331 229.47 596.205 229.794 596.133 229.992ZM606.476 240H604.1V229.29C604.1 227.85 604.856 227.4 605.936 227.4H612.29C614.63 227.4 615.44 228.858 615.44 231.378C615.44 233.97 614.63 235.59 612.524 235.59H611.264V235.68L615.692 240H612.632L608.564 235.914C608.294 235.626 607.97 235.212 607.97 234.852V234.564C607.97 234.06 608.33 233.7 609.032 233.7H611.48C612.794 233.7 612.992 232.818 612.992 231.378C612.992 229.938 612.722 229.29 611.21 229.29H607.376C606.656 229.29 606.476 229.47 606.476 230.19V240ZM623.528 240H621.152V229.29H616.238V227.4H628.46V229.29H623.528V240ZM640.108 240H635.626C634.51 240 633.916 239.568 633.916 238.308V229.074C633.916 227.814 634.51 227.4 635.626 227.4H639.928C643.708 227.4 644.86 230.208 644.86 233.628C644.86 237.048 643.888 240 640.108 240ZM639.748 228.264H635.662C635.032 228.264 634.888 228.588 634.888 229.056V238.308C634.888 238.92 634.996 239.136 635.662 239.136H639.928C643.348 239.136 643.816 236.508 643.816 233.628C643.816 230.748 643.168 228.264 639.748 228.264ZM651.116 230.352C654.536 230.352 655.832 231.792 655.832 235.212C655.832 238.632 654.536 240.108 651.116 240.108C647.696 240.108 646.4 238.632 646.4 235.212C646.4 231.792 647.696 230.352 651.116 230.352ZM647.372 235.212C647.372 238.272 648.416 239.262 651.116 239.262C653.816 239.262 654.86 238.272 654.86 235.212C654.86 232.152 653.816 231.198 651.116 231.198C648.416 231.198 647.372 232.152 647.372 235.212ZM665.097 240H660.417C657.789 240 657.123 238.02 657.123 235.302C657.123 232.08 657.987 230.352 661.209 230.352C663.567 230.352 665.313 231.288 665.313 233.988C665.313 235.086 665.025 235.554 663.945 235.554H658.095C658.095 237.228 658.383 239.154 660.417 239.154H665.097V240ZM658.095 234.708H663.945C664.251 234.708 664.341 234.456 664.341 234.276V234.15C664.341 231.81 663.189 231.198 661.227 231.198C659.103 231.198 658.095 231.972 658.095 234.708ZM666.939 240V233.736C666.939 231.576 667.965 230.46 670.125 230.46H670.773V231.306H670.125C668.505 231.306 667.875 232.152 667.875 233.952V240H666.939Z" fill="#DBFDFF"/>
<path d="M270.221 18V16.11H277.205C278.339 16.11 278.393 15.174 278.393 14.742C278.393 14.256 278.267 13.662 277.169 13.32L272.201 11.754C270.545 11.232 270.059 10.17 270.059 8.442C270.059 6.642 270.941 5.4 272.939 5.4H280.193V7.29H273.569C272.975 7.29 272.507 7.65 272.507 8.55C272.507 9.108 272.597 9.648 273.605 9.972L278.213 11.43C280.049 12.006 280.841 12.78 280.841 14.76C280.841 16.614 280.085 18 278.141 18H270.221ZM295.334 8.226L292.112 16.632C291.734 17.604 291.392 18.144 290.312 18.144C289.232 18.144 288.89 17.604 288.512 16.632L285.29 8.226C285.236 8.082 285.11 7.812 284.984 7.812C284.786 7.812 284.786 8.136 284.786 8.19L284.84 18H282.464V6.912C282.464 5.76 283.238 5.256 284.498 5.256C285.938 5.256 286.37 5.994 286.712 6.876L289.97 15.282C290.096 15.552 290.186 15.75 290.312 15.75C290.438 15.75 290.528 15.552 290.654 15.282L293.912 6.876C294.254 5.994 294.686 5.256 296.126 5.256C297.386 5.256 298.16 5.76 298.16 6.912V18H295.784L295.856 8.19C295.856 7.848 295.712 7.812 295.64 7.812C295.514 7.812 295.388 8.082 295.334 8.226ZM298.955 18L303.707 6.678C304.157 5.616 304.643 5.256 305.777 5.256C306.857 5.256 307.397 5.616 307.847 6.678L312.599 18H310.097L308.801 14.814H302.735L301.457 18H298.955ZM305.417 7.992L303.347 13.122H308.189L306.137 7.992C306.065 7.794 305.939 7.47 305.777 7.47C305.615 7.47 305.489 7.794 305.417 7.992ZM315.76 18H313.384V7.29C313.384 5.85 314.14 5.4 315.22 5.4H321.574C323.914 5.4 324.724 6.858 324.724 9.378C324.724 11.97 323.914 13.59 321.808 13.59H320.548V13.68L324.976 18H321.916L317.848 13.914C317.578 13.626 317.254 13.212 317.254 12.852V12.564C317.254 12.06 317.614 11.7 318.316 11.7H320.764C322.078 11.7 322.276 10.818 322.276 9.378C322.276 7.938 322.006 7.29 320.494 7.29H316.66C315.94 7.29 315.76 7.47 315.76 8.19V18ZM332.812 18H330.436V7.29H325.522V5.4H337.744V7.29H332.812V18ZM344.172 18H343.2V6.894C343.2 5.742 343.668 5.4 344.748 5.4H350.04C352.434 5.4 353.298 6.498 353.298 9.09C353.298 11.898 352.434 12.852 350.04 12.852H344.172V18ZM344.172 11.988H350.04C351.966 11.988 352.254 10.998 352.254 9.09C352.254 7.29 351.894 6.264 350.04 6.264H344.892C344.172 6.264 344.172 6.606 344.172 7.038V11.988ZM354.637 18V11.736C354.637 9.576 355.663 8.46 357.823 8.46H358.471V9.306H357.823C356.203 9.306 355.573 10.152 355.573 11.952V18H354.637ZM363.476 8.352C366.896 8.352 368.192 9.792 368.192 13.212C368.192 16.632 366.896 18.108 363.476 18.108C360.056 18.108 358.76 16.632 358.76 13.212C358.76 9.792 360.056 8.352 363.476 8.352ZM359.732 13.212C359.732 16.272 360.776 17.262 363.476 17.262C366.176 17.262 367.22 16.272 367.22 13.212C367.22 10.152 366.176 9.198 363.476 9.198C360.776 9.198 359.732 10.152 359.732 13.212ZM373.749 18H371.733C370.563 18 369.807 17.856 369.807 16.506V5.4H370.743V8.46H373.749C376.809 8.46 377.655 10.116 377.655 13.176C377.655 16.236 376.809 18 373.749 18ZM370.743 9.306V16.416C370.743 16.884 370.761 17.154 371.409 17.154H373.749C376.269 17.154 376.683 15.516 376.683 13.176C376.683 10.836 376.269 9.306 373.749 9.306H370.743ZM379.282 18V5.4H380.218V18H379.282ZM389.814 18H385.134C382.506 18 381.84 16.02 381.84 13.302C381.84 10.08 382.704 8.352 385.926 8.352C388.284 8.352 390.03 9.288 390.03 11.988C390.03 13.086 389.742 13.554 388.662 13.554H382.812C382.812 15.228 383.1 17.154 385.134 17.154H389.814V18ZM382.812 12.708H388.662C388.968 12.708 389.058 12.456 389.058 12.276V12.15C389.058 9.81 387.906 9.198 385.944 9.198C383.82 9.198 382.812 9.972 382.812 12.708ZM391.657 18V9.972C391.657 9.054 391.945 8.46 392.953 8.46H401.791C403.771 8.46 404.545 9.522 404.545 11.394V18H403.609V11.394C403.609 10.242 403.231 9.306 401.791 9.306H398.569V18H397.633V9.306H393.169C392.809 9.306 392.593 9.378 392.593 9.99V18H391.657ZM410.64 18V17.136H417.75C418.506 17.136 419.226 16.74 419.226 14.976C419.226 14.148 419.046 13.392 417.642 12.906L412.62 11.178C411.27 10.71 410.442 10.008 410.442 8.244C410.442 6.444 411.306 5.4 413.286 5.4H419.676V6.264H413.286C411.972 6.264 411.486 6.804 411.486 8.244C411.486 9.054 411.54 9.81 412.764 10.242L417.66 11.97C419.172 12.492 420.27 12.996 420.27 14.976C420.27 16.524 419.694 18 417.75 18H410.64ZM426.353 8.352C429.773 8.352 431.069 9.792 431.069 13.212C431.069 16.632 429.773 18.108 426.353 18.108C422.933 18.108 421.637 16.632 421.637 13.212C421.637 9.792 422.933 8.352 426.353 8.352ZM422.609 13.212C422.609 16.272 423.653 17.262 426.353 17.262C429.053 17.262 430.097 16.272 430.097 13.212C430.097 10.152 429.053 9.198 426.353 9.198C423.653 9.198 422.609 10.152 422.609 13.212ZM432.684 18V5.4H433.62V18H432.684ZM435.549 8.46L438.627 16.83C438.699 17.028 438.771 17.226 438.897 17.226C439.023 17.226 439.095 17.028 439.167 16.83L442.245 8.46H443.199L439.887 17.28C439.617 17.982 439.257 18.108 438.897 18.108C438.537 18.108 438.177 17.982 437.907 17.28L434.595 8.46H435.549ZM451.812 18H447.132C444.504 18 443.838 16.02 443.838 13.302C443.838 10.08 444.702 8.352 447.924 8.352C450.282 8.352 452.028 9.288 452.028 11.988C452.028 13.086 451.74 13.554 450.66 13.554H444.81C444.81 15.228 445.098 17.154 447.132 17.154H451.812V18ZM444.81 12.708H450.66C450.966 12.708 451.056 12.456 451.056 12.276V12.15C451.056 9.81 449.904 9.198 447.942 9.198C445.818 9.198 444.81 9.972 444.81 12.708ZM453.655 18V11.736C453.655 9.576 454.681 8.46 456.841 8.46H457.489V9.306H456.841C455.221 9.306 454.591 10.152 454.591 11.952V18H453.655Z" fill="#DBFDFF"/>
<path d="M569.612 115V113.11H576.596C577.73 113.11 577.784 112.174 577.784 111.742C577.784 111.256 577.658 110.662 576.56 110.32L571.592 108.754C569.936 108.232 569.45 107.17 569.45 105.442C569.45 103.642 570.332 102.4 572.33 102.4H579.584V104.29H572.96C572.366 104.29 571.898 104.65 571.898 105.55C571.898 106.108 571.988 106.648 572.996 106.972L577.604 108.43C579.44 109.006 580.232 109.78 580.232 111.76C580.232 113.614 579.476 115 577.532 115H569.612ZM594.725 105.226L591.503 113.632C591.125 114.604 590.783 115.144 589.703 115.144C588.623 115.144 588.281 114.604 587.903 113.632L584.681 105.226C584.627 105.082 584.501 104.812 584.375 104.812C584.177 104.812 584.177 105.136 584.177 105.19L584.231 115H581.855V103.912C581.855 102.76 582.629 102.256 583.889 102.256C585.329 102.256 585.761 102.994 586.103 103.876L589.361 112.282C589.487 112.552 589.577 112.75 589.703 112.75C589.829 112.75 589.919 112.552 590.045 112.282L593.303 103.876C593.645 102.994 594.077 102.256 595.517 102.256C596.777 102.256 597.551 102.76 597.551 103.912V115H595.175L595.247 105.19C595.247 104.848 595.103 104.812 595.031 104.812C594.905 104.812 594.779 105.082 594.725 105.226ZM598.347 115L603.099 103.678C603.549 102.616 604.035 102.256 605.169 102.256C606.249 102.256 606.789 102.616 607.239 103.678L611.991 115H609.489L608.193 111.814H602.127L600.849 115H598.347ZM604.809 104.992L602.739 110.122H607.581L605.529 104.992C605.457 104.794 605.331 104.47 605.169 104.47C605.007 104.47 604.881 104.794 604.809 104.992ZM615.151 115H612.775V104.29C612.775 102.85 613.531 102.4 614.611 102.4H620.965C623.305 102.4 624.115 103.858 624.115 106.378C624.115 108.97 623.305 110.59 621.199 110.59H619.939V110.68L624.367 115H621.307L617.239 110.914C616.969 110.626 616.645 110.212 616.645 109.852V109.564C616.645 109.06 617.005 108.7 617.707 108.7H620.155C621.469 108.7 621.667 107.818 621.667 106.378C621.667 104.938 621.397 104.29 619.885 104.29H616.051C615.331 104.29 615.151 104.47 615.151 105.19V115ZM632.204 115H629.828V104.29H624.914V102.4H637.136V104.29H632.204V115ZM647.578 115H646.606V103.264H641.332V102.4H652.852V103.264H647.578V115ZM653.818 115V102.4H654.754V105.46H658.426C660.478 105.46 661.378 106.504 661.378 108.664V115H660.442V108.556C660.442 107.116 659.866 106.306 658.426 106.306H654.754V115H653.818ZM663.363 115V105.46H664.299V115H663.363ZM664.335 103.804H663.327V102.4H664.335V103.804ZM666.281 115V106.972C666.281 106.054 666.569 105.46 667.577 105.46H671.087C673.067 105.46 673.841 106.522 673.841 108.394V115H672.905V108.394C672.905 107.242 672.527 106.306 671.087 106.306H667.793C667.433 106.306 667.217 106.378 667.217 106.99V115H666.281ZM683.332 115H682.036L678.166 111.436C677.86 111.166 677.446 110.626 677.446 110.068C677.446 109.51 677.806 109.06 678.184 108.7L681.64 105.46H682.9L678.76 109.348C678.598 109.492 678.418 109.726 678.418 110.032C678.418 110.41 678.724 110.734 678.94 110.932L683.332 115ZM676.726 115H675.79V102.4H676.726V115ZM691.421 115H686.741C684.113 115 683.447 113.02 683.447 110.302C683.447 107.08 684.311 105.352 687.533 105.352C689.891 105.352 691.637 106.288 691.637 108.988C691.637 110.086 691.349 110.554 690.269 110.554H684.419C684.419 112.228 684.707 114.154 686.741 114.154H691.421V115ZM684.419 109.708H690.269C690.575 109.708 690.665 109.456 690.665 109.276V109.15C690.665 106.81 689.513 106.198 687.551 106.198C685.427 106.198 684.419 106.972 684.419 109.708ZM693.263 115V108.736C693.263 106.576 694.289 105.46 696.449 105.46H697.097V106.306H696.449C694.829 106.306 694.199 107.152 694.199 108.952V115H693.263Z" fill="#DBFDFF"/>
</svg>
