<svg width="186" height="6" viewBox="0 0 186 6" fill="none" xmlns="http://www.w3.org/2000/svg">
<path d="M0.934172 5.94257C0.497393 5.94257 0.232422 5.73571 0.232422 5.23654V1.65636C0.232422 1.12138 0.497393 0.950195 0.934172 0.950195H4.03489V1.49223H1.22781C0.948543 1.49223 0.898424 1.57782 0.898424 1.8274V3.11833H3.96332V3.66036H0.898424V5.05817C0.898424 5.30789 0.948543 5.40053 1.22781 5.40053H4.06356V5.94257H0.934172Z" fill="white"/>
<path d="M9.78128 5.37238C9.78128 5.79314 9.53776 6 9.17977 6C8.90765 6 8.71425 5.91441 8.52092 5.60772L6.15785 1.84211C6.10773 1.75652 6.06476 1.72085 6.01464 1.72085C5.98597 1.72085 5.91433 1.74933 5.91433 1.8634V5.94289H5.2627V1.4855C5.2627 1.02906 5.59923 0.893555 5.87858 0.893555C6.24379 0.893555 6.4013 1.06474 6.52306 1.25721L8.90765 5.05144C8.9434 5.10841 8.97207 5.17271 9.04371 5.17271C9.12965 5.17271 9.12965 5.09417 9.12965 5.05144V0.950521H9.78128V5.37238Z" fill="white"/>
<path d="M15.5254 5.94257H14.8595V3.66036H11.9307V5.94257H11.2646V0.950195H11.9307V3.11833H14.8595V0.950195H15.5254V5.94257Z" fill="white"/>
<path d="M18.483 1.44264C18.6333 1.09322 18.7909 0.893555 19.1704 0.893555C19.5356 0.893555 19.7218 1.10027 19.865 1.44264L21.7627 5.94289H21.0609L20.4952 4.58781H17.8385L17.2799 5.94289H16.5781L18.483 1.44264ZM18.039 4.04578H20.2947L19.3494 1.75652C19.3065 1.65669 19.2564 1.51399 19.1704 1.51399C19.0845 1.51399 19.0415 1.65669 18.9985 1.75652L18.039 4.04578Z" fill="white"/>
<path d="M27.333 5.37238C27.333 5.79314 27.0895 6 26.7315 6C26.4594 6 26.266 5.91441 26.0727 5.60772L23.7096 1.84211C23.6595 1.75652 23.6165 1.72085 23.5664 1.72085C23.5377 1.72085 23.4661 1.74933 23.4661 1.8634V5.94289H22.8145V1.4855C22.8145 1.02906 23.151 0.893555 23.4303 0.893555C23.7955 0.893555 23.9531 1.06474 24.0748 1.25721L26.4594 5.05144C26.4952 5.10841 26.5238 5.17271 26.5955 5.17271C26.6814 5.17271 26.6814 5.09417 26.6814 5.05144V0.950521H27.333V5.37238Z" fill="white"/>
<path d="M30.7434 5.94257C29.0677 5.94257 28.6523 4.83002 28.6523 3.43926C28.6523 2.0485 29.0605 0.950195 30.7791 0.950195H32.7198V1.49223H31.0011C29.748 1.49223 29.3469 2.08418 29.3469 3.43926C29.3469 4.79434 29.7337 5.40053 30.9653 5.40053H32.7913V5.94257H30.7434Z" fill="white"/>
<path d="M34.6598 5.94257C34.223 5.94257 33.958 5.73571 33.958 5.23654V1.65636C33.958 1.12138 34.223 0.950195 34.6598 0.950195H37.7605V1.49223H34.9534C34.6741 1.49223 34.624 1.57782 34.624 1.8274V3.11833H37.6889V3.66036H34.624V5.05817C34.624 5.30789 34.6741 5.40053 34.9534 5.40053H37.7891V5.94257H34.6598Z" fill="white"/>
<path d="M47.1192 0.950195H47.8497L45.7515 4.35933V5.94257H45.0855V4.35933L42.9873 0.950195H43.7177L45.4149 3.76019L47.1192 0.950195Z" fill="white"/>
<path d="M53.4339 3.44678C53.4339 5.35813 52.7823 6 50.9348 6C49.1016 6 48.4355 5.35813 48.4355 3.44678C48.4355 1.53542 49.1016 0.893555 50.9348 0.893555C52.7823 0.893555 53.4339 1.53542 53.4339 3.44678ZM50.9348 5.45797C52.3598 5.45797 52.7393 4.95866 52.7393 3.44678C52.7393 1.94195 52.3598 1.43559 50.9348 1.43559C49.5097 1.43559 49.1301 1.94195 49.1301 3.44678C49.1301 4.95866 49.5097 5.45797 50.9348 5.45797Z" fill="white"/>
<path d="M58.1742 4.1952V0.950195H58.8402V4.2595C58.8402 5.57891 58.0453 5.99967 56.7922 5.99967C55.5391 5.99967 54.7441 5.57891 54.7441 4.2595V0.950195H55.4101V4.1952C55.4101 5.12247 55.7896 5.45764 56.7922 5.45764C57.7947 5.45764 58.1742 5.12247 58.1742 4.1952Z" fill="white"/>
<path d="M60.3115 1.70628C60.3115 1.1713 60.5765 0.950195 61.0491 0.950195H63.3693C64.293 0.950195 64.5866 1.53509 64.5866 2.46222C64.5866 3.41783 64.3145 4.05264 63.4481 4.05264H62.6388V4.08832L64.694 5.94257H63.806L61.887 4.18815C61.7938 4.10256 61.7007 3.99553 61.7007 3.87427V3.76019C61.7007 3.61044 61.8082 3.51061 62.0015 3.51061H63.2261C63.8347 3.51061 63.892 3.06841 63.892 2.46222C63.892 1.84179 63.7917 1.49223 63.1186 1.49223H61.3355C61.1064 1.49223 60.9775 1.56358 60.9775 1.83459V5.94257H60.3115V1.70628Z" fill="white"/>
<path d="M72.978 1.39272C73.0281 1.2073 73.1355 0.893555 73.5795 0.893555C73.9948 0.893555 74.1237 1.19305 74.181 1.39272L75.1835 5.16552C75.1978 5.22968 75.2552 5.28678 75.3053 5.28678C75.3769 5.28678 75.4055 5.18695 75.4198 5.13704L76.4869 0.950521H77.1599L75.9641 5.44373C75.8638 5.81458 75.7063 6 75.3196 6C74.8613 6 74.7395 5.72898 74.668 5.45078L73.6869 1.785C73.6726 1.72085 73.644 1.6495 73.5795 1.6495C73.5151 1.6495 73.4864 1.72085 73.4721 1.785L72.4839 5.45078C72.4123 5.72898 72.2977 6 71.8394 6C71.4527 6 71.2951 5.81458 71.1949 5.44373L69.999 0.950521H70.6722L71.7391 5.13704C71.7534 5.18695 71.7678 5.28678 71.8537 5.28678C71.9039 5.28678 71.9611 5.22968 71.9754 5.16552L72.978 1.39272Z" fill="white"/>
<path d="M82.9475 3.44678C82.9475 5.35813 82.2959 6 80.4484 6C78.6152 6 77.9492 5.35813 77.9492 3.44678C77.9492 1.53542 78.6152 0.893555 80.4484 0.893555C82.2959 0.893555 82.9475 1.53542 82.9475 3.44678ZM80.4484 5.45797C81.8734 5.45797 82.2529 4.95866 82.2529 3.44678C82.2529 1.94195 81.8734 1.43559 80.4484 1.43559C79.0233 1.43559 78.6438 1.94195 78.6438 3.44678C78.6438 4.95866 79.0233 5.45797 80.4484 5.45797Z" fill="white"/>
<path d="M84.2832 1.70628C84.2832 1.1713 84.5482 0.950195 85.0208 0.950195H87.3409C88.2647 0.950195 88.5583 1.53509 88.5583 2.46222C88.5583 3.41783 88.2862 4.05264 87.4197 4.05264H86.6105V4.08832L88.6657 5.94257H87.7777L85.8587 4.18815C85.7655 4.10256 85.6724 3.99553 85.6724 3.87427V3.76019C85.6724 3.61044 85.7799 3.51061 85.9732 3.51061H87.1977C87.8064 3.51061 87.8637 3.06841 87.8637 2.46222C87.8637 1.84179 87.7634 1.49223 87.0903 1.49223H85.3072C85.0781 1.49223 84.9492 1.56358 84.9492 1.83459V5.94257H84.2832V1.70628Z" fill="white"/>
<path d="M89.8818 0.950195H90.5478V5.94257H89.8818V0.950195ZM93.4767 5.94257L91.1636 4.02402C90.8772 3.78868 90.82 3.57477 90.82 3.3751C90.82 3.21816 90.9131 3.0113 91.1278 2.82588L93.2475 0.950195H94.1139L91.7509 3.0113C91.6219 3.12552 91.4716 3.21816 91.4716 3.3751C91.4716 3.55333 91.6506 3.69604 91.8081 3.82435L94.3789 5.94257H93.4767Z" fill="white"/>
<path d="M95.4102 5.94257V1.62069C95.4102 1.10714 95.6536 0.950195 96.0833 0.950195H98.382C99.3916 0.950195 99.6638 1.5351 99.6638 2.47646C99.6638 3.4607 99.3916 4.0384 98.382 4.0384H96.0762V5.94257H95.4102ZM98.1457 3.49637C98.8546 3.49637 98.9692 3.13976 98.9692 2.47646C98.9692 1.8346 98.8403 1.49223 98.1457 1.49223H96.3984C96.1119 1.49223 96.0762 1.59206 96.0762 1.82035V3.49637H98.1457Z" fill="white"/>
<path d="M101.501 5.94257C101.135 5.94257 100.863 5.79987 100.863 5.34342V0.950195H101.529V5.10104C101.529 5.32214 101.601 5.40053 101.844 5.40053H104.623V5.94257H101.501Z" fill="white"/>
<path d="M107.361 1.44264C107.511 1.09322 107.669 0.893555 108.048 0.893555C108.414 0.893555 108.6 1.10027 108.743 1.44264L110.641 5.94289H109.939L109.373 4.58781H106.716L106.158 5.94289H105.456L107.361 1.44264ZM106.917 4.04578H109.173L108.227 1.75652C108.184 1.65669 108.134 1.51399 108.048 1.51399C107.962 1.51399 107.919 1.65669 107.876 1.75652L106.917 4.04578Z" fill="white"/>
<path d="M113.382 5.94257C111.706 5.94257 111.291 4.83002 111.291 3.43926C111.291 2.0485 111.699 0.950195 113.418 0.950195H115.358V1.49223H113.64C112.387 1.49223 111.986 2.08418 111.986 3.43926C111.986 4.79434 112.372 5.40053 113.604 5.40053H115.43V5.94257H113.382Z" fill="white"/>
<path d="M117.298 5.94257C116.862 5.94257 116.597 5.73571 116.597 5.23654V1.65636C116.597 1.12138 116.862 0.950195 117.298 0.950195H120.399V1.49223H117.592C117.313 1.49223 117.263 1.57782 117.263 1.8274V3.11833H120.328V3.66036H117.263V5.05817C117.263 5.30789 117.313 5.40053 117.592 5.40053H120.428V5.94257H117.298Z" fill="white"/>
<path d="M126.162 5.94257V0.950195H126.828V5.94257H126.162Z" fill="white"/>
<path d="M132.818 5.37238C132.818 5.79314 132.575 6 132.217 6C131.945 6 131.751 5.91441 131.558 5.60772L129.195 1.84211C129.145 1.75652 129.102 1.72085 129.052 1.72085C129.023 1.72085 128.951 1.74933 128.951 1.8634V5.94289H128.3V1.4855C128.3 1.02906 128.636 0.893555 128.916 0.893555C129.281 0.893555 129.438 1.06474 129.56 1.25721L131.945 5.05144C131.981 5.10841 132.009 5.17271 132.081 5.17271C132.167 5.17271 132.167 5.09417 132.167 5.05144V0.950521H132.818V5.37238Z" fill="white"/>
<path d="M135.927 5.94257V1.49223H133.9V0.950195H138.619V1.49223H136.593V5.94257H135.927Z" fill="white"/>
<path d="M140.403 5.94257C139.966 5.94257 139.701 5.73571 139.701 5.23654V1.65636C139.701 1.12138 139.966 0.950195 140.403 0.950195H143.504V1.49223H140.697C140.417 1.49223 140.367 1.57782 140.367 1.8274V3.11833H143.432V3.66036H140.367V5.05817C140.367 5.30789 140.417 5.40053 140.697 5.40053H143.532V5.94257H140.403Z" fill="white"/>
<path d="M145.369 5.94257C145.004 5.94257 144.731 5.79987 144.731 5.34342V0.950195H145.397V5.10104C145.397 5.32214 145.469 5.40053 145.712 5.40053H148.491V5.94257H145.369Z" fill="white"/>
<path d="M150.211 5.94257C149.846 5.94257 149.574 5.79987 149.574 5.34342V0.950195H150.24V5.10104C150.24 5.32214 150.312 5.40053 150.555 5.40053H153.334V5.94257H150.211Z" fill="white"/>
<path d="M155.118 5.94257C154.681 5.94257 154.416 5.73571 154.416 5.23654V1.65636C154.416 1.12138 154.681 0.950195 155.118 0.950195H158.218V1.49223H155.411C155.132 1.49223 155.082 1.57782 155.082 1.8274V3.11833H158.147V3.66036H155.082V5.05817C155.082 5.30789 155.132 5.40053 155.411 5.40053H158.247V5.94257H155.118Z" fill="white"/>
<path d="M163.802 5.29351C163.802 5.75714 163.573 5.94257 163.143 5.94257H161.324C159.699 5.94257 159.326 4.83707 159.326 3.44645C159.326 2.05569 159.699 0.950195 161.417 0.950195H163.687V1.49223H161.639C160.386 1.49223 160.021 2.09137 160.021 3.44645C160.021 4.80139 160.386 5.40053 161.539 5.40053H162.806C163.057 5.40053 163.136 5.31494 163.136 5.06536V3.57477H163.802V5.29351Z" fill="white"/>
<path d="M165.823 5.94257C165.386 5.94257 165.121 5.73571 165.121 5.23654V1.65636C165.121 1.12138 165.386 0.950195 165.823 0.950195H168.924V1.49223H166.116C165.837 1.49223 165.787 1.57782 165.787 1.8274V3.11833H168.852V3.66036H165.787V5.05817C165.787 5.30789 165.837 5.40053 166.116 5.40053H168.952V5.94257H165.823Z" fill="white"/>
<path d="M174.671 5.37238C174.671 5.79314 174.427 6 174.069 6C173.797 6 173.604 5.91441 173.411 5.60772L171.047 1.84211C170.997 1.75652 170.954 1.72085 170.904 1.72085C170.876 1.72085 170.804 1.74933 170.804 1.8634V5.94289H170.152V1.4855C170.152 1.02906 170.489 0.893555 170.768 0.893555C171.133 0.893555 171.291 1.06474 171.413 1.25721L173.797 5.05144C173.833 5.10841 173.862 5.17271 173.933 5.17271C174.019 5.17271 174.019 5.09417 174.019 5.05144V0.950521H174.671V5.37238Z" fill="white"/>
<path d="M178.081 5.94257C176.406 5.94257 175.99 4.83002 175.99 3.43926C175.99 2.0485 176.398 0.950195 178.117 0.950195H180.058V1.49223H178.339C177.086 1.49223 176.685 2.08418 176.685 3.43926C176.685 4.79434 177.071 5.40053 178.303 5.40053H180.129V5.94257H178.081Z" fill="white"/>
<path d="M181.998 5.94257C181.561 5.94257 181.296 5.73571 181.296 5.23654V1.65636C181.296 1.12138 181.561 0.950195 181.998 0.950195H185.098V1.49223H182.291C182.012 1.49223 181.962 1.57782 181.962 1.8274V3.11833H185.027V3.66036H181.962V5.05817C181.962 5.30789 182.012 5.40053 182.291 5.40053H185.127V5.94257H181.998Z" fill="white"/>
</svg>
