<svg width="161" height="161" viewBox="0 0 161 161" fill="none" xmlns="http://www.w3.org/2000/svg">
<path d="M88.6073 5.28091C88.6073 2.36571 90.9729 0.000137329 93.8881 0.000137329C96.2447 0.000137329 98.2736 1.56103 98.9316 3.76209C127.637 10.628 150.396 33.4126 157.23 62.1272C159.431 62.7763 161 64.8217 161 67.186C161 70.0936 158.627 72.4591 155.719 72.4591C152.812 72.4591 150.446 70.0936 150.446 67.186C150.446 65.5767 151.169 64.0732 152.392 63.0798C145.945 36.3291 124.721 15.0798 97.9778 8.60799C96.9844 9.8233 95.4885 10.554 93.8881 10.554C90.9729 10.554 88.6073 8.18845 88.6073 5.28091Z" fill="white"/>
<path d="M-0.00012207 67.1771C-0.00012207 64.7542 1.60157 62.7087 3.85236 62.0928C4.66597 58.6764 5.71677 55.2919 6.9818 52.0146C16.189 28.1957 37.2317 9.78125 62.0287 3.78509C62.6855 1.59167 64.7233 0.0320511 67.0799 0.0320511C69.9875 0.0320511 72.353 2.39762 72.353 5.31282C72.353 8.22801 69.9875 10.5859 67.0799 10.5859C65.4616 10.5859 63.9594 9.85522 62.9647 8.63099C39.8192 14.3058 20.1729 31.5381 11.5816 53.7884C10.4071 56.8031 9.42898 59.9402 8.66639 63.1346C9.84853 64.1281 10.555 65.6073 10.555 67.1759C10.555 70.0834 8.1818 72.449 5.27426 72.449C2.36671 72.449 0.00115204 70.0834 0.00115204 67.1759L-0.00012207 67.1771Z" fill="white"/>
<path d="M88.5978 155.718C88.5978 152.811 90.9634 150.445 93.8786 150.445C95.4306 150.445 96.8933 151.135 97.8867 152.293C124.565 145.862 145.796 124.703 152.327 98.0594C151.119 97.066 150.405 95.5791 150.405 93.9851C150.405 91.0775 152.77 88.712 155.686 88.712C158.601 88.712 160.966 91.0775 160.966 93.9851C160.966 96.3749 159.374 98.4127 157.147 99.0529C150.231 127.586 127.513 150.24 98.963 157.098C98.3547 159.349 96.2773 160.999 93.8786 160.999C90.9634 160.999 88.5978 158.633 88.5978 155.718Z" fill="white"/>
<path d="M0.0330811 93.9775C0.0330811 91.07 2.39865 88.7044 5.31384 88.7044C8.22904 88.7044 10.587 91.07 10.587 93.9775C10.587 95.5295 9.89705 96.9922 8.73913 97.9945C15.2365 124.614 36.4271 145.788 63.0541 152.261C64.0475 151.103 65.5178 150.413 67.0711 150.413C69.9786 150.413 72.3518 152.779 72.3518 155.686C72.3518 158.594 69.9786 160.966 67.0711 160.966C64.6647 160.966 62.5784 159.314 61.979 157.056C33.503 150.173 10.842 127.537 3.92638 99.0695C1.68452 98.4536 0.0330811 96.3762 0.0330811 93.9775Z" fill="white"/>
</svg>
