<svg width="65" height="58" viewBox="0 0 65 58" fill="none" xmlns="http://www.w3.org/2000/svg">
<path d="M44.2858 15.0479H20.6327C18.5098 15.0505 16.792 16.5823 16.7891 18.4724V39.5463C16.792 41.4363 18.5098 42.9681 20.6327 42.9708H44.2858C46.4072 42.9681 48.1265 41.4363 48.1294 39.5463V18.4724C48.1265 16.5823 46.4072 15.0505 44.2858 15.0479ZM46.3554 39.5463C46.354 40.5644 45.4285 41.3889 44.2858 41.3902H20.6327C19.49 41.3902 18.5645 40.5644 18.563 39.5463V18.4724C18.563 17.4542 19.49 16.6297 20.6327 16.6284H44.2858C45.4285 16.6284 46.354 17.4542 46.3554 18.4724V39.5463Z" fill="#F2F2F2"/>
<path d="M47.2399 11.0967H17.6735C14.7346 11.0993 12.3545 13.2199 12.3516 15.8383V42.1807C12.3545 44.7978 14.7346 46.9197 17.6735 46.9223H47.2399C50.1773 46.9197 52.5589 44.7978 52.5618 42.1807V15.8383C52.5589 13.2199 50.1773 11.0993 47.2399 11.0967ZM50.7879 42.1807C50.7849 43.9259 49.1987 45.3392 47.2399 45.3418H17.6735C15.7147 45.3392 14.1285 43.9259 14.1255 42.1807V15.8383C14.127 14.0931 15.7147 12.6799 17.6735 12.6772H47.2399C49.1987 12.6799 50.7849 14.0931 50.7879 15.8383V42.1807Z" fill="#F2F2F2"/>
<path d="M35.6526 49.5088C35.1618 49.5088 34.7656 49.8631 34.7656 50.2991V56.8847C34.7656 57.3219 35.1618 57.6749 35.6526 57.6749C36.1434 57.6749 36.5396 57.3219 36.5396 56.8847V50.2991C36.5396 49.8631 36.1419 49.5088 35.6526 49.5088Z" fill="#F2F2F2"/>
<path d="M29.262 49.5088C28.7712 49.5088 28.375 49.8631 28.375 50.2991V56.8847C28.375 57.3219 28.7712 57.6749 29.262 57.6749C29.7528 57.6749 30.149 57.3219 30.149 56.8847V50.2991C30.149 49.8631 29.7513 49.5088 29.262 49.5088Z" fill="#F2F2F2"/>
<path d="M22.8714 49.5088C22.382 49.5088 21.9844 49.8631 21.9844 50.2991V56.8847C21.9844 57.3219 22.382 57.6749 22.8714 57.6749C23.3607 57.6749 23.7584 57.3219 23.7584 56.8847V50.2991C23.7584 49.8631 23.3607 49.5088 22.8714 49.5088Z" fill="#F2F2F2"/>
<path d="M42.0432 49.5088C41.5524 49.5088 41.1562 49.8631 41.1562 50.2991V56.8847C41.1562 57.3219 41.5524 57.6749 42.0432 57.6749C42.534 57.6749 42.9302 57.3219 42.9302 56.8847V50.2991C42.9302 49.8631 42.5326 49.5088 42.0432 49.5088Z" fill="#F2F2F2"/>
<path d="M30.149 7.67225V1.08666C30.149 0.650692 29.7513 0.296387 29.262 0.296387C28.7727 0.296387 28.375 0.650692 28.375 1.08666V7.67225C28.375 8.10822 28.7712 8.46253 29.262 8.46253C29.7528 8.46253 30.149 8.10822 30.149 7.67225Z" fill="#F2F2F2"/>
<path d="M36.5396 7.67225V1.08666C36.5396 0.650692 36.1419 0.296387 35.6526 0.296387C35.1633 0.296387 34.7656 0.650692 34.7656 1.08666V7.67225C34.7656 8.10822 35.1618 8.46253 35.6526 8.46253C36.1434 8.46253 36.5396 8.10822 36.5396 7.67225Z" fill="#F2F2F2"/>
<path d="M42.9302 7.67225V1.08666C42.9302 0.650692 42.5326 0.296387 42.0432 0.296387C41.5539 0.296387 41.1562 0.650692 41.1562 1.08666V7.67225C41.1562 8.10822 41.5524 8.46253 42.0432 8.46253C42.534 8.46253 42.9302 8.10822 42.9302 7.67225Z" fill="#F2F2F2"/>
<path d="M23.7584 7.67225V1.08666C23.7584 0.650692 23.3607 0.296387 22.8714 0.296387C22.382 0.296387 21.9844 0.650692 21.9844 1.08666V7.67225C21.9844 8.10822 22.382 8.46253 22.8714 8.46253C23.3607 8.46253 23.7584 8.10822 23.7584 7.67225Z" fill="#F2F2F2"/>
<path d="M63.7708 25.3496H56.3792C55.8899 25.3496 55.4922 25.7026 55.4922 26.1399C55.4922 26.5772 55.8899 26.9302 56.3792 26.9302H63.7708C64.2616 26.9302 64.6578 26.5758 64.6578 26.1399C64.6578 25.7039 64.2616 25.3496 63.7708 25.3496Z" fill="#F2F2F2"/>
<path d="M63.7708 31.043H56.3792C55.8899 31.043 55.4922 31.396 55.4922 31.8332C55.4922 32.2705 55.8899 32.6235 56.3792 32.6235H63.7708C64.2616 32.6235 64.6578 32.2692 64.6578 31.8332C64.6578 31.3973 64.2616 31.043 63.7708 31.043Z" fill="#F2F2F2"/>
<path d="M63.7708 36.7383H56.3792C55.8899 36.7383 55.4922 37.0913 55.4922 37.5286C55.4922 37.9658 55.8899 38.3188 56.3792 38.3188H63.7708C64.2616 38.3188 64.6578 37.9645 64.6578 37.5286C64.6578 37.0926 64.2616 36.7383 63.7708 36.7383Z" fill="#F2F2F2"/>
<path d="M63.7708 19.6543H56.3792C55.8899 19.6543 55.4922 20.0086 55.4922 20.4446C55.4922 20.8805 55.8899 21.2348 56.3792 21.2348H63.7708C64.2616 21.2348 64.6578 20.8805 64.6578 20.4446C64.6578 20.0086 64.2616 19.6543 63.7708 19.6543Z" fill="#F2F2F2"/>
<path d="M8.5364 31.043H1.1448C0.65548 31.043 0.257812 31.396 0.257812 31.8332C0.257812 32.2705 0.65548 32.6235 1.1448 32.6235H8.5364C9.02572 32.6235 9.42339 32.2692 9.42339 31.8332C9.42339 31.3973 9.02572 31.043 8.5364 31.043Z" fill="#F2F2F2"/>
<path d="M8.5364 25.3496H1.1448C0.65548 25.3496 0.257812 25.7026 0.257812 26.1399C0.257812 26.5772 0.65548 26.9302 1.1448 26.9302H8.5364C9.02572 26.9302 9.42339 26.5758 9.42339 26.1399C9.42339 25.7039 9.02572 25.3496 8.5364 25.3496Z" fill="#F2F2F2"/>
<path d="M8.5364 19.6543H1.1448C0.65548 19.6543 0.257812 20.0086 0.257812 20.4446C0.257812 20.8805 0.65548 21.2348 1.1448 21.2348H8.5364C9.02572 21.2348 9.42339 20.8805 9.42339 20.4446C9.42339 20.0086 9.02572 19.6543 8.5364 19.6543Z" fill="#F2F2F2"/>
<path d="M8.5364 36.7383H1.1448C0.65548 36.7383 0.257812 37.0913 0.257812 37.5286C0.257812 37.9658 0.65548 38.3188 1.1448 38.3188H8.5364C9.02572 38.3188 9.42339 37.9645 9.42339 37.5286C9.42339 37.0926 9.02572 36.7383 8.5364 36.7383Z" fill="#F2F2F2"/>
<path d="M31.6276 23.3829C31.4975 23.0352 31.0096 22.8613 30.5218 22.8613C30.0339 22.8613 29.5624 23.0352 29.4323 23.3829L26.1962 32.7713C26.1829 32.8135 26.1785 32.8583 26.18 32.9017C26.18 33.2784 26.7816 33.5392 27.2532 33.5392C27.5459 33.5392 27.7736 33.4523 27.8549 33.2205L28.5216 31.1631H32.5382L33.2049 33.2205C33.2862 33.4523 33.5139 33.5392 33.7903 33.5392C34.2782 33.5392 34.8799 33.2639 34.8799 32.9017C34.8769 32.8569 34.8666 32.8122 34.8473 32.7713L31.6276 23.3829ZM28.8956 29.9316L30.5218 24.9621L32.1479 29.9316H28.8956Z" fill="#F2F2F2"/>
<path d="M37.0259 22.9482C36.6031 22.9482 36.1641 23.0931 36.1641 23.4408V33.0321C36.1641 33.3653 36.6031 33.5392 37.0259 33.5392C37.4487 33.5392 37.8878 33.3653 37.8878 33.0321V23.4408C37.8878 23.0931 37.465 22.9482 37.0259 22.9482Z" fill="#F2F2F2"/>
</svg>
