<svg width="64" height="70" viewBox="0 0 64 70" fill="none" xmlns="http://www.w3.org/2000/svg">
<path d="M30.8878 69.5227H30.8534C30.4386 69.5119 30.0643 69.2938 29.8843 68.9603L23.509 57.1261H11.9664C9.50819 57.1261 7.51328 55.3505 7.51328 53.1585V50.5628L5.76317 48.2248C5.37269 47.6984 5.31401 47.0278 5.60941 46.4546L5.97157 45.784C5.26343 45.4884 4.81225 44.8521 4.81832 44.1544V40.2662H1.48199C0.866928 40.268 0.367188 39.8245 0.367188 39.2765C0.367188 39.154 0.391466 39.0332 0.442047 38.9196L5.2088 27.8714L4.80618 26.9376C4.00902 25.052 3.5983 23.0529 3.59628 21.0376C3.59223 19.3648 3.87144 17.701 4.42581 16.102C4.97816 14.4977 5.81173 12.9817 6.89416 11.6099C12.8384 4.28404 22.4124 -0.00980508 32.557 0.10376C49.4369 0.10376 63.1666 11.4477 63.1666 25.3927C63.1666 30.523 60.85 33.2918 58.3998 36.2211C56.2855 38.7502 54.0964 41.3658 53.0747 45.9156L50.8936 45.5244C51.8081 41.6632 53.7727 38.0598 56.6153 35.0332C58.936 32.2571 60.941 29.8632 60.941 25.3891C60.941 12.5437 48.2088 2.08845 32.559 2.08845C23.1367 1.97488 14.2426 5.95327 8.71711 12.7528C7.76821 13.9569 7.03782 15.2854 6.55426 16.6933C6.06666 18.1011 5.81982 19.5667 5.82589 21.0394C5.82589 22.815 6.18805 24.5744 6.89012 26.2364L7.44651 27.518C7.54565 27.747 7.54565 28.0011 7.44651 28.2301L3.10261 38.2851H5.93515C6.55021 38.2851 7.04793 38.7285 7.04793 39.2765V44.0373C7.53553 44.2283 7.91995 44.5817 8.12025 45.0197C8.33471 45.492 8.31853 46.022 8.07372 46.4816L7.67918 47.2117L9.55473 49.7173C9.67612 49.8796 9.74087 50.0724 9.74087 50.2671V53.1585C9.74087 54.2545 10.7383 55.1414 11.9664 55.1414H24.2091C24.636 55.1414 25.0265 55.3613 25.2106 55.7038L30.9991 66.4475C33.7244 62.6277 41.2953 53.1874 51.0737 50.716L51.6806 52.6232C40.4759 55.4533 31.9419 68.8774 31.8569 69.0126C31.6607 69.3263 31.2904 69.5209 30.8878 69.5209V69.5227Z" fill="#F2F2F2"/>
<path d="M42.3826 20.2343C41.9528 20.2343 41.5413 20.0687 41.2376 19.7722L35.8655 14.5073C35.2323 13.8857 35.2323 12.88 35.8655 12.2583L38.5497 9.62648C39.184 9.00602 40.2102 9.00602 40.8446 9.62648L46.2143 14.889C46.8474 15.5106 46.8474 16.5163 46.2143 17.138L43.5288 19.7686C43.2251 20.0675 42.8124 20.2343 42.3814 20.2343H42.3826ZM39.6971 10.481C39.6237 10.481 39.5539 10.5098 39.5024 10.5602L36.8157 13.1908C36.708 13.2964 36.708 13.4668 36.8157 13.5736L42.1879 18.8385C42.2957 18.9442 42.4696 18.9442 42.5786 18.8385L45.264 16.2079C45.3718 16.1023 45.3718 15.9319 45.264 15.8251L39.8943 10.5626C39.8429 10.511 39.7731 10.4822 39.6984 10.481H39.6971Z" fill="#F2F2F2"/>
<path d="M30.6511 30.3007C30.1782 30.3007 29.7255 30.135 29.3914 29.8385L23.4834 24.5743C22.7868 23.9524 22.7868 22.9464 23.4834 22.3245L26.438 19.693C27.1359 19.0724 28.265 19.0724 28.9629 19.693L34.8669 24.9536C35.5634 25.5755 35.5634 26.5815 34.8669 27.2034L31.9135 29.8361C31.5794 30.135 31.1254 30.3019 30.6511 30.3007ZM27.6978 20.5442C27.6169 20.5442 27.5401 20.573 27.4822 20.6234L24.5275 23.2549C24.409 23.3606 24.409 23.531 24.5275 23.6379L30.4355 28.9021C30.5541 29.0065 30.7454 29.0065 30.8653 28.9021L33.8214 26.2694C33.9399 26.1637 33.9399 25.9933 33.8214 25.8864L27.9107 20.6198C27.8541 20.5706 27.7759 20.543 27.6964 20.543L27.6978 20.5442Z" fill="#F2F2F2"/>
<path d="M33.2741 25.2675C33.0862 25.2675 32.9059 25.1943 32.7733 25.0643L29.9498 22.2989C29.673 22.0275 29.673 21.5883 29.9498 21.317L37.0079 14.3979C37.2847 14.1265 37.7328 14.1265 38.0096 14.3979L40.8331 17.1594C41.1099 17.4308 41.1099 17.87 40.8331 18.1414L33.775 25.0605C33.6424 25.1917 33.4621 25.2662 33.2741 25.2662V25.2675ZM31.4536 21.8067L33.2741 23.5913L39.3306 17.6542L37.51 15.8695L31.4536 21.8067Z" fill="#F2F2F2"/>
</svg>
