<svg width="70" height="63" viewBox="0 0 70 63" fill="none" xmlns="http://www.w3.org/2000/svg">
<path d="M20.0858 6.73539C20.7199 6.73539 21.234 6.27739 21.234 5.71242C21.234 5.14745 20.7199 4.68945 20.0858 4.68945C19.4516 4.68945 18.9375 5.14745 18.9375 5.71242C18.9375 6.27739 19.4516 6.73539 20.0858 6.73539Z" fill="#F2F2F2"/>
<path d="M20.0858 16.9707H29.2752C29.9104 16.9707 30.4235 16.5122 30.4235 15.9478C30.4235 15.3834 29.9087 14.9248 29.2752 14.9248H20.0858C19.4505 14.9248 18.9375 15.3834 18.9375 15.9478C18.9375 16.5122 19.4522 16.9707 20.0858 16.9707Z" fill="#F2F2F2"/>
<path d="M9.74219 15.9464C9.74219 17.6427 11.2847 19.0168 13.1887 19.0168C15.0927 19.0168 16.6351 17.6427 16.6351 15.9464C16.6351 14.2502 15.0927 12.876 13.1887 12.876C11.2847 12.876 9.74219 14.2502 9.74219 15.9464ZM13.1887 14.9234C13.8239 14.9234 14.3369 15.382 14.3369 15.9464C14.3369 16.5108 13.8222 16.9694 13.1887 16.9694C12.5551 16.9694 12.0404 16.5108 12.0404 15.9464C12.0404 15.382 12.5551 14.9234 13.1887 14.9234Z" fill="#F2F2F2"/>
<path d="M20.0858 25.1573H29.2752C29.9104 25.1573 30.4235 24.6987 30.4235 24.1343C30.4235 23.5699 29.9087 23.1113 29.2752 23.1113H20.0858C19.4505 23.1113 18.9375 23.5699 18.9375 24.1343C18.9375 24.6987 19.4522 25.1573 20.0858 25.1573Z" fill="#F2F2F2"/>
<path d="M13.1887 21.0645C11.2847 21.0645 9.74219 22.4386 9.74219 24.1349C9.74219 25.8311 11.2847 27.2053 13.1887 27.2053C15.0927 27.2053 16.6351 25.8311 16.6351 24.1349C16.6351 22.4386 15.0927 21.0645 13.1887 21.0645ZM13.1887 25.1579C12.5534 25.1579 12.0404 24.6993 12.0404 24.1349C12.0404 23.5705 12.5551 23.1119 13.1887 23.1119C13.8222 23.1119 14.3369 23.5705 14.3369 24.1349C14.3369 24.6993 13.8222 25.1579 13.1887 25.1579Z" fill="#F2F2F2"/>
<path d="M20.0858 33.3457H29.2752C29.9104 33.3457 30.4235 32.8872 30.4235 32.3228C30.4235 31.7584 29.9087 31.2998 29.2752 31.2998H20.0858C19.4505 31.2998 18.9375 31.7584 18.9375 32.3228C18.9375 32.8872 19.4522 33.3457 20.0858 33.3457Z" fill="#F2F2F2"/>
<path d="M13.1887 29.251C11.2847 29.251 9.74219 30.6252 9.74219 32.3214C9.74219 34.0177 11.2847 35.3918 13.1887 35.3918C15.0927 35.3918 16.6351 34.0177 16.6351 32.3214C16.6351 30.6252 15.0927 29.251 13.1887 29.251ZM13.1887 33.3444C12.5534 33.3444 12.0404 32.8858 12.0404 32.3214C12.0404 31.757 12.5551 31.2984 13.1887 31.2984C13.8222 31.2984 14.3369 31.757 14.3369 32.3214C14.3369 32.8858 13.8222 33.3444 13.1887 33.3444Z" fill="#F2F2F2"/>
<path d="M20.0858 41.5323H25.8305C26.4657 41.5323 26.9787 41.0737 26.9787 40.5093C26.9787 39.9449 26.464 39.4863 25.8305 39.4863H20.0858C19.4505 39.4863 18.9375 39.9449 18.9375 40.5093C18.9375 41.0737 19.4522 41.5323 20.0858 41.5323Z" fill="#F2F2F2"/>
<path d="M13.1887 37.4395C11.2847 37.4395 9.74219 38.8136 9.74219 40.5099C9.74219 42.2061 11.2847 43.5803 13.1887 43.5803C15.0927 43.5803 16.6351 42.2061 16.6351 40.5099C16.6351 38.8136 15.0927 37.4395 13.1887 37.4395ZM13.1887 41.5329C12.5534 41.5329 12.0404 41.0743 12.0404 40.5099C12.0404 39.9455 12.5551 39.4869 13.1887 39.4869C13.8222 39.4869 14.3369 39.9455 14.3369 40.5099C14.3369 41.0743 13.8222 41.5329 13.1887 41.5329Z" fill="#F2F2F2"/>
<path d="M48.1667 26.0978C47.3231 24.8754 45.8288 24.1316 44.2175 24.1331H44.2072C42.5924 24.1285 41.0912 24.8724 40.2408 26.0962L39.6107 26.9996V7.75953C39.6107 5.49889 37.5535 3.66614 35.016 3.66614H28.9528C28.5448 3.03426 27.7925 2.6447 26.9748 2.64317L24.0551 2.63703C23.2374 1.37175 21.7224 0.595703 20.0836 0.595703C18.4447 0.595703 16.9315 1.37788 16.1155 2.64317H13.1923C12.3746 2.6447 11.6206 3.03579 11.2143 3.66614H5.14941C2.6119 3.66614 0.554688 5.49889 0.554688 7.75953V47.6736C0.554688 49.9343 2.6119 51.767 5.14941 51.767H22.3525L19.6411 55.6564C18.7494 56.9371 18.7081 58.549 19.5292 59.8649C20.3521 61.1823 21.9101 61.9998 23.6023 62.0013H64.8189C66.5111 62.0013 68.0708 61.1838 68.892 59.8649C69.7131 58.5459 69.6649 56.9355 68.7698 55.6564L48.1684 26.0993L48.1667 26.0978ZM37.3159 7.75953V30.2985L35.0177 33.5944V9.807C35.0177 8.67668 33.9882 7.75953 32.7195 7.75953H29.273V5.71207H35.0177C36.2865 5.71207 37.3159 6.62921 37.3159 7.75953ZM13.1906 4.6891H16.1137C16.9384 4.68757 17.6975 4.29188 18.1038 3.65387C18.517 3.03119 19.2693 2.64777 20.0818 2.64777C20.8944 2.64777 21.6467 3.02966 22.0599 3.65387C22.4661 4.29188 23.2271 4.68757 24.0499 4.6891H26.9731V8.7825H13.1872V4.6891H13.1906ZM26.9765 10.83C27.7942 10.8284 28.5483 10.4373 28.9545 9.807H32.7195V36.8918L26.6305 45.6262H7.44764V9.807H11.2126C11.6206 10.4389 12.3729 10.8284 13.1906 10.83H26.9765ZM5.14941 49.7211C3.88066 49.7211 2.85119 48.8039 2.85119 47.6736V7.75953C2.85119 6.62921 3.88066 5.71207 5.14941 5.71207H10.8941V7.75953H7.44764C6.17888 7.75953 5.14941 8.67668 5.14941 9.807V45.6277C5.14941 46.758 6.17888 47.6752 7.44764 47.6752H25.2068L23.7797 49.7226H5.14941V49.7211ZM66.883 58.868C66.4733 59.5413 65.6796 59.96 64.8189 59.9554H23.6023C22.745 59.9538 21.9549 59.5382 21.5382 58.871C21.1216 58.2039 21.1423 57.388 21.5916 56.7377L42.193 27.1806C42.6234 26.5594 43.386 26.1806 44.2072 26.1821C45.0249 26.176 45.7841 26.5548 46.2076 27.1775L66.8193 56.7408C67.2789 57.3849 67.3047 58.2024 66.883 58.868Z" fill="#F2F2F2"/>
<path d="M44.2121 32.3223C42.3081 32.3223 40.7656 33.6964 40.7656 35.3927V45.627C40.7656 47.3232 42.3081 48.6974 44.2121 48.6974C46.1161 48.6974 47.6586 47.3232 47.6586 45.627V35.3927C47.6586 33.6964 46.1161 32.3223 44.2121 32.3223ZM45.3604 45.627C45.3604 46.1929 44.8456 46.6499 44.2121 46.6499C43.5786 46.6499 43.0638 46.1914 43.0638 45.627V35.3927C43.0638 34.8268 43.5786 34.3697 44.2121 34.3697C44.8456 34.3697 45.3604 34.8283 45.3604 35.3927V45.627Z" fill="#F2F2F2"/>
<path d="M44.2121 50.7441C42.3081 50.7441 40.7656 52.1183 40.7656 53.8146C40.7656 55.5108 42.3081 56.885 44.2121 56.885C46.1161 56.885 47.6586 55.5108 47.6586 53.8146C47.6586 52.1183 46.1161 50.7441 44.2121 50.7441ZM44.2121 54.8375C43.5769 54.8375 43.0638 54.379 43.0638 53.8146C43.0638 53.2502 43.5786 52.7916 44.2121 52.7916C44.8456 52.7916 45.3604 53.2502 45.3604 53.8146C45.3604 54.379 44.8456 54.8375 44.2121 54.8375Z" fill="#F2F2F2"/>
</svg>
