<svg width="190" height="290" viewBox="0 0 190 290" fill="none" xmlns="http://www.w3.org/2000/svg">
<g filter="url(#filter0_d_877_59)">
<path d="M92.8085 39.5968V247.189L19.9375 277.768V8.99405L91.01 38.8394L92.8085 39.5968Z" fill="#E6E6E6"/>
<g opacity="0.5">
<path d="M92.8085 39.5965V247.189L19.9375 277.768V274.194L91.01 245.153V38.8391L92.8085 39.5965Z" fill="white"/>
</g>
<path opacity="0.2" d="M67.0904 62.8858L66.6562 62.7675L67.0904 62.3651V62.8858Z" fill="white"/>
<path opacity="0.3" d="M80.6137 183.45V184.61L39.3512 191.166V256.797L38.2969 257.176V189.982L80.6137 183.45Z" fill="black"/>
<path opacity="0.3" d="M80.6137 183.45V241.224L38.2969 257.176V255.85L79.8488 240.372V183.568L80.6137 183.45Z" fill="white"/>
<path opacity="0.3" d="M75.5699 191.899V192.87L45.7187 198.479V245.862L44.8711 246.17V197.532L75.5699 191.899Z" fill="white"/>
<path opacity="0.3" d="M75.5699 191.899V235.472L44.8711 246.17V245.081L74.8877 234.738V192.018L75.5699 191.899Z" fill="black"/>
<path opacity="0.3" d="M80.6137 114.506V115.642L39.3512 111.239V176.871L38.2969 176.989V109.796L80.6137 114.506Z" fill="black"/>
<path opacity="0.3" d="M80.6137 114.505V172.279L38.2969 176.989V175.64L79.8488 171.214V114.411L80.6137 114.505Z" fill="white"/>
<path opacity="0.3" d="M75.5699 121.606V122.576L45.7187 120.233V167.64L44.8711 167.711V119.074L75.5699 121.606Z" fill="white"/>
<path opacity="0.3" d="M75.5699 121.606V165.178L44.8711 167.711V166.598L74.8877 164.255V121.535L75.5699 121.606Z" fill="black"/>
<path opacity="0.3" d="M80.6137 45.5374V46.6971L39.3512 31.3129V96.9443L38.2969 96.7786V29.5851L80.6137 45.5374Z" fill="black"/>
<path opacity="0.3" d="M80.6137 45.537V103.311L38.2969 96.7782V95.4528L79.8488 102.056V45.253L80.6137 45.537Z" fill="white"/>
<path opacity="0.3" d="M75.5699 51.2881V52.2822L45.7187 41.9866V89.3936L44.8711 89.2516V40.6139L75.5699 51.2881Z" fill="white"/>
<path opacity="0.3" d="M75.5699 51.289V94.8854L44.8711 89.2524V88.14L74.8877 93.773V51.0523L75.5699 51.289Z" fill="black"/>
<path opacity="0.3" d="M89.5843 189.368C89.5223 188.658 89.3363 188.042 89.0675 187.545C88.9435 187.332 88.7988 187.143 88.6541 187.001C88.3026 186.622 87.8685 186.409 87.3724 186.409C87.269 186.409 87.1863 186.409 87.0829 186.433C86.9796 186.433 86.8762 186.48 86.7935 186.504C86.318 186.67 85.8633 187.025 85.4911 187.522C85.3258 187.735 85.1811 187.971 85.057 188.232C84.7676 188.823 84.5815 189.533 84.5195 190.291C84.5195 190.433 84.5195 190.599 84.5195 190.741C84.5195 190.883 84.5195 191.048 84.5195 191.19C84.5815 191.924 84.7676 192.539 85.057 193.036C85.1811 193.249 85.3258 193.439 85.4911 193.581C85.8633 193.936 86.2974 194.149 86.7935 194.125C86.8969 194.125 86.9796 194.125 87.0829 194.101C87.1863 194.101 87.2897 194.054 87.3724 194.007C87.8478 193.817 88.2819 193.462 88.6541 192.942C88.7988 192.729 88.9435 192.492 89.0675 192.232C89.3569 191.64 89.543 190.954 89.5843 190.22C89.5843 190.078 89.5843 189.912 89.5843 189.77C89.5843 189.628 89.5843 189.486 89.5843 189.32V189.368Z" fill="black"/>
<path d="M89.3968 189.51C89.3968 189.652 89.3968 189.818 89.3968 189.96C89.3348 190.693 89.1487 191.38 88.88 191.971C88.756 192.232 88.6113 192.468 88.4666 192.681C88.1151 193.178 87.6603 193.557 87.1848 193.746C87.0815 193.794 86.9988 193.817 86.8954 193.841C86.7921 193.841 86.6887 193.865 86.606 193.865C86.1305 193.865 85.6758 193.675 85.3036 193.32C85.1383 193.155 84.9935 192.989 84.8695 192.776C84.5801 192.279 84.3734 191.64 84.332 190.93C84.332 190.788 84.332 190.646 84.332 190.48C84.332 190.315 84.332 190.173 84.332 190.031C84.394 189.297 84.5801 188.587 84.8695 187.971C84.9935 187.711 85.1383 187.474 85.3036 187.261C85.6758 186.764 86.1099 186.409 86.606 186.244C86.7094 186.22 86.7921 186.173 86.8954 186.173C86.9988 186.173 87.1022 186.149 87.1848 186.173C87.6603 186.173 88.1151 186.386 88.4666 186.764C88.6113 186.93 88.756 187.096 88.88 187.309C89.1694 187.806 89.3555 188.421 89.3968 189.131C89.3968 189.273 89.3968 189.415 89.3968 189.581V189.51Z" fill="#1A1A1A"/>
<path d="M89.0848 189.557C89.0848 191.403 88.0925 193.107 86.8521 193.367C85.6118 193.604 84.5781 192.278 84.5781 190.385C84.5781 188.492 85.5911 186.788 86.8521 186.574C88.0925 186.361 89.0848 187.687 89.0848 189.557Z" fill="#E6E6E6"/>
<path d="M88.5096 189.675C88.5096 191.048 87.7861 192.279 86.8765 192.468C85.9669 192.658 85.2227 191.664 85.2227 190.291C85.2227 188.918 85.9669 187.664 86.8765 187.498C87.7861 187.332 88.5096 188.326 88.5096 189.675Z" fill="#1A1A1A"/>
<path d="M89.2531 189.533C89.2531 189.675 89.2531 189.817 89.2531 189.959L84.457 190.858C84.457 190.716 84.457 190.574 84.457 190.432C84.457 190.29 84.457 190.148 84.457 190.006L89.2531 189.131C89.2531 189.273 89.2531 189.415 89.2531 189.557V189.533Z" fill="#1A1A1A"/>
<path d="M88.7557 187.379L85.3654 193.131C85.2207 192.989 85.076 192.799 84.9727 192.61L88.3836 186.859C88.5284 187.001 88.6524 187.19 88.7764 187.379H88.7557Z" fill="#1A1A1A"/>
<path d="M87.1453 186.315V193.534C87.1453 193.534 86.9592 193.605 86.8558 193.605C86.7525 193.605 86.6698 193.628 86.5664 193.628V186.386C86.5664 186.386 86.7525 186.338 86.8558 186.315C86.9592 186.315 87.0419 186.315 87.1453 186.315Z" fill="#1A1A1A"/>
<path d="M88.7569 191.876C88.6329 192.113 88.5088 192.35 88.3641 192.539L84.9531 188.042C85.0772 187.806 85.2012 187.569 85.3459 187.38L88.7362 191.876H88.7569Z" fill="#1A1A1A"/>
<path d="M87.8479 189.793C87.8479 190.621 87.4137 191.355 86.8556 191.473C86.3181 191.568 85.8633 191 85.8633 190.172C85.8633 189.343 86.3181 188.61 86.8556 188.491C87.3931 188.397 87.8479 188.988 87.8479 189.793Z" fill="#E6E6E6"/>
<path d="M87.0798 190.764L86.625 190.835V189.178L87.0798 189.107V190.764Z" fill="#1A1A1A"/>
<path opacity="0.3" d="M84.5983 147.76L86.2314 150.979C86.2314 150.979 86.2728 151.027 86.2728 151.074C86.2728 151.074 86.2934 151.121 86.3141 151.145C86.3141 151.169 86.3555 151.192 86.3761 151.216C86.3761 151.216 86.4175 151.263 86.4382 151.287C86.4382 151.287 86.4795 151.334 86.5002 151.334C86.5208 151.334 86.5415 151.382 86.5622 151.382C86.5622 151.382 86.6035 151.405 86.6035 151.429C86.6242 151.429 86.6656 151.453 86.6862 151.476C86.6862 151.476 86.7069 151.476 86.7276 151.476C86.7276 151.476 86.7482 151.476 86.7689 151.476C86.7689 151.476 86.7689 151.476 86.7896 151.476C86.8929 151.524 86.9963 151.524 87.1204 151.524C87.1204 151.524 87.1204 151.524 87.141 151.524C87.2444 151.524 87.3477 151.476 87.4511 151.405C87.4511 151.405 87.4511 151.405 87.4718 151.405C87.5751 151.334 87.6578 151.24 87.7612 151.121C87.7612 151.121 87.7612 151.121 87.7819 151.098C87.8232 151.027 87.8646 150.979 87.9059 150.908L89.4977 147.666C89.4977 147.666 89.4977 147.666 89.4977 147.642C89.5597 147.524 89.6011 147.405 89.6424 147.311C89.6424 147.263 89.6838 147.216 89.6838 147.192C89.7251 147.098 89.7458 147.003 89.7871 146.908C89.7871 146.861 89.8078 146.837 89.8285 146.79C89.8698 146.672 89.9112 146.53 89.9525 146.411C89.9525 146.388 89.9525 146.34 89.9732 146.317C89.9938 146.222 90.0352 146.104 90.0559 146.009C90.0559 145.962 90.0559 145.914 90.0765 145.867C90.0972 145.749 90.1179 145.654 90.1386 145.536C90.1386 145.512 90.1386 145.465 90.1386 145.441C90.1592 145.299 90.1799 145.157 90.2006 145.015C90.2006 144.968 90.2006 144.944 90.2006 144.897C90.2006 144.778 90.2006 144.684 90.2212 144.565C90.2212 144.518 90.2212 144.471 90.2212 144.447C90.2212 144.305 90.2212 144.187 90.2212 144.045C90.2212 144.045 90.2212 144.045 90.2212 144.021C90.2212 143.879 90.2212 143.737 90.2212 143.595C90.2212 143.548 90.2212 143.5 90.2212 143.476C90.2212 143.382 90.2212 143.263 90.2006 143.169C90.2006 143.121 90.2006 143.074 90.2006 143.05C90.2006 142.908 90.1592 142.79 90.1386 142.648C90.1386 142.601 90.1386 142.577 90.1386 142.53C90.1386 142.459 90.1179 142.388 90.0972 142.317C90.0972 142.317 90.0972 142.269 90.0972 142.246C90.0765 142.151 90.0559 142.033 90.0352 141.938C90.0352 141.867 90.0145 141.82 89.9938 141.749C89.9732 141.654 89.9318 141.559 89.9112 141.441C89.9112 141.394 89.8698 141.323 89.8491 141.275C89.8078 141.157 89.7665 141.062 89.7251 140.944C89.7251 140.897 89.6838 140.849 89.6838 140.802C89.6217 140.66 89.5597 140.494 89.477 140.352L87.8852 137.11C87.8852 137.11 87.8232 136.991 87.7819 136.944C87.7819 136.944 87.7819 136.944 87.7612 136.92C87.7405 136.873 87.6992 136.849 87.6785 136.802C87.6785 136.802 87.6785 136.802 87.6578 136.778C87.6372 136.755 87.5958 136.707 87.5545 136.684C87.5545 136.684 87.4511 136.613 87.3891 136.589C87.3271 136.565 87.2857 136.542 87.2237 136.542C87.1617 136.542 87.1204 136.542 87.0583 136.542C86.9963 136.542 86.955 136.542 86.893 136.565C86.893 136.565 86.7896 136.613 86.7276 136.636C86.7276 136.636 86.7276 136.636 86.7069 136.636C86.6655 136.66 86.6242 136.707 86.5622 136.731C86.5208 136.778 86.4795 136.826 86.4382 136.873C86.4382 136.873 86.4175 136.897 86.3968 136.92C86.3555 136.968 86.3348 137.015 86.2934 137.086C86.2934 137.086 86.2934 137.086 86.2934 137.11L84.6603 140.329C83.8334 141.985 83.606 144.116 84.0401 145.985C84.1848 146.624 84.3916 147.216 84.6603 147.76H84.5983Z" fill="black"/>
<path opacity="0.3" d="M89.7033 179.026C89.7033 179.026 89.7653 178.837 89.8066 178.742C89.8066 178.695 89.8273 178.647 89.848 178.624C89.8893 178.482 89.9307 178.363 89.972 178.221C89.972 178.198 89.972 178.15 89.9927 178.127C90.0134 178.008 90.0547 177.914 90.0754 177.795C90.0754 177.748 90.0754 177.701 90.0961 177.653C90.1168 177.535 90.1374 177.44 90.1581 177.322C90.1581 177.298 90.1581 177.251 90.1581 177.227C90.1788 177.085 90.1994 176.943 90.2201 176.801C90.2201 176.754 90.2201 176.73 90.2201 176.683C90.2201 176.564 90.2201 176.47 90.2408 176.351C90.2408 176.304 90.2408 176.257 90.2408 176.233C90.2408 176.091 90.2408 175.973 90.2408 175.831C90.2408 175.831 90.2408 175.831 90.2408 175.807C90.2408 175.665 90.2408 175.523 90.2408 175.381C90.2408 175.334 90.2408 175.286 90.2408 175.263C90.2408 175.168 90.2408 175.05 90.2201 174.955C90.2201 174.908 90.2201 174.86 90.2201 174.837C90.2201 174.695 90.1788 174.576 90.1581 174.434C90.1581 174.387 90.1581 174.363 90.1581 174.316C90.1581 174.245 90.1374 174.174 90.1167 174.103C90.1167 174.103 90.1167 174.056 90.1167 174.032C90.0961 173.937 90.0754 173.819 90.0547 173.724C90.0547 173.677 90.0341 173.606 90.0134 173.559C89.9927 173.464 89.9514 173.369 89.9307 173.275C89.9307 173.227 89.8894 173.156 89.8687 173.109C89.8273 173.014 89.786 172.896 89.7446 172.801C89.7446 172.754 89.7033 172.707 89.7033 172.683C89.6413 172.541 89.5793 172.399 89.4966 172.257L87.9048 169.227C87.9048 169.227 87.8428 169.109 87.8014 169.062C87.8014 169.062 87.8014 169.062 87.7807 169.038C87.7601 168.991 87.7187 168.967 87.698 168.943C87.698 168.943 87.698 168.943 87.6774 168.92C87.6567 168.896 87.6154 168.872 87.574 168.849C87.574 168.849 87.4707 168.778 87.4086 168.754C87.3466 168.754 87.3053 168.73 87.2432 168.707C87.1812 168.707 87.1399 168.707 87.0779 168.707C87.0158 168.707 86.9745 168.73 86.9125 168.754C86.9125 168.754 86.8091 168.801 86.7471 168.849C86.7471 168.849 86.7471 168.849 86.7264 168.849C86.6851 168.872 86.6437 168.92 86.5817 168.967C86.5404 169.014 86.499 169.062 86.4577 169.133C86.4577 169.133 86.437 169.18 86.4163 169.18C86.375 169.227 86.3543 169.298 86.313 169.346C86.313 169.346 86.313 169.346 86.313 169.369L84.6798 172.801C83.8529 174.553 83.6255 176.706 84.0597 178.553C84.2044 179.168 84.4111 179.736 84.6798 180.257L86.313 183.262C86.313 183.262 86.3543 183.31 86.3543 183.333C86.3543 183.333 86.375 183.381 86.3957 183.404C86.3957 183.404 86.437 183.452 86.4577 183.475C86.4577 183.475 86.499 183.523 86.5197 183.546C86.5197 183.546 86.5611 183.57 86.5817 183.594C86.6024 183.594 86.6231 183.618 86.6437 183.641L86.6851 183.665C86.7058 183.665 86.7471 183.689 86.7678 183.712C86.7678 183.712 86.7885 183.712 86.8091 183.712C86.8091 183.712 86.8298 183.712 86.8505 183.712C86.8505 183.712 86.8505 183.712 86.8711 183.712C86.9745 183.736 87.0779 183.736 87.2019 183.712C87.2019 183.712 87.2019 183.712 87.2226 183.712C87.3259 183.689 87.4293 183.641 87.5327 183.546C87.5327 183.546 87.5327 183.546 87.5533 183.546C87.6567 183.475 87.7394 183.357 87.8428 183.239C87.8428 183.239 87.8428 183.239 87.8634 183.215C87.9048 183.144 87.9461 183.073 87.9875 183.002L89.5793 179.547C89.5793 179.547 89.5793 179.547 89.5793 179.523C89.6413 179.405 89.6826 179.286 89.724 179.168C89.724 179.121 89.7653 179.073 89.7653 179.026H89.7033Z" fill="black"/>
<path d="M89.1496 147.17L87.5578 150.412C87.1443 151.241 86.3174 151.288 85.904 150.46L84.2708 147.241C83.1545 145.04 83.1545 141.987 84.2708 139.786L85.904 136.567C86.3174 135.738 87.1443 135.762 87.5578 136.614L89.1496 139.857C89.439 140.448 89.6457 141.087 89.7904 141.774C90.1419 143.572 89.9351 145.584 89.1496 147.17Z" fill="#F2F2F2"/>
<path opacity="0.3" d="M84.3714 139.881C83.2551 142.082 83.2551 145.135 84.3714 147.336L86.0046 150.555C86.1079 150.745 86.232 150.91 86.3767 151.005C86.1906 150.91 86.0252 150.745 85.8805 150.484L84.2474 147.265C83.1311 145.064 83.1311 142.011 84.2474 139.81L85.8805 136.591C86.1906 135.976 86.7488 135.834 87.1829 136.189C86.7695 135.952 86.294 136.118 86.0046 136.686L84.3714 139.905V139.881Z" fill="white"/>
<path opacity="0.3" d="M89.1469 147.17L87.5551 150.413C87.2451 151.052 86.6869 151.217 86.2734 150.91C86.6869 151.099 87.1624 150.91 87.4518 150.342L89.0436 147.099C90.1186 144.922 90.1186 141.963 89.0436 139.786L87.4518 136.543C87.3484 136.354 87.2244 136.188 87.1003 136.093C87.2864 136.188 87.4518 136.377 87.5758 136.638L89.1676 139.88C90.2426 142.058 90.2426 145.016 89.1676 147.194L89.1469 147.17Z" fill="black"/>
<path d="M89.1496 179.098L87.5578 182.554C87.1443 183.453 86.3174 183.571 85.904 182.814L84.2708 179.808C83.1545 177.749 83.1545 174.696 84.2708 172.353L85.904 168.921C86.3174 168.045 87.1443 167.974 87.5578 168.755L89.1496 171.808C89.439 172.353 89.6457 172.992 89.7904 173.631C90.1419 175.382 89.9351 177.418 89.1496 179.098Z" fill="#F2F2F2"/>
<path opacity="0.3" d="M84.3714 172.399C83.2551 174.743 83.2551 177.796 84.3714 179.855L86.0046 182.861C86.1079 183.05 86.232 183.168 86.3767 183.263C86.1906 183.192 86.0252 183.05 85.8805 182.813L84.2474 179.808C83.1311 177.748 83.1311 174.695 84.2474 172.352L85.8805 168.92C86.1906 168.258 86.7488 168.045 87.1829 168.352C86.7695 168.163 86.294 168.4 86.0046 168.991L84.3714 172.423V172.399Z" fill="white"/>
<path opacity="0.3" d="M89.1469 179.098L87.5551 182.554C87.2451 183.216 86.6869 183.477 86.2734 183.216C86.6869 183.358 87.1624 183.098 87.4518 182.506L89.0436 179.051C90.1186 176.731 90.1186 173.773 89.0436 171.737L87.4518 168.684C87.3484 168.495 87.2244 168.353 87.1003 168.282C87.2864 168.353 87.4518 168.519 87.5758 168.755L89.1676 171.808C90.2426 173.844 90.2426 176.802 89.1676 179.122L89.1469 179.098Z" fill="black"/>
<path opacity="0.2" d="M88.4862 141.654C88.4862 141.606 88.4448 141.583 88.4241 141.535C88.4035 141.488 88.3828 141.441 88.3621 141.393C88.3208 141.346 88.3001 141.299 88.2588 141.251C88.2588 141.228 88.2174 141.204 88.1967 141.18C87.8867 140.754 87.4939 140.47 87.0598 140.47C86.8117 140.47 86.5636 140.565 86.3362 140.707C85.6747 141.18 85.1992 142.316 85.1992 143.642V176.256C85.1992 176.256 85.1992 176.446 85.2199 176.564C85.2199 176.682 85.2199 176.801 85.2406 176.919C85.2406 177.037 85.2819 177.132 85.3026 177.227C85.3233 177.345 85.3439 177.44 85.3646 177.558C85.3853 177.653 85.4266 177.724 85.4473 177.818C85.4886 177.913 85.53 178.031 85.5713 178.103C85.5713 178.126 85.592 178.174 85.6127 178.197C85.6127 178.245 85.654 178.268 85.6747 178.316C85.716 178.41 85.7781 178.481 85.8194 178.552C85.8401 178.576 85.8607 178.623 85.8814 178.671C85.8814 178.671 85.9228 178.694 85.9434 178.718C86.0055 178.789 86.0675 178.836 86.1295 178.907C86.1708 178.955 86.2328 178.978 86.2742 179.026C86.3362 179.073 86.4189 179.097 86.4809 179.12C86.5429 179.12 86.5843 179.168 86.6463 179.191C86.7497 179.191 86.8323 179.191 86.9357 179.191C86.9771 179.191 86.9977 179.191 87.0391 179.191C87.2872 179.144 87.5352 179.026 87.7626 178.836C88.4241 178.268 88.8789 177.085 88.8789 175.783V143.642C88.8789 142.885 88.7136 142.222 88.4655 141.677L88.4862 141.654Z" fill="black"/>
<path opacity="0.3" d="M92.8055 148.186V169.89C92.3094 171.452 91.7305 172.967 91.007 174.363C90.821 174.742 90.6349 175.121 90.4075 175.499C89.7046 176.777 88.547 177.913 87.596 178.481C87.2859 178.671 86.9758 178.789 86.7278 178.836C86.6864 178.836 86.6658 178.836 86.6451 178.836C86.5417 178.836 86.459 178.836 86.397 178.836C86.3557 178.836 86.335 178.813 86.2937 178.789C86.2523 178.765 86.211 178.742 86.1696 178.694C86.1489 178.671 86.1283 178.623 86.1076 178.576C86.1076 178.529 86.0662 178.458 86.0456 178.41C86.0456 178.387 86.0456 178.363 86.0456 178.363C86.0456 178.339 86.0456 178.292 86.0456 178.245C86.0456 178.174 86.0456 178.103 86.0456 178.032V177.913C86.0456 177.913 86.0456 177.842 86.0663 177.819C86.0663 177.748 86.1076 177.629 86.1283 177.535C86.1489 177.464 86.1696 177.393 86.211 177.298C86.2523 177.203 86.2937 177.085 86.335 176.99C86.3764 176.872 86.397 176.777 86.459 176.683C86.5211 176.564 86.5831 176.446 86.6451 176.328C86.7071 176.233 86.7278 176.138 86.7898 176.044C92.2887 166.411 92.2887 151.855 86.7898 142.956C86.0456 141.749 85.8182 140.731 86.1696 140.329C86.2937 140.187 86.4797 140.116 86.7278 140.116C87.1619 140.116 87.7201 140.352 88.3196 140.731C88.3609 140.755 88.3816 140.778 88.4229 140.802C88.4849 140.849 88.547 140.873 88.609 140.92C88.671 140.968 88.7124 140.991 88.7537 141.039C88.795 141.086 88.8364 141.086 88.8777 141.133C89.4566 141.63 89.994 142.246 90.4075 142.932C90.6142 143.287 90.821 143.619 91.007 143.974C91.7099 145.299 92.3301 146.719 92.8055 148.234V148.186Z" fill="black"/>
<path d="M89.1078 141.276C92.1673 155.287 92.188 163.287 89.1698 177.322C88.7563 179.215 87.5573 180.375 86.5857 179.925C85.5934 179.476 85.18 177.701 85.5728 175.973C88.4049 163.216 88.4256 155.902 85.6141 143.122C85.242 141.394 85.6141 139.524 86.5857 138.932C87.0612 138.648 87.578 138.743 88.0328 139.145C88.4876 139.571 88.8804 140.329 89.1078 141.276Z" fill="#F2F2F2"/>
<path opacity="0.2" d="M88.2193 139.382C88.2193 139.382 87.3717 139.051 86.9789 139.287C86.028 139.855 85.6145 141.725 85.9867 143.477C88.7154 156.376 88.6741 163.736 85.7386 176.564C85.5732 177.298 85.6559 178.695 85.6559 178.695C85.6559 178.695 85.3458 176.943 85.5732 175.949C88.4054 163.192 88.426 155.879 85.6145 143.122C85.2424 141.394 85.6145 139.524 86.5862 138.932C87.0616 138.648 87.5785 138.743 88.0333 139.145C88.0953 139.216 88.2193 139.358 88.2193 139.358V139.382Z" fill="white"/>
<path opacity="0.2" d="M89.0853 141.299C92.1449 155.31 92.1655 163.31 89.1473 177.322C88.7339 179.215 87.5349 180.375 86.5633 179.925C86.0051 179.665 85.4883 178.103 85.4883 178.103C85.4883 178.103 86.0051 179.12 86.4185 179.31C87.3902 179.759 88.5892 178.6 88.982 176.706C91.8968 162.742 91.8348 154.813 88.6925 140.92C88.5065 140.116 87.8036 139.027 87.8036 139.027C87.8036 139.027 87.9277 139.122 88.0103 139.193C88.4651 139.619 88.8786 140.376 89.0853 141.323V141.299Z" fill="black"/>
<path opacity="0.2" d="M89.108 141.275C92.1675 155.286 92.1882 163.286 89.17 177.321C88.7566 179.215 87.5576 180.375 86.5859 179.925C90.0589 168.091 90.0589 150.79 86.5859 138.956C87.0614 138.672 87.5782 138.766 88.033 139.169C88.4878 139.595 88.8806 140.352 89.108 141.299V141.275Z" fill="black"/>
<g filter="url(#filter1_d_877_59)">
<path d="M4.52344 4V281.531H185.268V4H4.52344ZM24.0323 12.728H165.727V272.78H24.0323V12.728Z" fill="#E6E6E6"/>
</g>
<path opacity="0.5" d="M185.3 4V6.49371H7.90243V281.508H4.52344V4H185.3Z" fill="white"/>
<path d="M107.965 48.2993V48.911H106.977L107.965 48.2993Z" fill="white"/>
<path d="M19.25 9.17603V276.333H170.572V9.17603H19.25ZM165.758 272.78H24.0635V12.7284H165.758V272.78Z" fill="white"/>
<g opacity="0.5">
<path d="M170.572 9.17615V276.333H19.25V272.78H165.758V9.17615H170.572Z" fill="white"/>
</g>
<path opacity="0.2" d="M107.965 48.2993V48.911H106.977L107.965 48.2993Z" fill="white"/>
</g>
<path d="M56.0482 58.4923C53.9821 57.7917 52.9731 56.2374 53.0212 53.8731C53.0212 52.7566 53.3095 51.9685 53.838 51.5307C54.3665 51.0929 55.1113 51.0491 56.0482 51.3556C56.4806 51.5088 56.865 51.7058 57.2014 51.9685C57.5377 52.2312 57.7779 52.5377 57.9461 52.8661L57.2494 53.4791C57.1053 53.2383 56.9371 53.0193 56.7209 52.8442C56.5047 52.6691 56.2884 52.5377 56.0242 52.4502C55.4716 52.2531 55.0392 52.3188 54.6788 52.6253C54.3425 52.9318 54.1743 53.4572 54.1503 54.2234C54.1263 55.8872 54.799 56.9817 56.1923 57.4415C56.6488 57.5947 57.0812 57.6385 57.5137 57.5947L57.7059 58.7112C57.1773 58.755 56.6008 58.6674 56.0242 58.4704L56.0482 58.4923Z" fill="#179DFF"/>
<path d="M58.832 59.3465L58.9522 52.4506L60.0573 52.8227L59.9371 59.7186L58.832 59.3465ZM58.9281 53.5233V52.4506L63.3486 53.9611V55.0338L58.9281 53.5233ZM58.8801 56.4349V55.3622L62.4837 56.5881V57.6608L58.8801 56.4349ZM58.832 59.3465V58.2738L63.2525 59.7843V60.857L58.832 59.3465Z" fill="#179DFF"/>
<path d="M66.4029 62.0609C64.7693 61.4917 63.9765 60.0469 64.0005 57.7263C64.0246 55.4058 64.8654 54.4207 66.5231 54.9899C68.1807 55.5591 68.9495 57.0258 68.9255 59.4339C68.9014 61.842 68.0606 62.652 66.427 62.0828L66.4029 62.0609ZM66.4029 60.9663C67.2678 61.2728 67.7002 60.6161 67.7483 59.018C67.7963 57.4199 67.3639 56.3691 66.499 56.0626C65.6342 55.7561 65.1777 56.4566 65.1537 58.1204C65.1297 59.7842 65.5381 60.6817 66.4029 60.9663Z" fill="#179DFF"/>
<path d="M71.15 55.3391L50.8477 48.4451L50.9001 48.2926L71.185 55.2018L71.15 55.3391Z" fill="#808080"/>
<path d="M71.1504 64.3991L50.8477 58.5077L50.8822 58.3593L71.185 64.2507L71.1504 64.3991Z" fill="#808080"/>
<defs>
<filter id="filter0_d_877_59" x="0.523438" y="4" width="188.777" height="285.531" filterUnits="userSpaceOnUse" color-interpolation-filters="sRGB">
<feFlood flood-opacity="0" result="BackgroundImageFix"/>
<feColorMatrix in="SourceAlpha" type="matrix" values="0 0 0 0 0 0 0 0 0 0 0 0 0 0 0 0 0 0 127 0" result="hardAlpha"/>
<feOffset dy="4"/>
<feGaussianBlur stdDeviation="2"/>
<feComposite in2="hardAlpha" operator="out"/>
<feColorMatrix type="matrix" values="0 0 0 0 0 0 0 0 0 0 0 0 0 0 0 0 0 0 0.25 0"/>
<feBlend mode="normal" in2="BackgroundImageFix" result="effect1_dropShadow_877_59"/>
<feBlend mode="normal" in="SourceGraphic" in2="effect1_dropShadow_877_59" result="shape"/>
</filter>
<filter id="filter1_d_877_59" x="0.523438" y="0" width="188.746" height="285.531" filterUnits="userSpaceOnUse" color-interpolation-filters="sRGB">
<feFlood flood-opacity="0" result="BackgroundImageFix"/>
<feColorMatrix in="SourceAlpha" type="matrix" values="0 0 0 0 0 0 0 0 0 0 0 0 0 0 0 0 0 0 127 0" result="hardAlpha"/>
<feOffset/>
<feGaussianBlur stdDeviation="2"/>
<feColorMatrix type="matrix" values="0 0 0 0 1 0 0 0 0 1 0 0 0 0 1 0 0 0 0.3 0"/>
<feBlend mode="normal" in2="BackgroundImageFix" result="effect1_dropShadow_877_59"/>
<feBlend mode="normal" in="SourceGraphic" in2="effect1_dropShadow_877_59" result="shape"/>
</filter>
</defs>
</svg>
