<svg width="62" height="49" viewBox="0 0 62 49" fill="none" xmlns="http://www.w3.org/2000/svg">
<path d="M30.7743 13.4494C26.8435 13.4494 23.6562 10.5976 23.6562 7.08042C23.6562 3.56326 26.8435 0.711426 30.7743 0.711426C34.7051 0.711426 37.8924 3.56326 37.8924 7.08042C37.8876 10.5962 34.7035 13.4451 30.7743 13.4494ZM30.7743 2.53114C27.9668 2.53114 25.69 4.56836 25.69 7.08042C25.69 9.59247 27.9668 11.6297 30.7743 11.6297C33.5818 11.6297 35.8586 9.59247 35.8586 7.08042C35.8555 4.56978 33.5802 2.53398 30.7743 2.53114Z" fill="#F2F2F2"/>
<path d="M38.9086 23.4578H36.8748V18.9086C36.8748 18.6697 36.9829 18.4408 37.1704 18.2717L50.7503 6.0398C51.2301 5.60762 51.2301 4.91243 50.7503 4.48025C50.3022 4.07934 49.5857 4.05375 49.1011 4.41912L42.1403 9.71192C35.5863 14.6948 25.9626 14.6948 19.407 9.71192L12.4462 4.41912C11.933 4.02532 11.1593 4.07792 10.7192 4.53854C10.2981 4.97925 10.3315 5.63747 10.797 6.0398L24.3769 18.2717C24.5644 18.4408 24.6709 18.6697 24.6725 18.9086V23.4578H22.6387V19.2839L9.35433 7.32497C8.08007 6.18623 8.08007 4.33951 9.35274 3.19934C10.5507 2.126 12.4685 2.05349 13.7634 3.03301L20.7242 8.32723C26.5203 12.7329 35.0286 12.7329 40.8231 8.32723L47.7839 3.03301C49.1599 1.99378 51.2158 2.14732 52.3789 3.37847C53.4736 4.53712 53.3926 6.25305 52.193 7.32497L38.9086 19.2853V23.4593V23.4578Z" fill="#F2F2F2"/>
<path d="M30.7715 48.0241C22.4554 48.0241 20.1214 46.1518 19.8846 45.9371C19.694 45.7665 19.5875 45.5348 19.5859 45.2945V41.6551C19.5907 38.1394 22.7748 35.2904 26.704 35.2861H34.8389C38.7682 35.2904 41.9522 38.1394 41.957 41.6551V45.2945C41.957 45.5362 41.8505 45.7665 41.6583 45.9371C41.4199 46.1504 39.0859 48.0241 30.7715 48.0241ZM21.6197 44.8254C22.4093 45.2306 24.9118 46.2044 30.7715 46.2044C36.6311 46.2044 39.1098 45.2405 39.9233 44.8211V41.6551C39.9201 39.1445 37.6448 37.1087 34.8389 37.1058H26.704C23.8981 37.1087 21.6228 39.1445 21.6197 41.6551V44.8254Z" fill="#F2F2F2"/>
<path d="M30.7743 37.1057C26.8435 37.1057 23.6562 34.2538 23.6562 30.7367C23.6562 27.2195 26.8435 24.3677 30.7743 24.3677C34.7051 24.3677 37.8924 27.2195 37.8924 30.7367C37.8876 34.2524 34.7035 37.1014 30.7743 37.1057ZM30.7743 26.1874C27.9668 26.1874 25.69 28.2246 25.69 30.7367C25.69 33.2487 27.9668 35.2859 30.7743 35.2859C33.5818 35.2859 35.8586 33.2487 35.8586 30.7367C35.8555 28.226 33.5802 26.1902 30.7743 26.1874Z" fill="#F2F2F2"/>
<path d="M50.0908 45.2941C47.9824 45.3155 45.8756 45.1619 43.799 44.8335L44.1819 43.0465C46.133 43.3522 48.1111 43.4957 50.0924 43.4744C55.9251 43.4744 58.4307 42.5105 59.2442 42.0912V38.9251C59.241 36.4145 56.9658 34.3787 54.1599 34.3759H46.0249C44.3201 34.3759 42.7297 35.1393 41.7875 36.4102L40.0938 35.4037C41.4109 33.6238 43.6385 32.5547 46.0249 32.5562H54.1599C58.0891 32.5604 61.2732 35.4094 61.2779 38.9251V42.5646C61.2779 42.8062 61.1715 43.0366 60.9792 43.2072C60.7409 43.4204 58.4069 45.2941 50.0924 45.2941H50.0908Z" fill="#F2F2F2"/>
<path d="M50.0946 34.3759C46.1638 34.3759 42.9766 31.5241 42.9766 28.0069C42.9766 24.4898 46.1638 21.6379 50.0946 21.6379C54.0254 21.6379 57.2127 24.4898 57.2127 28.0069C57.2079 31.5227 54.0239 34.3717 50.0946 34.3759ZM50.0946 23.4577C47.2871 23.4577 45.0103 25.4949 45.0103 28.0069C45.0103 30.519 47.2871 32.5562 50.0946 32.5562C52.9021 32.5562 55.179 30.519 55.179 28.0069C55.1758 25.4963 52.9005 23.4605 50.0946 23.4577Z" fill="#F2F2F2"/>
<path d="M11.4511 45.2944C3.13509 45.2944 0.801068 43.4221 0.564329 43.2074C0.373667 43.0368 0.267214 42.8051 0.265625 42.5648V38.9254C0.270392 35.4096 3.45445 32.5607 7.38368 32.5564H15.5186C17.9051 32.555 20.1326 33.6241 21.4498 35.404L19.7561 36.4105C18.8155 35.1395 17.2234 34.3747 15.5186 34.3761H7.38368C4.57777 34.379 2.30253 36.4148 2.29936 38.9254V42.0957C3.08902 42.5008 5.59146 43.4747 11.4511 43.4747C13.4324 43.496 15.4106 43.3524 17.3617 43.0468L17.7446 44.8338C15.668 45.1622 13.5611 45.3171 11.4527 45.2944H11.4511Z" fill="#F2F2F2"/>
<path d="M11.454 34.3757C7.52318 34.3757 4.33594 31.5238 4.33594 28.0067C4.33594 24.4895 7.52318 21.6377 11.454 21.6377C15.3848 21.6377 18.5721 24.4895 18.5721 28.0067C18.5673 31.5224 15.3832 34.3714 11.454 34.3757ZM11.454 23.4574C8.64649 23.4574 6.36967 25.4946 6.36967 28.0067C6.36967 30.5187 8.64649 32.556 11.454 32.556C14.2615 32.556 16.5383 30.5187 16.5383 28.0067C16.5351 25.4961 14.2599 23.4603 11.454 23.4574Z" fill="#F2F2F2"/>
</svg>
