<svg width="66" height="58" viewBox="0 0 66 58" fill="none" xmlns="http://www.w3.org/2000/svg">
<path d="M13.963 6.04496C9.91777 8.6503 6.56058 12.1065 4.25325 16.04C1.86882 20.1039 0.609375 24.6927 0.609375 29.308C0.609375 36.9708 3.95866 44.1755 10.0403 49.594C16.122 55.0126 24.2086 57.9966 32.8091 57.9966C34.1477 57.9966 35.4941 57.9226 36.8148 57.7764C37.4238 57.7095 37.8548 57.2145 37.7797 56.6719C37.7045 56.1294 37.149 55.7454 36.54 55.8123C35.3122 55.9479 34.0567 56.0166 32.8091 56.0166C16.2782 56.0166 2.82971 44.0346 2.82971 29.3062C2.82971 20.7574 7.47797 12.6613 15.264 7.64621C15.7602 7.32561 15.8729 6.70731 15.5131 6.26516C15.1532 5.82301 14.4593 5.7226 13.963 6.0432V6.04496Z" fill="#F2F2F2"/>
<path d="M40.7249 56.1203C40.8693 56.5484 41.3102 56.8249 41.7886 56.8249C41.8954 56.8249 42.0022 56.8108 42.1089 56.7827C48.594 55.0422 54.4246 51.417 58.5271 46.5745C62.7681 41.5682 65.0082 35.5983 65.0082 29.3095C65.0082 21.6468 61.6589 14.442 55.5772 9.0235C49.4936 3.60321 41.409 0.619141 32.8065 0.619141C27.7885 0.619141 22.9801 1.6197 18.5157 3.59264C17.966 3.83573 17.7426 4.42937 18.0135 4.91909C18.2844 5.4088 18.9526 5.60785 19.5023 5.36652C23.6563 3.53098 28.1325 2.59912 32.8065 2.59912C49.3374 2.59912 62.7859 14.5812 62.7859 29.3095C62.7859 41.0027 54.0192 51.5209 41.4664 54.889C40.8792 55.0458 40.547 55.5989 40.723 56.1221L40.7249 56.1203Z" fill="#F2F2F2"/>
<path d="M53.5471 21.8149C52.9895 21.5859 52.3311 21.8026 52.0741 22.2993L45.2431 35.4898C44.9861 35.9866 45.2292 36.5732 45.7868 36.8022C45.9371 36.8638 46.0952 36.8938 46.2514 36.8938C46.6706 36.8938 47.0739 36.6806 47.2598 36.3195L54.0908 23.129C54.3478 22.6323 54.1046 22.0457 53.5471 21.8167V21.8149Z" fill="#F2F2F2"/>
<path d="M44.2027 21.7244C42.36 21.7244 40.8594 23.2058 40.8594 25.0255C40.8594 26.8452 42.36 28.3267 44.2027 28.3267C46.0454 28.3267 47.5461 26.8452 47.5461 25.0255C47.5461 23.2058 46.0454 21.7244 44.2027 21.7244ZM44.2027 26.3484C43.5938 26.3484 43.0797 25.7425 43.0797 25.0255C43.0797 24.3086 43.5938 23.7026 44.2027 23.7026C44.8117 23.7026 45.3257 24.3086 45.3257 25.0255C45.3257 25.7425 44.8117 26.3484 44.2027 26.3484Z" fill="#F2F2F2"/>
<path d="M51.6719 33.5922C51.6719 35.4118 53.1725 36.8933 55.0152 36.8933C56.8579 36.8933 58.3586 35.4118 58.3586 33.5922C58.3586 31.7725 56.8579 30.291 55.0152 30.291C53.1725 30.291 51.6719 31.7725 51.6719 33.5922ZM55.0152 32.2692C55.6242 32.2692 56.1382 32.8752 56.1382 33.5922C56.1382 34.3091 55.6242 34.9151 55.0152 34.9151C54.4063 34.9151 53.8922 34.3091 53.8922 33.5922C53.8922 32.8752 54.4063 32.2692 55.0152 32.2692Z" fill="#F2F2F2"/>
<path d="M38.7207 26.3786C38.7207 23.812 36.3777 21.7246 33.497 21.7246C30.6164 21.7246 28.2734 23.812 28.2734 26.3786V32.2393C28.2734 34.8059 30.6164 36.8933 33.497 36.8933C36.3777 36.8933 38.7207 34.8059 38.7207 32.2393V26.3786ZM36.5003 32.2393C36.5003 33.7155 35.1539 34.9151 33.497 34.9151C31.8402 34.9151 30.4938 33.7155 30.4938 32.2393V26.3786C30.4938 24.9024 31.8402 23.7028 33.497 23.7028C35.1539 23.7028 36.5003 24.9024 36.5003 26.3786V32.2393Z" fill="#F2F2F2"/>
<path d="M18.444 34.4974H25.7337V36.8931H15.6562V35.6107C15.6562 30.5885 23.2979 29.6443 23.2979 26.4295V25.9045C23.2979 24.8124 22.3884 24.1183 20.8403 24.1183C19.2922 24.1183 18.363 24.9586 18.363 26.4929V27.0812H15.8223V26.5563C15.8223 23.6356 17.8252 21.7244 20.9036 21.7244C23.982 21.7244 25.8385 23.3837 25.8385 25.864V26.5369C25.8385 30.9707 18.9205 31.9149 18.446 34.4991L18.444 34.4974Z" fill="#F2F2F2"/>
</svg>
