<svg width="60" height="56" viewBox="0 0 60 56" fill="none" xmlns="http://www.w3.org/2000/svg">
<path d="M21.4028 10.8068C21.5716 11.0006 21.8256 11.1141 22.0932 11.1141C22.1051 11.1141 22.1154 11.1141 22.1256 11.1141C22.4052 11.1046 22.6643 10.9722 22.8228 10.7579L25.3066 7.40264C25.5827 7.02913 25.4788 6.52009 25.0764 6.26479C24.6724 6.00948 24.1218 6.10561 23.8456 6.47754L22.037 8.92031L21.2562 8.01727C20.9511 7.66425 20.3936 7.60752 20.0118 7.88962C19.6299 8.17172 19.5685 8.68706 19.8737 9.04008L21.4011 10.8052L21.4028 10.8068Z" fill="white"/>
<path d="M28.0801 7.71472H30.0797C30.5689 7.71472 30.9644 7.34752 30.9644 6.89679C30.9644 6.44606 30.5689 6.07886 30.0797 6.07886H28.0801C27.5908 6.07886 27.1953 6.44606 27.1953 6.89679C27.1953 7.34752 27.5908 7.71472 28.0801 7.71472Z" fill="white"/>
<path d="M28.0801 11.1595H39.493C39.9823 11.1595 40.3778 10.7923 40.3778 10.3416C40.3778 9.89088 39.9823 9.52368 39.493 9.52368H28.0801C27.5908 9.52368 27.1953 9.89088 27.1953 10.3416C27.1953 10.7923 27.5908 11.1595 28.0801 11.1595Z" fill="white"/>
<path d="M21.4028 19.454C21.5716 19.6478 21.8256 19.7613 22.0932 19.7613C22.1051 19.7613 22.1154 19.7613 22.1256 19.7613C22.4052 19.7518 22.6643 19.6194 22.8228 19.4051L25.3066 16.0499C25.5827 15.6764 25.4788 15.1673 25.0764 14.912C24.6724 14.6567 24.1218 14.7528 23.8456 15.1248L22.037 17.5675L21.2562 16.6645C20.9511 16.3115 20.3936 16.2547 20.0118 16.5368C19.6299 16.8189 19.5685 17.3343 19.8737 17.6873L21.4011 19.4524L21.4028 19.454Z" fill="white"/>
<path d="M28.0801 16.3624H30.0797C30.5689 16.3624 30.9644 15.9952 30.9644 15.5445C30.9644 15.0938 30.5689 14.7266 30.0797 14.7266H28.0801C27.5908 14.7266 27.1953 15.0938 27.1953 15.5445C27.1953 15.9952 27.5908 16.3624 28.0801 16.3624Z" fill="white"/>
<path d="M28.0801 19.807H39.493C39.9823 19.807 40.3778 19.4398 40.3778 18.9891C40.3778 18.5383 39.9823 18.1711 39.493 18.1711H28.0801C27.5908 18.1711 27.1953 18.5383 27.1953 18.9891C27.1953 19.4398 27.5908 19.807 28.0801 19.807Z" fill="white"/>
<path d="M21.4028 28.1009C21.5716 28.2948 21.8256 28.4083 22.0932 28.4083C22.1051 28.4083 22.1154 28.4083 22.1256 28.4083C22.4052 28.3988 22.6643 28.2664 22.8228 28.0521L25.3066 24.6968C25.5827 24.3233 25.4788 23.8143 25.0764 23.559C24.6724 23.3037 24.1218 23.3998 23.8456 23.7717L22.037 26.2145L21.2562 25.3115C20.9511 24.9584 20.3936 24.9017 20.0118 25.1838C19.6299 25.4659 19.5685 25.9813 19.8737 26.3343L21.4011 28.0994L21.4028 28.1009Z" fill="white"/>
<path d="M28.0801 25.0089H30.0797C30.5689 25.0089 30.9644 24.6417 30.9644 24.191C30.9644 23.7402 30.5689 23.373 30.0797 23.373H28.0801C27.5908 23.373 27.1953 23.7402 27.1953 24.191C27.1953 24.6417 27.5908 25.0089 28.0801 25.0089Z" fill="white"/>
<path d="M28.0801 28.4515H39.493C39.9823 28.4515 40.3778 28.0843 40.3778 27.6336C40.3778 27.1829 39.9823 26.8157 39.493 26.8157H28.0801C27.5908 26.8157 27.1953 27.1829 27.1953 27.6336C27.1953 28.0843 27.5908 28.4515 28.0801 28.4515Z" fill="white"/>
<path d="M37.4648 35.2395C37.3949 34.792 36.9448 34.4815 36.4624 34.5461C35.9783 34.6107 35.6424 35.0252 35.7123 35.4728C35.7123 35.4728 36.4198 40.01 36.4215 40.0226C36.5868 41.0833 38.3359 40.8327 38.1739 39.7894L37.4648 35.2395Z" fill="white"/>
<path d="M34.0895 35.688C34.0196 35.2404 33.5696 34.93 33.0871 34.9946C32.603 35.0592 32.2672 35.4737 32.3371 35.9213L32.5536 37.3081L30.9 37.5288L30.6835 36.1419C30.6136 35.6943 30.1636 35.3839 29.6811 35.4485C29.197 35.5131 28.8612 35.9276 28.9311 36.3751C28.9311 36.3751 29.6385 40.9171 29.6402 40.925C29.8056 41.9904 31.5546 41.7319 31.3927 40.6917L31.1523 39.1489L32.8059 38.9282C32.8059 38.9282 33.0445 40.4664 33.0462 40.4711C33.2116 41.5317 34.9606 41.278 34.7987 40.2379L34.0895 35.688Z" fill="white"/>
<path d="M48.6488 37.5673L47.4708 37.7249L47.3719 37.0914L48.3982 36.9543C48.8823 36.8896 49.2181 36.4752 49.1482 36.0276C49.0783 35.58 48.6283 35.2695 48.1459 35.3342L47.1196 35.4713L47.0208 34.8377L48.1987 34.6801C48.6829 34.6155 49.0187 34.201 48.9488 33.7535C48.8789 33.3059 48.4289 32.9954 47.9464 33.06L45.8923 33.3342C45.6604 33.3658 45.4507 33.4808 45.3092 33.6542C45.1678 33.8275 45.1081 34.0466 45.1422 34.2609L45.4934 36.5146L45.8445 38.7682C45.9076 39.1764 46.286 39.4695 46.719 39.4695C46.7617 39.4695 46.8043 39.4664 46.8469 39.4616L48.9011 39.1874C49.3852 39.1228 49.721 38.7083 49.6511 38.2607C49.5812 37.8132 49.1312 37.5027 48.6488 37.5673Z" fill="white"/>
<path d="M42.7527 37.5556C42.9368 37.439 43.1022 37.2971 43.2454 37.1332C43.6238 36.6951 43.7841 36.1577 43.7005 35.6172C43.617 35.0766 43.2965 34.6022 42.8005 34.2807C42.3231 33.9718 41.7418 33.8442 41.1622 33.9214C41.1622 33.9214 39.8547 34.0963 39.853 34.0963C39.3689 34.161 39.0331 34.5754 39.103 35.023C39.103 35.023 39.8104 39.5587 39.8121 39.5729C39.9775 40.6335 41.7265 40.3813 41.5645 39.3396L41.464 38.6919L42.7749 39.7257C42.9419 39.8565 43.1465 39.9211 43.3494 39.9211C44.1574 39.9211 44.541 38.9661 43.9239 38.4807L42.7544 37.5588L42.7527 37.5556ZM41.8612 36.112C41.781 36.205 41.66 36.268 41.5305 36.2854C41.4248 36.2996 41.2696 36.32 41.1043 36.3437C41.0804 36.1971 41.0105 35.7511 40.9867 35.5982C40.9867 35.5982 41.4111 35.5415 41.4162 35.5415C41.7469 35.4974 42.1118 35.8252 41.8629 36.1136L41.8612 36.112Z" fill="white"/>
<path d="M5.90818 41.2855H7.05374C7.54299 41.2855 7.93848 40.9183 7.93848 40.4676C7.93848 40.0169 7.54299 39.6497 7.05374 39.6497H5.90818C5.41893 39.6497 5.02344 40.0169 5.02344 40.4676C5.02344 40.9183 5.41893 41.2855 5.90818 41.2855Z" fill="white"/>
<path d="M5.90818 44.7291H7.05374C7.54299 44.7291 7.93848 44.3619 7.93848 43.9112C7.93848 43.4605 7.54299 43.0933 7.05374 43.0933H5.90818C5.41893 43.0933 5.02344 43.4605 5.02344 43.9112C5.02344 44.3619 5.41893 44.7291 5.90818 44.7291Z" fill="white"/>
<path d="M5.90818 48.1715H10.1273C10.6166 48.1715 11.0121 47.8043 11.0121 47.3536C11.0121 46.9028 10.6166 46.5356 10.1273 46.5356H5.90818C5.41893 46.5356 5.02344 46.9028 5.02344 47.3536C5.02344 47.8043 5.41893 48.1715 5.90818 48.1715Z" fill="white"/>
<path d="M5.90818 51.6141H10.1273C10.6166 51.6141 11.0121 51.2469 11.0121 50.7962C11.0121 50.3455 10.6166 49.9783 10.1273 49.9783H5.90818C5.41893 49.9783 5.02344 50.3455 5.02344 50.7962C5.02344 51.2469 5.41893 51.6141 5.90818 51.6141Z" fill="white"/>
<path d="M20.5644 34.3993H22.564C23.0533 34.3993 23.4488 34.0321 23.4488 33.5814C23.4488 33.1306 23.0533 32.7634 22.564 32.7634H20.5644C20.0752 32.7634 19.6797 33.1306 19.6797 33.5814C19.6797 34.0321 20.0769 34.3993 20.5644 34.3993Z" fill="white"/>
<path d="M20.5644 37.8412H22.5692C23.0584 37.8412 23.4539 37.474 23.4539 37.0233C23.4539 36.5725 23.0584 36.2053 22.5692 36.2053H20.5644C20.0752 36.2053 19.6797 36.5725 19.6797 37.0233C19.6797 37.474 20.0769 37.8412 20.5644 37.8412Z" fill="white"/>
<path d="M20.5644 41.2855H22.5692C23.0584 41.2855 23.4539 40.9183 23.4539 40.4676C23.4539 40.0169 23.0584 39.6497 22.5692 39.6497H20.5644C20.0752 39.6497 19.6797 40.0169 19.6797 40.4676C19.6797 40.9183 20.0769 41.2855 20.5644 41.2855Z" fill="white"/>
<path d="M20.5644 44.7291H23.6244C24.1136 44.7291 24.5091 44.3619 24.5091 43.9112C24.5091 43.4605 24.1136 43.0933 23.6244 43.0933H20.5644C20.0752 43.0933 19.6797 43.4605 19.6797 43.9112C19.6797 44.3619 20.0769 44.7291 20.5644 44.7291Z" fill="white"/>
<path d="M20.5644 48.1715H25.2097C25.699 48.1715 26.0945 47.8043 26.0945 47.3536C26.0945 46.9028 25.699 46.5356 25.2097 46.5356H20.5644C20.0752 46.5356 19.6797 46.9028 19.6797 47.3536C19.6797 47.8043 20.0769 48.1715 20.5644 48.1715Z" fill="white"/>
<path d="M19.6797 50.7962C19.6797 51.2485 20.0752 51.6141 20.5644 51.6141H39.4884C39.9776 51.6141 40.3731 51.2469 40.3731 50.7962C40.3731 50.3455 39.9776 49.9783 39.4884 49.9783H20.5644C20.0752 49.9783 19.6797 50.3455 19.6797 50.7962Z" fill="white"/>
<path d="M59.8624 39.4635L58.3725 29.8942C58.306 29.4623 58.0605 29.0794 57.6821 28.8178C57.3036 28.5562 56.8382 28.4458 56.3712 28.5089L45.802 29.9162V2.27516C45.802 1.09318 44.7621 0.131836 43.4836 0.131836H2.3184C1.03987 0.131836 0 1.09318 0 2.27516V6.2419C0 6.6942 0.395491 7.05983 0.884742 7.05983C1.37399 7.05983 1.76948 6.69263 1.76948 6.2419V2.27516C1.76948 1.99622 2.01496 1.76928 2.31669 1.76928H14.2547V54.3628H2.3184C2.01667 54.3628 1.77119 54.1358 1.77119 53.8569V10.0258C1.77119 9.57351 1.3757 9.20789 0.886446 9.20789C0.397196 9.20789 0.00170474 9.57509 0.00170474 10.0258V53.8553C0.00170474 55.0373 1.04157 55.9986 2.3201 55.9986H43.4836C44.7621 55.9986 45.802 55.0373 45.802 53.8553V42.9874L58.3657 41.3153C59.3305 41.186 60.0022 40.3571 59.8641 39.4635H59.8624ZM38.8519 42.2593C38.3678 42.3239 38.032 42.7384 38.1018 43.1859C38.1717 43.6335 38.6218 43.944 39.1042 43.8794L44.0308 43.2238V53.8553C44.0308 54.1343 43.7853 54.3612 43.4836 54.3612H16.0259V1.76928H43.4819C43.7836 1.76928 44.0291 1.99622 44.0291 2.27516V30.1526L26.8815 32.4362C25.9166 32.5654 25.245 33.3944 25.383 34.288L26.873 43.8573C26.9991 44.6705 27.7577 45.2599 28.622 45.2599C28.7055 45.2599 28.7907 45.2536 28.876 45.2426L35.0709 44.4184C35.555 44.3537 35.8908 43.9393 35.8209 43.4917C35.7511 43.0441 35.301 42.7336 34.8186 42.7983L28.6271 43.6241L27.1338 34.0563L56.6183 30.129L58.1117 39.6967L38.8519 42.2608V42.2593Z" fill="white"/>
<path d="M54.9839 33.2105C54.3788 32.651 53.5639 32.4067 52.6894 32.5233L51.3376 32.703C51.104 32.7345 50.8943 32.8496 50.7546 33.0229C50.6131 33.1979 50.5534 33.4153 50.5875 33.6312L51.2847 38.0471C51.3188 38.2615 51.445 38.4553 51.6325 38.5845C51.8115 38.7075 52.0672 38.7674 52.2888 38.7374C52.3297 38.7311 53.2963 38.6003 53.6815 38.542C55.2703 38.304 56.2301 36.8856 55.9624 35.1678C55.838 34.3656 55.4987 33.6896 54.9822 33.2105H54.9839ZM53.4003 36.925C53.2809 36.9424 53.1002 36.9692 52.9076 36.996C52.8292 36.5074 52.5479 34.7171 52.4678 34.2065L52.9417 34.1434C53.2673 34.1009 53.5196 34.1718 53.731 34.3672C53.9713 34.5894 54.1435 34.9566 54.2117 35.4011C54.3174 36.0835 54.1077 36.8194 53.4003 36.9266V36.925Z" fill="white"/>
</svg>
