<svg width="339" height="306" viewBox="0 0 339 306" fill="none" xmlns="http://www.w3.org/2000/svg">
<path d="M286.209 17.1734C286.209 26.0333 293.173 33.1985 301.773 33.1985C310.373 33.1985 317.337 26.0333 317.337 17.1734C317.337 8.31358 310.373 1.17813 301.773 1.17813C293.173 1.17813 286.209 8.34331 286.209 17.2032V17.1734Z" fill="#ED852F"/>
<path d="M290.553 12.0002C290.553 12.0002 285.584 15.3301 286.119 20.4736C286.655 25.6171 286.804 42.5638 285.435 46.3693C284.096 50.1749 282.757 51.1858 285.971 54.6643C289.214 58.1428 298.618 59.9862 298.618 59.9862H301.564V10.1866L290.524 12.0002H290.553Z" fill="#ED852F"/>
<path d="M312.604 12.0002C312.604 12.0002 317.574 15.3301 317.039 20.4736C316.503 25.6171 316.354 42.5638 317.723 46.3693C319.062 50.1749 320.401 51.1858 317.187 54.6643C313.944 58.1428 304.54 59.9862 304.54 59.9862H301.594V10.1866L312.634 12.0002H312.604Z" fill="#ED852F"/>
<path d="M306.949 160.001C306.949 160.001 306.354 172.905 306.324 178.108C306.295 183.311 302.426 183.162 304.39 208.017C304.688 211.882 305.848 229.453 305.134 232.01C304.42 234.597 304.658 233.675 304.628 235.013C304.568 236.351 305.253 237.213 304.39 239.473C303.795 241.019 304.211 244.646 305.104 245.805C305.997 246.965 313.615 246.34 313.615 246.34C313.615 246.34 310.967 238.61 311.592 237.51C312.217 236.41 311.234 235.667 311.205 235.28C310.967 233.318 318.912 215.153 318.674 196.719C318.585 190.119 319.091 183.459 319.091 183.459L321.233 158.039L306.949 159.972V160.001Z" fill="#F2AD86"/>
<path d="M316.264 251.93C314.419 253.535 310.729 253.684 309.241 253.327C307.634 252.941 304.093 252.346 303.646 251.246C303.587 251.068 303.557 250.86 303.527 250.651C303.2 251.276 302.962 251.93 303.2 252.078C303.706 252.376 307.604 254.279 309.539 254.338C311.443 254.398 316.413 254.011 316.353 252.941C316.353 252.584 316.294 252.227 316.234 251.93H316.264Z" fill="#5E0839"/>
<path d="M309.242 253.327C310.73 253.684 314.42 253.535 316.265 251.93C316.265 251.93 316.295 251.93 316.295 251.9C317.336 250.949 315.194 246.162 315.194 246.162C315.194 246.162 310.581 242.178 308.855 241.464C307.129 240.781 306.593 241.286 304.54 242.624C302.487 243.962 303.915 246.697 303.915 246.697L304.094 247.53C304.094 247.53 303.469 249.403 303.558 250.651C303.558 250.889 303.618 251.068 303.677 251.246C304.123 252.346 307.665 252.911 309.272 253.327H309.242Z" fill="#02223D"/>
<path d="M296.089 160.001C296.089 160.001 296.684 172.905 296.714 178.108C296.744 183.311 300.612 183.162 298.648 208.017C298.351 211.882 297.19 229.453 297.904 232.01C298.618 234.597 298.38 233.675 298.41 235.013C298.47 236.351 297.785 237.213 298.648 239.473C299.243 241.019 298.827 244.646 297.934 245.805C297.041 246.965 289.423 246.34 289.423 246.34C289.423 246.34 292.071 238.61 291.447 237.51C290.822 236.41 291.804 235.667 291.833 235.28C292.071 233.318 284.126 215.153 284.364 196.719C284.453 190.119 283.947 183.459 283.947 183.459L281.805 158.039L296.089 159.972V160.001Z" fill="#F2AD86"/>
<path d="M286.773 251.93C288.618 253.535 292.309 253.684 293.796 253.327C295.403 252.941 298.945 252.346 299.391 251.246C299.451 251.068 299.48 250.86 299.51 250.651C299.837 251.276 300.076 251.93 299.837 252.078C299.332 252.376 295.403 254.279 293.499 254.338C291.594 254.398 286.625 254.011 286.684 252.941C286.684 252.584 286.744 252.227 286.803 251.93H286.773Z" fill="#5E0839"/>
<path d="M293.797 253.327C292.309 253.684 288.619 253.535 286.774 251.93C286.774 251.93 286.745 251.93 286.745 251.9C285.703 250.949 287.846 246.162 287.846 246.162C287.846 246.162 292.458 242.178 294.184 241.464C295.91 240.781 296.446 241.286 298.499 242.624C300.553 243.962 299.124 246.697 299.124 246.697L298.946 247.53C298.946 247.53 299.571 249.403 299.481 250.651C299.481 250.889 299.422 251.068 299.362 251.246C298.916 252.346 295.375 252.911 293.768 253.327H293.797Z" fill="#02223D"/>
<path d="M314.181 104.464C314.181 104.464 323.526 108.656 324.657 116.802C325.787 124.949 324.657 182.984 324.657 182.984C324.657 182.984 309.093 184.53 301.594 184.292C301.445 184.292 301.355 102.353 301.355 102.353C305.046 102.204 309.271 102.769 314.152 104.464H314.181Z" fill="#001B2D"/>
<path d="M281.178 114.81C281.178 114.81 286.743 102.888 301.385 102.353L301.623 184.292C293.945 184.024 277.607 182.537 277.607 182.537L281.178 114.81Z" fill="#02223D"/>
<path d="M291.565 44.1395L276.775 50.0857L281.715 70.8083C281.715 70.8083 286.209 82.7899 285.584 89.3902C284.989 95.9905 281.953 102.115 281.567 104.969C281.18 107.823 280.436 116.356 280.436 116.356L302.993 115.702L304.749 82.3439C304.749 82.3439 295.553 58.3212 294.958 55.4373C294.363 52.5831 291.625 44.1098 291.625 44.1098L291.565 44.1395Z" fill="#052F4C"/>
<path d="M314.21 44.1395L329.001 50.0857L324.061 70.8083C324.061 70.8083 319.567 82.7899 320.192 89.3902C320.787 95.9905 323.823 102.115 324.209 104.969C324.596 107.823 325.34 116.356 325.34 116.356L302.783 115.702L301.027 82.3439C301.027 82.3439 310.223 58.3212 310.818 55.4373C311.413 52.5831 314.151 44.1098 314.151 44.1098L314.21 44.1395Z" fill="#002F49"/>
<path d="M302.219 83.0872C302.219 83.6818 302.725 84.1872 303.35 84.1872C303.975 84.1872 304.48 83.6818 304.48 83.0872C304.48 82.4926 303.975 81.9871 303.35 81.9871C302.725 81.9871 302.219 82.4926 302.219 83.0872Z" fill="#0B0E1E"/>
<path d="M302.129 94.4742C302.129 95.0688 302.635 95.5742 303.26 95.5742C303.885 95.5742 304.391 95.0688 304.391 94.4742C304.391 93.8795 303.885 93.3741 303.26 93.3741C302.635 93.3741 302.129 93.8795 302.129 94.4742Z" fill="#0B0E1E"/>
<path d="M302.963 49.164C305.492 49.164 307.992 49.1046 310.522 48.9857C309.063 55.0805 305.522 67.4486 303.201 75.3868C303.112 75.1193 303.052 74.8517 302.963 74.5841V49.164Z" fill="#F3F6FF"/>
<path d="M310.522 48.9857C307.992 49.1046 305.492 49.1641 302.963 49.1641V31.4146L309.034 29.9578C309.034 29.9578 308.587 39.5015 310.105 42.2962C310.373 42.7719 310.819 43.2476 311.355 43.6935C311.355 44.3774 311.266 45.2396 311.087 46.3396C310.968 46.964 310.789 47.8856 310.522 48.9857Z" fill="#F2AD86"/>
<path d="M295.85 49.0154C295.553 47.7667 295.315 46.7261 295.196 46.0423C295.017 44.9422 294.928 44.08 294.928 43.3665C295.315 43.0097 295.612 42.653 295.791 42.2962C297.308 39.5015 296.862 29.9578 296.862 29.9578L302.933 31.4146V49.1641C300.552 49.1641 298.201 49.1046 295.85 49.0154Z" fill="#F2AD86"/>
<path d="M295.85 49.0154C298.201 49.1046 300.581 49.1641 302.932 49.1641V74.5841C300.671 66.7648 297.308 55.0805 295.85 49.0154Z" fill="#EAEDF4"/>
<path d="M302.963 74.5841C303.052 74.8517 303.112 75.1193 303.201 75.3868C303.112 75.6544 303.052 75.922 302.963 76.1896V74.5841Z" fill="#262837"/>
<path d="M292.1 50.6803L288.678 50.383L288.975 48.5992L289.273 46.7261L289.6 44.6449C289.6 44.6449 294.153 41.7016 294.451 40.5421C294.749 39.3528 296.266 40.6907 296.266 40.6907C296.266 40.6907 294.897 40.3637 294.927 43.3962C294.927 44.08 295.016 44.972 295.195 46.072C295.314 46.7558 295.522 47.7964 295.85 49.0451C297.308 55.1103 300.671 66.8243 302.932 74.6138V76.2193C302.664 77.1112 302.426 77.9437 302.218 78.687C302.158 78.8951 302.099 79.0735 302.039 79.2519C300.105 77.1707 297.724 74.1976 296.028 70.9272C292.755 64.5945 288.678 52.9994 288.678 52.9994L289.154 52.6723L292.07 50.7101L292.1 50.6803Z" fill="#355774"/>
<path d="M302.069 79.1924C302.128 79.014 302.188 78.8357 302.247 78.6275C302.456 77.8843 302.694 77.0518 302.962 76.1599C303.051 75.8923 303.11 75.6247 303.2 75.3571C305.521 67.4189 309.062 55.0508 310.52 48.9559C310.788 47.8559 310.997 46.9342 311.086 46.3099C311.264 45.2396 311.354 44.3774 311.354 43.6638C311.383 40.6015 310.014 40.9286 310.014 40.9286C310.014 40.9286 311.532 39.6204 311.83 40.7799C312.127 41.9692 316.68 44.8828 316.68 44.8828L316.978 46.8153L317.246 48.51L317.573 50.6209L314.151 50.9182L316.68 52.6129L317.573 53.2075C317.573 53.2075 313.467 64.8323 310.223 71.1353C308.556 74.3463 306.235 77.2302 304.331 79.3114C303.944 79.7276 303.587 80.0844 303.259 80.4411C301.95 81.779 301.027 82.5818 301.027 82.5818C301.027 82.5818 301.414 81.2736 302.039 79.1627L302.069 79.1924Z" fill="#355774"/>
<path d="M277.637 130.151L280.137 134.789L281.268 142.728L280.702 146.92C280.702 146.92 279.095 146.355 279.006 145.166C278.887 143.947 278.768 141.955 278.768 141.955L277.637 139.19L277.399 143.501L278.649 146.593L280.464 148.466C280.464 148.466 282.637 149.774 282.845 150.666C283.083 151.558 282.845 152.093 282.845 152.093L281.357 151.32C281.357 151.32 281.238 152.42 280.673 152.42C280.107 152.42 274.751 149.001 274.751 149.001L274.185 148.109C274.185 148.109 273.858 147.99 273.173 147.336L272.489 146.682L270.555 141.271L271.477 129.26L277.637 130.151Z" fill="#FFC197"/>
<path d="M276.864 50.0857C275.078 49.9371 274.245 56.6265 274.126 62.4538C274.007 68.2811 272.073 90.7875 270.585 95.4256C269.097 100.064 270.704 125.067 270.585 128.278C270.466 131.489 270.138 133.362 270.138 133.362L279.364 131.281C279.364 131.281 280.376 107.467 281.417 103.721C282.459 99.9744 281.179 91.8281 281.179 91.8281L283.56 76.3977C283.56 76.3977 280.018 50.383 276.834 50.1154L276.864 50.0857Z" fill="#02223D"/>
<path d="M314.061 23.1494C314.061 23.1494 315.073 19.1654 315.936 19.9087C316.799 20.652 316.263 27.8766 315.162 29.1551C314.061 30.4335 311.502 27.6388 311.502 27.6388L314.061 23.1197V23.1494Z" fill="#FFC197"/>
<path d="M309.032 8.90821C309.032 8.90821 311.443 9.02713 313.437 14.0219C315.401 19.0168 313.764 28.2631 313.764 28.2631C313.764 28.2631 312.693 32.7228 310.699 35.4283C308.943 37.8068 305.015 40.8096 303.021 41.761C301.295 42.5935 301.741 41.9691 301.741 41.9691V8.37305L309.062 8.90821H309.032Z" fill="#FFC197"/>
<path d="M290.136 23.5062C290.136 23.5062 288.053 19.0762 287.19 19.8195C286.327 20.5628 287.19 27.3415 288.291 28.6199C289.392 29.8983 290.493 27.1333 290.493 27.1333L290.165 23.5062H290.136Z" fill="#FFC197"/>
<path d="M294.422 8.90821C294.422 8.90821 292.011 9.02713 290.017 14.0219C288.053 19.0168 289.69 28.2631 289.69 28.2631C289.69 28.2631 290.761 32.7228 292.755 35.4283C294.511 37.8068 298.439 40.8096 300.433 41.761C302.159 42.5935 301.713 41.9691 301.713 41.9691V8.37305L294.392 8.90821H294.422Z" fill="#FFC197"/>
<path d="M329.002 50.0857C329.002 50.0857 330.907 48.9857 333.704 54.1886C336.501 59.3915 339.09 76.2193 338.644 82.3439C338.198 88.4685 339.329 97.5067 335.579 98.7257C331.829 99.9744 324.955 67.0324 324.955 67.0324L329.002 50.0857Z" fill="#02223D"/>
<path d="M334.774 73.2759L325.519 112.58C325.519 112.58 306.533 113.859 304.777 113.859C303.022 113.859 311.384 76.2788 311.384 76.2788L334.774 73.2759Z" fill="#8C3C19"/>
<path d="M314.093 106.634C314.093 106.634 306.742 109.429 304.897 108.121C303.023 106.783 304.51 105.237 304.51 105.237C304.51 105.237 302.904 104.018 303.886 102.353C304.481 101.342 303.201 99.8852 303.499 99.2312C304.005 98.1311 304.868 96.8527 304.868 96.8527C304.868 96.8527 308.468 95.9607 310.343 96.6445C312.218 97.2986 317.694 99.8555 317.694 99.8555L314.093 106.664V106.634Z" fill="#FFC197"/>
<path d="M331.622 88.8848C336.621 85.4657 340.073 90.6092 338.674 94.4147C337.276 98.2203 336.859 100.242 328.348 103.661C319.867 107.08 314.094 106.664 314.094 106.664L314.719 99.023C314.719 99.023 321.801 97.3581 323.974 96.3175C326.771 94.9796 329.42 90.4308 331.622 88.9145V88.8848Z" fill="#02223D"/>
<path d="M31.5033 34.6553L30.7891 43.4259C30.7891 43.4259 34.6875 51.0668 38.1395 49.7587C41.5915 48.4505 46.6505 45.299 46.6505 45.299L44.7757 34.358L31.5033 34.6553Z" fill="#F2AD86"/>
<path d="M53.3754 47.7964H27.4258V94.8904H53.3754V47.7964Z" fill="#EAEDF4"/>
<path d="M43.8816 76.5761L40.8759 51.1857L39.1797 51.7506V94.266L43.8816 76.5761Z" fill="#151721"/>
<path d="M34.4785 76.5761L37.4544 51.1857L39.1804 51.7506V94.266L34.4785 76.5761Z" fill="#151721"/>
<path d="M35.0449 47.618L37.6042 52.6128H39.1814V47.4694L35.0449 47.618Z" fill="#1D1F2D"/>
<path d="M43.3181 47.618L40.7291 52.6128H39.1816V47.4694L43.3181 47.618Z" fill="#1D1F2D"/>
<path d="M45.8762 52.6128C45.8762 52.6128 48.3164 45.2693 48.1676 44.1098C48.0188 42.9502 46.4416 40.2447 46.4416 40.2447C46.4416 40.2447 46.4416 41.9394 42.9896 44.2584C39.5375 46.5774 38.377 47.8559 38.377 47.8559C38.377 47.8559 40.1327 47.7369 42.2753 49.164L45.8762 52.6128Z" fill="#F3F6FF"/>
<path d="M39.0023 47.8559C39.0023 47.8559 37.1274 47.5586 35.1039 49.164C33.0803 50.7398 31.503 52.6129 31.503 52.6129C31.503 52.6129 29.0628 45.2693 29.2116 44.1098C29.3604 42.9503 30.8186 40.3339 30.8186 40.3339C30.8186 40.3339 30.9376 41.9394 34.3896 44.2287C37.8417 46.518 39.0023 47.8261 39.0023 47.8261V47.8559Z" fill="#F3F6FF"/>
<path d="M53.5535 16.9356C53.5535 25.736 46.828 32.8714 38.5551 32.8714C30.2821 32.8714 23.5566 25.736 23.5566 16.9356C23.5566 8.13519 27.4253 1.32678 38.5253 0.999739C46.7982 0.761891 53.5237 8.13519 53.5237 16.9356H53.5535Z" fill="#ED852F"/>
<path d="M65.5773 129.081C65.5773 129.081 62.7205 132.352 63.0181 136.573C63.3157 140.795 63.8513 142.757 63.8513 142.757L63.6133 144.72C63.6133 144.72 65.1607 144.72 66.1427 142.46C67.1248 140.201 66.8272 137.108 66.8272 137.108C66.8272 137.108 67.6902 140.201 67.6902 141.628C67.6902 143.025 66.1427 147.128 66.1427 147.544C66.1427 147.96 64.2977 148.377 63.4645 149.387C62.6312 150.369 62.4824 152.212 62.4824 152.212L67.6902 149.952L71.4993 142.49V131.935L65.7261 128.695L65.5773 129.111V129.081Z" fill="#FFC197"/>
<path d="M64.745 56.7752C64.745 56.7752 66.5008 50.8587 67.6911 51.3939C68.8815 51.929 73.4941 57.5482 74.7737 66.9135C76.3212 78.1816 77.4222 91.3524 77.7496 99.0528C78.3447 112.967 72.0061 135.592 71.53 133.868L64.0605 130.776C64.0605 130.776 66.6198 111.48 66.6496 100.896C66.6793 90.3118 62.6321 90.0443 62.9297 78.3302C63.1975 66.6459 64.7748 56.7752 64.7748 56.7752H64.745Z" fill="#151721"/>
<path d="M20.8201 249.611C20.8201 249.611 18.7965 251.038 18.9453 251.781C19.0941 252.495 20.0166 255.527 23.796 255.944C27.5754 256.389 30.6405 255.646 31.9201 254.784C33.2295 253.922 34.9555 251.335 32.6343 249.313L20.8201 249.611Z" fill="#151721"/>
<path d="M33.6167 248.749C33.6167 250.205 34.7772 253.506 29.748 254.07C24.689 254.635 19.8086 253.773 19.8086 250.77C19.8086 249.67 19.9574 248.065 20.1657 246.489C20.493 243.784 20.9692 241.137 20.9692 241.137L21.5346 239.948L23.707 235.37L33.081 235.667L33.5274 235.816C33.5274 235.816 33.7655 237.986 33.7952 240.097C33.7952 241.346 33.7655 242.565 33.5274 243.308C33.2596 244.2 33.2596 245.092 33.3488 245.924C33.4381 246.994 33.6464 247.976 33.6762 248.778L33.6167 248.749Z" fill="#151721"/>
<path d="M27.3974 241.464C27.3974 242.059 27.2486 242.535 26.7725 242.713C25.8499 243.1 22.1599 245.865 20.166 246.489C20.4934 243.784 20.9695 241.137 20.9695 241.137L21.5349 239.948C23.2907 239.502 26.4451 238.729 26.8022 239.235C27.0998 239.651 27.4272 240.632 27.4272 241.435L27.3974 241.464Z" fill="#151721"/>
<path d="M33.497 243.278C33.2292 244.17 33.2292 245.062 33.3185 245.894C31.3246 244.854 28.7654 242.981 28.0214 242.683C27.575 242.505 27.3965 242 27.3965 241.435C27.3965 240.602 27.7238 239.651 28.0214 239.235C28.4083 238.67 32.2174 239.651 33.7649 240.067C33.7649 241.316 33.7351 242.535 33.497 243.278Z" fill="#151721"/>
<path d="M57.3035 249.611C57.3035 249.611 59.3271 251.038 59.1783 251.781C59.0295 252.495 58.107 255.527 54.3277 255.944C50.5483 256.389 47.4831 255.646 46.2035 254.784C44.8941 253.922 43.1681 251.335 45.4893 249.313L57.3035 249.611Z" fill="#151721"/>
<path d="M44.4778 248.749C44.4778 250.205 43.3173 253.506 48.3465 254.07C53.4055 254.635 58.2859 253.773 58.2859 250.77C58.2859 249.67 58.1371 248.065 57.9288 246.489C57.6015 243.784 57.1253 241.137 57.1253 241.137L56.5599 239.948L54.3578 235.37L44.9837 235.667L44.5374 235.816C44.5374 235.816 44.2993 237.986 44.2695 240.097C44.2695 241.346 44.2993 242.565 44.5374 243.308C44.8052 244.2 44.8052 245.092 44.7159 245.924C44.6266 246.994 44.4183 247.976 44.3886 248.778L44.4778 248.749Z" fill="#151721"/>
<path d="M50.727 241.464C50.727 242.059 50.8758 242.535 51.352 242.713C52.2745 243.1 55.9646 245.865 57.9584 246.489C57.6311 243.784 57.1549 241.137 57.1549 241.137L56.5895 239.948C54.8337 239.502 51.6793 238.729 51.3222 239.235C51.0246 239.651 50.6973 240.632 50.6973 241.435L50.727 241.464Z" fill="#151721"/>
<path d="M44.6272 243.278C44.895 244.17 44.895 245.062 44.8058 245.894C46.7996 244.854 49.3588 242.981 50.1028 242.683C50.5492 242.505 50.7277 242 50.7277 241.435C50.7277 240.602 50.4004 239.651 50.1028 239.235C49.716 238.67 45.9068 239.651 44.3594 240.067C44.3594 241.316 44.3891 242.535 44.6272 243.278Z" fill="#151721"/>
<path d="M64.4476 119.062C64.0012 114.899 57.4245 113.175 57.4245 113.175L51.2942 113.561C52.0381 129.616 53.7642 167.642 53.5558 174.659C53.3178 181.735 51.2942 223.18 50.4609 242C52.425 242.059 56.2937 239.116 56.2937 239.116C56.2937 239.116 64.8939 123.254 64.4773 119.062H64.4476Z" fill="#1D1F2D"/>
<path d="M51.2641 113.561L38.5273 114.334V148.882L42.1282 239.264C42.1282 239.264 48.318 241.702 50.1928 242C50.2523 242 50.3416 242 50.4011 242C51.2343 223.15 53.2877 181.735 53.496 174.659C53.7341 167.642 52.0081 129.616 51.2343 113.561H51.2641Z" fill="#282A39"/>
<path d="M13.9165 120.697C14.3629 116.535 19.6599 113.175 19.6599 113.175L25.7902 113.561C25.0463 129.616 23.3203 167.642 23.5286 174.659C23.7666 181.735 25.7902 223.18 26.6235 242C24.6594 242.059 20.7908 239.116 20.7908 239.116C20.7908 239.116 13.4403 124.889 13.8867 120.697H13.9165Z" fill="#282A39"/>
<path d="M25.8207 113.561L38.5574 114.334V148.882L34.9566 239.264C34.9566 239.264 28.7668 241.702 26.892 242C26.8325 242 26.7432 242 26.6837 242C25.8504 223.15 23.7971 181.735 23.5887 174.659C23.3507 167.642 25.0767 129.616 25.8504 113.561H25.8207Z" fill="#151721"/>
<g style="mix-blend-mode:multiply">
<g style="mix-blend-mode:multiply">
<path d="M38.5259 47.4694C38.5259 47.4694 36.6809 46.1612 34.8061 47.4694C32.9313 48.7775 31.4434 53.5048 31.4434 53.5048C31.4434 53.5048 33.7943 49.1938 37.6629 49.3424C41.5613 49.4911 41.234 49.0451 42.0375 49.4911C42.841 49.9371 45.9954 53.6534 45.9954 53.6534C45.9954 53.6534 46.7989 45.745 38.4962 47.4694H38.5259Z" fill="#A2D4DD"/>
</g>
</g>
<path d="M27.4563 44.6449L11.952 49.3127C11.952 49.3127 13.4697 71.1353 13.8863 76.0409C14.3327 80.9465 16.9217 93.166 16.3265 101.669C15.7611 110.172 7.36914 136.008 7.36914 136.008C7.36914 136.008 24.8078 143.56 29.0038 141.271C33.17 138.982 40.4014 121.975 40.9668 109.875C41.5322 97.7743 39.3896 93.4038 39.3896 93.4038L27.4563 44.6449Z" fill="#1D1F2D"/>
<path d="M64.6853 75.7436C64.2389 80.6195 61.6499 92.8687 62.245 101.372C62.4236 104.077 62.7509 106.931 63.0783 109.607C63.3461 111.718 63.6139 113.68 63.8818 115.345C64.3281 118.2 66.5601 133.957 66.5601 133.957C66.5601 133.957 54.3292 140.409 50.163 138.119C45.9968 135.83 38.2 121.678 37.6048 109.578C37.0394 97.477 39.182 93.1065 39.182 93.1065L51.145 44.3773L67.6909 51.4236C67.6909 51.4236 65.1316 70.8677 64.6853 75.7436Z" fill="#151721"/>
<path d="M42.0976 95.5742H39.3301V96.3175H42.0976V95.5742Z" fill="#0E131C"/>
<path d="M42.6034 110.202H39.2109V111.064H42.6034V110.202Z" fill="#0E131C"/>
<path d="M24.4202 45.0612L30.8183 40.3339C30.8183 40.3339 29.4791 44.7044 30.2231 47.2315C30.9671 49.7587 39.0317 92.5119 39.0317 92.5119C39.0317 92.5119 33.9132 85.9414 29.5982 75.1193C25.2832 64.3269 21.3848 51.6615 21.3848 51.6615L25.2832 50.2344L23.1108 49.0749L24.4202 45.0314V45.0612Z" fill="#282A39"/>
<path d="M52.661 45.0612L46.62 40.1555C46.62 40.1555 47.602 44.7044 46.8581 47.2315C46.1141 49.7587 38.7637 94.2066 38.7637 94.2066C38.7637 94.2066 43.168 85.9414 47.483 75.1193C51.798 64.3269 55.6964 51.6615 55.6964 51.6615L51.798 50.2344L53.9704 49.0749L52.661 45.0314V45.0612Z" fill="#282A39"/>
<path d="M63.8503 110.142C61.8862 112.432 57.0058 114.513 57.0058 114.513L54.7441 108.775C54.7441 108.775 58.3152 107.794 60.9935 106.307C61.9755 105.772 62.6302 105.058 63.0468 104.404C63.3147 106.515 63.5825 108.477 63.8503 110.142Z" fill="#1D1F2D"/>
<path d="M14.6309 110.142C16.5949 112.432 21.4754 114.513 21.4754 114.513L23.737 108.775C23.737 108.775 20.166 107.794 17.4877 106.307C16.5057 105.772 15.851 105.058 15.4343 104.404C15.1665 106.515 14.8987 108.477 14.6309 110.142Z" fill="#282A39"/>
<path d="M26.5632 18.5411C26.5632 18.5411 24.7479 16.7275 23.8254 17.5005C22.9029 18.3032 23.4683 26.063 24.6289 27.4307C25.7597 28.7983 27.4857 28.6794 27.4857 28.6794L26.5632 18.5113V18.5411Z" fill="#F2AD86"/>
<path d="M31.1451 6.85677C31.1451 6.85677 28.6156 6.97569 26.5622 12.357C24.5089 17.7383 26.2051 27.6685 26.2051 27.6685C26.2051 27.6685 26.7706 32.6931 28.8239 35.6067C30.8177 38.4311 32.7818 41.1961 34.6269 41.9989C36.4719 42.8016 38.6741 42.4151 38.6741 42.4151V6.26215L31.1153 6.82704L31.1451 6.85677Z" fill="#FFC197"/>
<path d="M50.8171 18.5411C50.8171 18.5411 52.6323 16.7275 53.5549 17.5005C54.4774 18.3032 53.912 26.063 52.7514 27.4307C51.6205 28.7983 49.8945 28.6794 49.8945 28.6794L50.8171 18.5113V18.5411Z" fill="#F2AD86"/>
<path d="M46.234 6.85677C46.234 6.85677 48.7635 6.97569 50.8169 12.357C52.8702 17.7383 51.174 27.6685 51.174 27.6685C51.174 27.6685 50.6086 32.6931 48.5552 35.6067C46.5614 38.4311 44.5973 41.1961 42.7523 41.9989C40.9072 42.8016 38.7051 42.4151 38.7051 42.4151V6.26215L46.2638 6.82704L46.234 6.85677Z" fill="#FFC197"/>
<path d="M13.172 126.94C13.172 126.94 16.0288 130.211 15.7312 134.433C15.4337 138.655 14.898 140.617 14.898 140.617L15.1361 142.579C15.1361 142.579 13.5886 142.579 12.6066 140.319C11.6245 138.06 11.9221 134.968 11.9221 134.968C11.9221 134.968 11.0591 138.06 11.0591 139.487C11.0591 140.884 12.6066 144.987 12.6066 145.403C12.6066 145.82 14.4516 146.236 15.2849 147.247C16.1181 148.228 16.2669 150.071 16.2669 150.071L11.0591 147.812L7.25 140.349V129.765L13.0232 126.524L13.172 126.94Z" fill="#FFC197"/>
<path d="M14.0044 54.6346C14.0044 54.6346 12.2487 48.7181 11.0583 49.2532C9.86798 49.8181 5.25537 55.4076 3.97574 64.7728C2.45805 76.0706 1.35697 89.2415 1.02963 96.9121C0.434452 110.826 6.77307 133.452 7.24921 131.727L14.7187 128.635C14.7187 128.635 12.1594 109.34 12.1296 98.7554C12.0999 88.1712 16.1471 87.9036 15.8495 76.1896C15.5817 64.5053 14.0044 54.6346 14.0044 54.6346Z" fill="#151721"/>
<path d="M36.5026 2.18897C33.5268 2.6052 28.3487 5.01342 27.3072 8.70007C26.2656 12.3867 26.2656 16.2518 26.2656 16.2518C26.2656 16.2518 28.6761 10.4245 33.7351 8.52168C38.7941 6.6189 38.3477 5.51885 38.3477 5.51885C38.3477 5.51885 35.6099 13.0705 35.5206 13.4273C35.4313 13.7841 39.0321 12.8327 41.264 10.6029C43.4959 8.37303 44.0911 6.26212 44.0911 6.26212L48.3764 14.2895C48.3764 14.2895 49.9238 11.4651 48.9716 7.83787C48.0193 4.24041 40.282 1.62408 36.4134 2.15924L36.5026 2.18897Z" fill="#F99841"/>
<path d="M74.5326 57.3401L73.8184 66.1405C73.8184 66.1405 77.7168 73.7814 81.1688 72.5029C84.6208 71.1948 89.6798 68.0433 89.6798 68.0433L87.805 57.0725L74.5326 57.3698V57.3401Z" fill="#F2AD86"/>
<path d="M96.4364 70.5406H70.457V117.724H96.4364V70.5406Z" fill="#EAEDF4"/>
<path d="M86.9441 99.3501L83.9384 73.9003L82.2422 74.4949V117.099L86.9441 99.3501Z" fill="#005893"/>
<path d="M77.5098 99.3501L80.5154 73.9003L82.2414 74.4949V117.099L77.5098 99.3501Z" fill="#005893"/>
<path d="M78.1055 70.3326L80.6647 75.3274H82.2419V70.1839L78.1055 70.3326Z" fill="#145F9E"/>
<path d="M86.3787 70.3326L83.8194 75.3274H82.2422V70.1839L86.3787 70.3326Z" fill="#145F9E"/>
<path d="M88.968 75.3274C88.968 75.3274 91.4082 67.9838 91.2891 66.8243C91.1403 65.6648 89.7119 62.8701 89.7119 62.8701C89.7119 62.8701 89.5631 64.6539 86.0814 66.9432C82.6293 69.2622 81.4688 70.5407 81.4688 70.5407C81.4688 70.5407 83.2245 70.4217 85.3671 71.8488L88.968 75.2976V75.3274Z" fill="#F3F6FF"/>
<path d="M82.0629 70.5704C82.0629 70.5704 80.1881 70.2731 78.1645 71.8786C76.1409 73.4543 74.5637 75.3274 74.5637 75.3274C74.5637 75.3274 72.1235 67.9838 72.2425 66.8243C72.3913 65.6648 73.8792 63.0484 73.8792 63.0484C73.8792 63.0484 73.9983 64.6539 77.4503 66.9729C80.9023 69.292 82.0629 70.5704 82.0629 70.5704Z" fill="#F3F6FF"/>
<path d="M96.6442 39.5906C96.6442 48.4208 89.9188 55.5562 81.6161 55.5562C73.3134 55.5562 66.5879 48.4208 66.5879 39.5906C66.5879 30.7605 70.4863 23.9521 81.6161 23.6251C89.9188 23.3872 96.6442 30.7605 96.6442 39.5906Z" fill="#772D17"/>
<path d="M56.4994 72.3245C56.4994 72.3245 52.8391 69.2325 50.5774 76.2788C48.3158 83.325 42.6616 119.21 46.6195 121.173C50.5774 123.165 57.9278 115.316 57.9278 115.316L62.719 101.699L56.4697 72.3245H56.4994Z" fill="#005893"/>
<path d="M108.696 151.974C108.696 151.974 105.84 155.244 106.137 159.466C106.435 163.688 106.97 165.68 106.97 165.68L106.732 167.642C106.732 167.642 108.28 167.642 109.262 165.383C110.244 163.123 109.946 160.031 109.946 160.031C109.946 160.031 110.809 163.153 110.809 164.55C110.809 165.948 109.262 170.051 109.262 170.467C109.262 170.883 107.417 171.299 106.584 172.31C105.75 173.291 105.602 175.135 105.602 175.135L110.839 172.875L114.648 165.383V154.798L108.845 151.558L108.696 151.974Z" fill="#FFC197"/>
<path d="M107.833 79.5195C107.833 79.5195 109.589 73.5733 110.779 74.1382C111.97 74.703 116.582 80.2925 117.862 89.6875C119.41 100.985 120.511 114.186 120.838 121.886C121.433 135.83 115.094 158.485 114.618 156.761L107.119 153.669C107.119 153.669 109.678 134.344 109.708 123.73C109.738 113.116 105.691 112.848 105.988 101.134C106.286 89.4199 107.833 79.5195 107.833 79.5195Z" fill="#005893"/>
<path d="M63.8494 272.771C63.8494 272.771 61.8258 274.228 61.9746 274.942C62.1234 275.655 63.0459 278.688 66.8253 279.134C70.6047 279.58 73.6698 278.836 74.9792 277.974C76.2886 277.112 78.0146 274.525 75.6934 272.504L63.8494 272.801V272.771Z" fill="#151721"/>
<path d="M76.6757 271.879C76.6757 273.336 77.8363 276.636 72.8071 277.231C67.7481 277.796 62.8379 276.934 62.8379 273.901C62.8379 272.771 62.9867 271.196 63.195 269.62C63.5223 266.914 63.9985 264.238 63.9985 264.238L64.5639 263.049L66.766 258.441L76.1401 258.738L76.5864 258.887C76.5864 258.887 76.8245 261.057 76.8543 263.168C76.8543 264.417 76.8245 265.636 76.5864 266.379C76.3186 267.271 76.3186 268.163 76.4079 269.025C76.4972 270.096 76.7055 271.077 76.7352 271.879H76.6757Z" fill="#005893"/>
<path d="M70.4252 264.566C70.4252 265.16 70.2764 265.636 69.8003 265.814C68.8777 266.201 65.1877 268.966 63.1641 269.62C63.4914 266.914 63.9676 264.238 63.9676 264.238L64.533 263.049C66.2887 262.603 69.4729 261.83 69.8003 262.336C70.0979 262.752 70.4252 263.733 70.4252 264.536V264.566Z" fill="#151721"/>
<path d="M76.5556 266.409C76.2878 267.301 76.2878 268.193 76.3771 269.055C74.3535 268.014 71.824 266.141 71.08 265.844C70.6336 265.666 70.4551 265.16 70.4551 264.595C70.4551 263.763 70.7824 262.811 71.08 262.365C71.4669 261.801 75.276 262.782 76.8532 263.198C76.8532 264.447 76.8235 265.666 76.5854 266.409H76.5556Z" fill="#151721"/>
<path d="M100.394 272.771C100.394 272.771 102.417 274.228 102.269 274.942C102.12 275.655 101.197 278.688 97.418 279.134C93.6386 279.58 90.5735 278.836 89.2641 277.974C87.9547 277.112 86.2287 274.525 88.5499 272.504L100.394 272.801V272.771Z" fill="#151721"/>
<path d="M87.5672 271.879C87.5672 273.336 86.4066 276.636 91.4359 277.231C96.4948 277.796 101.405 276.934 101.405 273.901C101.405 272.771 101.256 271.196 101.048 269.62C100.721 266.914 100.244 264.238 100.244 264.238L99.679 263.049L97.4769 258.441L88.1029 258.738L87.6565 258.887C87.6565 258.887 87.4184 261.057 87.3887 263.168C87.3887 264.417 87.4184 265.636 87.6565 266.379C87.9243 267.271 87.9243 268.163 87.8351 269.025C87.7458 270.096 87.5375 271.077 87.5077 271.879H87.5672Z" fill="#005893"/>
<path d="M93.8164 264.566C93.8164 265.16 93.9652 265.636 94.4413 265.814C95.3639 266.201 99.0539 268.966 101.078 269.62C100.75 266.914 100.274 264.238 100.274 264.238L99.7086 263.049C97.9529 262.603 94.7687 261.83 94.4413 262.336C94.1437 262.752 93.8164 263.733 93.8164 264.536V264.566Z" fill="#151721"/>
<path d="M87.6863 266.409C87.9541 267.301 87.9541 268.193 87.8648 269.055C89.8884 268.014 92.4179 266.141 93.1619 265.844C93.6082 265.666 93.7868 265.16 93.7868 264.595C93.7868 263.763 93.4595 262.811 93.1619 262.365C92.775 261.801 88.9659 262.782 87.3887 263.198C87.3887 264.447 87.4184 265.666 87.6565 266.409H87.6863Z" fill="#151721"/>
<path d="M107.566 141.925C107.12 137.733 100.513 136.008 100.513 136.008L94.3532 136.395C95.0972 152.479 96.853 190.595 96.6149 197.611C96.3768 204.717 94.3235 246.222 93.4902 265.101C95.4543 265.16 99.3527 262.217 99.3527 262.217C99.3527 262.217 107.983 146.117 107.566 141.925Z" fill="#145F9E"/>
<path d="M94.3524 136.425L81.5859 137.198V171.834L85.1868 262.395C85.1868 262.395 91.4063 264.833 93.2811 265.13C93.3406 265.13 93.4299 265.13 93.4894 265.13C94.3227 246.251 96.376 204.747 96.6141 197.641C96.8522 190.624 95.0964 152.509 94.3524 136.425Z" fill="#437FB1"/>
<path d="M56.916 143.59C57.3624 139.398 62.6892 136.038 62.6892 136.038L68.8493 136.425C68.1053 152.509 66.3793 190.624 66.5876 197.641C66.8257 204.747 68.879 246.251 69.7123 265.13C67.7482 265.19 63.8498 262.246 63.8498 262.246C63.8498 262.246 56.4994 147.782 56.9458 143.59H56.916Z" fill="#437FB1"/>
<path d="M68.8501 136.425L81.6166 137.198V171.834L78.0158 262.395C78.0158 262.395 71.7962 264.833 69.9214 265.13C69.8619 265.13 69.7726 265.13 69.7131 265.13C68.8798 246.251 66.8265 204.747 66.5884 197.641C66.3503 190.624 68.1061 152.509 68.8501 136.425Z" fill="#005893"/>
<g style="mix-blend-mode:multiply">
<g style="mix-blend-mode:multiply">
<path d="M81.5865 70.1839C81.5865 70.1839 79.7414 68.8757 77.8666 70.1839C75.9918 71.4921 74.5039 76.2193 74.5039 76.2193C74.5039 76.2193 76.8548 71.9083 80.7532 72.057C84.6516 72.2056 84.3243 71.7597 85.1278 72.2056C85.9313 72.6516 89.0857 76.3977 89.0857 76.3977C89.0857 76.3977 89.8892 68.4595 81.5567 70.1839H81.5865Z" fill="#A2D4DD"/>
</g>
</g>
<path d="M70.4856 67.3595L54.9515 72.0272C54.9515 72.0272 56.4692 93.9093 56.9156 98.8149C57.362 103.721 59.951 115.97 59.3558 124.503C58.7904 133.006 50.3984 158.931 50.3984 158.931C50.3984 158.931 67.8966 166.513 72.0628 164.194C76.2588 161.874 83.4604 144.868 84.0556 132.738C84.621 120.608 82.4784 116.208 82.4784 116.208L70.4856 67.3595Z" fill="#145F9E"/>
<path d="M107.774 98.5176C107.327 103.423 104.738 115.672 105.333 124.205C105.512 126.911 105.839 129.795 106.167 132.441C106.434 134.552 106.702 136.514 106.97 138.179C107.417 141.033 109.678 156.85 109.678 156.85C109.678 156.85 97.4473 163.331 93.2513 161.012C89.0553 158.723 81.2586 144.541 80.6634 132.411C80.098 120.281 82.2406 115.881 82.2406 115.881L94.2334 67.0324L110.809 74.1084C110.809 74.1084 108.25 93.5822 107.803 98.4879L107.774 98.5176Z" fill="#005893"/>
<path d="M85.1562 118.408H82.3887V119.151H85.1562V118.408Z" fill="#005893"/>
<path d="M85.6918 133.065H82.2695V133.927H85.6918V133.065Z" fill="#49002A"/>
<path d="M67.4495 67.8054L73.8773 63.0782C73.8773 63.0782 72.5382 67.4487 73.2822 70.0055C74.0261 72.5624 82.0908 115.375 82.0908 115.375C82.0908 115.375 76.9723 108.775 72.6275 97.9527C68.3125 87.1306 64.4141 74.4355 64.4141 74.4355L68.3125 73.0084L66.1401 71.8488L67.4495 67.8054Z" fill="#437FB1"/>
<path d="M95.7498 67.8054L89.679 62.8998C89.679 62.8998 90.6611 67.4487 89.9171 70.0055C89.1731 72.5624 81.793 117.07 81.793 117.07C81.793 117.07 86.227 108.775 90.542 97.9527C94.8571 87.1306 98.7555 74.4355 98.7555 74.4355L94.8571 73.0084L97.0295 71.8489L95.7201 67.8054H95.7498Z" fill="#437FB1"/>
<path d="M106.97 133.006C105.006 135.295 100.096 137.376 100.096 137.376L97.834 131.638C97.834 131.638 101.405 130.657 104.113 129.141C105.095 128.605 105.75 127.892 106.196 127.238C106.464 129.349 106.732 131.311 107 132.976L106.97 133.006Z" fill="#145F9E"/>
<path d="M57.6294 133.006C59.5934 135.295 64.5036 137.376 64.5036 137.376L66.7653 131.638C66.7653 131.638 63.1943 130.657 60.4862 129.141C59.5042 128.605 58.8495 127.892 58.4031 127.238C58.1353 129.349 57.8674 131.311 57.5996 132.976L57.6294 133.006Z" fill="#145F9E"/>
<path d="M69.5925 41.1961C69.5925 41.1961 67.7475 39.3528 66.8547 40.1555C65.9322 40.9583 66.4976 48.7478 67.6582 50.1154C68.8188 51.4831 70.515 51.3641 70.515 51.3641L69.5925 41.1664V41.1961Z" fill="#F2AD86"/>
<path d="M74.2056 29.4821C74.2056 29.4821 71.6761 29.601 69.6228 34.9823C67.5694 40.3637 69.2657 50.3236 69.2657 50.3236C69.2657 50.3236 69.8311 55.3481 71.8845 58.2915C73.8783 61.1159 75.8721 63.8809 77.6874 64.6837C79.5325 65.4864 81.7346 65.0999 81.7346 65.0999V28.9172L74.1759 29.4821H74.2056Z" fill="#FFC197"/>
<path d="M93.9049 41.1961C93.9049 41.1961 95.75 39.3528 96.6427 40.1555C97.5653 40.9583 96.9999 48.7478 95.8393 50.1154C94.6787 51.4831 92.9824 51.3641 92.9824 51.3641L93.9049 41.1664V41.1961Z" fill="#F2AD86"/>
<path d="M89.3219 29.4821C89.3219 29.4821 91.8514 29.601 93.9048 34.9823C95.9581 40.3637 94.2619 50.3236 94.2619 50.3236C94.2619 50.3236 93.6965 55.3481 91.6431 58.2915C89.6493 61.1159 87.6554 63.8809 85.8402 64.6837C83.9951 65.4864 81.793 65.0999 81.793 65.0999V28.9172L89.3517 29.4821H89.3219Z" fill="#FFC197"/>
<path d="M78.9962 32.1579C78.9962 32.1579 77.8356 35.2797 74.8597 37.5095C71.8839 39.7096 68.5806 42.6232 68.5806 42.6232C68.5806 42.6232 66.8546 38.0446 67.7772 35.7554C68.6997 33.4661 69.6817 29.72 73.5504 28.7983C77.419 27.8766 78.4903 29.0361 78.4903 29.0361L79.026 32.1579H78.9962Z" fill="#843418"/>
<path d="M77.2115 30.8795C77.2115 30.8795 76.408 34.4769 80.9313 35.904C85.4546 37.3608 90.3946 37.7473 92.1504 39.888C93.9061 42.0286 94.0549 44.526 94.0549 44.526C94.0549 44.526 96.4356 40.1853 94.293 34.8337C92.1504 29.4821 88.1627 27.4901 85.901 27.1333C80.5444 26.3009 77.8066 28.6794 77.8066 28.6794L77.2412 30.8795H77.2115Z" fill="#8C3C19"/>
<path d="M51.3208 97.7446L60.2186 136.692C60.2186 136.692 78.431 137.971 80.1273 137.971C81.8235 137.971 73.7589 100.718 73.7589 100.718L51.291 97.7446H51.3208Z" fill="#8C3C19"/>
<path d="M69.0286 129.17C69.0286 129.17 77.361 132.768 79.4739 131.073C81.5868 129.378 79.8905 127.416 79.8905 127.416C79.8905 127.416 81.7356 125.87 80.6047 123.759C79.9203 122.481 81.3785 120.608 81.0214 119.746C80.4559 118.348 79.4739 116.683 79.4739 116.683C79.4739 116.683 75.3672 115.554 73.2543 116.386C71.1415 117.218 64.9219 120.489 64.9219 120.489L69.0286 129.17Z" fill="#FFC197"/>
<path d="M49.1786 112.491C49.1786 112.491 43.4054 113.799 44.7445 117.545C46.0836 121.321 46.5003 123.313 54.6542 126.703C62.8081 130.092 68.9979 129.141 68.9979 129.141L67.8671 118.408L49.1786 112.461V112.491Z" fill="#145F9E"/>
<path d="M251.003 55.4076L250.289 64.1188C250.289 64.1188 254.158 71.7002 257.58 70.4217C261.002 69.1433 266.031 65.9918 266.031 65.9918L264.186 55.14L251.033 55.4373L251.003 55.4076Z" fill="#F2AD86"/>
<path d="M272.728 68.4892H246.957V115.256H272.728V68.4892Z" fill="#EAEDF4"/>
<path d="M263.295 97.0608L260.349 71.8488L258.652 72.4137V114.632L263.295 97.0608Z" fill="#005893"/>
<path d="M253.98 97.0608L256.927 71.8488L258.653 72.4137V114.632L253.98 97.0608Z" fill="#005893"/>
<path d="M254.545 68.2811L257.074 73.2462H258.652V68.1622L254.545 68.2811Z" fill="#145F9E"/>
<path d="M262.729 68.2811L260.2 73.2462H258.652V68.1622L262.729 68.2811Z" fill="#145F9E"/>
<path d="M265.288 73.2462C265.288 73.2462 267.728 65.9621 267.579 64.8026C267.43 63.6728 266.002 60.9078 266.002 60.9078C266.002 60.9078 265.853 62.6619 262.401 64.9512C258.979 67.2405 257.818 68.519 257.818 68.519C257.818 68.519 259.574 68.4 261.687 69.7974L265.258 73.2165L265.288 73.2462Z" fill="#F3F6FF"/>
<path d="M258.474 68.5487C258.474 68.5487 256.599 68.2514 254.605 69.8271C252.612 71.4029 251.034 73.2462 251.034 73.2462C251.034 73.2462 248.594 65.9621 248.743 64.8026C248.892 63.6728 250.35 61.0565 250.35 61.0565C250.35 61.0565 250.469 62.6619 253.891 64.9215C257.313 67.2108 258.474 68.4892 258.474 68.4892V68.5487Z" fill="#F3F6FF"/>
<path d="M272.906 37.8365C272.906 46.5774 266.24 53.6534 257.997 53.6534C249.754 53.6534 243.088 46.5774 243.088 37.8365C243.088 29.0956 246.957 22.3466 257.997 22.0196C266.21 21.7817 272.906 29.0956 272.906 37.8365Z" fill="#FFE7B0"/>
<path d="M233.148 70.2434C233.148 70.2434 229.547 67.1513 227.286 74.1679C225.054 81.1547 219.429 116.713 223.357 118.675C227.286 120.638 234.577 112.878 234.577 112.878L239.338 99.3798L233.148 70.2731V70.2434Z" fill="#005893"/>
<path d="M284.869 149.179C284.869 149.179 282.042 152.42 282.34 156.612C282.637 160.804 283.173 162.766 283.173 162.766L282.935 164.729C282.935 164.729 284.482 164.729 285.465 162.499C286.447 160.269 286.149 157.177 286.149 157.177C286.149 157.177 287.012 160.269 287.012 161.666C287.012 163.064 285.465 167.137 285.465 167.553C285.465 167.969 283.649 168.386 282.816 169.367C281.983 170.348 281.834 172.161 281.834 172.161L287.012 169.932L290.791 162.529V152.033L285.048 148.823L284.899 149.239L284.869 149.179Z" fill="#FFC197"/>
<path d="M284.036 77.4085C284.036 77.4085 285.762 71.5218 286.952 72.0867C288.142 72.6218 292.695 78.1815 293.975 87.4873C295.523 98.696 296.594 111.748 296.921 119.389C297.516 133.214 291.237 155.661 290.761 153.966L283.351 150.874C283.351 150.874 285.881 131.697 285.94 121.202C285.97 110.707 281.953 110.41 282.25 98.8149C282.518 87.19 284.065 77.4085 284.065 77.4085H284.036Z" fill="#005893"/>
<path d="M240.409 268.906C240.409 268.906 238.415 270.333 238.534 271.047C238.683 271.76 239.606 274.763 243.326 275.179C247.075 275.596 250.111 274.882 251.39 274.05C252.67 273.187 254.396 270.631 252.104 268.609L240.379 268.906H240.409Z" fill="#151721"/>
<path d="M253.115 268.044C253.115 269.471 254.276 272.771 249.276 273.336C244.247 273.901 239.396 273.039 239.396 270.066C239.396 268.966 239.545 267.39 239.754 265.814C240.081 263.109 240.557 260.492 240.557 260.492L241.093 259.333L243.265 254.784L252.55 255.081L252.966 255.23C252.966 255.23 253.205 257.4 253.234 259.481C253.234 260.7 253.205 261.919 252.966 262.663C252.699 263.555 252.699 264.447 252.788 265.279C252.877 266.349 253.086 267.301 253.115 268.103V268.044Z" fill="#005893"/>
<path d="M246.926 260.79C246.926 261.384 246.777 261.86 246.331 262.038C245.408 262.395 241.748 265.16 239.754 265.784C240.081 263.079 240.557 260.463 240.557 260.463L241.093 259.303C242.819 258.857 245.973 258.084 246.331 258.619C246.628 259.036 246.926 259.987 246.926 260.819V260.79Z" fill="#151721"/>
<path d="M252.998 262.603C252.73 263.495 252.73 264.387 252.82 265.22C250.826 264.179 248.296 262.336 247.552 262.038C247.106 261.86 246.957 261.384 246.957 260.79C246.957 259.957 247.284 259.006 247.552 258.59C247.939 258.025 251.718 259.006 253.266 259.422C253.266 260.641 253.236 261.86 252.998 262.603Z" fill="#151721"/>
<path d="M276.627 268.906C276.627 268.906 278.621 270.333 278.502 271.047C278.353 271.76 277.43 274.763 273.711 275.179C269.961 275.596 266.926 274.882 265.646 274.05C264.366 273.187 262.64 270.631 264.932 268.609L276.657 268.906H276.627Z" fill="#151721"/>
<path d="M263.92 268.044C263.92 269.471 262.759 272.771 267.759 273.336C272.758 273.901 277.639 273.039 277.639 270.066C277.639 268.966 277.49 267.39 277.281 265.814C276.954 263.109 276.478 260.492 276.478 260.492L275.942 259.333L273.77 254.784L264.485 255.081L264.069 255.23C264.069 255.23 263.831 257.4 263.801 259.481C263.801 260.7 263.831 261.919 264.069 262.663C264.336 263.555 264.336 264.447 264.247 265.279C264.158 266.349 263.95 267.301 263.92 268.103V268.044Z" fill="#005893"/>
<path d="M270.109 260.79C270.109 261.384 270.258 261.86 270.705 262.038C271.627 262.395 275.287 265.16 277.281 265.784C276.954 263.079 276.478 260.463 276.478 260.463L275.942 259.303C274.216 258.857 271.062 258.084 270.705 258.619C270.407 259.036 270.109 259.987 270.109 260.819V260.79Z" fill="#151721"/>
<path d="M264.039 262.603C264.307 263.495 264.307 264.387 264.218 265.22C266.212 264.179 268.741 262.336 269.485 262.038C269.932 261.86 270.08 261.384 270.08 260.79C270.08 259.957 269.753 259.006 269.485 258.59C269.098 258.025 265.319 259.006 263.771 259.422C263.771 260.641 263.801 261.86 264.039 262.603Z" fill="#151721"/>
<path d="M283.738 139.249C283.321 135.116 276.745 133.392 276.745 133.392L270.644 133.779C271.388 149.714 273.114 187.473 272.876 194.43C272.638 201.476 270.614 242.594 269.781 261.325C271.716 261.384 275.584 258.471 275.584 258.471C275.584 258.471 284.125 143.411 283.708 139.249H283.738Z" fill="#145F9E"/>
<path d="M270.644 133.779L257.996 134.522V168.832L261.567 258.59C261.567 258.59 267.727 261.027 269.572 261.295C269.632 261.295 269.721 261.295 269.781 261.295C270.614 242.594 272.637 201.446 272.875 194.4C273.114 187.443 271.388 149.685 270.644 133.749V133.779Z" fill="#437FB1"/>
<path d="M233.535 140.884C233.952 136.752 239.249 133.392 239.249 133.392L245.349 133.779C244.605 149.714 242.879 187.473 243.117 194.43C243.356 201.476 245.379 242.594 246.212 261.325C244.278 261.384 240.409 258.471 240.409 258.471C240.409 258.471 233.119 145.047 233.565 140.884H233.535Z" fill="#437FB1"/>
<path d="M245.35 133.779L257.997 134.522V168.832L254.426 258.59C254.426 258.59 248.266 261.027 246.421 261.295C246.362 261.295 246.272 261.295 246.213 261.295C245.38 242.594 243.356 201.446 243.118 194.4C242.88 187.443 244.606 149.685 245.35 133.749V133.779Z" fill="#005893"/>
<g style="mix-blend-mode:multiply">
<g style="mix-blend-mode:multiply">
<path d="M257.998 68.1325C257.998 68.1325 256.182 66.854 254.308 68.1325C252.433 69.4109 250.975 74.1084 250.975 74.1084C250.975 74.1084 253.296 69.8271 257.164 69.9758C261.033 70.1244 260.706 69.6785 261.509 70.1244C262.313 70.5407 265.437 74.2571 265.437 74.2571C265.437 74.2571 266.241 66.4081 257.998 68.1027V68.1325Z" fill="#A2D4DD"/>
</g>
</g>
<path d="M246.987 65.3377L231.601 69.9758C231.601 69.9758 233.119 91.6497 233.536 96.4959C233.952 101.372 236.541 113.502 235.976 121.946C235.411 130.389 227.078 156.047 227.078 156.047C227.078 156.047 244.398 163.539 248.564 161.25C252.7 158.961 259.872 142.103 260.438 130.092C261.003 118.081 258.86 113.71 258.86 113.71L246.987 65.308V65.3377Z" fill="#145F9E"/>
<path d="M283.948 96.2283C283.531 101.074 280.942 113.234 281.507 121.678C281.686 124.354 281.984 127.208 282.341 129.854C282.608 131.935 282.876 133.898 283.144 135.562C283.561 138.387 285.822 154.055 285.822 154.055C285.822 154.055 273.681 160.477 269.544 158.188C265.408 155.899 257.641 141.865 257.075 129.854C256.51 117.843 258.653 113.472 258.653 113.472L270.526 65.0702L286.953 72.0867C286.953 72.0867 284.394 91.3821 283.977 96.258L283.948 96.2283Z" fill="#005893"/>
<path d="M261.539 115.91H258.801V116.654H261.539V115.91Z" fill="#0E131C"/>
<path d="M262.074 130.449H258.682V131.311H262.074V130.449Z" fill="#0E131C"/>
<path d="M243.98 65.7837L250.349 61.0862C250.349 61.0862 249.009 65.4269 249.753 67.9541C250.497 70.4812 258.503 112.937 258.503 112.937C258.503 112.937 253.414 106.396 249.129 95.6634C244.843 84.9305 240.975 72.3543 240.975 72.3543L244.843 70.9272L242.701 69.7676L243.98 65.754V65.7837Z" fill="#437FB1"/>
<path d="M272.044 65.7837L266.033 60.9078C266.033 60.9078 267.015 65.4269 266.271 67.9243C265.527 70.4515 258.236 114.572 258.236 114.572C258.236 114.572 262.611 106.367 266.896 95.6337C271.181 84.9008 275.05 72.3245 275.05 72.3245L271.181 70.8974L273.324 69.7379L272.044 65.7242V65.7837Z" fill="#437FB1"/>
<path d="M283.143 130.419C281.208 132.708 276.328 134.76 276.328 134.76L274.066 129.081C274.066 129.081 277.608 128.13 280.286 126.613C281.268 126.078 281.923 125.394 282.339 124.74C282.607 126.822 282.875 128.784 283.143 130.449V130.419Z" fill="#145F9E"/>
<path d="M234.279 130.419C236.214 132.708 241.094 134.76 241.094 134.76L243.356 129.081C243.356 129.081 239.814 128.13 237.136 126.613C236.154 126.078 235.499 125.394 235.083 124.74C234.815 126.822 234.547 128.784 234.279 130.449V130.419Z" fill="#145F9E"/>
<path d="M246.125 39.4123C246.125 39.4123 244.309 37.5987 243.387 38.4014C242.464 39.2041 243.059 46.9045 244.19 48.2721C245.321 49.6397 247.017 49.5208 247.017 49.5208L246.095 39.4123H246.125Z" fill="#F2AD86"/>
<path d="M250.678 27.8171C250.678 27.8171 248.178 27.9361 246.125 33.2579C244.072 38.5798 245.798 48.4505 245.798 48.4505C245.798 48.4505 246.363 53.4453 248.387 56.3292C250.351 59.1239 252.345 61.8592 254.16 62.6619C255.975 63.4647 258.177 63.0782 258.177 63.0782V27.2523L250.678 27.8171Z" fill="#FFC197"/>
<path d="M270.199 39.4123C270.199 39.4123 272.015 37.5987 272.937 38.4014C273.86 39.2041 273.265 46.9045 272.134 48.2721C271.003 49.6397 269.307 49.5208 269.307 49.5208L270.229 39.4123H270.199Z" fill="#F2AD86"/>
<path d="M265.677 27.8171C265.677 27.8171 268.177 27.9361 270.23 33.2579C272.283 38.5798 270.557 48.4505 270.557 48.4505C270.557 48.4505 269.992 53.4453 267.968 56.3292C266.004 59.1239 264.01 61.8592 262.195 62.6619C260.38 63.4647 258.178 63.0782 258.178 63.0782V27.2523L265.677 27.8171Z" fill="#FFC197"/>
<path d="M233.863 146.028C233.863 146.028 236.69 149.268 236.393 153.461C236.095 157.653 235.56 159.615 235.56 159.615L235.798 161.577C235.798 161.577 234.25 161.577 233.268 159.347C232.286 157.117 232.584 154.025 232.584 154.025C232.584 154.025 231.721 157.117 231.721 158.515C231.721 159.912 233.268 163.985 233.268 164.402C233.268 164.818 235.084 165.234 235.917 166.215C236.75 167.196 236.899 169.01 236.899 169.01L231.721 166.78L227.941 159.377V148.882L233.685 145.671L233.834 146.087L233.863 146.028Z" fill="#FFC197"/>
<path d="M234.726 74.2273C234.726 74.2273 233 68.3406 231.81 68.9055C230.619 69.4406 226.066 75.0003 224.787 84.3061C223.239 95.5147 222.168 108.567 221.841 116.208C221.245 130.032 227.524 152.479 228.001 150.785L235.411 147.693C235.411 147.693 232.881 128.516 232.822 118.021C232.792 107.526 236.809 107.229 236.512 95.6337C236.244 84.0088 234.696 74.2273 234.696 74.2273H234.726Z" fill="#005893"/>
<path d="M284.869 149.179C284.869 149.179 282.042 152.42 282.34 156.612C282.637 160.804 283.173 162.766 283.173 162.766L282.935 164.729C282.935 164.729 284.482 164.729 285.465 162.499C286.447 160.269 286.149 157.177 286.149 157.177C286.149 157.177 287.012 160.269 287.012 161.666C287.012 163.064 285.465 167.137 285.465 167.553C285.465 167.969 283.649 168.386 282.816 169.367C281.983 170.348 281.834 172.161 281.834 172.161L287.012 169.932L290.791 162.529V152.033L285.048 148.823L284.899 149.239L284.869 149.179Z" fill="#FFC197"/>
<path d="M284.036 77.4085C284.036 77.4085 285.762 71.5218 286.952 72.0867C288.142 72.6218 292.695 78.1815 293.975 87.4873C295.523 98.696 296.594 111.748 296.921 119.389C297.516 133.214 291.237 155.661 290.761 153.966L283.351 150.874C283.351 150.874 285.881 131.697 285.94 121.202C285.97 110.707 281.953 110.41 282.25 98.8149C282.518 87.19 284.065 77.4085 284.065 77.4085H284.036Z" fill="#005893"/>
<path d="M249.754 26.8657C249.754 26.8657 256.509 34.239 260.437 35.5175C264.336 36.7959 271.418 37.2419 271.418 37.2419C271.418 37.2419 271.121 17.6194 249.784 26.8657H249.754Z" fill="#FFEFCF"/>
<path d="M241.985 223.091C238.979 214.082 236.956 211.139 236.628 210.068C236.301 208.968 235.349 201.565 235.349 201.565L221.303 202.903C221.452 205.193 222.344 216.877 223.802 218.363C225.38 220.028 226.659 219.85 227.79 225.737C228.921 231.623 231.242 262.574 231.242 262.574C231.242 262.574 229.338 270.75 228.713 277.409C228.296 281.928 227.939 284.277 227.612 285.645C230.439 285.883 236.212 286.21 237.432 284.902C239.069 283.177 237.105 275.239 238.712 271.255C239.188 270.066 239.515 269.055 239.694 268.252C239.545 267.717 239.426 267.152 239.307 266.557C238.801 264.001 245.02 232.069 242.015 223.061L241.985 223.091Z" fill="#F2AD86"/>
<path d="M223.804 266.795C223.625 266.201 223.477 265.844 223.477 265.844C223.477 265.844 220.917 263.317 219.995 260.582C219.072 257.817 222.733 235.786 222.733 231.861C222.733 227.937 219.608 215.598 219.608 215.598L222.733 199.544H206.99C206.99 199.544 211.008 269.768 211.008 269.947L209.371 283.207C209.371 283.207 209.044 284.247 208.21 285.258L216.692 271.255C216.692 271.255 223.03 270.036 223.804 266.795Z" fill="#F2AD86"/>
<path d="M214.875 34.9229C209.727 37.0932 206.096 44.972 206.989 54.0994C207.881 63.2268 210.084 73.2759 209.31 75.0301C208.536 76.7842 218.981 85.5251 221.332 86.863C223.683 88.2009 236.123 78.7464 236.123 78.7464C236.123 78.7464 240.676 73.9003 238.622 67.9838C236.599 62.0673 240.259 60.997 241.271 55.0508C242.283 49.1046 236.747 25.7062 214.905 34.8931L214.875 34.9229Z" fill="#A53D04"/>
<path d="M203.745 284.485L201.186 285.853V286.745H211.601C212.613 286.745 213.476 286.091 213.774 285.11C214.696 281.988 216.69 275.536 217.702 275.12C219.041 274.585 220.678 274.347 220.678 274.347V287.072H224.368C224.368 287.072 225.856 274.763 225.796 273.455C225.737 272.147 225.707 271.671 224.933 270.69C224.159 269.709 214.875 273.306 214.875 273.306L203.745 284.515V284.485Z" fill="#0F0F11"/>
<path d="M209.281 270.036C209.281 270.036 208.447 278.42 207.138 279.253C205.799 280.085 201.395 282.612 201.186 283.534C200.978 284.485 201.186 285.823 201.186 285.823C201.186 285.823 211.661 286.031 212.167 285.288C212.673 284.545 215.976 274.288 217.613 273.336C219.25 272.385 223.773 272.087 223.773 272.087L225.321 271.671C225.321 271.671 225.231 267.598 223.684 265.695C222.137 263.792 209.31 269.977 209.31 269.977L209.281 270.036Z" fill="#1D1F2D"/>
<path d="M227.226 283.237C227.226 283.237 226.869 284.337 227.077 285.288C227.285 286.239 227.226 287.012 228.982 287.34C230.737 287.667 237.046 287.458 237.046 287.458C237.046 287.458 240.677 285.585 238.445 280.799C236.183 276.042 227.256 283.266 227.256 283.266L227.226 283.237Z" fill="#0F0F11"/>
<path d="M228.981 275.269C228.981 275.269 226.719 280.085 226.928 283.118C227.136 286.15 230.171 285.734 231.391 285.675C232.612 285.615 237.611 285.942 238.266 285.11C238.92 284.277 239.605 282.374 238.534 278.569C237.462 274.734 228.981 275.269 228.981 275.269Z" fill="#282A39"/>
<path d="M229.01 167.999L239.128 215.063L229.278 224.28C229.278 224.28 216.184 226.123 210.709 224.22C205.233 222.318 203.924 220.088 203.924 220.088L204.995 157.92L210.203 137.911C210.203 137.911 226.302 148.079 228.088 154.828C229.873 161.577 229.01 167.999 229.01 167.999Z" fill="#022D51"/>
<path d="M246.033 208.493C246.3 199.841 250.139 169.129 248.205 162.707C246.3 156.285 241.628 146.147 241.628 146.147L223.803 151.944C226.57 165.65 229.13 200.673 229.397 206.055C229.695 211.912 230.231 210.247 229.278 224.31C232.522 225.112 247.193 224.31 247.193 224.31C247.193 224.31 245.765 217.174 246.033 208.493Z" fill="#02223D"/>
<path d="M215.113 67.2703C215.113 67.2703 219.071 72.4137 219.101 75.5355C219.101 78.687 219.934 81.7195 219.934 81.7195C219.934 81.7195 220.559 85.4954 222.613 84.0088C224.666 82.5223 231.838 72.711 231.838 72.711L223.981 61.9484L215.113 67.2703Z" fill="#F2AD86"/>
<path d="M220.053 84.0088L219.101 78.0329C219.101 78.0329 216.155 81.006 214.488 84.3359C212.851 87.6658 208.655 100.45 208.328 107.467C208.03 114.483 209.251 115.108 209.251 115.108L220.023 84.0088H220.053Z" fill="#D1D7E5"/>
<path d="M229.279 71.9678L234.189 75.8328C234.189 75.8328 226.094 84.6332 222.702 90.9064C219.309 97.1797 208.686 116.237 208.686 116.237L220.024 79.9951L229.249 71.938L229.279 71.9678Z" fill="#EAEDF4"/>
<path d="M220.053 80.0249C220.053 80.0249 227.433 72.8894 228.475 71.3434C229.487 69.7677 230.022 69.0541 230.022 69.0541L232.492 73.7516L220.589 85.7035C220.589 85.7035 219.547 85.2278 220.083 80.0546L220.053 80.0249Z" fill="#F3F6FF"/>
<path d="M216.66 80.56L218.059 85.9413L220.053 80.4708L219.011 74.703L216.66 80.56Z" fill="#F3F6FF"/>
<path d="M223.326 106.337C224.16 102.353 237.997 91.6794 241.271 85.7035C241.955 84.4845 242.283 83.2358 242.372 82.0466L232.671 72.711L229.516 76.7247L211.631 110.529C209.102 135.176 214.756 130.776 212.167 136.93C211.155 139.338 211.75 155.453 213.387 157.147C214.28 158.039 226.272 160.923 232.849 160.655C232.403 151.647 231.123 133.779 227.939 128.992C223.624 122.511 222.493 110.351 223.297 106.367L223.326 106.337Z" fill="#1D1F2D"/>
<path d="M238.919 128.011C238.294 125.276 241.27 114.186 241.27 114.186L243.829 83.4737L242.371 82.0466C242.282 83.2358 241.955 84.4548 241.27 85.7035C237.997 91.6794 224.129 102.353 223.326 106.337C222.492 110.321 223.653 122.451 227.968 128.962C231.152 133.749 232.432 151.617 232.878 160.626C238.503 160.418 243.562 160.061 243.562 160.061C243.562 160.061 245.615 150.428 245.317 145.82C245.02 141.211 239.574 130.746 238.949 128.011H238.919Z" fill="#151721"/>
<path d="M228.445 75.9517L232.641 71.4623L236.539 74.9111L231.927 83.4737L228.951 84.2467L229.873 85.4062L211.602 110.529C211.602 110.529 217.97 93.2552 221.868 86.863C225.767 80.4708 228.445 75.9815 228.445 75.9815V75.9517Z" fill="#262837"/>
<path d="M218.178 76.7842C218.178 76.7842 212.256 90.8172 211.631 96.0499C211.006 101.283 211.839 110.915 211.839 113.116C211.839 119.329 215.767 128.278 212.553 138.773C209.488 148.823 206.929 157.95 206.929 157.95H202.941C202.941 157.95 204.548 139.665 207.524 132.322C210.5 124.978 203.626 105.356 204.34 102.234C205.054 99.0825 208 92.4822 208.328 90.074C208.655 87.6657 210.203 78.9843 210.203 78.9843L218.178 76.7842Z" fill="#1D1F2D"/>
<path d="M218.714 75.0003L213.179 80.56L214.726 81.1844L212.375 82.7601C212.375 82.7601 208.179 92.9282 208.775 96.258C209.4 99.6177 211.84 113.116 211.84 113.116C211.84 113.116 211.215 98.6663 212.256 95.7229C213.268 92.7795 218.714 75.0003 218.714 75.0003Z" fill="#262837"/>
<path d="M241.807 168.98L236.748 176.77L236.837 182.062L237.968 184.708C237.968 184.708 239.337 183.162 239.278 182.062C239.218 180.932 239.278 178.018 239.278 178.018H240.557C240.557 178.018 239.039 184.857 240.289 184.857C241.539 184.857 242.253 184.024 242.253 184.024C242.253 184.024 241.837 185.005 243.176 184.589C244.545 184.173 244.545 183.905 244.545 183.905C244.545 183.905 244.813 184.321 245.914 184.173C247.015 184.024 247.134 183.489 247.134 183.489C247.134 183.489 247.134 184.619 247.967 184.054C248.8 183.489 250.556 179.594 250.556 179.594L249.604 169.337L241.807 169.04V168.98Z" fill="#FFC197"/>
<path d="M241.807 166.572L241.271 169.367L250.705 171.032V167.821L241.807 166.572Z" fill="white"/>
<path d="M241.806 129.854C241.806 129.854 234.307 111.451 235.319 104.939C236.33 98.4581 240.645 83.325 243.83 83.4439C247.014 83.5629 248.026 87.9631 248.026 91.947C248.026 95.931 254.424 132.322 254.84 135.652C255.257 139.011 251.239 169.932 251.239 169.932L240.586 167.523L241.806 129.824V129.854Z" fill="#262837"/>
<path d="M213.12 40.0366C211.841 40.8691 210.085 49.283 210.085 49.283C210.085 49.283 208.895 55.7346 209.192 56.7752C209.49 57.8158 211.305 62.8701 211.305 62.8701C211.305 62.8701 212.734 70.0055 214.698 70.7785C216.662 71.5515 227.524 65.0702 228.03 63.1079C228.535 61.1457 229.071 59.1834 229.071 59.1834C229.071 59.1834 229.756 60.7889 231.095 59.451C232.434 58.1131 236.303 49.0154 233.922 49.4316C231.571 49.8776 229.815 52.4345 229.815 52.4345C229.815 52.4345 225.53 42.1178 221.75 41.3745C217.971 40.6015 213.12 40.0069 213.12 40.0069V40.0366Z" fill="#FFC197"/>
<path d="M209.846 50.8884L209.191 50.2938C209.191 50.2938 208.983 50.7101 208.775 50.6803C208.537 50.6506 208.18 50.4425 208.18 50.4425C208.18 50.4425 208.537 50.9776 208.805 51.0371C209.072 51.0966 209.846 50.9479 209.846 50.9479V50.8884Z" fill="#8C3C19"/>
<path d="M209.28 50.3533L209.013 49.8478C209.013 49.8478 208.775 50.056 208.655 49.9668C208.507 49.8776 208.328 49.6695 208.328 49.6695C208.328 49.6695 208.417 50.0857 208.566 50.1749C208.715 50.2641 209.251 50.383 209.251 50.383H209.28V50.3533Z" fill="#8C3C19"/>
<path d="M134.588 57.1617C134.588 57.1617 135.451 56.8347 136.909 51.3939C139.26 42.6232 138.367 32.8417 124.618 32.8417C110.423 32.8417 109.174 42.8016 108.132 46.964C107.09 51.1263 113.34 60.0753 114.977 62.7511C116.613 65.4269 120.155 64.9512 120.869 63.9107L134.588 57.2212V57.1617Z" fill="#4A2C11"/>
<path d="M113.459 79.0438L127.981 79.2519L135.897 78.4492L139.974 106.872L142.593 182.746L117.685 184.648L113.459 79.0438Z" fill="#C0F0FF"/>
<path d="M139.289 264.417C139.289 264.417 135.986 272.563 136.551 275.358C137.087 278.153 143.902 278.926 144.348 278.272C144.795 277.588 146.729 266.112 146.729 266.112L139.319 264.417H139.289Z" fill="#20262D"/>
<path d="M137.354 149.685H137.176C132.563 149.685 128.605 152.896 127.653 157.385L123.338 177.543L123.635 178.137L128.873 218.542C128.903 218.839 128.962 219.136 129.022 219.434C129.617 222.05 132.593 235.548 132.593 240.989C132.593 244.646 133.486 254.368 134.17 261.503C134.646 266.32 138.574 270.036 143.395 270.274C144.496 270.333 145.538 270.363 146.371 270.333C150.031 270.274 151.579 270.333 151.579 270.333L147.859 221.664C147.859 221.456 147.859 221.247 147.859 221.039L147.056 159.318C146.996 153.996 142.651 149.714 137.325 149.714L137.354 149.685Z" fill="#151721"/>
<g style="mix-blend-mode:multiply">
<path d="M129.261 81.3033L120.75 84.3953C120.75 84.3953 126.672 79.133 128.249 79.1924C129.826 79.2519 130.035 79.0438 130.392 78.9843C130.749 78.9248 136.849 83.1169 136.849 83.1169C136.849 83.1169 133.546 80.3817 129.291 81.3033H129.261Z" fill="#C0F0FF"/>
</g>
<path d="M116.315 282.137L114.679 283.177C114.679 283.177 114.173 285.585 114.976 286.239C115.809 286.864 115.601 287.488 122.089 287.488C128.576 287.488 128.695 287.161 128.903 286.745C129.112 286.329 129.707 284.842 128.903 283.802C128.07 282.761 116.345 282.107 116.345 282.107L116.315 282.137Z" fill="#273442"/>
<path d="M131.938 179.416C131.938 179.416 134.527 154.174 132.504 150.815C131.433 149.031 124.648 148.585 118.488 148.555C117.595 161.607 113.875 217.888 115.333 227.55C116.613 235.816 118.636 260.819 119.559 272.623C120.333 272.504 121.077 272.444 121.731 272.504C124.618 272.771 128.367 272.979 128.367 272.979C128.367 272.979 126.612 232.694 127.534 226.242C128.457 219.791 131.909 179.416 131.909 179.416H131.938Z" fill="#1D1F2D"/>
<path d="M118.487 148.555C113.011 148.555 108.041 148.852 108.041 148.852C108.041 148.852 104.887 167.761 104.917 168.148C105.214 171.388 103.786 187.681 105.661 198.236C107.744 210.009 108.041 228.056 108.041 234.507C108.041 240.959 113.874 274.258 113.874 274.258C113.874 274.258 116.85 273.069 119.558 272.682C118.636 260.879 116.612 235.845 115.332 227.61C113.844 217.947 117.564 161.666 118.487 148.614V148.555Z" fill="#262837"/>
<path d="M119.708 63.7025L118.369 71.4921C118.369 71.4921 125.481 80.1141 127.951 79.6978C130.421 79.2816 132.891 75.7139 132.891 75.7139L133.189 64.3566L119.708 63.7323V63.7025Z" fill="#F2AD86"/>
<path d="M118.786 69.0541C118.786 69.0541 119.708 73.8111 121.97 75.1787C124.232 76.5464 129.499 79.0735 129.499 79.0735L119.619 84.544L116.732 70.7785L118.816 69.0839L118.786 69.0541Z" fill="#F3F3F3"/>
<path d="M132.801 71.2245L134.14 74.2273L135.896 83.4737L129.498 79.0735C129.498 79.0735 132.385 75.7139 132.385 74.8517C132.385 73.9895 132.682 71.4921 132.682 71.4921L132.772 71.2542L132.801 71.2245Z" fill="#F3F3F3"/>
<path d="M135.897 127.446L135.808 128.1L136.82 153.698C136.82 153.698 129.499 172.578 126.731 174.57C123.964 176.562 98.4902 174.57 98.4902 174.57L99.9187 162.796C99.9187 162.796 103.311 149.655 104.978 142.817C106.614 135.979 103.43 118.943 103.43 118.943L98.9069 82.3439L110.929 74.5544L116.732 70.7785C116.732 70.7785 123.636 90.7578 125.392 93.166C127.148 95.604 135.897 127.476 135.897 127.476V127.446Z" fill="#022D51"/>
<path d="M118.607 148.823V156.404L105.513 154.144L105.037 146.682L118.607 148.823Z" fill="#0D1623"/>
<path d="M118.874 148.882L117.773 155.571L104.709 153.312L104.232 145.849L118.874 148.882Z" fill="#02223D"/>
<path d="M135.896 127.446L135.807 128.1C132.563 119.627 110.839 79.6087 110.839 79.6087L114.023 77.3788L110.006 76.6653L110.899 74.5544L116.702 70.7785C116.702 70.7785 123.606 90.7578 125.361 93.166C127.117 95.604 135.866 127.476 135.866 127.476L135.896 127.446Z" fill="#355774"/>
<path d="M118.458 269.828C118.458 269.828 116.494 275.715 116.196 277.499C115.899 279.282 114.143 281.928 115.155 283.296C116.196 284.664 121.642 284.783 123.695 284.664C125.749 284.545 129.052 284.664 128.844 283.831C128.635 282.999 128.13 277.112 128.13 277.112V272.682C127.088 271.314 126.076 269.114 126.076 269.114L118.458 269.858V269.828Z" fill="#02223D"/>
<path d="M149.376 285.08C146.906 284.961 144.108 283.504 143.811 283.504C143.513 283.504 141.43 282.553 139.585 282.761C138.246 282.91 136.222 282.464 135.121 282.018C135.181 283.445 135.329 284.664 135.567 284.812C136.073 285.08 142.174 285.08 143.692 285.615C145.239 286.15 148.334 287.607 150.179 287.518C152.024 287.399 164.82 287.518 164.82 287.518C164.82 287.518 164.999 286.18 165.088 285.11C161.606 285.11 151.399 285.199 149.376 285.11V285.08Z" fill="#273442"/>
<path d="M139.586 282.761C141.431 282.553 143.514 283.504 143.812 283.504C144.109 283.504 146.936 284.723 149.376 285.08C150.716 285.288 161.429 285.139 165.089 285.08C165.149 284.515 165.178 283.98 165.119 283.802C165.03 283.266 157.501 280.115 156.459 279.163C155.417 278.212 149.674 269.59 149.674 269.59L145.359 269.917C145.359 269.917 138.663 276.339 138.366 276.012C138.068 275.685 137.235 271.374 137.235 271.374C137.235 271.374 135.062 276.517 135.062 278.004C135.062 278.777 135.063 280.472 135.122 282.018C136.223 282.434 138.247 282.91 139.586 282.761Z" fill="#02223D"/>
<path d="M149.793 169.723C149.793 169.723 148.93 173.916 145.627 171.715C143.96 170.586 137.116 166.185 133.247 155.571C129.468 145.225 132.057 128.695 132.057 128.695L132.562 124.681L136.699 92.0957L134.318 74.1084L140.33 77.022L145.002 82.5817C145.002 82.5817 147.293 98.9338 144.615 110.41C141.936 121.886 143.365 127.446 143.603 127.981C143.811 128.516 149.823 169.753 149.823 169.753L149.793 169.723Z" fill="#02223D"/>
<path d="M97.8652 163.183L98.5794 172.667L102.686 176.71L106.317 177.989L104.055 167.464L97.8652 163.183Z" fill="#F2AF81"/>
<path d="M132.563 124.681L136.699 92.0957L134.319 74.1084L140.33 77.022L142.651 82.8493L139.973 81.8979L144.288 86.4171C143.217 86.0603 136.104 112.58 132.533 124.681H132.563Z" fill="#355774"/>
<path d="M98.877 163.569L104.561 161.131C104.561 161.131 107.09 164.283 107.864 165.888C108.638 167.494 108.965 170.199 109.293 170.972C109.62 171.745 111.495 174.926 110.334 175.105C109.173 175.253 107.031 173.559 107.12 171.359C107.209 169.159 106.138 169.515 106.138 169.515V173.529L107.388 177.186L108.549 178.405C108.549 178.405 110.275 179.029 110.661 180.01C111.048 180.992 110.572 181.408 110.572 181.408L107.953 180.189L104.829 177.483L100.722 172.667L98.877 163.599V163.569Z" fill="#FFC197"/>
<path d="M105.542 159.526L105.155 159.199L95.4238 160.626L98.0724 165.056C98.0724 165.056 100.453 164.521 101.614 163.331C102.774 162.112 105.661 162.558 105.661 162.558L105.542 159.555V159.526Z" fill="#C0F0FF"/>
<path d="M102.09 84.8413C102.09 84.8413 101.168 81.779 98.9061 82.3142C96.6445 82.8493 93.5495 83.1467 92.0021 108.299C89.2345 153.639 95.96 165.531 95.96 165.531C95.96 165.531 99.0847 162.023 101.525 160.685C105.036 158.753 107.298 161.339 107.298 161.339C107.298 161.339 105.721 139.992 106.138 134.73C106.554 129.468 108.488 106.218 107.149 101.074C105.81 95.931 102.09 84.871 102.09 84.871V84.8413Z" fill="#355774"/>
<path d="M135.806 147.336C135.806 148.436 135.241 149.328 134.557 149.328C133.872 149.328 133.307 148.436 133.307 147.336C133.307 146.236 133.872 145.344 134.557 145.344C135.241 145.344 135.806 146.236 135.806 147.336Z" fill="#355774"/>
<path d="M135.806 135.057C135.806 136.157 135.241 137.049 134.557 137.049C133.872 137.049 133.307 136.157 133.307 135.057C133.307 133.957 133.872 133.065 134.557 133.065C135.241 133.065 135.806 133.957 135.806 135.057Z" fill="#355774"/>
<path d="M135.807 40.6907C139.735 43.2773 138.128 50.502 138.128 50.502C138.128 50.502 138.753 55.7049 138.456 56.7455C138.158 57.7861 136.938 62.4538 136.938 62.4538L136.135 68.073C135.926 69.4406 133.337 70.4812 131.998 70.5704C130.213 70.7191 127.891 70.7785 126.909 70.3326C123.07 68.5784 119.261 64.0296 118.904 62.662C118.398 60.7294 117.892 58.7969 117.892 58.7969C117.892 58.7969 117.208 60.4024 115.899 59.0645C114.559 57.7266 110.75 48.7181 113.101 49.1641C115.422 49.61 119.618 54.367 119.618 54.367C119.618 54.367 119.708 41.6124 123.457 40.8394C127.207 40.0664 135.807 40.661 135.807 40.661V40.6907Z" fill="#FFC197"/>
<path d="M169.464 83.5629L168.75 92.3335C168.75 92.3335 172.648 99.9744 176.1 98.6662C179.552 97.3581 184.611 94.2066 184.611 94.2066L182.737 83.2656L169.464 83.5629Z" fill="#F2AD86"/>
<path d="M191.338 96.704H165.389V143.798H191.338V96.704Z" fill="#EAEDF4"/>
<path d="M181.844 125.484L178.839 100.093L177.143 100.658V143.174L181.844 125.484Z" fill="#005893"/>
<path d="M172.441 125.484L175.447 100.093L177.143 100.658V143.174L172.441 125.484Z" fill="#005893"/>
<path d="M173.008 96.5256L175.567 101.52H177.144V96.377L173.008 96.5256Z" fill="#145F9E"/>
<path d="M181.281 96.5256L178.722 101.52H177.145V96.377L181.281 96.5256Z" fill="#145F9E"/>
<path d="M183.839 101.52C183.839 101.52 186.279 94.1768 186.13 93.0173C185.982 91.8578 184.553 89.0928 184.553 89.0928C184.553 89.0928 184.404 90.8767 180.952 93.166C177.5 95.4553 176.34 96.7634 176.34 96.7634C176.34 96.7634 178.096 96.6445 180.238 98.0716L183.839 101.52Z" fill="#F3F6FF"/>
<path d="M176.965 96.7634C176.965 96.7634 175.09 96.4661 173.067 98.0716C171.043 99.6474 169.466 101.52 169.466 101.52C169.466 101.52 167.026 94.1768 167.175 93.0173C167.323 91.8578 168.781 89.2415 168.781 89.2415C168.781 89.2415 168.901 90.847 172.353 93.1363C175.805 95.4255 176.965 96.7337 176.965 96.7337V96.7634Z" fill="#F3F6FF"/>
<path d="M191.516 65.8432C191.516 74.6436 184.791 81.779 176.518 81.779C168.245 81.779 161.52 74.6436 161.52 65.8432C161.52 57.0428 165.388 50.2344 176.518 49.9073C184.791 49.6695 191.516 57.0428 191.516 65.8432Z" fill="#151721"/>
<path d="M151.461 98.4879C151.461 98.4879 147.831 95.3958 145.569 102.442C143.307 109.488 137.683 145.285 141.611 147.247C145.569 149.209 152.889 141.39 152.889 141.39L157.681 127.803L151.431 98.4879H151.461Z" fill="#005893"/>
<path d="M203.538 177.989C203.538 177.989 200.681 181.259 200.979 185.481C201.277 189.703 201.812 191.665 201.812 191.665L201.574 193.627C201.574 193.627 203.122 193.627 204.104 191.368C205.086 189.108 204.788 186.016 204.788 186.016C204.788 186.016 205.651 189.108 205.651 190.535C205.651 191.933 204.104 196.035 204.104 196.452C204.104 196.868 202.259 197.284 201.425 198.295C200.592 199.276 200.443 201.119 200.443 201.119L205.651 198.86L209.46 191.397V180.813L203.687 177.572L203.538 177.989Z" fill="#FFC197"/>
<path d="M202.706 105.683C202.706 105.683 204.462 99.7663 205.652 100.301C206.842 100.866 211.455 106.456 212.735 115.821C214.282 127.089 215.383 140.26 215.711 147.96C216.306 161.874 209.967 184.5 209.491 182.775L202.021 179.683C202.021 179.683 204.581 160.388 204.61 149.804C204.64 139.219 200.593 138.952 200.891 127.238C201.158 115.553 202.736 105.683 202.736 105.683H202.706Z" fill="#005893"/>
<path d="M158.781 298.548C158.781 298.548 156.757 299.975 156.906 300.718C157.055 301.432 157.978 304.465 161.757 304.881C165.536 305.327 168.601 304.584 169.881 303.721C171.19 302.859 172.916 300.273 170.595 298.251L158.781 298.548Z" fill="#151721"/>
<path d="M171.607 297.656C171.607 299.113 172.767 302.413 167.738 302.978C162.679 303.543 157.799 302.681 157.799 299.678C157.799 298.578 157.948 296.972 158.156 295.397C158.483 292.691 158.959 290.045 158.959 290.045L159.525 288.856L161.727 284.277L171.101 284.575L171.547 284.723C171.547 284.723 171.785 286.894 171.815 289.004C171.815 290.253 171.785 291.472 171.547 292.215C171.28 293.107 171.28 293.999 171.369 294.832C171.458 295.902 171.666 296.883 171.696 297.686L171.607 297.656Z" fill="#005893"/>
<path d="M165.358 290.372C165.358 290.967 165.21 291.442 164.733 291.621C163.811 291.978 160.121 294.772 158.127 295.397C158.454 292.691 158.93 290.045 158.93 290.045L159.496 288.856C161.252 288.41 164.406 287.637 164.763 288.142C165.061 288.558 165.388 289.54 165.388 290.342L165.358 290.372Z" fill="#151721"/>
<path d="M171.458 292.215C171.19 293.107 171.19 293.999 171.279 294.832C169.286 293.791 166.726 291.918 165.982 291.621C165.536 291.442 165.357 290.937 165.357 290.372C165.357 289.54 165.685 288.588 165.982 288.172C166.369 287.607 170.178 288.588 171.726 289.004C171.726 290.253 171.696 291.472 171.458 292.215Z" fill="#151721"/>
<path d="M195.264 298.548C195.264 298.548 197.288 299.975 197.139 300.718C196.99 301.432 196.068 304.465 192.289 304.881C188.509 305.327 185.444 304.584 184.164 303.721C182.855 302.859 181.129 300.273 183.45 298.251L195.264 298.548Z" fill="#151721"/>
<path d="M182.468 297.656C182.468 299.113 181.307 302.413 186.337 302.978C191.396 303.543 196.276 302.681 196.276 299.678C196.276 298.578 196.127 296.972 195.919 295.397C195.592 292.691 195.116 290.045 195.116 290.045L194.55 288.856L192.348 284.277L182.974 284.575L182.528 284.723C182.528 284.723 182.29 286.894 182.26 289.004C182.26 290.253 182.29 291.472 182.528 292.215C182.795 293.107 182.795 293.999 182.706 294.832C182.617 295.902 182.409 296.883 182.379 297.686L182.468 297.656Z" fill="#005893"/>
<path d="M188.688 290.372C188.688 290.967 188.837 291.442 189.313 291.621C190.235 291.978 193.925 294.772 195.919 295.397C195.592 292.691 195.116 290.045 195.116 290.045L194.55 288.856C192.795 288.41 189.64 287.637 189.283 288.142C188.986 288.558 188.658 289.54 188.658 290.342L188.688 290.372Z" fill="#151721"/>
<path d="M182.586 292.215C182.854 293.107 182.854 293.999 182.765 294.832C184.759 293.791 187.318 291.918 188.062 291.621C188.508 291.442 188.687 290.937 188.687 290.372C188.687 289.54 188.359 288.588 188.062 288.172C187.675 287.607 183.866 288.588 182.318 289.004C182.318 290.253 182.348 291.472 182.586 292.215Z" fill="#151721"/>
<path d="M202.408 167.969C201.962 163.807 195.385 162.083 195.385 162.083L189.255 162.469C189.999 178.524 191.725 216.55 191.517 223.566C191.279 230.642 189.255 272.088 188.422 290.907C190.386 290.967 194.255 288.023 194.255 288.023C194.255 288.023 202.855 172.161 202.438 167.969H202.408Z" fill="#145F9E"/>
<path d="M189.254 162.469L176.518 163.242V197.79L180.118 288.172C180.118 288.172 186.308 290.61 188.183 290.907C188.243 290.907 188.332 290.907 188.391 290.907C189.225 272.058 191.278 230.642 191.486 223.566C191.724 216.55 189.998 178.524 189.225 162.469H189.254Z" fill="#437FB1"/>
<path d="M151.877 169.634C152.324 165.472 157.621 162.112 157.621 162.112L163.751 162.499C163.007 178.553 161.281 216.579 161.49 223.596C161.728 230.672 163.751 272.117 164.584 290.937C162.62 290.996 158.752 288.053 158.752 288.053C158.752 288.053 151.401 173.826 151.848 169.634H151.877Z" fill="#437FB1"/>
<path d="M163.782 162.469L176.518 163.242V197.79L172.918 288.172C172.918 288.172 166.728 290.61 164.853 290.907C164.793 290.907 164.704 290.907 164.645 290.907C163.811 272.058 161.758 230.642 161.55 223.566C161.312 216.55 163.038 178.524 163.811 162.469H163.782Z" fill="#005893"/>
<g style="mix-blend-mode:multiply">
<g style="mix-blend-mode:multiply">
<path d="M176.518 96.377C176.518 96.377 174.673 95.0688 172.798 96.377C170.923 97.6851 169.436 102.412 169.436 102.412C169.436 102.412 171.786 98.1014 175.655 98.25C179.554 98.3987 179.226 97.9527 180.03 98.3987C180.833 98.8446 183.988 102.561 183.988 102.561C183.988 102.561 184.791 94.6526 176.488 96.377H176.518Z" fill="#A2D4DD"/>
</g>
</g>
<path d="M165.417 93.5525L149.913 98.2203C149.913 98.2203 151.431 120.043 151.847 124.949C152.294 129.854 154.883 142.074 154.287 150.577C153.722 159.08 145.33 184.916 145.33 184.916C145.33 184.916 162.769 192.468 166.965 190.178C171.131 187.889 178.362 170.883 178.928 158.782C179.493 146.682 177.35 142.311 177.35 142.311L165.387 93.5823L165.417 93.5525Z" fill="#145F9E"/>
<path d="M202.646 124.651C202.2 129.527 199.611 141.776 200.206 150.279C200.385 152.985 200.712 155.839 201.039 158.515C201.307 160.626 201.575 162.588 201.843 164.253C202.289 167.107 204.521 182.865 204.521 182.865C204.521 182.865 192.29 189.316 188.124 187.027C183.958 184.738 176.161 170.586 175.566 158.485C175 146.385 177.143 142.014 177.143 142.014L189.106 93.2849L205.652 100.331C205.652 100.331 203.093 119.775 202.646 124.651Z" fill="#005893"/>
<path d="M180.059 144.482H177.291V145.225H180.059V144.482Z" fill="#0E131C"/>
<path d="M180.594 159.109H177.201V159.972H180.594V159.109Z" fill="#0E131C"/>
<path d="M162.381 93.9985L168.779 89.2712C168.779 89.2712 167.44 93.6417 168.184 96.1688C168.928 98.696 176.993 141.449 176.993 141.449C176.993 141.449 171.874 134.879 167.559 124.057C163.244 113.264 159.346 100.599 159.346 100.599L163.244 99.1717L161.072 98.0122L162.381 93.9687V93.9985Z" fill="#437FB1"/>
<path d="M190.622 93.9985L184.581 89.0929C184.581 89.0929 185.563 93.6417 184.819 96.1689C184.075 98.696 176.725 143.144 176.725 143.144C176.725 143.144 181.129 134.879 185.444 124.057C189.759 113.264 193.657 100.599 193.657 100.599L189.759 99.1717L191.931 98.0122L190.622 93.9688V93.9985Z" fill="#437FB1"/>
<path d="M201.811 159.08C199.847 161.369 194.967 163.45 194.967 163.45L192.705 157.712C192.705 157.712 196.276 156.731 198.954 155.244C199.936 154.709 200.591 153.996 201.008 153.342C201.276 155.453 201.543 157.415 201.811 159.08Z" fill="#145F9E"/>
<path d="M152.592 159.08C154.556 161.369 159.436 163.45 159.436 163.45L161.698 157.712C161.698 157.712 158.127 156.731 155.449 155.244C154.467 154.709 153.812 153.996 153.395 153.342C153.127 155.453 152.86 157.415 152.592 159.08Z" fill="#145F9E"/>
<path d="M164.553 67.4487C164.553 67.4487 162.708 65.6351 161.816 66.4081C160.893 67.2108 161.459 74.9706 162.619 76.3383C163.75 77.7059 165.476 77.587 165.476 77.587L164.553 67.4189V67.4487Z" fill="#F2AD86"/>
<path d="M169.106 55.7644C169.106 55.7644 166.577 55.8833 164.523 61.2646C162.47 66.6459 164.166 76.5761 164.166 76.5761C164.166 76.5761 164.731 81.6006 166.785 84.5143C168.779 87.3387 170.743 90.1037 172.588 90.9065C174.403 91.7092 176.635 91.3227 176.635 91.3227V55.1995L169.076 55.7644H169.106Z" fill="#FFC197"/>
<path d="M188.778 67.4487C188.778 67.4487 190.593 65.6351 191.516 66.4081C192.438 67.2108 191.873 74.9706 190.712 76.3383C189.581 77.7059 187.855 77.587 187.855 77.587L188.778 67.4189V67.4487Z" fill="#F2AD86"/>
<path d="M184.224 55.7644C184.224 55.7644 186.754 55.8833 188.807 61.2646C190.86 66.6459 189.164 76.5761 189.164 76.5761C189.164 76.5761 188.599 81.6006 186.545 84.5143C184.552 87.3387 182.588 90.1037 180.743 90.9065C178.927 91.7092 176.695 91.3227 176.695 91.3227V55.1995L184.254 55.7644H184.224Z" fill="#FFC197"/>
<path d="M152.205 174.778C152.205 174.778 155.062 178.048 154.764 182.27C154.467 186.492 153.931 188.454 153.931 188.454L154.169 190.416C154.169 190.416 152.622 190.416 151.64 188.157C150.658 185.897 150.955 182.805 150.955 182.805C150.955 182.805 150.092 185.897 150.092 187.324C150.092 188.722 151.64 192.824 151.64 193.241C151.64 193.657 153.485 194.073 154.318 195.084C155.151 196.065 155.3 197.909 155.3 197.909L150.092 195.649L146.283 188.186V177.602L152.056 174.362L152.205 174.778Z" fill="#FFC197"/>
<path d="M153.038 102.502C153.038 102.502 151.282 96.5851 150.092 97.1203C148.902 97.6852 144.289 103.275 143.009 112.64C141.462 123.908 140.361 137.079 140.034 144.779C139.438 158.693 145.777 181.319 146.253 179.594L153.723 176.502C153.723 176.502 151.163 157.207 151.134 146.622C151.104 136.038 155.151 135.771 154.853 124.057C154.586 112.372 153.008 102.502 153.008 102.502H153.038Z" fill="#005893"/>
<path d="M203.538 177.989C203.538 177.989 200.681 181.259 200.979 185.481C201.277 189.703 201.812 191.665 201.812 191.665L201.574 193.627C201.574 193.627 203.122 193.627 204.104 191.368C205.086 189.108 204.788 186.016 204.788 186.016C204.788 186.016 205.651 189.108 205.651 190.535C205.651 191.933 204.104 196.035 204.104 196.452C204.104 196.868 202.259 197.284 201.425 198.295C200.592 199.276 200.443 201.119 200.443 201.119L205.651 198.86L209.46 191.397V180.813L203.687 177.572L203.538 177.989Z" fill="#FFC197"/>
<path d="M202.706 105.683C202.706 105.683 204.462 99.7663 205.652 100.301C206.842 100.866 211.455 106.456 212.735 115.821C214.282 127.089 215.383 140.26 215.711 147.96C216.306 161.874 209.967 184.5 209.491 182.775L202.021 179.683C202.021 179.683 204.581 160.388 204.61 149.804C204.64 139.219 200.593 138.952 200.891 127.238C201.158 115.553 202.736 105.683 202.736 105.683H202.706Z" fill="#005893"/>
<path d="M174.375 54.3372C174.375 54.3372 175.893 58.7077 179.821 60.0159C183.749 61.2943 185.386 61.5619 185.386 61.5619C185.386 61.5619 182.41 56.9238 182.172 55.6454C181.934 54.367 186.755 60.2835 186.785 61.5619C186.844 62.8403 186.338 51.0074 174.346 54.3372H174.375Z" fill="#151721"/>
</svg>
