<svg width="246" height="295" viewBox="0 0 246 295" fill="none" xmlns="http://www.w3.org/2000/svg">
<path d="M189.727 18.7751C182.055 45.0539 197.975 37.3493 206.798 37.3493C215.621 37.3493 224.86 41.3135 225.052 31.9145C225.499 9.50392 215.621 3.36578 206.798 3.36578C197.975 3.36578 192.349 9.75967 189.727 18.7751Z" fill="#ED852F"/>
<path d="M212.137 171.813C212.137 171.813 211.53 185.496 211.498 190.994C211.466 196.493 207.502 196.365 209.516 222.708C209.835 226.8 210.986 245.438 210.283 248.156C209.548 250.873 209.803 249.914 209.739 251.321C209.676 252.727 210.379 253.655 209.516 256.052C208.908 257.683 209.324 261.551 210.251 262.766C211.178 264.013 218.978 263.309 218.978 263.309C218.978 263.309 216.261 255.125 216.9 253.942C217.54 252.791 216.549 251.992 216.517 251.577C216.293 249.499 224.445 230.253 224.157 210.688C224.061 203.686 224.604 196.621 224.604 196.621L226.81 169.671L212.169 171.717L212.137 171.813Z" fill="#F2AD86"/>
<path d="M221.664 269.288C219.778 270.982 215.974 271.174 214.471 270.758C212.809 270.343 209.197 269.735 208.749 268.552C208.685 268.361 208.653 268.169 208.621 267.913C208.302 268.584 208.046 269.288 208.302 269.416C208.813 269.735 212.841 271.749 214.791 271.813C216.741 271.877 221.856 271.462 221.792 270.343C221.792 269.959 221.728 269.575 221.664 269.256V269.288Z" fill="#5E0839"/>
<path d="M214.472 270.79C215.974 271.174 219.778 271.014 221.664 269.32C221.664 269.32 221.664 269.32 221.696 269.288C222.783 268.297 220.545 263.181 220.545 263.181C220.545 263.181 215.814 258.961 214.056 258.194C212.266 257.459 211.722 258.002 209.613 259.409C207.503 260.816 208.973 263.725 208.973 263.725L209.165 264.62C209.165 264.62 208.526 266.602 208.622 267.945C208.622 268.169 208.685 268.392 208.749 268.584C209.197 269.767 212.841 270.343 214.472 270.79Z" fill="#5E0839"/>
<path d="M200.949 171.813C200.949 171.813 201.556 185.496 201.588 190.994C201.62 196.493 205.584 196.365 203.57 222.708C203.25 226.8 202.067 245.438 202.803 248.156C203.538 250.873 203.282 249.914 203.346 251.321C203.41 252.727 202.707 253.655 203.57 256.052C204.177 257.683 203.762 261.551 202.835 262.766C201.908 264.013 194.107 263.309 194.107 263.309C194.107 263.309 196.825 255.125 196.185 253.942C195.546 252.791 196.537 251.992 196.569 251.577C196.793 249.499 188.641 230.253 188.929 210.688C189.025 203.686 188.481 196.621 188.481 196.621L186.275 169.671L200.917 171.717L200.949 171.813Z" fill="#F2AD86"/>
<path d="M191.421 269.288C193.308 270.982 197.112 271.174 198.614 270.758C200.276 270.343 203.889 269.735 204.336 268.552C204.4 268.361 204.432 268.169 204.464 267.913C204.784 268.584 205.04 269.288 204.784 269.416C204.272 269.735 200.244 271.749 198.294 271.813C196.344 271.877 191.23 271.462 191.294 270.343C191.294 269.959 191.358 269.575 191.421 269.256V269.288Z" fill="#5E0839"/>
<path d="M198.614 270.79C197.112 271.174 193.308 271.014 191.422 269.32C191.422 269.32 191.422 269.32 191.39 269.288C190.303 268.297 192.54 263.181 192.54 263.181C192.54 263.181 197.272 258.961 199.03 258.194C200.82 257.459 201.364 258.002 203.473 259.409C205.583 260.816 204.113 263.725 204.113 263.725L203.921 264.62C203.921 264.62 204.56 266.602 204.464 267.945C204.464 268.169 204.4 268.392 204.337 268.584C203.889 269.767 200.245 270.343 198.614 270.79Z" fill="#5E0839"/>
<path d="M219.553 112.893C219.553 112.893 229.144 117.337 230.295 126.001C231.477 134.664 230.295 196.174 230.295 196.174C230.295 196.174 214.311 197.804 206.639 197.58C206.479 197.58 206.383 110.687 206.383 110.687C210.155 110.559 214.503 111.135 219.522 112.925L219.553 112.893Z" fill="#44051C"/>
<path d="M185.668 123.891C185.668 123.891 191.359 111.231 206.415 110.687L206.671 197.58C198.775 197.292 181.992 195.726 181.992 195.726L185.668 123.923V123.891Z" fill="#540B29"/>
<path d="M196.345 48.9222L181.16 55.2202L186.211 77.1832C186.211 77.1832 190.814 89.8751 190.175 96.9084C189.568 103.91 186.435 110.399 186.051 113.437C185.668 116.474 184.868 125.521 184.868 125.521L208.013 124.818L209.803 89.4275C209.803 89.4275 200.373 63.9479 199.765 60.9108C199.158 57.8737 196.345 48.9222 196.345 48.9222Z" fill="#44051C"/>
<path d="M219.554 48.9222L234.739 55.2202L229.688 77.1832C229.688 77.1832 225.084 89.8751 225.724 96.9084C226.363 103.91 229.464 110.399 229.848 113.437C230.231 116.474 231.03 125.521 231.03 125.521L207.886 124.818L206.096 89.4275C206.096 89.4275 215.526 63.9479 216.134 60.9108C216.773 57.8737 219.554 48.9222 219.554 48.9222Z" fill="#300012"/>
<path d="M207.277 90.2268C207.277 90.8662 207.789 91.4097 208.46 91.4097C209.131 91.4097 209.643 90.8981 209.643 90.2268C209.643 89.5554 209.131 89.0439 208.46 89.0439C207.789 89.0439 207.277 89.5554 207.277 90.2268Z" fill="#0B0E1E"/>
<path d="M207.15 102.311C207.15 102.951 207.662 103.494 208.333 103.494C209.004 103.494 209.516 102.983 209.516 102.311C209.516 101.64 209.004 101.128 208.333 101.128C207.662 101.128 207.15 101.64 207.15 102.311Z" fill="#0B0E1E"/>
<path d="M208.014 54.2612C210.603 54.2612 213.192 54.1972 215.75 54.0693C214.247 60.5272 210.603 73.6346 208.237 82.0746C208.174 81.7868 208.078 81.4991 208.014 81.2434V54.2931V54.2612Z" fill="#F3F6FF"/>
<path d="M215.783 54.0693C213.194 54.1972 210.604 54.2611 208.047 54.2611V35.4311L214.281 33.8646C214.281 33.8646 213.801 43.9989 215.367 46.9721C215.623 47.4836 216.103 47.9951 216.646 48.4747C216.646 49.21 216.55 50.1371 216.358 51.256C216.263 51.9274 216.039 52.8864 215.783 54.0693Z" fill="#F2AD86"/>
<path d="M200.725 54.1013C200.405 52.7586 200.181 51.6716 200.053 50.9363C199.862 49.7854 199.798 48.8583 199.766 48.091C200.149 47.7074 200.469 47.3238 200.661 46.9401C202.227 43.967 201.748 33.8327 201.748 33.8327L207.981 35.3992V54.2292C205.552 54.2292 203.122 54.1652 200.693 54.0693L200.725 54.1013Z" fill="#F2AD86"/>
<path d="M200.727 54.1013C203.156 54.1972 205.586 54.2612 208.015 54.2612V81.2114C205.682 72.9313 202.229 60.5272 200.727 54.1013Z" fill="#EAEDF4"/>
<path d="M208.014 81.2114C208.11 81.4991 208.174 81.7868 208.237 82.0426C208.142 82.3303 208.078 82.618 208.014 82.8738V81.1794V81.2114Z" fill="#262837"/>
<path d="M196.889 55.8596L193.373 55.5399L193.661 53.6218L193.98 51.6397L194.332 49.4338C194.332 49.4338 198.999 46.3327 199.319 45.054C199.639 43.8071 201.173 45.2138 201.173 45.2138C201.173 45.2138 199.799 44.8621 199.799 48.0591C199.799 48.7944 199.894 49.7215 200.086 50.9044C200.214 51.6397 200.438 52.7266 200.758 54.0693C202.26 60.4952 205.713 72.8993 208.046 81.1794V82.8738C207.79 83.8329 207.535 84.6961 207.311 85.4633C207.247 85.6871 207.183 85.8789 207.151 86.0708C205.169 83.8649 202.708 80.7319 200.981 77.2472C197.625 70.5336 193.437 58.2254 193.437 58.2254L193.948 57.8737L196.953 55.7957L196.889 55.8596Z" fill="#540B29"/>
<path d="M207.119 86.1027C207.183 85.9109 207.215 85.7191 207.279 85.4953C207.503 84.6961 207.759 83.8329 208.014 82.9058C208.078 82.618 208.174 82.3623 208.238 82.0746C210.604 73.6666 214.248 60.5272 215.751 54.0693C216.038 52.8865 216.23 51.9274 216.326 51.256C216.518 50.1051 216.582 49.21 216.614 48.4747C216.646 45.2138 215.239 45.5654 215.239 45.5654C215.239 45.5654 216.806 44.1588 217.125 45.4056C217.445 46.6524 222.112 49.7854 222.112 49.7854L222.432 51.8315L222.72 53.6217L223.071 55.8596L219.555 56.1793L222.144 57.9696L223.039 58.577C223.039 58.577 218.82 70.8853 215.495 77.5988C213.801 80.9876 211.403 84.0567 209.453 86.2626C209.069 86.7101 208.718 87.0938 208.366 87.4454C207.023 88.8841 206.064 89.7153 206.064 89.7153C206.064 89.7153 206.48 88.3086 207.087 86.0707L207.119 86.1027Z" fill="#540B29"/>
<path d="M182.024 140.131L184.581 145.054L185.764 153.462L185.188 157.906C185.188 157.906 183.558 157.331 183.43 156.052C183.302 154.773 183.206 152.663 183.206 152.663L182.024 149.754L181.8 154.326L183.078 157.586L184.965 159.569C184.965 159.569 187.17 160.975 187.426 161.902C187.65 162.829 187.426 163.437 187.426 163.437L185.892 162.606C185.892 162.606 185.764 163.788 185.188 163.788C184.613 163.788 179.114 160.176 179.114 160.176L178.539 159.249C178.539 159.249 178.187 159.121 177.484 158.418L176.781 157.714L174.799 151.992L175.726 139.236L182.024 140.163V140.131Z" fill="#FFC197"/>
<path d="M181.224 55.2202C179.37 55.0604 178.539 62.1576 178.411 68.3597C178.283 74.5618 176.301 98.411 174.799 103.302C173.265 108.226 174.927 134.76 174.799 138.149C174.671 141.538 174.319 143.52 174.319 143.52L183.782 141.314C183.782 141.314 184.837 116.058 185.892 112.094C186.947 108.13 185.668 99.466 185.668 99.466L188.129 83.0976C188.129 83.0976 184.517 55.508 181.224 55.2522V55.2202Z" fill="#300012"/>
<path d="M219.425 26.6715C219.425 26.6715 220.448 22.4515 221.343 23.2508C222.238 24.05 221.695 31.6907 220.544 33.0654C219.425 34.4081 216.771 31.4669 216.771 31.4669L219.393 26.7035L219.425 26.6715Z" fill="#FFC197"/>
<path d="M212.073 14.0116C212.073 14.0116 214.567 13.2443 216.613 18.5513C218.626 23.8582 219.106 32.1063 219.106 32.1063C219.106 32.1063 218.019 36.8378 215.941 39.715C214.119 42.2406 210.091 45.4056 208.045 46.4286C206.287 47.2918 206.735 46.6524 206.735 46.6524V11.0065L212.041 14.0116H212.073Z" fill="#FFC197"/>
<path d="M194.842 27.0551C194.842 27.0551 192.7 22.3556 191.805 23.1549C190.91 23.9541 191.805 31.1472 192.924 32.4899C194.043 33.8327 195.161 30.9234 195.161 30.9234L194.81 27.0871L194.842 27.0551Z" fill="#FFC197"/>
<path d="M203.025 14.619C203.025 14.619 197.814 15.9617 195.768 21.2687C193.754 26.5756 194.393 32.1063 194.393 32.1063C194.393 32.1063 195.48 36.8378 197.558 39.715C199.38 42.2406 203.408 45.4056 205.454 46.4286C207.212 47.2918 206.765 46.6524 206.765 46.6524V11.0065L203.025 14.619Z" fill="#FFC197"/>
<path d="M234.77 55.2202C234.77 55.2202 236.72 54.0693 239.597 59.5681C242.474 65.0668 245.128 82.9378 244.68 89.4276C244.233 95.9174 245.384 105.508 241.547 106.819C237.711 108.13 230.646 73.1871 230.646 73.1871L234.802 55.1883L234.77 55.2202Z" fill="#44051C"/>
<path d="M240.686 79.8367L231.159 121.493C231.159 121.493 211.691 122.836 209.869 122.836C208.047 122.836 216.646 82.9697 216.646 82.9697L240.654 79.8047L240.686 79.8367Z" fill="#8C3C19"/>
<path d="M219.458 115.195C219.458 115.195 211.914 118.168 210.028 116.761C208.142 115.355 209.644 113.724 209.644 113.724C209.644 113.724 207.982 112.446 209.005 110.687C209.612 109.632 208.302 108.066 208.621 107.362C209.133 106.18 210.028 104.837 210.028 104.837C210.028 104.837 213.736 103.91 215.654 104.613C217.572 105.316 223.199 108.002 223.199 108.002L219.49 115.227L219.458 115.195Z" fill="#FFC197"/>
<path d="M237.457 96.3649C242.604 92.7524 246.12 98.1872 244.681 102.215C243.243 106.243 242.795 108.385 234.1 111.998C225.373 115.611 219.459 115.195 219.459 115.195L220.098 107.075C220.098 107.075 227.387 105.316 229.593 104.197C232.438 102.791 235.187 97.9634 237.457 96.3329V96.3649Z" fill="#300012"/>
<path d="M32.0309 37.3493L31.2637 46.7483C31.2637 46.7483 35.4195 54.9325 39.1277 53.5258C42.836 52.1511 48.2385 48.7304 48.2385 48.7304L46.2245 36.9976L32.0309 37.3173V37.3493Z" fill="#F2AD86"/>
<path d="M55.4322 51.4798H27.6523V101.96H55.4322V51.4798Z" fill="#EAEDF4"/>
<path d="M45.2989 82.2983L42.1022 55.0923L40.248 55.6997V101.288L45.2989 82.2983Z" fill="#005893"/>
<path d="M35.2285 82.2983L38.4253 55.0923L40.2474 55.6997V101.288L35.2285 82.2983Z" fill="#005893"/>
<path d="M35.8359 51.256L38.5852 56.6268H40.2475V51.0961L35.8359 51.256Z" fill="#145F9E"/>
<path d="M44.6915 51.256L41.9423 56.6268H40.248V51.0961L44.6915 51.256Z" fill="#145F9E"/>
<path d="M47.4399 56.6269C47.4399 56.6269 50.0612 48.7624 49.9014 47.5156C49.7416 46.2688 48.2071 43.2956 48.2071 43.2956C48.2071 43.2956 48.0473 45.1818 44.339 47.6754C40.6308 50.1371 39.416 51.5437 39.416 51.5437C39.416 51.5437 41.3021 51.4158 43.5718 52.9184L47.4399 56.6269Z" fill="#F3F6FF"/>
<path d="M40.0881 51.5117C40.0881 51.5117 38.0742 51.1921 35.9323 52.8864C33.7585 54.5808 32.0642 56.5949 32.0642 56.5949C32.0642 56.5949 29.4429 48.7304 29.6027 47.4836C29.7626 46.2368 31.329 43.4554 31.329 43.4554C31.329 43.4554 31.4568 45.1818 35.1331 47.6434C38.8414 50.1051 40.0561 51.5117 40.0561 51.5117H40.0881Z" fill="#F3F6FF"/>
<path d="M55.6555 14.7789C55.6555 26.2239 48.4628 35.4631 39.5758 35.4631C30.6888 35.4631 23.4961 26.1919 23.4961 14.7789C23.4961 3.36576 27.6519 1.28774 39.5758 1.00002C52.6506 0.712294 55.6555 3.33379 55.6555 14.7469V14.7789Z" fill="#DFEEEF"/>
<path d="M12.7552 53.366C12.7552 53.366 8.8551 50.0412 6.45753 57.586C4.02799 65.1308 -2.0139 103.494 2.2378 105.636C6.45753 107.746 14.3216 99.37 14.3216 99.37L19.4684 84.792L12.7871 53.366H12.7552Z" fill="#005893"/>
<path d="M68.5375 138.565C68.5375 138.565 65.4686 142.049 65.7883 146.589C66.108 151.097 66.6834 153.239 66.6834 153.239L66.4277 155.349C66.4277 155.349 68.09 155.349 69.1449 152.919C70.1998 150.489 69.8802 147.164 69.8802 147.164C69.8802 147.164 70.8072 150.489 70.8072 151.992C70.8072 153.494 69.1449 157.874 69.1449 158.322C69.1449 158.769 67.1949 159.217 66.2678 160.272C65.3727 161.327 65.2129 163.309 65.2129 163.309L70.8072 160.879L74.8671 152.887V141.57L68.6654 138.085L68.5056 138.533L68.5375 138.565Z" fill="#FFC197"/>
<path d="M67.611 61.0706C67.611 61.0706 69.4971 54.7087 70.7438 55.3161C71.9906 55.9235 76.9455 61.9018 78.3202 71.9402C79.9825 84.0247 81.1333 98.1552 81.485 106.371C82.1243 121.269 75.3472 145.534 74.8357 143.68L66.8438 140.355C66.8438 140.355 69.593 119.671 69.625 108.353C69.6569 97.0363 65.3413 96.7166 65.629 84.1845C65.9167 71.6525 67.579 61.0706 67.579 61.0706H67.611Z" fill="#005893"/>
<path d="M20.5868 267.785C20.5868 267.785 18.413 269.32 18.5729 270.087C18.7327 270.854 19.7237 274.115 23.7516 274.563C27.7795 275.01 31.0722 274.243 32.4468 273.316C33.8214 272.389 35.6755 269.607 33.214 267.465L20.5548 267.785H20.5868Z" fill="#151721"/>
<path d="M34.301 266.858C34.301 268.393 35.5478 271.941 30.1452 272.581C24.7427 273.188 19.5 272.261 19.5 269.032C19.5 267.849 19.6598 266.123 19.8836 264.428C20.2353 261.519 20.7467 258.674 20.7467 258.674L21.3541 257.427L23.6878 252.504L33.7256 252.823L34.1731 252.983C34.1731 252.983 34.4289 255.317 34.4609 257.587C34.4609 258.898 34.4289 260.24 34.1731 261.008C33.8854 261.967 33.8854 262.926 33.9813 263.821C34.0772 264.972 34.301 266.027 34.333 266.858H34.301Z" fill="#005893"/>
<path d="M27.6509 259.025C27.6509 259.665 27.4911 260.176 26.9796 260.368C25.9886 260.752 22.0246 263.757 19.8828 264.428C20.2345 261.519 20.7459 258.674 20.7459 258.674L21.3533 257.427C23.2394 256.947 26.628 256.116 26.9796 256.692C27.2993 257.139 27.6509 258.194 27.6509 259.057V259.025Z" fill="#151721"/>
<path d="M34.1725 261.008C33.8848 261.967 33.8848 262.926 33.9807 263.821C31.8389 262.702 29.1216 260.688 28.2905 260.4C27.8109 260.208 27.6191 259.665 27.6191 259.057C27.6191 258.162 27.9708 257.139 28.2905 256.692C28.706 256.084 32.7979 257.139 34.4602 257.587C34.4602 258.898 34.4282 260.24 34.1725 261.008Z" fill="#151721"/>
<path d="M59.6519 267.785C59.6519 267.785 61.8257 269.32 61.6659 270.087C61.5061 270.854 60.5151 274.115 56.4871 274.563C52.4592 275.01 49.1665 274.243 47.7919 273.316C46.4173 272.389 44.5632 269.607 47.0247 267.465L59.6839 267.785H59.6519Z" fill="#151721"/>
<path d="M45.9372 266.858C45.9372 268.393 44.6904 271.941 50.093 272.581C55.4955 273.188 60.7382 272.261 60.7382 269.032C60.7382 267.849 60.5784 266.123 60.3546 264.428C60.0029 261.519 59.4915 258.674 59.4915 258.674L58.8841 257.427L56.5504 252.504L46.5126 252.823L46.0651 252.983C46.0651 252.983 45.8093 255.317 45.7773 257.587C45.7773 258.898 45.8093 260.24 46.0651 261.008C46.3528 261.967 46.3528 262.926 46.2569 263.821C46.161 264.972 45.9372 266.027 45.9052 266.858H45.9372Z" fill="#005893"/>
<path d="M52.6191 259.025C52.6191 259.665 52.779 260.176 53.2905 260.368C54.2815 260.752 58.2454 263.757 60.3873 264.428C60.0356 261.519 59.5242 258.674 59.5242 258.674L58.9168 257.427C57.0307 256.947 53.6421 256.116 53.2905 256.692C52.9708 257.139 52.6191 258.194 52.6191 259.057V259.025Z" fill="#151721"/>
<path d="M46.0963 261.008C46.384 261.967 46.384 262.926 46.2881 263.821C48.4299 262.702 51.1472 260.688 51.9783 260.4C52.4579 260.208 52.6497 259.665 52.6497 259.057C52.6497 258.162 52.298 257.139 51.9783 256.692C51.5628 256.084 47.4709 257.139 45.8086 257.587C45.8086 258.898 45.8406 260.24 46.0963 261.008Z" fill="#151721"/>
<path d="M67.3217 127.855C66.8741 123.379 59.8093 121.525 59.8093 121.525L53.2239 121.94C54.0231 139.14 55.8772 179.901 55.6215 187.414C55.3658 195.023 53.192 239.428 52.2969 259.601C54.3748 259.665 58.5625 256.5 58.5625 256.5C58.5625 256.5 67.8012 132.299 67.3217 127.823V127.855Z" fill="#145F9E"/>
<path d="M53.2244 121.94L39.5742 122.772V159.824L43.4423 256.692C43.4423 256.692 50.0916 259.313 52.0736 259.633C52.1375 259.633 52.2334 259.633 52.2973 259.633C53.1924 239.428 55.3662 195.023 55.622 187.446C55.8777 179.933 54.0236 139.172 53.2244 121.972V121.94Z" fill="#437FB1"/>
<path d="M13.2012 129.613C13.6487 125.137 19.3709 121.525 19.3709 121.525L25.9563 121.94C25.1571 139.14 23.3029 179.901 23.5587 187.414C23.8144 195.023 25.9882 239.428 26.8833 259.601C24.8054 259.665 20.6177 256.5 20.6177 256.5C20.6177 256.5 12.7536 134.057 13.2331 129.581L13.2012 129.613Z" fill="#437FB1"/>
<path d="M25.9567 121.94L39.6069 122.772V159.824L35.7388 256.692C35.7388 256.692 29.0896 259.313 27.1076 259.633C27.0436 259.633 26.9477 259.633 26.8838 259.633C25.9887 239.428 23.8149 195.023 23.5592 187.446C23.3034 179.933 25.1575 139.172 25.9567 121.972V121.94Z" fill="#005893"/>
<g style="mix-blend-mode:multiply">
<g style="mix-blend-mode:multiply">
<path d="M39.5756 51.0962C39.5756 51.0962 37.6256 49.7215 35.6116 51.0962C33.5977 52.4709 32.0312 57.554 32.0312 57.554C32.0312 57.554 34.5247 52.9504 38.7125 53.1102C42.8683 53.2701 42.5166 52.7906 43.4117 53.2701C44.2749 53.7177 47.6315 57.7458 47.6315 57.7458C47.6315 57.7458 48.4946 49.2419 39.6076 51.0962H39.5756Z" fill="#A2D4DD"/>
</g>
</g>
<path d="M27.6834 48.091L11.0922 53.0783C11.0922 53.0783 12.7226 76.4799 13.1701 81.7229C13.6177 86.9659 16.3988 100.073 15.7915 109.185C15.1841 118.296 6.20117 145.981 6.20117 145.981C6.20117 145.981 24.9022 154.07 29.3457 151.608C33.8212 149.146 41.5254 130.924 42.1648 117.976C42.7722 105.029 40.4705 100.297 40.4705 100.297L27.6834 48.091Z" fill="#145F9E"/>
<path d="M67.5479 81.4032C67.1003 86.6462 64.3192 99.7537 64.9265 108.865C65.1184 111.742 65.438 114.843 65.8216 117.689C66.1093 119.926 66.3971 122.068 66.6848 123.827C67.1323 126.864 69.5619 143.776 69.5619 143.776C69.5619 143.776 56.4871 150.713 52.0116 148.219C47.5362 145.758 39.1926 130.604 38.5532 117.625C37.9459 104.677 40.2475 99.9455 40.2475 99.9455L53.0666 47.7074L70.7766 55.2842C70.7766 55.2842 68.0274 76.1282 67.5799 81.3712L67.5479 81.4032Z" fill="#005893"/>
<path d="M43.3805 102.663H40.4395V103.462H43.3805V102.663Z" fill="#005893"/>
<path d="M43.9549 118.36H40.3105V119.287H43.9549V118.36Z" fill="#49002A"/>
<path d="M24.4553 48.5386L31.3283 43.4875C31.3283 43.4875 29.8898 48.155 30.689 50.9044C31.4882 53.6218 40.1194 99.434 40.1194 99.434C40.1194 99.434 34.653 92.3687 30.0177 80.7958C25.3824 69.2229 21.2266 55.6358 21.2266 55.6358L25.3824 54.1013L23.0807 52.8545L24.4553 48.5386Z" fill="#437FB1"/>
<path d="M54.6958 48.5386L48.2063 43.2956C48.2063 43.2956 49.2613 48.155 48.4621 50.8724C47.6629 53.5898 39.7988 101.224 39.7988 101.224C39.7988 101.224 44.53 92.3368 49.1334 80.7638C53.7687 69.1909 57.9245 55.6039 57.9245 55.6039L53.7687 54.0693L56.0704 52.8225L54.6958 48.5066V48.5386Z" fill="#437FB1"/>
<path d="M66.6844 118.296C64.5746 120.758 59.3319 122.963 59.3319 122.963L56.9023 116.825C56.9023 116.825 60.7065 115.802 63.6156 114.172C64.6705 113.596 65.3738 112.861 65.8213 112.158C66.109 114.396 66.3967 116.538 66.6844 118.296Z" fill="#145F9E"/>
<path d="M13.9688 118.296C16.0786 120.758 21.3213 122.963 21.3213 122.963L23.7508 116.825C23.7508 116.825 19.9467 115.802 17.0376 114.172C15.9827 113.596 15.2794 112.861 14.8319 112.158C14.5442 114.396 14.2565 116.538 13.9688 118.296Z" fill="#145F9E"/>
<path d="M26.756 20.0858C26.756 20.0858 24.806 18.1357 23.815 18.9988C22.824 19.862 23.4634 28.1741 24.6781 29.6447C25.8929 31.1153 27.747 30.9874 27.747 30.9874L26.756 20.0858Z" fill="#F2AD86"/>
<path d="M31.6787 7.58574C31.6787 7.58574 28.9934 7.71362 26.7876 13.4681C24.5819 19.2226 26.436 29.8684 26.436 29.8684C26.436 29.8684 27.0434 35.2393 29.2492 38.3723C31.359 41.3774 33.5009 44.3506 35.4509 45.2138C37.4009 46.077 39.7985 45.6614 39.7985 45.6614V6.94635L31.7107 7.55377L31.6787 7.58574Z" fill="#FFC197"/>
<path d="M52.7469 20.0858C52.7469 20.0858 54.6969 18.1357 55.6879 18.9988C56.6789 19.862 56.0395 28.1741 54.8247 29.6447C53.61 31.1153 51.7559 30.9874 51.7559 30.9874L52.7469 20.0858Z" fill="#F2AD86"/>
<path d="M47.8229 7.58574C47.8229 7.58574 50.5082 7.71362 52.714 13.4681C54.9197 19.2226 53.0656 29.8684 53.0656 29.8684C53.0656 29.8684 52.4582 35.2393 50.2524 38.3723C48.1426 41.3774 46.0007 44.3506 44.0507 45.2138C42.1007 46.077 39.7031 45.6614 39.7031 45.6614V6.94635L47.7909 7.55377L47.8229 7.58574Z" fill="#FFC197"/>
<path d="M7.22461 80.572L16.719 122.228C16.719 122.228 36.1873 123.603 38.0094 123.603C39.8316 123.603 31.2323 83.737 31.2323 83.737L7.22461 80.572Z" fill="#8C3C19"/>
<path d="M26.1166 114.172C26.1166 114.172 35.0356 118.008 37.2733 116.186C39.543 114.364 37.7209 112.254 37.7209 112.254C37.7209 112.254 39.6709 110.591 38.4881 108.321C37.7528 106.947 39.3192 104.965 38.9356 104.038C38.3283 102.535 37.2733 100.777 37.2733 100.777C37.2733 100.777 32.8938 99.5618 30.624 100.489C28.3543 101.384 21.7051 104.869 21.7051 104.869L26.0846 114.172H26.1166Z" fill="#FFC197"/>
<path d="M4.95452 96.3649C4.95452 96.3649 -1.21523 97.7396 0.223312 101.768C1.66186 105.796 2.1094 107.938 10.8046 111.55C19.5318 115.163 26.1171 114.172 26.1171 114.172L24.9023 102.695L4.92256 96.3329L4.95452 96.3649Z" fill="#145F9E"/>
<path d="M171.699 34.0564C171.699 34.0564 176.59 35.8787 175.727 41.0577C174.864 46.2368 173.521 50.6486 174.768 52.6946C176.015 54.7087 164.602 59.9197 164.602 59.9197C164.602 59.9197 146.477 55.6358 145.294 53.2701C144.111 50.9043 146.764 48.6665 145.869 44.5424C145.006 40.3864 147.084 31.6268 151.432 31.0513C155.811 30.4759 171.667 34.0884 171.667 34.0884L171.699 34.0564Z" fill="#DFEEEF"/>
<path d="M155.107 194.639C155.107 194.639 155.715 208.226 155.747 213.693C155.779 219.159 159.711 219.032 157.697 245.215C157.377 249.275 156.226 267.785 156.929 270.502C157.633 273.22 157.409 272.261 157.473 273.635C157.537 275.042 156.834 275.969 157.697 278.335C158.304 279.965 157.888 283.77 156.961 285.017C156.066 286.263 148.266 285.56 148.266 285.56C148.266 285.56 150.983 277.44 150.344 276.257C149.705 275.106 150.696 274.307 150.728 273.923C150.951 271.845 142.864 252.727 143.119 233.322C143.215 226.385 142.672 219.351 142.672 219.351L140.498 192.561L155.043 194.607L155.107 194.639Z" fill="#F2AD86"/>
<path d="M145.613 291.474C147.467 293.169 151.239 293.329 152.774 292.945C154.404 292.529 158.016 291.922 158.464 290.771C158.528 290.579 158.56 290.387 158.592 290.132C158.911 290.803 159.167 291.474 158.911 291.634C158.4 291.954 154.404 293.968 152.454 294C150.504 294.064 145.421 293.648 145.517 292.529C145.517 292.146 145.581 291.794 145.645 291.442L145.613 291.474Z" fill="#1B1B2B"/>
<path d="M152.773 292.945C151.271 293.329 147.498 293.169 145.612 291.474C145.612 291.474 145.612 291.474 145.58 291.442C144.493 290.451 146.699 285.368 146.699 285.368C146.699 285.368 151.398 281.148 153.157 280.413C154.915 279.678 155.49 280.221 157.568 281.628C159.646 283.034 158.208 285.912 158.208 285.912L158.016 286.807C158.016 286.807 158.655 288.789 158.559 290.1C158.559 290.324 158.495 290.547 158.431 290.739C157.984 291.89 154.371 292.497 152.741 292.913L152.773 292.945Z" fill="#1B1B2B"/>
<path d="M166.2 194.639C166.2 194.639 165.593 208.226 165.561 213.693C165.529 219.159 161.597 219.032 163.611 245.215C163.931 249.275 165.081 267.785 164.378 270.502C163.675 273.22 163.899 272.261 163.835 273.635C163.771 275.042 164.474 275.969 163.611 278.335C163.004 279.965 163.419 283.77 164.346 285.017C165.241 286.263 173.041 285.56 173.041 285.56C173.041 285.56 170.324 277.44 170.963 276.257C171.603 275.106 170.612 274.307 170.58 273.923C170.356 271.845 178.444 252.727 178.188 233.322C178.092 226.385 178.636 219.351 178.636 219.351L180.809 192.561L166.264 194.607L166.2 194.639Z" fill="#F2AD86"/>
<path d="M175.663 291.474C173.809 293.169 170.036 293.329 168.502 292.945C166.872 292.529 163.259 291.922 162.812 290.771C162.748 290.579 162.716 290.387 162.684 290.132C162.364 290.803 162.108 291.474 162.364 291.634C162.876 291.954 166.872 293.968 168.822 294C170.772 294.064 175.854 293.648 175.759 292.529C175.759 292.146 175.695 291.794 175.631 291.442L175.663 291.474Z" fill="#1B1B2B"/>
<path d="M168.535 292.945C170.037 293.329 173.809 293.169 175.695 291.474C175.695 291.474 175.695 291.474 175.727 291.442C176.814 290.451 174.609 285.368 174.609 285.368C174.609 285.368 169.909 281.148 168.151 280.413C166.393 279.678 165.817 280.221 163.74 281.628C161.662 283.034 163.1 285.912 163.1 285.912L163.292 286.807C163.292 286.807 162.653 288.789 162.749 290.1C162.749 290.324 162.813 290.547 162.876 290.739C163.324 291.89 166.936 292.497 168.567 292.913L168.535 292.945Z" fill="#1B1B2B"/>
<path d="M147.722 136.135C147.722 136.135 138.196 140.547 137.045 149.146C135.894 157.746 137.045 219.991 137.045 219.991C137.045 219.991 152.677 221.621 160.317 221.397C160.477 221.397 160.637 221.397 160.797 221.397V133.961C157.056 133.833 152.741 134.409 147.722 136.167V136.135Z" fill="#202C52"/>
<path d="M181.385 147.036C181.385 147.036 175.726 134.472 160.766 133.897V221.333C168.598 221.046 185.029 219.479 185.029 219.479L181.385 147.036Z" fill="#1D1F2D"/>
<path d="M170.803 72.5796L185.891 78.8456L180.872 100.681C180.872 100.681 176.301 113.309 176.94 120.278C177.548 127.247 180.649 133.673 181.032 136.678C181.416 139.683 182.183 148.667 182.183 148.667L159.198 147.964L157.408 112.829C157.408 112.829 166.775 87.5093 167.382 84.5042C167.989 81.4991 170.803 72.5796 170.803 72.5796Z" fill="#151721"/>
<path d="M147.723 72.5796L132.635 78.8456L137.654 100.681C137.654 100.681 142.225 113.309 141.586 120.278C140.978 127.247 137.877 133.673 137.494 136.678C137.11 139.683 136.343 148.667 136.343 148.667L159.328 147.964L161.118 112.829C161.118 112.829 151.751 87.5093 151.144 84.5042C150.537 81.4991 147.723 72.5796 147.723 72.5796Z" fill="#1D1F2D"/>
<path d="M159.903 113.596C159.903 114.236 159.392 114.747 158.752 114.747C158.113 114.747 157.602 114.236 157.602 113.596C157.602 112.957 158.113 112.445 158.752 112.445C159.392 112.445 159.903 112.957 159.903 113.596Z" fill="#0B0E1E"/>
<path d="M160.03 125.617C160.03 126.256 159.519 126.768 158.879 126.768C158.24 126.768 157.729 126.256 157.729 125.617C157.729 124.978 158.24 124.466 158.879 124.466C159.519 124.466 160.03 124.978 160.03 125.617Z" fill="#0B0E1E"/>
<path d="M159.167 77.8865C156.61 77.8865 154.02 77.8226 151.463 77.6947C152.933 84.0886 156.578 97.1321 158.911 105.508C158.975 105.22 159.071 104.965 159.135 104.677V77.8865H159.167Z" fill="#F3F6FF"/>
<path d="M151.494 77.6947C154.051 77.8226 156.641 77.8865 159.198 77.8865V59.1844L152.996 57.6499C152.996 57.6499 153.476 67.7203 151.91 70.6614C151.654 71.173 151.174 71.6525 150.631 72.132C150.631 72.8673 150.727 73.7625 150.887 74.9134C150.983 75.5847 151.206 76.5438 151.462 77.6947H151.494Z" fill="#F2AD86"/>
<path d="M166.424 77.7267C166.744 76.384 166.967 75.329 167.095 74.5937C167.287 73.4428 167.351 72.5157 167.383 71.7804C166.999 71.3967 166.68 71.0131 166.488 70.6614C164.953 67.7203 165.401 57.6499 165.401 57.6499L159.199 59.1844V77.8865C161.597 77.8865 164.026 77.8226 166.424 77.7267Z" fill="#F2AD86"/>
<path d="M166.424 77.7267C164.026 77.8226 161.597 77.8865 159.199 77.8865V104.677C161.501 96.4608 164.921 84.1206 166.424 77.7267Z" fill="#EAEDF4"/>
<path d="M159.167 104.645C159.071 104.933 159.007 105.22 158.943 105.476C159.039 105.764 159.103 106.052 159.167 106.307V104.613V104.645Z" fill="#262837"/>
<path d="M170.26 79.453L173.744 79.1333L173.457 77.2471L173.169 75.297L172.849 73.1231C172.849 73.1231 168.214 70.022 167.894 68.7752C167.575 67.5284 166.04 68.9351 166.04 68.9351C166.04 68.9351 167.415 68.5834 167.383 71.7804C167.383 72.5157 167.287 73.4428 167.095 74.5937C166.967 75.329 166.744 76.384 166.424 77.7267C164.921 84.1206 161.501 96.4288 159.199 104.677V106.371C159.455 107.298 159.711 108.162 159.934 108.961C159.998 109.153 160.062 109.376 160.094 109.568C162.044 107.362 164.506 104.261 166.232 100.809C169.557 94.159 173.744 81.9147 173.744 81.9147L173.265 81.563L170.292 79.517L170.26 79.453Z" fill="#202C52"/>
<path d="M160.094 109.504C160.03 109.313 159.998 109.121 159.934 108.897C159.711 108.13 159.455 107.235 159.199 106.307C159.135 106.02 159.039 105.764 158.975 105.476C156.61 97.1322 152.997 84.0886 151.527 77.6628C151.271 76.4799 151.047 75.5208 150.951 74.8814C150.76 73.7305 150.696 72.8354 150.664 72.1001C150.632 68.8712 152.006 69.2228 152.006 69.2228C152.006 69.2228 150.472 67.8162 150.152 69.063C149.833 70.3098 145.197 73.4108 145.197 73.4108L144.878 75.4569L144.59 77.2152L144.238 79.4531L147.723 79.7727L145.133 81.563L144.238 82.1705C144.238 82.1705 148.426 94.4148 151.751 101.064C153.445 104.453 155.811 107.49 157.761 109.696C158.144 110.144 158.496 110.527 158.847 110.879C160.19 112.286 161.117 113.149 161.117 113.149C161.117 113.149 160.734 111.774 160.094 109.536V109.504Z" fill="#202C52"/>
<path d="M184.995 163.181L182.438 168.072L181.287 176.448L181.863 180.86C181.863 180.86 183.493 180.285 183.589 179.006C183.717 177.727 183.813 175.649 183.813 175.649L184.963 172.74L185.187 177.28L183.909 180.54L182.054 182.523C182.054 182.523 179.849 183.929 179.625 184.856C179.401 185.783 179.625 186.359 179.625 186.359L181.127 185.56C181.127 185.56 181.255 186.711 181.831 186.711C182.406 186.711 187.873 183.098 187.873 183.098L188.448 182.171C188.448 182.171 188.8 182.043 189.503 181.372L190.206 180.668L192.188 174.978L191.261 162.318L184.995 163.245V163.181Z" fill="#FFC197"/>
<path d="M185.795 78.8456C187.618 78.6858 188.481 85.7191 188.577 91.8892C188.704 98.0273 190.655 121.717 192.189 126.608C193.691 131.499 192.061 157.842 192.189 161.199C192.317 164.556 192.668 166.538 192.668 166.538L183.27 164.332C183.27 164.332 182.215 139.268 181.192 135.304C180.137 131.371 181.416 122.772 181.416 122.772L178.986 106.531C178.986 106.531 182.599 79.1334 185.827 78.8456H185.795Z" fill="#1D1F2D"/>
<path d="M132.538 163.181L135.096 168.072L136.247 176.448L135.671 180.86C135.671 180.86 134.041 180.285 133.945 179.006C133.817 177.727 133.721 175.649 133.721 175.649L132.57 172.74L132.347 177.28L133.625 180.54L135.479 182.523C135.479 182.523 137.685 183.929 137.909 184.856C138.133 185.783 137.909 186.359 137.909 186.359L136.407 185.56C136.407 185.56 136.279 186.711 135.703 186.711C135.128 186.711 129.661 183.098 129.661 183.098L129.086 182.171C129.086 182.171 128.734 182.043 128.031 181.372L127.328 180.668L125.346 174.978L126.273 162.318L132.538 163.245V163.181Z" fill="#FFC197"/>
<path d="M131.739 78.8456C129.917 78.6858 129.054 85.7191 128.958 91.8892C128.83 98.0273 126.88 121.717 125.345 126.608C123.843 131.499 125.473 157.842 125.345 161.199C125.217 164.556 124.866 166.538 124.866 166.538L134.264 164.332C134.264 164.332 135.319 139.268 136.342 135.304C137.397 131.371 136.118 122.772 136.118 122.772L138.548 106.531C138.548 106.531 134.936 79.1334 131.707 78.8456H131.739Z" fill="#1D1F2D"/>
<path d="M147.851 50.4887C147.851 50.4887 146.828 46.3007 145.933 47.068C145.038 47.8353 145.613 55.476 146.7 56.8187C147.819 58.1614 150.44 55.2522 150.44 55.2522L147.851 50.5207V50.4887Z" fill="#F2AD86"/>
<path d="M152.966 35.4631C152.966 35.4631 150.504 35.559 148.49 40.8339C146.477 46.1089 148.139 55.8276 148.139 55.8276C148.139 55.8276 149.226 60.5271 151.272 63.3724C153.062 65.866 157.058 69.031 159.104 70.0221C160.862 70.8852 160.414 70.2458 160.414 70.2458L160.734 30.7316L152.966 35.4311V35.4631Z" fill="#FFC197"/>
<path d="M172.274 50.8404C172.274 50.8404 174.383 46.1728 175.278 46.9401C176.174 47.7074 175.278 54.8685 174.16 56.2113C173.041 57.554 171.922 54.6448 171.922 54.6448L172.242 50.8404H172.274Z" fill="#F2AD86"/>
<path d="M167.895 35.4631C167.895 35.4631 170.356 35.559 172.37 40.8339C174.384 46.1089 172.69 55.8276 172.69 55.8276C172.69 55.8276 171.603 60.5271 169.557 63.3724C167.767 65.866 163.771 69.031 161.725 70.0221C159.967 70.8852 160.414 70.2458 160.414 70.2458L160.734 30.7316L167.863 35.4311L167.895 35.4631Z" fill="#FFC197"/>
<path d="M162.972 29.0692L163.1 31.0833C163.164 32.2022 162.365 33.2252 161.246 33.3531C159.743 33.5449 157.729 33.9285 156.387 34.6958C154.021 36.1025 153.35 38.2125 153.35 38.2125C153.35 38.2125 152.678 36.2943 154.66 33.8007C156.642 31.2751 152.103 35.1114 150.792 38.0846C149.482 41.0577 150.089 45.3416 150.089 45.3416C150.089 45.3416 148.075 43.4874 148.267 40.2585C148.459 37.0296 148.043 32.2981 152.231 29.0053C155.364 26.5436 160.383 27.8544 162.109 28.6216C162.684 28.8774 163.036 29.0692 163.036 29.0692H162.972Z" fill="#DFEEEF"/>
<path d="M170.26 40.5142C170.26 40.5142 165.209 38.9158 163.77 37.5411C162.332 36.1664 162.556 31.6587 162.556 31.6587L162.971 29.229C162.971 29.229 167.511 27.151 170.931 30.284C174.352 33.417 171.475 44.5424 171.475 44.5424C171.475 44.5424 172.082 41.8889 170.611 39.0756C169.173 36.2623 168.246 36.4861 168.246 36.4861L170.228 40.5462L170.26 40.5142Z" fill="#DFEEEF"/>
<path d="M91.7789 56.531L91.0117 65.7382C91.0117 65.7382 95.0716 73.7305 98.684 72.3559C102.296 71.0131 107.571 67.6883 107.571 67.6883L105.621 56.2433L91.747 56.531H91.7789Z" fill="#F2AD86"/>
<path d="M114.668 70.3098H87.5273V119.607H114.668V70.3098Z" fill="#EAEDF4"/>
<path d="M104.757 100.457L101.624 73.8584L99.834 74.4658V118.967L104.757 100.457Z" fill="#2F4C35"/>
<path d="M94.9121 100.457L98.0449 73.8584L99.8351 74.4658V118.967L94.9121 100.457Z" fill="#2F4C35"/>
<path d="M95.5195 70.118L98.1728 75.361H99.8352V69.9582L95.5195 70.118Z" fill="#3C5B45"/>
<path d="M104.152 70.118L101.466 75.361H99.8359V69.9582L104.152 70.118Z" fill="#3C5B45"/>
<path d="M106.836 75.361C106.836 75.361 109.393 67.6883 109.234 66.4735C109.074 65.2586 107.443 62.4134 107.443 62.4134C107.443 62.4134 107.443 64.2037 103.831 66.6014C100.219 68.9991 99.0039 70.3738 99.0039 70.3738C99.0039 70.3738 100.858 70.2459 103.064 71.7165L106.836 75.329V75.361Z" fill="#F3F6FF"/>
<path d="M99.6431 70.3738C99.6431 70.3738 97.6931 70.086 95.5832 71.7165C93.4733 73.3789 91.811 75.329 91.811 75.329C91.811 75.329 89.2536 67.6564 89.4134 66.4415C89.5733 65.2267 91.1077 62.5093 91.1077 62.5093C91.1077 62.5093 91.2356 64.1717 94.8479 66.6014C98.4603 68.9991 99.6751 70.3738 99.6751 70.3738H99.6431Z" fill="#F3F6FF"/>
<path d="M127.456 155.412C127.456 155.412 124.483 158.833 124.771 163.245C125.09 167.657 125.634 169.735 125.634 169.735L125.378 171.813C125.378 171.813 127.008 171.813 128.031 169.447C129.054 167.081 128.767 163.852 128.767 163.852C128.767 163.852 129.662 167.113 129.662 168.584C129.662 170.054 128.031 174.338 128.031 174.786C128.031 175.234 126.113 175.681 125.218 176.704C124.323 177.727 124.195 179.645 124.195 179.645L129.662 177.28L133.658 169.447V158.386L127.616 154.997L127.456 155.444V155.412Z" fill="#FFC197"/>
<path d="M126.561 79.7088C126.561 79.7088 128.383 73.5067 129.63 74.0822C130.877 74.6576 135.672 80.5081 137.046 90.3227C138.677 102.119 139.796 115.93 140.147 123.955C140.755 138.533 134.137 162.19 133.658 160.4L125.826 157.139C125.826 157.139 128.511 136.934 128.543 125.873C128.575 114.811 124.355 114.492 124.643 102.247C124.931 90.003 126.561 79.6769 126.561 79.6769V79.7088Z" fill="#2F4C35"/>
<path d="M80.6227 281.628C80.6227 281.628 78.5129 283.13 78.6727 283.898C78.8325 284.665 79.7916 287.83 83.7236 288.278C87.6556 288.725 90.8843 287.99 92.227 287.063C93.5696 286.168 95.3918 283.45 92.9942 281.34L80.6227 281.628Z" fill="#151721"/>
<path d="M94.0177 280.733C94.0177 282.235 95.2325 285.72 89.9578 286.327C84.6832 286.935 79.5684 286.04 79.5684 282.875C79.5684 281.724 79.7282 280.029 79.952 278.399C80.3036 275.554 80.7831 272.772 80.7831 272.772L81.3586 271.557L83.6602 266.762L93.4423 267.082L93.8899 267.242C93.8899 267.242 94.1456 269.511 94.1456 271.717C94.1456 272.996 94.1136 274.307 93.8899 275.074C93.6341 276.001 93.6022 276.96 93.6981 277.823C93.794 278.942 94.0177 279.965 94.0177 280.797V280.733Z" fill="#2F4C35"/>
<path d="M87.4955 273.092C87.4955 273.699 87.3357 274.211 86.8562 274.403C85.8652 274.786 82.0291 277.696 79.9512 278.367C80.3028 275.522 80.7823 272.74 80.7823 272.74L81.3577 271.526C83.1799 271.046 86.5045 270.247 86.8562 270.79C87.1439 271.238 87.4955 272.261 87.4955 273.092Z" fill="#151721"/>
<path d="M93.8889 275.01C93.6332 275.937 93.6012 276.896 93.6971 277.76C91.5872 276.673 88.9339 274.722 88.1667 274.403C87.6872 274.211 87.5273 273.699 87.5273 273.092C87.5273 272.229 87.879 271.206 88.1667 270.79C88.5823 270.183 92.5463 271.206 94.1766 271.653C94.1766 272.932 94.1446 274.243 93.9209 275.01H93.8889Z" fill="#151721"/>
<path d="M118.792 281.628C118.792 281.628 120.902 283.13 120.742 283.898C120.582 284.665 119.623 287.83 115.691 288.278C111.759 288.725 108.53 287.99 107.187 287.063C105.845 286.168 104.023 283.45 106.42 281.34L118.792 281.628Z" fill="#151721"/>
<path d="M105.397 280.733C105.397 282.235 104.183 285.72 109.457 286.327C114.732 286.935 119.847 286.04 119.847 282.875C119.847 281.724 119.687 280.029 119.463 278.399C119.112 275.554 118.632 272.772 118.632 272.772L118.057 271.557L115.755 266.762L105.973 267.082L105.525 267.242C105.525 267.242 105.27 269.511 105.27 271.717C105.27 272.996 105.301 274.307 105.525 275.074C105.781 276.001 105.813 276.96 105.717 277.823C105.621 278.942 105.397 279.965 105.397 280.797V280.733Z" fill="#2F4C35"/>
<path d="M111.92 273.092C111.92 273.699 112.08 274.211 112.559 274.403C113.55 274.786 117.386 277.696 119.464 278.367C119.113 275.522 118.633 272.74 118.633 272.74L118.058 271.526C116.236 271.046 112.911 270.247 112.559 270.79C112.272 271.238 111.92 272.261 111.92 273.092Z" fill="#151721"/>
<path d="M105.526 275.01C105.782 275.937 105.814 276.896 105.718 277.76C107.828 276.673 110.481 274.722 111.248 274.403C111.728 274.211 111.888 273.699 111.888 273.092C111.888 272.229 111.536 271.206 111.248 270.79C110.833 270.183 106.869 271.206 105.238 271.653C105.238 272.932 105.27 274.243 105.494 275.01H105.526Z" fill="#151721"/>
<path d="M126.275 144.927C125.827 140.547 118.922 138.756 118.922 138.756L112.497 139.172C113.296 155.988 115.086 195.79 114.862 203.143C114.638 210.56 112.497 253.942 111.602 273.667C113.647 273.731 117.707 270.63 117.707 270.63C117.707 270.63 126.722 149.306 126.275 144.927Z" fill="#3C5B45"/>
<path d="M112.497 139.172L99.166 139.971V176.161L102.938 270.79C102.938 270.79 109.428 273.348 111.378 273.667C111.442 273.667 111.506 273.667 111.601 273.667C112.465 253.942 114.606 210.56 114.862 203.143C115.086 195.822 113.296 155.988 112.497 139.172Z" fill="#56725D"/>
<path d="M73.3997 146.653C73.8473 142.273 79.4096 138.756 79.4096 138.756L85.8351 139.172C85.0359 155.988 83.2457 195.79 83.4695 203.143C83.6933 210.56 85.8351 253.942 86.7302 273.667C84.6843 273.731 80.6244 270.63 80.6244 270.63C80.6244 270.63 72.9522 151.033 73.3997 146.653Z" fill="#56725D"/>
<path d="M85.836 139.172L99.1665 139.971V176.161L95.3943 270.79C95.3943 270.79 88.9049 273.348 86.9548 273.667C86.8909 273.667 86.827 273.667 86.7311 273.667C85.8679 253.942 83.7261 210.56 83.4704 203.143C83.2466 195.822 85.0368 155.988 85.836 139.172Z" fill="#2F4C35"/>
<g style="mix-blend-mode:multiply">
<g style="mix-blend-mode:multiply">
<path d="M99.1658 69.9582C99.1658 69.9582 97.2477 68.6154 95.2977 69.9582C93.3477 71.3009 91.7812 76.2561 91.7812 76.2561C91.7812 76.2561 94.2428 71.7484 98.3027 71.9083C102.363 72.0681 102.011 71.6206 102.874 72.0681C103.737 72.5157 106.998 76.448 106.998 76.448C106.998 76.448 107.861 68.1679 99.1338 69.9582H99.1658Z" fill="#A2D4DD"/>
</g>
</g>
<path d="M87.5606 67.017L71.353 71.9083C71.353 71.9083 72.9514 94.7665 73.3989 99.8816C73.8465 104.997 76.5637 117.816 75.9564 126.704C75.349 135.591 66.5898 162.67 66.5898 162.67C66.5898 162.67 84.8434 170.566 89.2229 168.168C93.6025 165.771 101.115 147.964 101.722 135.304C102.33 122.644 100.06 118.04 100.06 118.04L87.5606 67.017Z" fill="#3C5B45"/>
<path d="M126.498 99.5619C126.05 104.677 123.333 117.497 123.94 126.384C124.132 129.198 124.452 132.203 124.803 135.016C125.059 137.222 125.379 139.3 125.635 141.026C126.082 143.999 128.448 160.528 128.448 160.528C128.448 160.528 115.661 167.305 111.281 164.875C106.901 162.478 98.7497 147.644 98.1424 134.984C97.535 122.324 99.8047 117.721 99.8047 117.721L112.336 66.6973L129.63 74.0822C129.63 74.0822 126.945 94.4467 126.498 99.5619Z" fill="#2F4C35"/>
<path d="M102.873 120.342H99.9961V121.141H102.873V120.342Z" fill="#0E131C"/>
<path d="M103.416 135.655H99.8672V136.551H103.416V135.655Z" fill="#0E131C"/>
<path d="M84.396 67.4645L91.1092 62.5093C91.1092 62.5093 89.7026 67.0809 90.4698 69.7344C91.269 72.3878 99.6765 117.145 99.6765 117.145C99.6765 117.145 94.3379 110.24 89.7985 98.9544C85.2591 87.6692 81.1992 74.3699 81.1992 74.3699L85.2591 72.8674L82.9894 71.6525L84.332 67.4326L84.396 67.4645Z" fill="#56725D"/>
<path d="M113.934 67.4645L107.604 62.3494C107.604 62.3494 108.627 67.1129 107.86 69.7663C107.061 72.4198 99.3887 118.967 99.3887 118.967C99.3887 118.967 103.992 110.304 108.531 98.9864C113.039 87.6692 117.131 74.4019 117.131 74.4019L113.071 72.8993L115.341 71.6845L113.998 67.4645H113.934Z" fill="#56725D"/>
<path d="M125.634 135.591C123.588 137.989 118.473 140.163 118.473 140.163L116.107 134.153C116.107 134.153 119.848 133.13 122.661 131.563C123.684 130.988 124.355 130.285 124.835 129.581C125.09 131.787 125.41 133.865 125.666 135.591H125.634Z" fill="#3C5B45"/>
<path d="M74.1667 135.591C76.2127 137.989 81.3275 140.163 81.3275 140.163L83.6931 134.153C83.6931 134.153 79.9529 133.13 77.1397 131.563C76.1168 130.988 75.4454 130.285 74.9659 129.581C74.7102 131.787 74.3905 133.865 74.1348 135.591H74.1667Z" fill="#56725D"/>
<path d="M86.6343 39.6831C86.6343 39.6831 84.7162 37.7649 83.7572 38.5961C82.7981 39.4273 83.4055 47.5795 84.5883 49.0182C85.7711 50.4568 87.5933 50.3289 87.5933 50.3289L86.6343 39.6831Z" fill="#F2AD86"/>
<path d="M91.4297 27.4388C91.4297 27.4388 88.8083 27.5667 86.6345 33.1933C84.4927 38.8199 86.2829 49.2419 86.2829 49.2419C86.2829 49.2419 86.8583 54.5169 89.0321 57.554C91.11 60.4952 93.1879 63.4044 95.106 64.2356C97.024 65.0668 99.3257 64.6832 99.3257 64.6832V26.8314L91.4297 27.4388Z" fill="#FFC197"/>
<path d="M112.018 39.6831C112.018 39.6831 113.936 37.7649 114.895 38.5961C115.854 39.4273 115.246 47.5795 114.064 49.0182C112.881 50.4568 111.059 50.3289 111.059 50.3289L112.018 39.6831Z" fill="#F2AD86"/>
<path d="M107.222 27.4388C107.222 27.4388 109.844 27.5667 112.017 33.1933C114.159 38.8199 112.369 49.2419 112.369 49.2419C112.369 49.2419 111.794 54.5169 109.62 57.554C107.542 60.4952 105.464 63.4044 103.546 64.2356C101.628 65.0668 99.3262 64.6832 99.3262 64.6832V26.8314L107.222 27.4388Z" fill="#FFC197"/>
<path d="M72.6314 153.175C72.6314 153.175 75.6044 156.595 75.3167 161.007C74.997 165.419 74.4536 167.497 74.4536 167.497L74.7093 169.575C74.7093 169.575 73.079 169.575 72.056 167.209C71.033 164.843 71.3207 161.615 71.3207 161.615C71.3207 161.615 70.4256 164.875 70.4256 166.346C70.4256 167.817 72.056 172.101 72.056 172.548C72.056 172.996 73.974 173.443 74.8691 174.466C75.7642 175.489 75.8921 177.407 75.8921 177.407L70.4256 175.042L66.4297 167.209V156.148L72.4716 152.759L72.6314 153.207V153.175Z" fill="#FFC197"/>
<path d="M73.526 77.5029C73.526 77.5029 71.7038 71.3009 70.4571 71.8763C69.2104 72.4518 64.4152 78.3022 63.0406 88.1168C61.4103 99.9135 60.2914 113.724 59.9397 121.749C59.3324 136.327 65.9497 159.984 66.4292 158.194L74.2612 154.933C74.2612 154.933 71.576 134.728 71.544 123.667C71.512 112.605 75.7318 112.286 75.4441 100.041C75.1563 87.7971 73.526 77.471 73.526 77.471V77.5029Z" fill="#2F4C35"/>
<path d="M97.0545 30.38C97.0545 30.38 91.3962 29.5488 88.4872 32.1063C85.6421 34.5999 86.0257 40.866 86.0257 40.834C86.0257 40.834 84.1715 36.2624 85.1625 33.9606C86.1216 31.6588 83.9158 26.0641 88.0077 25.137C92.0995 24.2099 95.9676 24.4017 95.9676 24.4017L97.0545 30.348V30.38Z" fill="#1D1F2D"/>
<path d="M97.0549 30.38C97.0549 30.38 104.152 29.1332 108.947 30.5718C113.71 32.0104 110.961 36.646 112.847 38.7879C114.701 40.9299 113.039 42.7521 113.039 42.7521C113.039 42.7521 116.907 36.4861 114.637 31.1472C112.367 25.8083 112.463 22.2597 103.608 23.0909C97.9181 23.6344 96 24.4656 96 24.4656L97.0869 30.4119L97.0549 30.38Z" fill="#1D1F2D"/>
</svg>
