<svg width="368" height="372" viewBox="0 0 368 372" fill="none" xmlns="http://www.w3.org/2000/svg">
<path d="M300.492 19.6176C300.492 29.8854 292.677 38.2354 283.027 38.2354C273.378 38.2354 265.562 29.9253 265.562 19.6176C265.562 9.30983 273.338 0.99971 282.987 0.99971C292.637 0.99971 300.452 9.30983 300.452 19.6176H300.492Z" fill="#1E2D3A"/>
<path d="M277.205 185.5C277.205 185.5 277.883 200.482 277.923 206.515C277.963 212.548 282.309 212.388 280.076 241.274C279.717 245.749 278.441 266.164 279.239 269.161C280.036 272.157 279.757 271.079 279.837 272.637C279.877 274.195 279.119 275.194 280.076 277.83C280.754 279.628 280.275 283.823 279.278 285.182C278.282 286.54 269.709 285.781 269.709 285.781C269.709 285.781 272.699 276.832 271.982 275.553C271.264 274.275 272.38 273.396 272.42 272.956C272.659 270.679 263.768 249.584 264.047 228.17C264.166 220.499 263.568 212.748 263.568 212.748L261.176 183.223L277.205 185.5Z" fill="#F2AD86"/>
<path d="M266.758 292.253C268.831 294.131 272.978 294.291 274.613 293.891C276.407 293.412 280.395 292.773 280.873 291.494C280.953 291.294 280.993 291.055 280.993 290.815C281.352 291.534 281.631 292.293 281.352 292.453C280.793 292.813 276.407 295.01 274.254 295.09C272.101 295.17 266.519 294.69 266.599 293.492C266.599 293.092 266.678 292.653 266.718 292.293L266.758 292.253Z" fill="#1B1B2B"/>
<path d="M274.613 293.891C272.938 294.331 268.791 294.131 266.757 292.253C266.757 292.253 266.757 292.253 266.718 292.253C265.521 291.135 267.954 285.581 267.954 285.581C267.954 285.581 273.137 280.947 275.051 280.148C277.005 279.349 277.603 279.948 279.916 281.506C282.228 283.064 280.633 286.221 280.633 286.221L280.434 287.219C280.434 287.219 281.112 289.417 281.032 290.855C281.032 291.135 280.992 291.334 280.913 291.534C280.434 292.813 276.447 293.492 274.652 293.931L274.613 293.891Z" fill="#1B1B2B"/>
<path d="M289.405 185.5C289.405 185.5 288.727 200.482 288.687 206.515C288.647 212.548 284.301 212.388 286.534 241.274C286.893 245.749 288.169 266.164 287.371 269.161C286.574 272.157 286.853 271.079 286.773 272.637C286.733 274.195 287.491 275.194 286.534 277.831C285.856 279.628 286.335 283.823 287.332 285.182C288.328 286.54 296.901 285.781 296.901 285.781C296.901 285.781 293.911 276.832 294.628 275.553C295.346 274.275 294.23 273.396 294.19 272.956C293.951 270.679 302.842 249.584 302.563 228.17C302.444 220.499 303.042 212.748 303.042 212.748L305.434 183.223L289.405 185.5Z" fill="#F2AD86"/>
<path d="M299.813 292.253C297.739 294.131 293.593 294.291 291.958 293.891C290.163 293.412 286.176 292.773 285.698 291.494C285.618 291.294 285.578 291.055 285.578 290.815C285.219 291.534 284.94 292.293 285.219 292.453C285.777 292.813 290.163 295.01 292.317 295.09C294.47 295.17 300.052 294.69 299.972 293.492C299.972 293.092 299.893 292.653 299.853 292.293L299.813 292.253Z" fill="#1B1B2B"/>
<path d="M291.957 293.891C293.632 294.331 297.779 294.131 299.812 292.253C299.812 292.253 299.812 292.253 299.852 292.253C301.048 291.135 298.616 285.581 298.616 285.581C298.616 285.581 293.433 280.947 291.519 280.148C289.565 279.349 288.967 279.948 286.654 281.506C284.341 283.064 285.936 286.221 285.936 286.221L286.136 287.219C286.136 287.219 285.458 289.417 285.538 290.855C285.538 291.135 285.578 291.334 285.657 291.534C286.136 292.813 290.123 293.492 291.917 293.931L291.957 293.891Z" fill="#1B1B2B"/>
<path d="M269.07 120.977C269.07 120.977 258.583 125.851 257.307 135.32C256.031 144.789 257.307 213.427 257.307 213.427C257.307 213.427 274.493 215.225 282.906 214.945C283.066 214.945 283.265 214.945 283.425 214.945V118.54C279.278 118.38 274.533 119.019 269.07 120.977Z" fill="#202C52"/>
<path d="M306.112 133.003C306.112 133.003 299.892 119.139 283.424 118.54V214.945C292.037 214.626 310.139 212.908 310.139 212.908L306.112 133.003Z" fill="#1D1F2D"/>
<path d="M294.469 50.9004L311.096 57.8121L305.554 81.8635C305.554 81.8635 300.53 95.767 301.208 103.438C301.886 111.109 305.315 118.22 305.714 121.536C306.152 124.852 306.99 134.761 306.99 134.761L281.71 134.002L279.756 95.2476C279.756 95.2476 290.043 67.3208 290.761 64.0048C291.479 60.6887 294.509 50.8604 294.509 50.8604L294.469 50.9004Z" fill="#151721"/>
<path d="M269.071 50.9004L252.443 57.8121L257.986 81.8635C257.986 81.8635 263.01 95.767 262.332 103.438C261.654 111.109 258.225 118.22 257.826 121.536C257.388 124.852 256.55 134.761 256.55 134.761L281.83 134.002L283.784 95.2476C283.784 95.2476 273.497 67.3208 272.779 64.0048C272.101 60.6887 269.031 50.8604 269.031 50.8604L269.071 50.9004Z" fill="#1D1F2D"/>
<path d="M282.507 96.1266C282.507 96.8457 281.949 97.4051 281.231 97.4051C280.513 97.4051 279.955 96.8457 279.955 96.1266C279.955 95.4074 280.513 94.8481 281.231 94.8481C281.949 94.8481 282.507 95.4074 282.507 96.1266Z" fill="#0B0E1E"/>
<path d="M282.628 109.391C282.628 110.11 282.07 110.669 281.352 110.669C280.634 110.669 280.076 110.11 280.076 109.391C280.076 108.672 280.634 108.112 281.352 108.112C282.07 108.112 282.628 108.672 282.628 109.391Z" fill="#0B0E1E"/>
<path d="M281.671 56.7334C278.84 56.7334 276.009 56.6535 273.178 56.5337C274.813 63.6053 278.8 77.9882 281.392 87.1772C281.471 86.8576 281.551 86.5779 281.671 86.2583V56.7334Z" fill="#F3F6FF"/>
<path d="M273.218 56.5337C276.049 56.6535 278.88 56.7334 281.711 56.7334V36.118L274.893 34.4C274.893 34.4 275.411 45.5068 273.696 48.7429C273.417 49.3023 272.899 49.8616 272.301 50.381C272.301 51.18 272.381 52.1789 272.58 53.4573C272.7 54.1765 272.939 55.2552 273.218 56.5337Z" fill="#F2AD86"/>
<path d="M289.645 56.5736C290.004 55.0954 290.243 53.8968 290.362 53.1377C290.562 51.8592 290.641 50.8604 290.681 50.0214C290.243 49.6219 289.924 49.1824 289.685 48.7829C287.97 45.5467 288.488 34.4399 288.488 34.4399L281.67 36.1579V56.7734C284.341 56.7734 286.973 56.7334 289.645 56.6136V56.5736Z" fill="#F2AD86"/>
<path d="M289.645 56.5736C286.973 56.6935 284.341 56.7334 281.67 56.7334V86.2583C284.222 77.1891 287.97 63.6053 289.645 56.5736Z" fill="#EAEDF4"/>
<path d="M281.67 86.2583C281.59 86.578 281.51 86.8976 281.391 87.1772C281.47 87.4969 281.55 87.8165 281.67 88.0961V86.2583Z" fill="#262837"/>
<path d="M293.871 58.4914L297.699 58.1318L297.38 56.0542L297.061 53.8968L296.702 51.4997C296.702 51.4997 291.598 48.1037 291.24 46.7054C290.881 45.347 289.206 46.8652 289.206 46.8652C289.206 46.8652 290.721 46.4657 290.681 49.9815C290.681 50.7805 290.602 51.8193 290.362 53.0978C290.243 53.8968 289.964 55.0954 289.645 56.5337C288.01 63.5653 284.222 77.1891 281.67 86.2184V88.0562C281.949 89.095 282.228 90.0538 282.467 90.8928C282.547 91.1325 282.587 91.3323 282.667 91.572C284.82 89.1349 287.531 85.699 289.405 81.9035C293.074 74.5522 297.659 61.0883 297.659 61.0883L297.101 60.7287L293.831 58.4514L293.871 58.4914Z" fill="#202C52"/>
<path d="M282.667 91.6519C282.588 91.4522 282.548 91.2124 282.468 90.9727C282.229 90.0938 281.95 89.1749 281.671 88.1361C281.591 87.8165 281.511 87.5368 281.391 87.2172C278.8 77.9882 274.812 63.6452 273.178 56.5736C272.898 55.2951 272.659 54.2164 272.54 53.4973C272.34 52.2588 272.26 51.2599 272.221 50.4209C272.221 46.8652 273.696 47.2647 273.696 47.2647C273.696 47.2647 271.981 45.7465 271.662 47.1049C271.303 48.4633 266.2 51.8992 266.2 51.8992L265.841 54.1365L265.522 56.0942L265.123 58.5713L268.951 58.9308L266.12 60.8885L265.123 61.5677C265.123 61.5677 269.709 75.0716 273.377 82.3829C275.251 86.0985 277.843 89.4545 279.996 91.8916C280.435 92.3711 280.833 92.8105 281.192 93.2101C282.667 94.7682 283.704 95.7271 283.704 95.7271C283.704 95.7271 283.266 94.2089 282.588 91.7318L282.667 91.6519Z" fill="#202C52"/>
<path d="M310.101 150.822L307.309 156.215L306.033 165.444L306.671 170.318C306.671 170.318 308.466 169.679 308.585 168.281C308.705 166.882 308.825 164.565 308.825 164.565L310.101 161.369L310.34 166.363L308.944 169.959L306.911 172.116C306.911 172.116 304.478 173.634 304.239 174.673C304 175.712 304.239 176.351 304.239 176.351L305.914 175.472C305.914 175.472 306.033 176.751 306.671 176.751C307.309 176.751 313.33 172.795 313.33 172.795L313.968 171.757C313.968 171.757 314.367 171.637 315.125 170.878L315.882 170.119L318.035 163.846L316.999 149.903L310.101 150.941V150.822Z" fill="#FFC197"/>
<path d="M310.978 57.8122C312.972 57.6523 313.929 65.4031 314.049 72.195C314.168 78.987 316.361 105.116 317.996 110.47C319.671 115.863 317.876 144.909 317.996 148.624C318.116 152.34 318.514 154.497 318.514 154.497L308.147 152.06C308.147 152.06 306.991 124.413 305.835 120.058C304.678 115.703 306.074 106.235 306.074 106.235L303.402 88.2959C303.402 88.2959 307.35 58.0918 310.938 57.7722L310.978 57.8122Z" fill="#1D1F2D"/>
<path d="M252.363 150.822L255.154 156.215L256.43 165.444L255.792 170.318C255.792 170.318 253.997 169.679 253.878 168.281C253.758 166.882 253.639 164.565 253.639 164.565L252.363 161.369L252.123 166.363L253.519 169.959L255.552 172.116C255.552 172.116 257.985 173.634 258.224 174.673C258.463 175.712 258.224 176.351 258.224 176.351L256.549 175.472C256.549 175.472 256.43 176.751 255.792 176.751C255.154 176.751 249.133 172.795 249.133 172.795L248.495 171.757C248.495 171.757 248.096 171.637 247.339 170.878L246.581 170.119L244.428 163.846L245.464 149.903L252.363 150.941V150.822Z" fill="#FFC197"/>
<path d="M251.486 57.8122C249.492 57.6523 248.536 65.4031 248.416 72.195C248.296 78.987 246.103 105.116 244.468 110.47C242.794 115.863 244.588 144.909 244.468 148.624C244.349 152.34 243.95 154.497 243.95 154.497L254.317 152.06C254.317 152.06 255.474 124.413 256.63 120.058C257.786 115.703 256.391 106.235 256.391 106.235L259.062 88.2959C259.062 88.2959 255.115 58.0918 251.526 57.7722L251.486 57.8122Z" fill="#1D1F2D"/>
<path d="M269.231 26.5294C269.231 26.5294 268.114 21.8949 267.118 22.7738C266.121 23.6528 266.759 32.0428 267.995 33.521C269.231 34.9993 272.102 31.7631 272.102 31.7631L269.231 26.5294Z" fill="#F2AD86"/>
<path d="M274.854 9.98903C274.854 9.98903 272.142 10.1089 269.909 15.902C267.676 21.6951 269.55 32.4423 269.55 32.4423C269.55 32.4423 270.747 37.6362 272.98 40.7524C274.973 43.5092 279.359 46.985 281.592 48.1037C283.506 49.0626 283.028 48.3434 283.028 48.3434V9.38974L274.814 9.98903H274.854Z" fill="#FFC197"/>
<path d="M296.065 26.9688C296.065 26.9688 298.417 21.815 299.374 22.6939C300.371 23.5729 299.374 31.4435 298.138 32.9218C296.902 34.4 295.666 31.2038 295.666 31.2038L296.025 27.0088L296.065 26.9688Z" fill="#F2AD86"/>
<path d="M291.28 9.98903C291.28 9.98903 293.991 10.1089 296.224 15.902C298.457 21.6951 296.583 32.4423 296.583 32.4423C296.583 32.4423 295.387 37.6362 293.154 40.7524C291.16 43.5092 286.774 46.985 284.541 48.1037C282.627 49.0626 283.106 48.3434 283.106 48.3434V9.38974L291.32 9.98903H291.28Z" fill="#FFC197"/>
<path d="M288.011 9.74931C288.011 9.74931 284.94 17.1805 279.877 16.741C274.653 16.3015 273.616 19.218 273.856 20.6963C273.856 20.6963 273.856 18.2192 276.607 15.5025L279.358 12.7857C279.358 12.7857 269.43 14.9431 271.503 23.9724C273.616 33.0017 270.028 29.1263 270.068 33.8007C270.107 38.4751 267.117 25.6104 267.436 21.7351C267.715 17.8597 273.696 0.320523 288.011 9.6694V9.74931Z" fill="#1E2D3A"/>
<path d="M166.156 19.7374C166.156 30.0851 174.051 38.4751 183.741 38.4751C193.43 38.4751 201.325 30.0851 201.325 19.7374C201.325 9.38973 193.47 0.99971 183.741 0.99971C174.011 0.99971 166.156 9.38973 166.156 19.7374Z" fill="#ED852F"/>
<path d="M171.061 13.7046C171.061 13.7046 165.439 17.58 166.037 23.6128C166.635 29.6456 166.795 49.4221 165.28 53.8968C163.764 58.3715 162.249 59.5301 165.878 63.6053C169.506 67.6804 180.152 69.7979 180.152 69.7979H183.502V11.5472L171.021 13.6646L171.061 13.7046Z" fill="#ED852F"/>
<path d="M195.982 13.7046C195.982 13.7046 201.604 17.58 201.006 23.6128C200.408 29.6456 200.248 49.4221 201.763 53.8968C203.278 58.3715 204.794 59.5301 201.165 63.6053C197.497 67.6804 186.89 69.7979 186.89 69.7979H183.541V11.5472L196.021 13.6646L195.982 13.7046Z" fill="#ED852F"/>
<path d="M189.602 186.739C189.602 186.739 188.924 201.841 188.884 207.914C188.845 213.986 184.498 213.827 186.731 242.912C187.09 247.427 188.366 267.962 187.569 270.959C186.771 273.955 187.05 272.916 186.971 274.474C186.931 276.033 187.688 277.071 186.731 279.708C186.053 281.506 186.532 285.741 187.529 287.139C188.526 288.498 197.138 287.739 197.138 287.739C197.138 287.739 194.148 278.709 194.866 277.431C195.583 276.153 194.467 275.274 194.427 274.834C194.188 272.557 203.159 251.302 202.84 229.768C202.721 222.057 203.319 214.266 203.319 214.266L205.751 184.541L189.642 186.819L189.602 186.739Z" fill="#F2AD86"/>
<path d="M200.13 294.251C198.056 296.129 193.87 296.328 192.195 295.889C190.361 295.41 186.373 294.77 185.895 293.452C185.815 293.252 185.775 293.012 185.775 292.773C185.416 293.492 185.137 294.291 185.416 294.451C185.975 294.81 190.401 297.008 192.554 297.088C194.707 297.168 200.329 296.688 200.249 295.45C200.249 295.01 200.17 294.611 200.13 294.251Z" fill="#5E0839"/>
<path d="M192.194 295.889C193.869 296.328 198.056 296.129 200.129 294.251C200.129 294.251 200.129 294.251 200.169 294.251C201.365 293.132 198.933 287.539 198.933 287.539C198.933 287.539 193.75 282.864 191.756 282.065C189.802 281.266 189.204 281.866 186.851 283.424C184.539 284.982 186.134 288.178 186.134 288.178L186.333 289.177C186.333 289.177 185.615 291.374 185.735 292.853C185.735 293.132 185.775 293.372 185.855 293.532C186.373 294.81 190.36 295.489 192.155 295.969L192.194 295.889Z" fill="#5E0839"/>
<path d="M177.321 186.739C177.321 186.739 177.999 201.841 178.038 207.914C178.078 213.986 182.425 213.827 180.192 242.912C179.833 247.427 178.557 267.962 179.354 270.959C180.152 273.955 179.873 272.916 179.952 274.474C179.992 276.033 179.235 277.071 180.192 279.708C180.869 281.506 180.391 285.741 179.394 287.139C178.397 288.498 169.785 287.739 169.785 287.739C169.785 287.739 172.775 278.709 172.057 277.431C171.34 276.153 172.456 275.274 172.496 274.834C172.735 272.557 163.764 251.302 164.083 229.768C164.202 222.057 163.604 214.266 163.604 214.266L161.172 184.541L177.281 186.819L177.321 186.739Z" fill="#F2AD86"/>
<path d="M166.835 294.251C168.909 296.129 173.095 296.328 174.77 295.889C176.604 295.41 180.592 294.77 181.07 293.452C181.15 293.252 181.19 293.012 181.19 292.773C181.549 293.492 181.828 294.291 181.549 294.451C180.99 294.81 176.564 297.008 174.411 297.088C172.258 297.168 166.636 296.688 166.716 295.45C166.716 295.01 166.795 294.611 166.835 294.251Z" fill="#5E0839"/>
<path d="M174.729 295.889C173.055 296.328 168.868 296.129 166.795 294.251C166.795 294.251 166.795 294.251 166.755 294.251C165.558 293.132 167.991 287.539 167.991 287.539C167.991 287.539 173.174 282.864 175.168 282.065C177.122 281.266 177.72 281.866 180.033 283.424C182.345 284.982 180.75 288.178 180.75 288.178L180.551 289.177C180.551 289.177 181.269 291.374 181.149 292.853C181.149 293.132 181.109 293.372 181.029 293.532C180.511 294.81 176.524 295.489 174.729 295.969V295.889Z" fill="#5E0839"/>
<path d="M197.777 121.776C197.777 121.776 208.343 126.69 209.619 136.199C210.895 145.748 209.619 213.587 209.619 213.587C209.619 213.587 192.035 215.385 183.582 215.145C183.422 215.145 183.303 119.299 183.303 119.299C187.45 119.139 192.234 119.778 197.777 121.776Z" fill="#44051C"/>
<path d="M160.455 133.922C160.455 133.922 166.715 119.978 183.303 119.339L183.582 215.145C174.889 214.825 156.428 213.107 156.428 213.107L160.455 133.922Z" fill="#540B29"/>
<path d="M172.219 51.2599L155.512 58.2117L161.094 82.4628C161.094 82.4628 166.158 96.4862 165.48 104.197C164.802 111.948 161.373 119.059 160.935 122.415C160.496 125.771 159.659 135.72 159.659 135.72L185.138 134.96L187.092 95.9668C187.092 95.9668 176.724 67.8802 176.047 64.5242C175.369 61.1682 172.259 51.2999 172.259 51.2999L172.219 51.2599Z" fill="#44051C"/>
<path d="M197.777 51.2599L214.484 58.2117L208.902 82.4628C208.902 82.4628 203.838 96.4862 204.516 104.197C205.194 111.948 208.623 119.059 209.061 122.415C209.5 125.771 210.337 135.72 210.337 135.72L184.858 134.96L182.904 95.9668C182.904 95.9668 193.271 67.8802 193.949 64.5242C194.627 61.1682 197.737 51.2999 197.737 51.2999L197.777 51.2599Z" fill="#300012"/>
<path d="M185.575 98.0843C186.279 98.0843 186.851 97.5119 186.851 96.8058C186.851 96.0997 186.279 95.5273 185.575 95.5273C184.87 95.5273 184.299 96.0997 184.299 96.8058C184.299 97.5119 184.87 98.0843 185.575 98.0843Z" fill="#0B0E1E"/>
<path d="M184.141 110.11C184.141 110.829 184.699 111.388 185.417 111.388C186.134 111.388 186.693 110.829 186.693 110.11C186.693 109.391 186.134 108.831 185.417 108.831C184.699 108.831 184.141 109.391 184.141 110.11Z" fill="#0B0E1E"/>
<path d="M185.098 57.133C187.929 57.133 190.8 57.0531 193.631 56.9332C191.996 64.0447 187.969 78.5075 185.377 87.8165C185.297 87.4968 185.217 87.2172 185.098 86.8976V57.1729V57.133Z" fill="#F3F6FF"/>
<path d="M193.631 56.9332C190.8 57.053 187.929 57.133 185.098 57.133V36.3976L191.956 34.6797C191.956 34.6797 191.438 45.8664 193.152 49.1025C193.431 49.6618 193.95 50.2212 194.588 50.7406C194.588 51.5396 194.508 52.5384 194.269 53.8169C194.149 54.536 193.91 55.6148 193.631 56.9332Z" fill="#F2AD86"/>
<path d="M177.082 56.9332C176.723 55.455 176.484 54.2564 176.364 53.4573C176.165 52.1789 176.085 51.1401 176.045 50.341C176.484 49.9415 176.803 49.502 177.042 49.0626C178.756 45.7865 178.238 34.6397 178.238 34.6397L185.096 36.3577V57.093C182.425 57.093 179.753 57.0531 177.082 56.9332Z" fill="#F2AD86"/>
<path d="M177.082 56.9332C179.754 57.0531 182.425 57.093 185.097 57.093V86.8177C182.545 77.7085 178.757 64.0048 177.082 56.8932V56.9332Z" fill="#EAEDF4"/>
<path d="M185.098 86.8576C185.177 87.1772 185.257 87.4968 185.377 87.7765C185.297 88.0961 185.217 88.4158 185.098 88.6954V86.8177V86.8576Z" fill="#262837"/>
<path d="M172.816 58.8909L168.948 58.5313L169.267 56.4138L169.586 54.2164L169.945 51.7793C169.945 51.7793 175.089 48.3434 175.447 46.985C175.806 45.6266 177.521 47.1448 177.521 47.1448C177.521 47.1448 176.006 46.7453 176.006 50.3011C176.006 51.1001 176.085 52.1389 176.325 53.4174C176.444 54.2164 176.723 55.415 177.042 56.8932C178.717 63.9648 182.505 77.6685 185.057 86.8177V88.6954C184.778 89.7342 184.499 90.6931 184.26 91.572C184.18 91.8117 184.14 92.0115 184.06 92.2512C181.867 89.8141 179.156 86.3382 177.242 82.5028C173.573 75.1116 168.908 61.5277 168.908 61.5277L169.466 61.1682L172.776 58.8909H172.816Z" fill="#540B29"/>
<path d="M184.1 92.2512C184.18 92.0514 184.22 91.8117 184.299 91.572C184.539 90.6931 184.818 89.7342 185.097 88.6954C185.177 88.3758 185.256 88.0961 185.376 87.7765C188.008 78.5075 191.995 64.0447 193.63 56.8932C193.949 55.5748 194.148 54.536 194.268 53.777C194.467 52.4985 194.547 51.4997 194.587 50.7006C194.587 47.1049 193.072 47.5044 193.072 47.5044C193.072 47.5044 194.786 45.9463 195.145 47.3446C195.504 48.703 200.648 52.1389 200.648 52.1389L201.006 54.3762L201.325 56.3339L201.724 58.811L197.856 59.1705L200.727 61.1282L201.724 61.8074C201.724 61.8074 197.099 75.3912 193.391 82.7825C191.517 86.538 188.885 89.934 186.732 92.3311C186.293 92.8105 185.894 93.25 185.535 93.6495C184.06 95.2077 183.023 96.1665 183.023 96.1665C183.023 96.1665 183.462 94.6084 184.18 92.1713L184.1 92.2512Z" fill="#540B29"/>
<path d="M156.467 151.82L159.298 157.214L160.574 166.483L159.936 171.397C159.936 171.397 158.142 170.758 158.022 169.32C157.903 167.921 157.783 165.564 157.783 165.564L156.507 162.328L156.268 167.362L157.663 170.958L159.737 173.155C159.737 173.155 162.169 174.713 162.448 175.752C162.688 176.791 162.448 177.43 162.448 177.43L160.774 176.511C160.774 176.511 160.654 177.789 160.016 177.789C159.378 177.789 153.317 173.794 153.317 173.794L152.679 172.755C152.679 172.755 152.281 172.636 151.523 171.837L150.765 171.077L148.572 164.765L149.609 150.702L156.547 151.74L156.467 151.82Z" fill="#FFC197"/>
<path d="M155.591 58.2117C153.557 58.0519 152.64 65.8426 152.52 72.6745C152.401 79.5063 150.208 105.795 148.533 111.229C146.858 116.622 148.653 145.907 148.533 149.623C148.413 153.378 148.015 155.536 148.015 155.536L158.422 153.099C158.422 153.099 159.578 125.252 160.734 120.857C161.891 116.462 160.495 106.954 160.495 106.954L163.206 88.8952C163.206 88.8952 159.219 58.4913 155.63 58.1717L155.591 58.2117Z" fill="#300012"/>
<path d="M197.618 26.7291C197.618 26.7291 198.734 22.0946 199.731 22.9336C200.728 23.8126 200.09 32.2426 198.854 33.7608C197.618 35.239 194.707 32.0028 194.707 32.0028L197.578 26.7291H197.618Z" fill="#FFC197"/>
<path d="M191.956 10.0689C191.956 10.0689 194.667 10.1888 196.9 16.0218C199.133 21.8549 197.259 32.682 197.259 32.682C197.259 32.682 196.063 37.9158 193.79 41.0721C191.796 43.8687 187.37 47.3446 185.097 48.4633C183.144 49.4221 183.662 48.703 183.662 48.703V9.42969L191.916 10.0689H191.956Z" fill="#FFC197"/>
<path d="M170.583 27.1286C170.583 27.1286 168.23 21.9348 167.233 22.8138C166.236 23.6927 167.233 31.6033 168.469 33.1215C169.705 34.5998 170.942 31.3636 170.942 31.3636L170.583 27.1286Z" fill="#FFC197"/>
<path d="M175.447 10.0689C175.447 10.0689 172.736 10.1888 170.503 16.0218C168.27 21.8549 170.144 32.682 170.144 32.682C170.144 32.682 171.34 37.9158 173.613 41.0721C175.607 43.8687 180.033 47.3446 182.306 48.4633C184.259 49.4221 183.741 48.703 183.741 48.703V9.42969L175.487 10.0689H175.447Z" fill="#FFC197"/>
<path d="M214.524 58.2117C214.524 58.2117 216.677 56.9332 219.867 63.006C223.057 69.0787 225.968 88.7753 225.449 95.9268C224.931 103.078 226.207 113.626 221.98 115.104C217.754 116.542 209.979 78.0281 209.979 78.0281L214.524 58.2117Z" fill="#44051C"/>
<path d="M221.062 85.3394L210.615 131.285C210.615 131.285 189.163 132.803 187.17 132.803C185.176 132.803 194.666 88.8552 194.666 88.8552L221.062 85.3394Z" fill="#8C3C19"/>
<path d="M197.656 124.333C197.656 124.333 189.363 127.609 187.249 126.051C185.136 124.493 186.811 122.695 186.811 122.695C186.811 122.695 184.977 121.257 186.093 119.339C186.771 118.14 185.335 116.462 185.654 115.663C186.213 114.385 187.209 112.867 187.209 112.867C187.209 112.867 191.277 111.828 193.39 112.627C195.503 113.426 201.684 116.382 201.684 116.382L197.616 124.333H197.656Z" fill="#FFC197"/>
<path d="M217.473 103.558C223.135 99.5625 227.002 105.595 225.447 110.03C223.892 114.465 223.374 116.862 213.804 120.817C204.195 124.812 197.695 124.333 197.695 124.333L198.413 115.384C198.413 115.384 206.428 113.426 208.86 112.227C212.01 110.669 215 105.356 217.512 103.558H217.473Z" fill="#300012"/>
<path d="M82.7416 40.7524L81.9043 51.1401C81.9043 51.1401 86.4898 60.1694 90.5569 58.6112C94.624 57.093 100.565 53.3375 100.565 53.3375L98.3721 40.3929L82.7416 40.7524Z" fill="#F2AD86"/>
<path d="M108.54 56.294H77.957V111.948H108.54V56.294Z" fill="#EAEDF4"/>
<path d="M97.3354 90.3335L93.8265 60.2892L91.793 60.9684V111.229L97.3354 90.3335Z" fill="#005893"/>
<path d="M86.25 90.3335L89.7988 60.2892L91.7924 60.9684V111.229L86.25 90.3335Z" fill="#005893"/>
<path d="M86.9277 56.0942L89.9581 62.0072H91.7923V55.9344L86.9277 56.0942Z" fill="#145F9E"/>
<path d="M96.6575 56.0942L93.667 62.0072H91.793V55.9344L96.6575 56.0942Z" fill="#145F9E"/>
<path d="M99.7289 62.0072C99.7289 62.0072 102.6 53.3375 102.44 51.9791C102.281 50.6207 100.566 47.3446 100.566 47.3446C100.566 47.3446 100.367 49.4221 96.2998 52.1789C92.2327 54.8956 90.877 56.4138 90.877 56.4138C90.877 56.4138 92.9504 56.254 95.4624 57.932L99.689 62.0072H99.7289Z" fill="#F3F6FF"/>
<path d="M91.5943 56.3739C91.5943 56.3739 89.4013 56.0143 87.0089 57.8921C84.6165 59.7698 82.7823 61.9672 82.7823 61.9672C82.7823 61.9672 79.9114 53.2975 80.0709 51.9391C80.2304 50.5807 81.9848 47.5044 81.9848 47.5044C81.9848 47.5044 82.1044 49.3822 86.1715 52.1389C90.2386 54.8557 91.5943 56.3739 91.5943 56.3739Z" fill="#F3F6FF"/>
<path d="M108.74 19.8573C108.74 30.2449 100.805 38.6749 91.0359 38.6749C81.2669 38.6749 73.332 30.2449 73.332 19.8573C73.332 9.46964 77.9574 1.39924 91.0758 0.999717C100.845 0.72005 108.78 9.42969 108.78 19.8173L108.74 19.8573Z" fill="#772D17"/>
<path d="M61.5687 58.4114C61.5687 58.4114 57.2623 54.7358 54.6307 63.0859C51.9592 71.396 45.3401 113.706 49.9655 116.063C54.6307 118.38 63.2833 109.151 63.2833 109.151L68.9453 93.0902L61.6086 58.4514L61.5687 58.4114Z" fill="#005893"/>
<path d="M122.934 152.38C122.934 152.38 119.585 156.255 119.904 161.209C120.262 166.203 120.861 168.521 120.861 168.521L120.581 170.838C120.581 170.838 122.416 170.838 123.572 168.161C124.728 165.484 124.369 161.848 124.369 161.848C124.369 161.848 125.406 165.524 125.406 167.162C125.406 168.84 123.572 173.674 123.572 174.154C123.572 174.633 121.419 175.153 120.422 176.311C119.425 177.47 119.266 179.627 119.266 179.627L125.406 176.95L129.872 168.121V155.616L123.054 151.78L122.894 152.26L122.934 152.38Z" fill="#FFC197"/>
<path d="M121.937 66.9213C121.937 66.9213 124.011 59.9296 125.406 60.5689C126.802 61.2081 132.225 67.8402 133.74 78.9071C135.574 92.2512 136.85 107.793 137.249 116.902C137.927 133.362 130.47 160.091 129.952 158.053L121.14 154.377C121.14 154.377 124.17 131.564 124.21 119.059C124.25 106.554 119.505 106.235 119.824 92.411C120.143 78.5874 121.977 66.9213 121.977 66.9213H121.937Z" fill="#005893"/>
<path d="M70.1814 294.85C70.1814 294.85 67.789 296.568 67.9884 297.407C68.1479 298.246 69.2643 301.842 73.6903 302.361C78.1163 302.881 81.7448 302.002 83.26 301.003C84.7752 299.964 86.8087 296.928 84.0973 294.531L70.1814 294.89V294.85Z" fill="#151721"/>
<path d="M85.2536 293.812C85.2536 295.529 86.6093 299.445 80.6682 300.124C74.727 300.803 68.9453 299.804 68.9453 296.209C68.9453 294.89 69.1447 293.012 69.344 291.135C69.7428 287.939 70.301 284.782 70.301 284.782L70.939 283.384L73.5308 277.95L84.5758 278.31L85.0941 278.47C85.0941 278.47 85.3732 281.027 85.4131 283.544C85.4131 285.022 85.3732 286.46 85.0941 287.339C84.7751 288.378 84.7751 289.457 84.8549 290.455C84.9745 291.694 85.2138 292.893 85.2138 293.812H85.2536Z" fill="#005893"/>
<path d="M77.9169 285.182C77.9169 285.861 77.7175 286.46 77.1992 286.66C76.0827 287.099 71.7764 290.376 69.4238 291.135C69.8226 287.939 70.3808 284.782 70.3808 284.782L71.0188 283.384C73.0922 282.825 76.8005 281.946 77.2391 282.545C77.5581 283.064 77.9568 284.183 77.9568 285.142L77.9169 285.182Z" fill="#151721"/>
<path d="M85.1331 287.379C84.8142 288.418 84.8142 289.497 84.8939 290.495C82.5414 289.257 79.5508 287.06 78.6337 286.7C78.1154 286.5 77.916 285.901 77.916 285.222C77.916 284.223 78.3147 283.104 78.6337 282.625C79.0723 281.946 83.5781 283.104 85.4123 283.624C85.4123 285.102 85.3724 286.54 85.0933 287.419L85.1331 287.379Z" fill="#151721"/>
<path d="M113.165 294.85C113.165 294.85 115.557 296.568 115.358 297.407C115.199 298.246 114.082 301.842 109.656 302.361C105.23 302.881 101.602 302.002 100.086 301.003C98.5713 299.964 96.5377 296.928 99.2491 294.531L113.165 294.89V294.85Z" fill="#151721"/>
<path d="M98.0529 293.812C98.0529 295.529 96.6972 299.445 102.598 300.124C108.54 300.803 114.321 299.804 114.321 296.209C114.321 294.89 114.122 293.012 113.923 291.135C113.524 287.939 112.966 284.782 112.966 284.782L112.328 283.384L109.736 277.95L98.6909 278.31L98.1725 278.47C98.1725 278.47 97.8934 281.027 97.8535 283.544C97.8535 285.022 97.8934 286.46 98.1725 287.339C98.4915 288.378 98.4915 289.457 98.4117 290.455C98.2921 291.694 98.0529 292.893 98.0529 293.812Z" fill="#005893"/>
<path d="M105.429 285.182C105.429 285.861 105.628 286.46 106.146 286.66C107.263 287.099 111.569 290.376 113.922 291.135C113.523 287.939 112.965 284.782 112.965 284.782L112.327 283.384C110.253 282.825 106.545 281.946 106.106 282.545C105.787 283.064 105.389 284.183 105.389 285.142L105.429 285.182Z" fill="#151721"/>
<path d="M98.2127 287.379C98.5317 288.418 98.5317 289.497 98.452 290.495C100.804 289.257 103.795 287.06 104.712 286.7C105.23 286.5 105.43 285.901 105.43 285.222C105.43 284.223 105.031 283.104 104.712 282.625C104.274 281.946 99.7678 283.104 97.9336 283.624C97.9336 285.102 97.9735 286.54 98.2526 287.419L98.2127 287.379Z" fill="#151721"/>
<path d="M121.577 140.554C121.058 135.6 113.283 133.602 113.283 133.602L106.026 134.042C106.903 153.019 108.937 197.965 108.698 206.236C108.419 214.626 106.026 263.567 105.029 285.861C107.342 285.941 111.927 282.465 111.927 282.465C111.927 282.465 122.095 145.508 121.577 140.594V140.554Z" fill="#145F9E"/>
<path d="M106.067 134.041L91.0742 134.96V175.792L95.3008 282.625C95.3008 282.625 102.598 285.501 104.831 285.861C104.91 285.861 104.99 285.861 105.07 285.861C106.067 263.607 108.459 214.626 108.738 206.236C109.017 197.965 106.984 153.019 106.067 134.041Z" fill="#437FB1"/>
<path d="M62.0458 142.471C62.5642 137.517 68.8243 133.562 68.8243 133.562L76.0813 134.002C75.2041 152.979 73.1706 197.926 73.4098 206.196C73.6889 214.586 76.0813 263.528 77.0782 285.821C74.7655 285.901 70.1801 282.425 70.1801 282.425C70.1801 282.425 61.5275 147.426 62.0458 142.471Z" fill="#437FB1"/>
<path d="M76.0414 134.042L91.0338 134.96V175.792L86.8072 282.625C86.8072 282.625 79.5104 285.501 77.2774 285.861C77.1977 285.861 77.1179 285.861 77.0382 285.861C76.0414 263.607 73.6489 214.626 73.3698 206.236C73.0907 197.965 75.1243 153.019 76.0414 134.042Z" fill="#005893"/>
<g style="mix-blend-mode:multiply">
<g style="mix-blend-mode:multiply">
<path d="M91.0738 55.8944C91.0738 55.8944 88.9206 54.3762 86.6877 55.8944C84.4947 57.4126 82.7402 63.006 82.7402 63.006C82.7402 63.006 85.4915 57.932 90.077 58.0918C94.6624 58.2516 94.2637 57.7322 95.2207 58.2516C96.1776 58.771 99.8859 63.2057 99.8859 63.2057C99.8859 63.2057 100.843 53.8569 91.0339 55.8944H91.0738Z" fill="#A2D4DD"/>
</g>
</g>
<path d="M77.9958 52.5784L59.7337 58.0918C59.7337 58.0918 61.528 83.9011 62.0464 89.6543C62.5647 95.4474 65.5951 109.91 64.9173 119.938C64.2394 129.966 54.3906 160.53 54.3906 160.53C54.3906 160.53 74.9654 169.439 79.8699 166.723C84.8142 164.006 93.2674 143.91 93.9851 129.647C94.663 115.344 92.1111 110.15 92.1111 110.15L77.9958 52.5384V52.5784Z" fill="#145F9E"/>
<path d="M121.856 89.3347C121.338 95.1278 118.308 109.591 118.985 119.619C119.185 122.815 119.584 126.211 119.982 129.367C120.301 131.844 120.62 134.201 120.939 136.159C121.458 139.515 124.129 158.173 124.129 158.173C124.129 158.173 109.735 165.804 104.79 163.087C99.886 160.37 90.6752 143.63 89.9974 129.367C89.3195 115.064 91.8714 109.87 91.8714 109.87L105.987 52.2588L125.485 60.6088C125.485 60.6088 122.454 83.5815 121.936 89.3746L121.856 89.3347Z" fill="#005893"/>
<path d="M95.2219 112.787H91.9922V113.666H95.2219V112.787Z" fill="#005893"/>
<path d="M95.8983 130.046H91.8711V131.085H95.8983V130.046Z" fill="#49002A"/>
<path d="M74.407 53.0978L81.983 47.5044C81.983 47.5044 80.388 52.6583 81.2652 55.6547C82.1425 58.6512 91.6324 109.191 91.6324 109.191C91.6324 109.191 85.6115 101.4 80.5077 88.6555C75.4038 75.9106 70.8184 60.9285 70.8184 60.9285L75.4038 59.2505L72.8519 57.8921L74.3671 53.1377L74.407 53.0978Z" fill="#437FB1"/>
<path d="M107.703 53.0978L100.565 47.3047C100.565 47.3047 101.721 52.6583 100.844 55.6547C99.967 58.6512 91.3145 111.189 91.3145 111.189C91.3145 111.189 96.498 101.4 101.602 88.6555C106.706 75.9106 111.291 60.9285 111.291 60.9285L106.706 59.2505L109.258 57.8921L107.742 53.1377L107.703 53.0978Z" fill="#437FB1"/>
<path d="M120.901 130.006C118.588 132.723 112.806 135.16 112.806 135.16L110.135 128.408C110.135 128.408 114.321 127.25 117.511 125.492C118.668 124.852 119.425 124.013 119.944 123.254C120.263 125.731 120.582 128.089 120.901 130.046V130.006Z" fill="#145F9E"/>
<path d="M62.8828 130.006C65.1955 132.723 70.9772 135.16 70.9772 135.16L73.6487 128.408C73.6487 128.408 69.462 127.25 66.2721 125.492C65.1157 124.852 64.3581 124.013 63.8398 123.254C63.5208 125.731 63.2018 128.089 62.9227 130.046L62.8828 130.006Z" fill="#145F9E"/>
<path d="M76.9591 21.7351C76.9591 21.7351 74.8059 19.5776 73.7293 20.5365C72.6527 21.4954 73.3306 30.6844 74.6863 32.2825C76.042 33.9206 78.0755 33.7608 78.0755 33.7608L76.9989 21.7351H76.9591Z" fill="#F2AD86"/>
<path d="M82.3417 7.91151C82.3417 7.91151 79.391 8.03136 76.9587 14.3838C74.5264 20.7363 76.56 32.4823 76.56 32.4823C76.56 32.4823 77.2378 38.4352 79.6302 41.8711C81.9828 45.1872 84.2955 48.4633 86.4885 49.4221C88.6417 50.381 91.2733 49.9016 91.2733 49.9016V7.23232L82.3815 7.91151H82.3417Z" fill="#FFC197"/>
<path d="M105.548 21.7351C105.548 21.7351 107.701 19.5776 108.778 20.5365C109.854 21.4954 109.177 30.6844 107.821 32.2825C106.465 33.9206 104.432 33.7608 104.432 33.7608L105.508 21.7351H105.548Z" fill="#F2AD86"/>
<path d="M100.125 7.91151C100.125 7.91151 103.076 8.03136 105.508 14.3838C107.94 20.7363 105.907 32.4823 105.907 32.4823C105.907 32.4823 105.229 38.4352 102.836 41.8711C100.484 45.1872 98.1712 48.4633 95.9782 49.4221C93.825 50.381 91.1934 49.9016 91.1934 49.9016V7.23232L100.085 7.91151H100.125Z" fill="#FFC197"/>
<path d="M88.0048 11.0677C88.0048 11.0677 86.6491 14.7434 83.1402 17.3802C79.6313 19.9771 75.7636 23.4131 75.7636 23.4131C75.7636 23.4131 73.73 18.0195 74.8066 15.3027C75.8832 12.5859 77.0395 8.19116 81.5851 7.11244C86.1307 6.03373 87.3668 7.39211 87.3668 7.39211L88.0048 11.0677Z" fill="#843418"/>
<path d="M85.8915 9.54955C85.8915 9.54955 84.9345 13.7845 90.2377 15.5025C95.5409 17.2204 101.362 17.6599 103.436 20.1769C105.509 22.6939 105.669 25.6504 105.669 25.6504C105.669 25.6504 108.46 20.5365 105.948 14.224C103.436 7.9115 98.7308 5.5543 96.0593 5.11483C89.7593 4.11601 86.5295 6.95264 86.5295 6.95264L85.8516 9.54955H85.8915Z" fill="#8C3C19"/>
<path d="M55.4688 88.4158L65.9156 134.361C65.9156 134.361 87.3676 135.879 89.3613 135.879C91.355 135.879 81.8651 91.9316 81.8651 91.9316L55.4688 88.4158Z" fill="#8C3C19"/>
<path d="M76.2415 125.452C76.2415 125.452 86.0505 129.687 88.5226 127.689C90.9948 125.691 89.0011 123.374 89.0011 123.374C89.0011 123.374 91.1543 121.536 89.8384 119.059C89.041 117.541 90.7555 115.344 90.3169 114.345C89.6391 112.667 88.4827 110.749 88.4827 110.749C88.4827 110.749 83.658 109.431 81.1859 110.43C78.7137 111.428 71.377 115.264 71.377 115.264L76.2017 125.532L76.2415 125.452Z" fill="#FFC197"/>
<path d="M52.9559 105.835C52.9559 105.835 46.1773 107.353 47.7723 111.788C49.3274 116.223 49.8457 118.62 59.4154 122.575C69.0249 126.57 76.2819 125.452 76.2819 125.452L74.9661 112.787L52.9957 105.795L52.9559 105.835Z" fill="#145F9E"/>
<path d="M130.509 115.344L129.672 125.492C129.672 125.492 134.138 134.281 138.125 132.803C142.112 131.325 147.894 127.649 147.894 127.649L145.741 115.024L130.469 115.344H130.509Z" fill="#F2AD86"/>
<path d="M155.67 130.526H125.805V184.901H155.67V130.526Z" fill="#EAEDF4"/>
<path d="M144.784 163.766L141.315 134.441L139.361 135.08V184.182L144.784 163.766Z" fill="#2F4C35"/>
<path d="M133.939 163.766L137.408 134.441L139.362 135.08V184.182L133.939 163.766Z" fill="#2F4C35"/>
<path d="M134.617 130.326L137.568 136.079H139.362V130.166L134.617 130.326Z" fill="#3C5B45"/>
<path d="M144.106 130.326L141.156 136.079H139.361V130.166L144.106 130.326Z" fill="#3C5B45"/>
<path d="M147.097 136.079C147.097 136.079 149.928 127.609 149.769 126.291C149.609 124.972 147.775 121.816 147.775 121.816C147.775 121.816 147.775 123.774 143.788 126.451C139.8 129.127 138.484 130.606 138.484 130.606C138.484 130.606 140.518 130.446 142.95 132.084L147.097 136.079Z" fill="#F3F6FF"/>
<path d="M139.162 130.606C139.162 130.606 137.009 130.286 134.696 132.084C132.383 133.922 130.549 136.079 130.549 136.079C130.549 136.079 127.718 127.609 127.878 126.291C128.037 124.972 129.752 121.936 129.752 121.936C129.752 121.936 129.871 123.774 133.859 126.451C137.846 129.127 139.162 130.606 139.162 130.606Z" fill="#F3F6FF"/>
<path d="M169.744 224.374C169.744 224.374 166.474 228.13 166.793 233.004C167.152 237.878 167.75 240.155 167.75 240.155L167.471 242.433C167.471 242.433 169.266 242.433 170.382 239.836C171.499 237.239 171.18 233.643 171.18 233.643C171.18 233.643 172.176 237.239 172.176 238.837C172.176 240.475 170.382 245.189 170.382 245.669C170.382 246.148 168.269 246.628 167.312 247.786C166.355 248.945 166.195 251.022 166.195 251.022L172.216 248.425L176.602 239.796V227.61L169.943 223.855L169.784 224.334L169.744 224.374Z" fill="#FFC197"/>
<path d="M168.787 140.913C168.787 140.913 170.781 134.081 172.176 134.721C173.532 135.36 178.835 141.832 180.311 152.619C182.105 165.644 183.341 180.826 183.74 189.695C184.418 205.756 177.121 231.885 176.602 229.888L167.99 226.292C167.99 226.292 170.94 203.998 170.98 191.813C171.02 179.627 166.355 179.268 166.674 165.764C166.993 152.26 168.787 140.873 168.787 140.873V140.913Z" fill="#2F4C35"/>
<path d="M118.227 363.529C118.227 363.529 115.915 365.207 116.074 366.006C116.234 366.845 117.31 370.321 121.657 370.84C126.003 371.319 129.512 370.52 131.027 369.521C132.502 368.523 134.496 365.526 131.864 363.209L118.267 363.529H118.227Z" fill="#151721"/>
<path d="M132.98 362.53C132.98 364.208 134.336 368.003 128.514 368.682C122.692 369.362 117.07 368.363 117.07 364.847C117.07 363.569 117.23 361.731 117.469 359.893C117.868 356.777 118.386 353.7 118.386 353.7L119.024 352.342L121.536 347.028L132.302 347.348L132.781 347.508C132.781 347.508 133.06 350.025 133.06 352.462C133.06 353.9 133.02 355.298 132.781 356.177C132.501 357.216 132.462 358.255 132.581 359.214C132.701 360.452 132.94 361.571 132.94 362.49L132.98 362.53Z" fill="#2F4C35"/>
<path d="M125.804 354.1C125.804 354.779 125.605 355.338 125.087 355.538C124.01 355.978 119.783 359.174 117.471 359.893C117.869 356.777 118.388 353.7 118.388 353.7L119.026 352.342C121.019 351.823 124.688 350.944 125.087 351.543C125.406 352.022 125.804 353.141 125.804 354.1Z" fill="#151721"/>
<path d="M132.821 356.217C132.541 357.256 132.502 358.295 132.621 359.254C130.308 358.055 127.398 355.898 126.52 355.538C126.002 355.338 125.803 354.779 125.803 354.1C125.803 353.141 126.162 352.022 126.52 351.543C126.959 350.904 131.345 352.022 133.139 352.502C133.139 353.94 133.1 355.338 132.86 356.217H132.821Z" fill="#151721"/>
<path d="M160.216 363.529C160.216 363.529 162.528 365.207 162.369 366.006C162.21 366.845 161.133 370.321 156.787 370.84C152.44 371.319 148.932 370.52 147.416 369.521C145.941 368.523 143.947 365.526 146.579 363.209L160.176 363.529H160.216Z" fill="#151721"/>
<path d="M145.463 362.53C145.463 364.208 144.107 368.003 149.929 368.682C155.75 369.362 161.373 368.363 161.373 364.847C161.373 363.569 161.173 361.731 160.974 359.893C160.575 356.777 160.057 353.7 160.057 353.7L159.419 352.342L156.907 347.028L146.141 347.348L145.662 347.508C145.662 347.508 145.383 350.025 145.383 352.462C145.383 353.9 145.423 355.298 145.662 356.177C145.942 357.216 145.981 358.255 145.862 359.214C145.742 360.452 145.503 361.571 145.503 362.49L145.463 362.53Z" fill="#2F4C35"/>
<path d="M152.641 354.1C152.641 354.779 152.84 355.338 153.358 355.538C154.435 355.978 158.662 359.174 160.974 359.893C160.575 356.777 160.057 353.7 160.057 353.7L159.419 352.342C157.425 351.823 153.757 350.944 153.358 351.543C153.039 352.022 152.641 353.141 152.641 354.1Z" fill="#151721"/>
<path d="M145.622 356.217C145.901 357.256 145.941 358.295 145.821 359.254C148.134 358.055 151.045 355.898 151.922 355.538C152.44 355.338 152.639 354.779 152.639 354.1C152.639 353.141 152.281 352.022 151.922 351.543C151.483 350.904 147.097 352.022 145.303 352.502C145.303 353.94 145.343 355.338 145.582 356.217H145.622Z" fill="#151721"/>
<path d="M168.469 212.828C167.991 207.994 160.375 206.036 160.375 206.036L153.317 206.475C154.194 225.013 156.188 268.921 155.909 276.992C155.63 285.182 153.277 333.005 152.32 354.739C154.553 354.819 159.059 351.423 159.059 351.423C159.059 351.423 168.987 217.662 168.469 212.828Z" fill="#3C5B45"/>
<path d="M153.277 206.475L138.604 207.354V247.227L142.75 351.583C142.75 351.583 149.888 354.419 152.041 354.739C152.121 354.739 152.2 354.739 152.28 354.739C153.237 333.005 155.59 285.182 155.869 276.992C156.148 268.921 154.154 225.013 153.277 206.475Z" fill="#56725D"/>
<path d="M110.292 214.706C110.771 209.871 116.911 205.996 116.911 205.996L123.969 206.435C123.092 224.973 121.098 268.881 121.377 276.952C121.656 285.142 124.009 332.965 124.966 354.699C122.733 354.779 118.227 351.383 118.227 351.383C118.227 351.383 109.774 219.5 110.292 214.666V214.706Z" fill="#56725D"/>
<path d="M123.97 206.475L138.643 207.354V247.227L134.497 351.583C134.497 351.583 127.359 354.419 125.206 354.739C125.126 354.739 125.046 354.739 124.967 354.739C124.01 333.005 121.657 285.182 121.378 276.992C121.099 268.921 123.093 225.013 123.97 206.475Z" fill="#2F4C35"/>
<g style="mix-blend-mode:multiply">
<g style="mix-blend-mode:multiply">
<path d="M138.644 130.126C138.644 130.126 136.531 128.648 134.378 130.126C132.224 131.604 130.51 137.078 130.51 137.078C130.51 137.078 133.221 132.124 137.687 132.284C142.153 132.443 141.794 131.964 142.711 132.443C143.668 132.923 147.257 137.278 147.257 137.278C147.257 137.278 148.214 128.129 138.604 130.126H138.644Z" fill="#A2D4DD"/>
</g>
</g>
<path d="M125.844 126.89L108.02 132.284C108.02 132.284 109.775 157.494 110.253 163.127C110.732 168.76 113.722 182.903 113.084 192.732C112.406 202.52 102.797 232.365 102.797 232.365C102.797 232.365 122.893 241.074 127.678 238.437C132.463 235.801 140.796 216.184 141.434 202.2C142.112 188.257 139.6 183.183 139.6 183.183L125.844 126.93V126.89Z" fill="#3C5B45"/>
<path d="M168.707 162.807C168.229 168.441 165.238 182.584 165.876 192.372C166.076 195.488 166.435 198.804 166.833 201.881C167.112 204.318 167.471 206.595 167.75 208.513C168.229 211.789 170.861 230.007 170.861 230.007C170.861 230.007 156.785 237.479 151.96 234.802C147.136 232.165 138.164 215.824 137.526 201.841C136.848 187.897 139.36 182.823 139.36 182.823L153.117 126.57L172.137 134.721C172.137 134.721 169.186 157.174 168.707 162.807Z" fill="#2F4C35"/>
<path d="M142.75 185.7H139.561V186.579H142.75V185.7Z" fill="#0E131C"/>
<path d="M143.308 202.6H139.4V203.599H143.308V202.6Z" fill="#0E131C"/>
<path d="M122.375 127.409L129.752 121.936C129.752 121.936 128.197 126.97 129.074 129.926C129.951 132.843 139.202 182.224 139.202 182.224C139.202 182.224 133.301 174.633 128.356 162.168C123.372 149.703 118.906 135.08 118.906 135.08L123.372 133.442L120.9 132.124L122.375 127.489V127.409Z" fill="#56725D"/>
<path d="M154.871 127.409L147.893 121.776C147.893 121.776 149.049 127.01 148.172 129.966C147.295 132.883 138.842 184.222 138.842 184.222C138.842 184.222 143.906 174.673 148.89 162.208C153.874 149.743 158.34 135.12 158.34 135.12L153.874 133.482L156.346 132.164L154.871 127.529V127.409Z" fill="#56725D"/>
<path d="M167.75 202.52C165.478 205.157 159.855 207.554 159.855 207.554L157.264 200.962C157.264 200.962 161.371 199.843 164.481 198.085C165.597 197.446 166.355 196.647 166.873 195.888C167.152 198.325 167.511 200.602 167.79 202.52H167.75Z" fill="#3C5B45"/>
<path d="M111.091 202.52C113.363 205.157 118.986 207.554 118.986 207.554L121.577 200.962C121.577 200.962 117.47 199.843 114.36 198.085C113.244 197.446 112.486 196.647 111.968 195.888C111.689 198.325 111.33 200.602 111.051 202.52H111.091Z" fill="#56725D"/>
<path d="M124.848 96.7658C124.848 96.7658 122.734 94.6484 121.698 95.5673C120.661 96.4862 121.299 105.475 122.615 107.034C123.931 108.632 125.924 108.472 125.924 108.472L124.887 96.7259L124.848 96.7658Z" fill="#F2AD86"/>
<path d="M130.111 83.2619C130.111 83.2619 127.2 83.3818 124.847 89.6143C122.495 95.807 124.449 107.313 124.449 107.313C124.449 107.313 125.087 113.106 127.479 116.502C129.752 119.739 132.065 122.935 134.178 123.854C136.291 124.773 138.843 124.333 138.843 124.333V82.6227L130.151 83.3019L130.111 83.2619Z" fill="#FFC197"/>
<path d="M152.76 96.7658C152.76 96.7658 154.873 94.6484 155.91 95.5673C156.947 96.4862 156.309 105.475 154.993 107.034C153.677 108.632 151.684 108.472 151.684 108.472L152.72 96.7259L152.76 96.7658Z" fill="#F2AD86"/>
<path d="M147.496 83.2619C147.496 83.2619 150.407 83.3818 152.759 89.6143C155.112 95.807 153.158 107.313 153.158 107.313C153.158 107.313 152.52 113.106 150.128 116.502C147.855 119.739 145.542 122.935 143.429 123.854C141.316 124.773 138.764 124.333 138.764 124.333V82.6227L147.456 83.3019L147.496 83.2619Z" fill="#FFC197"/>
<path d="M109.417 221.897C109.417 221.897 112.686 225.653 112.368 230.527C112.009 235.401 111.411 237.678 111.411 237.678L111.69 239.956C111.69 239.956 109.895 239.956 108.779 237.359C107.662 234.762 107.981 231.166 107.981 231.166C107.981 231.166 106.985 234.762 106.985 236.36C106.985 237.998 108.779 242.712 108.779 243.192C108.779 243.671 110.892 244.151 111.849 245.309C112.806 246.468 112.966 248.545 112.966 248.545L106.945 245.948L102.559 237.319V225.133L109.217 221.378L109.377 221.857L109.417 221.897Z" fill="#FFC197"/>
<path d="M110.413 138.436C110.413 138.436 108.419 131.604 107.024 132.244C105.668 132.883 100.365 139.355 98.8896 150.142C97.0952 163.167 95.8592 178.349 95.4604 187.218C94.7826 203.279 102.079 229.408 102.598 227.41L111.211 223.815C111.211 223.815 108.26 201.521 108.22 189.336C108.18 177.15 112.845 176.791 112.526 163.287C112.207 149.783 110.413 138.396 110.413 138.396V138.436Z" fill="#2F4C35"/>
<path d="M136.33 86.498C136.33 86.498 130.11 85.5791 126.92 88.3758C123.81 91.1325 124.209 98.0443 124.209 98.0044C124.209 98.0044 122.175 92.9703 123.252 90.4134C124.329 87.8964 121.856 81.7038 126.362 80.7049C130.868 79.7061 135.134 79.9059 135.134 79.9059L136.33 86.4581V86.498Z" fill="#DFEEEF"/>
<path d="M136.332 86.498C136.332 86.498 144.147 85.0997 149.41 86.6978C154.674 88.2959 151.643 93.4098 153.677 95.767C155.71 98.1242 153.876 100.122 153.876 100.122C153.876 100.122 158.143 93.2101 155.631 87.2971C153.119 81.3841 153.238 77.5087 143.469 78.3877C137.209 78.987 135.096 79.9059 135.096 79.9059L136.292 86.4581L136.332 86.498Z" fill="#DFEEEF"/>
<path d="M36.0893 115.344L35.252 125.492C35.252 125.492 39.7178 134.281 43.7052 132.803C47.6925 131.325 53.4742 127.649 53.4742 127.649L51.321 115.024L36.0494 115.344H36.0893Z" fill="#F2AD86"/>
<path d="M61.2892 130.526H31.4238V184.901H61.2892V130.526Z" fill="#EAEDF4"/>
<path d="M50.3642 163.766L46.8952 134.441L44.9414 135.08V184.182L50.3642 163.766Z" fill="#151721"/>
<path d="M39.5176 163.766L42.9866 134.441L44.9404 135.08V184.182L39.5176 163.766Z" fill="#151721"/>
<path d="M40.1953 130.326L43.146 136.079H44.9403V130.166L40.1953 130.326Z" fill="#1D1F2D"/>
<path d="M49.6844 130.326L46.7338 136.079H44.9395V130.166L49.6844 130.326Z" fill="#1D1F2D"/>
<path d="M52.6772 136.079C52.6772 136.079 55.5082 127.609 55.3487 126.291C55.1892 124.972 53.355 121.816 53.355 121.816C53.355 121.816 53.355 123.774 49.3676 126.451C45.3803 129.127 44.0645 130.606 44.0645 130.606C44.0645 130.606 46.098 130.446 48.5303 132.084L52.6772 136.079Z" fill="#F3F6FF"/>
<path d="M44.7419 130.606C44.7419 130.606 42.5887 130.286 40.2761 132.084C37.9634 133.922 36.1292 136.079 36.1292 136.079C36.1292 136.079 33.2982 127.609 33.4577 126.291C33.6172 124.972 35.3317 121.936 35.3317 121.936C35.3317 121.936 35.4513 123.774 39.4387 126.451C43.4261 129.127 44.7419 130.606 44.7419 130.606Z" fill="#F3F6FF"/>
<path d="M61.4895 94.928C61.4895 105.076 53.7541 113.306 44.2243 113.306C34.6945 113.306 26.959 105.076 26.959 94.928C26.959 84.7801 31.4248 76.9094 44.2243 76.5499C53.7541 76.2702 61.4895 84.7801 61.4895 94.928Z" fill="#ED852F"/>
<path d="M75.3241 224.374C75.3241 224.374 72.0545 228.13 72.3735 233.004C72.7324 237.878 73.3305 240.155 73.3305 240.155L73.0513 242.433C73.0513 242.433 74.8457 242.433 75.9621 239.836C77.0786 237.239 76.7596 233.643 76.7596 233.643C76.7596 233.643 77.7564 237.239 77.7564 238.837C77.7564 240.475 75.9621 245.189 75.9621 245.669C75.9621 246.148 73.8488 246.628 72.8919 247.786C71.9349 248.945 71.7754 251.022 71.7754 251.022L77.7963 248.425L82.1824 239.796V227.61L75.5235 223.855L75.364 224.334L75.3241 224.374Z" fill="#FFC197"/>
<path d="M74.3672 140.913C74.3672 140.913 76.3609 134.081 77.7565 134.721C79.1122 135.36 84.4154 141.832 85.8907 152.619C87.685 165.644 88.9211 180.826 89.3198 189.695C89.9977 205.756 82.7008 231.885 82.1825 229.888L73.5698 226.292C73.5698 226.292 76.5204 203.998 76.5603 191.813C76.6002 179.627 71.9349 179.268 72.2539 165.764C72.5729 152.26 74.3672 140.873 74.3672 140.873V140.913Z" fill="#151721"/>
<path d="M23.8075 363.529C23.8075 363.529 21.4949 365.207 21.6544 366.006C21.8139 366.845 22.8905 370.321 27.2367 370.84C31.5829 371.319 35.0918 370.52 36.607 369.521C38.0823 368.523 40.076 365.526 37.4443 363.209L23.8474 363.529H23.8075Z" fill="#151721"/>
<path d="M38.56 362.53C38.56 364.208 39.9157 368.003 34.0941 368.682C28.2726 369.362 22.6504 368.363 22.6504 364.847C22.6504 363.569 22.8099 361.731 23.0491 359.893C23.4479 356.777 23.9662 353.7 23.9662 353.7L24.6042 352.342L27.1162 347.028L37.8821 347.348L38.3606 347.508C38.3606 347.508 38.6397 350.025 38.6397 352.462C38.6397 353.9 38.5998 355.298 38.3606 356.177C38.0815 357.216 38.0416 358.255 38.1612 359.214C38.2809 360.452 38.5201 361.571 38.5201 362.49L38.56 362.53Z" fill="#151721"/>
<path d="M31.3844 354.1C31.3844 354.779 31.185 355.338 30.6666 355.538C29.5901 355.978 25.3635 359.174 23.0508 359.893C23.4495 356.777 23.9679 353.7 23.9679 353.7L24.6059 352.342C26.5995 351.823 30.2679 350.944 30.6666 351.543C30.9856 352.022 31.3844 353.141 31.3844 354.1Z" fill="#151721"/>
<path d="M38.4006 356.217C38.1215 357.256 38.0816 358.295 38.2012 359.254C35.8885 358.055 32.9778 355.898 32.1005 355.538C31.5822 355.338 31.3828 354.779 31.3828 354.1C31.3828 353.141 31.7417 352.022 32.1005 351.543C32.5391 350.904 36.9252 352.022 38.7196 352.502C38.7196 353.94 38.6797 355.338 38.4404 356.217H38.4006Z" fill="#151721"/>
<path d="M65.7959 363.529C65.7959 363.529 68.1086 365.207 67.9491 366.006C67.7896 366.845 66.713 370.321 62.3668 370.84C58.0205 371.319 54.5117 370.52 52.9965 369.521C51.5211 368.523 49.5275 365.526 52.1591 363.209L65.756 363.529H65.7959Z" fill="#151721"/>
<path d="M51.0431 362.53C51.0431 364.208 49.6874 368.003 55.509 368.682C61.3305 369.362 66.9527 368.363 66.9527 364.847C66.9527 363.569 66.7533 361.731 66.554 359.893C66.1552 356.777 65.6369 353.7 65.6369 353.7L64.9989 352.342L62.4869 347.028L51.721 347.348L51.2425 347.508C51.2425 347.508 50.9634 350.025 50.9634 352.462C50.9634 353.9 51.0033 355.298 51.2425 356.177C51.5216 357.216 51.5615 358.255 51.4419 359.214C51.3222 360.452 51.083 361.571 51.083 362.49L51.0431 362.53Z" fill="#151721"/>
<path d="M58.2207 354.1C58.2207 354.779 58.4201 355.338 58.9384 355.538C60.015 355.978 64.2416 359.174 66.5543 359.893C66.1556 356.777 65.6372 353.7 65.6372 353.7L64.9992 352.342C63.0055 351.823 59.3372 350.944 58.9384 351.543C58.6194 352.022 58.2207 353.141 58.2207 354.1Z" fill="#151721"/>
<path d="M51.2018 356.217C51.4809 357.256 51.5208 358.295 51.4012 359.254C53.7138 358.055 56.6246 355.898 57.5018 355.538C58.0202 355.338 58.2196 354.779 58.2196 354.1C58.2196 353.141 57.8607 352.022 57.5018 351.543C57.0632 350.904 52.6771 352.022 50.8828 352.502C50.8828 353.94 50.9227 355.338 51.1619 356.217H51.2018Z" fill="#151721"/>
<path d="M74.0492 212.828C73.5707 207.994 65.9549 206.036 65.9549 206.036L58.8972 206.475C59.7745 225.013 61.7681 268.921 61.489 276.992C61.2099 285.182 58.8574 333.005 57.9004 354.739C60.1333 354.819 64.639 351.423 64.639 351.423C64.639 351.423 74.5676 217.662 74.0492 212.828Z" fill="#1D1F2D"/>
<path d="M58.8571 206.475L44.1836 207.354V247.227L48.3305 351.583C48.3305 351.583 55.4678 354.419 57.621 354.739C57.7008 354.739 57.7805 354.739 57.8602 354.739C58.8172 333.005 61.1698 285.182 61.4489 276.992C61.728 268.921 59.7343 225.013 58.8571 206.475Z" fill="#282A39"/>
<path d="M15.8725 214.706C16.351 209.871 22.4915 205.996 22.4915 205.996L29.5492 206.435C28.6719 224.973 26.6783 268.881 26.9574 276.952C27.2365 285.142 29.589 332.965 30.546 354.699C28.3131 354.779 23.8074 351.383 23.8074 351.383C23.8074 351.383 15.3542 219.5 15.8725 214.666V214.706Z" fill="#282A39"/>
<path d="M29.55 206.475L44.2235 207.354V247.227L40.0766 351.583C40.0766 351.583 32.9392 354.419 30.7861 354.739C30.7063 354.739 30.6266 354.739 30.5468 354.739C29.5899 333.005 27.2373 285.182 26.9582 276.992C26.6791 268.921 28.6728 225.013 29.55 206.475Z" fill="#151721"/>
<g style="mix-blend-mode:multiply">
<g style="mix-blend-mode:multiply">
<path d="M44.2241 130.126C44.2241 130.126 42.1108 128.648 39.9576 130.126C37.8044 131.604 36.0898 137.078 36.0898 137.078C36.0898 137.078 38.8013 132.124 43.2671 132.284C47.7329 132.443 47.3741 131.964 48.2912 132.443C49.2481 132.923 52.8368 137.278 52.8368 137.278C52.8368 137.278 53.7937 128.129 44.1842 130.126H44.2241Z" fill="#A2D4DD"/>
</g>
</g>
<path d="M31.4239 126.89L13.6004 132.284C13.6004 132.284 15.3548 157.494 15.8333 163.127C16.3118 168.76 19.3023 182.903 18.6643 192.732C17.9865 202.52 8.37695 232.365 8.37695 232.365C8.37695 232.365 28.4733 241.074 33.2581 238.437C38.0429 235.801 46.3765 216.184 47.0145 202.2C47.6923 188.257 45.1803 183.183 45.1803 183.183L31.4239 126.93V126.89Z" fill="#1D1F2D"/>
<path d="M74.2875 162.807C73.809 168.441 70.8185 182.584 71.4565 192.372C71.6558 195.488 72.0147 198.804 72.4134 201.881C72.6925 204.318 73.0514 206.595 73.3305 208.513C73.809 211.789 76.4407 230.007 76.4407 230.007C76.4407 230.007 62.3653 237.479 57.5406 234.802C52.7159 232.165 43.7443 215.824 43.1063 201.841C42.4285 187.897 44.9405 182.823 44.9405 182.823L58.6969 126.57L77.7166 134.721C77.7166 134.721 74.766 157.174 74.2875 162.807Z" fill="#151721"/>
<path d="M48.3305 185.7H45.1406V186.579H48.3305V185.7Z" fill="#0E131C"/>
<path d="M48.9291 202.6H45.0215V203.599H48.9291V202.6Z" fill="#0E131C"/>
<path d="M27.9553 127.409L35.332 121.936C35.332 121.936 33.7769 126.97 34.6541 129.926C35.5313 132.843 44.782 182.224 44.782 182.224C44.782 182.224 38.8807 174.633 33.9364 162.168C28.9522 149.703 24.4863 135.08 24.4863 135.08L28.9522 133.442L26.48 132.124L27.9553 127.489V127.409Z" fill="#282A39"/>
<path d="M60.4511 127.409L53.4732 121.776C53.4732 121.776 54.6295 127.01 53.7523 129.966C52.8751 132.883 44.4219 184.222 44.4219 184.222C44.4219 184.222 49.4858 174.673 54.47 162.208C59.4542 149.743 63.9201 135.12 63.9201 135.12L59.4542 133.482L61.9264 132.164L60.4511 127.529V127.409Z" fill="#282A39"/>
<path d="M73.3305 202.52C71.0577 205.157 65.4355 207.554 65.4355 207.554L62.8438 200.962C62.8438 200.962 66.9507 199.843 70.0609 198.085C71.1773 197.446 71.9349 196.647 72.4533 195.888C72.7324 198.325 73.0913 200.602 73.3704 202.52H73.3305Z" fill="#1D1F2D"/>
<path d="M16.7098 202.52C18.9826 205.157 24.6048 207.554 24.6048 207.554L27.1966 200.962C27.1966 200.962 23.0896 199.843 19.9794 198.085C18.863 197.446 18.1054 196.647 17.587 195.888C17.3079 198.325 16.949 200.602 16.6699 202.52H16.7098Z" fill="#282A39"/>
<path d="M30.4277 96.7658C30.4277 96.7658 28.3144 94.6484 27.2777 95.5673C26.2409 96.4862 26.8789 105.475 28.1948 107.034C29.5106 108.632 31.5043 108.472 31.5043 108.472L30.4676 96.7259L30.4277 96.7658Z" fill="#F2AD86"/>
<path d="M35.6909 83.2619C35.6909 83.2619 32.7801 83.3818 30.4276 89.6143C28.075 95.807 30.0288 107.313 30.0288 107.313C30.0288 107.313 30.6668 113.106 33.0592 116.502C35.332 119.739 37.6447 122.935 39.758 123.854C41.8713 124.773 44.4232 124.333 44.4232 124.333V82.6227L35.7308 83.3019L35.6909 83.2619Z" fill="#FFC197"/>
<path d="M58.3403 96.7658C58.3403 96.7658 60.4536 94.6484 61.4903 95.5673C62.527 96.4862 61.889 105.475 60.5732 107.034C59.2574 108.632 57.2637 108.472 57.2637 108.472L58.3004 96.7259L58.3403 96.7658Z" fill="#F2AD86"/>
<path d="M53.0761 83.2619C53.0761 83.2619 55.9868 83.3818 58.3394 89.6143C60.6919 95.807 58.7381 107.313 58.7381 107.313C58.7381 107.313 58.1002 113.106 55.7077 116.502C53.4349 119.739 51.1223 122.935 49.009 123.854C46.8957 124.773 44.3438 124.333 44.3438 124.333V82.6227L53.0362 83.3019L53.0761 83.2619Z" fill="#FFC197"/>
<path d="M14.9969 221.897C14.9969 221.897 18.2666 225.653 17.9476 230.527C17.5887 235.401 16.9906 237.678 16.9906 237.678L17.2697 239.956C17.2697 239.956 15.4754 239.956 14.359 237.359C13.2425 234.762 13.5615 231.166 13.5615 231.166C13.5615 231.166 12.5646 234.762 12.5646 236.36C12.5646 237.998 14.359 242.712 14.359 243.192C14.359 243.671 16.4723 244.151 17.4292 245.309C18.3862 246.468 18.5457 248.545 18.5457 248.545L12.5248 245.948L8.13867 237.319V225.133L14.7976 221.378L14.9571 221.857L14.9969 221.897Z" fill="#FFC197"/>
<path d="M15.9931 138.436C15.9931 138.436 13.9994 131.604 12.6039 132.244C11.2482 132.883 5.94497 139.355 4.46964 150.142C2.67533 163.167 1.43925 178.389 1.04051 187.258C0.36266 203.319 7.65953 229.448 8.17789 227.45L16.7906 223.855C16.7906 223.855 13.8399 201.561 13.8001 189.376C13.7602 177.19 18.4254 176.831 18.1064 163.327C17.7874 149.823 15.9931 138.436 15.9931 138.436Z" fill="#151721"/>
<path d="M41.8701 77.8683C38.441 78.3477 32.46 81.1444 31.3036 85.4193C30.1074 89.6942 30.1074 94.129 30.1074 94.129C30.1074 94.129 32.8587 87.377 38.7201 85.2196C44.5417 83.0222 44.0233 81.7437 44.0233 81.7437C44.0233 81.7437 40.8733 90.4533 40.7936 90.8529C40.7138 91.2524 44.8607 90.1737 47.4126 87.5768C49.9645 85.0198 50.6822 82.5827 50.6822 82.5827L55.6265 91.8517C55.6265 91.8517 57.4209 88.5756 56.3044 84.4205C55.2278 80.2655 46.2961 77.269 41.8701 77.8683Z" fill="#F99841"/>
<path d="M224.333 115.344L223.496 125.492C223.496 125.492 227.962 134.281 231.949 132.803C235.937 131.325 241.718 127.649 241.718 127.649L239.565 115.024L224.294 115.344H224.333Z" fill="#F2AD86"/>
<path d="M249.492 130.526H219.627V184.901H249.492V130.526Z" fill="#EAEDF4"/>
<path d="M238.567 163.766L235.137 134.441L233.184 135.08V184.182L238.567 163.766Z" fill="#1B3761"/>
<path d="M227.762 163.766L231.191 134.441L233.185 135.08V184.182L227.762 163.766Z" fill="#1B3761"/>
<path d="M228.398 130.326L231.349 136.079H233.183V130.166L228.398 130.326Z" fill="#244370"/>
<path d="M237.929 130.326L234.978 136.079H233.184V130.166L237.929 130.326Z" fill="#244370"/>
<path d="M240.879 136.079C240.879 136.079 243.711 127.609 243.551 126.291C243.392 124.972 241.757 121.736 241.757 121.736C241.757 121.736 241.597 123.774 237.61 126.451C233.622 129.127 232.307 130.606 232.307 130.606C232.307 130.606 234.34 130.446 236.772 132.084L240.919 136.079H240.879Z" fill="#F3F6FF"/>
<path d="M232.984 130.606C232.984 130.606 230.831 130.286 228.518 132.084C226.206 133.922 224.371 136.079 224.371 136.079C224.371 136.079 221.54 127.609 221.7 126.291C221.859 124.972 223.574 121.936 223.574 121.936C223.574 121.936 223.694 123.774 227.681 126.451C231.668 129.127 232.984 130.606 232.984 130.606Z" fill="#F3F6FF"/>
<path d="M249.732 94.928C249.732 105.076 241.996 113.306 232.466 113.306C222.937 113.306 215.201 105.076 215.201 94.928C215.201 84.7801 219.667 76.9094 232.466 76.5499C241.996 76.2702 249.732 84.7801 249.732 94.928Z" fill="#151721"/>
<path d="M203.599 132.603C203.599 132.603 199.413 129.008 196.821 137.158C194.229 145.308 187.73 186.619 192.275 188.896C196.821 191.174 205.274 182.144 205.274 182.144L210.777 166.443L203.599 132.603Z" fill="#1B3761"/>
<path d="M263.569 224.374C263.569 224.374 260.299 228.13 260.618 233.004C260.977 237.878 261.575 240.155 261.575 240.155L261.296 242.433C261.296 242.433 263.091 242.433 264.207 239.836C265.324 237.239 265.005 233.643 265.005 233.643C265.005 233.643 266.001 237.239 266.001 238.837C266.001 240.475 264.207 245.189 264.207 245.669C264.207 246.148 262.094 246.628 261.137 247.786C260.18 248.945 259.98 251.022 259.98 251.022L266.001 248.425L270.387 239.796V227.61L263.729 223.855L263.569 224.334V224.374Z" fill="#FFC197"/>
<path d="M262.611 140.913C262.611 140.913 264.605 134.081 266.001 134.721C267.356 135.36 272.66 141.832 274.135 152.619C275.929 165.644 277.165 180.826 277.564 189.695C278.242 205.756 270.945 231.885 270.427 229.888L261.814 226.292C261.814 226.292 264.765 203.998 264.804 191.813C264.844 179.627 260.179 179.268 260.498 165.764C260.817 152.26 262.611 140.873 262.611 140.873V140.913Z" fill="#1B3761"/>
<path d="M212.052 363.529C212.052 363.529 209.739 365.207 209.899 366.006C210.058 366.845 211.135 370.321 215.481 370.84C219.827 371.319 223.336 370.52 224.851 369.521C226.326 368.523 228.32 365.526 225.688 363.209L212.092 363.529H212.052Z" fill="#151721"/>
<path d="M226.765 362.53C226.765 364.208 228.121 368.003 222.299 368.682C216.478 369.362 210.855 368.363 210.855 364.847C210.855 363.569 211.015 361.731 211.254 359.893C211.653 356.777 212.171 353.7 212.171 353.7L212.809 352.342L215.321 347.028L226.087 347.348L226.566 347.508C226.566 347.508 226.845 350.025 226.845 352.462C226.845 353.9 226.805 355.298 226.566 356.177C226.247 357.216 226.247 358.255 226.326 359.214C226.446 360.452 226.685 361.571 226.685 362.49L226.765 362.53Z" fill="#1B3761"/>
<path d="M219.587 354.1C219.587 354.779 219.388 355.338 218.87 355.538C217.793 355.978 213.567 359.174 211.254 359.893C211.653 356.777 212.171 353.7 212.171 353.7L212.809 352.342C214.803 351.823 218.471 350.944 218.87 351.543C219.189 352.022 219.587 353.141 219.587 354.1Z" fill="#151721"/>
<path d="M226.646 356.217C226.327 357.256 226.327 358.295 226.406 359.254C224.094 358.055 221.183 355.898 220.306 355.538C219.787 355.338 219.588 354.779 219.588 354.1C219.588 353.141 219.947 352.022 220.306 351.543C220.744 350.904 225.13 352.022 226.925 352.502C226.925 353.94 226.885 355.338 226.646 356.217Z" fill="#151721"/>
<path d="M254.04 363.529C254.04 363.529 256.353 365.207 256.193 366.006C256.034 366.845 254.957 370.321 250.611 370.84C246.265 371.319 242.756 370.52 241.241 369.521C239.765 368.523 237.772 365.526 240.403 363.209L254 363.529H254.04Z" fill="#151721"/>
<path d="M239.287 362.53C239.287 364.208 237.932 368.003 243.753 368.682C249.575 369.362 255.197 368.363 255.197 364.847C255.197 363.569 254.997 361.731 254.798 359.893C254.399 356.777 253.881 353.7 253.881 353.7L253.243 352.342L250.731 347.028L239.965 347.348L239.487 347.508C239.487 347.508 239.208 350.025 239.208 352.462C239.208 353.9 239.247 355.298 239.487 356.177C239.766 357.216 239.806 358.255 239.686 359.214C239.566 360.452 239.327 361.571 239.327 362.49L239.287 362.53Z" fill="#1B3761"/>
<path d="M246.465 354.1C246.465 354.779 246.664 355.338 247.183 355.538C248.259 355.978 252.486 359.174 254.798 359.893C254.4 356.777 253.881 353.7 253.881 353.7L253.243 352.342C251.25 351.823 247.581 350.944 247.183 351.543C246.864 352.022 246.465 353.141 246.465 354.1Z" fill="#151721"/>
<path d="M239.446 356.217C239.725 357.256 239.765 358.295 239.645 359.254C241.958 358.055 244.869 355.898 245.746 355.538C246.264 355.338 246.464 354.779 246.464 354.1C246.464 353.141 246.105 352.022 245.746 351.543C245.307 350.904 240.921 352.022 239.127 352.502C239.127 353.94 239.167 355.338 239.406 356.217H239.446Z" fill="#151721"/>
<path d="M262.252 212.828C261.774 207.994 254.158 206.036 254.158 206.036L247.1 206.475C247.978 225.013 249.971 268.921 249.692 276.992C249.413 285.182 247.06 333.005 246.104 354.739C248.336 354.819 252.842 351.423 252.842 351.423C252.842 351.423 262.771 217.662 262.252 212.828Z" fill="#244370"/>
<path d="M247.101 206.475L232.428 207.354V247.227L236.575 351.583C236.575 351.583 243.712 354.419 245.865 354.739C245.945 354.739 246.025 354.739 246.104 354.739C247.061 333.005 249.414 285.182 249.693 276.992C249.972 268.921 247.978 225.013 247.101 206.475Z" fill="#2F547F"/>
<path d="M204.078 214.706C204.556 209.871 210.697 205.996 210.697 205.996L217.754 206.435C216.877 224.973 214.883 268.881 215.162 276.952C215.442 285.142 217.794 332.965 218.751 354.699C216.518 354.779 212.012 351.383 212.012 351.383C212.012 351.383 203.559 219.5 204.078 214.666V214.706Z" fill="#2F547F"/>
<path d="M217.794 206.475L232.468 207.354V247.227L228.321 351.583C228.321 351.583 221.183 354.419 219.03 354.739C218.95 354.739 218.871 354.739 218.791 354.739C217.834 333.005 215.481 285.182 215.202 276.992C214.923 268.921 216.917 225.013 217.794 206.475Z" fill="#1B3761"/>
<g style="mix-blend-mode:multiply">
<g style="mix-blend-mode:multiply">
<path d="M232.427 130.126C232.427 130.126 230.314 128.648 228.161 130.126C226.008 131.604 224.293 137.078 224.293 137.078C224.293 137.078 227.004 132.124 231.47 132.284C235.936 132.443 235.577 131.964 236.494 132.443C237.411 132.923 241.04 137.278 241.04 137.278C241.04 137.278 241.997 128.129 232.387 130.126H232.427Z" fill="#A2D4DD"/>
</g>
</g>
<path d="M219.668 126.89L201.845 132.284C201.845 132.284 203.599 157.494 204.077 163.127C204.556 168.76 207.546 182.903 206.908 192.732C206.231 202.52 196.621 232.365 196.621 232.365C196.621 232.365 216.717 241.074 221.502 238.437C226.327 235.761 234.621 216.184 235.259 202.2C235.936 188.257 233.424 183.183 233.424 183.183L219.668 126.93V126.89Z" fill="#244370"/>
<path d="M262.532 162.807C262.053 168.441 259.063 182.584 259.701 192.372C259.9 195.488 260.259 198.804 260.658 201.881C260.937 204.318 261.296 206.595 261.575 208.513C262.053 211.789 264.685 230.007 264.685 230.007C264.685 230.007 250.609 237.479 245.785 234.802C240.96 232.165 231.988 215.824 231.35 201.841C230.673 187.897 233.185 182.823 233.185 182.823L246.941 126.57L265.961 134.721C265.961 134.721 263.01 157.174 262.492 162.807H262.532Z" fill="#1B3761"/>
<path d="M236.534 185.7H233.344V186.579H236.534V185.7Z" fill="#0E131C"/>
<path d="M237.132 202.6H233.225V203.599H237.132V202.6Z" fill="#0E131C"/>
<path d="M216.199 127.409L223.576 121.936C223.576 121.936 222.021 126.97 222.898 129.926C223.775 132.843 233.026 182.224 233.026 182.224C233.026 182.224 227.125 174.633 222.181 162.168C217.196 149.703 212.73 135.08 212.73 135.08L217.196 133.442L214.724 132.124L216.199 127.489V127.409Z" fill="#2F547F"/>
<path d="M248.695 127.409L241.717 121.776C241.717 121.776 242.874 127.01 241.996 129.966C241.119 132.883 232.666 184.222 232.666 184.222C232.666 184.222 237.73 174.673 242.714 162.208C247.698 149.743 252.164 135.12 252.164 135.12L247.698 133.482L250.171 132.164L248.695 127.529V127.409Z" fill="#2F547F"/>
<path d="M261.575 202.52C259.302 205.157 253.68 207.554 253.68 207.554L251.088 200.922C251.088 200.922 255.195 199.803 258.305 198.045C259.421 197.406 260.179 196.607 260.697 195.848C260.977 198.285 261.335 200.562 261.615 202.48L261.575 202.52Z" fill="#244370"/>
<path d="M204.915 202.52C207.188 205.157 212.81 207.554 212.81 207.554L215.402 200.922C215.402 200.922 211.295 199.803 208.185 198.045C207.068 197.406 206.31 196.607 205.792 195.848C205.513 198.285 205.154 200.562 204.875 202.48L204.915 202.52Z" fill="#244370"/>
<path d="M218.672 96.7658C218.672 96.7658 216.559 94.6484 215.522 95.5673C214.485 96.4862 215.123 105.475 216.439 107.034C217.755 108.632 219.748 108.472 219.748 108.472L218.712 96.7259L218.672 96.7658Z" fill="#F2AD86"/>
<path d="M223.935 83.2619C223.935 83.2619 221.024 83.3818 218.672 89.6143C216.319 95.807 218.273 107.313 218.273 107.313C218.273 107.313 218.911 113.106 221.303 116.502C223.576 119.739 225.889 122.935 228.002 123.854C230.115 124.773 232.667 124.333 232.667 124.333V82.6227L223.975 83.3019L223.935 83.2619Z" fill="#FFC197"/>
<path d="M246.584 96.7658C246.584 96.7658 248.698 94.6484 249.734 95.5673C250.771 96.4862 250.133 105.475 248.817 107.034C247.502 108.632 245.508 108.472 245.508 108.472L246.545 96.7259L246.584 96.7658Z" fill="#F2AD86"/>
<path d="M241.32 83.2619C241.32 83.2619 244.231 83.3818 246.584 89.6143C248.936 95.807 246.982 107.313 246.982 107.313C246.982 107.313 246.344 113.106 243.952 116.502C241.679 119.739 239.366 122.935 237.253 123.854C235.14 124.773 232.588 124.333 232.588 124.333V82.6227L241.28 83.3019L241.32 83.2619Z" fill="#FFC197"/>
<path d="M204.475 220.698C204.475 220.698 207.744 224.454 207.425 229.328C207.066 234.202 206.468 236.48 206.468 236.48L206.747 238.757C206.747 238.757 204.953 238.757 203.837 236.16C202.72 233.563 203.039 229.967 203.039 229.967C203.039 229.967 202.042 233.563 202.042 235.161C202.042 236.799 203.837 241.514 203.837 241.993C203.837 242.473 205.95 242.952 206.907 244.111C207.864 245.269 208.063 247.347 208.063 247.347L202.042 244.75L197.656 236.12V223.935L204.315 220.179L204.475 220.659V220.698Z" fill="#FFC197"/>
<path d="M205.433 137.238C205.433 137.238 203.439 130.406 202.043 131.045C200.688 131.684 195.384 138.157 193.909 148.944C192.115 161.968 190.879 177.15 190.48 186.02C189.802 202.081 197.099 228.21 197.617 226.212L206.23 222.616C206.23 222.616 203.279 200.323 203.24 188.137C203.2 175.952 207.865 175.592 207.546 162.088C207.227 148.584 205.433 137.198 205.433 137.198V137.238Z" fill="#1B3761"/>
<path d="M263.569 224.374C263.569 224.374 260.299 228.13 260.618 233.004C260.977 237.878 261.575 240.155 261.575 240.155L261.296 242.433C261.296 242.433 263.091 242.433 264.207 239.836C265.324 237.239 265.005 233.643 265.005 233.643C265.005 233.643 266.001 237.239 266.001 238.837C266.001 240.475 264.207 245.189 264.207 245.669C264.207 246.148 262.094 246.628 261.137 247.786C260.18 248.945 259.98 251.022 259.98 251.022L266.001 248.425L270.387 239.796V227.61L263.729 223.855L263.569 224.334V224.374Z" fill="#FFC197"/>
<path d="M262.611 140.913C262.611 140.913 264.605 134.081 266.001 134.721C267.356 135.36 272.66 141.832 274.135 152.619C275.929 165.644 277.165 180.826 277.564 189.695C278.242 205.756 270.945 231.885 270.427 229.888L261.814 226.292C261.814 226.292 264.765 203.998 264.804 191.813C264.844 179.627 260.179 179.268 260.498 165.764C260.817 152.26 262.611 140.873 262.611 140.873V140.913Z" fill="#1B3761"/>
<path d="M229.994 81.6238C229.994 81.6238 231.749 86.6978 236.294 88.176C240.84 89.6543 242.714 89.9739 242.714 89.9739C242.714 89.9739 239.285 84.6203 239.006 83.142C238.726 81.6638 244.269 88.4957 244.309 89.9739C244.349 91.4522 243.79 77.7884 229.994 81.6638V81.6238Z" fill="#151721"/>
<path d="M348.779 95.5273C348.779 105.795 340.964 114.145 331.314 114.145C321.665 114.145 313.85 105.835 313.85 95.5273C313.85 85.2196 321.665 76.9094 331.314 76.9094C340.964 76.9094 348.779 85.2196 348.779 95.5273Z" fill="#151721"/>
<path d="M343.914 88.5356C343.914 88.5356 348.1 92.5708 347.502 95.7271C346.904 98.8833 346.745 109.231 348.26 111.588C349.775 113.945 352.686 112.547 349.057 114.704C345.429 116.822 334.862 117.941 334.862 117.941H331.553V87.4169L343.953 88.5356H343.914Z" fill="#151721"/>
<path d="M319.152 88.5356C319.152 88.5356 313.57 90.5732 314.168 93.7294C314.766 96.8857 315.085 109.231 313.609 111.588C312.094 113.945 310.42 112.547 314.048 114.704C317.677 116.822 328.243 117.941 328.243 117.941H331.553V87.4169L319.152 88.5356Z" fill="#151721"/>
<path d="M325.492 261.45C325.492 261.45 326.17 276.432 326.21 282.465C326.25 288.498 330.596 288.338 328.363 317.224C328.004 321.698 326.728 342.114 327.526 345.11C328.323 348.107 328.044 347.028 328.124 348.586C328.203 350.145 327.406 351.143 328.363 353.78C329.041 355.578 328.562 359.773 327.566 361.131C326.569 362.49 317.996 361.731 317.996 361.731C317.996 361.731 320.986 352.781 320.269 351.503C319.551 350.224 320.667 349.345 320.707 348.906C320.946 346.629 312.055 325.534 312.334 304.119C312.453 296.448 311.855 288.698 311.855 288.698L309.463 259.173L325.492 261.45Z" fill="#F2AD86"/>
<path d="M315.045 368.203C317.119 370.081 321.265 370.241 322.9 369.841C324.695 369.362 328.682 368.722 329.16 367.444C329.24 367.244 329.28 367.004 329.28 366.765C329.639 367.484 329.918 368.243 329.639 368.403C329.081 368.762 324.695 370.96 322.541 371.04C320.388 371.12 314.806 370.64 314.886 369.442C314.886 369.042 314.965 368.603 315.005 368.243L315.045 368.203Z" fill="#5E0839"/>
<path d="M322.941 369.841C321.266 370.281 317.119 370.081 315.086 368.203C315.086 368.203 315.086 368.203 315.046 368.203C313.849 367.084 316.282 361.531 316.282 361.531C316.282 361.531 321.465 356.896 323.379 356.097C325.333 355.298 325.931 355.898 328.244 357.456C330.557 359.014 328.962 362.17 328.962 362.17L328.762 363.169C328.762 363.169 329.44 365.366 329.36 366.805C329.36 367.084 329.32 367.284 329.241 367.484C328.762 368.762 324.775 369.442 322.981 369.881L322.941 369.841Z" fill="#5E0839"/>
<path d="M337.694 261.45C337.694 261.45 337.016 276.432 336.976 282.465C336.936 288.498 332.59 288.338 334.823 317.224C335.182 321.698 336.458 342.114 335.66 345.11C334.863 348.107 335.142 347.028 335.062 348.586C335.022 350.145 335.78 351.143 334.823 353.78C334.145 355.578 334.624 359.773 335.621 361.131C336.617 362.49 345.19 361.731 345.19 361.731C345.19 361.731 342.2 352.781 342.917 351.503C343.635 350.224 342.519 349.345 342.479 348.906C342.24 346.629 351.131 325.534 350.852 304.119C350.733 296.448 351.331 288.698 351.331 288.698L353.723 259.173L337.694 261.45Z" fill="#F2AD86"/>
<path d="M348.141 368.203C346.068 370.081 341.921 370.241 340.286 369.841C338.492 369.362 334.504 368.722 334.026 367.444C333.946 367.244 333.906 367.004 333.906 366.765C333.547 367.484 333.268 368.243 333.547 368.403C334.106 368.762 338.492 370.96 340.645 371.04C342.798 371.12 348.38 370.64 348.301 369.442C348.301 369.042 348.221 368.603 348.181 368.243L348.141 368.203Z" fill="#5E0839"/>
<path d="M340.246 369.841C341.921 370.281 346.068 370.081 348.101 368.203C348.101 368.203 348.101 368.203 348.141 368.203C349.338 367.084 346.905 361.531 346.905 361.531C346.905 361.531 341.722 356.896 339.808 356.097C337.854 355.298 337.256 355.898 334.943 357.456C332.631 359.014 334.225 362.17 334.225 362.17L334.425 363.169C334.425 363.169 333.747 365.366 333.827 366.805C333.827 367.084 333.867 367.284 333.946 367.484C334.425 368.762 338.412 369.442 340.207 369.881L340.246 369.841Z" fill="#5E0839"/>
<path d="M317.357 196.927C317.357 196.927 306.87 201.801 305.594 211.27C304.318 220.738 305.594 288.138 305.594 288.138C305.594 288.138 323.059 289.936 331.472 289.656C331.632 289.656 331.752 194.49 331.752 194.49C327.605 194.33 322.86 194.969 317.397 196.927H317.357Z" fill="#437FB1"/>
<path d="M354.44 208.952C354.44 208.952 348.22 195.089 331.752 194.49L331.473 289.656C340.085 289.337 358.427 287.619 358.427 287.619L354.4 208.952H354.44Z" fill="#145F9E"/>
<path d="M342.758 126.85L359.386 133.762L353.843 157.813C353.843 157.813 348.819 171.717 349.497 179.388C350.175 187.058 353.604 194.17 354.003 197.486C354.441 200.802 355.279 210.71 355.279 210.71L329.999 209.951L328.045 171.197C328.045 171.197 338.372 143.271 339.05 139.954C339.728 136.638 342.798 126.81 342.798 126.81L342.758 126.85Z" fill="#005893"/>
<path d="M317.358 126.85L300.73 133.762L306.273 157.813C306.273 157.813 311.297 171.717 310.619 179.388C309.941 187.058 306.512 194.17 306.113 197.486C305.715 200.802 304.837 210.71 304.837 210.71L330.117 209.951L332.071 171.197C332.071 171.197 321.784 143.271 321.066 139.954C320.388 136.638 317.318 126.81 317.318 126.81L317.358 126.85Z" fill="#145F9E"/>
<path d="M330.796 172.076C330.796 172.795 330.238 173.355 329.52 173.355C328.802 173.355 328.244 172.795 328.244 172.076C328.244 171.357 328.802 170.798 329.52 170.798C330.238 170.798 330.796 171.357 330.796 172.076Z" fill="#0B0E1E"/>
<path d="M330.915 185.34C330.915 186.06 330.357 186.619 329.639 186.619C328.922 186.619 328.363 186.06 328.363 185.34C328.363 184.621 328.922 184.062 329.639 184.062C330.357 184.062 330.915 184.621 330.915 185.34Z" fill="#0B0E1E"/>
<path d="M329.958 132.683C327.127 132.683 324.296 132.603 321.465 132.483C323.1 139.555 327.087 153.938 329.679 163.127C329.759 162.807 329.838 162.528 329.958 162.208V132.683Z" fill="#F3F6FF"/>
<path d="M321.505 132.483C324.336 132.603 327.167 132.683 329.998 132.683V112.068L323.18 110.35C323.18 110.35 323.698 121.456 321.983 124.693C321.704 125.252 321.186 125.811 320.588 126.331C320.588 127.13 320.668 128.129 320.867 129.407C320.987 130.126 321.226 131.205 321.505 132.483Z" fill="#F2AD86"/>
<path d="M337.934 132.523C338.293 131.045 338.532 129.847 338.651 129.087C338.851 127.809 338.931 126.81 338.97 125.971C338.532 125.572 338.213 125.132 337.974 124.733C336.259 121.496 336.777 110.39 336.777 110.39L329.959 112.108V132.723C332.631 132.723 335.262 132.683 337.934 132.563V132.523Z" fill="#F2AD86"/>
<path d="M337.934 132.523C335.262 132.643 332.631 132.683 329.959 132.683V162.208C332.511 153.139 336.259 139.555 337.934 132.523Z" fill="#EAEDF4"/>
<path d="M329.959 162.208C329.879 162.528 329.799 162.847 329.68 163.127C329.759 163.447 329.839 163.766 329.959 164.046V162.208Z" fill="#262837"/>
<path d="M342.16 134.441L345.988 134.081L345.669 132.004L345.35 129.846L344.991 127.449C344.991 127.449 339.888 124.053 339.529 122.655C339.17 121.297 337.495 122.815 337.495 122.815C337.495 122.815 339.01 122.415 338.97 125.931C338.97 126.73 338.891 127.769 338.651 129.047C338.532 129.846 338.253 131.045 337.934 132.483C336.299 139.515 332.511 153.139 329.959 162.168V164.006C330.238 165.045 330.517 166.003 330.756 166.842C330.836 167.082 330.876 167.282 330.956 167.522C333.109 165.085 335.82 161.649 337.694 157.853C341.363 150.502 345.948 137.038 345.948 137.038L345.39 136.678L342.12 134.401L342.16 134.441Z" fill="#437FB1"/>
<path d="M330.956 167.562C330.876 167.362 330.836 167.122 330.756 166.882C330.517 166.004 330.238 165.085 329.959 164.046C329.879 163.726 329.799 163.447 329.68 163.127C327.088 153.898 323.101 139.555 321.466 132.483C321.187 131.205 320.947 130.126 320.828 129.407C320.628 128.168 320.549 127.17 320.509 126.331C320.509 122.775 321.984 123.174 321.984 123.174C321.984 123.174 320.27 121.656 319.951 123.015C319.592 124.373 314.488 127.809 314.488 127.809L314.129 130.046L313.81 132.004L313.451 134.481L317.279 134.841L314.448 136.798L313.451 137.477C313.451 137.477 318.037 150.981 321.705 158.293C323.579 162.008 326.171 165.364 328.324 167.801C328.763 168.281 329.161 168.72 329.52 169.12C330.996 170.678 332.032 171.637 332.032 171.637C332.032 171.637 331.594 170.119 330.916 167.642L330.956 167.562Z" fill="#437FB1"/>
<path d="M358.388 226.731L355.597 232.125L354.321 241.354L354.959 246.228C354.959 246.228 356.753 245.589 356.872 244.191C356.992 242.792 357.112 240.475 357.112 240.475L358.388 237.279L358.627 242.273L357.231 245.869L355.198 248.026C355.198 248.026 352.765 249.544 352.526 250.583C352.287 251.622 352.526 252.261 352.526 252.261L354.201 251.382C354.201 251.382 354.321 252.66 354.959 252.66C355.596 252.66 361.617 248.705 361.617 248.705L362.255 247.666C362.255 247.666 362.654 247.547 363.412 246.787L364.169 246.028L366.323 239.756L365.286 225.812L358.388 226.851V226.731Z" fill="#FFC197"/>
<path d="M359.265 133.762C361.259 133.602 362.216 141.353 362.336 148.145C362.455 154.937 364.648 181.066 366.283 186.419C367.958 191.813 366.164 220.858 366.283 224.574C366.403 228.289 366.802 230.447 366.802 230.447L356.434 228.01C356.434 228.01 355.278 200.363 354.122 196.008C352.965 191.653 354.361 182.184 354.361 182.184L351.689 164.246C351.689 164.246 355.637 134.042 359.226 133.722L359.265 133.762Z" fill="#145F9E"/>
<path d="M300.531 226.731L303.322 232.125L304.598 241.354L303.96 246.228C303.96 246.228 302.165 245.589 302.046 244.191C301.926 242.792 301.807 240.475 301.807 240.475L300.531 237.279L300.291 242.273L301.687 245.869L303.72 248.026C303.72 248.026 306.153 249.544 306.392 250.583C306.631 251.622 306.392 252.261 306.392 252.261L304.717 251.382C304.717 251.382 304.598 252.66 303.96 252.66C303.322 252.66 297.301 248.705 297.301 248.705L296.663 247.666C296.663 247.666 296.264 247.547 295.506 246.787L294.749 246.028L292.596 239.756L293.632 225.812L300.531 226.851V226.731Z" fill="#FFC197"/>
<path d="M299.654 133.762C297.66 133.602 296.703 141.353 296.584 148.145C296.464 154.937 294.271 181.066 292.636 186.419C290.962 191.813 292.756 220.858 292.636 224.574C292.517 228.289 292.118 230.447 292.118 230.447L302.485 228.01C302.485 228.01 303.642 200.363 304.798 196.008C305.954 191.653 304.559 182.184 304.559 182.184L307.23 164.246C307.23 164.246 303.283 134.042 299.694 133.722L299.654 133.762Z" fill="#145F9E"/>
<path d="M317.518 102.479C317.518 102.479 316.401 97.8445 315.405 98.7235C314.408 99.6025 315.046 107.992 316.282 109.471C317.518 110.949 320.389 107.713 320.389 107.713L317.518 102.479Z" fill="#FFC197"/>
<path d="M323.141 85.9387C323.141 85.9387 320.429 86.0586 318.196 91.8517C315.963 97.6448 317.838 108.392 317.838 108.392C317.838 108.392 319.034 113.586 321.267 116.702C323.26 119.459 327.646 122.935 329.879 124.053C331.793 125.012 331.315 124.293 331.315 124.293V85.2995L323.101 85.8988L323.141 85.9387Z" fill="#FFC197"/>
<path d="M344.352 102.879C344.352 102.879 346.704 97.7247 347.661 98.6036C348.658 99.4826 347.661 107.353 346.425 108.831C345.189 110.31 343.953 107.114 343.953 107.114L344.312 102.919L344.352 102.879Z" fill="#FFC197"/>
<path d="M339.567 85.9387C339.567 85.9387 342.279 86.0586 344.511 91.8517C346.744 97.6448 344.87 108.392 344.87 108.392C344.87 108.392 343.674 113.586 341.441 116.702C339.447 119.459 335.061 122.935 332.828 124.053C330.915 125.012 331.393 124.293 331.393 124.293V85.2995L339.607 85.8988L339.567 85.9387Z" fill="#FFC197"/>
<path d="M321.545 79.9858C321.545 79.9858 320.787 86.498 320.787 86.7378C320.787 87.8564 330.756 87.2571 333.387 89.7342C336.497 92.6907 340.365 95.4874 342.518 98.4438C344.671 101.4 345.429 105.036 345.429 105.036C345.429 105.036 347.343 96.0067 346.625 91.0526C345.11 80.2655 330.915 72.4348 321.545 79.9858Z" fill="#1D1F2D"/>
<path d="M333.266 103.638C333.266 103.638 332.947 103.558 332.788 103.438C331.791 102.439 330.037 102.439 329.04 103.438C328.801 103.678 328.362 103.718 328.123 103.438C327.884 103.198 327.884 102.759 328.123 102.519C329.598 101.041 332.23 101.041 333.705 102.519C333.944 102.759 333.944 103.198 333.705 103.438C333.585 103.558 333.426 103.638 333.227 103.638H333.266Z" fill="#263160"/>
<path d="M323.378 107.793C321.504 107.793 319.67 107.393 318.753 106.994C316.64 106.115 317.078 101.44 317.158 100.521L317.278 100.242C318.035 99.0831 319.67 98.4838 322.102 98.4838C325.332 98.4838 328.961 99.5226 329.12 99.5625L329.638 99.7223V100.242C329.638 100.242 329.24 104.597 327.565 106.474C326.568 107.593 324.734 107.793 323.338 107.793H323.378ZM318.474 100.841C318.274 102.759 318.474 105.436 319.271 105.795C320.109 106.155 321.783 106.474 323.378 106.474C324.933 106.474 326.09 106.155 326.608 105.595C327.605 104.477 328.083 102 328.243 100.681C327.126 100.402 324.455 99.8022 322.102 99.8022C320.268 99.8022 318.992 100.162 318.434 100.881L318.474 100.841Z" fill="#263160"/>
<path d="M338.491 107.793C337.135 107.793 335.261 107.553 334.264 106.474C332.589 104.597 332.23 100.441 332.23 100.242V99.7223L332.709 99.5625C332.868 99.5226 336.497 98.4838 339.727 98.4838C342.159 98.4838 343.794 99.0831 344.551 100.242L344.671 100.521C344.791 101.44 345.189 106.115 343.076 106.994C342.159 107.393 340.325 107.793 338.451 107.793H338.491ZM333.586 100.681C333.746 102.04 334.224 104.477 335.221 105.595C335.739 106.195 336.896 106.514 338.451 106.514C340.006 106.514 341.76 106.155 342.558 105.835C343.395 105.475 343.555 102.799 343.355 100.881C342.797 100.202 341.521 99.8022 339.687 99.8022C337.334 99.8022 334.663 100.402 333.546 100.681H333.586Z" fill="#263160"/>
</svg>
