<svg width="314" height="436" viewBox="0 0 314 436" fill="none" xmlns="http://www.w3.org/2000/svg">
<path d="M130.982 27.5443C130.982 27.5443 131.978 27.166 133.661 21.0107C136.374 11.0727 135.378 0 119.512 0C103.13 0 101.688 11.2791 100.486 15.9901C99.2839 20.7012 106.496 30.8111 108.385 33.8372C110.274 36.8632 114.36 36.313 115.185 35.1439L131.017 27.5443H130.982Z" fill="#4A2C11"/>
<path d="M106.598 52.3375L123.323 52.5438L132.458 51.6498L141.146 83.8363L140.185 169.702L111.474 171.868L106.598 52.3375Z" fill="#C0F0FF"/>
<path d="M136.373 262.135C136.373 262.135 132.561 271.351 133.214 274.514C133.832 277.678 141.696 278.572 142.212 277.815C142.727 277.059 144.959 264.026 144.959 264.026L136.408 262.135H136.373Z" fill="#20262D"/>
<path d="M145.268 132.288H124.869L118 163.821L118.343 164.475L124.456 210.726C124.456 210.726 128.715 228.779 128.715 235.622C128.715 242.465 131.531 268.049 131.531 268.049C131.531 268.049 140.426 268.875 144.65 268.806C148.874 268.737 150.66 268.806 150.66 268.806L146.333 213.374L145.268 132.288Z" fill="#0B0E1E"/>
<path d="M147.947 61.0375C147.947 61.0375 147.535 55.8451 150.867 56.3265C154.198 56.8079 156.464 78.1624 156.945 88.5474C157.426 98.9324 175.696 105.053 171.953 110.899C165.909 120.39 147.776 125.789 142.659 107.839C138.435 92.9146 147.913 61.0375 147.913 61.0375H147.947Z" fill="#022D51"/>
<g style="mix-blend-mode:multiply">
<path d="M124.801 54.8822L114.979 58.3897C114.979 58.3897 121.813 52.4407 123.633 52.5095C125.453 52.5782 125.693 52.3375 126.106 52.2687C126.518 52.2 133.558 56.9454 133.558 56.9454C133.558 56.9454 129.746 53.8506 124.835 54.8822H124.801Z" fill="#C0F0FF"/>
</g>
<path d="M109.861 282.217L107.972 283.421C107.972 283.421 107.389 286.172 108.316 286.859C109.277 287.581 109.037 288.304 116.524 288.304C124.01 288.304 124.148 287.96 124.388 287.478C124.629 286.997 125.315 285.346 124.388 284.143C123.427 282.939 109.896 282.251 109.896 282.251L109.861 282.217Z" fill="#273442"/>
<path d="M127.891 165.953C127.891 165.953 130.879 137.377 128.544 133.56C127.307 131.532 119.477 131.05 112.368 131.016C111.338 145.802 107.045 209.522 108.762 220.423C110.239 229.776 112.574 258.077 113.639 271.454C114.532 271.316 115.39 271.247 116.146 271.351C119.477 271.66 123.804 271.866 123.804 271.866C123.804 271.866 121.778 226.269 122.843 218.944C123.907 211.62 127.891 165.919 127.891 165.919V165.953Z" fill="#1D1F2D"/>
<path d="M112.402 131.016C106.083 131.016 100.347 131.325 100.347 131.325C100.347 131.325 96.7069 152.714 96.7413 153.161C97.0847 156.841 95.4363 175.272 97.5998 187.205C100.004 200.547 100.347 220.939 100.347 228.263C100.347 235.588 107.078 273.242 107.078 273.242C107.078 273.242 110.513 271.901 113.638 271.454C112.573 258.077 110.238 229.776 108.761 220.423C107.044 209.488 111.337 145.768 112.367 131.016H112.402Z" fill="#262837"/>
<path d="M113.811 34.9375L112.266 43.7407C112.266 43.7407 120.474 53.5067 123.324 53.0253C126.174 52.5438 129.025 48.4861 129.025 48.4861L129.368 35.6253L113.777 34.9031L113.811 34.9375Z" fill="#F2AD86"/>
<path d="M112.747 41.0241C112.747 41.0241 113.811 46.3885 116.421 47.936C119.031 49.4834 125.11 52.3375 125.11 52.3375L113.708 58.5273L110.377 42.9154L112.781 40.9897L112.747 41.0241Z" fill="#F3F3F3"/>
<path d="M128.886 43.4656L130.432 46.8356L132.458 57.3237L125.074 52.3375C125.074 52.3375 128.405 48.5205 128.405 47.5577C128.405 46.5949 128.749 43.7407 128.749 43.7407L128.852 43.4656H128.886Z" fill="#F3F3F3"/>
<path d="M132.458 107.117L132.355 107.839L133.523 136.827C133.523 136.827 125.074 158.182 121.88 160.451C118.686 162.721 89.2891 160.451 89.2891 160.451L90.9375 147.109C90.9375 147.109 94.8526 132.219 96.7758 124.482C98.6646 116.745 94.99 97.4537 94.99 97.4537L89.7699 56.017L103.644 47.1794L110.341 42.9154C110.341 42.9154 118.309 65.5423 120.335 68.2589C122.361 71.0099 132.458 107.082 132.458 107.082V107.117Z" fill="#022D51"/>
<path d="M112.505 131.325V139.922L97.4284 137.343L96.8789 128.918L112.505 131.325Z" fill="#0D1623"/>
<path d="M112.815 131.394L111.578 138.959L96.4675 136.38L95.918 127.955L112.815 131.394Z" fill="#02223D"/>
<path d="M132.458 107.117L132.355 107.839C128.612 98.2447 103.542 52.9565 103.542 52.9565L107.216 50.4462L102.58 49.6209L103.61 47.2138L110.307 42.9498C110.307 42.9498 118.275 65.5767 120.301 68.2933C122.327 71.0443 132.424 107.117 132.424 107.117H132.458Z" fill="#355774"/>
<path d="M112.368 268.29C112.368 268.29 110.102 274.961 109.758 276.99C109.415 279.019 107.388 281.976 108.556 283.524C109.758 285.071 116.043 285.174 118.412 285.071C120.782 284.968 124.594 285.071 124.354 284.108C124.113 283.145 123.53 276.474 123.53 276.474V271.488C122.328 269.941 121.16 267.43 121.16 267.43L112.368 268.256V268.29Z" fill="#02223D"/>
<path d="M148.05 285.553C145.199 285.449 141.971 283.764 141.628 283.764C141.284 283.764 138.88 282.698 136.751 282.939C135.206 283.111 132.87 282.595 131.6 282.114C131.668 283.73 131.84 285.106 132.115 285.277C132.699 285.587 139.739 285.587 141.525 286.172C143.31 286.756 146.882 288.441 149.011 288.304C151.141 288.2 165.908 288.304 165.908 288.304C165.908 288.304 166.114 286.791 166.217 285.587C162.199 285.587 150.419 285.69 148.084 285.587L148.05 285.553Z" fill="#273442"/>
<path d="M136.751 282.939C138.881 282.698 141.285 283.764 141.628 283.764C141.971 283.764 145.234 285.14 148.05 285.553C149.596 285.793 161.959 285.621 166.183 285.553C166.252 284.899 166.286 284.315 166.217 284.108C166.114 283.524 157.426 279.947 156.224 278.881C155.022 277.815 148.394 268.049 148.394 268.049L143.414 268.393C143.414 268.393 135.687 275.649 135.343 275.305C135 274.961 134.038 270.078 134.038 270.078C134.038 270.078 131.531 275.924 131.531 277.575C131.531 278.434 131.531 280.394 131.6 282.114C132.871 282.595 135.206 283.111 136.751 282.939Z" fill="#02223D"/>
<path d="M152.481 154.949C152.481 154.949 151.485 159.695 147.673 157.219C145.749 155.947 133.901 150.96 129.437 138.959C125.075 127.268 128.063 108.526 128.063 108.526L128.647 103.987L133.42 67.0897L130.673 46.7324L137.61 50.0336L150.866 56.3265C150.866 56.3265 149.561 74.8612 146.471 87.8253C143.38 100.824 145.028 107.117 145.303 107.701C145.543 108.286 152.481 154.984 152.481 154.984V154.949Z" fill="#02223D"/>
<path d="M88.6035 147.591L89.4277 158.319L94.167 162.859L98.3569 164.337L95.7125 152.405L88.6035 147.591Z" fill="#F2AF81"/>
<path d="M128.646 103.987L133.419 67.0897L130.672 46.7324L137.609 50.0336L140.288 56.6359L137.197 55.5699L142.177 60.6937C140.94 60.281 132.732 90.3012 128.611 104.022L128.646 103.987Z" fill="#355774"/>
<path d="M89.7715 148.038L96.331 145.252C96.331 145.252 99.2501 148.794 100.143 150.617C101.036 152.439 101.414 155.5 101.791 156.394C102.169 157.288 104.333 160.898 102.993 161.07C101.654 161.242 99.1814 159.317 99.2844 156.841C99.3875 154.33 98.1511 154.743 98.1511 154.743V159.282L99.5935 163.443L100.933 164.819C100.933 164.819 102.925 165.541 103.371 166.641C103.818 167.741 103.268 168.223 103.268 168.223L100.246 166.847L96.64 163.787L91.9007 158.354L89.7715 148.072V148.038Z" fill="#FFC197"/>
<path d="M97.4637 143.43L97.0172 143.051L85.7871 144.668L88.8436 149.688C88.8436 149.688 91.591 149.104 92.9304 147.728C94.2698 146.353 97.601 146.834 97.601 146.834L97.4637 143.43Z" fill="#C0F0FF"/>
<path d="M93.4796 58.8711C93.4796 58.8711 92.415 55.4324 89.8049 56.017C87.1949 56.6016 83.6232 56.9798 81.8374 85.4182C78.6435 136.724 86.405 150.204 86.405 150.204C86.405 150.204 90.011 146.249 92.8271 144.702C96.8796 142.501 99.4896 145.424 99.4896 145.424C99.4896 145.424 97.6694 121.25 98.1502 115.301C98.631 109.352 100.863 83.0454 99.3179 77.1996C97.7725 71.3537 93.4796 58.8711 93.4796 58.8711Z" fill="#355774"/>
<path d="M132.355 129.64C132.355 130.878 131.703 131.91 130.913 131.91C130.123 131.91 129.471 130.913 129.471 129.64C129.471 128.368 130.123 127.371 130.913 127.371C131.703 127.371 132.355 128.368 132.355 129.64Z" fill="#355774"/>
<path d="M132.355 115.713C132.355 116.951 131.703 117.983 130.913 117.983C130.123 117.983 129.471 116.986 129.471 115.713C129.471 114.441 130.123 113.444 130.913 113.444C131.703 113.444 132.355 114.441 132.355 115.713Z" fill="#355774"/>
<path d="M131.292 10.2818C135.413 12.9296 133.73 20.3917 133.73 20.3917C133.73 20.3917 134.382 25.7561 134.073 26.8221C133.764 27.8881 132.459 32.7024 132.459 32.7024L131.601 38.4794C131.395 39.8893 128.682 40.9553 127.239 41.0585C125.35 41.196 122.912 41.2648 121.916 40.8178C117.864 38.9952 113.88 34.3186 113.536 32.9431C112.987 30.9486 112.472 28.9541 112.472 28.9541C112.472 28.9541 111.751 30.6047 110.377 29.2292C108.969 27.8537 104.985 18.5692 107.423 19.0162C109.862 19.4632 114.292 24.3806 114.292 24.3806C114.292 24.3806 114.395 11.2447 118.344 10.4537C122.294 9.66284 131.326 10.2818 131.326 10.2818H131.292Z" fill="#FFC197"/>
<path d="M188.746 81.9107L163.333 81.5668L137.061 114.854L160.723 114.028L188.746 81.9107Z" fill="#A01A30"/>
<path d="M171.747 107.736C171.747 107.736 173.396 105.707 172.434 102.337C171.473 98.9324 171.198 96.2846 171.198 96.2846L169.927 91.5735C169.927 91.5735 167.901 91.2984 168.21 93.2929C168.553 95.3218 168.725 97.1099 168.725 97.1099L168.966 100.686L169.206 104.71C169.206 104.71 167.489 101.03 167.18 100.274C166.871 99.517 165.257 93.8431 164.707 93.6712C164.158 93.4648 163.059 93.1897 163.093 94.3589C163.127 95.5281 164.432 98.0384 164.432 98.0384C164.432 98.0384 164.776 100.445 165.291 101.408C165.806 102.371 166.218 106.016 166.218 106.016L163.299 99.9984C163.299 99.9984 161.822 96.8004 161.445 97.1099C161.101 97.4538 160.311 97.3162 160.998 98.7605C161.685 100.205 162.337 101.855 162.337 101.855L164.398 107.701C164.398 107.701 161.376 104.366 161.067 103.919C160.758 103.472 159.796 101.993 159.212 101.443C158.663 100.858 158.113 101.649 158.113 101.649L159.693 105.363C159.693 105.363 161.273 108.905 161.41 110.074C161.548 111.346 161.307 112.962 161.96 113.891C162.853 115.163 163.471 114.785 166.733 113.272C168.45 112.481 170.717 110.452 171.713 107.77L171.747 107.736Z" fill="#F2AD86"/>
<path d="M220.067 132.494C220.067 132.494 221.543 139.888 224.257 139.957C224.291 139.957 224.325 139.957 224.36 139.957L221.578 125.617C219.414 125.686 220.17 131.807 220.101 132.494H220.067Z" fill="#1B3761"/>
<path d="M225.355 130.019C224.599 127.852 223.707 125.548 221.543 125.617L224.325 139.957C226.866 139.819 226.076 132.185 225.355 130.053V130.019Z" fill="#1B3761"/>
<path d="M202.484 142.811L202.69 142.879L206.159 143.705L210.589 142.192L212.615 139.785L202.484 142.811Z" fill="#FFC197"/>
<path d="M239.471 127.646C233.804 128.918 219.827 128.781 219.827 128.781L213.405 126.442C213.405 126.442 209.387 126.03 208.528 125.892C207.635 125.755 204.201 127.13 202.861 127.164C201.522 127.199 203.548 128.643 206.158 128.368C208.734 128.093 210.348 129.193 210.348 129.193L206.193 132.288C206.193 132.288 197.195 133.423 196.199 134.833C195.237 136.243 194.757 136.415 196.955 136.174C199.152 135.899 206.777 134.455 206.777 134.455L202.346 136.896C202.346 136.896 199.874 136.896 197.298 138.065C194.722 139.234 195.237 140.679 195.237 140.679L203.96 139.785L208.974 137.377L205.678 140.232C205.678 140.232 202.861 140.61 201.35 141.47C199.839 142.329 198.912 143.223 198.912 143.223L200.148 143.842L207.841 141.332C207.841 141.332 209.078 142.501 210.52 142.157C211.997 141.813 214.984 140.094 214.984 140.094C214.984 140.094 221.441 138.753 222.368 136.965C223.295 135.177 231.95 136.311 237.033 136.415L239.402 127.646H239.471Z" fill="#FFC197"/>
<path d="M225.424 128.059L222.059 128.781C222.059 128.781 223.192 128.609 223.535 130.672C223.879 132.735 223.535 137.549 223.535 137.549C223.535 137.549 227.073 137.996 227.931 136.758C228.79 135.486 225.596 128.265 225.596 128.265L225.424 128.059Z" fill="#D0F4EE"/>
<path d="M265.95 91.1953C265.95 91.1953 265.812 91.3328 265.538 91.5735C264.713 92.3644 262.687 94.3933 260.867 97.4881C258.463 101.511 236.621 126.58 236.621 126.58L237.205 132.563L244.211 136.793C244.211 136.793 267.873 116.917 269.041 109.764L265.915 91.2296L265.95 91.1953Z" fill="#4A2C11"/>
<path d="M271.135 75.1708C271.135 75.1708 273.333 83.1486 273.161 84.0771C272.955 85.0055 272.818 90.7138 272.818 90.7138L288.821 79.366L286.692 71.285L285.318 58.0115L271.203 75.1708H271.135Z" fill="#FFBF85"/>
<path d="M270.688 48.3142L269.452 47.6265C269.452 47.6265 266.017 40.5427 271.924 39.8206C277.831 39.0984 288.237 38.7202 293.08 44.0158C297.887 49.2771 299.364 52.4407 297.475 58.1146C295.587 63.7885 289.714 71.113 290.744 72.351C291.74 73.5889 292.496 76.3055 292.496 76.3055C292.496 76.3055 289.027 75.9617 288.375 74.9988C287.688 74.036 282.021 68.0182 282.055 65.2328C282.055 62.4474 270.757 48.3486 270.757 48.3486L270.688 48.3142Z" fill="#6E5641"/>
<path d="M268.387 46.7324C268.387 46.7324 266.292 47.4889 265.228 50.8245C264.197 54.1601 263.545 54.3664 264.094 56.2921C264.987 59.2494 262.618 61.347 261.313 62.3786C259.939 63.479 259.458 62.5506 260.008 64.4419C260.282 65.4047 262.995 67.1585 262.995 67.1585C262.995 67.1585 262.137 70.1158 263.202 70.5285L264.232 70.9411C264.232 70.9411 262.377 71.8352 262.858 72.1103C263.339 72.3854 263.305 74.9644 263.305 74.9644C263.305 74.9644 262.068 78.3344 263.511 78.9877C264.919 79.6411 278.553 76.9245 280.51 73.3138C282.468 69.7032 283.704 66.9522 283.704 66.9522L286.692 66.0237C286.692 66.0237 289.336 62.3099 289.371 60.6937C289.371 59.0775 288.821 55.8107 287.104 56.1202C285.387 56.4296 283.017 58.0458 283.017 58.0458C283.017 58.0458 278.347 47.5577 275.084 46.2166C271.822 44.8755 268.422 46.6636 268.422 46.6636L268.387 46.7324Z" fill="#FFC197"/>
<path d="M275.806 82.6328C275.806 82.6328 269.074 85.1087 267.872 88.8913C266.636 92.7083 264.163 98.3134 263.064 102.234C261.965 106.154 255.234 139.441 266.43 131.153C277.626 122.866 285.353 88.685 285.559 87.7909C285.799 86.8968 275.84 82.6328 275.84 82.6328H275.806Z" fill="#B1E5DB"/>
<path d="M270.448 287.444H261.588V301.302H270.448V287.444Z" fill="#FFBF85"/>
<path d="M286.212 198.415C286.212 198.415 286.143 198.69 285.972 199.206C284.358 204.536 283.121 227.679 281.988 233.868C280.717 240.677 279.927 261.757 279.962 271.729C279.962 281.667 274.124 293.84 274.124 293.84L257.982 292.224C257.982 292.224 262.79 245.698 263.306 238.476C263.855 231.255 260.936 165.953 260.936 165.953L274.81 172.315L286.247 198.415H286.212Z" fill="#1B1B2B"/>
<path d="M290.091 314.816C287.035 314.679 281.025 314.06 277.35 313.647C277.35 313.578 277.35 313.544 277.35 313.475C277.144 311.962 280.029 309.486 281.746 308.145C283.463 306.804 288.237 298.792 288.237 298.792L299.089 300.133C299.089 300.133 299.089 303.743 300.223 305.841C300.978 307.251 301.425 308.626 301.596 309.417C300.6 309.727 299.158 310.346 297.372 311.549C293.388 314.232 294.693 314.988 290.126 314.782L290.091 314.816Z" fill="#202C52"/>
<path d="M277.351 313.647C281.025 314.06 287.035 314.679 290.092 314.816C294.66 315.023 293.32 314.232 297.338 311.584C299.158 310.38 300.566 309.761 301.562 309.452C301.665 309.83 301.7 310.071 301.7 310.071L300.36 314.644C300.36 314.644 295.587 316.157 293.698 317.326C291.809 318.461 277.316 316.742 277.316 316.742C277.316 316.742 277.488 315.16 277.316 313.647H277.351Z" fill="#202551"/>
<path d="M301.288 174.653C303.108 180.706 307.16 182.356 307.057 188.683C306.851 200.96 306.199 306.323 306.199 306.323L283.258 305.669C283.258 305.669 289.989 266.33 285.524 247.658C281.06 228.985 277.832 199.378 275.496 194.254C273.161 189.13 274.397 170.871 274.397 170.871L297.613 162.446L301.288 174.688V174.653Z" fill="#3B3B56"/>
<path d="M261.004 303.778C258.325 305.119 256.334 307.698 250.633 306.942C247.92 306.563 245.79 306.047 244.279 305.635C244.314 305.016 244.382 304.328 244.451 303.606C244.657 301.13 250.736 300.167 252.659 298.826C254.548 297.485 257.982 291.192 257.982 291.192L263.133 291.57C263.133 291.57 265.434 295.181 268.285 296.35C271.135 297.485 270.174 292.533 270.174 292.533C270.174 292.533 271.307 298.242 272.269 300.545C272.44 300.958 272.509 301.371 272.578 301.783C271.204 302.23 269.35 302.712 267.323 302.815C263.34 303.021 263.717 302.437 261.039 303.778H261.004Z" fill="#202C52"/>
<path d="M250.633 306.942C256.334 307.698 258.36 305.119 261.004 303.778C263.683 302.437 263.305 303.021 267.289 302.815C269.315 302.712 271.17 302.23 272.544 301.783C272.75 303.64 271.857 305.291 271.857 305.291C271.857 305.291 265.95 306.254 263.099 306.254C260.249 306.254 259.081 309.108 254.136 309.314C249.19 309.521 244.039 308.179 244.039 308.179C244.039 308.179 244.142 307.113 244.245 305.635C245.722 306.082 247.885 306.598 250.599 306.942H250.633Z" fill="#202551"/>
<path d="M240.982 123.451C237.685 123.004 221.578 125.617 221.578 125.617C223.742 125.548 224.635 127.852 225.39 130.019C226.111 132.151 226.936 139.785 224.36 139.922V140.163C224.36 140.163 243.145 137.859 244.244 136.724C245.378 135.589 246.648 133.423 246.717 129.021C246.786 124.62 244.244 123.863 240.982 123.416V123.451Z" fill="#4A2C11"/>
<path d="M271.342 83.7332L274.467 89.2696C274.467 89.2696 284.152 75.2395 287.139 74.1735C290.127 73.1419 287.449 71.7664 287.449 71.7664L271.342 83.7332Z" fill="#D0F4EE"/>
<path d="M271.341 83.7332L270.586 82.8391L266.121 90.6107C266.121 90.6107 266.258 90.5075 266.533 90.3012C267.701 89.4071 271.101 86.8625 271.341 86.1059C271.65 85.2119 271.341 83.6988 271.341 83.6988V83.7332Z" fill="#D0F4EE"/>
<path d="M268.49 90.3012H271.341C271.341 90.3012 273.436 87.447 273.092 86.7937C272.749 86.1747 273.264 82.5984 271.341 83.6988C269.417 84.8336 268.49 90.2668 268.49 90.2668V90.3012Z" fill="#275C9B"/>
<path d="M268.49 90.3012C268.49 90.3012 262.72 100.721 262.72 106.394L259.904 124.345C259.904 124.345 268.971 96.6973 269.555 94.7716C270.138 92.8459 271.34 90.3012 271.34 90.3012H268.49Z" fill="#195591"/>
<path d="M288.546 77.3028C288.546 77.3028 302.215 87.447 303.245 90.3012C304.275 93.1553 301.768 121.387 300.395 128.987C299.055 136.621 305.306 162.755 305.306 168.876C305.306 174.997 305.752 184.247 305.752 184.247C305.752 184.247 271.135 186.173 268.456 186.036C265.777 185.898 260.385 177.955 260.385 177.955C260.385 177.955 258.359 129.537 259.836 124.31C261.313 119.083 279.343 83.4581 279.343 83.4581L288.512 77.234L288.546 77.3028Z" fill="#4A2C11"/>
<path d="M292.084 78.1968L288.581 72.6605C288.581 72.6605 280.305 77.8873 275.394 84.3178C270.483 90.7482 259.939 124.345 259.939 124.345L280.476 87.3095L279.721 85.0743L282.571 84.7648L292.119 78.1968H292.084Z" fill="#6E5641"/>
<path d="M264.781 92.33L268.902 88.4443C268.902 88.4443 264.918 97.9008 263.579 103.747C262.24 109.558 259.904 124.379 259.904 124.379C259.904 124.379 259.355 113.031 264.781 92.33Z" fill="#6E5641"/>
<path d="M287.378 167.673L281.093 175.788L276.32 176.751C276.32 176.751 274.877 178.574 272.817 180.018C270.756 181.462 265.983 183.25 265.983 183.25C265.983 183.25 265.742 184.316 267.906 184.626C270.069 184.935 271.752 183.732 271.752 183.732L275.633 181.531L270.31 193.016C270.31 193.016 266.36 197.177 266.326 198.965C266.326 199.722 267.7 201.2 269.382 198.759C270.275 197.487 272.199 196.317 273.023 194.667C273.71 193.223 277.144 190.334 277.144 190.334C277.144 190.334 279.445 193.738 280.51 191.709C281.574 189.681 283.6 191.709 284.39 190.678C285.18 189.646 285.936 192.775 287.687 187.239C289.13 182.631 289.645 181.153 289.645 181.153L294.865 173.415L287.412 167.707L287.378 167.673Z" fill="#FFC197"/>
<path d="M283.087 171.146L281.404 174.585L290.643 181.325L292.737 177.542L283.087 171.146Z" fill="#D0F4EE"/>
<path d="M295.347 89.2696C295.347 89.2696 289.715 89.2008 289.406 97.4538C289.063 106.36 299.262 140.507 295.862 138.409L282.057 173.106L291.947 180.155C291.947 180.155 312.896 146.834 313.034 139.338C313.171 131.875 311.385 98.6229 306.474 92.7427C301.563 86.8625 295.347 89.2352 295.347 89.2352V89.2696Z" fill="#6E5641"/>
<path d="M277.317 189.165L273.54 195.458C273.54 195.458 271.994 196.764 270.964 197.899C269.178 199.859 270.861 200.925 270.861 200.925L277.558 196.317L279.962 192.432L277.832 197.246C277.832 197.246 276.733 197.934 275.875 199.275C274.982 200.616 275.703 201.407 276.115 201.854C276.527 202.301 280.683 197.83 280.683 197.83L283.499 193.016L282.125 196.592C282.125 196.592 280.752 199.515 280.992 200.272C281.232 201.028 282.091 201.269 282.091 201.269L285.113 196.042L287.654 187.239C287.654 187.239 278.485 188.615 278.142 188.821C277.764 189.062 277.352 189.13 277.352 189.13L277.317 189.165Z" fill="#FFC197"/>
<path d="M62.8106 162.411C62.8106 162.411 63.8065 166.366 54.4309 169.323C45.0554 172.281 41.6211 162.411 41.6211 162.411C41.6211 162.411 59.3763 155.5 62.8106 162.411Z" fill="#1D1F2D"/>
<path d="M13.9063 266.055C17.1345 256.53 19.3324 253.435 19.6759 252.3C20.0193 251.165 21.0496 243.325 21.0496 243.325L36.1604 244.735C35.9887 247.142 35.0271 259.453 33.4816 261.069C31.7645 262.823 30.4251 262.651 29.1888 268.84C27.9868 275.03 25.4798 307.698 25.4798 307.698C25.4798 307.698 27.5403 316.329 28.1929 323.344C28.6393 328.124 29.0171 330.6 29.3605 332.044C26.3383 332.285 20.1223 332.629 18.8173 331.253C17.0658 329.431 19.1607 321.075 17.4436 316.845C16.9284 315.573 16.585 314.541 16.3789 313.681C16.5163 313.131 16.688 312.512 16.7911 311.893C17.3405 309.177 10.6437 275.511 13.8719 265.986L13.9063 266.055Z" fill="#F2AD86"/>
<path d="M33.4473 312.203C33.6533 311.584 33.7907 311.206 33.7907 311.206C33.7907 311.206 36.5381 308.558 37.5341 305.635C38.53 302.712 34.5806 279.466 34.5806 275.34C34.5806 271.213 37.9118 258.18 37.9118 258.18L34.5806 241.227H51.5116C51.5116 241.227 53.6752 255.429 53.0913 257.011C52.5075 258.593 50.9277 263.304 50.9277 267.052C50.9277 270.732 47.2187 315.332 47.1844 315.538L48.9702 329.534C48.9702 329.534 49.348 330.634 50.2409 331.7L41.14 316.948C41.14 316.948 34.3058 315.642 33.4816 312.237L33.4473 312.203Z" fill="#F2AD86"/>
<path d="M47.2886 115.335C47.2886 115.335 45.3654 110.246 49.7269 115.335C54.0884 120.425 61.0944 150.376 61.0944 150.376C61.0944 150.376 51.2723 159.385 48.4906 157.597C45.7088 155.809 47.2886 115.335 47.2886 115.335Z" fill="#0F0F11"/>
<path d="M43.063 67.5368C48.6265 69.8407 51.7174 81.1542 47.8023 89.9917C33.7561 121.559 21.6674 91.4704 18.7139 84.5585C16.2069 78.6783 19.5725 57.8395 43.063 67.5368Z" fill="#8E2F00"/>
<path d="M55.0494 330.841L57.7968 332.285V333.213H46.6011C45.5364 333.213 44.5748 332.526 44.2658 331.494C43.2698 328.227 41.1062 321.384 40.0416 320.972C38.5992 320.421 36.8477 320.146 36.8477 320.146V333.557H32.864C32.864 333.557 31.2499 320.559 31.3185 319.183C31.3872 317.808 31.4216 317.292 32.2458 316.26C33.07 315.194 43.0638 319.011 43.0638 319.011L55.0494 330.841Z" fill="#0F0F11"/>
<path d="M49.0741 315.607C49.0741 315.607 49.967 324.445 51.375 325.339C52.8174 326.233 57.5567 328.881 57.7628 329.878C57.9688 330.875 57.7628 332.319 57.7628 332.319C57.7628 332.319 46.4983 332.526 45.9489 331.769C45.3994 331.013 41.8621 320.181 40.1106 319.183C38.3591 318.186 33.4824 317.842 33.4824 317.842L31.834 317.395C31.834 317.395 31.937 313.097 33.5855 311.102C35.2339 309.108 49.0397 315.641 49.0397 315.641L49.0741 315.607Z" fill="#1D1F2D"/>
<path d="M29.7737 329.534C29.7737 329.534 30.1514 330.703 29.9454 331.7C29.7393 332.698 29.7737 333.523 27.9192 333.867C26.0303 334.211 19.2648 333.97 19.2648 333.97C19.2648 333.97 15.3497 331.975 17.788 326.955C20.2264 321.934 29.808 329.568 29.808 329.568L29.7737 329.534Z" fill="#0F0F11"/>
<path d="M27.885 321.109C27.885 321.109 30.3234 326.198 30.083 329.396C29.8426 332.594 26.6143 332.147 25.275 332.113C23.9356 332.044 18.6125 332.388 17.8913 331.494C17.1701 330.6 16.4489 328.606 17.6165 324.582C18.7842 320.559 27.885 321.109 27.885 321.109Z" fill="#282A39"/>
<path d="M27.8496 207.94L16.9629 257.596L27.3001 291.708C27.3001 291.708 41.3806 293.668 47.2876 291.639C53.1602 289.645 54.5682 287.272 54.5682 287.272L52.4733 252.678L53.6753 197.28L48.0774 176.166C48.0774 176.166 30.7687 186.895 28.8111 194.013C26.888 201.132 27.8152 207.906 27.8152 207.906L27.8496 207.94Z" fill="#437FB1"/>
<path d="M9.54433 250.684C9.23524 241.537 5.14845 209.144 7.17468 202.37C9.23524 195.595 14.2493 184.901 14.2493 184.901L33.4469 191.022C30.4591 205.464 27.7117 242.431 27.4369 248.105C27.1278 254.294 26.3036 276.921 27.3339 291.742C23.8653 292.602 7.62113 286.791 7.62113 286.791C7.62113 286.791 9.85341 259.796 9.57867 250.649L9.54433 250.684Z" fill="#145F9E"/>
<path d="M42.7886 101.649C42.7886 101.649 38.5301 107.048 38.4957 110.383C38.4957 113.685 37.6028 116.917 37.6028 116.917C37.6028 116.917 36.9503 120.906 34.718 119.358C32.5201 117.811 24.793 107.426 24.793 107.426L33.2413 96.0782L42.7886 101.683V101.649Z" fill="#F2AD86"/>
<path d="M37.5 119.324L38.4959 113.031C38.4959 113.031 41.6898 116.16 43.4413 119.702C45.1928 123.244 49.726 136.69 50.0695 144.083C50.4129 151.476 49.0735 152.164 49.0735 152.164L37.5 119.358V119.324Z" fill="#D1D7E5"/>
<path d="M27.5739 106.635L22.2852 110.727C22.2852 110.727 31.0082 120.012 34.6486 126.649C38.2889 133.285 49.725 153.402 49.725 153.402L37.5333 115.163L27.6083 106.67L27.5739 106.635Z" fill="#EAEDF4"/>
<path d="M37.4988 115.129C37.4988 115.129 29.5656 107.632 28.4667 105.947C27.3677 104.297 26.8182 103.506 26.8182 103.506L24.1738 108.492L36.9837 121.078C36.9837 121.078 38.117 120.596 37.5332 115.094L37.4988 115.129Z" fill="#F3F6FF"/>
<path d="M41.1403 115.679L39.6636 121.353L37.5 115.576L38.599 109.489L41.1403 115.679Z" fill="#F3F6FF"/>
<path d="M33.9624 142.879C33.0695 138.684 18.1991 127.405 14.6618 121.112C13.9406 119.806 13.5972 118.533 13.4941 117.261L23.9343 107.392L27.3343 111.621L46.5662 147.281C49.2793 173.278 43.2006 168.67 45.9824 175.135C47.0814 177.679 46.4289 194.701 44.643 196.455C43.6814 197.418 30.8029 200.409 23.6939 200.169C24.1747 190.643 25.5485 171.799 28.9827 166.744C33.619 159.901 34.8553 147.075 33.9624 142.879Z" fill="#1D1F2D"/>
<path d="M17.203 165.747C17.8555 162.859 14.696 151.167 14.696 151.167L11.9486 118.774L13.5284 117.295C13.6314 118.533 13.9748 119.84 14.696 121.147C18.2333 127.44 33.1381 138.719 33.9966 142.914C34.8896 147.109 33.6532 159.936 29.0169 166.779C25.5827 171.834 24.209 190.678 23.7282 200.203C17.6838 199.962 12.2233 199.584 12.2233 199.584C12.2233 199.584 10.0254 189.406 10.3345 184.557C10.6779 179.708 16.5162 168.636 17.1687 165.781L17.203 165.747Z" fill="#151721"/>
<path d="M28.4672 110.83L23.934 106.085L19.7441 109.73L24.7238 118.774L27.9177 119.565L26.9218 120.768L46.5658 147.281C46.5658 147.281 39.7316 129.056 35.5418 122.316C31.352 115.576 28.4672 110.83 28.4672 110.83Z" fill="#262837"/>
<path d="M39.5257 111.69C39.5257 111.69 45.9135 126.511 46.566 132.013C47.2185 137.549 46.3599 147.694 46.3599 150.032C46.3599 156.566 42.1358 166.057 45.57 177.095C48.867 187.686 51.6144 197.315 51.6144 197.315H55.9072C55.9072 197.315 54.1557 178.023 50.9619 170.286C47.768 162.549 55.1517 141.848 54.3618 138.547C53.6063 135.245 50.4467 128.265 50.0689 125.72C49.7255 123.175 48.0427 113.994 48.0427 113.994L39.457 111.656L39.5257 111.69Z" fill="#1D1F2D"/>
<path d="M38.9414 109.833L44.917 115.679L43.2686 116.332L45.81 117.983C45.81 117.983 50.3432 128.712 49.6563 132.219C49.0038 135.761 46.3594 149.998 46.3594 149.998C46.3594 149.998 47.012 134.764 45.913 131.669C44.814 128.574 38.9757 109.799 38.9757 109.799L38.9414 109.833Z" fill="#262837"/>
<path d="M14.0779 208.972L19.5384 217.19L19.4354 222.796L18.2334 225.581C18.2334 225.581 16.7566 223.965 16.8253 222.796C16.894 221.626 16.8253 218.532 16.8253 218.532H15.4516C15.4516 218.532 17.1001 225.753 15.7263 225.753C14.3526 225.753 13.6314 224.859 13.6314 224.859C13.6314 224.859 14.0779 225.89 12.6355 225.443C11.1588 224.996 11.1588 224.721 11.1588 224.721C11.1588 224.721 10.8497 225.168 9.68201 225.031C8.51436 224.893 8.34265 224.309 8.34265 224.309C8.34265 224.309 8.34265 225.478 7.44973 224.893C6.55682 224.309 4.66797 220.182 4.66797 220.182L5.69825 209.35L14.0779 209.041V208.972Z" fill="#FFC197"/>
<path d="M14.1129 206.427L14.6967 209.385L4.53125 211.138V207.768L14.1129 206.427Z" fill="white"/>
<path d="M14.1129 167.707C14.1129 167.707 22.1834 148.278 21.0844 141.435C19.9855 134.592 15.3492 118.602 11.9149 118.739C8.48064 118.877 7.38167 123.519 7.38167 127.715C7.38167 131.91 0.513114 170.321 0.0323152 173.862C-0.414141 177.404 3.91305 210.038 3.91305 210.038L15.3835 207.493L14.0442 167.707H14.1129Z" fill="#262837"/>
<path d="M44.9869 72.9356C46.3606 73.8296 48.2495 82.7016 48.2495 82.7016C48.2495 82.7016 49.5201 89.5103 49.211 90.6107C48.8676 91.7111 46.9444 97.0411 46.9444 97.0411C46.9444 97.0411 45.399 104.572 43.3041 105.397C41.2092 106.223 29.5326 99.3794 28.9488 97.2818C28.3993 95.2186 27.8498 93.1553 27.8498 93.1553C27.8498 93.1553 27.1286 94.8403 25.6863 93.4304C24.2439 92.0205 20.0884 82.3921 22.6297 82.8735C25.1711 83.3549 27.06 86.0372 27.06 86.0372C27.06 86.0372 31.6619 75.1707 35.7487 74.3455C39.8355 73.5202 45.0212 72.9012 45.0212 72.9012L44.9869 72.9356Z" fill="#FFC197"/>
<path d="M48.4902 84.3866L49.1771 83.7676C49.1771 83.7676 49.3831 84.2146 49.6235 84.1802C49.8639 84.1458 50.2417 83.9395 50.2417 83.9395C50.2417 83.9395 49.8639 84.4897 49.5892 84.5585C49.3145 84.6273 48.4902 84.4897 48.4902 84.4897V84.4209V84.3866Z" fill="#8C3C19"/>
<path d="M49.1094 83.802L49.3841 83.2518C49.3841 83.2518 49.6245 83.4581 49.7619 83.3893C49.8993 83.2862 50.1053 83.0798 50.1053 83.0798C50.1053 83.0798 50.0023 83.5269 49.8306 83.63C49.6589 83.7332 49.1094 83.8364 49.1094 83.8364V83.802Z" fill="#8C3C19"/>
<path d="M83.6218 134.798H54.2244L28.9824 166.744L56.7657 165.609L83.6218 134.798Z" fill="#3A1A0B"/>
<path d="M65.8326 160.83C65.8326 160.83 66.3821 158.56 64.9397 155.603C63.4973 152.645 63.1539 150.548 63.1539 150.548L61.0933 146.077C61.0933 146.077 59.651 146.353 60.2691 148.141C60.8873 149.929 61.3337 151.579 61.3337 151.579L62.158 154.812L62.7075 158.698C62.7075 158.698 61.0933 155.74 60.6812 155.121C60.2691 154.468 57.6591 149.172 57.1096 149.069C56.5601 148.966 55.4955 148.897 55.7359 149.963C55.9763 151.029 57.556 153.127 57.556 153.127C57.556 153.127 58.2429 155.293 58.8954 156.084C59.5479 156.909 60.1661 160.245 60.1661 160.245L56.8348 155.121C56.8348 155.121 54.946 152.405 54.6712 152.783C54.3965 153.127 53.641 153.161 54.5339 154.365C55.3924 155.568 56.251 156.978 56.251 156.978L58.449 162.308C58.449 162.308 55.7359 159.42 55.3924 159.076C55.049 158.732 53.9157 157.528 53.2975 157.081C52.6794 156.634 52.3359 157.46 52.3359 157.46L54.3965 160.623C54.3965 160.623 56.4227 163.615 56.7318 164.681C57.0752 165.816 56.7318 168.911 56.7318 168.911C56.7318 168.911 59.3762 168.636 62.1236 166.744C63.6004 165.713 65.3518 163.512 65.7983 160.898L65.8326 160.83Z" fill="#F2AD86"/>
<path d="M180.538 156.153C180.538 156.153 183.56 167.088 184.693 169.839C185.861 172.556 185.071 179.743 184.727 181.943C184.418 184.144 186.41 191.056 180.915 189.096C175.42 187.136 177.035 187.617 177.447 191.366C177.859 195.114 177.241 198.277 177.241 197.727C177.241 197.177 165.633 192.913 165.633 192.913C165.633 192.913 167.625 180.568 167.453 179.64C167.247 178.711 180.538 156.153 180.538 156.153Z" fill="#FFC197"/>
<path d="M184.247 169.942C184.247 169.942 185.655 157.494 181.397 153.024C177.138 148.553 165.256 148.485 165.256 148.485C165.256 148.485 158.731 145.871 152.171 155.396C145.612 164.887 150.42 176.235 152.171 181.118C153.923 185.967 155.262 188.546 155.262 188.546C155.262 188.546 158.524 189.681 159.589 189.509C160.654 189.337 173.944 190.437 173.944 190.437C173.944 190.437 174.872 190.265 175.284 185.657C175.696 181.084 184.488 181.29 182.427 179.777C180.366 178.264 181.225 172.9 181.259 169.564C181.259 166.228 184.316 169.908 184.316 169.908L184.247 169.942Z" fill="#133452"/>
<path d="M142.521 432.215C142.521 432.215 148.805 434.484 153.373 434.931C157.941 435.378 162.508 433.59 162.508 433.59C162.508 433.59 162.508 429.189 161.684 426.059C160.86 422.896 159.177 412.098 159.177 412.098L148.737 413.886C148.737 413.886 144.135 419.285 143.311 426.059C142.486 432.834 142.486 432.249 142.486 432.249L142.521 432.215Z" fill="#133452"/>
<path d="M142.521 428.982C142.521 428.982 148.805 431.252 153.373 431.699C157.941 432.146 162.508 430.358 162.508 430.358C162.508 430.358 162.508 425.956 161.684 422.827C160.86 419.663 159.177 408.866 159.177 408.866L148.737 410.654C148.737 410.654 144.135 416.053 143.311 422.827C142.486 429.601 142.486 429.017 142.486 429.017L142.521 428.982Z" fill="#00468A"/>
<path d="M148.772 287.238C148.772 284.865 148.84 282.698 149.012 280.704L135.996 295.972L139.053 335.896C139.053 335.896 138.4 347.175 138.4 359.76C138.4 372.346 144.238 420.145 144.238 420.145C144.238 420.145 148.222 421.451 153.099 422.345C152.652 409.278 151.759 385.242 150.901 371.934C149.665 353.021 148.806 306.598 148.806 287.203L148.772 287.238Z" fill="#15528F"/>
<path d="M165.461 271.041L151.037 279.569L150.041 280.36L148.977 280.704C148.839 282.698 148.736 284.865 148.736 287.238C148.736 306.598 149.595 353.021 150.831 371.968C151.69 385.276 152.583 409.313 153.029 422.38C153.132 422.38 153.235 422.414 153.338 422.449C158.352 423.343 162.92 416.603 162.92 416.603C162.92 416.603 165.393 381.906 163.298 367.945C161.203 353.983 165.427 271.076 165.427 271.076L165.461 271.041Z" fill="#00468A"/>
<path d="M202.585 432.215C202.585 432.215 196.3 434.484 191.733 434.931C187.165 435.378 182.598 433.59 182.598 433.59C182.598 433.59 182.598 429.189 183.422 426.059C184.246 422.896 185.929 412.098 185.929 412.098L196.369 413.886C196.369 413.886 200.971 419.285 201.795 426.059C202.619 432.834 202.619 432.249 202.619 432.249L202.585 432.215Z" fill="#133452"/>
<path d="M202.585 428.982C202.585 428.982 196.3 431.252 191.733 431.699C187.165 432.146 182.598 430.358 182.598 430.358C182.598 430.358 182.598 425.956 183.422 422.827C184.246 419.663 185.929 408.866 185.929 408.866L196.369 410.654C196.369 410.654 200.971 416.053 201.795 422.827C202.619 429.601 202.619 429.017 202.619 429.017L202.585 428.982Z" fill="#00468A"/>
<path d="M179.646 288.613C179.336 286.275 178.993 284.108 178.615 282.183L197.366 284.899L195.409 341.604C195.409 341.604 197.538 346.796 199.118 359.313C200.698 371.83 200.938 419.938 200.938 419.938C200.938 419.938 197.16 421.726 192.421 423.24C191.219 410.207 189.055 386.273 188.266 372.965C187.098 354.018 182.118 307.87 179.68 288.647L179.646 288.613Z" fill="#1554A1"/>
<path d="M161.031 274.617L176.417 281.254L177.516 281.908L178.615 282.114C179.027 284.074 179.37 286.206 179.645 288.544C182.083 307.767 187.063 353.915 188.231 372.862C189.055 386.17 191.184 410.138 192.386 423.136C192.283 423.136 192.18 423.205 192.111 423.24C187.269 424.753 181.877 418.632 181.877 418.632C181.877 418.632 175.043 384.519 175.352 370.421C175.661 356.287 161.066 274.583 161.066 274.583L161.031 274.617Z" fill="#15528F"/>
<path d="M159.656 189.096H165.46V252.609L141.66 250.959C141.66 250.959 144.717 238.751 141.18 231.014C137.642 223.243 136.715 223.071 136.715 223.071L133.59 199.825C133.59 199.825 151.929 195.767 154.127 193.945C156.325 192.157 163.228 189.302 165.494 189.302C167.761 189.302 165.494 189.096 165.494 189.096H159.69H159.656Z" fill="#1554A1"/>
<path d="M146.847 242.706L165.461 252.609C165.461 252.609 171.127 289.748 169.685 295.009C168.243 300.27 151.586 345.077 151.586 345.077C151.586 345.077 135.136 324.032 132.32 306.598C129.504 289.163 136.888 253.091 141.49 248.38C146.126 243.634 146.847 242.706 146.847 242.706Z" fill="#1554A1"/>
<path d="M165.462 189.096V252.609L189.777 250.959C189.777 250.959 186.72 238.751 190.258 231.014C193.795 223.243 194.722 223.071 194.722 223.071L197.847 199.825C197.847 199.825 179.508 195.767 177.31 193.945C175.112 192.157 170.854 189.302 168.587 189.302C166.321 189.302 165.428 189.096 165.428 189.096H165.462Z" fill="#00468A"/>
<path d="M184.59 242.706L165.461 252.609C165.461 252.609 160.997 292.568 162.439 297.829C163.882 303.09 179.817 345.077 179.817 345.077C179.817 345.077 196.267 324.032 199.083 306.598C201.899 289.163 194.515 253.091 189.914 248.38C185.312 243.634 184.556 242.706 184.556 242.706H184.59Z" fill="#00468A"/>
<path d="M225.184 210.382L225.493 203.057C225.493 203.057 227.072 200.238 230.198 200.65C233.323 201.063 233.907 204.433 233.907 205.155C233.907 205.877 235.109 212.961 235.109 212.961L225.184 210.382Z" fill="#FFC197"/>
<path d="M226.281 205.155C226.281 205.155 225.594 204.158 225.285 202.438C224.976 200.753 226.487 191.469 227.586 190.815C228.685 190.128 230.917 189.509 233.012 190.953C235.107 192.397 237.889 197.934 237.889 197.934C237.889 197.934 236.962 200.65 236.446 201.819C235.931 202.954 234.042 206.083 234.042 206.083L226.281 205.189V205.155Z" fill="#FFC197"/>
<path d="M236.172 199.756L236.31 199.619L237.855 198.037C237.855 198.037 243.625 189.062 243.59 188.649C243.522 188.236 243.522 186.93 242.457 187.205C241.358 187.445 235.932 196.249 235.932 196.249C235.932 196.249 235.245 195.939 235.486 195.355C235.726 194.77 240.946 185.829 241.152 184.729C241.358 183.628 241.873 182.666 240.568 182.115C239.263 181.531 234.146 193.704 233.562 193.394C232.979 193.085 236.894 185.038 237.752 181.943C238.576 178.814 237.821 179.399 237.477 179.124C237.168 178.849 236.653 178.436 234.867 182.012C233.082 185.554 231.09 192.019 230.369 191.641C229.647 191.262 231.399 187.102 231.639 185.726C231.88 184.351 233.768 179.777 232.292 179.536C230.815 179.33 226.831 191.881 226.797 192.26L236.172 199.756Z" fill="#FFC197"/>
<path d="M227.346 192.707C227.346 192.707 226.247 196.764 224.668 196.111C223.088 195.423 222.332 192.157 221.233 190.953C220.134 189.784 219.173 188.924 217.765 189.44C216.322 189.956 217.009 191.538 217.009 191.538C217.009 191.538 219.207 192.225 219.757 193.773C220.306 195.32 220.959 198.381 221.645 198.896C222.332 199.412 224.462 203.332 225.286 203.332C226.11 203.332 229.441 200.719 229.441 200.719L227.346 192.672V192.707Z" fill="#FFC197"/>
<path d="M222.746 220.079C222.746 220.079 224.806 206.943 225.665 205.499C226.558 204.055 230.061 201.579 232.842 204.398C235.658 207.218 236.139 210.313 236.139 210.313C236.139 210.313 234.594 228.848 231.812 230.051C229.03 231.221 222.643 220.457 222.643 220.457L222.711 220.113L222.746 220.079Z" fill="#D2E9FF"/>
<path d="M218.588 226.991C218.588 226.991 221.507 211.86 222.778 210.175C224.014 208.491 229.028 205.671 233.012 208.903C236.996 212.136 237.717 215.712 237.717 215.712C237.717 215.712 235.485 237.066 231.535 238.442C227.586 239.817 218.52 227.369 218.52 227.369L218.623 226.991H218.588Z" fill="#1554A1"/>
<path d="M193.897 212.17C193.897 212.17 195.889 199.756 197.881 199.825C199.872 199.928 215.567 215.402 217.971 217.603C220.375 219.804 226.831 225.1 229.613 225.581C232.395 226.062 235.348 236.757 231.193 239.955C227.038 243.153 223.912 245.663 217.112 243.772C210.313 241.881 195.889 225.409 194.755 223.071C193.622 220.732 193.931 212.17 193.931 212.17H193.897Z" fill="#00468A"/>
<path d="M106.048 210.382L105.739 203.057C105.739 203.057 104.159 200.238 101.034 200.65C97.9089 201.063 97.325 204.433 97.325 205.155C97.325 205.877 96.123 212.961 96.123 212.961L106.048 210.382Z" fill="#FFC197"/>
<path d="M104.95 205.155C104.95 205.155 105.637 204.158 105.946 202.438C106.255 200.753 104.744 191.469 103.645 190.815C102.546 190.128 100.313 189.509 98.2185 190.953C96.1236 192.397 93.3418 197.934 93.3418 197.934C93.3418 197.934 94.2691 200.65 94.7842 201.819C95.2993 202.954 97.1882 206.083 97.1882 206.083L104.95 205.189V205.155Z" fill="#FFC197"/>
<path d="M95.0588 199.756L94.9214 199.619L93.376 198.037C93.376 198.037 87.6064 189.062 87.6408 188.649C87.7095 188.236 87.7095 186.93 88.7741 187.205C89.8731 187.445 95.2992 196.249 95.2992 196.249C95.2992 196.249 95.9861 195.939 95.7457 195.355C95.5053 194.77 90.2852 185.829 90.0791 184.729C89.8731 183.628 89.3579 182.666 90.6629 182.115C91.968 181.531 97.085 193.704 97.6689 193.394C98.2527 193.085 94.3376 185.038 93.479 181.943C92.6548 178.814 93.4104 179.399 93.7538 179.124C94.0629 178.849 94.578 178.436 96.3638 182.012C98.1497 185.554 100.142 192.019 100.863 191.641C101.584 191.262 99.8325 187.102 99.5921 185.726C99.3517 184.351 97.4628 179.777 98.9395 179.536C100.416 179.33 104.4 191.881 104.434 192.26L95.0588 199.756Z" fill="#FFC197"/>
<path d="M103.884 192.707C103.884 192.707 104.983 196.764 106.563 196.111C108.142 195.423 108.898 192.157 109.997 190.953C111.096 189.784 112.058 188.924 113.466 189.44C114.908 189.956 114.221 191.538 114.221 191.538C114.221 191.538 112.023 192.225 111.474 193.773C110.924 195.355 110.272 198.381 109.585 198.896C108.898 199.412 106.769 203.332 105.945 203.332C105.12 203.332 101.789 200.719 101.789 200.719L103.884 192.672V192.707Z" fill="#FFC197"/>
<path d="M109.585 222.314C109.585 222.314 107.593 207.184 106.769 205.499C105.911 203.814 101.824 200.134 99.1107 203.367C96.3976 206.599 95.5391 208.215 95.5391 208.215C95.5391 208.215 98.1491 232.39 100.828 233.765C103.507 235.141 109.654 222.693 109.654 222.693L109.585 222.314Z" fill="#D2E9FF"/>
<path d="M112.643 226.991C112.643 226.991 109.723 211.86 108.453 210.175C107.216 208.491 102.202 205.671 98.2186 208.903C94.2349 212.136 93.5137 215.712 93.5137 215.712C93.5137 215.712 95.746 237.066 99.6954 238.442C103.645 239.817 112.711 227.369 112.711 227.369L112.608 226.991H112.643Z" fill="#15528F"/>
<path d="M137.335 212.17C137.335 212.17 135.343 199.756 133.351 199.825C131.359 199.928 115.664 215.402 113.26 217.603C110.856 219.804 104.4 225.1 101.618 225.581C98.8363 226.062 95.8828 236.757 100.038 239.955C104.194 243.153 107.319 245.663 114.119 243.772C120.919 241.881 135.343 225.409 136.476 223.071C137.609 220.732 137.3 212.17 137.3 212.17H137.335Z" fill="#1554A1"/>
<path d="M156.188 188.374C156.188 188.374 158.695 186.345 160.996 186.345C163.297 186.345 165.461 185.932 165.461 185.932V190.437C165.461 190.437 162.233 190.231 159.313 191.469C156.394 192.707 153.166 194.46 153.166 194.46L156.188 188.34V188.374Z" fill="#15528F"/>
<path d="M174.769 188.374C174.769 188.374 172.262 186.345 169.961 186.345C167.66 186.345 165.496 185.932 165.496 185.932V190.437C165.256 190.059 168.141 189.337 171.644 191.469C174.357 193.119 177.791 194.46 177.791 194.46L174.769 188.34V188.374Z" fill="#1554A1"/>
</svg>
