<svg width="224" height="302" viewBox="0 0 224 302" fill="none" xmlns="http://www.w3.org/2000/svg">
<path d="M101.036 100.89C101.036 100.89 99.4173 108.899 96.4802 108.975C96.4425 108.975 96.4048 108.975 96.3672 108.975L99.3796 93.4449C101.714 93.5201 100.923 100.176 100.999 100.89H101.036Z" fill="#1B3761"/>
<path d="M95.2752 98.2203C96.1036 95.889 97.045 93.3696 99.4173 93.4449L96.4049 108.975C93.6184 108.824 94.4845 100.552 95.3129 98.2203H95.2752Z" fill="#1B3761"/>
<path d="M120.168 112.096L119.942 112.133L116.139 113.036L111.356 111.381L109.135 108.787L120.168 112.096Z" fill="#FFC197"/>
<path d="M79.9512 95.6258C86.1267 97.0171 101.302 96.8667 101.302 96.8667L108.268 94.3097C108.268 94.3097 112.636 93.8585 113.577 93.7081C114.557 93.5577 118.284 95.0618 119.753 95.0994C121.222 95.137 119 96.7163 116.176 96.4154C113.352 96.1146 111.619 97.3179 111.619 97.3179L116.138 100.664C116.138 100.664 125.928 101.868 126.983 103.409C128.037 104.951 128.527 105.139 126.154 104.876C123.782 104.613 115.46 103.033 115.46 103.033L120.28 105.666C120.28 105.666 122.954 105.666 125.778 106.944C128.602 108.223 128 109.764 128 109.764L118.51 108.824L113.088 106.192L116.665 109.313C116.665 109.313 119.715 109.727 121.372 110.667C122.991 111.607 124.046 112.584 124.046 112.584L122.69 113.261L114.331 110.554C114.331 110.554 113.013 111.795 111.393 111.419C109.774 111.043 106.536 109.163 106.536 109.163C106.536 109.163 99.532 107.696 98.5153 105.778C97.4986 103.861 88.1224 105.064 82.5871 105.177L80.0265 95.6634L79.9512 95.6258Z" fill="#FFC197"/>
<path d="M95.1995 96.077L98.8521 96.8667C98.8521 96.8667 97.6471 96.6787 97.2706 98.9348C96.894 101.191 97.2706 106.418 97.2706 106.418C97.2706 106.418 93.4297 106.906 92.4883 105.553C91.547 104.199 95.0113 96.3402 95.0113 96.3402L95.1995 96.1146V96.077Z" fill="#D0F4EE"/>
<path d="M51.1448 56.1434C51.1448 56.1434 51.2955 56.2938 51.5967 56.5571C52.5004 57.4219 54.6845 59.6028 56.6802 62.9494C59.2784 67.3113 83.0013 94.4601 83.0013 94.4601L82.3612 100.928L74.7548 105.515C74.7548 105.515 49.0361 83.9691 47.7559 76.223L51.1448 56.1434Z" fill="#4A2C11"/>
<path d="M45.5338 38.7712C45.5338 38.7712 43.1239 47.4197 43.3498 48.435C43.5757 49.4502 43.7263 55.617 43.7263 55.617L26.3672 43.3211L28.7018 34.5597L30.208 20.1581L45.5715 38.7712H45.5338Z" fill="#FFBF85"/>
<path d="M46.024 9.66704L47.3796 8.91499C47.3796 8.91499 51.0699 1.24413 44.6684 0.454486C38.267 -0.335162 26.9327 -0.748786 21.6986 4.96676C16.4645 10.6823 14.8453 14.1041 16.9164 20.2333C18.9874 26.3624 25.3512 34.2965 24.2592 35.6502C23.1672 37.0039 22.3388 39.9369 22.3388 39.9369C22.3388 39.9369 26.1043 39.5608 26.8198 38.508C27.5729 37.4551 33.7107 30.9499 33.673 27.9417C33.673 24.9336 45.9864 9.66704 45.9864 9.66704H46.024Z" fill="#6E5641"/>
<path d="M48.51 7.93732C48.51 7.93732 50.807 8.76457 51.9367 12.3744C53.0664 15.9842 53.7818 16.2098 53.1417 18.3155C52.2003 21.5117 54.7232 23.8055 56.1541 24.9335C57.6227 26.0992 58.1498 25.1216 57.585 27.1897C57.2838 28.2049 54.3466 30.1227 54.3466 30.1227C54.3466 30.1227 55.2504 33.3188 54.1207 33.7701L52.991 34.2213C52.991 34.2213 55.0244 35.199 54.4973 35.4998C53.9701 35.8006 54.0077 38.6208 54.0077 38.6208C54.0077 38.6208 55.3257 42.3058 53.8195 42.9826C52.2756 43.6595 37.477 40.7265 35.3307 36.8159C33.1843 32.9052 31.8664 29.9346 31.8664 29.9346L28.628 28.9194C28.628 28.9194 25.7662 24.8959 25.7285 23.1286C25.7285 21.3613 26.331 17.8267 28.2138 18.2027C30.0965 18.5412 32.6571 20.2709 32.6571 20.2709C32.6571 20.2709 37.7406 8.91498 41.2802 7.44849C44.8198 5.98201 48.5477 7.93732 48.5477 7.93732H48.51Z" fill="#FFC197"/>
<path d="M40.4499 46.8557C40.4499 46.8557 47.7551 49.5254 49.073 53.6617C50.4286 57.7979 53.1021 63.8519 54.3071 68.1009C55.5121 72.35 62.8172 108.411 50.6545 99.4236C38.4918 90.4367 30.0947 53.3984 29.8687 52.4208C29.6428 51.4431 40.4499 46.8181 40.4499 46.8181V46.8557Z" fill="#B1E5DB"/>
<path d="M55.9269 268.859H46.2871V283.863H55.9269V268.859Z" fill="#FFBF85"/>
<path d="M29.1152 172.372C29.1152 172.372 29.1905 172.673 29.3788 173.237C31.1486 179.028 32.4666 204.108 33.7092 210.839C35.1024 218.209 35.9685 241.071 35.9309 251.863C35.9309 262.655 42.2946 275.816 42.2946 275.816L59.8421 274.086C59.8421 274.086 54.608 223.661 54.0431 215.84C53.4783 208.019 56.6414 137.214 56.6414 137.214L41.5415 144.133L29.1152 172.41V172.372Z" fill="#1B1B2B"/>
<path d="M24.9346 298.528C28.2483 298.377 34.8004 297.7 38.7918 297.249C38.7918 297.174 38.7918 297.136 38.7918 297.061C39.0178 295.407 35.8924 292.737 34.0473 291.27C32.2021 289.841 27.0057 281.155 27.0057 281.155L15.2195 282.584C15.2195 282.584 15.2195 286.495 13.9769 288.789C13.1485 290.33 12.6966 291.834 12.4707 292.662C13.5627 293 15.1066 293.677 17.0647 294.993C21.395 297.888 19.9641 298.716 24.9346 298.49V298.528Z" fill="#202C52"/>
<path d="M38.7921 297.249C34.8006 297.7 28.2486 298.377 24.9349 298.528C19.9644 298.716 21.4329 297.926 17.0649 295.031C15.1068 293.714 13.5629 293.038 12.4709 292.699C12.358 293.113 12.3203 293.376 12.3203 293.376L13.7512 298.34C13.7512 298.34 18.91 299.994 20.9811 301.235C23.0521 302.476 38.7921 300.633 38.7921 300.633C38.7921 300.633 38.6038 298.904 38.7921 297.287V297.249Z" fill="#202551"/>
<path d="M12.773 146.614C10.7773 153.195 6.37159 154.962 6.48455 161.843C6.71049 175.155 7.38828 289.353 7.38828 289.353L32.3162 288.638C32.3162 288.638 25.011 245.997 29.8686 225.767C34.7261 205.537 38.2281 173.425 40.7886 167.86C43.3116 162.295 41.9936 142.478 41.9936 142.478L16.7645 133.341L12.773 146.614Z" fill="#3B3B56"/>
<path d="M56.5284 286.57C59.4279 287.999 61.6119 290.819 67.825 289.992C70.7998 289.616 73.0968 289.052 74.716 288.563C74.6783 287.886 74.603 287.172 74.5277 286.382C74.3018 283.712 67.7121 282.659 65.641 281.231C63.57 279.802 59.8421 272.958 59.8421 272.958L54.2691 273.372C54.2691 273.372 51.7838 277.282 48.6961 278.523C45.6083 279.764 46.625 274.387 46.625 274.387C46.625 274.387 45.3824 280.591 44.3657 283.073C44.1774 283.524 44.1021 283.976 44.0645 284.427C45.533 284.916 47.5664 285.442 49.7504 285.555C54.0808 285.78 53.6666 285.141 56.5661 286.608L56.5284 286.57Z" fill="#202C52"/>
<path d="M67.8254 289.992C61.6123 290.819 59.4283 288.037 56.5288 286.57C53.6293 285.104 54.0435 285.743 49.7132 285.517C47.5292 285.404 45.4958 284.878 44.0272 284.389C43.8013 286.42 44.7427 288.187 44.7427 288.187C44.7427 288.187 51.1441 289.24 54.2695 289.24C57.3949 289.24 58.5999 292.323 63.9846 292.549C69.3693 292.774 74.9423 291.308 74.9423 291.308C74.9423 291.308 74.8293 290.142 74.7164 288.525C73.0972 289.014 70.7626 289.578 67.8254 289.954V289.992Z" fill="#202551"/>
<path d="M78.3304 91.1135C81.9077 90.6247 99.4175 93.4448 99.4175 93.4448C97.0828 93.3696 96.1038 95.889 95.2754 98.2203C94.4846 100.552 93.6185 108.824 96.3674 108.975V109.238C96.3674 109.238 75.9581 106.756 74.7532 105.515C73.5482 104.312 72.1549 101.943 72.0796 97.1675C72.0043 92.392 74.7532 91.5647 78.3304 91.1135Z" fill="#4A2C11"/>
<path d="M45.3071 48.0214L41.9181 54.0001C41.9181 54.0001 31.3746 38.7712 28.1362 37.6431C24.8979 36.5151 27.7973 35.0486 27.7973 35.0486L45.3071 48.0214Z" fill="#D0F4EE"/>
<path d="M45.3069 48.0213L46.1353 47.0437L50.9928 55.4666C50.9928 55.4666 50.8422 55.3538 50.541 55.1282C49.2607 54.1881 45.5705 51.4055 45.3069 50.5783C44.968 49.6006 45.3069 47.9837 45.3069 47.9837V48.0213Z" fill="#D0F4EE"/>
<path d="M48.3955 55.1658H45.3077C45.3077 55.1658 43.0108 52.0448 43.425 51.368C43.8015 50.6911 43.2367 46.8181 45.3077 48.0214C47.3788 49.2246 48.3955 55.1658 48.3955 55.1658Z" fill="#275C9B"/>
<path d="M48.3949 55.1658C48.3949 55.1658 54.6834 66.4464 54.6834 72.6132L57.7335 92.0912C57.7335 92.0912 47.9054 62.1222 47.2276 60.0165C46.5875 57.9107 45.2695 55.1658 45.2695 55.1658H48.3573H48.3949Z" fill="#195591"/>
<path d="M26.5917 41.0649C26.5917 41.0649 11.7555 52.0824 10.6258 55.1658C9.49614 58.2491 12.245 88.8574 13.7135 97.0923C15.1821 105.365 8.36647 133.679 8.36647 140.335C8.36647 146.99 7.87695 157.03 7.87695 157.03C7.87695 157.03 45.4947 159.136 48.4319 158.986C51.369 158.835 57.2056 150.224 57.2056 150.224C57.2056 150.224 59.4272 97.7691 57.8081 92.0912C56.1889 86.4132 36.608 47.7957 36.608 47.7957L26.6294 41.0649H26.5917Z" fill="#4A2C11"/>
<path d="M22.7896 42.0426L26.5928 36.0638C26.5928 36.0638 35.5925 41.7418 40.9395 48.6982C46.2866 55.6546 57.7338 92.0912 57.7338 92.0912L35.4042 51.932L36.2326 49.4878L33.1449 49.1494L22.752 42.005L22.7896 42.0426Z" fill="#6E5641"/>
<path d="M52.4244 57.3467L47.9434 53.1353C47.9434 53.1353 52.2737 63.4007 53.7423 69.7179C55.2109 76.035 57.7338 92.0536 57.7338 92.0536C57.7338 92.0536 58.3363 79.7577 52.4244 57.3467Z" fill="#6E5641"/>
<path d="M27.8744 139.019L34.69 147.818L39.8864 148.833C39.8864 148.833 41.468 150.788 43.6896 152.368C45.9113 153.909 51.1078 155.865 51.1078 155.865C51.1078 155.865 51.3713 156.993 49.0367 157.331C46.7021 157.67 44.857 156.391 44.857 156.391L40.6395 154.022L46.4008 166.468C46.4008 166.468 50.6935 170.981 50.7312 172.936C50.7312 173.763 49.2626 175.343 47.4175 172.748C46.4385 171.357 44.3298 170.116 43.4637 168.311C42.7106 166.732 38.9827 163.611 38.9827 163.611C38.9827 163.611 36.4974 167.333 35.3301 165.115C34.1628 162.896 31.9788 165.115 31.1127 163.987C30.2466 162.859 29.4182 166.28 27.5355 160.226C25.9539 155.225 25.3891 153.608 25.3891 153.608L19.7031 145.223L27.799 139.019H27.8744Z" fill="#FFC197"/>
<path d="M32.5424 142.779L34.3875 146.539L24.2959 153.834L22.0742 149.735L32.5424 142.779Z" fill="#D0F4EE"/>
<path d="M19.2123 54.0377C19.2123 54.0377 25.3501 53.9625 25.689 62.9118C26.0279 72.538 14.9572 109.576 18.6474 107.32L33.672 144.922L22.9402 152.593C22.9402 152.593 0.158635 116.457 0.00801329 108.335C-0.142608 100.251 1.81547 64.1903 7.12489 57.8355C12.4343 51.4807 19.2123 54.0377 19.2123 54.0377Z" fill="#6E5641"/>
<path d="M38.7941 162.332L42.8986 169.138C42.8986 169.138 44.5931 170.567 45.7227 171.808C47.6432 173.914 45.8357 175.079 45.8357 175.079L38.5682 170.078L35.9323 165.867L38.2293 171.094C38.2293 171.094 39.3966 171.846 40.3757 173.312C41.317 174.779 40.5639 175.606 40.1121 176.095C39.6602 176.583 35.1416 171.733 35.1416 171.733L32.0538 166.506L33.56 170.379C33.56 170.379 35.0662 173.575 34.8027 174.365C34.5391 175.155 33.5977 175.455 33.5977 175.455L30.3217 169.815L27.5352 160.264C27.5352 160.264 37.5138 161.731 37.8904 161.994C38.267 162.257 38.7188 162.332 38.7188 162.332H38.7941Z" fill="#FFC197"/>
<path d="M154.769 115.329C154.769 115.329 153.715 119.616 163.882 122.812C174.049 126.008 177.815 115.329 177.815 115.329C177.815 115.329 158.535 107.847 154.769 115.329Z" fill="#1D1F2D"/>
<path d="M207.902 227.685C204.4 217.382 201.991 214.035 201.614 212.794C201.237 211.554 200.108 203.093 200.108 203.093L183.652 204.635C183.841 207.267 184.895 220.616 186.552 222.345C188.397 224.263 189.903 224.075 191.221 230.768C192.539 237.499 195.25 272.92 195.25 272.92C195.25 272.92 193.029 282.246 192.313 289.879C191.824 295.068 191.409 297.738 191.033 299.28C194.346 299.543 201.087 299.919 202.518 298.452C204.4 296.497 202.141 287.397 204.024 282.847C204.589 281.456 204.965 280.328 205.191 279.426C205.041 278.824 204.852 278.185 204.739 277.508C204.137 274.575 211.404 238.063 207.902 227.76V227.685Z" fill="#F2AD86"/>
<path d="M186.665 277.696C186.439 277.019 186.288 276.605 186.288 276.605C186.288 276.605 183.276 273.71 182.222 270.589C181.167 267.431 185.422 242.237 185.422 237.725C185.422 233.212 181.77 219.149 181.77 219.149L185.422 200.762H167.009C167.009 200.762 164.674 216.141 165.314 217.871C165.954 219.563 167.687 224.714 167.649 228.775C167.649 232.761 171.678 281.118 171.716 281.343L169.795 296.497C169.795 296.497 169.381 297.7 168.44 298.828L178.343 282.81C178.343 282.81 185.761 281.419 186.665 277.696Z" fill="#F2AD86"/>
<path d="M171.639 64.3032C171.639 64.3032 173.71 58.8132 169.003 64.3032C164.296 69.7931 156.652 102.281 156.652 102.281C156.652 102.281 167.309 112.058 170.359 110.103C173.409 108.185 171.677 64.2656 171.677 64.2656L171.639 64.3032Z" fill="#0F0F11"/>
<path d="M176.195 12.4872C170.17 14.969 165.915 23.9559 166.969 34.4093C168.024 44.8628 170.584 56.3315 169.68 58.3244C168.777 60.3173 180.977 70.3195 183.726 71.8612C186.475 73.4029 201.01 62.5734 201.01 62.5734C201.01 62.5734 206.319 57.0459 203.947 50.2775C201.575 43.5091 205.867 42.3058 207.035 35.4998C208.202 28.6938 201.763 1.9586 176.195 12.4496V12.4872Z" fill="#A53D04"/>
<path d="M163.208 297.926L160.195 299.468V300.483H172.358C173.525 300.483 174.542 299.731 174.881 298.603C175.935 295.031 178.308 287.623 179.475 287.172C181.019 286.57 182.939 286.269 182.939 286.269V300.821H187.27C187.27 300.821 189.002 286.758 188.964 285.254C188.889 283.75 188.851 283.223 187.947 282.095C187.044 280.967 176.199 285.104 176.199 285.104L163.17 297.926H163.208Z" fill="#0F0F11"/>
<path d="M169.683 281.381C169.683 281.381 168.742 290.97 167.16 291.91C165.617 292.85 160.458 295.745 160.194 296.836C159.968 297.926 160.194 299.468 160.194 299.468C160.194 299.468 172.432 299.693 173.035 298.866C173.637 298.039 177.478 286.307 179.398 285.216C181.319 284.126 186.591 283.788 186.591 283.788L188.398 283.299C188.398 283.299 188.285 278.636 186.478 276.493C184.67 274.349 169.683 281.381 169.683 281.381Z" fill="#1D1F2D"/>
<path d="M190.658 296.459C190.658 296.459 190.244 297.7 190.47 298.791C190.696 299.881 190.658 300.784 192.691 301.122C194.725 301.498 202.105 301.235 202.105 301.235C202.105 301.235 206.36 299.092 203.724 293.639C201.089 288.187 190.658 296.459 190.658 296.459Z" fill="#0F0F11"/>
<path d="M192.693 287.36C192.693 287.36 190.057 292.887 190.283 296.347C190.509 299.806 194.049 299.355 195.517 299.28C196.948 299.204 202.785 299.58 203.538 298.603C204.329 297.663 205.082 295.482 203.839 291.12C202.597 286.758 192.693 287.36 192.693 287.36Z" fill="#282A39"/>
<path d="M192.765 164.701L204.627 218.548L193.368 255.548C193.368 255.548 178.042 257.654 171.641 255.473C165.239 253.292 163.695 250.735 163.695 250.735L165.955 213.246L164.674 153.195L170.737 130.295C170.737 130.295 189.565 141.914 191.673 149.623C193.782 157.331 192.728 164.664 192.728 164.664L192.765 164.701Z" fill="#437FB1"/>
<path d="M212.646 210.99C212.948 201.1 217.429 165.942 215.207 158.61C212.985 151.277 207.525 139.696 207.525 139.696L186.664 146.314C189.902 161.994 192.877 202.04 193.178 208.207C193.517 214.9 194.421 239.454 193.291 255.511C197.095 256.451 214.717 250.171 214.717 250.171C214.717 250.171 212.27 220.879 212.609 210.99H212.646Z" fill="#145F9E"/>
<path d="M176.496 49.4879C176.496 49.4879 181.128 55.3538 181.165 58.9636C181.165 62.5735 182.144 66.0329 182.144 66.0329C182.144 66.0329 182.86 70.3571 185.27 68.665C187.68 66.9729 196.077 55.7298 196.077 55.7298L186.889 43.3963L176.496 49.4879Z" fill="#F2AD86"/>
<path d="M182.262 68.6274L181.17 61.7838C181.17 61.7838 177.706 65.2056 175.785 69.0034C173.865 72.8013 168.932 87.4285 168.593 95.4378C168.216 103.447 169.685 104.199 169.685 104.199L182.262 68.6274Z" fill="#D1D7E5"/>
<path d="M193.066 54.865L198.827 59.3021C198.827 59.3021 189.338 69.3795 185.384 76.5615C181.43 83.7435 169.004 105.553 169.004 105.553L182.259 64.1151L193.066 54.9026V54.865Z" fill="#EAEDF4"/>
<path d="M182.259 64.0776C182.259 64.0776 190.882 55.9179 192.087 54.1506C193.292 52.3457 193.894 51.5184 193.894 51.5184L196.756 56.8955L182.861 70.5451C182.861 70.5451 181.656 70.0187 182.259 64.0776Z" fill="#F3F6FF"/>
<path d="M178.309 64.6792L179.928 70.8459L182.262 64.5664L181.057 57.986L178.309 64.6792Z" fill="#F3F6FF"/>
<path d="M186.098 94.1593C187.039 89.6095 203.231 77.3887 207.072 70.5827C207.862 69.1914 208.239 67.7626 208.352 66.4089L197.018 55.7298L193.327 60.3173L172.429 98.9724C169.454 127.174 176.081 122.135 173.031 129.167C171.826 131.912 172.542 150.375 174.462 152.292C175.516 153.345 189.524 156.617 197.244 156.316C196.716 146.013 195.21 125.557 191.52 120.105C186.474 112.697 185.156 98.7844 186.098 94.2345V94.1593Z" fill="#1D1F2D"/>
<path d="M204.324 118.939C203.608 115.818 207.073 103.146 207.073 103.146L210.085 68.0258L208.353 66.4089C208.24 67.7626 207.863 69.1914 207.073 70.5827C203.232 77.4263 187.04 89.6095 186.098 94.1593C185.157 98.7092 186.475 112.584 191.521 120.03C195.249 125.52 196.717 145.938 197.245 156.241C203.834 155.977 209.746 155.601 209.746 155.601C209.746 155.601 212.156 144.584 211.78 139.32C211.403 134.055 205.077 122.06 204.361 118.977L204.324 118.939Z" fill="#151721"/>
<path d="M192.087 59.4148L197.02 54.2633L201.576 58.2116L196.192 67.9882L192.727 68.853L193.819 70.1691L172.469 98.8972C172.469 98.8972 179.925 79.156 184.481 71.8236C189.037 64.5288 192.163 59.3772 192.163 59.3772L192.087 59.4148Z" fill="#262837"/>
<path d="M180.075 60.3549C180.075 60.3549 173.147 76.4111 172.431 82.3898C171.716 88.3686 172.657 99.3861 172.657 101.905C172.657 109.012 177.251 119.278 173.486 131.235C169.908 142.741 166.896 153.157 166.896 153.157H162.227C162.227 153.157 164.109 132.25 167.611 123.865C171.076 115.48 163.055 93.0313 163.921 89.4591C164.749 85.8493 168.176 78.3288 168.553 75.5838C168.929 72.8389 170.737 62.8743 170.737 62.8743L180.075 60.3549Z" fill="#1D1F2D"/>
<path d="M180.676 58.3244L174.199 64.6792L176.007 65.3936L173.258 67.1985C173.258 67.1985 168.325 78.8176 169.078 82.6531C169.794 86.4885 172.693 101.943 172.693 101.943C172.693 101.943 171.978 85.398 173.183 82.0514C174.388 78.7048 180.751 58.3244 180.751 58.3244H180.676Z" fill="#262837"/>
<path d="M207.713 165.792L201.801 174.703L201.914 180.757L203.232 183.803C203.232 183.803 204.813 182.036 204.738 180.757C204.663 179.479 204.738 176.132 204.738 176.132H206.206C206.206 176.132 204.437 183.954 205.905 183.954C207.374 183.954 208.202 183.013 208.202 183.013C208.202 183.013 207.713 184.142 209.294 183.653C210.876 183.164 210.876 182.863 210.876 182.863C210.876 182.863 211.177 183.352 212.457 183.164C213.738 183.013 213.888 182.374 213.888 182.374C213.888 182.374 213.888 183.653 214.83 183.013C215.771 182.374 217.88 177.9 217.88 177.9L216.75 166.168L207.637 165.829L207.713 165.792Z" fill="#FFC197"/>
<path d="M207.714 163.047L207.074 166.243L218.107 168.161V164.476L207.714 163.047Z" fill="white"/>
<path d="M207.718 121.083C207.718 121.083 198.944 100.025 200.149 92.58C201.354 85.1724 206.4 67.8377 210.09 67.9882C213.818 68.1386 215.023 73.1773 215.023 77.7271C215.023 82.277 222.516 123.903 222.968 127.738C223.458 131.574 218.751 166.957 218.751 166.957L206.287 164.212L207.718 121.083Z" fill="#262837"/>
<path d="M174.124 18.3156C172.655 19.2932 170.584 28.9194 170.584 28.9194C170.584 28.9194 169.191 36.2895 169.53 37.4927C169.869 38.696 172.015 44.4492 172.015 44.4492C172.015 44.4492 173.672 52.6088 175.969 53.5113C178.266 54.4137 190.956 46.9685 191.558 44.7124C192.161 42.4562 192.763 40.2377 192.763 40.2377C192.763 40.2377 193.554 42.0802 195.135 40.5385C196.717 38.9968 201.198 28.581 198.449 29.1074C195.7 29.5963 193.629 32.5292 193.629 32.5292C193.629 32.5292 188.621 20.7597 184.178 19.8573C179.734 18.9924 174.086 18.278 174.086 18.278L174.124 18.3156Z" fill="#FFC197"/>
<path d="M170.323 30.7244L169.57 30.0475C169.57 30.0475 169.344 30.5363 169.08 30.4611C168.817 30.4235 168.402 30.1979 168.402 30.1979C168.402 30.1979 168.817 30.7996 169.118 30.8748C169.419 30.95 170.323 30.7996 170.323 30.7996V30.7244Z" fill="#8C3C19"/>
<path d="M169.647 30.1227L169.345 29.5211C169.345 29.5211 169.082 29.7467 168.931 29.6715C168.781 29.5587 168.555 29.3331 168.555 29.3331C168.555 29.3331 168.668 29.8219 168.856 29.8971C169.044 30.0099 169.647 30.1227 169.647 30.1227Z" fill="#8C3C19"/>
<path d="M132.102 85.398H164.109L191.522 120.03L161.322 118.789L132.102 85.398Z" fill="#3A1A0B"/>
<path d="M151.457 113.637C151.457 113.637 150.854 111.193 152.436 107.959C154.017 104.726 154.394 102.469 154.394 102.469L156.653 97.6187C156.653 97.6187 158.235 97.9196 157.519 99.8749C156.841 101.83 156.352 103.598 156.352 103.598L155.486 107.132L154.883 111.344C154.883 111.344 156.616 108.147 157.067 107.433C157.519 106.718 160.343 100.965 160.946 100.89C161.548 100.777 162.678 100.702 162.452 101.868C162.226 103.033 160.456 105.29 160.456 105.29C160.456 105.29 159.703 107.621 158.988 108.523C158.272 109.388 157.595 112.998 157.595 112.998L161.209 107.433C161.209 107.433 163.281 104.5 163.544 104.876C163.845 105.252 164.636 105.29 163.695 106.606C162.753 107.922 161.812 109.463 161.812 109.463L159.402 115.254C159.402 115.254 162.339 112.133 162.716 111.72C163.092 111.344 164.335 110.027 165.013 109.576C165.653 109.087 166.067 109.99 166.067 109.99L163.808 113.412C163.808 113.412 161.624 116.645 161.247 117.811C160.871 119.052 161.247 122.399 161.247 122.399C161.247 122.399 158.348 122.098 155.373 120.03C153.791 118.939 151.871 116.533 151.344 113.675L151.457 113.637Z" fill="#F2AD86"/>
</svg>
