<svg width="284" height="423" viewBox="0 0 284 423" fill="none" xmlns="http://www.w3.org/2000/svg">
<path d="M241.222 37.0851C250.882 37.0851 258.713 28.7833 258.713 18.5426C258.713 8.30179 250.882 0 241.222 0C231.562 0 223.73 8.30179 223.73 18.5426C223.73 28.7833 231.562 37.0851 241.222 37.0851Z" fill="#ED852F"/>
<path d="M228.594 12.5468C228.594 12.5468 222.987 16.3959 223.618 22.3547C224.212 28.3135 224.361 47.8924 222.875 52.2967C221.353 56.701 219.867 57.8484 223.469 61.8826C227.109 65.9168 237.693 68.0264 237.693 68.0264H241.035V10.4371L228.631 12.5468H228.594Z" fill="#ED852F"/>
<path d="M253.402 12.5468C253.402 12.5468 259.009 16.3959 258.378 22.3547C257.784 28.3135 257.635 47.8924 259.121 52.2967C260.643 56.701 262.129 57.8484 258.527 61.8826C254.887 65.9168 244.303 68.0264 244.303 68.0264H240.961V10.4371L253.365 12.5468H253.402Z" fill="#ED852F"/>
<path d="M247.052 183.723C247.052 183.723 246.383 198.639 246.346 204.671C246.309 210.667 241.964 210.519 244.192 239.277C244.526 243.755 245.826 264.074 245.009 267.035C244.229 269.996 244.489 268.96 244.415 270.477C244.341 272.032 245.12 273.031 244.155 275.622C243.486 277.398 243.932 281.618 244.935 282.95C245.937 284.319 254.516 283.542 254.516 283.542C254.516 283.542 251.545 274.622 252.251 273.327C252.956 272.069 251.879 271.18 251.805 270.736C251.545 268.479 260.458 247.456 260.198 226.138C260.086 218.514 260.681 210.778 260.681 210.778L263.095 181.391L247.052 183.649V183.723Z" fill="#F2AD86"/>
<path d="M257.487 290.019C255.444 291.87 251.285 292.055 249.614 291.648C247.794 291.166 243.82 290.537 243.338 289.242C243.263 289.057 243.226 288.798 243.189 288.539C242.855 289.279 242.558 290.019 242.818 290.204C243.375 290.537 247.794 292.758 249.911 292.795C252.065 292.869 257.635 292.388 257.561 291.203C257.561 290.796 257.487 290.389 257.45 290.019H257.487Z" fill="#5E0839"/>
<path d="M249.614 291.648C251.285 292.055 255.444 291.87 257.487 290.019C257.487 290.019 257.487 290.019 257.524 290.019C258.712 288.909 256.299 283.357 256.299 283.357C256.299 283.357 251.137 278.731 249.168 277.916C247.237 277.102 246.606 277.694 244.303 279.249C242.001 280.803 243.598 283.949 243.598 283.949L243.783 284.912C243.783 284.912 243.078 287.095 243.189 288.539C243.189 288.798 243.226 289.02 243.338 289.242C243.821 290.537 247.794 291.166 249.614 291.648Z" fill="#5E0839"/>
<path d="M234.797 183.723C234.797 183.723 235.465 198.639 235.503 204.671C235.54 210.667 239.885 210.519 237.656 239.277C237.322 243.755 236.022 264.074 236.839 267.035C237.619 269.996 237.359 268.96 237.434 270.477C237.508 272.032 236.728 273.031 237.694 275.622C238.362 277.398 237.916 281.618 236.914 282.95C235.911 284.319 227.332 283.542 227.332 283.542C227.332 283.542 230.303 274.622 229.598 273.327C228.892 272.069 229.969 271.18 230.043 270.736C230.303 268.479 221.391 247.456 221.651 226.138C221.762 218.514 221.168 210.778 221.168 210.778L218.754 181.391L234.797 183.649V183.723Z" fill="#F2AD86"/>
<path d="M224.362 290.019C226.405 291.87 230.564 292.055 232.235 291.648C234.055 291.166 238.028 290.537 238.511 289.242C238.585 289.057 238.623 288.798 238.66 288.539C238.994 289.279 239.291 290.019 239.031 290.204C238.474 290.537 234.055 292.758 231.938 292.795C229.784 292.869 224.214 292.388 224.288 291.203C224.288 290.796 224.362 290.389 224.399 290.019H224.362Z" fill="#5E0839"/>
<path d="M232.235 291.648C230.564 292.055 226.405 291.87 224.362 290.019C224.362 290.019 224.362 290.019 224.325 290.019C223.137 288.909 225.551 283.357 225.551 283.357C225.551 283.357 230.713 278.731 232.681 277.916C234.612 277.102 235.243 277.694 237.546 279.249C239.848 280.803 238.251 283.949 238.251 283.949L238.066 284.912C238.066 284.912 238.771 287.095 238.66 288.539C238.66 288.798 238.623 289.02 238.511 289.242C238.028 290.537 234.055 291.166 232.235 291.648Z" fill="#5E0839"/>
<path d="M255.147 119.472C255.147 119.472 265.62 124.32 266.92 133.758C268.182 143.196 266.92 210.297 266.92 210.297C266.92 210.297 249.428 212.074 241.035 211.815C240.887 211.815 240.775 117.029 240.775 117.029C244.898 116.881 249.651 117.51 255.147 119.472Z" fill="#2F4C35"/>
<path d="M218.048 131.464C218.048 131.464 224.287 117.658 240.738 117.029L240.998 211.778C232.383 211.482 214 209.742 214 209.742L218.011 131.427L218.048 131.464Z" fill="#38563D"/>
<path d="M229.747 49.7059L213.109 56.59L218.643 80.5732C218.643 80.5732 223.656 94.4153 222.988 102.077C222.319 109.738 218.903 116.77 218.457 120.101C218.049 123.432 217.194 133.277 217.194 133.277L242.522 132.5L244.49 93.8972C244.49 93.8972 234.166 66.1018 233.497 62.8079C232.829 59.4769 229.747 49.7059 229.747 49.7059Z" fill="#2F4C35"/>
<path d="M255.185 49.7059L271.822 56.59L266.289 80.5732C266.289 80.5732 261.275 94.4153 261.944 102.077C262.612 109.738 266.029 116.77 266.474 120.101C266.883 123.432 267.737 133.277 267.737 133.277L242.41 132.5L240.441 93.8972C240.441 93.8972 250.765 66.1018 251.434 62.8079C252.102 59.4769 255.185 49.7059 255.185 49.7059Z" fill="#233F28"/>
<path d="M241.74 94.7484C241.74 95.4517 242.297 96.0068 243.003 96.0068C243.708 96.0068 244.266 95.4517 244.266 94.7484C244.266 94.0452 243.708 93.4901 243.003 93.4901C242.297 93.4901 241.74 94.0452 241.74 94.7484Z" fill="#0B0E1E"/>
<path d="M241.592 107.924C241.592 108.628 242.149 109.183 242.854 109.183C243.56 109.183 244.117 108.628 244.117 107.924C244.117 107.221 243.56 106.666 242.854 106.666C242.149 106.666 241.592 107.221 241.592 107.924Z" fill="#0B0E1E"/>
<path d="M242.521 55.5167C245.344 55.5167 248.166 55.4426 250.989 55.3316C249.355 62.3637 245.381 76.687 242.781 85.8658C242.707 85.5697 242.596 85.2736 242.521 84.9405V55.5537V55.5167Z" fill="#F3F6FF"/>
<path d="M251.026 55.2946C248.203 55.4426 245.381 55.4797 242.559 55.4797V34.9385L249.392 33.236C249.392 33.236 248.872 44.3023 250.58 47.5223C250.877 48.0774 251.36 48.6326 251.991 49.1508C251.991 49.965 251.88 50.9643 251.694 52.1857C251.583 52.9259 251.36 53.9622 251.063 55.2576L251.026 55.2946Z" fill="#F2AD86"/>
<path d="M234.575 55.3316C234.241 53.8882 233.981 52.7038 233.832 51.8896C233.609 50.6312 233.535 49.5949 233.535 48.8177C233.944 48.4105 234.278 48.0034 234.501 47.5593C236.209 44.3393 235.689 33.273 235.689 33.273L242.522 34.9755V55.5167C239.848 55.5167 237.212 55.4426 234.538 55.3316H234.575Z" fill="#F2AD86"/>
<path d="M234.574 55.3316C237.211 55.4426 239.885 55.5167 242.559 55.5167V84.9035C239.996 75.8728 236.245 62.3267 234.574 55.3316Z" fill="#EAEDF4"/>
<path d="M242.521 84.9035C242.596 85.1996 242.707 85.5327 242.781 85.8288C242.707 86.1619 242.596 86.458 242.521 86.754V84.9035Z" fill="#262837"/>
<path d="M230.341 57.2562L226.516 56.9231L226.85 54.8505L227.184 52.7038L227.555 50.2981C227.555 50.2981 232.68 46.8931 233.015 45.5237C233.349 44.1543 235.057 45.7087 235.057 45.7087C235.057 45.7087 233.534 45.3016 233.572 48.8177C233.572 49.6319 233.683 50.6312 233.869 51.8896C233.98 52.6668 234.24 53.8512 234.611 55.3316C236.245 62.3267 240.033 75.8728 242.596 84.9035V86.754C242.299 87.7904 242.039 88.7526 241.779 89.6039C241.704 89.826 241.667 90.048 241.593 90.2701C239.439 87.8644 236.728 84.4223 234.834 80.6472C231.158 73.356 226.553 59.921 226.553 59.921L227.11 59.5509L230.415 57.2932L230.341 57.2562Z" fill="#56725D"/>
<path d="M241.556 90.2701C241.63 90.048 241.667 89.826 241.741 89.6039C242.001 88.7526 242.261 87.7904 242.558 86.754C242.632 86.458 242.744 86.1619 242.818 85.8288C245.418 76.65 249.391 62.3267 251.025 55.2946C251.322 53.9992 251.545 52.9629 251.657 52.2227C251.88 50.9643 251.954 49.965 251.954 49.1878C251.991 45.6347 250.468 46.0418 250.468 46.0418C250.468 46.0418 252.177 44.5244 252.511 45.8568C252.845 47.2262 257.97 50.6312 257.97 50.6312L258.304 52.8519L258.601 54.8135L258.973 57.2562L255.148 57.5893L258.007 59.5509L259.01 60.2171C259.01 60.2171 254.405 73.6521 250.728 80.9433C248.871 84.6444 246.235 88.0124 244.118 90.4181C243.709 90.8993 243.301 91.3434 242.93 91.7135C241.444 93.268 240.441 94.1933 240.441 94.1933C240.441 94.1933 240.887 92.6758 241.593 90.2331L241.556 90.2701Z" fill="#56725D"/>
<path d="M214.111 149.155L216.934 154.521L218.196 163.7L217.565 168.549C217.565 168.549 215.782 167.919 215.634 166.513C215.523 165.107 215.374 162.812 215.374 162.812L214.111 159.629L213.851 164.588L215.263 168.141L217.305 170.325C217.305 170.325 219.719 171.843 219.979 172.879C220.239 173.915 219.979 174.544 219.979 174.544L218.308 173.656C218.308 173.656 218.196 174.915 217.528 174.915C216.859 174.915 210.88 170.954 210.88 170.954L210.249 169.918C210.249 169.918 209.878 169.807 209.098 169.03L208.318 168.253L206.127 161.998L207.167 148.118L214.074 149.155H214.111Z" fill="#FFC197"/>
<path d="M213.22 56.59C211.214 56.4049 210.286 64.1403 210.138 70.9133C210.026 77.6863 207.835 103.668 206.164 109.035C204.493 114.401 206.275 143.344 206.164 147.008C206.052 150.709 205.644 152.856 205.644 152.856L216.005 150.45C216.005 150.45 217.156 122.914 218.308 118.584C219.459 114.253 218.048 104.815 218.048 104.815L220.721 86.9761C220.721 86.9761 216.748 56.8861 213.183 56.59H213.22Z" fill="#3C5B45"/>
<path d="M255 25.4266C255 25.4266 256.114 20.8373 257.117 21.6885C258.12 22.5398 257.488 30.9043 256.263 32.3847C255.037 33.8652 252.141 30.6452 252.141 30.6452L255 25.4266Z" fill="#FFC197"/>
<path d="M249.392 8.95669C249.392 8.95669 252.103 9.06772 254.331 14.8415C256.559 20.6152 254.702 31.3114 254.702 31.3114C254.702 31.3114 253.514 36.493 251.249 39.6019C249.28 42.3407 244.861 45.8198 242.596 46.9301C240.665 47.8924 241.147 47.1892 241.147 47.1892V8.36451L249.355 8.9937L249.392 8.95669Z" fill="#FFC197"/>
<path d="M228.112 25.8338C228.112 25.8338 225.772 20.6892 224.806 21.5775C223.804 22.4287 224.806 30.2751 226.032 31.7555C227.257 33.236 228.483 30.053 228.483 30.053L228.112 25.8708V25.8338Z" fill="#FFC197"/>
<path d="M232.94 8.95669C232.94 8.95669 230.229 9.06772 228.001 14.8415C225.773 20.6152 227.63 31.3114 227.63 31.3114C227.63 31.3114 228.818 36.493 231.083 39.6019C233.052 42.3407 237.471 45.8198 239.736 46.9301C241.667 47.8924 241.185 47.1892 241.185 47.1892V8.36451L232.977 8.9937L232.94 8.95669Z" fill="#FFC197"/>
<path d="M271.785 56.59C271.785 56.59 273.939 55.3316 277.095 61.3274C280.252 67.3232 283.148 86.8281 282.628 93.8972C282.109 100.966 283.408 111.403 279.212 112.847C275.015 114.29 267.254 76.1689 267.254 76.1689L271.785 56.553V56.59Z" fill="#2F4C35"/>
<path d="M278.282 83.423L267.884 128.873C267.884 128.873 246.567 130.353 244.599 130.353C242.631 130.353 252.027 86.9021 252.027 86.9021L278.282 83.4601V83.423Z" fill="#8C3C19"/>
<path d="M255.035 121.989C255.035 121.989 246.791 125.246 244.711 123.691C242.632 122.174 244.303 120.36 244.303 120.36C244.303 120.36 242.483 118.954 243.597 117.029C244.266 115.845 242.855 114.179 243.189 113.402C243.746 112.144 244.711 110.626 244.711 110.626C244.711 110.626 248.759 109.59 250.876 110.367C252.956 111.144 259.12 114.068 259.12 114.068L255.072 121.915L255.035 121.989Z" fill="#FFC197"/>
<path d="M274.755 101.447C280.362 97.4873 284.225 103.446 282.665 107.85C281.105 112.255 280.622 114.586 271.078 118.51C261.534 122.433 255.072 121.989 255.072 121.989L255.778 113.143C255.778 113.143 263.762 111.218 266.176 109.997C269.296 108.48 272.304 103.187 274.755 101.447Z" fill="#3C5B45"/>
<path d="M97.0201 72.8379L96.2031 82.8679C96.2031 82.8679 100.66 91.5655 104.633 90.085C108.607 88.6046 114.363 84.9775 114.363 84.9775L112.209 72.4678L97.0201 72.8009V72.8379Z" fill="#F2AD86"/>
<path d="M122.012 87.8644H92.3398V141.642H122.012V87.8644Z" fill="#EAEDF4"/>
<path d="M111.205 120.693L107.751 91.7135L105.82 92.3427V140.901L111.205 120.693Z" fill="#0B0E1E"/>
<path d="M100.436 120.693L103.852 91.7135L105.82 92.3427V140.901L100.436 120.693Z" fill="#0B0E1E"/>
<path d="M101.066 87.6423L104 93.342H105.82V87.4573L101.066 87.6423Z" fill="#1B1B2B"/>
<path d="M110.537 87.6423L107.603 93.342H105.82V87.4573L110.537 87.6423Z" fill="#1B1B2B"/>
<path d="M113.471 93.342C113.471 93.342 116.256 84.9405 116.108 83.6451C115.959 82.3127 114.288 79.1668 114.288 79.1668C114.288 79.1668 114.102 81.2024 110.166 83.8302C106.192 86.458 104.893 87.9384 104.893 87.9384C104.893 87.9384 106.898 87.7904 109.349 89.4188L113.471 93.379V93.342Z" fill="#F3F6FF"/>
<path d="M105.634 87.9014C105.634 87.9014 103.48 87.5683 101.178 89.3818C98.8753 91.1954 97.0556 93.342 97.0556 93.342C97.0556 93.342 94.2332 84.9405 94.4189 83.6451C94.5675 82.3127 96.2758 79.3518 96.2758 79.3518C96.2758 79.3518 96.3872 81.1654 100.361 83.8302C104.334 86.458 105.634 87.9384 105.634 87.9384V87.9014Z" fill="#F3F6FF"/>
<path d="M122.271 52.6298C122.271 62.6968 114.584 70.8393 105.077 70.8393C95.5701 70.8393 87.8828 62.6968 87.8828 52.6298C87.8828 42.5628 92.3392 34.8275 105.077 34.4203C114.547 34.1242 122.271 42.5628 122.271 52.6298Z" fill="#8C3C19"/>
<path d="M76.4095 89.9C76.4095 89.9 72.2502 86.3469 69.6506 94.4154C67.0511 102.447 60.6264 143.344 65.12 145.602C69.6506 147.859 78.0435 138.94 78.0435 138.94L83.5397 123.395L76.4095 89.937V89.9Z" fill="#0B0E1E"/>
<path d="M136.05 180.651C136.05 180.651 132.781 184.389 133.116 189.201C133.45 194.012 134.044 196.27 134.044 196.27L133.747 198.528C133.747 198.528 135.53 198.528 136.644 195.937C137.758 193.346 137.424 189.83 137.424 189.83C137.424 189.83 138.426 193.383 138.426 194.975C138.426 196.566 136.644 201.266 136.644 201.748C136.644 202.229 134.527 202.71 133.561 203.857C132.596 204.968 132.447 207.077 132.447 207.077L138.426 204.486L142.771 195.974V183.908L136.161 180.207L136.012 180.688L136.05 180.651Z" fill="#FFC197"/>
<path d="M135.085 98.0794C135.085 98.0794 137.091 91.3064 138.427 91.9356C139.802 92.5648 145.075 98.9677 146.523 109.664C148.306 122.544 149.531 137.57 149.903 146.342C150.571 162.22 143.33 188.053 142.81 186.092L134.268 182.539C134.268 182.539 137.202 160.517 137.239 148.452C137.276 136.386 132.634 136.053 132.968 122.692C133.303 109.331 135.085 98.0794 135.085 98.0794Z" fill="#0B0E1E"/>
<path d="M84.8014 318.296C84.8014 318.296 82.499 319.924 82.6475 320.775C82.7961 321.59 83.873 325.032 88.1809 325.55C92.4887 326.031 96.0167 325.217 97.5022 324.217C98.9876 323.218 100.956 320.257 98.3192 317.962L84.8014 318.296Z" fill="#8C3C19"/>
<path d="M99.4706 317.296C99.4706 318.962 100.807 322.737 95.0513 323.366C89.258 324.032 83.6875 323.033 83.6875 319.591C83.6875 318.333 83.8732 316.519 84.096 314.705C84.4674 311.597 85.0244 308.562 85.0244 308.562L85.6557 307.229L88.1439 301.974L98.8764 302.307L99.3592 302.455C99.3592 302.455 99.6191 304.935 99.6563 307.34C99.6563 308.747 99.6191 310.153 99.3592 311.004C99.0621 312.004 99.0621 313.04 99.1363 314.002C99.2478 315.224 99.5077 316.334 99.5077 317.259L99.4706 317.296Z" fill="#0B0E1E"/>
<path d="M92.3401 308.969C92.3401 309.635 92.1544 310.19 91.6345 310.412C90.5575 310.819 86.3611 314.002 84.0586 314.743C84.43 311.634 84.987 308.599 84.987 308.599L85.6183 307.266C87.6237 306.748 91.2631 305.86 91.6345 306.452C91.9687 306.933 92.3401 308.044 92.3401 308.969Z" fill="#8C3C19"/>
<path d="M99.3215 311.078C99.0244 312.078 99.0244 313.114 99.0987 314.076C96.7962 312.892 93.8996 310.745 93.0454 310.412C92.5255 310.19 92.3398 309.635 92.3398 309.006C92.3398 308.043 92.7112 306.97 93.0454 306.489C93.4911 305.823 97.8732 306.97 99.6186 307.451C99.6186 308.858 99.5815 310.264 99.3215 311.115V311.078Z" fill="#8C3C19"/>
<path d="M126.545 318.296C126.545 318.296 128.847 319.924 128.699 320.775C128.55 321.59 127.473 325.032 123.165 325.55C118.858 326.031 115.33 325.217 113.844 324.217C112.359 323.218 110.39 320.257 113.027 317.962L126.545 318.296Z" fill="#8C3C19"/>
<path d="M111.875 317.296C111.875 318.962 110.538 322.737 116.294 323.366C122.088 324.032 127.658 323.033 127.658 319.591C127.658 318.333 127.473 316.519 127.25 314.705C126.878 311.597 126.321 308.562 126.321 308.562L125.69 307.229L123.202 301.974L112.469 302.307L111.987 302.455C111.987 302.455 111.727 304.935 111.689 307.34C111.689 308.747 111.727 310.153 111.987 311.004C112.284 312.004 112.284 313.04 112.209 314.002C112.098 315.224 111.838 316.334 111.838 317.259L111.875 317.296Z" fill="#0B0E1E"/>
<path d="M119.043 308.969C119.043 309.635 119.229 310.19 119.749 310.412C120.826 310.819 125.022 314.002 127.324 314.743C126.953 311.634 126.396 308.599 126.396 308.599L125.765 307.266C123.759 306.748 120.12 305.86 119.749 306.452C119.414 306.933 119.043 308.044 119.043 308.969Z" fill="#8C3C19"/>
<path d="M112.024 311.078C112.321 312.078 112.321 313.114 112.246 314.076C114.549 312.892 117.446 310.745 118.3 310.412C118.82 310.19 119.005 309.635 119.005 309.006C119.005 308.043 118.634 306.97 118.3 306.489C117.854 305.823 113.472 306.97 111.727 307.451C111.727 308.858 111.764 310.264 112.024 311.115V311.078Z" fill="#8C3C19"/>
<path d="M134.752 169.215C134.269 164.44 126.693 162.479 126.693 162.479L119.675 162.923C120.529 181.243 122.497 224.694 122.237 232.689C121.977 240.794 119.637 288.094 118.672 309.598C120.9 309.672 125.356 306.304 125.356 306.304C125.356 306.304 135.235 173.989 134.715 169.215H134.752Z" fill="#1B1B2B"/>
<path d="M119.675 162.923L105.117 163.811V203.265L109.239 306.452C109.239 306.452 116.332 309.228 118.486 309.561C118.561 309.561 118.635 309.561 118.709 309.561C119.675 288.057 122.014 240.757 122.274 232.652C122.534 224.657 120.566 181.243 119.712 162.886L119.675 162.923Z" fill="#282A39"/>
<path d="M76.8931 171.102C77.3759 166.328 83.4663 162.516 83.4663 162.516L90.4851 162.96C89.631 181.28 87.6627 224.731 87.9227 232.726C88.1826 240.831 90.5223 288.131 91.4878 309.635C89.2596 309.709 84.8032 306.341 84.8032 306.341C84.8032 306.341 76.4103 175.914 76.8931 171.139V171.102Z" fill="#282A39"/>
<path d="M90.5215 162.923L105.079 163.811V203.265L100.957 306.452C100.957 306.452 93.8638 309.228 91.7098 309.561C91.6356 309.561 91.5613 309.561 91.487 309.561C90.5215 288.057 88.1819 240.757 87.9219 232.652C87.6619 224.657 89.6302 181.243 90.4843 162.886L90.5215 162.923Z" fill="#0B0E1E"/>
<g style="mix-blend-mode:multiply">
<g style="mix-blend-mode:multiply">
<path d="M105.078 87.4572C105.078 87.4572 102.961 85.9768 100.845 87.4572C98.6907 88.9377 97.0195 94.3413 97.0195 94.3413C97.0195 94.3413 99.6934 89.4188 104.15 89.6039C108.606 89.7519 108.235 89.2708 109.163 89.7519C110.092 90.2331 113.694 94.5264 113.694 94.5264C113.694 94.5264 114.622 85.4957 105.115 87.4572H105.078Z" fill="#A2D4DD"/>
</g>
</g>
<path d="M92.3782 84.2373L74.6269 89.5669C74.6269 89.5669 76.3723 114.475 76.8551 120.064C77.3378 125.653 80.3088 139.643 79.6774 149.34C79.009 159.037 69.4277 188.572 69.4277 188.572C69.4277 188.572 89.4072 197.195 94.1979 194.567C98.9885 191.94 107.233 172.546 107.901 158.741C108.57 144.936 106.082 139.902 106.082 139.902L92.3782 84.2373Z" fill="#1B1B2B"/>
<path d="M135.012 119.768C134.529 125.357 131.558 139.31 132.227 149.007C132.449 152.079 132.784 155.373 133.192 158.408C133.489 160.813 133.823 163.071 134.121 164.959C134.603 168.215 137.203 186.24 137.203 186.24C137.203 186.24 123.202 193.605 118.412 190.977C113.621 188.35 104.708 172.213 104.04 158.371C103.371 144.565 105.86 139.569 105.86 139.569L119.563 83.9042L138.503 91.9726C138.503 91.9726 135.569 114.179 135.086 119.768H135.012Z" fill="#0B0E1E"/>
<path d="M109.164 142.382H106.008V143.233H109.164V142.382Z" fill="#0E131C"/>
<path d="M109.759 159.111H105.859V160.11H109.759V159.111Z" fill="#0E131C"/>
<path d="M88.9244 84.7184L96.2775 79.3148C96.2775 79.3148 94.7177 84.3113 95.609 87.1982C96.4631 90.085 105.673 138.903 105.673 138.903C105.673 138.903 99.8054 131.389 94.8663 119.065C89.9271 106.74 85.4707 92.2687 85.4707 92.2687L89.9271 90.6402L87.4389 89.3078L88.9244 84.7184Z" fill="#282A39"/>
<path d="M121.232 84.7184L114.288 79.1298C114.288 79.1298 115.402 84.3113 114.548 87.1982C113.694 90.085 105.264 140.827 105.264 140.827C105.264 140.827 110.314 131.389 115.253 119.028C120.193 106.703 124.649 92.2317 124.649 92.2317L120.193 90.6032L122.681 89.2708L121.195 84.6814L121.232 84.7184Z" fill="#282A39"/>
<path d="M134.045 159.037C131.817 161.665 126.209 164.033 126.209 164.033L123.609 157.482C123.609 157.482 127.694 156.372 130.777 154.669C131.891 154.04 132.634 153.263 133.154 152.523C133.451 154.929 133.785 157.186 134.082 159.074L134.045 159.037Z" fill="#1B1B2B"/>
<path d="M77.709 159.037C79.9372 161.665 85.5448 164.033 85.5448 164.033L88.1444 157.482C88.1444 157.482 84.0594 156.372 80.977 154.669C79.8629 154.04 79.1202 153.263 78.6003 152.523C78.3032 154.929 77.9689 157.186 77.709 159.074V159.037Z" fill="#1B1B2B"/>
<path d="M91.375 54.4433C91.375 54.4433 89.2953 52.3707 88.2184 53.259C87.1785 54.1843 87.8099 63.0299 89.1468 64.6214C90.4466 66.1759 92.4148 66.0648 92.4148 66.0648L91.375 54.4433Z" fill="#F2AD86"/>
<path d="M96.6105 41.0823C96.6105 41.0823 93.7138 41.2304 91.3742 47.3372C89.0346 53.444 90.9657 64.8065 90.9657 64.8065C90.9657 64.8065 91.5971 70.5432 93.9738 73.8742C96.2391 77.0941 98.5045 80.2401 100.621 81.1654C102.738 82.0906 105.263 81.6465 105.263 81.6465V40.4531L96.6105 41.1193V41.0823Z" fill="#FFC197"/>
<path d="M119.153 54.4433C119.153 54.4433 121.233 52.3707 122.31 53.259C123.35 54.1843 122.718 63.0299 121.381 64.6214C120.082 66.1759 118.113 66.0648 118.113 66.0648L119.153 54.4433Z" fill="#F2AD86"/>
<path d="M113.917 41.0823C113.917 41.0823 116.813 41.2304 119.153 47.3372C121.492 53.444 119.561 64.8065 119.561 64.8065C119.561 64.8065 118.93 70.5432 116.553 73.8742C114.288 77.0941 112.023 80.2401 109.906 81.1654C107.789 82.0906 105.264 81.6465 105.264 81.6465V40.4531L113.917 41.1193V41.0823Z" fill="#FFC197"/>
<path d="M77.2628 176.987C77.2628 176.987 80.5308 180.725 80.1965 185.537C79.8623 190.348 79.2681 192.606 79.2681 192.606L79.5652 194.864C79.5652 194.864 77.7827 194.863 76.6686 192.273C75.5545 189.682 75.8887 186.166 75.8887 186.166C75.8887 186.166 74.886 189.719 74.886 191.31C74.886 192.902 76.6686 197.602 76.6686 198.083C76.6686 198.565 78.7854 199.046 79.7509 200.193C80.7165 201.303 80.865 203.413 80.865 203.413L74.886 200.822L70.541 192.31V180.244L77.1513 176.543L77.2999 177.024L77.2628 176.987Z" fill="#FFC197"/>
<path d="M78.2283 94.4524C78.2283 94.4524 76.2229 87.6793 74.886 88.3085C73.5119 88.9377 68.2385 95.3406 66.7902 106.037C65.0076 118.917 63.7821 133.943 63.4107 142.715C62.7423 158.593 69.9839 184.426 70.5038 182.465L79.0453 178.912C79.0453 178.912 76.1115 156.89 76.0743 144.824C76.0372 132.759 80.6793 132.426 80.345 119.065C80.0108 105.704 78.2283 94.4524 78.2283 94.4524Z" fill="#0B0E1E"/>
<path d="M136.05 180.651C136.05 180.651 132.781 184.389 133.116 189.201C133.45 194.012 134.044 196.27 134.044 196.27L133.747 198.528C133.747 198.528 135.53 198.528 136.644 195.937C137.758 193.346 137.424 189.83 137.424 189.83C137.424 189.83 138.426 193.383 138.426 194.975C138.426 196.566 136.644 201.266 136.644 201.748C136.644 202.229 134.527 202.71 133.561 203.857C132.596 204.968 132.447 207.077 132.447 207.077L138.426 204.486L142.771 195.974V183.908L136.161 180.207L136.012 180.688L136.05 180.651Z" fill="#FFC197"/>
<path d="M135.083 98.0794C135.083 98.0794 137.089 91.3064 138.426 91.9356C139.8 92.5648 145.073 98.9677 146.521 109.664C148.304 122.544 149.529 137.57 149.901 146.342C150.569 162.22 143.328 188.053 142.808 186.092L134.266 182.539C134.266 182.539 137.2 160.517 137.237 148.452C137.274 136.386 132.632 136.053 132.966 122.692C133.301 109.331 135.083 98.0794 135.083 98.0794Z" fill="#0B0E1E"/>
<path d="M88.9231 49.0397C88.7003 49.7429 91.8941 46.56 95.1249 46.3379L98.3558 46.0788L99.3585 42.6368L100.101 45.8568L105.56 46.3379L106.563 42.6368L108.531 45.8568L114.213 46.1158L113.953 43.414L116.181 46.8561L119.895 50.076C119.895 50.076 119.152 42.1557 113.47 39.1948C107.789 36.2339 105.04 37.4552 100.101 38.1955C95.1621 38.9357 90.4457 44.3763 88.9603 49.0767L88.9231 49.0397Z" fill="#8C3C19"/>
<path d="M166.317 50.3351L165.5 60.3651C165.5 60.3651 169.956 69.0627 173.93 67.5823C177.904 66.1018 183.66 62.4748 183.66 62.4748L181.506 49.965L166.317 50.2981V50.3351Z" fill="#F2AD86"/>
<path d="M191.309 65.3246H161.637V119.102H191.309V65.3246Z" fill="#EAEDF4"/>
<path d="M180.502 98.1905L177.085 69.2108L175.117 69.84V118.399L180.502 98.1905Z" fill="#005893"/>
<path d="M169.732 98.1905L173.149 69.2108L175.117 69.84V118.399L169.732 98.1905Z" fill="#005893"/>
<path d="M170.4 65.1396L173.334 70.8393H175.117V64.9545L170.4 65.1396Z" fill="#145F9E"/>
<path d="M179.834 65.1396L176.9 70.8393H175.117V64.9545L179.834 65.1396Z" fill="#145F9E"/>
<path d="M182.805 70.8393C182.805 70.8393 185.59 62.4377 185.442 61.1424C185.293 59.81 183.622 56.664 183.622 56.664C183.622 56.664 183.436 58.6996 179.5 61.3274C175.526 63.9552 174.227 65.4356 174.227 65.4356C174.227 65.4356 176.232 65.2876 178.683 66.9161L182.805 70.8763V70.8393Z" fill="#F3F6FF"/>
<path d="M174.931 65.3986C174.931 65.3986 172.777 65.0655 170.475 66.8791C168.172 68.6926 166.353 70.8393 166.353 70.8393C166.353 70.8393 163.53 62.4377 163.716 61.1424C163.864 59.81 165.573 56.8491 165.573 56.8491C165.573 56.8491 165.684 58.6626 169.658 61.3274C173.631 63.9552 174.931 65.4356 174.931 65.4356V65.3986Z" fill="#F3F6FF"/>
<path d="M191.568 30.09C191.568 40.1571 183.881 48.2995 174.374 48.2995C164.867 48.2995 157.18 40.1571 157.18 30.09C157.18 20.023 161.636 12.2877 174.374 11.8806C183.844 11.5845 191.568 20.023 191.568 30.09Z" fill="#151721"/>
<path d="M145.743 67.3972C145.743 67.3972 141.584 63.8442 138.985 71.9126C136.385 79.944 129.96 120.841 134.454 123.099C138.985 125.357 147.377 116.437 147.377 116.437L152.874 100.892L145.743 67.4342V67.3972Z" fill="#005893"/>
<path d="M205.346 158.148C205.346 158.148 202.078 161.887 202.413 166.698C202.747 171.509 203.378 173.767 203.378 173.767L203.081 176.025C203.081 176.025 204.864 176.025 205.978 173.434C207.092 170.843 206.758 167.327 206.758 167.327C206.758 167.327 207.76 170.88 207.76 172.472C207.76 174.063 205.978 178.764 205.978 179.245C205.978 179.726 203.861 180.207 202.895 181.354C201.93 182.465 201.781 184.574 201.781 184.574L207.76 181.984L212.105 173.471V161.405L205.495 157.704L205.346 158.185V158.148Z" fill="#FFC197"/>
<path d="M204.382 75.5767C204.382 75.5767 206.387 68.8037 207.724 69.4328C209.098 70.062 214.372 76.465 215.82 87.1612C217.603 100.041 218.828 115.068 219.2 123.839C219.868 139.717 212.626 165.551 212.106 163.589L203.565 160.036C203.565 160.036 206.499 138.014 206.536 125.949C206.573 113.883 201.931 113.55 202.265 100.189C202.599 86.8281 204.382 75.5767 204.382 75.5767Z" fill="#005893"/>
<path d="M154.098 295.793C154.098 295.793 151.796 297.421 151.944 298.273C152.093 299.087 153.17 302.529 157.478 303.047C161.786 303.528 165.314 302.714 166.799 301.715C168.285 300.715 170.253 297.754 167.616 295.46L154.098 295.793Z" fill="#151721"/>
<path d="M168.767 294.794C168.767 296.459 170.104 300.234 164.348 300.863C158.555 301.53 152.984 300.53 152.984 297.088C152.984 295.83 153.17 294.016 153.393 292.203C153.764 289.094 154.321 286.096 154.321 286.096L154.953 284.764L157.441 279.508L168.173 279.841L168.656 279.989C168.656 279.989 168.916 282.469 168.953 284.875C168.953 286.281 168.916 287.687 168.656 288.539C168.359 289.538 168.359 290.574 168.433 291.537C168.545 292.758 168.805 293.868 168.805 294.794H168.767Z" fill="#005893"/>
<path d="M161.637 286.466C161.637 287.132 161.451 287.687 160.931 287.909C159.854 288.317 155.658 291.5 153.355 292.24C153.727 289.131 154.284 286.133 154.284 286.133L154.915 284.801C156.921 284.282 160.56 283.394 160.931 283.986C161.266 284.467 161.637 285.578 161.637 286.503V286.466Z" fill="#151721"/>
<path d="M168.618 288.539C168.321 289.538 168.321 290.574 168.396 291.537C166.093 290.352 163.196 288.206 162.342 287.872C161.822 287.65 161.637 287.095 161.637 286.466C161.637 285.504 162.008 284.43 162.342 283.949C162.788 283.283 167.17 284.43 168.915 284.912C168.915 286.318 168.878 287.724 168.618 288.576V288.539Z" fill="#151721"/>
<path d="M195.879 295.793C195.879 295.793 198.181 297.421 198.033 298.273C197.884 299.087 196.807 302.529 192.499 303.047C188.192 303.528 184.664 302.714 183.178 301.715C181.693 300.715 179.724 297.754 182.361 295.46L195.879 295.793Z" fill="#151721"/>
<path d="M181.209 294.794C181.209 296.459 179.872 300.234 185.628 300.863C191.422 301.53 196.992 300.53 196.992 297.088C196.992 295.83 196.807 294.016 196.584 292.203C196.212 289.094 195.655 286.096 195.655 286.096L195.024 284.764L192.536 279.508L181.803 279.841L181.321 279.989C181.321 279.989 181.061 282.469 181.023 284.875C181.023 286.281 181.061 287.687 181.321 288.539C181.618 289.538 181.618 290.574 181.543 291.537C181.432 292.758 181.172 293.868 181.172 294.794H181.209Z" fill="#005893"/>
<path d="M188.34 286.466C188.34 287.132 188.526 287.687 189.045 287.909C190.122 288.317 194.319 291.5 196.621 292.24C196.25 289.131 195.693 286.133 195.693 286.133L195.062 284.801C193.056 284.282 189.417 283.394 189.045 283.986C188.711 284.467 188.34 285.578 188.34 286.503V286.466Z" fill="#151721"/>
<path d="M181.358 288.539C181.655 289.538 181.655 290.574 181.58 291.537C183.883 290.352 186.78 288.206 187.634 287.872C188.154 287.65 188.339 287.095 188.339 286.466C188.339 285.504 187.968 284.43 187.634 283.949C187.188 283.283 182.806 284.43 181.061 284.912C181.061 286.318 181.098 287.724 181.358 288.576V288.539Z" fill="#151721"/>
<path d="M204.049 146.712C203.566 141.938 195.99 139.976 195.99 139.976L188.971 140.42C189.826 158.741 191.794 202.192 191.534 210.186C191.274 218.292 188.934 265.592 187.969 287.095C190.197 287.169 194.653 283.801 194.653 283.801C194.653 283.801 204.532 151.486 204.012 146.712H204.049Z" fill="#145F9E"/>
<path d="M188.972 140.42L174.414 141.308V180.762L178.536 283.949C178.536 283.949 185.629 286.725 187.783 287.058C187.858 287.058 187.932 287.058 188.006 287.058C188.972 265.555 191.311 218.255 191.571 210.149C191.831 202.155 189.863 158.741 189.009 140.383L188.972 140.42Z" fill="#437FB1"/>
<path d="M146.19 148.599C146.673 143.825 152.763 140.013 152.763 140.013L159.782 140.457C158.928 158.778 156.96 202.229 157.22 210.223C157.48 218.328 159.819 265.629 160.785 287.132C158.556 287.206 154.1 283.838 154.1 283.838C154.1 283.838 145.707 153.411 146.19 148.636V148.599Z" fill="#437FB1"/>
<path d="M159.818 140.42L174.376 141.308V180.762L170.254 283.949C170.254 283.949 163.161 286.725 161.007 287.058C160.932 287.058 160.858 287.058 160.784 287.058C159.818 265.555 157.479 218.255 157.219 210.149C156.959 202.155 158.927 158.741 159.781 140.383L159.818 140.42Z" fill="#005893"/>
<g style="mix-blend-mode:multiply">
<g style="mix-blend-mode:multiply">
<path d="M174.375 64.9545C174.375 64.9545 172.258 63.4741 170.141 64.9545C167.988 66.4349 166.316 71.8386 166.316 71.8386C166.316 71.8386 168.99 66.9161 173.447 67.1011C177.903 67.2492 177.532 66.768 178.46 67.2492C179.389 67.7303 182.991 72.0236 182.991 72.0236C182.991 72.0236 183.919 62.9929 174.412 64.9545H174.375Z" fill="#A2D4DD"/>
</g>
</g>
<path d="M161.675 61.7345L143.924 67.0641C143.924 67.0641 145.669 91.9726 146.152 97.5613C146.635 103.15 149.606 117.14 148.974 126.837C148.306 136.534 138.725 166.069 138.725 166.069C138.725 166.069 158.704 174.692 163.495 172.065C168.285 169.437 176.53 150.043 177.198 136.238C177.867 122.433 175.378 117.399 175.378 117.399L161.675 61.7345Z" fill="#145F9E"/>
<path d="M204.309 97.2282C203.826 102.817 200.855 116.77 201.523 126.467C201.746 129.539 202.08 132.833 202.489 135.868C202.786 138.274 203.12 140.531 203.417 142.419C203.9 145.676 206.5 163.7 206.5 163.7C206.5 163.7 192.499 171.065 187.709 168.438C182.918 165.81 174.005 149.673 173.337 135.831C172.668 122.026 175.156 117.029 175.156 117.029L188.86 61.3644L207.8 69.4328C207.8 69.4328 204.866 91.6395 204.383 97.2282H204.309Z" fill="#005893"/>
<path d="M178.461 119.879H175.305V120.73H178.461V119.879Z" fill="#0E131C"/>
<path d="M179.093 136.608H175.193V137.607H179.093V136.608Z" fill="#0E131C"/>
<path d="M158.221 62.2157L165.574 56.8121C165.574 56.8121 164.015 61.8086 164.906 64.6954C165.76 67.5823 174.97 116.4 174.97 116.4C174.97 116.4 169.102 108.887 164.163 96.562C159.224 84.2373 154.768 69.7659 154.768 69.7659L159.224 68.1375L156.736 66.805L158.221 62.2157Z" fill="#437FB1"/>
<path d="M190.566 62.2157L183.622 56.627C183.622 56.627 184.736 61.8086 183.882 64.6954C183.028 67.5823 174.598 118.325 174.598 118.325C174.598 118.325 179.648 108.887 184.587 96.525C189.527 84.2003 193.983 69.7289 193.983 69.7289L189.527 68.1004L192.015 66.768L190.529 62.1787L190.566 62.2157Z" fill="#437FB1"/>
<path d="M203.379 136.534C201.113 139.162 195.543 141.531 195.543 141.531L192.943 134.98C192.943 134.98 197.028 133.869 200.111 132.167C201.225 131.537 201.968 130.76 202.487 130.02C202.785 132.426 203.119 134.683 203.416 136.571L203.379 136.534Z" fill="#145F9E"/>
<path d="M147.043 136.534C149.271 139.162 154.879 141.531 154.879 141.531L157.478 134.98C157.478 134.98 153.393 133.869 150.311 132.167C149.197 131.537 148.454 130.76 147.934 130.02C147.637 132.426 147.303 134.683 147.043 136.571V136.534Z" fill="#145F9E"/>
<path d="M160.709 31.9036C160.709 31.9036 158.629 29.831 157.552 30.7192C156.513 31.6445 157.144 40.4902 158.481 42.0816C159.781 43.6361 161.749 43.5251 161.749 43.5251L160.709 31.9036Z" fill="#F2AD86"/>
<path d="M165.944 18.5796C165.944 18.5796 163.048 18.7276 160.708 24.8345C158.369 30.9413 160.3 42.3037 160.3 42.3037C160.3 42.3037 160.931 48.0404 163.308 51.3714C165.573 54.5914 167.838 57.7373 169.955 58.6626C172.035 59.5879 174.597 59.1437 174.597 59.1437V17.9134L165.944 18.5796Z" fill="#FFC197"/>
<path d="M188.45 31.9036C188.45 31.9036 190.53 29.831 191.607 30.7192C192.646 31.6445 192.015 40.4902 190.678 42.0816C189.378 43.6361 187.41 43.5251 187.41 43.5251L188.45 31.9036Z" fill="#F2AD86"/>
<path d="M183.213 18.5796C183.213 18.5796 186.11 18.7276 188.45 24.8345C190.789 30.9413 188.858 42.3037 188.858 42.3037C188.858 42.3037 188.227 48.0404 185.85 51.3714C183.585 54.5914 181.319 57.7373 179.203 58.6626C177.123 59.5879 174.561 59.1437 174.561 59.1437V17.9134L183.213 18.5796Z" fill="#FFC197"/>
<path d="M146.56 154.484C146.56 154.484 149.828 158.222 149.493 163.034C149.159 167.845 148.565 170.103 148.565 170.103L148.862 172.361C148.862 172.361 147.08 172.361 145.965 169.77C144.851 167.179 145.186 163.663 145.186 163.663C145.186 163.663 144.183 167.216 144.183 168.808C144.183 170.399 145.965 175.1 145.965 175.581C145.965 176.062 148.082 176.543 149.048 177.69C150.013 178.801 150.162 180.91 150.162 180.91L144.183 178.32L139.838 169.807V157.741L146.448 154.04L146.597 154.521L146.56 154.484Z" fill="#FFC197"/>
<path d="M147.525 71.9496C147.525 71.9496 145.52 65.1766 144.183 65.8058C142.809 66.4349 137.573 72.8379 136.087 83.5341C134.304 96.4139 133.079 111.44 132.708 120.212C132.039 136.09 139.281 161.924 139.801 159.962L148.342 156.409C148.342 156.409 145.408 134.387 145.371 122.322C145.334 110.256 149.976 109.923 149.642 96.562C149.308 83.201 147.525 71.9496 147.525 71.9496Z" fill="#005893"/>
<path d="M205.346 158.148C205.346 158.148 202.078 161.887 202.413 166.698C202.747 171.509 203.378 173.767 203.378 173.767L203.081 176.025C203.081 176.025 204.864 176.025 205.978 173.434C207.092 170.843 206.758 167.327 206.758 167.327C206.758 167.327 207.76 170.88 207.76 172.472C207.76 174.063 205.978 178.764 205.978 179.245C205.978 179.726 203.861 180.207 202.895 181.354C201.93 182.465 201.781 184.574 201.781 184.574L207.76 181.984L212.105 173.471V161.405L205.495 157.704L205.346 158.186V158.148Z" fill="#FFC197"/>
<path d="M204.38 75.5767C204.38 75.5767 206.385 68.8037 207.722 69.4328C209.096 70.062 214.37 76.465 215.818 87.1612C217.601 100.041 218.826 115.068 219.198 123.839C219.866 139.717 212.624 165.551 212.105 163.589L203.563 160.036C203.563 160.036 206.497 138.014 206.534 125.949C206.571 113.883 201.929 113.55 202.263 100.189C202.598 86.8281 204.38 75.5767 204.38 75.5767Z" fill="#005893"/>
<path d="M171.961 16.9511C171.961 16.9511 173.706 21.9476 178.2 23.428C182.693 24.9085 184.587 25.2046 184.587 25.2046C184.587 25.2046 181.171 19.912 180.911 18.4315C180.651 16.9511 186.147 23.7241 186.184 25.2046C186.221 26.685 185.664 13.1389 171.924 16.9881L171.961 16.9511Z" fill="#151721"/>
<path d="M78.042 123.617C78.042 123.617 79.119 123.21 80.9015 116.696C83.7982 106.185 82.6841 94.4524 65.8241 94.4524C48.407 94.4524 46.8844 106.407 45.5846 111.366C44.2848 116.326 51.9721 127.059 53.9775 130.279C55.9829 133.462 60.3278 132.907 61.182 131.686L78.0049 123.654L78.042 123.617Z" fill="#4A2C11"/>
<path d="M52.084 149.858L69.9096 150.08L79.6394 149.118L84.69 183.242L87.8466 274.141L57.2831 276.436L52.084 149.858Z" fill="#C0F0FF"/>
<path d="M83.7997 372.036C83.7997 372.036 79.7518 381.77 80.4202 385.138C81.0887 388.506 89.4444 389.431 90.0015 388.617C90.5585 387.802 92.8981 374.034 92.8981 374.034L83.7997 371.999V372.036Z" fill="#20262D"/>
<path d="M93.2323 234.539H71.5073L64.1914 267.923L64.5628 268.627L71.0617 317.592C71.0617 317.592 75.5924 336.727 75.5924 343.944C75.5924 351.161 78.5633 378.291 78.5633 378.291C78.5633 378.291 88.0331 379.179 92.5267 379.105C97.0202 379.031 98.9513 379.105 98.9513 379.105L94.3464 320.405L93.1951 234.539H93.2323Z" fill="#02223D"/>
<g style="mix-blend-mode:multiply">
<path d="M71.5057 152.56L61.0332 156.261C61.0332 156.261 68.312 149.969 70.2431 150.043C72.1742 150.117 72.4342 149.858 72.8427 149.784C73.2512 149.71 80.7528 154.743 80.7528 154.743C80.7528 154.743 76.7049 151.449 71.4686 152.56H71.5057Z" fill="#C0F0FF"/>
</g>
<path d="M55.6117 393.317L53.6063 394.575C53.6063 394.575 52.975 397.462 53.9777 398.24C54.9803 398.98 54.7204 399.757 62.7048 399.757C70.6891 399.757 70.8377 399.387 71.0605 398.869C71.2833 398.351 72.0632 396.611 71.0605 395.353C70.0578 394.094 55.6117 393.317 55.6117 393.317Z" fill="#273442"/>
<path d="M74.7742 270.181C74.7742 270.181 77.9679 239.906 75.4798 235.872C74.1429 233.725 65.8243 233.207 58.2855 233.17C57.1714 248.826 52.6036 316.297 54.4233 327.881C55.9831 337.763 58.4712 367.779 59.5853 381.918C60.5509 381.77 61.4421 381.733 62.2591 381.807C65.8243 382.14 70.3921 382.362 70.3921 382.362C70.3921 382.362 68.2381 334.062 69.3894 326.327C70.5035 318.592 74.7742 270.181 74.7742 270.181Z" fill="#022D51"/>
<path d="M58.2855 233.17C51.5638 233.17 45.4734 233.503 45.4734 233.503C45.4734 233.503 41.6112 256.154 41.6483 256.635C42.0197 260.521 40.2743 280.026 42.5396 292.684C45.102 306.822 45.4362 328.4 45.4362 336.135C45.4362 343.87 52.6036 383.768 52.6036 383.768C52.6036 383.768 56.2801 382.362 59.5853 381.881C58.4712 367.742 55.9459 337.726 54.4233 327.844C52.6036 316.26 57.1714 248.789 58.2855 233.133V233.17Z" fill="#355774"/>
<path d="M59.7707 131.463L58.1367 140.79C58.1367 140.79 66.8638 151.116 69.909 150.635C72.9542 150.117 75.9994 145.861 75.9994 145.861L76.3708 132.241L59.8079 131.5L59.7707 131.463Z" fill="#F2AD86"/>
<path d="M58.621 137.866C58.621 137.866 59.7351 143.566 62.5204 145.195C65.3056 146.823 71.7674 149.858 71.7674 149.858L59.6237 156.409L56.0586 139.902L58.5839 137.866H58.621Z" fill="#F3F3F3"/>
<path d="M75.8506 140.457L77.4846 144.047L79.6386 155.151L71.8027 149.858C71.8027 149.858 75.3307 145.824 75.3307 144.824C75.3307 143.825 75.7021 140.79 75.7021 140.79L75.8135 140.494L75.8506 140.457Z" fill="#F3F3F3"/>
<path d="M79.6392 207.854L79.5278 208.632L80.7533 239.314C80.7533 239.314 71.7662 261.928 68.3497 264.333C64.9331 266.739 33.7012 264.333 33.7012 264.333L35.4837 250.195C35.4837 250.195 39.6802 234.428 41.6855 226.212C43.6909 218.032 39.7916 197.602 39.7916 197.602L34.2211 153.744L48.9643 144.38L56.0946 139.865C56.0946 139.865 64.5617 163.811 66.7156 166.698C68.8696 169.585 79.6392 207.817 79.6392 207.817V207.854Z" fill="#022D51"/>
<path d="M58.397 233.503V242.608L42.354 239.869L41.7598 230.949L58.397 233.503Z" fill="#0D1623"/>
<path d="M58.7319 233.577L57.395 241.609L41.352 238.87L40.7578 229.95L58.7319 233.577Z" fill="#02223D"/>
<path d="M79.6385 207.854L79.5271 208.632C75.5535 198.491 48.8894 150.487 48.8894 150.487L52.8259 147.822L47.8867 146.971L48.9637 144.417L56.0939 139.902C56.0939 139.902 64.5611 163.848 66.715 166.735C68.8689 169.622 79.6385 207.854 79.6385 207.854Z" fill="#355774"/>
<path d="M58.2491 378.55C58.2491 378.55 55.8353 385.619 55.4639 387.765C55.0925 389.912 52.9386 393.058 54.2013 394.686C55.4639 396.315 62.1856 396.463 64.7109 396.315C67.2362 396.204 71.2841 396.315 71.0242 395.316C70.7642 394.316 70.1329 387.247 70.1329 387.247V381.955C68.8702 380.326 67.6076 377.661 67.6076 377.661L58.2491 378.55Z" fill="#02223D"/>
<path d="M96.2023 396.833C93.1571 396.722 89.7405 394.946 89.3692 394.946C88.9978 394.946 86.4725 393.798 84.17 394.057C82.4989 394.242 80.0479 393.687 78.7109 393.169C78.7852 394.872 78.9338 396.352 79.268 396.5C79.8993 396.833 87.3638 396.833 89.2577 397.462C91.1517 398.092 94.9396 399.868 97.2421 399.72C99.5075 399.609 115.216 399.72 115.216 399.72C115.216 399.72 115.439 398.129 115.55 396.833C111.28 396.833 98.7647 396.944 96.2394 396.833H96.2023Z" fill="#273442"/>
<path d="M84.1701 394.057C86.4354 393.798 88.9607 394.946 89.3692 394.946C89.7777 394.946 93.1943 396.389 96.2024 396.833C97.8364 397.055 110.983 396.907 115.513 396.833C115.588 396.13 115.625 395.538 115.551 395.316C115.439 394.686 106.192 390.911 104.929 389.764C103.667 388.617 96.5737 378.291 96.5737 378.291L91.2632 378.661C91.2632 378.661 83.056 386.359 82.6475 385.989C82.2761 385.619 81.2735 380.437 81.2735 380.437C81.2735 380.437 78.5996 386.618 78.5996 388.395C78.5996 389.32 78.5996 391.355 78.6739 393.206C80.0479 393.724 82.499 394.279 84.133 394.094L84.1701 394.057Z" fill="#02223D"/>
<path d="M96.7225 258.523C96.7225 258.523 95.6826 263.556 91.6347 260.928C89.5922 259.596 81.1993 254.303 76.4458 241.572C71.8038 229.173 74.9604 209.335 74.9604 209.335L75.5917 204.523L80.6794 165.477L77.7828 143.899L85.173 147.378L90.892 154.04C90.892 154.04 93.7144 173.656 90.4092 187.387C87.1412 201.118 88.8866 207.817 89.1466 208.447C89.4065 209.076 96.7596 258.486 96.7596 258.486L96.7225 258.523Z" fill="#02223D"/>
<path d="M32.959 250.713L33.8503 262.076L38.8637 266.924L43.3201 268.479L40.5349 255.821L32.959 250.713Z" fill="#F2AF81"/>
<path d="M75.5918 204.56L80.6795 165.514L77.7829 143.936L85.173 147.415L88.0326 154.41L84.7645 153.263L90.0751 158.667C88.7753 158.222 80.0111 190.015 75.6661 204.56H75.5918Z" fill="#355774"/>
<path d="M34.1836 251.194L41.1653 248.271C41.1653 248.271 44.2477 252.046 45.2132 253.97C46.1788 255.895 46.5873 259.152 46.9586 260.077C47.3671 261.002 49.6696 264.815 48.2213 265.037C46.8101 265.222 44.1362 263.186 44.2477 260.558C44.3591 257.893 43.0221 258.338 43.0221 258.338V263.149L44.5819 267.553L46.0302 268.997C46.0302 268.997 48.147 269.737 48.6298 270.921C49.1125 272.069 48.5184 272.624 48.5184 272.624L45.2875 271.143L41.4624 267.923L36.4118 262.15L34.1465 251.268L34.1836 251.194Z" fill="#FFC197"/>
<path d="M42.3919 246.309L41.9091 245.902L29.9883 247.604L33.2192 252.934C33.2192 252.934 36.153 252.305 37.5642 250.861C38.9753 249.418 42.5033 249.936 42.5033 249.936L42.3548 246.346L42.3919 246.309Z" fill="#C0F0FF"/>
<path d="M38.1207 156.779C38.1207 156.779 36.9694 153.115 34.1842 153.744C31.3989 154.373 27.611 154.743 25.717 184.871C22.3005 239.203 30.5819 253.452 30.5819 253.452C30.5819 253.452 34.407 249.27 37.4151 247.641C41.7229 245.31 44.5082 248.419 44.5082 248.419C44.5082 248.419 42.5771 222.807 43.097 216.515C43.6169 210.223 45.9936 182.354 44.3596 176.173C42.7256 169.992 38.1578 156.742 38.1578 156.742L38.1207 156.779Z" fill="#355774"/>
<path d="M79.5276 231.727C79.5276 233.059 78.8592 234.132 78.005 234.132C77.1509 234.132 76.4824 233.059 76.4824 231.727C76.4824 230.394 77.1509 229.321 78.005 229.321C78.8592 229.321 79.5276 230.394 79.5276 231.727Z" fill="#355774"/>
<path d="M79.5276 216.996C79.5276 218.329 78.8592 219.402 78.005 219.402C77.1509 219.402 76.4824 218.329 76.4824 216.996C76.4824 215.664 77.1509 214.59 78.005 214.59C78.8592 214.59 79.5276 215.664 79.5276 216.996Z" fill="#355774"/>
<path d="M79.5278 103.853C84.3556 106.962 82.3874 115.586 82.3874 115.586C82.3874 115.586 83.1672 121.841 82.7959 123.062C82.4245 124.32 80.939 129.909 80.939 129.909L79.9363 136.645C79.6764 138.311 76.5198 139.532 74.8486 139.643C72.6576 139.791 69.798 139.902 68.6097 139.347C63.8933 137.237 59.2141 131.797 58.8056 130.168C58.1743 127.836 57.5429 125.542 57.5429 125.542C57.5429 125.542 56.7259 127.466 55.0919 125.875C53.4579 124.283 48.7787 113.476 51.6382 113.994C54.4977 114.512 59.6597 120.249 59.6597 120.249C59.6597 120.249 59.7711 104.964 64.3761 104.038C68.981 103.113 79.565 103.853 79.565 103.853H79.5278Z" fill="#FFC197"/>
<path d="M228.335 87.6423C228.335 98.2645 220.202 106.851 210.213 106.851C200.223 106.851 192.09 98.2645 192.09 87.6423C192.09 77.0201 200.223 68.4335 210.213 68.4335C220.202 68.4335 228.335 77.0201 228.335 87.6423Z" fill="#772D17"/>
<path d="M204.159 258.967C204.159 258.967 204.864 274.437 204.901 280.692C204.939 286.91 209.432 286.762 207.13 316.593C206.758 321.219 205.458 342.279 206.275 345.388C207.092 348.46 206.833 347.386 206.87 348.978C206.944 350.569 206.127 351.643 207.13 354.344C207.835 356.195 207.352 360.562 206.313 361.969C205.273 363.375 196.397 362.598 196.397 362.598C196.397 362.598 199.479 353.345 198.774 352.013C198.031 350.68 199.182 349.792 199.219 349.348C199.479 346.979 190.232 325.217 190.53 303.121C190.641 295.201 190.047 287.206 190.047 287.206L187.559 256.709L204.196 259.041L204.159 258.967Z" fill="#F2AD86"/>
<path d="M193.35 369.223C195.467 371.147 199.812 371.333 201.52 370.888C203.414 370.407 207.499 369.741 208.019 368.409C208.094 368.224 208.131 367.964 208.168 367.705C208.539 368.446 208.836 369.26 208.539 369.408C207.982 369.778 203.377 372.036 201.149 372.11C198.921 372.184 193.128 371.703 193.202 370.444C193.202 370 193.276 369.593 193.313 369.223H193.35Z" fill="#5E0839"/>
<path d="M201.521 370.925C199.813 371.37 195.505 371.184 193.351 369.26C193.351 369.26 193.351 369.26 193.314 369.26C192.089 368.113 194.614 362.376 194.614 362.376C194.614 362.376 199.962 357.601 202.004 356.75C204.009 355.899 204.641 356.528 207.055 358.157C209.431 359.748 207.797 363.042 207.797 363.042L207.575 364.041C207.575 364.041 208.28 366.299 208.206 367.779C208.206 368.039 208.132 368.298 208.057 368.483C207.537 369.815 203.415 370.481 201.558 370.962L201.521 370.925Z" fill="#5E0839"/>
<path d="M216.86 258.967C216.86 258.967 216.154 274.437 216.117 280.692C216.08 286.91 211.586 286.762 213.889 316.593C214.26 321.219 215.56 342.279 214.743 345.388C213.926 348.46 214.186 347.386 214.149 348.978C214.074 350.569 214.891 351.643 213.889 354.344C213.183 356.195 213.666 360.562 214.706 361.969C215.745 363.375 224.621 362.598 224.621 362.598C224.621 362.598 221.539 353.345 222.244 352.013C222.987 350.68 221.836 349.792 221.799 349.348C221.539 346.979 230.786 325.217 230.489 303.121C230.377 295.201 230.971 287.206 230.971 287.206L233.46 256.709L216.822 259.041L216.86 258.967Z" fill="#F2AD86"/>
<path d="M227.666 369.223C225.549 371.147 221.204 371.333 219.496 370.888C217.602 370.407 213.517 369.741 212.997 368.409C212.922 368.224 212.885 367.964 212.848 367.705C212.477 368.446 212.18 369.26 212.477 369.408C213.034 369.778 217.639 372.036 219.867 372.11C222.095 372.184 227.888 371.703 227.814 370.444C227.814 370 227.74 369.593 227.703 369.223H227.666Z" fill="#5E0839"/>
<path d="M219.496 370.925C221.204 371.37 225.512 371.184 227.666 369.26C227.666 369.26 227.666 369.26 227.703 369.26C228.928 368.113 226.403 362.376 226.403 362.376C226.403 362.376 221.055 357.601 219.013 356.75C217.008 355.899 216.376 356.528 213.962 358.157C211.586 359.748 213.22 363.042 213.22 363.042L213.442 364.041C213.442 364.041 212.737 366.299 212.811 367.779C212.811 368.039 212.885 368.298 212.96 368.483C213.48 369.815 217.602 370.481 219.459 370.962L219.496 370.925Z" fill="#5E0839"/>
<path d="M195.728 192.347C195.728 192.347 184.847 197.38 183.51 207.151C182.173 216.922 183.51 287.799 183.51 287.799C183.51 287.799 201.373 289.649 210.1 289.39C210.286 289.39 210.471 289.39 210.657 289.39V189.83C206.349 189.682 201.447 190.348 195.728 192.347Z" fill="#263160"/>
<path d="M234.201 204.745C234.201 204.745 227.739 190.422 210.656 189.793V289.353C219.606 289.02 238.36 287.243 238.36 287.243L234.201 204.745Z" fill="#192647"/>
<path d="M222.095 119.953L239.327 127.096L233.57 151.968C233.57 151.968 228.334 166.328 229.077 174.285C229.783 182.206 233.31 189.534 233.756 192.976C234.202 196.418 235.093 206.633 235.093 206.633L208.837 205.856L206.795 165.847C206.795 165.847 217.49 137.015 218.196 133.573C218.901 130.131 222.095 119.99 222.095 119.99V119.953Z" fill="#202C52"/>
<path d="M195.729 119.953L178.498 127.096L184.254 151.968C184.254 151.968 189.49 166.328 188.748 174.285C188.042 182.206 184.514 189.534 184.069 192.976C183.623 196.418 182.732 206.633 182.732 206.633L208.987 205.856L211.03 165.847C211.03 165.847 200.334 137.015 199.629 133.573C198.923 130.131 195.729 119.99 195.729 119.99V119.953Z" fill="#192647"/>
<path d="M209.654 166.698C209.654 167.438 209.06 168.03 208.317 168.03C207.575 168.03 206.98 167.438 206.98 166.698C206.98 165.958 207.575 165.366 208.317 165.366C209.06 165.366 209.654 165.958 209.654 166.698Z" fill="#192647"/>
<path d="M209.803 180.355C209.803 181.095 209.209 181.688 208.466 181.688C207.723 181.688 207.129 181.095 207.129 180.355C207.129 179.615 207.723 179.023 208.466 179.023C209.209 179.023 209.803 179.615 209.803 180.355Z" fill="#192647"/>
<path d="M208.837 126.023C205.903 126.023 202.969 125.949 200.035 125.801C201.743 133.092 205.866 147.933 208.577 157.445C208.651 157.149 208.762 156.816 208.837 156.483V125.986V126.023Z" fill="#F3F6FF"/>
<path d="M200.036 125.801C202.97 125.949 205.903 126.023 208.837 126.023V104.741L201.744 102.965C201.744 102.965 202.264 114.438 200.519 117.769C200.222 118.325 199.702 118.917 199.07 119.472C199.07 120.286 199.182 121.322 199.367 122.618C199.479 123.358 199.739 124.468 200.036 125.801Z" fill="#F2AD86"/>
<path d="M217.08 125.838C217.452 124.32 217.712 123.099 217.823 122.285C218.046 120.952 218.12 119.916 218.12 119.065C217.674 118.658 217.34 118.213 217.117 117.769C215.335 114.401 215.892 102.965 215.892 102.965L208.799 104.741V126.023C211.547 126.023 214.295 125.949 217.08 125.838Z" fill="#F2AD86"/>
<path d="M217.08 125.838C214.332 125.949 211.584 126.023 208.799 126.023V156.52C211.436 147.156 215.372 133.129 217.08 125.838Z" fill="#EAEDF4"/>
<path d="M208.836 156.483C208.762 156.816 208.65 157.112 208.576 157.445C208.65 157.778 208.762 158.074 208.836 158.408V156.483Z" fill="#262837"/>
<path d="M221.462 127.799L225.436 127.429L225.102 125.283L224.768 123.062L224.396 120.582C224.396 120.582 219.086 117.066 218.751 115.66C218.38 114.253 216.635 115.845 216.635 115.845C216.635 115.845 218.231 115.438 218.194 119.065C218.194 119.916 218.083 120.952 217.897 122.285C217.749 123.099 217.489 124.32 217.155 125.838C215.446 133.092 211.547 147.156 208.873 156.52V158.445C209.17 159.518 209.467 160.517 209.727 161.405C209.801 161.628 209.876 161.85 209.913 162.072C212.624 159.296 215.149 155.928 216.932 152.079C220.534 144.417 225.51 130.575 225.51 130.575L224.953 130.205L221.537 127.873L221.462 127.799Z" fill="#263160"/>
<path d="M209.877 162.035C209.802 161.813 209.765 161.591 209.691 161.368C209.431 160.48 209.171 159.481 208.837 158.408C208.762 158.074 208.651 157.778 208.577 157.445C205.866 147.933 201.744 133.092 200.035 125.801C199.738 124.468 199.478 123.358 199.367 122.618C199.144 121.322 199.07 120.286 199.07 119.472C199.033 115.808 200.63 116.215 200.63 116.215C200.63 116.215 198.847 114.623 198.513 116.03C198.141 117.436 192.868 120.952 192.868 120.952L192.497 123.247L192.2 125.283L191.791 127.836L195.765 128.206L192.794 130.242L191.754 130.945C191.754 130.945 196.545 144.861 200.332 152.449C202.264 156.298 204.975 159.777 207.203 162.257C207.648 162.738 208.057 163.182 208.428 163.626C209.951 165.255 211.028 166.217 211.028 166.217C211.028 166.217 210.582 164.625 209.839 162.109L209.877 162.035Z" fill="#263160"/>
<path d="M238.323 223.14L235.389 228.692L234.052 238.204L234.721 243.237C234.721 243.237 236.578 242.571 236.726 241.127C236.875 239.684 236.986 237.278 236.986 237.278L238.323 233.984L238.583 239.129L237.135 242.83L235.018 245.088C235.018 245.088 232.493 246.679 232.233 247.715C231.973 248.789 232.233 249.418 232.233 249.418L233.941 248.493C233.941 248.493 234.09 249.825 234.721 249.825C235.352 249.825 241.628 245.717 241.628 245.717L242.297 244.643C242.297 244.643 242.705 244.495 243.485 243.718L244.265 242.941L246.53 236.464L245.453 222.067L238.286 223.14H238.323Z" fill="#FFC197"/>
<path d="M239.252 127.096C241.331 126.911 242.297 134.943 242.446 141.938C242.594 148.933 244.822 175.914 246.568 181.465C248.276 187.017 246.419 217.033 246.568 220.882C246.716 224.731 247.088 226.952 247.088 226.952L236.355 224.435C236.355 224.435 235.167 195.863 233.978 191.384C232.79 186.906 234.238 177.098 234.238 177.098L231.453 158.593C231.453 158.593 235.575 127.392 239.289 127.096H239.252Z" fill="#192647"/>
<path d="M178.385 223.14L181.319 228.692L182.656 238.204L181.987 243.237C181.987 243.237 180.13 242.571 179.982 241.127C179.833 239.684 179.722 237.278 179.722 237.278L178.385 233.984L178.125 239.129L179.573 242.83L181.69 245.088C181.69 245.088 184.215 246.679 184.475 247.715C184.735 248.789 184.475 249.418 184.475 249.418L182.767 248.493C182.767 248.493 182.619 249.825 181.987 249.825C181.356 249.825 175.08 245.717 175.08 245.717L174.411 244.643C174.411 244.643 174.003 244.495 173.223 243.718L172.443 242.941L170.178 236.464L171.255 222.067L178.422 223.14H178.385Z" fill="#FFC197"/>
<path d="M177.457 127.096C175.378 126.911 174.412 134.943 174.264 141.938C174.115 148.933 171.887 175.914 170.141 181.465C168.433 187.017 170.29 217.033 170.141 220.882C169.993 224.731 169.621 226.952 169.621 226.952L180.354 224.435C180.354 224.435 181.542 195.863 182.731 191.384C183.919 186.906 182.471 177.098 182.471 177.098L185.256 158.593C185.256 158.593 181.134 127.392 177.42 127.096H177.457Z" fill="#192647"/>
<path d="M195.914 94.8225C195.914 94.8225 194.763 90.048 193.723 90.9363C192.683 91.8246 193.352 100.485 194.614 102.04C195.877 103.557 198.885 100.226 198.885 100.226L195.914 94.8225Z" fill="#F2AD86"/>
<path d="M201.744 77.7233C201.744 77.7233 198.922 77.8344 196.62 83.8302C194.317 89.826 196.248 100.892 196.248 100.892C196.248 100.892 197.511 106.259 199.813 109.479C201.856 112.329 206.424 115.919 208.763 117.066C210.769 118.065 210.249 117.325 210.249 117.325V77.0571L201.744 77.6863V77.7233Z" fill="#FFC197"/>
<path d="M223.766 95.2296C223.766 95.2296 226.18 89.9 227.22 90.7883C228.259 91.6765 227.22 99.819 225.957 101.336C224.694 102.854 223.395 99.5599 223.395 99.5599L223.766 95.2296Z" fill="#F2AD86"/>
<path d="M218.79 77.7233C218.79 77.7233 221.612 77.8344 223.914 83.8302C226.217 89.826 224.286 100.892 224.286 100.892C224.286 100.892 223.023 106.259 220.721 109.479C218.678 112.329 214.11 115.919 211.771 117.066C209.765 118.065 210.285 117.325 210.285 117.325V77.0571L218.79 77.6863V77.7233Z" fill="#FFC197"/>
<path d="M215.411 77.4643C215.411 77.4643 212.217 85.1626 206.944 84.7184C201.485 84.2743 200.445 87.3092 200.705 88.8267C200.705 88.8267 200.705 86.2729 203.564 83.4971L206.424 80.6842C206.424 80.6842 196.1 82.9049 198.291 92.2317C200.482 101.558 196.731 97.5243 196.805 102.373C196.843 107.221 193.76 93.9342 194.057 89.937C194.354 85.9398 200.556 67.8414 215.411 77.5013V77.4643Z" fill="#843418"/>
<path d="M8.33762 348.164C11.9027 337.689 14.3538 334.284 14.7251 333.026C15.0965 331.768 16.2477 323.144 16.2477 323.144L32.9963 324.699C32.8107 327.363 31.7337 340.909 30.0254 342.686C28.1314 344.61 26.6088 344.425 25.2719 351.272C23.935 358.12 21.1869 394.094 21.1869 394.094C21.1869 394.094 23.4522 403.569 24.195 411.342C24.6777 416.597 25.1234 419.336 25.4947 420.89C22.1524 421.186 15.2822 421.557 13.8338 420.039C11.9027 418.041 14.2052 408.825 12.3112 404.198C11.7171 402.792 11.3828 401.645 11.1229 400.719C11.2714 400.09 11.4571 399.461 11.6056 398.758C12.1998 395.76 4.80964 358.675 8.37476 348.201L8.33762 348.164Z" fill="#F2AD86"/>
<path d="M29.9883 398.943C30.2111 398.277 30.3596 397.832 30.3596 397.832C30.3596 397.832 33.4049 394.909 34.4818 391.689C35.5588 388.469 31.2138 362.857 31.2138 358.305C31.2138 353.752 34.9275 339.429 34.9275 339.429L31.2138 320.775H49.9307C49.9307 320.775 45.1772 402.348 45.14 402.607L47.1083 418.004C47.1083 418.004 47.5168 419.225 48.5195 420.409L38.4554 404.161C38.4554 404.161 30.9167 402.718 29.9883 398.98V398.943Z" fill="#F2AD86"/>
<path d="M40.609 129.539C46.7365 132.056 51.0815 141.197 50.0046 151.82C48.9276 162.442 50.8958 168.697 51.8243 170.732C52.7527 172.768 31.8076 169.511 29.0224 171.065C26.2371 172.62 6.55469 168.438 6.55469 168.438C6.55469 168.438 10.4169 159.888 9.19139 152.967C8.00302 146.046 14.5762 118.88 40.5718 129.576L40.609 129.539Z" fill="#A53D04"/>
<path d="M53.8672 419.484L56.9124 421.075V422.112H44.5088C43.3204 422.112 42.2806 421.334 41.9463 420.187C40.8694 416.56 38.4555 409.047 37.2671 408.603C35.6703 408.01 33.7392 407.677 33.7392 407.677V422.445H29.357C29.357 422.445 27.5745 408.159 27.6487 406.641C27.723 405.124 27.7602 404.568 28.6886 403.421C29.617 402.274 40.6466 406.456 40.6466 406.456L53.9043 419.484H53.8672Z" fill="#0F0F11"/>
<path d="M47.2561 402.718C47.2561 402.718 48.2217 412.452 49.8186 413.414C51.4155 414.376 56.6517 417.3 56.9117 418.411C57.1716 419.521 56.9117 421.075 56.9117 421.075C56.9117 421.075 44.4709 421.334 43.8396 420.483C43.2454 419.632 39.3089 407.714 37.3778 406.604C35.4096 405.494 30.0619 405.161 30.0619 405.161L28.2422 404.679C28.2422 404.679 28.3536 399.942 30.1733 397.758C31.993 395.575 47.2561 402.755 47.2561 402.755V402.718Z" fill="#300012"/>
<path d="M25.904 418.04C25.904 418.04 26.3496 419.336 26.0897 420.409C25.8297 421.52 25.904 422.408 23.8243 422.778C21.7447 423.148 14.2431 422.889 14.2431 422.889C14.2431 422.889 9.89808 420.705 12.6091 415.154C15.2829 409.602 25.904 418.004 25.904 418.004V418.04Z" fill="#0F0F11"/>
<path d="M23.8241 408.788C23.8241 408.788 26.4979 414.376 26.2751 417.929C26.0151 421.446 22.4129 420.964 20.9646 420.927C19.5162 420.853 13.5744 421.223 12.7945 420.261C12.0146 419.299 11.1976 417.115 12.4974 412.674C13.7972 408.233 23.8612 408.825 23.8612 408.825L23.8241 408.788Z" fill="#300012"/>
<path d="M23.9366 284.171L11.8672 338.874L23.5652 349.57C23.5652 349.57 39.1626 351.717 45.6615 349.496C52.1604 347.275 53.7202 344.684 53.7202 344.684L52.4575 272.476L46.2557 249.196C46.2557 249.196 27.0932 261.002 24.9393 268.849C22.7854 276.695 23.8623 284.134 23.8623 284.134L23.9366 284.171Z" fill="#44051C"/>
<path d="M3.51051 331.212C3.17628 321.145 -1.35439 285.467 0.910946 277.99C3.17628 270.514 8.70964 258.745 8.70964 258.745L29.9147 265.481C26.6095 281.396 23.6014 322.108 23.2672 328.363C22.933 335.173 22.2645 333.211 23.4157 349.57C19.5535 350.495 2.09932 349.57 2.09932 349.57C2.09932 349.57 3.8076 341.279 3.47337 331.212H3.51051Z" fill="#300012"/>
<path d="M40.3134 167.105C40.3134 167.105 35.5971 173.064 35.56 176.728C35.56 180.392 34.5573 183.908 34.5573 183.908C34.5573 183.908 33.8145 188.276 31.4006 186.573C28.9496 184.871 20.4082 173.434 20.4082 173.434L29.7295 160.924L40.2763 167.105H40.3134Z" fill="#F2AD86"/>
<path d="M34.4453 186.573L35.5594 179.652C35.5594 179.652 39.0874 183.131 41.0185 186.98C42.9868 190.829 47.9631 205.708 48.3344 213.85C48.7058 221.993 47.2203 222.733 47.2203 222.733L34.4082 186.61L34.4453 186.573Z" fill="#D1D7E5"/>
<path d="M23.4906 172.583L17.623 177.098C17.623 177.098 27.2786 187.313 31.2893 194.604C35.3001 201.896 47.9637 224.065 47.9637 224.065L34.4459 181.984L23.4535 172.62L23.4906 172.583Z" fill="#EAEDF4"/>
<path d="M34.4444 181.947C34.4444 181.947 25.6431 173.656 24.4176 171.843C23.192 170.029 22.5979 169.178 22.5979 169.178L19.6641 174.655L33.8131 188.535C33.8131 188.535 35.0386 187.979 34.4073 181.947H34.4444Z" fill="#F3F6FF"/>
<path d="M38.4932 182.576L36.8221 188.794L34.4453 182.428L35.6708 175.766L38.4932 182.576Z" fill="#F3F6FF"/>
<path d="M30.5459 212.481C29.5804 207.854 13.0917 195.456 9.19236 188.498C8.37535 187.091 8.00399 185.648 7.89258 184.278L19.4421 173.434L23.1929 178.097L44.4722 217.366C47.4802 246.013 40.7214 240.905 43.8408 248.011C45.0663 250.824 44.3236 269.552 42.3925 271.477C41.3527 272.513 27.0551 275.844 19.2193 275.548C19.7392 265.074 21.2618 244.31 25.0497 238.759C30.1746 231.208 31.5486 217.107 30.5459 212.481Z" fill="#5E0839"/>
<path d="M11.9774 237.685C12.7202 234.539 9.19219 221.623 9.19219 221.623L6.14698 185.944L7.89241 184.315C8.00382 185.685 8.37518 187.128 9.19219 188.535C13.0915 195.456 29.5802 207.891 30.5458 212.518C31.5113 217.144 30.1744 231.245 25.0495 238.796C21.2616 244.384 19.739 265.111 19.2191 275.585C12.5345 275.326 6.51835 274.919 6.51835 274.919C6.51835 274.919 4.06733 263.741 4.4387 258.375C4.81007 253.008 11.2718 240.868 12.0146 237.685H11.9774Z" fill="#44051C"/>
<path d="M24.4563 177.209L19.4429 171.991L14.8008 175.988L20.297 185.944L23.825 186.832L22.7109 188.164L44.4358 217.366C44.4358 217.366 36.8599 197.306 32.2179 189.867C27.5758 182.428 24.4192 177.209 24.4192 177.209H24.4563Z" fill="#5E0839"/>
<path d="M36.6738 178.171C36.6738 178.171 43.7298 194.493 44.4725 200.563C45.2153 206.633 44.2126 217.847 44.2126 220.401C44.2126 227.618 39.5334 238.018 43.3584 250.195C47.035 261.891 50.0802 272.476 50.0802 272.476H54.8336C54.8336 272.476 52.9025 251.231 49.3746 242.719C45.8466 234.206 54.0166 211.407 53.1625 207.743C52.3084 204.079 48.8175 196.418 48.4461 193.642C48.0376 190.829 46.2179 180.762 46.2179 180.762L36.711 178.209L36.6738 178.171Z" fill="#5E0839"/>
<path d="M36.043 176.099L42.6533 182.539L40.8336 183.279L43.656 185.093C43.656 185.093 48.6694 196.899 47.9267 200.785C47.184 204.671 44.2502 220.364 44.2502 220.364C44.2502 220.364 44.9929 203.561 43.7674 200.156C42.5419 196.751 36.0801 176.062 36.0801 176.062L36.043 176.099Z" fill="#5E0839"/>
<path d="M8.56037 285.282L14.5765 294.312L14.4651 300.493L13.1282 303.565C13.1282 303.565 11.4942 301.789 11.5684 300.493C11.6427 299.198 11.5684 295.793 11.5684 295.793H10.0458C10.0458 295.793 11.8655 303.75 10.3801 303.75C8.8946 303.75 8.04046 302.788 8.04046 302.788C8.04046 302.788 8.56037 303.935 6.92636 303.454C5.29234 302.973 5.29234 302.64 5.29234 302.64C5.29234 302.64 4.95811 303.121 3.65833 302.973C2.35855 302.825 2.21 302.159 2.21 302.159C2.21 302.159 2.21 303.454 1.24445 302.825C0.278898 302.159 -1.83789 297.643 -1.83789 297.643L-0.686655 285.726L8.5975 285.356L8.56037 285.282Z" fill="#FFC197"/>
<path d="M8.5605 282.506L9.22896 285.726L-2.02344 287.687V283.949L8.5605 282.506Z" fill="white"/>
<path d="M8.56036 239.832C12.534 213.85 20.8154 206.559 16.1734 196.714C12.9053 189.793 9.93441 185.759 6.14648 185.907C2.35854 186.055 1.13303 191.162 1.13303 195.789C1.13303 200.415 -6.47998 242.719 -6.99989 246.605C-7.51981 250.491 -2.69204 286.429 -2.69204 286.429L10.0087 283.653L8.56036 239.832Z" fill="#5E0839"/>
<path d="M42.7266 135.461C44.2492 136.423 46.3289 146.231 46.3289 146.231C46.3289 146.231 47.7401 153.707 47.4058 154.966C47.0345 156.187 44.8805 162.035 44.8805 162.035C44.8805 162.035 43.1723 170.325 40.8698 171.213C38.5302 172.102 25.6066 164.551 25.0124 162.294C24.3811 160.036 23.7869 157.741 23.7869 157.741C23.7869 157.741 22.9699 159.629 21.373 158.074C19.7762 156.52 15.1712 145.935 17.9936 146.453C20.816 146.971 22.8957 149.932 22.8957 149.932C22.8957 149.932 27.9834 137.977 32.514 137.089C37.0076 136.201 42.7638 135.498 42.7638 135.498L42.7266 135.461Z" fill="#FFC197"/>
<path d="M46.5879 148.081L47.3678 147.415C47.3678 147.415 47.5906 147.896 47.8877 147.859C48.1848 147.822 48.5933 147.6 48.5933 147.6C48.5933 147.6 48.1848 148.23 47.8505 148.267C47.5534 148.341 46.625 148.155 46.625 148.155V148.081H46.5879Z" fill="#8C3C19"/>
<path d="M47.293 147.452L47.6272 146.86C47.6272 146.86 47.8872 147.119 48.0728 147.008C48.2214 146.897 48.4442 146.675 48.4442 146.675C48.4442 146.675 48.3328 147.156 48.1471 147.267C47.9614 147.378 47.3301 147.489 47.3301 147.489L47.293 147.452Z" fill="#8C3C19"/>
<path d="M39.3098 133.166C39.3098 133.166 31.0655 141.716 30.7312 150.302C30.397 158.852 31.7339 170.732 31.7339 170.732H20.8158C20.8158 170.732 8.59781 146.379 17.5106 138.125C26.4234 129.909 39.3098 133.203 39.3098 133.203V133.166Z" fill="#A53D04"/>
<path d="M131.409 119.62L130.555 130.131C130.555 130.131 135.234 139.273 139.356 137.718C143.515 136.164 149.569 132.389 149.569 132.389L147.303 119.287L131.409 119.62Z" fill="#F2AD86"/>
<path d="M157.626 135.35H126.506V191.718H157.626V135.35Z" fill="#EAEDF4"/>
<path d="M146.262 169.807L142.66 139.384L140.617 140.087V190.977L146.262 169.807Z" fill="#2F4C35"/>
<path d="M134.973 169.807L138.538 139.384L140.617 140.087V190.977L134.973 169.807Z" fill="#2F4C35"/>
<path d="M135.641 135.128L138.723 141.086H140.617V134.943L135.641 135.128Z" fill="#3C5B45"/>
<path d="M145.556 135.128L142.474 141.086H140.617V134.943L145.556 135.128Z" fill="#3C5B45"/>
<path d="M148.639 141.086C148.639 141.086 151.573 132.315 151.388 130.908C151.202 129.539 149.494 126.208 149.494 126.208C149.494 126.208 149.308 128.318 145.149 131.093C140.989 133.832 139.615 135.387 139.615 135.387C139.615 135.387 141.732 135.239 144.294 136.941L148.602 141.086H148.639Z" fill="#F3F6FF"/>
<path d="M140.395 135.424C140.395 135.424 138.13 135.091 135.716 136.978C133.302 138.866 131.408 141.123 131.408 141.123C131.408 141.123 128.474 132.352 128.623 130.945C128.808 129.576 130.554 126.43 130.554 126.43C130.554 126.43 130.702 128.355 134.824 131.093C138.984 133.832 140.358 135.387 140.358 135.387L140.395 135.424Z" fill="#F3F6FF"/>
<path d="M157.849 98.4125C157.849 108.961 149.79 117.473 139.837 117.473C129.885 117.473 121.826 108.924 121.826 98.4125C121.826 87.9014 126.468 79.7219 139.837 79.3518C149.79 79.0557 157.849 87.9014 157.849 98.4125Z" fill="#FFEB99"/>
<path d="M109.795 137.496C109.795 137.496 105.413 133.795 102.739 142.234C100.028 150.672 93.2695 193.531 97.9859 195.863C102.739 198.232 111.541 188.868 111.541 188.868L117.297 172.583L109.832 137.496H109.795Z" fill="#2F4C35"/>
<path d="M172.296 232.615C172.296 232.615 168.879 236.538 169.213 241.572C169.585 246.605 170.216 248.974 170.216 248.974L169.919 251.342C169.919 251.342 171.776 251.342 172.964 248.641C174.153 245.939 173.781 242.238 173.781 242.238C173.781 242.238 174.821 245.939 174.821 247.641C174.821 249.344 172.964 254.229 172.964 254.71C172.964 255.192 170.773 255.71 169.733 256.894C168.731 258.078 168.545 260.262 168.545 260.262L174.821 257.56L179.389 248.604V235.946L172.444 232.06L172.259 232.578L172.296 232.615Z" fill="#FFC197"/>
<path d="M171.294 146.083C171.294 146.083 173.41 138.977 174.822 139.643C176.233 140.309 181.766 147.008 183.326 158.222C185.183 171.732 186.482 187.498 186.891 196.677C187.597 213.332 180.021 240.424 179.427 238.352L170.439 234.65C170.439 234.65 173.522 211.556 173.559 198.898C173.596 186.24 168.768 185.907 169.103 171.88C169.437 157.889 171.294 146.083 171.294 146.083Z" fill="#2F4C35"/>
<path d="M118.559 376.958C118.559 376.958 116.145 378.698 116.294 379.549C116.479 380.4 117.593 384.027 122.087 384.545C126.618 385.064 130.294 384.212 131.854 383.176C133.414 382.14 135.493 379.031 132.708 376.625L118.522 376.958H118.559Z" fill="#151721"/>
<path d="M133.934 375.885C133.934 377.624 135.345 381.585 129.292 382.251C123.239 382.954 117.371 381.918 117.371 378.291C117.371 376.958 117.557 375.071 117.78 373.146C118.188 369.889 118.745 366.706 118.745 366.706L119.414 365.3L122.05 359.822L133.303 360.155L133.823 360.303C133.823 360.303 134.12 362.894 134.12 365.448C134.12 366.928 134.083 368.409 133.823 369.297C133.526 370.37 133.488 371.443 133.6 372.443C133.711 373.701 133.971 374.886 133.971 375.848L133.934 375.885Z" fill="#2F4C35"/>
<path d="M126.469 367.15C126.469 367.853 126.284 368.446 125.727 368.668C124.612 369.112 120.193 372.443 117.779 373.183C118.188 369.926 118.745 366.743 118.745 366.743L119.413 365.337C121.493 364.782 125.318 363.893 125.727 364.485C126.061 365.004 126.469 366.151 126.469 367.113V367.15Z" fill="#151721"/>
<path d="M133.785 369.371C133.488 370.444 133.45 371.518 133.562 372.517C131.148 371.258 128.103 369.038 127.211 368.668C126.654 368.446 126.469 367.853 126.469 367.187C126.469 366.188 126.877 365.041 127.211 364.522C127.694 363.856 132.262 365.004 134.119 365.522C134.119 367.002 134.082 368.483 133.822 369.371H133.785Z" fill="#151721"/>
<path d="M162.343 376.958C162.343 376.958 164.757 378.698 164.608 379.549C164.423 380.4 163.309 384.027 158.815 384.545C154.285 385.064 150.608 384.212 149.048 383.176C147.489 382.14 145.409 379.031 148.194 376.625L162.38 376.958H162.343Z" fill="#151721"/>
<path d="M146.969 375.885C146.969 377.624 145.558 381.585 151.611 382.251C157.664 382.954 163.532 381.918 163.532 378.291C163.532 376.958 163.346 375.071 163.123 373.146C162.715 369.889 162.158 366.706 162.158 366.706L161.489 365.3L158.853 359.822L147.6 360.155L147.08 360.303C147.08 360.303 146.783 362.894 146.783 365.448C146.783 366.928 146.82 368.409 147.08 369.297C147.377 370.37 147.415 371.443 147.303 372.443C147.192 373.701 146.932 374.886 146.932 375.848L146.969 375.885Z" fill="#2F4C35"/>
<path d="M154.471 367.15C154.471 367.853 154.656 368.446 155.213 368.668C156.328 369.112 160.747 372.443 163.161 373.183C162.752 369.926 162.195 366.743 162.195 366.743L161.527 365.337C159.447 364.782 155.622 363.893 155.213 364.485C154.879 365.004 154.471 366.151 154.471 367.113V367.15Z" fill="#151721"/>
<path d="M147.155 369.371C147.452 370.444 147.489 371.518 147.377 372.517C149.791 371.258 152.836 369.038 153.728 368.668C154.285 368.446 154.47 367.853 154.47 367.187C154.47 366.188 154.062 365.041 153.728 364.522C153.245 363.856 148.677 365.004 146.82 365.522C146.82 367.002 146.857 368.483 147.117 369.371H147.155Z" fill="#151721"/>
<path d="M170.921 220.66C170.401 215.664 162.491 213.591 162.491 213.591L155.1 214.072C155.992 233.281 158.071 278.805 157.811 287.206C157.551 295.682 155.063 345.277 154.098 367.816C156.437 367.89 161.116 364.374 161.116 364.374C161.116 364.374 171.44 225.657 170.921 220.66Z" fill="#3C5B45"/>
<path d="M155.138 214.072L139.875 214.998V256.376L144.183 364.559C144.183 364.559 151.61 367.483 153.876 367.816C153.95 367.816 154.024 367.816 154.135 367.816C155.138 345.277 157.589 295.682 157.849 287.206C158.109 278.805 156.067 233.281 155.138 214.072Z" fill="#56725D"/>
<path d="M110.278 222.622C110.798 217.625 117.185 213.591 117.185 213.591L124.576 214.072C123.684 233.281 121.605 278.805 121.865 287.206C122.125 295.682 124.613 345.277 125.578 367.816C123.239 367.89 118.559 364.374 118.559 364.374C118.559 364.374 109.758 227.618 110.278 222.622Z" fill="#56725D"/>
<path d="M124.575 214.072L139.839 214.998V256.376L135.531 364.559C135.531 364.559 128.103 367.483 125.838 367.816C125.764 367.816 125.69 367.816 125.578 367.816C124.575 345.277 122.124 295.682 121.864 287.206C121.605 278.805 123.647 233.281 124.575 214.072Z" fill="#2F4C35"/>
<g style="mix-blend-mode:multiply">
<g style="mix-blend-mode:multiply">
<path d="M139.838 134.943C139.838 134.943 137.647 133.388 135.382 134.943C133.117 136.497 131.371 142.16 131.371 142.16C131.371 142.16 134.193 137.015 138.836 137.2C143.478 137.385 143.106 136.867 144.072 137.385C145.037 137.903 148.825 142.382 148.825 142.382C148.825 142.382 149.791 132.907 139.838 134.98V134.943Z" fill="#A2D4DD"/>
</g>
</g>
<path d="M126.543 131.575L107.938 137.163C107.938 137.163 109.757 163.293 110.277 169.141C110.797 174.989 113.917 189.645 113.211 199.823C112.505 210.001 102.479 240.942 102.479 240.942C102.479 240.942 123.424 249.973 128.437 247.234C133.45 244.458 142.103 224.139 142.772 209.668C143.477 195.197 140.878 189.941 140.878 189.941L126.543 131.612V131.575Z" fill="#3C5B45"/>
<path d="M171.218 168.808C170.698 174.655 167.578 189.312 168.284 199.49C168.507 202.71 168.878 206.152 169.286 209.335C169.584 211.852 169.955 214.22 170.252 216.219C170.772 219.624 173.483 238.5 173.483 238.5C173.483 238.5 158.814 246.235 153.8 243.459C148.787 240.72 139.429 223.769 138.723 209.298C138.017 194.826 140.617 189.571 140.617 189.571L154.989 131.241L174.82 139.68C174.82 139.68 171.737 162.96 171.218 168.808Z" fill="#2F4C35"/>
<path d="M144.108 192.532H140.803V193.42H144.108V192.532Z" fill="#0E131C"/>
<path d="M144.739 210.038H140.654V211.074H144.739V210.038Z" fill="#0E131C"/>
<path d="M122.903 132.093L130.59 126.43C130.59 126.43 128.956 131.649 129.885 134.683C130.776 137.718 140.432 188.905 140.432 188.905C140.432 188.905 134.304 181.021 129.105 168.104C123.906 155.188 119.264 140.013 119.264 140.013L123.943 138.311L121.343 136.941L122.903 132.13V132.093Z" fill="#56725D"/>
<path d="M156.809 132.093L149.53 126.245C149.53 126.245 150.719 131.686 149.827 134.72C148.936 137.755 140.098 190.94 140.098 190.94C140.098 190.94 145.408 181.021 150.57 168.104C155.732 155.188 160.411 140.013 160.411 140.013L155.732 138.311L158.332 136.941L156.772 132.13L156.809 132.093Z" fill="#56725D"/>
<path d="M170.215 210.001C167.875 212.74 161.971 215.22 161.971 215.22L159.26 208.373C159.26 208.373 163.53 207.225 166.761 205.412C167.95 204.745 168.73 203.931 169.25 203.154C169.547 205.671 169.918 208.039 170.215 210.038V210.001Z" fill="#3C5B45"/>
<path d="M111.168 210.001C113.508 212.74 119.412 215.22 119.412 215.22L122.123 208.373C122.123 208.373 117.853 207.225 114.622 205.412C113.433 204.745 112.653 203.931 112.134 203.154C111.836 205.671 111.465 208.039 111.168 210.038V210.001Z" fill="#3C5B45"/>
<path d="M125.504 100.3C125.504 100.3 123.313 98.1165 122.199 99.0787C121.085 100.041 121.791 109.331 123.165 110.996C124.539 112.625 126.581 112.514 126.581 112.514L125.467 100.337L125.504 100.3Z" fill="#F2AD86"/>
<path d="M130.963 86.3469C130.963 86.3469 127.955 86.495 125.467 92.8979C122.979 99.3378 125.058 111.218 125.058 111.218C125.058 111.218 125.727 117.214 128.215 120.73C130.592 124.098 132.968 127.429 135.159 128.355C137.351 129.317 140.024 128.873 140.024 128.873V85.6437L130.963 86.3099V86.3469Z" fill="#FFC197"/>
<path d="M154.583 100.3C154.583 100.3 156.774 98.1165 157.888 99.0787C159.002 100.041 158.296 109.331 156.922 110.996C155.548 112.625 153.506 112.514 153.506 112.514L154.62 100.337L154.583 100.3Z" fill="#F2AD86"/>
<path d="M149.087 86.3469C149.087 86.3469 152.095 86.495 154.583 92.8979C157.071 99.3378 154.991 111.218 154.991 111.218C154.991 111.218 154.323 117.214 151.835 120.73C149.458 124.098 147.081 127.429 144.89 128.355C142.699 129.317 140.025 128.873 140.025 128.873V85.6437L149.087 86.3099V86.3469Z" fill="#FFC197"/>
<path d="M110.687 228.803C110.687 228.803 114.103 232.726 113.769 237.759C113.398 242.793 112.766 245.162 112.766 245.162L113.064 247.53C113.064 247.53 111.207 247.53 110.018 244.829C108.83 242.127 109.201 238.426 109.201 238.426C109.201 238.426 108.162 242.127 108.162 243.829C108.162 245.532 110.018 250.417 110.018 250.898C110.018 251.379 112.209 251.898 113.249 253.082C114.252 254.266 114.438 256.45 114.438 256.45L108.162 253.748L103.594 244.791V232.134L110.538 228.248L110.724 228.766L110.687 228.803Z" fill="#FFC197"/>
<path d="M111.689 142.271C111.689 142.271 109.572 135.165 108.161 135.831C106.749 136.497 101.216 143.196 99.6564 154.41C97.7995 167.919 96.4998 183.686 96.0913 192.865C95.3857 209.52 102.962 236.612 103.556 234.539L112.543 230.838C112.543 230.838 109.46 207.743 109.423 195.086C109.386 182.428 114.214 182.095 113.88 168.067C113.545 154.077 111.689 142.271 111.689 142.271Z" fill="#2F4C35"/>
<path d="M172.296 232.615C172.296 232.615 168.879 236.538 169.213 241.572C169.585 246.605 170.216 248.974 170.216 248.974L169.919 251.342C169.919 251.342 171.776 251.342 172.964 248.641C174.153 245.939 173.781 242.238 173.781 242.238C173.781 242.238 174.821 245.939 174.821 247.641C174.821 249.344 172.964 254.229 172.964 254.71C172.964 255.192 170.773 255.71 169.733 256.894C168.731 258.078 168.545 260.262 168.545 260.262L174.821 257.56L179.389 248.604V235.946L172.444 232.06L172.259 232.578L172.296 232.615Z" fill="#FFC197"/>
<path d="M171.294 146.083C171.294 146.083 173.41 138.977 174.822 139.643C176.233 140.309 181.766 147.008 183.326 158.223C185.183 171.732 186.482 187.498 186.891 196.677C187.597 213.332 180.021 240.424 179.427 238.352L170.439 234.65C170.439 234.65 173.522 211.556 173.559 198.898C173.596 186.24 168.768 185.907 169.103 171.88C169.437 157.889 171.294 146.083 171.294 146.083Z" fill="#2F4C35"/>
<path d="M135.902 83.8302L136.162 85.9028C136.162 85.9028 135.642 87.9754 140.062 91.8616C144.481 95.7477 153.579 96.0068 153.579 96.0068C153.579 96.0068 151.5 93.6751 151.5 89.789C151.5 85.9028 145.001 84.6074 145.001 84.6074C145.001 84.6074 148.38 89.1228 150.46 92.1207C153.839 97.0431 153.839 103.261 153.839 103.261C153.839 103.261 157.219 101.447 155.659 94.7114C154.099 87.9754 151.24 79.944 135.902 83.8302Z" fill="#FFF4C5"/>
<path d="M125.763 87.7163C125.763 87.7163 123.684 91.8616 123.684 95.7477C123.684 99.6339 124.463 105.075 124.463 105.075C124.463 105.075 124.983 94.7114 129.403 92.6388C133.822 90.5662 135.382 88.7526 136.162 85.9028C136.941 83.0529 132.002 80.7212 125.763 87.7163Z" fill="#FFF4C5"/>
</svg>
