<svg width="180" height="180" viewBox="0 0 180 180" fill="none" xmlns="http://www.w3.org/2000/svg">
<path d="M115.408 153.568C115.408 156.761 112.81 159.36 109.616 159.36H70.3544C67.1608 159.36 64.5625 156.761 64.5625 153.568C64.5625 150.374 67.1608 147.776 70.3544 147.776H109.616C112.81 147.776 115.408 150.374 115.408 153.568Z" fill="white"/>
<path d="M80.8838 129.702V136.693H53.7194C52.4148 139.058 49.9197 140.585 47.1459 140.585C43.0205 140.585 39.6641 137.229 39.6641 133.093C39.6641 130.261 41.2961 127.686 43.7551 126.427V98.4935H50.7466V126.532C52.0747 127.254 53.1476 128.361 53.8352 129.702H80.8838Z" fill="white"/>
<path d="M147.115 160.711C147.115 164.847 143.758 168.204 139.622 168.204C138.363 168.204 137.152 167.902 136.068 167.306C122.246 175.568 106.409 179.927 90.1642 179.927C73.9195 179.927 58.3605 175.639 44.6327 167.516C43.5145 168.133 42.2551 168.472 40.9614 168.472C36.836 168.472 33.4688 165.115 33.4688 160.979C33.4688 156.843 36.836 153.497 40.9614 153.497C45.0868 153.497 48.4541 156.853 48.4541 160.979C48.4541 161.2 48.4541 161.433 48.4306 161.656C61.0402 169.032 75.4448 172.937 90.1623 172.937C104.88 172.937 119.494 168.975 132.175 161.469C132.14 161.225 132.128 160.968 132.128 160.711C132.128 156.586 135.495 153.229 139.62 153.229C143.746 153.229 147.113 156.586 147.113 160.711H147.115Z" fill="white"/>
<path d="M80.877 43.7305V50.722H54.0492C53.3272 52.1551 52.1728 53.3094 50.7507 54.0205V82.1059H43.7592V53.9156C41.3943 52.6219 39.8672 50.1285 39.8672 47.3547C39.8672 43.2185 43.2345 39.8621 47.3599 39.8621C50.121 39.8621 52.6035 41.3765 53.8972 43.7305H80.8752H80.877Z" fill="white"/>
<path d="M140.812 47.5537C140.812 50.3854 139.192 52.9602 136.721 54.2195V82.0135H129.729V54.1146C128.33 53.3456 127.212 52.1677 126.548 50.7238H99.5938V43.7323H126.899C128.227 41.4941 130.686 40.061 133.332 40.061C137.457 40.061 140.813 43.4175 140.813 47.5537H140.812Z" fill="white"/>
<path d="M139.226 11.9632C137.898 11.9632 136.591 12.3251 135.473 12.9765C121.792 4.93554 106.165 0.694336 90.1643 0.694336C74.1639 0.694336 58.4313 4.97173 44.7034 13.0706C43.5617 12.3938 42.2553 12.0338 40.9037 12.0338C36.7783 12.0338 33.4219 15.3902 33.4219 19.5265C33.4219 23.6627 36.7783 27.0083 40.9037 27.0083C45.0291 27.0083 48.3964 23.6519 48.3964 19.5265C48.3964 19.3636 48.3964 19.1881 48.3855 19.0253C60.9825 11.6013 75.4106 7.68581 90.1643 7.68581C104.918 7.68581 119.194 11.567 131.768 18.9076C131.757 19.0832 131.744 19.2695 131.744 19.4559C131.744 23.5813 135.101 26.9377 139.226 26.9377C143.351 26.9377 146.719 23.5813 146.719 19.4559C146.719 15.3305 143.362 11.9632 139.226 11.9632ZM44.4573 17.3118L45.5285 16.6477C45.5394 16.6369 45.552 16.6369 45.5629 16.6369L44.4555 17.3136L44.4573 17.3118Z" fill="white"/>
<path d="M159.42 70.5692V109.842C159.42 113.036 156.821 115.634 153.628 115.634C150.434 115.634 147.836 113.036 147.836 109.842V70.5692C147.836 67.3756 150.434 64.7773 153.628 64.7773C156.821 64.7773 159.42 67.3756 159.42 70.5692Z" fill="white"/>
<path d="M140.879 133.476C140.879 137.602 137.523 140.958 133.397 140.958C130.472 140.958 127.85 139.257 126.637 136.694H99.6016V129.702H126.929C127.605 128.548 128.561 127.592 129.726 126.952V98.3997H136.718V126.765C139.224 128.012 140.877 130.61 140.877 133.478L140.879 133.476Z" fill="white"/>
<path d="M167.506 135.609C168.146 136.728 168.485 137.998 168.485 139.304C168.485 143.44 165.128 146.797 160.992 146.797C156.856 146.797 153.51 143.44 153.51 139.304C153.51 135.168 156.866 131.822 160.992 131.822C161.189 131.822 161.399 131.833 161.598 131.846C168.928 119.283 172.785 104.949 172.785 90.3114C172.785 75.6734 168.87 61.1078 161.423 48.4747C161.189 48.4982 160.956 48.5091 160.711 48.5091C156.586 48.5091 153.219 45.1526 153.219 41.0272C153.219 36.9018 156.586 33.5345 160.711 33.5345C164.837 33.5345 168.204 36.891 168.204 41.0272C168.204 42.2739 167.889 43.5206 167.283 44.6171C175.463 58.3793 179.775 74.159 179.775 90.3114C179.775 106.464 175.534 121.929 167.504 135.609H167.506Z" fill="white"/>
<path d="M32.6228 70.6634V109.925C32.6228 113.119 30.0245 115.717 26.8309 115.717C23.6373 115.717 21.0391 113.119 21.0391 109.925V70.6634C21.0391 67.4699 23.6373 64.8716 26.8309 64.8716C30.0245 64.8716 32.6228 67.4699 32.6228 70.6634Z" fill="white"/>
<path d="M26.9766 139.525C26.9766 143.65 23.6202 147.007 19.4839 147.007C15.3477 147.007 12.0021 143.65 12.0021 139.525C12.0021 138.208 12.3405 136.961 12.9701 135.843C4.83513 122.126 0.546875 106.406 0.546875 90.3115C0.546875 74.217 4.78808 58.7069 12.8308 45.0243C12.1324 43.8826 11.7578 42.5545 11.7578 41.1793C11.7578 37.0539 15.1251 33.6975 19.2505 33.6975C23.3759 33.6975 26.7324 37.0539 26.7324 41.1793C26.7324 45.3047 23.0955 48.9289 18.8072 48.6612C11.4304 61.2237 7.53835 75.5921 7.53835 90.3115C7.53835 105.031 11.4539 119.457 18.8543 132.056C19.0642 132.045 19.2741 132.032 19.4839 132.032C23.6202 132.032 26.9766 135.389 26.9766 139.525Z" fill="white"/>
<path d="M115.919 26.9379C115.919 30.1314 113.321 32.7297 110.127 32.7297H70.8544C67.6608 32.7297 65.0625 30.1314 65.0625 26.9379C65.0625 25.342 65.7157 23.8963 66.7633 22.8468C67.8128 21.7974 69.2567 21.146 70.8544 21.146H110.127C113.321 21.146 115.919 23.7443 115.919 26.9379Z" fill="white"/>
</svg>
