<svg width="229" height="229" viewBox="0 0 229 229" fill="none" xmlns="http://www.w3.org/2000/svg">
<path d="M102.715 220.942C102.715 225.079 99.359 228.435 95.2227 228.435C91.879 228.435 89.0002 226.22 88.0666 223.097C47.3372 213.356 15.0451 181.027 5.34856 140.285C2.22555 139.364 0 136.462 0 133.107C0 128.982 3.36727 125.625 7.49268 125.625C11.6181 125.625 14.9745 128.982 14.9745 133.107C14.9745 135.391 13.9486 137.524 12.2134 138.934C21.3617 176.889 51.4753 207.039 89.42 216.222C90.8295 214.497 92.952 213.46 95.2227 213.46C99.359 213.46 102.715 216.817 102.715 220.942Z" fill="white"/>
<path d="M228.441 133.12C228.441 136.558 226.168 139.46 222.974 140.334C221.82 145.181 220.329 149.984 218.534 154.634C205.47 188.429 175.614 214.557 140.43 223.065C139.498 226.177 136.607 228.39 133.263 228.39C129.138 228.39 125.781 225.033 125.781 220.897C125.781 216.761 129.138 213.415 133.263 213.415C135.559 213.415 137.691 214.452 139.102 216.189C171.942 208.137 199.818 183.687 212.008 152.117C213.674 147.839 215.062 143.388 216.144 138.856C214.467 137.446 213.464 135.347 213.464 133.122C213.464 128.996 216.832 125.64 220.957 125.64C225.082 125.64 228.439 128.996 228.439 133.122L228.441 133.12Z" fill="white"/>
<path d="M102.728 7.49268C102.728 11.6181 99.3715 14.9745 95.2352 14.9745C93.0332 14.9745 90.9578 13.9956 89.5483 12.3527C51.6959 21.4775 21.5714 51.4988 12.3055 89.3024C14.019 90.7119 15.0322 92.8217 15.0322 95.0834C15.0322 99.2088 11.6758 102.565 7.53956 102.565C3.40329 102.565 0.046875 99.2088 0.046875 95.0834C0.046875 91.6926 2.3068 88.8012 5.466 87.8929C15.2783 47.4078 47.5126 15.2658 88.0212 5.53492C88.8843 2.34135 91.8318 0 95.2352 0C99.3715 0 102.728 3.35642 102.728 7.49268Z" fill="white"/>
<path d="M228.392 95.0941C228.392 99.2195 225.035 102.576 220.899 102.576C216.763 102.576 213.417 99.2195 213.417 95.0941C213.417 92.8921 214.396 90.8167 216.039 89.3945C206.82 51.6253 176.754 21.5822 138.974 12.3978C137.564 14.0407 135.478 15.0196 133.274 15.0196C129.149 15.0196 125.781 11.6632 125.781 7.53775C125.781 3.41234 129.149 0.046875 133.274 0.046875C136.688 0.046875 139.648 2.39003 140.499 5.59446C180.902 15.3597 213.055 47.4782 222.868 87.8692C226.049 88.7431 228.392 91.6906 228.392 95.0941Z" fill="white"/>
</svg>
