<svg width="102" height="95" viewBox="0 0 102 95" fill="none" xmlns="http://www.w3.org/2000/svg">
<path d="M92.1959 94.1715C97.614 94.1715 102 89.7753 102 84.3646V31.3877C102 25.9681 97.6051 21.5808 92.1959 21.5808H79.3402C75.6837 8.31212 63.3263 -0.640475 49.581 0.0358632C36.9033 0.676605 26.0494 9.35332 22.6331 21.5808H9.8041C4.38605 21.5808 0 25.977 0 31.3877V84.3646C0 89.7842 4.39494 94.1715 9.8041 94.1715H92.187H92.1959ZM49.7678 3.94261C56.7339 3.60444 63.5398 6.14071 68.5931 10.9552C73.6464 15.7696 76.5022 22.444 76.5022 29.421C76.5289 36.4781 73.6019 43.2236 68.4241 48.0114C63.4864 52.7814 60.7285 59.3757 60.8085 66.2458V68.6575H41.1914V66.5751C41.2804 59.5625 38.4869 52.817 33.4692 47.9046C26.0494 40.8832 23.5405 30.1151 27.0903 20.5307C30.64 10.9552 39.5634 4.42317 49.7678 3.93371V3.94261ZM56.8851 82.3979H45.1149C42.9441 82.3979 41.1914 80.6448 41.1914 78.4734V72.591H60.8085V78.4734C60.8085 80.6448 59.0559 82.3979 56.8851 82.3979ZM34.1364 92.5964C33.0154 91.1191 31.2806 90.247 29.4301 90.247H9.81299C6.56572 90.247 3.93232 87.6128 3.93232 84.3646V31.3877C3.93232 28.1395 6.56572 25.5053 9.81299 25.5053H21.868C21.8146 25.9147 21.7345 26.3152 21.6989 26.7334C20.8626 35.7127 24.2078 44.5852 30.7735 50.7702C35.0083 54.935 37.357 60.6483 37.268 66.584V78.4822C37.2858 82.0508 39.6968 85.1566 43.1487 86.0555V88.298C43.1487 89.3837 44.0295 90.2559 45.106 90.2559C46.1825 90.2559 47.0632 89.3748 47.0632 88.298V86.3402H54.9101V88.298C54.9101 89.3837 55.7908 90.2559 56.8673 90.2559C57.9438 90.2559 58.8246 89.3748 58.8246 88.298V86.0555C62.2765 85.1655 64.6964 82.0508 64.7053 78.4822V66.2548C64.6163 60.4703 66.9205 54.9172 71.0753 50.8859C77.0449 45.3506 80.4345 37.5727 80.399 29.421C80.3901 28.1039 80.2922 26.7957 80.1143 25.4965H92.1692C95.4165 25.4965 98.0499 28.1306 98.0499 31.3788V84.3557C98.0499 87.6039 95.4165 90.2381 92.1692 90.2381H72.5521C70.7016 90.2381 68.9579 91.1191 67.8458 92.5964" fill="url(#paint0_linear_1038_447)"/>
<path d="M47.0793 54.9258C45.9939 54.9258 45.1221 55.8068 45.1221 56.8836V62.766C45.1221 63.8517 46.0028 64.7238 47.0793 64.7238C48.1558 64.7238 49.0366 63.8428 49.0366 62.766V56.8836C49.0366 55.7979 48.1558 54.9258 47.0793 54.9258Z" fill="url(#paint1_linear_1038_447)"/>
<path d="M45.1221 47.0856C45.1221 48.1713 46.0028 49.0434 47.0793 49.0434C48.1558 49.0434 49.0366 48.1624 49.0366 47.0856V45.1278C49.0366 44.0421 48.1558 43.1699 47.0793 43.1699C46.0028 43.1699 45.1221 44.051 45.1221 45.1278V47.0856Z" fill="url(#paint2_linear_1038_447)"/>
<path d="M54.925 64.7423C56.0104 64.7423 56.8823 63.8613 56.8823 62.7845V56.9021C56.8823 55.8164 56.0015 54.9443 54.925 54.9443C53.8485 54.9443 52.9678 55.8253 52.9678 56.9021V62.7845C52.9678 63.8702 53.8485 64.7423 54.925 64.7423Z" fill="url(#paint3_linear_1038_447)"/>
<path d="M54.925 49.0434C56.0104 49.0434 56.8823 48.1624 56.8823 47.0856V45.1278C56.8823 44.0421 56.0015 43.1699 54.925 43.1699C53.8485 43.1699 52.9678 44.051 52.9678 45.1278V47.0856C52.9678 48.1713 53.8485 49.0434 54.925 49.0434Z" fill="url(#paint4_linear_1038_447)"/>
<path d="M19.6197 13.7227C20.456 13.7227 21.1945 13.1977 21.4702 12.4145C21.746 11.6314 21.4969 10.7504 20.8475 10.2343L11.0434 2.38516C10.1982 1.70882 8.96157 1.8423 8.28542 2.68773C7.60928 3.53315 7.74273 4.77014 8.58791 5.44648L18.392 13.2956C18.739 13.5714 19.1749 13.7227 19.6197 13.7227Z" fill="url(#paint5_linear_1038_447)"/>
<path d="M83.6151 13.2956L93.4193 5.44648C94.2644 4.77014 94.3979 3.53315 93.7217 2.68773C93.0456 1.8423 91.809 1.70882 90.9638 2.38516L81.1597 10.2343C80.6081 10.6703 80.3412 11.3733 80.4479 12.0586C80.5547 12.7438 81.0173 13.3401 81.6757 13.5892C82.334 13.8384 83.0725 13.7316 83.6151 13.2956Z" fill="url(#paint6_linear_1038_447)"/>
<path d="M8.28358 69.8943C8.61275 70.3037 9.08427 70.5618 9.60028 70.6152C10.1163 70.6686 10.6323 70.5262 11.0415 70.1969L20.8456 62.3478C21.6908 61.6715 21.8243 60.4345 21.1481 59.5891C20.472 58.7437 19.2353 58.6102 18.3902 59.2865L8.58606 67.1356C8.17681 67.4649 7.91881 67.9365 7.86543 68.4527C7.81205 68.9688 7.9544 69.485 8.28358 69.8943Z" fill="url(#paint7_linear_1038_447)"/>
<path d="M90.9623 70.1969C91.8075 70.8733 93.0441 70.7398 93.7203 69.8943C94.3964 69.0489 94.263 67.8119 93.4178 67.1356L83.6137 59.2865C82.7685 58.6102 81.5319 58.7437 80.8557 59.5891C80.1796 60.4345 80.313 61.6715 81.1582 62.3478L90.9623 70.1969Z" fill="url(#paint8_linear_1038_447)"/>
<path d="M32.9774 25.4605C33.102 25.4872 33.2265 25.4961 33.3511 25.4961C34.2852 25.4961 35.0948 24.8287 35.2728 23.9031C36.6784 16.677 43.8313 13.5979 43.9025 13.5712C44.9078 13.1618 45.3794 12.0138 44.9701 11.0082C44.5609 10.0026 43.4132 9.53094 42.4079 9.94031C42.0342 10.0916 33.2354 13.8114 31.4205 23.1556C31.2159 24.2235 31.9098 25.2469 32.9774 25.4516V25.4605Z" fill="url(#paint9_linear_1038_447)"/>
<path d="M9.81175 35.3121H15.6924C16.7778 35.3121 17.6497 34.4311 17.6497 33.3543C17.6497 32.2775 16.7689 31.3965 15.6924 31.3965H9.81175C8.72636 31.3965 7.85449 32.2775 7.85449 33.3543C7.85449 34.4311 8.73526 35.3121 9.81175 35.3121Z" fill="url(#paint10_linear_1038_447)"/>
<path d="M86.3186 35.3121H92.1993C93.2847 35.3121 94.1565 34.4311 94.1565 33.3543C94.1565 32.2775 93.2758 31.3965 92.1993 31.3965H86.3186C85.2332 31.3965 84.3613 32.2775 84.3613 33.3543C84.3613 34.4311 85.2421 35.3121 86.3186 35.3121Z" fill="url(#paint11_linear_1038_447)"/>
<defs>
<linearGradient id="paint0_linear_1038_447" x1="0.00889664" y1="47.077" x2="102.009" y2="47.077" gradientUnits="userSpaceOnUse">
<stop stop-color="#007367"/>
<stop offset="1" stop-color="#0FCED1"/>
</linearGradient>
<linearGradient id="paint1_linear_1038_447" x1="45.1221" y1="59.8381" x2="49.0455" y2="59.8381" gradientUnits="userSpaceOnUse">
<stop stop-color="#007367"/>
<stop offset="1" stop-color="#0FCED1"/>
</linearGradient>
<linearGradient id="paint2_linear_1038_447" x1="45.1221" y1="46.0978" x2="49.0455" y2="46.0978" gradientUnits="userSpaceOnUse">
<stop stop-color="#007367"/>
<stop offset="1" stop-color="#0FCED1"/>
</linearGradient>
<linearGradient id="paint3_linear_1038_447" x1="52.9678" y1="59.8389" x2="56.8912" y2="59.8389" gradientUnits="userSpaceOnUse">
<stop stop-color="#007367"/>
<stop offset="1" stop-color="#0FCED1"/>
</linearGradient>
<linearGradient id="paint4_linear_1038_447" x1="52.9678" y1="46.0978" x2="56.8912" y2="46.0978" gradientUnits="userSpaceOnUse">
<stop stop-color="#007367"/>
<stop offset="1" stop-color="#0FCED1"/>
</linearGradient>
<linearGradient id="paint5_linear_1038_447" x1="7.84949" y1="7.84036" x2="21.577" y2="7.84036" gradientUnits="userSpaceOnUse">
<stop stop-color="#007367"/>
<stop offset="1" stop-color="#0FCED1"/>
</linearGradient>
<linearGradient id="paint6_linear_1038_447" x1="80.4213" y1="7.84036" x2="94.1577" y2="7.84036" gradientUnits="userSpaceOnUse">
<stop stop-color="#007367"/>
<stop offset="1" stop-color="#0FCED1"/>
</linearGradient>
<linearGradient id="paint7_linear_1038_447" x1="7.85654" y1="64.7417" x2="21.584" y2="64.7417" gradientUnits="userSpaceOnUse">
<stop stop-color="#007367"/>
<stop offset="1" stop-color="#0FCED1"/>
</linearGradient>
<linearGradient id="paint8_linear_1038_447" x1="80.4198" y1="64.7417" x2="94.1562" y2="64.7417" gradientUnits="userSpaceOnUse">
<stop stop-color="#007367"/>
<stop offset="1" stop-color="#0FCED1"/>
</linearGradient>
<linearGradient id="paint9_linear_1038_447" x1="31.3849" y1="17.647" x2="45.1214" y2="17.647" gradientUnits="userSpaceOnUse">
<stop stop-color="#007367"/>
<stop offset="1" stop-color="#0FCED1"/>
</linearGradient>
<linearGradient id="paint10_linear_1038_447" x1="7.85449" y1="33.3454" x2="17.6586" y2="33.3454" gradientUnits="userSpaceOnUse">
<stop stop-color="#007367"/>
<stop offset="1" stop-color="#0FCED1"/>
</linearGradient>
<linearGradient id="paint11_linear_1038_447" x1="84.3524" y1="33.3454" x2="94.1654" y2="33.3454" gradientUnits="userSpaceOnUse">
<stop stop-color="#007367"/>
<stop offset="1" stop-color="#0FCED1"/>
</linearGradient>
</defs>
</svg>
