<svg width="113" height="116" viewBox="0 0 113 116" fill="none" xmlns="http://www.w3.org/2000/svg">
<path d="M104.658 53.0959C102.697 53.0959 100.894 53.78 99.4677 54.925L70.314 28.3375C72.5812 25.3633 73.9359 21.6474 73.9359 17.6074C73.9359 7.89993 66.1145 0 56.5036 0C46.8926 0 39.0712 7.89993 39.0712 17.6074C39.0712 21.6402 40.4259 25.3633 42.6932 28.3375L13.5395 54.925C12.1135 53.78 10.3097 53.0959 8.34898 53.0959C3.74314 53.0959 0 56.8766 0 61.5287C0 66.1808 3.74314 69.9615 8.34898 69.9615C10.2455 69.9615 11.9923 69.3206 13.3897 68.2404L27.0861 81.2965C26.4658 82.3191 26.1093 83.5217 26.1093 84.8036C26.1093 88.5123 29.0967 91.5297 32.7685 91.5297C34.9502 91.5297 36.8824 90.4639 38.1016 88.8292L77.073 107.056C76.9375 107.61 76.8662 108.186 76.8662 108.777C76.8662 112.759 80.0747 116 84.0174 116C87.9602 116 91.1686 112.759 91.1686 108.777C91.1686 106.329 89.9565 104.161 88.1028 102.85L102.583 69.6951C103.246 69.8679 103.938 69.9543 104.651 69.9543C109.257 69.9543 113 66.1736 113 61.5215C113 56.8694 109.257 53.0887 104.651 53.0887L104.658 53.0959ZM96.3092 61.5287C96.3092 61.6439 96.3092 61.7591 96.3163 61.8744L72.8023 66.8505L62.8847 33.9906C64.9738 33.1552 66.8703 31.931 68.4745 30.3899L97.6282 56.9774C96.794 58.2881 96.3092 59.8508 96.3092 61.5215V61.5287ZM62.5425 77.5374C63.9756 76.0251 64.8525 73.9727 64.8525 71.7187C64.8525 71.6034 64.8526 71.4882 64.8454 71.373L70.9129 70.0911L80.4311 101.626L62.5425 77.5374ZM36.255 79.0713L39.6131 69.5582L48.1688 71.3658C48.1688 71.481 48.1617 71.5962 48.1617 71.7115C48.1617 72.6836 48.3257 73.6126 48.6252 74.4768L37.8307 80.4251C37.3815 79.8922 36.8467 79.4313 36.255 79.0641V79.0713ZM28.9826 79.2801L15.2863 66.224C15.6285 65.7127 15.9066 65.1654 16.1347 64.5893L36.9038 68.9893L33.674 78.1423C33.3817 78.0991 33.0822 78.0775 32.7756 78.0775C31.3639 78.0775 30.0592 78.524 28.9826 79.2801ZM49.3738 33.6665L37.8307 66.3464L16.6908 61.8672C16.6908 61.7519 16.698 61.6367 16.698 61.5215C16.698 59.8508 16.2131 58.2953 15.379 56.9774L44.5327 30.3899C45.9444 31.7365 47.5771 32.8527 49.3738 33.6665ZM55.1347 63.401C52.2043 63.8907 49.7873 65.9287 48.7321 68.6509L40.5471 66.9153L51.9619 34.5955C52.9886 34.8763 54.0438 35.0636 55.1347 35.15V63.401ZM50.9067 71.7187C50.9067 68.6004 53.4164 66.0584 56.5107 66.0584C59.605 66.0584 62.1147 68.5932 62.1147 71.7187C62.1147 74.8441 59.605 77.3789 56.5107 77.3789C53.4164 77.3789 50.9067 74.8441 50.9067 71.7187ZM64.2822 68.6581C63.227 65.9359 60.81 63.8979 57.8796 63.4083V35.1572C58.6924 35.0924 59.4838 34.9772 60.261 34.8043L70.1072 67.4266L64.2822 68.6581ZM56.5036 2.77254C64.603 2.77254 71.1909 9.42662 71.1909 17.6074C71.1909 25.7882 64.603 32.4423 56.5036 32.4423C48.4041 32.4423 41.8162 25.7882 41.8162 17.6074C41.8162 9.42662 48.4041 2.77254 56.5036 2.77254ZM8.35611 67.189C5.26891 67.189 2.7521 64.6541 2.7521 61.5287C2.7521 58.4033 5.26178 55.8684 8.35611 55.8684C11.4504 55.8684 13.9601 58.4033 13.9601 61.5287C13.9601 64.6541 11.4504 67.189 8.35611 67.189ZM32.7756 88.7571C30.6153 88.7571 28.8614 86.9856 28.8614 84.8036C28.8614 82.6216 30.6153 80.85 32.7756 80.85C34.936 80.85 36.6899 82.6216 36.6899 84.8036C36.6899 86.9856 34.936 88.7571 32.7756 88.7571ZM39.2637 86.3087C39.3707 85.8262 39.4349 85.3221 39.4349 84.8036C39.4349 84.1339 39.335 83.4785 39.1497 82.8664L49.9442 76.9181C51.4771 78.884 53.8442 80.1515 56.5107 80.1515C57.8939 80.1515 59.1986 79.8058 60.3537 79.2009L78.72 103.93C78.5489 104.125 78.392 104.327 78.2352 104.535L39.2637 86.3087ZM84.0246 113.227C81.5933 113.227 79.6183 111.233 79.6183 108.777C79.6183 106.321 81.5933 104.327 84.0246 104.327C86.4558 104.327 88.4308 106.321 88.4308 108.777C88.4308 111.233 86.4558 113.227 84.0246 113.227ZM85.6002 101.727C85.094 101.612 84.5664 101.547 84.0246 101.547C83.775 101.547 83.5326 101.561 83.2902 101.583L73.6151 69.515L96.8867 64.5893C97.5212 66.224 98.6477 67.6139 100.081 68.5716L85.6002 101.727ZM104.658 67.1818C101.571 67.1818 99.0541 64.6469 99.0541 61.5215C99.0541 58.3961 101.564 55.8612 104.658 55.8612C107.752 55.8612 110.262 58.3961 110.262 61.5215C110.262 64.6469 107.752 67.1818 104.658 67.1818ZM46.5575 23.4045C43.3919 17.8595 45.2742 10.7517 50.7641 7.54706C51.9762 6.84132 53.2809 6.36603 54.6498 6.14279C56.1471 5.89794 57.6586 5.94835 59.1416 6.30122C59.8831 6.47405 60.3394 7.22299 60.1612 7.97194C59.9829 8.72088 59.2485 9.18177 58.507 9.00174C57.3805 8.73529 56.2255 8.69208 55.0847 8.87932C54.0438 9.05215 53.0528 9.41222 52.133 9.94512C47.955 12.3792 46.5219 17.7946 48.9317 22.0147C50.101 24.0598 51.9833 25.5217 54.2434 26.1338C56.4964 26.746 58.8564 26.4291 60.8813 25.2481C63.3339 23.8222 64.9524 21.2657 65.2162 18.414C65.2875 17.6506 65.9505 17.0889 66.7134 17.1609C67.4692 17.2329 68.0253 17.9099 67.954 18.6732C67.6047 22.4179 65.48 25.7738 62.2573 27.6533C60.4535 28.7047 58.4785 29.2088 56.5321 29.2088C52.5608 29.2088 48.6893 27.1276 46.5646 23.4045H46.5575ZM55.6337 18.3419L63.5335 10.3628C64.0683 9.8227 64.9381 9.8227 65.4728 10.3628C66.0076 10.9029 66.0076 11.7815 65.4728 12.3216L56.3039 21.5826C56.0473 21.8418 55.6979 21.9858 55.3343 21.9858C55.2772 21.9858 55.2131 21.9858 55.156 21.9714C54.7354 21.9138 54.3575 21.6618 54.1436 21.2873L51.1562 16.0591C50.7783 15.3966 50.9994 14.5468 51.6553 14.1651C52.3113 13.7835 53.1526 14.0067 53.5304 14.6692L55.6266 18.3347L55.6337 18.3419Z" fill="url(#paint0_linear_1038_443)"/>
<defs>
<linearGradient id="paint0_linear_1038_443" x1="56.5036" y1="116.007" x2="56.5036" y2="0" gradientUnits="userSpaceOnUse">
<stop stop-color="#007367"/>
<stop offset="1" stop-color="#0FCED1"/>
</linearGradient>
</defs>
</svg>
