<svg width="223" height="208" viewBox="0 0 223 208" fill="none" xmlns="http://www.w3.org/2000/svg">
<path d="M47.0408 181.086H51.1628C53.5028 181.086 54.4388 182.31 54.4388 184.758C54.4388 187.152 53.7548 188.682 51.0728 188.682H48.5708C46.3388 188.682 45.3668 187.512 45.3668 185.226V179.34C45.3668 177.414 46.3928 176.082 48.4268 176.082H53.8268V177.45H48.9488C47.7428 177.45 47.0408 178.116 47.0408 179.412V181.086ZM47.0408 182.454V185.28C47.0408 186.648 47.4728 187.314 48.9668 187.314H50.6588C52.2428 187.314 52.6928 186.396 52.6928 184.758C52.6928 183.246 52.2068 182.454 50.4788 182.454H47.0408ZM64.4093 186.72L66.9293 177.198C67.0553 176.73 67.3253 175.938 68.4413 175.938C69.4853 175.938 69.8093 176.694 69.9533 177.198L72.4733 186.72C72.5093 186.882 72.6533 187.026 72.7793 187.026C72.9593 187.026 73.0313 186.774 73.0673 186.648L75.7493 176.082H77.4413L74.4353 187.422C74.1833 188.358 73.7873 188.826 72.8153 188.826C71.6633 188.826 71.3573 188.142 71.1773 187.44L68.7113 178.188C68.6753 178.026 68.6033 177.846 68.4413 177.846C68.2793 177.846 68.2073 178.026 68.1713 178.188L65.6873 187.44C65.5073 188.142 65.2193 188.826 64.0673 188.826C63.0953 188.826 62.6993 188.358 62.4473 187.422L59.4413 176.082H61.1333L63.8153 186.648C63.8513 186.774 63.8873 187.026 64.1033 187.026C64.2293 187.026 64.3733 186.882 64.4093 186.72ZM86.4593 188.682H81.4733C78.6293 188.682 78.0353 186.828 78.0353 183.948C78.0353 180.438 79.1513 179.034 82.3733 179.034C84.9113 179.034 86.7113 179.862 86.7113 182.742C86.7113 183.84 86.3693 184.416 85.2893 184.416H79.6013C79.6013 185.964 79.8713 187.458 81.7973 187.458H86.4593V188.682ZM79.6013 183.192H84.6953C85.0553 183.192 85.1273 182.922 85.1273 182.706V182.634C85.1273 180.834 83.9933 180.258 82.3913 180.258C80.4293 180.258 79.6013 181.014 79.6013 183.192ZM96.3206 188.682H91.3346C88.4906 188.682 87.8966 186.828 87.8966 183.948C87.8966 180.438 89.0126 179.034 92.2346 179.034C94.7726 179.034 96.5726 179.862 96.5726 182.742C96.5726 183.84 96.2306 184.416 95.1506 184.416H89.4626C89.4626 185.964 89.7326 187.458 91.6586 187.458H96.3206V188.682ZM89.4626 183.192H94.5566C94.9166 183.192 94.9886 182.922 94.9886 182.706V182.634C94.9886 180.834 93.8546 180.258 92.2526 180.258C90.2906 180.258 89.4626 181.014 89.4626 183.192ZM106.434 188.682H104.49L100.944 185.19C100.656 184.902 100.26 184.362 100.26 183.75C100.26 183.12 100.62 182.688 100.962 182.346L104.13 179.142H105.984L102.114 183.012C101.952 183.174 101.79 183.39 101.79 183.696C101.79 184.038 102.042 184.344 102.276 184.578L106.434 188.682ZM99.5759 188.682H98.0639V176.082H99.5759V188.682ZM113.192 188.682H111.518V177.774C111.518 176.478 112.13 176.082 113.21 176.082H118.988C121.526 176.082 122.21 177.558 122.21 179.934C122.21 182.418 121.526 183.876 118.988 183.876H113.192V188.682ZM113.192 182.508H118.394C120.176 182.508 120.464 181.608 120.464 179.934C120.464 178.314 120.14 177.45 118.394 177.45H114.002C113.282 177.45 113.192 177.702 113.192 178.278V182.508ZM123.394 188.682V182.58C123.394 180.222 124.546 179.142 126.904 179.142H127.948V180.366H127.174C125.518 180.366 124.906 181.212 124.906 182.958V188.682H123.394ZM133.082 179.034C136.502 179.034 137.978 180.276 137.978 183.876C137.978 187.494 136.502 188.79 133.082 188.79C129.662 188.79 128.186 187.494 128.186 183.876C128.186 180.276 129.662 179.034 133.082 179.034ZM129.77 183.876C129.77 186.576 130.652 187.566 133.082 187.566C135.512 187.566 136.394 186.576 136.394 183.876C136.394 181.176 135.512 180.258 133.082 180.258C130.652 180.258 129.77 181.176 129.77 183.876ZM146.228 188.682H143.132C139.982 188.682 139.172 186.972 139.172 183.912C139.172 180.942 139.982 179.142 143.132 179.142H145.346C146.84 179.142 147.758 179.358 147.758 180.798V187.764C147.758 190.392 146.804 191.778 143.816 191.778H139.838V190.554H143.816C145.094 190.554 146.084 190.014 146.228 188.682ZM146.246 187.458V181.014C146.246 180.6 146.048 180.366 145.562 180.366H143.42C141.134 180.366 140.756 181.662 140.756 183.912C140.756 186.252 141.134 187.458 143.42 187.458H146.246ZM149.55 188.682V182.58C149.55 180.222 150.702 179.142 153.06 179.142H154.104V180.366H153.33C151.674 180.366 151.062 181.212 151.062 182.958V188.682H149.55ZM155.062 179.142H160.084C161.776 179.142 162.568 180.186 162.568 181.752V187.242C162.568 188.214 162.19 188.682 161.074 188.682H156.826C155.08 188.682 154.342 187.746 154.342 185.766C154.342 183.876 155.08 182.868 156.826 182.868H161.056V181.734C161.056 180.924 160.66 180.366 159.706 180.366H155.062V179.142ZM161.056 184.092H157.114C156.178 184.092 155.926 184.74 155.926 185.766C155.926 186.792 156.178 187.458 157.114 187.458H160.552C160.894 187.458 161.056 187.26 161.056 186.972V184.092ZM164.369 188.682V180.708C164.369 179.718 164.783 179.142 165.827 179.142H174.359C176.429 179.142 177.581 180.042 177.581 182.238V188.682H176.069V182.508C176.069 181.212 175.601 180.366 174.161 180.366H171.731V188.682H170.219V180.366H166.439C166.079 180.366 165.881 180.492 165.881 180.978V188.682H164.369Z" fill="white"/>
<path d="M167.323 12.2366H160.731V6.11832C160.731 2.74431 157.979 0 154.595 0C151.211 0 148.458 2.74431 148.458 6.11832V12.2366H129.744V6.11832C129.744 2.74431 126.991 0 123.607 0C120.223 0 117.471 2.74431 117.471 6.11832V12.2366H98.7561V6.11832C98.7561 2.74431 96.0037 0 92.6197 0C89.2357 0 86.4833 2.74431 86.4833 6.11832V12.2366H67.7686V6.11832C67.7686 2.74431 65.0161 0 61.6322 0C58.2482 0 55.4958 2.74431 55.4958 6.11832V12.2366H50.5813C45.4466 12.2366 41.2695 17.2596 41.2695 23.4306V134.076C41.2695 140.247 45.4466 145.27 50.5813 145.27H167.323C172.458 145.27 176.635 140.247 176.635 134.076V23.4306C176.635 17.2596 172.457 12.2366 167.323 12.2366ZM155.523 108.92C160.208 109.5 164.952 107.684 169.452 103.534C170.348 102.708 171.171 101.847 171.908 101.001C171.641 108.768 169.135 116.023 164.782 121.558C161.489 125.746 157.438 128.549 153.061 129.738C154.41 127.334 155.373 124.37 155.87 120.972C156.463 116.939 156.322 112.684 155.52 108.917L155.523 108.92ZM153.161 6.11832C153.161 5.34218 153.819 4.68612 154.598 4.68612C155.376 4.68612 156.034 5.34218 156.034 6.11832V23.0411C156.034 23.8172 155.376 24.4733 154.598 24.4733C153.819 24.4733 153.161 23.8172 153.161 23.0411V6.11832ZM122.174 6.11832C122.174 5.34218 122.832 4.68612 123.61 4.68612C124.389 4.68612 125.047 5.34218 125.047 6.11832V23.0411C125.047 23.8172 124.389 24.4733 123.61 24.4733C122.832 24.4733 122.174 23.8172 122.174 23.0411V6.11832ZM91.1862 6.11832C91.1862 5.34218 91.8442 4.68612 92.6226 4.68612C93.401 4.68612 94.059 5.34218 94.059 6.11832V23.0411C94.059 23.8172 93.401 24.4733 92.6226 24.4733C91.8442 24.4733 91.1862 23.8172 91.1862 23.0411V6.11832ZM60.1987 6.11832C60.1987 5.34218 60.8567 4.68612 61.6351 4.68612C62.4135 4.68612 63.0715 5.34218 63.0715 6.11832V23.0411C63.0715 23.8172 62.4135 24.4733 61.6351 24.4733C60.8567 24.4733 60.1987 23.8172 60.1987 23.0411V6.11832ZM50.5843 16.9228H55.4987V23.0411C55.4987 26.4151 58.2511 29.1594 61.6351 29.1594C65.0191 29.1594 67.7715 26.4151 67.7715 23.0411V16.9228H86.4862V23.0411C86.4862 26.4151 89.2386 29.1594 92.6226 29.1594C96.0066 29.1594 98.759 26.4151 98.759 23.0411V16.9228H117.474V23.0411C117.474 26.4151 120.226 29.1594 123.61 29.1594C126.994 29.1594 129.747 26.4151 129.747 23.0411V16.9228H148.461V23.0411C148.461 26.4151 151.214 29.1594 154.598 29.1594C157.982 29.1594 160.734 26.4151 160.734 23.0411V16.9228H167.326C169.826 16.9228 171.938 19.9014 171.938 23.4306V38.6605H45.9695V23.4306C45.9695 19.9043 48.0815 16.9228 50.5813 16.9228H50.5843ZM45.9724 43.3466H171.935V93.0254C171.224 94.2174 169.132 97.4948 166.104 100.239C161.662 104.26 157.262 105.315 153.026 103.373C152.151 102.972 151.117 103.145 150.42 103.809C149.724 104.474 149.504 105.496 149.868 106.387C152.87 113.732 151.872 126.159 146.596 130.394H53.1223C49.2448 130.394 45.9695 125.937 45.9695 120.659V43.3466L45.9724 43.3466ZM171.935 134.076C171.935 137.602 169.823 140.584 167.323 140.584H50.5813C48.0815 140.584 45.9695 137.602 45.9695 134.076V132.146C47.9582 133.985 50.4374 135.078 53.1223 135.078H148.226C158.12 135.078 166.844 128.731 171.935 119.127V134.076ZM116.277 82.0435C124.813 82.0435 128.227 86.4954 128.227 95.3989C128.227 104.106 125.732 109.671 115.948 109.671H106.821C98.6795 109.671 95.1338 105.416 95.1338 97.1011V75.6931C95.1338 68.6879 98.8765 63.8434 106.296 63.8434H125.995V68.8189H108.2C103.801 68.8189 101.24 71.2412 101.24 75.955V82.0435H116.277ZM101.24 97.2974C101.24 102.273 102.816 104.696 108.266 104.696H114.438C120.216 104.696 121.858 101.356 121.858 95.3989C121.858 89.8996 120.085 87.019 113.782 87.019H101.24V97.2974Z" fill="url(#paint0_linear_2098_6711)"/>
<defs>
<linearGradient id="paint0_linear_2098_6711" x1="6.1933" y1="207.976" x2="162.422" y2="-84.7162" gradientUnits="userSpaceOnUse">
<stop stop-color="#07EDC4"/>
<stop offset="1" stop-color="#31E2ED" stop-opacity="0.38"/>
</linearGradient>
</defs>
</svg>
