<svg width="243" height="208" viewBox="0 0 243 208" fill="none" xmlns="http://www.w3.org/2000/svg">
<path d="M52.4543 176.082H54.5783C57.0083 176.082 58.0343 176.856 58.0343 179.556C58.0343 180.906 57.6383 181.986 56.3783 182.256V182.328C58.0343 182.562 58.3043 183.876 58.3043 185.496C58.3043 187.656 57.3503 188.682 55.1003 188.682H51.9323C49.6823 188.682 48.7283 187.656 48.7283 185.496C48.7283 183.876 48.9983 182.616 50.6543 182.328V182.256C49.4303 182.022 48.9983 180.906 48.9983 179.556C48.9983 176.856 50.0243 176.082 52.4543 176.082ZM52.4723 181.626H54.5603C55.8743 181.626 56.2883 180.978 56.2883 179.628C56.2883 178.098 55.9103 177.468 54.3623 177.468H52.6523C51.1043 177.468 50.7443 178.098 50.7443 179.628C50.7443 180.978 51.0683 181.626 52.4723 181.626ZM52.2383 187.314H54.7943C56.1983 187.314 56.5583 186.558 56.5583 185.208C56.5583 183.678 56.0723 182.994 54.6323 182.994H52.4003C50.9603 182.994 50.4743 183.678 50.4743 185.208C50.4743 186.558 50.8343 187.314 52.2383 187.314ZM75.1967 176.082V188.682H73.5227V182.922H66.1607V188.682H64.4867V176.082H66.1607V181.554H73.5227V176.082H75.1967ZM81.8497 179.034C85.2697 179.034 86.7457 180.276 86.7457 183.876C86.7457 187.494 85.2697 188.79 81.8497 188.79C78.4297 188.79 76.9537 187.494 76.9537 183.876C76.9537 180.276 78.4297 179.034 81.8497 179.034ZM78.5377 183.876C78.5377 186.576 79.4197 187.566 81.8497 187.566C84.2797 187.566 85.1617 186.576 85.1617 183.876C85.1617 181.176 84.2797 180.258 81.8497 180.258C79.4197 180.258 78.5377 181.176 78.5377 183.876ZM96.454 179.142V187.116C96.454 188.124 96.04 188.682 94.996 188.682H91.468C89.398 188.682 88.246 187.782 88.246 185.586V179.142H89.758V185.316C89.758 186.612 90.226 187.458 91.666 187.458H94.384C94.744 187.458 94.942 187.332 94.942 186.846V179.142H96.454ZM98.248 188.682V182.58C98.248 180.222 99.4 179.142 101.758 179.142H102.802V180.366H102.028C100.372 180.366 99.76 181.212 99.76 182.958V188.682H98.248ZM103.481 188.682V187.458H108.899C109.691 187.458 110.051 187.044 110.051 186.252C110.051 185.244 109.187 185.064 107.711 184.704L105.965 184.272C104.147 183.822 103.337 183.12 103.337 181.518C103.337 179.916 104.237 179.142 105.911 179.142H111.077V180.366H106.073C105.191 180.366 104.849 180.672 104.849 181.518C104.849 182.58 105.587 182.832 106.631 183.102L108.521 183.588C110.447 184.074 111.635 184.416 111.635 186.27C111.635 187.746 111.095 188.682 109.277 188.682H103.481ZM119.229 188.682H117.555V177.774C117.555 176.478 118.167 176.082 119.247 176.082H125.025C127.563 176.082 128.247 177.558 128.247 179.934C128.247 182.418 127.563 183.876 125.025 183.876H119.229V188.682ZM119.229 182.508H124.431C126.213 182.508 126.501 181.608 126.501 179.934C126.501 178.314 126.177 177.45 124.431 177.45H120.039C119.319 177.45 119.229 177.702 119.229 178.278V182.508ZM137.55 188.682H132.564C129.72 188.682 129.126 186.828 129.126 183.948C129.126 180.438 130.242 179.034 133.464 179.034C136.002 179.034 137.802 179.862 137.802 182.742C137.802 183.84 137.46 184.416 136.38 184.416H130.692C130.692 185.964 130.962 187.458 132.888 187.458H137.55V188.682ZM130.692 183.192H135.786C136.146 183.192 136.218 182.922 136.218 182.706V182.634C136.218 180.834 135.084 180.258 133.482 180.258C131.52 180.258 130.692 181.014 130.692 183.192ZM139.293 188.682V182.58C139.293 180.222 140.445 179.142 142.803 179.142H143.847V180.366H143.073C141.417 180.366 140.805 181.212 140.805 182.958V188.682H139.293ZM153.011 186.72L155.531 177.198C155.657 176.73 155.927 175.938 157.043 175.938C158.087 175.938 158.411 176.694 158.555 177.198L161.075 186.72C161.111 186.882 161.255 187.026 161.381 187.026C161.561 187.026 161.633 186.774 161.669 186.648L164.351 176.082H166.043L163.037 187.422C162.785 188.358 162.389 188.826 161.417 188.826C160.265 188.826 159.959 188.142 159.779 187.44L157.313 178.188C157.277 178.026 157.205 177.846 157.043 177.846C156.881 177.846 156.809 178.026 156.773 178.188L154.289 187.44C154.109 188.142 153.821 188.826 152.669 188.826C151.697 188.826 151.301 188.358 151.049 187.422L148.043 176.082H149.735L152.417 186.648C152.453 186.774 152.489 187.026 152.705 187.026C152.831 187.026 152.975 186.882 153.011 186.72ZM175.061 188.682H170.075C167.231 188.682 166.637 186.828 166.637 183.948C166.637 180.438 167.753 179.034 170.975 179.034C173.513 179.034 175.313 179.862 175.313 182.742C175.313 183.84 174.971 184.416 173.891 184.416H168.203C168.203 185.964 168.473 187.458 170.399 187.458H175.061V188.682ZM168.203 183.192H173.297C173.657 183.192 173.729 182.922 173.729 182.706V182.634C173.729 180.834 172.595 180.258 170.993 180.258C169.031 180.258 168.203 181.014 168.203 183.192ZM184.923 188.682H179.937C177.093 188.682 176.499 186.828 176.499 183.948C176.499 180.438 177.615 179.034 180.837 179.034C183.375 179.034 185.175 179.862 185.175 182.742C185.175 183.84 184.833 184.416 183.753 184.416H178.065C178.065 185.964 178.335 187.458 180.261 187.458H184.923V188.682ZM178.065 183.192H183.159C183.519 183.192 183.591 182.922 183.591 182.706V182.634C183.591 180.834 182.457 180.258 180.855 180.258C178.893 180.258 178.065 181.014 178.065 183.192ZM195.036 188.682H193.092L189.546 185.19C189.258 184.902 188.862 184.362 188.862 183.75C188.862 183.12 189.222 182.688 189.564 182.346L192.732 179.142H194.586L190.716 183.012C190.554 183.174 190.392 183.39 190.392 183.696C190.392 184.038 190.644 184.344 190.878 184.578L195.036 188.682ZM188.178 188.682H186.666V176.082H188.178V188.682Z" fill="white"/>
<path d="M120.506 18.1587C118.359 18.1587 116.615 19.9065 116.615 22.0499V24.644C116.615 26.7906 118.359 28.5351 120.506 28.5351C122.649 28.5351 124.397 26.7906 124.397 24.644V22.0499C124.397 19.9065 122.649 18.1587 120.506 18.1587ZM72.5151 68.7438H69.921C67.7744 68.7438 66.0298 70.4915 66.0298 72.6349C66.0298 74.7815 67.7744 76.5261 69.921 76.5261H72.5151C74.6585 76.5261 76.4062 74.7815 76.4062 72.6349C76.4062 70.4915 74.6585 68.7438 72.5151 68.7438ZM171.091 68.7438H168.497C166.35 68.7438 164.606 70.4915 164.606 72.6349C164.606 74.7815 166.35 76.5261 168.497 76.5261H171.091C173.234 76.5261 174.982 74.7815 174.982 72.6349C174.982 70.4915 173.234 68.7438 171.091 68.7438ZM120.506 42.8042C118.359 42.8042 116.615 44.5519 116.615 46.6953V68.4339L92.1265 43.9455C91.3904 43.2095 90.4144 42.8042 89.3768 42.8042C88.3391 42.8042 87.3599 43.2095 86.6238 43.9455C85.8877 44.6816 85.4824 45.6576 85.4824 46.6985C85.4824 47.7362 85.8877 48.7122 86.6238 49.4483L117.753 80.5775C118.489 81.3136 119.472 81.7189 120.513 81.7189C121.025 81.7189 121.524 81.6184 121.998 81.4206C123.457 80.8207 124.397 79.4102 124.397 77.8246V46.6953C124.397 44.5519 122.649 42.8042 120.506 42.8042ZM120.506 116.735C118.359 116.735 116.615 118.482 116.615 120.626V123.22C116.615 125.367 118.359 127.111 120.506 127.111C122.649 127.111 124.397 125.367 124.397 123.22V120.626C124.397 118.482 122.649 116.735 120.506 116.735ZM171.091 68.7438H168.497C166.35 68.7438 164.606 70.4915 164.606 72.6349C164.606 74.7815 166.35 76.5261 168.497 76.5261H171.091C173.234 76.5261 174.982 74.7815 174.982 72.6349C174.982 70.4915 173.234 68.7438 171.091 68.7438ZM120.506 116.735C118.359 116.735 116.615 118.482 116.615 120.626V123.22C116.615 125.367 118.359 127.111 120.506 127.111C122.649 127.111 124.397 125.367 124.397 123.22V120.626C124.397 118.482 122.649 116.735 120.506 116.735ZM120.506 18.1587C118.359 18.1587 116.615 19.9065 116.615 22.0499V24.644C116.615 26.7906 118.359 28.5351 120.506 28.5351C122.649 28.5351 124.397 26.7906 124.397 24.644V22.0499C124.397 19.9065 122.649 18.1587 120.506 18.1587ZM72.5151 68.7438H69.921C67.7744 68.7438 66.0298 70.4915 66.0298 72.6349C66.0298 74.7815 67.7744 76.5261 69.921 76.5261H72.5151C74.6585 76.5261 76.4062 74.7815 76.4062 72.6349C76.4062 70.4915 74.6585 68.7438 72.5151 68.7438ZM171.091 68.7438H168.497C166.35 68.7438 164.606 70.4915 164.606 72.6349C164.606 74.7815 166.35 76.5261 168.497 76.5261H171.091C173.234 76.5261 174.982 74.7815 174.982 72.6349C174.982 70.4915 173.234 68.7438 171.091 68.7438ZM120.506 116.735C118.359 116.735 116.615 118.482 116.615 120.626V123.22C116.615 125.367 118.359 127.111 120.506 127.111C122.649 127.111 124.397 125.367 124.397 123.22V120.626C124.397 118.482 122.649 116.735 120.506 116.735ZM120.506 18.1587C118.359 18.1587 116.615 19.9065 116.615 22.0499V24.644C116.615 26.7906 118.359 28.5351 120.506 28.5351C122.649 28.5351 124.397 26.7906 124.397 24.644V22.0499C124.397 19.9065 122.649 18.1587 120.506 18.1587ZM72.5151 68.7438H69.921C67.7744 68.7438 66.0298 70.4915 66.0298 72.6349C66.0298 74.7815 67.7744 76.5261 69.921 76.5261H72.5151C74.6585 76.5261 76.4062 74.7815 76.4062 72.6349C76.4062 70.4915 74.6585 68.7438 72.5151 68.7438Z" fill="url(#paint0_linear_2098_6714)"/>
<path d="M120.506 0C80.4531 0 47.8711 32.5819 47.8711 72.6349C47.8711 112.688 80.4531 145.27 120.506 145.27C160.559 145.27 193.141 112.688 193.141 72.6349C193.141 32.5819 160.559 0 120.506 0ZM120.506 139.945C83.3909 139.945 53.1955 109.75 53.1955 72.6349C53.1955 35.5197 83.3909 5.32762 120.506 5.32762C157.621 5.32762 187.813 35.5197 187.813 72.6349C187.813 109.75 157.621 139.945 120.506 139.945Z" fill="url(#paint1_linear_2098_6714)"/>
<defs>
<linearGradient id="paint0_linear_2098_6714" x1="10.2283" y1="207.976" x2="160.184" y2="-93.5215" gradientUnits="userSpaceOnUse">
<stop stop-color="#07EDC4"/>
<stop offset="1" stop-color="#31E2ED" stop-opacity="0.38"/>
</linearGradient>
<linearGradient id="paint1_linear_2098_6714" x1="10.2283" y1="207.976" x2="160.184" y2="-93.5215" gradientUnits="userSpaceOnUse">
<stop stop-color="#07EDC4"/>
<stop offset="1" stop-color="#31E2ED" stop-opacity="0.38"/>
</linearGradient>
</defs>
</svg>
