<svg width="214" height="211" viewBox="0 0 214 211" fill="none" xmlns="http://www.w3.org/2000/svg">
<path d="M56.9542 189.723H51.8062C47.5942 189.723 46.5502 186.915 46.5502 183.405C46.5502 179.895 47.5762 177.123 51.8962 177.123H56.7742V178.491H52.4542C49.3042 178.491 48.2962 179.985 48.2962 183.405C48.2962 186.825 49.2682 188.355 52.3642 188.355H56.9542V189.723ZM62.5505 180.075C65.9705 180.075 67.4465 181.317 67.4465 184.917C67.4465 188.535 65.9705 189.831 62.5505 189.831C59.1305 189.831 57.6545 188.535 57.6545 184.917C57.6545 181.317 59.1305 180.075 62.5505 180.075ZM59.2385 184.917C59.2385 187.617 60.1205 188.607 62.5505 188.607C64.9805 188.607 65.8625 187.617 65.8625 184.917C65.8625 182.217 64.9805 181.299 62.5505 181.299C60.1205 181.299 59.2385 182.217 59.2385 184.917ZM68.9469 189.723V177.123H70.4589V180.183H73.7349C75.8409 180.183 77.0469 181.083 77.0469 183.423V189.723H75.5349V183.621C75.5349 182.181 74.9769 181.407 73.5369 181.407H70.4589V189.723H68.9469ZM83.4334 180.075C86.8534 180.075 88.3294 181.317 88.3294 184.917C88.3294 188.535 86.8534 189.831 83.4334 189.831C80.0134 189.831 78.5374 188.535 78.5374 184.917C78.5374 181.317 80.0134 180.075 83.4334 180.075ZM80.1214 184.917C80.1214 187.617 81.0034 188.607 83.4334 188.607C85.8634 188.607 86.7454 187.617 86.7454 184.917C86.7454 182.217 85.8634 181.299 83.4334 181.299C81.0034 181.299 80.1214 182.217 80.1214 184.917ZM89.8297 189.723V183.621C89.8297 181.263 90.9817 180.183 93.3397 180.183H94.3837V181.407H93.6097C91.9537 181.407 91.3417 182.253 91.3417 183.999V189.723H89.8297ZM100.752 189.723H99.6176C97.2416 189.723 96.5756 188.589 96.5756 186.663V181.407H95.1716V180.183H96.5756V177.123H98.0876V180.183H100.752V181.407H98.0876V186.573C98.0876 188.049 98.6636 188.499 100.122 188.499H100.752V189.723ZM105.841 185.511V184.143H111.745V185.511H105.841ZM119.6 184.053V187.419C119.6 188.121 119.708 188.355 120.428 188.355H125C126.404 188.355 126.836 187.707 126.836 186.213C126.836 184.917 126.494 184.053 125.144 184.053H119.6ZM119.6 179.301V182.685H124.946C126.35 182.685 126.656 182.037 126.656 180.525C126.656 179.301 126.35 178.491 125.072 178.491H120.41C119.816 178.491 119.6 178.671 119.6 179.301ZM126.674 183.369C128.042 183.549 128.564 184.431 128.564 186.285C128.564 188.139 128.06 189.723 125.828 189.723H119.708C118.682 189.723 117.926 189.381 117.926 187.977V178.905C117.926 177.735 118.502 177.123 119.582 177.123H125.702C127.61 177.123 128.402 178.347 128.402 180.543C128.402 181.929 128.042 183.099 126.674 183.297V183.369ZM130.779 180.183H135.801C137.493 180.183 138.285 181.227 138.285 182.793V188.283C138.285 189.255 137.907 189.723 136.791 189.723H132.543C130.797 189.723 130.059 188.787 130.059 186.807C130.059 184.917 130.797 183.909 132.543 183.909H136.773V182.775C136.773 181.965 136.377 181.407 135.423 181.407H130.779V180.183ZM136.773 185.133H132.831C131.895 185.133 131.643 185.781 131.643 186.807C131.643 187.833 131.895 188.499 132.831 188.499H136.269C136.611 188.499 136.773 188.301 136.773 188.013V185.133ZM139.87 189.723V188.499H145.288C146.08 188.499 146.44 188.085 146.44 187.293C146.44 186.285 145.576 186.105 144.1 185.745L142.354 185.313C140.536 184.863 139.726 184.161 139.726 182.559C139.726 180.957 140.626 180.183 142.3 180.183H147.466V181.407H142.462C141.58 181.407 141.238 181.713 141.238 182.559C141.238 183.621 141.976 183.873 143.02 184.143L144.91 184.629C146.836 185.115 148.024 185.457 148.024 187.311C148.024 188.787 147.484 189.723 145.666 189.723H139.87ZM157.59 189.723H152.604C149.76 189.723 149.166 187.869 149.166 184.989C149.166 181.479 150.282 180.075 153.504 180.075C156.042 180.075 157.842 180.903 157.842 183.783C157.842 184.881 157.5 185.457 156.42 185.457H150.732C150.732 187.005 151.002 188.499 152.928 188.499H157.59V189.723ZM150.732 184.233H155.826C156.186 184.233 156.258 183.963 156.258 183.747V183.675C156.258 181.875 155.124 181.299 153.522 181.299C151.56 181.299 150.732 182.055 150.732 184.233ZM165.904 189.723H162.988C159.838 189.723 159.028 188.013 159.028 184.953C159.028 181.983 159.838 180.183 162.988 180.183H165.85V177.123H167.362V188.229C167.362 189.165 167.002 189.723 165.904 189.723ZM165.85 181.425H163.276C160.99 181.425 160.612 182.703 160.612 184.953C160.612 187.293 160.99 188.499 163.276 188.499H165.22C165.724 188.499 165.85 188.301 165.85 187.815V181.425Z" fill="white"/>
<path d="M171.152 105.224C170.644 104.143 169.346 103.673 168.251 104.174C167.157 104.676 166.681 105.96 167.189 107.041C170.738 114.609 170.375 123.453 166.218 130.698C165.36 132.192 164.371 133.566 163.278 134.821C159.961 128.145 155.043 124.074 151.296 121.767C153.034 119.532 153.965 116.74 153.863 113.874C153.623 107.132 147.892 101.836 141.062 102.078C134.243 102.316 128.891 107.994 129.131 114.736C129.233 117.578 130.343 120.275 132.206 122.376C128.395 124.871 124.783 128.052 122.244 133.011C116.495 125.068 115.549 114.22 120.736 105.182C127.852 92.784 143.842 88.4218 156.381 95.4554C158.792 96.8089 160.953 98.5112 162.803 100.516C163.616 101.397 164.997 101.46 165.888 100.656C166.779 99.8518 166.843 98.4862 166.03 97.6048C163.87 95.2642 161.349 93.2771 158.536 91.6993C149.882 86.8434 139.82 86.6426 131.324 90.2799L121.772 72.2033L130.134 57.6324C134.329 59.6118 138.79 60.56 143.203 60.5596C153.837 60.5585 164.183 55.0631 169.794 45.2842C173.817 38.2752 174.838 30.137 172.67 22.3684C170.502 14.5998 165.403 8.13116 158.314 4.15399C152.888 1.10963 146.747 -0.208623 140.554 0.340192C139.353 0.446651 138.466 1.49619 138.574 2.68413C138.682 3.87206 139.743 4.752 140.945 4.64187C146.246 4.17235 151.508 5.30118 156.159 7.91016C168.698 14.9453 173.111 30.7552 165.995 43.1529C164.979 44.9237 163.777 46.5244 162.434 47.9575C159.38 41.2383 154.665 37.0205 151.036 34.587C152.859 32.4207 153.9 29.6667 153.91 26.7978C153.934 20.052 148.403 14.5451 141.58 14.5213H141.536C134.734 14.5213 129.187 19.9815 129.163 26.7119C129.153 29.5654 130.163 32.3117 131.953 34.4853C128.377 36.725 124.733 39.9162 121.955 45.3755C116.265 37.4406 115.347 26.6402 120.514 17.6365C123.389 12.627 127.739 8.80148 133.094 6.57318C134.205 6.11064 134.728 4.84451 134.26 3.74504C133.792 2.64631 132.512 2.1287 131.399 2.59235C125.148 5.19362 120.07 9.65866 116.715 15.5051C108.774 29.3418 113.144 46.8135 126.339 55.4948L117.973 70.0718L97.295 71.24C96.0909 62.1698 90.7576 53.7403 82.1089 48.8881C67.4756 40.6779 48.8135 45.7696 40.5097 60.2388C37.0604 66.2486 35.7973 73.3046 36.952 80.107C38.09 86.8102 41.5132 92.9951 46.5914 97.5222C47.4873 98.3206 48.8689 98.2502 49.676 97.3644C50.4836 96.4785 50.4123 95.1133 49.5164 94.3145C49.4782 94.2804 49.4424 94.2445 49.4045 94.2102C52.2772 86.9791 56.6325 83.781 60.5307 81.6106C61.1849 81.2461 61.6041 80.5754 61.6408 79.8339C61.6772 79.0923 61.326 78.3846 60.7107 77.9591C58.6026 76.5017 57.3216 74.1189 57.2837 71.5848C57.2188 67.221 60.7568 63.6183 65.1703 63.5541C67.2959 63.5155 69.3309 64.3165 70.8647 65.7894C72.3989 67.2622 73.261 69.2372 73.2926 71.3513C73.3305 73.8854 72.1212 76.3046 70.0576 77.8229C69.4553 78.266 69.1256 78.9837 69.1839 79.7237C69.2426 80.4638 69.6814 81.1224 70.3464 81.4675C73.7036 83.2097 79.8377 87.34 83.2019 95.4242C83.2091 95.4413 83.2192 95.4561 83.2267 95.4729C75.7782 101.305 65.4772 102.808 56.2879 98.6911C55.1889 98.1984 53.895 98.6804 53.3971 99.7667C52.8992 100.853 53.3863 102.133 54.485 102.625C58.4637 104.407 62.7354 105.306 67.0275 105.306C70.1849 105.306 73.3542 104.819 76.4237 103.84C83.7113 101.516 89.8075 96.6074 93.5891 90.018C96.2142 85.4439 97.4911 80.4721 97.5525 75.5515L118.002 74.3962L127.45 92.2749C123.216 94.8504 119.559 98.4814 116.937 103.05C108.633 117.519 113.783 135.97 128.417 144.18C133.16 146.841 138.326 148.105 143.425 148.105C154.06 148.105 164.404 142.609 170.017 132.829C174.869 124.374 175.293 114.055 171.152 105.224ZM125.076 48.9794C128.042 42.1006 132.548 38.9667 136.593 36.8101C137.254 36.4577 137.685 35.7943 137.735 35.0535C137.785 34.3127 137.448 33.5987 136.84 33.1622C134.759 31.6674 133.522 29.2618 133.532 26.7273C133.547 22.3724 137.135 18.8402 141.537 18.8402C141.546 18.8402 141.556 18.8402 141.565 18.8406C143.703 18.8479 145.71 19.6779 147.217 21.1783C148.724 22.6782 149.549 24.6686 149.542 26.7824C149.533 29.3176 148.279 31.7144 146.188 33.1945C145.578 33.6266 145.234 34.3384 145.279 35.0792C145.324 35.8204 145.751 36.4867 146.409 36.8439C149.733 38.6463 155.788 42.8852 159.003 51.025C150.93 57.0306 139.69 58.1138 130.357 52.8819C130.355 52.8808 130.353 52.8795 130.351 52.8784C130.349 52.8773 130.347 52.8766 130.345 52.8755C128.386 51.7755 126.625 50.4613 125.076 48.9794ZM89.7901 87.8866C88.8622 89.5031 87.7833 90.9797 86.588 92.3187C83.4108 85.6379 78.6099 81.4977 74.9304 79.1268C76.7137 76.9279 77.7031 74.1559 77.6604 71.2874C77.6114 68.0199 76.2789 64.967 73.9075 62.6907C71.5813 60.4572 68.529 59.234 65.2936 59.234C65.2312 59.234 65.1684 59.2348 65.1057 59.2355C58.284 59.3346 52.8157 64.9032 52.9159 71.6486C52.9586 74.5039 54.0209 77.2341 55.8539 79.3761C52.3885 81.6654 48.8575 84.9652 46.1764 90.6908C40.0492 82.6118 39.1325 71.3899 44.3087 62.3702C51.4241 49.9732 67.4129 45.6099 79.9531 52.6442C92.4923 59.6793 96.9051 75.4889 89.7901 87.8866ZM130.573 140.424C128.645 139.342 126.911 138.052 125.38 136.6C128.069 130.157 132.739 127 136.951 124.541C137.598 124.164 138.003 123.485 138.024 122.743C138.045 122 137.679 121.3 137.055 120.887C134.918 119.473 133.587 117.116 133.497 114.584C133.342 110.222 136.804 106.548 141.215 106.395C145.627 106.232 149.342 109.664 149.498 114.026C149.588 116.559 148.429 119.002 146.398 120.561C145.805 121.016 145.489 121.741 145.563 122.479C145.637 123.218 146.09 123.868 146.761 124.199C150.154 125.873 156.372 129.878 159.904 137.893C159.92 137.93 159.94 137.965 159.958 138C151.842 144.503 140.194 145.821 130.573 140.424Z" fill="url(#paint0_linear_2098_6708)"/>
<defs>
<linearGradient id="paint0_linear_2098_6708" x1="0.919409" y1="211.941" x2="160.19" y2="-85.681" gradientUnits="userSpaceOnUse">
<stop stop-color="#07EDC4"/>
<stop offset="1" stop-color="#31E2ED" stop-opacity="0.38"/>
</linearGradient>
</defs>
</svg>
