<svg width="1384" height="246" viewBox="0 0 1384 246" fill="none" xmlns="http://www.w3.org/2000/svg">
<g opacity="0.6">
<g opacity="0.16">
<mask id="mask0_2098_6545" style="mask-type:luminance" maskUnits="userSpaceOnUse" x="0" y="0" width="1384" height="246">
<path d="M1384 0H0V246H1384V0Z" fill="white"/>
</mask>
<g mask="url(#mask0_2098_6545)">
<path d="M267.688 248.955L617.673 -2.94922" stroke="white" stroke-miterlimit="10"/>
<path d="M555.559 248.955L671.815 -2.94922" stroke="white" stroke-miterlimit="10"/>
<path d="M-98.9258 284.379L542.125 -2.94922" stroke="white" stroke-miterlimit="10"/>
<path d="M-420.621 248.955L464.216 -2.94922" stroke="white" stroke-miterlimit="10"/>
<path d="M-1428.17 248.955L386.713 -2.94922" stroke="white" stroke-miterlimit="10"/>
<path d="M-1703.13 158.427L205.038 -2.94922" stroke="white" stroke-miterlimit="10"/>
<path d="M1116.32 248.955L766.316 -2.94922" stroke="url(#paint0_linear_2098_6545)" stroke-miterlimit="10"/>
<path d="M828.447 248.955L712.191 -2.94922" stroke="white" stroke-miterlimit="10"/>
<path d="M1482.93 284.379L841.863 -2.94922" stroke="white" stroke-miterlimit="10"/>
<path d="M1804.63 248.955L919.789 -2.94922" stroke="white" stroke-miterlimit="10"/>
<path d="M2812.18 248.955L997.297 -2.94922" stroke="white" stroke-miterlimit="10"/>
<path d="M3087.14 158.427L1178.97 -2.94922" stroke="white" stroke-miterlimit="10"/>
<path d="M-93.1875 3.77734H1477.19" stroke="white" stroke-miterlimit="10"/>
<path d="M-93.1875 -0.0820312H1477.19" stroke="white" stroke-miterlimit="10"/>
<path d="M-93.1875 8.20508H1477.19" stroke="white" stroke-miterlimit="10"/>
<path d="M-93.1875 12.6328H1477.19" stroke="white" stroke-miterlimit="10"/>
<path d="M-93.1875 17.0605H1477.19" stroke="white" stroke-miterlimit="10"/>
<path d="M-93.1875 23.6152H1477.19" stroke="white" stroke-miterlimit="10"/>
<path d="M-93.1875 30.1777H1477.19" stroke="white" stroke-miterlimit="10"/>
<path d="M-93.1875 36.7402H1477.19" stroke="white" stroke-miterlimit="10"/>
<path d="M-93.1875 47.8887H1477.19" stroke="white" stroke-miterlimit="10"/>
<path d="M-93.1875 59.0391H1477.19" stroke="white" stroke-miterlimit="10"/>
<path d="M-93.1875 73.3066H1477.19" stroke="white" stroke-miterlimit="10"/>
<path d="M-90.5664 89.6309H1479.81" stroke="white" stroke-miterlimit="10"/>
<path d="M-90.5664 108.938H1479.81" stroke="white" stroke-miterlimit="10"/>
<path d="M-90.5664 132.68H1479.81" stroke="white" stroke-miterlimit="10"/>
<path d="M-93.1875 164.492H1477.19" stroke="white" stroke-miterlimit="10"/>
<path d="M-93.1875 207.297H1477.19" stroke="white" stroke-miterlimit="10"/>
</g>
</g>
</g>
<defs>
<linearGradient id="paint0_linear_2098_6545" x1="765.578" y1="123.003" x2="1117.06" y2="123.003" gradientUnits="userSpaceOnUse">
<stop offset="0.5" stop-color="white"/>
<stop offset="1" stop-color="#FFF064"/>
</linearGradient>
</defs>
</svg>
