<svg width="417" height="471" viewBox="0 0 417 471" fill="none" xmlns="http://www.w3.org/2000/svg">
<g opacity="0.39" filter="url(#filter0_d_2098_6637)">
<path d="M14 88.6145L92.977 14L314.414 244.312L87.8623 457.325L14.7521 375.79L164.583 239.95L14 88.6145Z" fill="url(#paint0_linear_2098_6637)"/>
</g>
<path d="M16.0399 225.531C-7.17673 206.279 5.9199 187.83 21.5995 176.34C37.2791 164.85 60.7165 157.583 72.8205 183.923C81.2628 202.295 76.0001 226.117 67.2608 233.114C60.0322 238.901 31.8336 238.627 16.0399 225.531Z" fill="#1A1A1A"/>
<path d="M25.3874 218.679C3.64909 198.344 11.4052 183.808 22.3205 175.81C33.2357 167.811 51.0749 164.647 64.9148 189.714C74.5679 207.198 73.9744 227.599 67.9817 232.584C63.025 236.706 40.1754 232.512 25.3874 218.679Z" stroke="#000914" stroke-width="1.81116" stroke-miterlimit="10"/>
<path d="M16.0386 225.53C3.92613 214.873 1.6882 208.4 3.60668 199.579C7.577 181.322 21.5983 176.34 21.5983 176.34C21.5983 176.34 21.2803 192.511 28.0016 207.317C38.1517 229.677 64.7887 235.116 64.7887 235.116C64.7887 235.116 36.2984 243.357 16.0386 225.53Z" fill="#000914"/>
<path d="M61.4148 238.802C61.4795 244.343 65.9647 248.783 71.4326 248.719C76.9004 248.655 81.2806 244.111 81.2157 238.57C81.1511 233.029 76.6658 228.589 71.198 228.653C65.7299 228.717 61.3499 233.261 61.4148 238.802Z" fill="#FFBE03"/>
<path d="M170.568 310.798L179.868 310.69C197.578 310.482 171.731 296.852 167.664 281.85L170.568 310.798Z" fill="#F8812F"/>
<path d="M49.8714 302.129C50.2624 335.554 105.157 356.764 137.614 364.762C157.921 369.765 172.228 358.247 170.916 300.713C170.154 267.294 155.51 233.736 110.064 234.268C76.6384 234.659 49.4806 268.703 49.8714 302.129Z" fill="#F8A871"/>
<path d="M108.317 397.748L111.898 358.957L90.7503 315.939L49.0312 402.958L108.317 397.748Z" fill="#F88371"/>
<path d="M111.437 403.694L114.028 309.606L78.7404 301.76L51.1875 414.672L111.437 403.694Z" fill="#FB6F4D"/>
<path d="M178.177 465.816C173.124 437.374 160.367 415.995 132.686 399.711C84.3641 371.285 35.4274 374.203 7.82619 456.697L4.58203 465.728L178.177 465.816Z" fill="#00A393"/>
<path d="M70.9747 465.827C69.4272 461.425 67.6829 457.177 65.7277 453.106C54.1354 428.97 106.316 400.832 115.45 390.987C115.45 390.987 103.311 386.656 102.327 386.386C64.7282 376.03 29.624 391.549 7.82619 456.697L4.58203 465.728L70.9747 465.827Z" fill="#007367"/>
<path d="M48.0574 321.347C94.8655 372.228 133.091 287.417 133.091 287.417C152.092 283.119 172.453 268.198 164.675 256.978C145.632 229.505 98.9141 217.664 63.9278 241.833C40.4126 258.077 22.0641 293.092 48.0574 321.347Z" fill="#1A1A1A"/>
<path d="M48.0586 321.347C62.849 337.424 76.7827 339.953 88.9243 335.891C86.6224 335.047 59.0789 324.391 51.6313 294.487C44.4623 265.701 62.1162 243.984 63.929 241.832C43.0878 256.898 32.2136 279.411 36.2259 299.095C37.7698 306.669 41.5048 314.223 48.0586 321.347Z" fill="#000914"/>
<path d="M110.206 294.098C106.096 298.268 106.817 305.643 111.816 310.571C116.816 315.499 124.201 316.114 128.311 311.944C132.421 307.774 131.7 300.398 126.701 295.47C121.701 290.543 114.316 289.928 110.206 294.098Z" fill="#F8A871"/>
<path d="M159.037 293.845C162.926 293.8 166.063 292.418 166.043 290.759C166.024 289.1 162.856 287.791 158.967 287.837C155.078 287.883 151.942 289.264 151.961 290.924C151.98 292.583 155.149 293.891 159.037 293.845Z" fill="#162542"/>
<path d="M142.219 465.827C142.89 442.91 146.125 423.434 155.891 423.434C165.642 423.434 180.186 442.853 192.948 465.727L142.219 465.827Z" fill="#007367"/>
<path d="M144.345 317.644C144.42 324.127 150.051 329.318 156.92 329.237C163.79 329.157 169.298 323.836 169.222 317.353C169.146 310.869 163.515 305.678 156.646 305.759C149.776 305.839 144.269 311.16 144.345 317.644Z" fill="#FB6F4D"/>
<path d="M167.766 338.314C166.972 338.269 166.12 338.167 165.224 337.981C161.889 337.29 159.538 335.777 158.312 334.855" stroke="#C63700" stroke-width="2.18628" stroke-miterlimit="10" stroke-linecap="round"/>
<path d="M160.067 250.219C157.025 255.236 152.87 260.733 147.179 265.865C125.237 285.655 96.987 285.128 88.3242 284.625" stroke="#000914" stroke-width="1.62619" stroke-miterlimit="10"/>
<path d="M164.674 256.979C161.633 261.996 157.477 267.493 151.787 272.625C149.739 274.472 147.636 276.142 145.5 277.651" stroke="#000914" stroke-width="1.62619" stroke-miterlimit="10"/>
<path d="M74.9531 423.848C74.9531 423.848 114.152 395.575 134.164 402.166" stroke="#FFEF72" stroke-width="3.03774" stroke-miterlimit="10"/>
<path d="M51.9297 465.826C57.4656 449.116 66.0083 432.776 75.3611 423.434" stroke="#FFEF72" stroke-width="3.03774" stroke-miterlimit="10"/>
<path d="M365.117 330.613C387.263 308.467 387.263 272.561 365.117 250.415C342.971 228.269 307.065 228.269 284.919 250.415C262.773 272.561 262.773 308.467 284.919 330.613C307.065 352.759 342.971 352.759 365.117 330.613Z" fill="#1A1A1A"/>
<path d="M289.458 257.119C282.628 252.871 279.034 246.379 285.171 241.18C285.36 241.02 285.532 240.883 285.685 240.774C298.83 231.339 320.677 226.949 341.368 233.109C341.704 233.209 342.039 233.324 342.366 233.449C349.676 236.242 356.345 239.749 362.344 244.005C384.601 261.033 400.83 294.642 375.509 321.797C354.495 344.333 333.19 338.66 325.506 325.587C323.114 321.517 326.373 319.172 329.28 315.451C343.772 296.897 322.511 277.677 289.458 257.119Z" fill="white"/>
<path d="M243.715 465.817C249.05 438.545 261.855 417.898 288.767 402.066C337.089 373.64 386.026 376.559 413.627 459.052L416.057 465.817L243.715 465.817Z" fill="#1A1A1A"/>
<path d="M279.16 465.826C278.337 443.947 274.996 425.791 265.567 425.791C256.152 425.791 242.269 443.894 229.836 465.731L279.16 465.826Z" fill="black"/>
<path d="M306.254 353.663C306.254 353.663 306.988 363.048 309.506 388.976C312.566 420.496 354.736 426.78 354.335 396.244C353.934 365.709 353.282 337.959 353.282 337.959C346.849 309.249 317.787 326.649 306.254 353.663Z" fill="#1A1A1A"/>
<path d="M274.352 465.817C278.738 443.393 292.922 417.321 315.05 404.304C348.337 384.723 370.397 389.615 390.024 431.605C393.824 439.734 400.867 465.818 400.867 465.818L274.352 465.817Z" fill="white"/>
<path d="M349.16 424.914C359.957 431.465 358.921 420.625 365.427 419.551C375.627 417.867 385.025 455.38 388.417 465.817" stroke="#000914" stroke-width="1.62619" stroke-miterlimit="10"/>
<path d="M362.443 465.816C359.102 455.074 349.084 447.275 337.243 447.275C325.403 447.275 315.384 455.074 312.043 465.816H362.443Z" fill="#1A1A1A"/>
<path d="M308.552 256.076C357.347 255.576 311.041 289.532 341.951 297.878C353.605 301.025 344.016 325.729 358.107 331.718C364.972 334.635 376.078 319.916 379.997 304.405C387.669 274.04 369.272 243.205 338.907 235.533C325.017 232.024 311.28 234.49 299.203 240.02C283.476 247.222 289.967 256.266 308.552 256.076Z" fill="#E3E3E3"/>
<path d="M334.528 456.547C336.058 444.011 323.198 445.94 319.543 440.453C313.988 432.113 322.765 426.846 334.69 424.566" stroke="black" stroke-width="1.62619" stroke-miterlimit="10"/>
<path d="M253.075 310.425L243.776 310.254C228.03 309.964 246.792 299.293 254.074 286.404" fill="#E3E3E3"/>
<path d="M321.67 401.095C321.702 401.698 322.524 403.752 322.994 404.131C336.414 414.942 354.613 409.254 354.332 387.837C354.124 371.993 353.822 366.964 353.579 357.701C353.278 346.211 347.851 333.158 341.086 333.158C334.32 333.158 319.033 352.171 321.67 401.095Z" fill="white"/>
<path d="M299.437 290.908C303.474 287.067 304.286 284.214 300.238 282.513C299.246 282.096 298.137 281.712 296.897 281.383C284.801 278.167 277.363 270.361 277.865 260.343C278.177 254.13 273.934 250.642 268.03 254.518C261.079 259.083 256.397 275.807 256.397 275.807C254.155 283.629 253.04 291.985 252.794 300.339C251.095 357.863 265.324 369.477 285.664 364.61C291.525 363.207 300.906 358.828 308.992 355.469C312.69 353.933 314.835 350.046 314.178 346.096L311.027 327.17C310.37 323.449 307.38 322.743 302.432 319.589C293.633 313.978 291.052 298.887 299.437 290.908Z" fill="white"/>
<path d="M269.016 292.606C265.128 292.535 262.001 291.132 262.031 289.473C262.062 287.814 265.239 286.527 269.127 286.599C273.015 286.67 276.143 288.073 276.112 289.732C276.081 291.391 272.905 292.678 269.016 292.606Z" fill="#1A1A1A"/>
<path d="M255.691 337.959C256.485 337.92 257.338 337.823 258.235 337.644C261.575 336.975 263.936 335.477 265.168 334.564" stroke="#000914" stroke-width="1.62619" stroke-miterlimit="10"/>
<path d="M317.828 318.988C326.19 316.62 331.049 307.921 328.681 299.559C326.312 291.196 317.613 286.337 309.251 288.706C300.888 291.074 296.029 299.773 298.398 308.136C300.766 316.498 309.465 321.357 317.828 318.988Z" stroke="white" stroke-width="1.62619" stroke-miterlimit="10"/>
<path d="M353.453 465.472C350.919 461.224 347.075 458.444 341.901 457.137C333.492 455.012 325.338 458.47 321.039 465.498" stroke="white" stroke-width="1.62619" stroke-miterlimit="10"/>
<path d="M317.787 276.635C310.497 275.489 303.311 277.346 297.617 281.378" stroke="white" stroke-width="1.62619" stroke-miterlimit="10"/>
<path d="M327.036 327.854C333.386 324.283 338.316 318.214 340.242 310.593C343.967 295.847 335.033 280.872 320.287 277.147C319.453 276.936 318.618 276.766 317.785 276.635" stroke="#000914" stroke-width="1.62619" stroke-miterlimit="10"/>
<path d="M311.719 331.331C317.166 331.699 322.468 330.422 327.036 327.854" stroke="white" stroke-width="1.62619" stroke-miterlimit="10"/>
<path d="M297.618 281.377C292.452 285.035 288.514 290.482 286.842 297.1C283.116 311.847 292.05 326.821 306.797 330.547C308.441 330.962 310.087 331.22 311.721 331.331" stroke="#000914" stroke-width="1.62619" stroke-miterlimit="10"/>
<path d="M364.614 286.122C371.102 282.197 373.179 273.756 369.254 267.268C365.329 260.78 356.888 258.702 350.4 262.627C343.912 266.552 341.834 274.994 345.759 281.482C349.684 287.97 358.126 290.048 364.614 286.122Z" fill="#1A1A1A"/>
<path d="M344.168 324.137C332.285 332.713 313.125 349.643 318.893 405.272" stroke="white" stroke-width="1.62619" stroke-miterlimit="10"/>
<path d="M351.752 286.84C351.55 292.83 361.674 291.487 361.264 299.672C360.969 305.563 351.731 316.295 344.172 324.137" stroke="#000914" stroke-width="1.62619" stroke-miterlimit="10"/>
<path d="M353.673 281.523C352.358 283.79 351.795 285.499 351.75 286.84" stroke="white" stroke-width="1.62619" stroke-miterlimit="10"/>
<path d="M346.848 264.74C348.097 265.269 349.496 266.44 351.141 268.562" stroke="white" stroke-width="1.62619" stroke-miterlimit="10"/>
<path d="M310.047 231.072C310.047 231.072 322.377 264.528 331.47 268.763C338.857 272.204 341.435 262.447 346.847 264.739" stroke="#000914" stroke-width="1.62619" stroke-miterlimit="10"/>
<path d="M353.952 393.393C343.157 392.676 332.226 394.374 321.5 400.215" stroke="#000914" stroke-width="1.62619" stroke-miterlimit="10"/>
<path d="M354.107 380.882C343.312 380.165 332.109 382.065 321.383 387.906" stroke="#000914" stroke-width="1.62619" stroke-miterlimit="10"/>
<path d="M353.954 369.574C343.159 368.857 332.359 370.67 321.633 376.511" stroke="#000914" stroke-width="1.62619" stroke-miterlimit="10"/>
<path d="M368.8 289.404C368.751 289.601 368.87 289.802 369.068 289.852C369.265 289.901 369.466 289.782 369.516 289.584C369.566 289.387 369.446 289.186 369.248 289.136C369.051 289.086 368.85 289.206 368.8 289.404Z" stroke="#000914" stroke-width="1.62619" stroke-miterlimit="10"/>
<path d="M288.371 262.718C288.321 262.916 288.44 263.116 288.638 263.166C288.835 263.216 289.036 263.096 289.086 262.899C289.136 262.701 289.016 262.501 288.819 262.451C288.621 262.401 288.421 262.521 288.371 262.718Z" stroke="white" stroke-width="1.62619" stroke-miterlimit="10"/>
<path d="M284.3 269.046C284.251 269.244 284.37 269.444 284.568 269.494C284.765 269.544 284.966 269.424 285.016 269.227C285.066 269.029 284.946 268.829 284.748 268.779C284.551 268.729 284.35 268.849 284.3 269.046Z" stroke="white" stroke-width="1.62619" stroke-miterlimit="10"/>
<path d="M271.91 318.2C271.86 318.398 271.98 318.598 272.177 318.648C272.375 318.698 272.575 318.579 272.625 318.381C272.675 318.184 272.555 317.983 272.358 317.933C272.16 317.883 271.96 318.003 271.91 318.2Z" stroke="#000914" stroke-width="1.62619" stroke-miterlimit="10"/>
<path d="M277.597 310.997C277.547 311.195 277.667 311.395 277.865 311.445C278.062 311.495 278.263 311.376 278.313 311.178C278.362 310.981 278.243 310.78 278.045 310.73C277.848 310.68 277.647 310.8 277.597 310.997Z" stroke="#000914" stroke-width="1.62619" stroke-miterlimit="10"/>
<path d="M320.468 239.687C320.418 239.884 320.538 240.085 320.736 240.135C320.933 240.185 321.134 240.065 321.184 239.868C321.233 239.67 321.114 239.469 320.916 239.42C320.719 239.37 320.518 239.489 320.468 239.687Z" stroke="#000914" stroke-width="1.62619" stroke-miterlimit="10"/>
<path d="M371.75 298.04C371.7 298.238 371.819 298.438 372.017 298.488C372.214 298.538 372.415 298.419 372.465 298.221C372.515 298.024 372.395 297.823 372.198 297.773C372 297.723 371.8 297.843 371.75 298.04Z" stroke="#000914" stroke-width="1.62619" stroke-miterlimit="10"/>
<path d="M371.379 307.458C371.329 307.656 371.448 307.856 371.646 307.906C371.843 307.956 372.044 307.836 372.094 307.639C372.144 307.441 372.024 307.241 371.826 307.191C371.629 307.141 371.428 307.261 371.379 307.458Z" stroke="#000914" stroke-width="1.62619" stroke-miterlimit="10"/>
<path d="M293.031 412.324C293.031 412.528 293.196 412.693 293.4 412.693C293.604 412.693 293.769 412.528 293.769 412.324C293.769 412.12 293.604 411.955 293.4 411.955C293.196 411.955 293.031 412.12 293.031 412.324Z" stroke="white" stroke-width="1.62619" stroke-miterlimit="10"/>
<path d="M299.388 407.745C299.592 407.745 299.757 407.58 299.757 407.377C299.757 407.173 299.592 407.008 299.388 407.008C299.185 407.008 299.02 407.173 299.02 407.377C299.02 407.58 299.185 407.745 299.388 407.745Z" stroke="white" stroke-width="1.62619" stroke-miterlimit="10"/>
<path d="M306.254 402.949C306.254 403.153 306.419 403.318 306.623 403.318C306.826 403.318 306.992 403.153 306.992 402.949C306.992 402.745 306.826 402.58 306.623 402.58C306.419 402.58 306.254 402.745 306.254 402.949Z" stroke="white" stroke-width="1.62619" stroke-miterlimit="10"/>
<path d="M349.878 272.449C348.814 276.662 351.366 280.941 355.58 282.005C359.793 283.07 364.071 280.517 365.136 276.304C366.2 272.09 363.648 267.812 359.434 266.747C355.221 265.683 350.943 268.236 349.878 272.449Z" stroke="white" stroke-width="1.62619" stroke-miterlimit="10"/>
<path d="M334.37 419.742C333.306 423.955 335.859 428.234 340.072 429.298C344.285 430.363 348.564 427.81 349.628 423.597C350.693 419.383 348.14 415.105 343.927 414.04C339.713 412.976 335.435 415.529 334.37 419.742Z" stroke="#000914" stroke-width="1.62619" stroke-miterlimit="10"/>
<path d="M266.234 465.824C266.234 465.824 269.49 441.229 288.358 418.053" stroke="white" stroke-width="1.62619" stroke-miterlimit="10"/>
<defs>
<filter id="filter0_d_2098_6637" x="0.958031" y="0.958031" width="326.498" height="469.408" filterUnits="userSpaceOnUse" color-interpolation-filters="sRGB">
<feFlood flood-opacity="0" result="BackgroundImageFix"/>
<feColorMatrix in="SourceAlpha" type="matrix" values="0 0 0 0 0 0 0 0 0 0 0 0 0 0 0 0 0 0 127 0" result="hardAlpha"/>
<feOffset/>
<feGaussianBlur stdDeviation="6.52098"/>
<feColorMatrix type="matrix" values="0 0 0 0 1 0 0 0 0 1 0 0 0 0 1 0 0 0 0.39 0"/>
<feBlend mode="normal" in2="BackgroundImageFix" result="effect1_dropShadow_2098_6637"/>
<feBlend mode="normal" in="SourceGraphic" in2="effect1_dropShadow_2098_6637" result="shape"/>
</filter>
<linearGradient id="paint0_linear_2098_6637" x1="-21.314" y1="123.929" x2="206.742" y2="351.984" gradientUnits="userSpaceOnUse">
<stop stop-color="#0FCED1"/>
<stop offset="1" stop-color="#007367"/>
</linearGradient>
</defs>
</svg>
