<svg width="253" height="208" viewBox="0 0 253 208" fill="none" xmlns="http://www.w3.org/2000/svg">
<path d="M52.9373 188.682H51.2633V177.774C51.2633 176.478 51.8753 176.082 52.9553 176.082H58.7333C61.2713 176.082 61.9553 177.558 61.9553 179.934C61.9553 182.418 61.2713 183.876 58.7333 183.876H52.9373V188.682ZM52.9373 182.508H58.1393C59.9213 182.508 60.2093 181.608 60.2093 179.934C60.2093 178.314 59.8853 177.45 58.1393 177.45H53.7473C53.0273 177.45 52.9373 177.702 52.9373 178.278V182.508ZM63.4914 188.682V176.082H65.0034V188.682H63.4914ZM67.2101 179.142H72.2321C73.9241 179.142 74.7161 180.186 74.7161 181.752V187.242C74.7161 188.214 74.3381 188.682 73.2221 188.682H68.9741C67.2281 188.682 66.4901 187.746 66.4901 185.766C66.4901 183.876 67.2281 182.868 68.9741 182.868H73.2041V181.734C73.2041 180.924 72.8081 180.366 71.8541 180.366H67.2101V179.142ZM73.2041 184.092H69.2621C68.3261 184.092 68.0741 184.74 68.0741 185.766C68.0741 186.792 68.3261 187.458 69.2621 187.458H72.7001C73.0421 187.458 73.2041 187.26 73.2041 186.972V184.092ZM84.0768 188.682H80.2608C77.0208 188.682 76.2108 186.864 76.2108 183.894C76.2108 181.014 77.0208 179.142 80.2608 179.142H83.8788V180.366H80.5308C78.1548 180.366 77.7948 181.734 77.7948 183.894C77.7948 186.144 78.1548 187.458 80.5308 187.458H84.0768V188.682ZM93.0371 188.682H88.0511C85.2071 188.682 84.6131 186.828 84.6131 183.948C84.6131 180.438 85.7291 179.034 88.9511 179.034C91.4891 179.034 93.2891 179.862 93.2891 182.742C93.2891 183.84 92.9471 184.416 91.8671 184.416H86.1791C86.1791 185.964 86.4491 187.458 88.3751 187.458H93.0371V188.682ZM86.1791 183.192H91.2731C91.6331 183.192 91.7051 182.922 91.7051 182.706V182.634C91.7051 180.834 90.5711 180.258 88.9691 180.258C87.0071 180.258 86.1791 181.014 86.1791 183.192ZM94.7804 188.682V180.708C94.7804 179.718 95.1944 179.142 96.2384 179.142H104.77C106.84 179.142 107.992 180.042 107.992 182.238V188.682H106.48V182.508C106.48 181.212 106.012 180.366 104.572 180.366H102.142V188.682H100.63V180.366H96.8504C96.4904 180.366 96.2924 180.492 96.2924 180.978V188.682H94.7804ZM117.91 188.682H112.924C110.08 188.682 109.486 186.828 109.486 183.948C109.486 180.438 110.602 179.034 113.824 179.034C116.362 179.034 118.162 179.862 118.162 182.742C118.162 183.84 117.82 184.416 116.74 184.416H111.052C111.052 185.964 111.322 187.458 113.248 187.458H117.91V188.682ZM111.052 183.192H116.146C116.506 183.192 116.578 182.922 116.578 182.706V182.634C116.578 180.834 115.444 180.258 113.842 180.258C111.88 180.258 111.052 181.014 111.052 183.192ZM119.653 188.682V180.708C119.653 179.718 120.067 179.142 121.111 179.142H124.531C126.601 179.142 127.753 180.042 127.753 182.238V188.682H126.241V182.508C126.241 181.212 125.773 180.366 124.333 180.366H121.723C121.363 180.366 121.165 180.492 121.165 180.978V188.682H119.653ZM134.302 188.682H133.168C130.792 188.682 130.126 187.548 130.126 185.622V180.366H128.722V179.142H130.126V176.082H131.638V179.142H134.302V180.366H131.638V185.532C131.638 187.008 132.214 187.458 133.672 187.458H134.302V188.682ZM139.392 184.47V183.102H145.296V184.47H139.392ZM160.926 188.682H153.078C152.16 188.682 151.476 188.322 151.476 187.17V176.082H153.15V186.558C153.15 187.116 153.33 187.314 153.942 187.314H160.926V188.682ZM161.841 188.682V179.142H163.353V188.682H161.841ZM163.371 177.738H161.823V176.082H163.371V177.738ZM165.163 188.682V180.708C165.163 179.718 165.577 179.142 166.621 179.142H170.041C172.111 179.142 173.263 180.042 173.263 182.238V188.682H171.751V182.508C171.751 181.212 171.283 180.366 169.843 180.366H167.233C166.873 180.366 166.675 180.492 166.675 180.978V188.682H165.163ZM183.43 188.682H181.486L177.94 185.19C177.652 184.902 177.256 184.362 177.256 183.75C177.256 183.12 177.616 182.688 177.958 182.346L181.126 179.142H182.98L179.11 183.012C178.948 183.174 178.786 183.39 178.786 183.696C178.786 184.038 179.038 184.344 179.272 184.578L183.43 188.682ZM176.572 188.682H175.06V176.082H176.572V188.682ZM191.809 188.682H186.823C183.979 188.682 183.385 186.828 183.385 183.948C183.385 180.438 184.501 179.034 187.723 179.034C190.261 179.034 192.061 179.862 192.061 182.742C192.061 183.84 191.719 184.416 190.639 184.416H184.951C184.951 185.964 185.221 187.458 187.147 187.458H191.809V188.682ZM184.951 183.192H190.045C190.405 183.192 190.477 182.922 190.477 182.706V182.634C190.477 180.834 189.343 180.258 187.741 180.258C185.779 180.258 184.951 181.014 184.951 183.192ZM200.122 188.682H197.206C194.056 188.682 193.246 186.972 193.246 183.912C193.246 180.942 194.056 179.142 197.206 179.142H200.068V176.082H201.58V187.188C201.58 188.124 201.22 188.682 200.122 188.682ZM200.068 180.384H197.494C195.208 180.384 194.83 181.662 194.83 183.912C194.83 186.252 195.208 187.458 197.494 187.458H199.438C199.942 187.458 200.068 187.26 200.068 186.774V180.384Z" fill="white"/>
<path d="M182.308 28.1483C182.3 28.1306 182.295 28.1121 182.287 28.0946L182.262 28.0408C182.259 28.0333 182.255 28.0261 182.252 28.0186C182.25 28.0158 182.249 28.0129 182.248 28.0101L182.246 28.0063L182.246 28.0059L182.239 27.9909C182.237 27.9877 182.236 27.9842 182.234 27.981C182.227 27.9645 182.216 27.9426 182.215 27.9403C182.213 27.9348 182.21 27.9293 182.207 27.9239L182.203 27.9149L182.202 27.9132C182.195 27.8984 182.188 27.8837 182.181 27.8689L182.172 27.8506L182.15 27.8063C182.15 27.8052 182.149 27.8042 182.148 27.8031L182.108 27.7226C182.101 27.7061 182.092 27.69 182.084 27.6735L182.053 27.615L182.05 27.6088C182.049 27.607 182.048 27.6052 182.047 27.6037C182.045 27.598 182.042 27.5924 182.039 27.5868L182.037 27.5825C182.032 27.5729 182.027 27.5629 182.021 27.5534L181.986 27.4866C181.978 27.4726 181.971 27.4592 181.964 27.447C181.964 27.4455 181.963 27.444 181.962 27.4425L181.933 27.3899C181.928 27.3807 181.923 27.3715 181.918 27.3625L181.917 27.3607C181.916 27.3586 181.915 27.3566 181.914 27.3546L181.913 27.3534L181.912 27.3519C181.849 27.2379 181.784 27.125 181.708 26.9991C181.698 26.9826 181.688 26.9661 181.678 26.95L181.64 26.889C181.636 26.8834 181.632 26.8765 181.628 26.8697C181.626 26.8666 181.596 26.8199 181.595 26.8168L181.594 26.8156C181.587 26.8055 181.581 26.7954 181.574 26.7854C181.571 26.78 181.567 26.7742 181.564 26.7685L181.512 26.6882C181.507 26.6811 181.497 26.6663 181.487 26.6512L181.453 26.6003L181.453 26.5998L181.444 26.5865C181.433 26.5693 181.421 26.5524 181.409 26.5351L181.393 26.5109C181.383 26.4967 181.372 26.4812 181.368 26.4748L181.367 26.4741C181.361 26.4654 181.354 26.4551 181.345 26.4414L181.344 26.4407C181.339 26.4332 181.327 26.4158 181.315 26.3993L181.252 26.3106C181.25 26.3077 181.244 26.2987 181.238 26.2915C181.236 26.2889 181.233 26.2843 181.232 26.2829L181.232 26.2822C181.221 26.2672 181.21 26.252 181.206 26.2465L181.204 26.2449L181.177 26.2073L181.176 26.2061L181.155 26.1778L181.154 26.1768L181.122 26.1333L181.121 26.132L181.119 26.1302C181.115 26.1236 181.097 26.1006 181.092 26.0945L181.027 26.0096C181.022 26.002 181.013 25.9905 181.004 25.9797C180.996 25.9693 180.988 25.959 180.98 25.9486L180.976 25.9519C180.972 25.9479 180.969 25.9447 180.965 25.9407C180.959 25.933 180.955 25.9246 180.949 25.917L180.952 25.9145L180.921 25.8755L180.921 25.8745C180.921 25.8745 180.917 25.8705 180.915 25.8676L180.898 25.8458C180.893 25.8404 180.866 25.8062 180.861 25.8009L180.853 25.7905L180.829 25.7617C180.828 25.7605 180.827 25.7596 180.826 25.7583L180.807 25.7352L180.807 25.7348C180.794 25.7198 180.782 25.7049 180.769 25.6899C180.768 25.6893 180.768 25.6884 180.767 25.6876C180.762 25.6821 180.754 25.6718 180.745 25.6617C180.742 25.6583 180.74 25.6549 180.737 25.6515L180.672 25.5759C180.671 25.5752 180.645 25.5445 180.644 25.5437C180.637 25.5352 180.601 25.4946 180.594 25.4861L180.516 25.3992L180.514 25.3976L180.485 25.3656C180.484 25.3635 180.474 25.3534 180.465 25.3437L180.465 25.3433C180.457 25.3341 180.431 25.3061 180.422 25.2969L180.421 25.2959C180.408 25.2817 180.392 25.2652 180.39 25.2627C180.381 25.2531 180.347 25.2171 180.338 25.2075L180.279 25.1453C180.274 25.1403 180.252 25.1176 180.247 25.1127L158.268 3.0959L158.212 3.04217C158.209 3.03881 158.206 3.03478 158.203 3.03142C158.191 3.01952 158.167 2.99534 158.152 2.98076C158.142 2.9703 158.129 2.96348 158.118 2.95331C158.111 2.94612 158.107 2.93758 158.1 2.93048L158.042 2.87482L158.039 2.87799L158.037 2.87655L158.04 2.87329C158.033 2.86676 158.025 2.86273 158.018 2.8564C158.012 2.85054 158.008 2.84335 158.002 2.83759C157.993 2.82876 157.969 2.80689 157.955 2.79383C157.947 2.78616 157.937 2.78127 157.929 2.77368L157.879 2.7259C157.874 2.72129 157.87 2.71573 157.865 2.71131C157.863 2.70901 157.842 2.69097 157.84 2.68867C157.839 2.6879 157.838 2.68713 157.837 2.68637L157.836 2.68541L157.832 2.68176C157.824 2.67408 157.792 2.64568 157.783 2.63839L157.757 2.61517L157.739 2.60001L157.738 2.59885L157.722 2.58532C157.72 2.58388 157.719 2.58225 157.717 2.58081L157.681 2.54857C157.679 2.54713 157.677 2.54627 157.676 2.54493L157.638 2.51211C157.612 2.48946 157.585 2.46644 157.558 2.44417L157.537 2.42652C157.522 2.41424 157.52 2.41232 157.511 2.40579L157.464 2.36664C157.463 2.36578 157.462 2.3653 157.461 2.36443L157.438 2.34572C157.437 2.34476 157.436 2.3438 157.435 2.34285L157.408 2.32135C157.392 2.3084 157.366 2.28777 157.353 2.27683L157.314 2.24727C157.311 2.24516 157.309 2.24257 157.306 2.24036C157.294 2.23115 157.267 2.21004 157.255 2.20122C157.253 2.19978 157.251 2.19891 157.249 2.19747L157.195 2.15583C157.191 2.15305 157.189 2.1495 157.185 2.14671L157.157 2.12599C157.149 2.11984 157.124 2.10113 157.11 2.09048L157.106 2.08722C157.1 2.08261 157.089 2.07455 157.078 2.06697L157.077 2.06573L157.023 2.02581L157.022 2.02495L157.018 2.02235C157.006 2.01276 156.993 2.00355 156.98 1.99434L156.953 1.97495C156.951 1.97342 156.948 1.97111 156.946 1.97015L156.946 1.96987L156.921 1.9525C156.915 1.94789 156.87 1.91642 156.864 1.91181C156.848 1.89992 156.831 1.88802 156.814 1.8765L156.78 1.85347L156.777 1.85194C156.776 1.85069 156.774 1.84925 156.772 1.8481C156.764 1.84234 156.733 1.82046 156.725 1.81509C156.723 1.81375 156.72 1.81308 156.718 1.81183L156.683 1.78765L156.681 1.7863L156.671 1.77949L156.653 1.76711C156.632 1.75253 156.604 1.7341 156.583 1.72067C156.582 1.7199 156.551 1.69994 156.55 1.69918L156.489 1.66003C156.489 1.66003 156.474 1.65034 156.459 1.64103C156.445 1.63191 156.422 1.61752 156.415 1.6132L156.415 1.61282C156.408 1.60879 156.402 1.60485 156.394 1.60025C156.393 1.59948 156.392 1.59862 156.391 1.59785C156.39 1.59708 156.369 1.58422 156.352 1.57386L156.334 1.56254C156.328 1.5587 156.304 1.54411 156.297 1.54027C156.179 1.46773 156.059 1.39788 155.938 1.32994C155.93 1.32572 155.923 1.3215 155.915 1.31727L155.883 1.29962L155.882 1.29924L155.876 1.29568L155.835 1.27352C155.833 1.27237 155.799 1.25394 155.797 1.25279L155.727 1.21595C155.725 1.21479 155.724 1.21393 155.722 1.21288C155.719 1.21153 155.714 1.20904 155.714 1.20865C155.713 1.20827 155.711 1.2075 155.71 1.20673C155.708 1.20549 155.705 1.20405 155.703 1.2029C155.702 1.20251 155.7 1.20213 155.699 1.20098C155.698 1.2004 155.697 1.19963 155.696 1.19906L155.699 1.20098L155.699 1.20069C155.681 1.19167 155.663 1.18179 155.653 1.1768C155.65 1.17526 155.615 1.15722 155.611 1.1553C155.609 1.15425 155.607 1.15357 155.605 1.15252L155.596 1.1482C155.595 1.14763 155.595 1.14695 155.594 1.14647L155.513 1.10598C155.51 1.10425 155.506 1.10233 155.505 1.10157C155.492 1.09504 155.479 1.08852 155.466 1.08199L155.392 1.04591C155.382 1.04131 155.367 1.0344 155.352 1.02711L155.332 1.01751C155.326 1.01492 155.32 1.01175 155.313 1.00878L155.312 1.0083C155.309 1.00657 155.306 1.00523 155.302 1.0035C155.301 1.00312 155.3 1.00254 155.299 1.00216C155.285 0.995345 155.271 0.98834 155.259 0.982966C155.257 0.982199 155.255 0.981047 155.252 0.979896C155.229 0.968957 155.205 0.958594 155.182 0.948135C155.18 0.947463 155.179 0.946407 155.178 0.945736C155.173 0.943529 155.168 0.941801 155.163 0.939595C155.158 0.9371 155.152 0.934413 155.146 0.931918C155.143 0.930479 155.139 0.929519 155.136 0.92808C153.771 0.31291 152.321 0 150.824 0H78.7551C72.9597 0 68.245 4.72254 68.245 10.5278V32.3131C68.245 33.4884 69.196 34.4411 70.3693 34.4411C71.5425 34.4411 72.4936 33.4884 72.4936 32.3131V10.5278C72.4936 7.0696 75.3026 4.25581 78.7551 4.25581H150.824C151.282 4.25581 151.733 4.30494 152.174 4.40243V23.7796C152.174 26.8133 154.022 29.4228 156.649 30.5379C156.656 30.5409 156.664 30.543 156.671 30.546C157.541 30.9119 158.496 31.1152 159.497 31.1152H178.839C178.937 31.5593 178.988 32.0138 178.988 32.4667V134.742C178.988 138.2 176.179 141.014 172.726 141.014H144.193C145.239 139.452 145.801 137.616 145.801 135.693C145.801 133.134 144.807 130.729 143.001 128.921L123.688 109.575C122.751 108.636 121.506 108.12 120.182 108.12C119.59 108.12 119.015 108.228 118.475 108.427L114.319 104.263C126.05 87.9453 124.321 65.368 109.974 50.9972C99.4944 40.4993 84.1019 36.4404 69.8024 40.4037C62.9837 42.294 56.72 45.9568 51.6884 50.9972C43.9043 58.7945 39.6172 69.1619 39.6172 80.1891C39.6172 91.2167 43.9043 101.584 51.6884 109.381C56.7198 114.421 62.9835 118.085 69.8026 119.975C73.4153 120.976 77.1111 121.467 80.7873 121.467C89.3593 121.467 97.8209 118.798 104.862 113.732L109.021 117.897C108.823 118.438 108.714 119.014 108.714 119.607C108.714 120.934 109.23 122.181 110.167 123.119L128.032 141.014H78.7549C75.3024 141.014 72.4934 138.2 72.4934 134.742V127.922C72.4934 126.747 71.5423 125.794 70.3691 125.794C69.1958 125.794 68.2448 126.747 68.2448 127.922V134.742C68.2448 140.547 72.9595 145.27 78.7549 145.27H172.726C178.522 145.27 183.236 140.547 183.236 134.742V32.4667C183.236 30.9873 182.914 29.4985 182.308 28.1483ZM70.9356 115.873C64.8229 114.179 59.2062 110.893 54.6928 106.372C47.7111 99.3782 43.866 90.0798 43.866 80.1891C43.866 70.2988 47.7111 61.0003 54.6928 54.0063C59.2062 49.4853 64.8229 46.1998 70.9356 44.5052C74.1862 43.6044 77.4981 43.1657 80.7869 43.1657C90.4759 43.1657 99.9519 46.9767 106.969 54.0063C120.241 67.3004 121.477 88.4224 109.845 103.139C108.955 104.264 107.988 105.352 106.969 106.372C106.207 107.136 105.405 107.872 104.578 108.569C104.302 108.801 104.023 109.029 103.742 109.252C94.5481 116.544 82.2843 119.019 70.9356 115.873ZM108.209 111.049C108.418 110.862 108.623 110.672 108.828 110.481C108.92 110.396 109.014 110.312 109.106 110.226C109.399 109.948 109.689 109.666 109.973 109.381C110.258 109.096 110.54 108.806 110.818 108.511C110.888 108.436 110.956 108.358 111.026 108.283C111.233 108.06 111.439 107.838 111.641 107.611C111.643 107.609 111.644 107.607 111.646 107.605L115.144 111.109L111.698 114.56L108.2 111.057C108.203 111.054 108.206 111.051 108.209 111.049ZM132.484 139.455L113.171 120.109C112.99 119.928 112.963 119.717 112.963 119.607C112.963 119.497 112.99 119.286 113.171 119.104L119.681 112.584C119.861 112.403 120.072 112.376 120.182 112.376C120.292 112.376 120.502 112.403 120.683 112.584L139.997 131.93C141 132.935 141.553 134.271 141.553 135.693C141.553 137.114 141 138.45 139.997 139.455C138.993 140.461 137.659 141.014 136.24 141.014C134.822 141.014 133.488 140.461 132.484 139.455ZM155.703 1.2029L155.709 1.20635C155.707 1.2051 155.705 1.20424 155.703 1.2029ZM159.497 26.8594C157.802 26.8594 156.422 25.4777 156.422 23.7796V7.26535L175.983 26.8594H159.497Z" fill="url(#paint0_linear_2098_6717)"/>
<path d="M167.328 59.5004H130.698C129.525 59.5004 128.574 58.5477 128.574 57.3725C128.574 56.1972 129.525 55.2445 130.698 55.2445H167.328C168.501 55.2445 169.452 56.1972 169.452 57.3725C169.452 58.5477 168.501 59.5004 167.328 59.5004Z" fill="url(#paint1_linear_2098_6717)"/>
<path d="M167.328 72.3288H130.698C129.525 72.3288 128.574 71.3762 128.574 70.2009C128.574 69.0257 129.525 68.073 130.698 68.073H167.328C168.501 68.073 169.452 69.0257 169.452 70.2009C169.452 71.3762 168.501 72.3288 167.328 72.3288Z" fill="url(#paint2_linear_2098_6717)"/>
<path d="M167.328 85.1573H130.698C129.525 85.1573 128.574 84.2046 128.574 83.0294C128.574 81.8541 129.525 80.9015 130.698 80.9015H167.328C168.501 80.9015 169.452 81.8541 169.452 83.0294C169.452 84.2046 168.501 85.1573 167.328 85.1573Z" fill="url(#paint3_linear_2098_6717)"/>
<path d="M149.013 97.9854H130.698C129.525 97.9854 128.574 97.0327 128.574 95.8574C128.574 94.6822 129.525 93.7295 130.698 93.7295H149.013C150.186 93.7295 151.137 94.6822 151.137 95.8574C151.137 97.0327 150.186 97.9854 149.013 97.9854Z" fill="url(#paint4_linear_2098_6717)"/>
<defs>
<linearGradient id="paint0_linear_2098_6717" x1="2.40216" y1="207.976" x2="153.39" y2="-92.1454" gradientUnits="userSpaceOnUse">
<stop stop-color="#07EDC4"/>
<stop offset="1" stop-color="#31E2ED" stop-opacity="0.38"/>
</linearGradient>
<linearGradient id="paint1_linear_2098_6717" x1="2.40216" y1="207.976" x2="153.39" y2="-92.1454" gradientUnits="userSpaceOnUse">
<stop stop-color="#07EDC4"/>
<stop offset="1" stop-color="#31E2ED" stop-opacity="0.38"/>
</linearGradient>
<linearGradient id="paint2_linear_2098_6717" x1="2.40216" y1="207.976" x2="153.39" y2="-92.1454" gradientUnits="userSpaceOnUse">
<stop stop-color="#07EDC4"/>
<stop offset="1" stop-color="#31E2ED" stop-opacity="0.38"/>
</linearGradient>
<linearGradient id="paint3_linear_2098_6717" x1="2.40216" y1="207.976" x2="153.39" y2="-92.1454" gradientUnits="userSpaceOnUse">
<stop stop-color="#07EDC4"/>
<stop offset="1" stop-color="#31E2ED" stop-opacity="0.38"/>
</linearGradient>
<linearGradient id="paint4_linear_2098_6717" x1="2.40216" y1="207.976" x2="153.39" y2="-92.1454" gradientUnits="userSpaceOnUse">
<stop stop-color="#07EDC4"/>
<stop offset="1" stop-color="#31E2ED" stop-opacity="0.38"/>
</linearGradient>
</defs>
</svg>
