<svg width="360" height="1884" viewBox="0 0 360 1884" fill="none" xmlns="http://www.w3.org/2000/svg">
<path d="M942 471C942 731.126 731.126 942 471 942C210.874 942 0 731.126 0 471C0 210.874 210.874 0 471 0C731.126 0 942 210.874 942 471Z" fill="url(#paint0_radial_0_1)"/>
<path d="M942 1413C942 1673.13 731.126 1884 471 1884C210.874 1884 0 1673.13 0 1413C0 1152.87 210.874 942 471 942C731.126 942 942 1152.87 942 1413Z" fill="url(#paint1_radial_0_1)"/>
<defs>
<radialGradient id="paint0_radial_0_1" cx="0" cy="0" r="1" gradientUnits="userSpaceOnUse" gradientTransform="translate(471 471) rotate(90) scale(443)">
<stop stop-color="#07C4ED" stop-opacity="0.61"/>
<stop offset="1" stop-color="#272727" stop-opacity="0"/>
</radialGradient>
<radialGradient id="paint1_radial_0_1" cx="0" cy="0" r="1" gradientUnits="userSpaceOnUse" gradientTransform="translate(471 1413) rotate(90) scale(443)">
<stop stop-color="#07EDC4" stop-opacity="0.61"/>
<stop offset="1" stop-color="#272727" stop-opacity="0"/>
</radialGradient>
</defs>
</svg>
