<svg width="1512" height="8187" viewBox="0 0 1512 8187" fill="none" xmlns="http://www.w3.org/2000/svg">
<g opacity="0.6">
<g opacity="0.33" filter="url(#filter0_f_0_1)">
<path d="M2766.98 875.414C2766.98 1522.92 2243.26 2047.83 1597.21 2047.83C951.167 2047.83 427.444 1522.92 427.444 875.414C427.444 227.908 951.167 -297 1597.21 -297C2243.26 -297 2766.98 227.908 2766.98 875.414Z" fill="url(#paint0_radial_0_1)" fill-opacity="0.8" style="mix-blend-mode:difference"/>
</g>
<g opacity="0.33" filter="url(#filter1_f_0_1)">
<path d="M1985.37 2143.71C1985.37 2791.22 1461.65 3316.12 815.603 3316.12C169.558 3316.12 -354.166 2791.22 -354.166 2143.71C-354.166 1496.2 169.558 971.297 815.603 971.297C1461.65 971.297 1985.37 1496.2 1985.37 2143.71Z" fill="url(#paint1_radial_0_1)" fill-opacity="0.8" style="mix-blend-mode:difference"/>
</g>
<g opacity="0.33" filter="url(#filter2_f_0_1)">
<path d="M3245.73 3652.71C3245.73 4485.74 2572.21 5161.04 1741.37 5161.04C910.529 5161.04 237.001 4485.74 237.001 3652.71C237.001 2819.68 910.529 2144.37 1741.37 2144.37C2572.21 2144.37 3245.73 2819.68 3245.73 3652.71Z" fill="url(#paint2_radial_0_1)" fill-opacity="0.8" style="mix-blend-mode:difference"/>
</g>
<g opacity="0.33" filter="url(#filter3_f_0_1)">
<path d="M1435.73 5492.71C1435.73 6325.74 762.205 7001.04 -68.6335 7001.04C-899.472 7001.04 -1573 6325.74 -1573 5492.71C-1573 4659.68 -899.472 3984.37 -68.6335 3984.37C762.205 3984.37 1435.73 4659.68 1435.73 5492.71Z" fill="url(#paint3_radial_0_1)" fill-opacity="0.8" style="mix-blend-mode:difference"/>
</g>
<g opacity="0.33" filter="url(#filter4_f_0_1)">
<path d="M2154.66 6485.54C2154.66 7400.38 1415.11 8142 502.828 8142C-409.452 8142 -1149 7400.38 -1149 6485.54C-1149 5570.71 -409.452 4829.09 502.828 4829.09C1415.11 4829.09 2154.66 5570.71 2154.66 6485.54Z" fill="url(#paint4_radial_0_1)" fill-opacity="0.8" style="mix-blend-mode:difference"/>
</g>
</g>
<path opacity="0.6" d="M659 411.5C659 957.986 216.881 1401 -328.5 1401C-873.881 1401 -1316 957.986 -1316 411.5C-1316 -134.986 -873.881 -578 -328.5 -578C216.881 -578 659 -134.986 659 411.5Z" fill="url(#paint5_radial_0_1)"/>
<path opacity="0.6" d="M2863 1099.5C2863 1645.99 2420.88 2089 1875.5 2089C1330.12 2089 888 1645.99 888 1099.5C888 553.014 1330.12 110 1875.5 110C2420.88 110 2863 553.014 2863 1099.5Z" fill="url(#paint6_radial_0_1)"/>
<path opacity="0.8" d="M444 3173.5C444 3719.99 1.8811 4163 -543.5 4163C-1088.88 4163 -1531 3719.99 -1531 3173.5C-1531 2627.01 -1088.88 2184 -543.5 2184C1.8811 2184 444 2627.01 444 3173.5Z" fill="url(#paint7_radial_0_1)"/>
<path opacity="0.1" d="M1406 4258.5C1406 4804.99 963.881 5248 418.5 5248C-126.881 5248 -569 4804.99 -569 4258.5C-569 3712.01 -126.881 3269 418.5 3269C963.881 3269 1406 3712.01 1406 4258.5Z" fill="url(#paint8_radial_0_1)"/>
<path d="M2750 4983.5C2750 5529.99 2307.88 5973 1762.5 5973C1217.12 5973 775 5529.99 775 4983.5C775 4437.01 1217.12 3994 1762.5 3994C2307.88 3994 2750 4437.01 2750 4983.5Z" fill="url(#paint9_radial_0_1)" fill-opacity="0.3"/>
<path d="M847 6583.5C847 7129.99 404.881 7573 -140.5 7573C-685.881 7573 -1128 7129.99 -1128 6583.5C-1128 6037.01 -685.881 5594 -140.5 5594C404.881 5594 847 6037.01 847 6583.5Z" fill="url(#paint10_radial_0_1)" fill-opacity="0.4"/>
<defs>
<filter id="filter0_f_0_1" x="382.444" y="-342" width="2429.54" height="2434.83" filterUnits="userSpaceOnUse" color-interpolation-filters="sRGB">
<feFlood flood-opacity="0" result="BackgroundImageFix"/>
<feBlend mode="normal" in="SourceGraphic" in2="BackgroundImageFix" result="shape"/>
<feGaussianBlur stdDeviation="22.5" result="effect1_foregroundBlur_0_1"/>
</filter>
<filter id="filter1_f_0_1" x="-399.166" y="926.297" width="2429.54" height="2434.83" filterUnits="userSpaceOnUse" color-interpolation-filters="sRGB">
<feFlood flood-opacity="0" result="BackgroundImageFix"/>
<feBlend mode="normal" in="SourceGraphic" in2="BackgroundImageFix" result="shape"/>
<feGaussianBlur stdDeviation="22.5" result="effect1_foregroundBlur_0_1"/>
</filter>
<filter id="filter2_f_0_1" x="192.001" y="2099.37" width="3098.73" height="3106.67" filterUnits="userSpaceOnUse" color-interpolation-filters="sRGB">
<feFlood flood-opacity="0" result="BackgroundImageFix"/>
<feBlend mode="normal" in="SourceGraphic" in2="BackgroundImageFix" result="shape"/>
<feGaussianBlur stdDeviation="22.5" result="effect1_foregroundBlur_0_1"/>
</filter>
<filter id="filter3_f_0_1" x="-1618" y="3939.37" width="3098.73" height="3106.67" filterUnits="userSpaceOnUse" color-interpolation-filters="sRGB">
<feFlood flood-opacity="0" result="BackgroundImageFix"/>
<feBlend mode="normal" in="SourceGraphic" in2="BackgroundImageFix" result="shape"/>
<feGaussianBlur stdDeviation="22.5" result="effect1_foregroundBlur_0_1"/>
</filter>
<filter id="filter4_f_0_1" x="-1194" y="4784.09" width="3393.66" height="3402.91" filterUnits="userSpaceOnUse" color-interpolation-filters="sRGB">
<feFlood flood-opacity="0" result="BackgroundImageFix"/>
<feBlend mode="normal" in="SourceGraphic" in2="BackgroundImageFix" result="shape"/>
<feGaussianBlur stdDeviation="22.5" result="effect1_foregroundBlur_0_1"/>
</filter>
<radialGradient id="paint0_radial_0_1" cx="0" cy="0" r="1" gradientUnits="userSpaceOnUse" gradientTransform="translate(1597.21 875.414) rotate(90) scale(1172.41 1169.77)">
<stop stop-color="#07EDC4" stop-opacity="0.61"/>
<stop offset="1" stop-color="#0785DF" stop-opacity="0"/>
</radialGradient>
<radialGradient id="paint1_radial_0_1" cx="0" cy="0" r="1" gradientUnits="userSpaceOnUse" gradientTransform="translate(815.603 2143.71) rotate(90) scale(1172.41 1169.77)">
<stop stop-color="#07EDC4" stop-opacity="0.61"/>
<stop offset="1" stop-color="#0785DF" stop-opacity="0"/>
</radialGradient>
<radialGradient id="paint2_radial_0_1" cx="0" cy="0" r="1" gradientUnits="userSpaceOnUse" gradientTransform="translate(1741.37 3652.71) rotate(90) scale(1508.33 1504.37)">
<stop stop-color="#07EDC4" stop-opacity="0.61"/>
<stop offset="1" stop-color="#0785DF" stop-opacity="0"/>
</radialGradient>
<radialGradient id="paint3_radial_0_1" cx="0" cy="0" r="1" gradientUnits="userSpaceOnUse" gradientTransform="translate(-68.6335 5492.71) rotate(90) scale(1508.33 1504.37)">
<stop stop-color="#07EDC4" stop-opacity="0.61"/>
<stop offset="1" stop-color="#0785DF" stop-opacity="0"/>
</radialGradient>
<radialGradient id="paint4_radial_0_1" cx="0" cy="0" r="1" gradientUnits="userSpaceOnUse" gradientTransform="translate(502.828 6485.54) rotate(90) scale(1656.46 1651.83)">
<stop stop-color="#07EDC4" stop-opacity="0.61"/>
<stop offset="1" stop-color="#0785DF" stop-opacity="0"/>
</radialGradient>
<radialGradient id="paint5_radial_0_1" cx="0" cy="0" r="1" gradientUnits="userSpaceOnUse" gradientTransform="translate(-328.5 411.5) rotate(90) scale(989.5 987.5)">
<stop stop-color="#07EDC4" stop-opacity="0.61"/>
<stop offset="1" stop-color="#0785DF" stop-opacity="0"/>
</radialGradient>
<radialGradient id="paint6_radial_0_1" cx="0" cy="0" r="1" gradientUnits="userSpaceOnUse" gradientTransform="translate(1875.5 1099.5) rotate(90) scale(989.5 987.5)">
<stop stop-color="#07EDC4" stop-opacity="0.61"/>
<stop offset="1" stop-color="#0785DF" stop-opacity="0"/>
</radialGradient>
<radialGradient id="paint7_radial_0_1" cx="0" cy="0" r="1" gradientUnits="userSpaceOnUse" gradientTransform="translate(-543.5 3173.5) rotate(90) scale(989.5 987.5)">
<stop stop-color="#07EDC4" stop-opacity="0.61"/>
<stop offset="1" stop-color="#0785DF" stop-opacity="0"/>
</radialGradient>
<radialGradient id="paint8_radial_0_1" cx="0" cy="0" r="1" gradientUnits="userSpaceOnUse" gradientTransform="translate(418.5 4258.5) rotate(90) scale(989.5 987.5)">
<stop stop-color="#07EDC4" stop-opacity="0.61"/>
<stop offset="1" stop-color="#0785DF" stop-opacity="0"/>
</radialGradient>
<radialGradient id="paint9_radial_0_1" cx="0" cy="0" r="1" gradientUnits="userSpaceOnUse" gradientTransform="translate(1762.5 4983.5) rotate(90) scale(989.5 987.5)">
<stop stop-color="#07EDC4" stop-opacity="0.61"/>
<stop offset="1" stop-color="#0785DF" stop-opacity="0"/>
</radialGradient>
<radialGradient id="paint10_radial_0_1" cx="0" cy="0" r="1" gradientUnits="userSpaceOnUse" gradientTransform="translate(-140.5 6583.5) rotate(90) scale(989.5 987.5)">
<stop stop-color="#07EDC4" stop-opacity="0.61"/>
<stop offset="1" stop-color="#0785DF" stop-opacity="0"/>
</radialGradient>
</defs>
</svg>
