<svg width="586" height="362" viewBox="0 0 586 362" fill="none" xmlns="http://www.w3.org/2000/svg">
<path d="M148.93 346.8V356.544C148.93 357.68 148.178 358.128 147.266 358.128C146.578 358.128 145.954 357.968 145.458 357.184L140.738 349.728C140.562 349.488 140.53 349.456 140.482 349.456C140.402 349.456 140.258 349.536 140.258 349.776V358H138.21V348.192C138.21 347.232 138.85 346.672 139.922 346.672C140.93 346.672 141.394 347.056 141.698 347.552L146.45 355.056C146.53 355.168 146.562 355.328 146.706 355.328C146.882 355.328 146.882 355.136 146.882 355.056V346.8H148.93ZM157.555 346.672C161.731 346.672 163.315 347.872 163.315 352.4C163.315 356.928 161.731 358.128 157.555 358.128C153.411 358.128 151.811 356.928 151.811 352.4C151.811 347.872 153.411 346.672 157.555 346.672ZM153.987 352.4C153.987 355.6 154.803 356.448 157.555 356.448C160.307 356.448 161.139 355.6 161.139 352.4C161.139 349.2 160.307 348.352 157.555 348.352C154.803 348.352 153.987 349.2 153.987 352.4ZM169.984 355.488L172.064 347.824C172.176 347.392 172.416 346.672 173.616 346.672C174.704 346.672 175.04 347.328 175.168 347.824L177.248 355.488C177.28 355.6 177.376 355.76 177.488 355.76C177.632 355.76 177.712 355.552 177.744 355.424L179.968 346.8H182.112L179.408 356.56C179.168 357.44 178.88 358.128 177.6 358.128C176.32 358.128 176.016 357.44 175.808 356.688L173.84 349.44C173.792 349.232 173.728 349.136 173.632 349.136C173.52 349.136 173.472 349.232 173.408 349.44L171.424 356.688C171.216 357.44 170.928 358.128 169.648 358.128C168.368 358.128 168.064 357.44 167.824 356.56L165.136 346.8H167.28L169.504 355.424C169.536 355.536 169.568 355.76 169.744 355.76C169.856 355.76 169.936 355.6 169.984 355.488ZM191.379 358H189.267V346.8H191.379V358ZM208.697 358H204.025C200.185 358 199.273 355.6 199.273 352.4C199.273 349.2 200.185 346.8 204.025 346.8H208.521V348.48H205.017C202.297 348.48 201.449 349.36 201.449 352.4C201.449 355.44 202.297 356.32 205.017 356.32H208.697V358ZM216.203 346.672C220.379 346.672 221.963 347.872 221.963 352.4C221.963 356.928 220.379 358.128 216.203 358.128C212.059 358.128 210.459 356.928 210.459 352.4C210.459 347.872 212.059 346.672 216.203 346.672ZM212.635 352.4C212.635 355.6 213.451 356.448 216.203 356.448C218.955 356.448 219.787 355.6 219.787 352.4C219.787 349.2 218.955 348.352 216.203 348.352C213.451 348.352 212.635 349.2 212.635 352.4ZM235.561 346.8V356.544C235.561 357.68 234.809 358.128 233.897 358.128C233.209 358.128 232.585 357.968 232.089 357.184L227.369 349.728C227.193 349.488 227.161 349.456 227.113 349.456C227.033 349.456 226.889 349.536 226.889 349.776V358H224.841V348.192C224.841 347.232 225.481 346.672 226.553 346.672C227.561 346.672 228.025 347.056 228.329 347.552L233.081 355.056C233.161 355.168 233.193 355.328 233.337 355.328C233.513 355.328 233.513 355.136 233.513 355.056V346.8H235.561ZM249.481 346.8V356.544C249.481 357.68 248.729 358.128 247.817 358.128C247.129 358.128 246.505 357.968 246.009 357.184L241.289 349.728C241.113 349.488 241.081 349.456 241.033 349.456C240.953 349.456 240.809 349.536 240.809 349.776V358H238.761V348.192C238.761 347.232 239.401 346.672 240.473 346.672C241.481 346.672 241.945 347.056 242.249 347.552L247.001 355.056C247.081 355.168 247.113 355.328 247.257 355.328C247.433 355.328 247.433 355.136 247.433 355.056V346.8H249.481ZM261.658 356.32V358H254.314C253.354 358 252.682 357.6 252.682 356.32V348.48C252.682 347.2 253.354 346.8 254.314 346.8H261.594V348.48H255.594C254.954 348.48 254.794 348.64 254.794 349.28V351.44H261.434V353.12H254.794V355.52C254.794 356.16 254.954 356.32 255.594 356.32H261.658ZM273.488 358H268.816C264.976 358 264.064 355.6 264.064 352.4C264.064 349.2 264.976 346.8 268.816 346.8H273.312V348.48H269.808C267.088 348.48 266.24 349.36 266.24 352.4C266.24 355.44 267.088 356.32 269.808 356.32H273.488V358ZM282.043 358H279.931V348.48H275.563V346.8H286.427V348.48H282.043V358ZM292.461 358L296.685 347.936C297.085 346.992 297.517 346.672 298.525 346.672C299.485 346.672 299.965 346.992 300.365 347.936L304.589 358H302.365L301.213 355.168H295.821L294.685 358H292.461ZM298.205 349.104L296.365 353.664H300.669L298.845 349.104C298.781 348.928 298.669 348.64 298.525 348.64C298.381 348.64 298.269 348.928 298.205 349.104ZM315.494 358H308.198C307.238 358 306.566 357.6 306.566 356.32V346.8H308.678V355.52C308.678 356.16 308.838 356.32 309.478 356.32H315.494V358ZM326.665 358H319.369C318.409 358 317.737 357.6 317.737 356.32V346.8H319.849V355.52C319.849 356.16 320.009 356.32 320.649 356.32H326.665V358ZM339.442 358H337.33V348.48H332.962V346.8H343.826V348.48H339.442V358ZM356.109 346.8V358H353.997V353.072H348.173V358H346.061V346.8H348.173V351.392H353.997V346.8H356.109ZM368.286 356.32V358H360.942C359.982 358 359.31 357.6 359.31 356.32V348.48C359.31 347.2 359.982 346.8 360.942 346.8H368.222V348.48H362.222C361.582 348.48 361.422 348.64 361.422 349.28V351.44H368.062V353.12H361.422V355.52C361.422 356.16 361.582 356.32 362.222 356.32H368.286ZM382.282 358H377.658C376.698 358 376.026 357.6 376.026 356.32V348.48C376.026 347.2 376.698 346.8 377.658 346.8H381.994C385.802 346.8 386.41 349.68 386.41 352.4C386.41 355.12 385.802 358 382.282 358ZM381.258 348.48H378.938C378.298 348.48 378.138 348.64 378.138 349.28V355.52C378.138 356.16 378.298 356.32 378.938 356.32H381.258C383.818 356.32 384.234 354.64 384.234 352.4C384.234 350.16 383.818 348.48 381.258 348.48ZM394.715 346.672C398.891 346.672 400.475 347.872 400.475 352.4C400.475 356.928 398.891 358.128 394.715 358.128C390.571 358.128 388.971 356.928 388.971 352.4C388.971 347.872 390.571 346.672 394.715 346.672ZM391.147 352.4C391.147 355.6 391.963 356.448 394.715 356.448C397.467 356.448 398.299 355.6 398.299 352.4C398.299 349.2 397.467 348.352 394.715 348.352C391.963 348.352 391.147 349.2 391.147 352.4ZM408.388 358H406.276V348.48H401.908V346.8H412.772V348.48H408.388V358ZM414.827 358V356.32H421.035C422.043 356.32 422.091 355.488 422.091 355.104C422.091 354.672 421.979 354.144 421.003 353.84L416.587 352.448C415.115 351.984 414.683 351.04 414.683 349.504C414.683 347.904 415.467 346.8 417.243 346.8H423.691V348.48H417.803C417.275 348.48 416.859 348.8 416.859 349.6C416.859 350.096 416.939 350.576 417.835 350.864L421.931 352.16C423.563 352.672 424.267 353.36 424.267 355.12C424.267 356.768 423.595 358 421.867 358H414.827Z" fill="white"/>
<path d="M173 60L231 113" stroke="white" stroke-width="0.979902" stroke-linecap="round" stroke-linejoin="round"/>
<path d="M332 117L402 134" stroke="white" stroke-width="0.979902" stroke-linecap="round" stroke-linejoin="round"/>
<path d="M268 75L332 25" stroke="white" stroke-width="0.979902" stroke-linecap="round" stroke-linejoin="round"/>
<path d="M412 222L362 204" stroke="white" stroke-width="0.979902" stroke-linecap="round" stroke-linejoin="round"/>
<path d="M292 257L323 153" stroke="white" stroke-width="0.979902" stroke-linecap="round" stroke-linejoin="round"/>
<path d="M173 194L227 158" stroke="white" stroke-width="0.979902" stroke-linecap="round" stroke-linejoin="round"/>
<path d="M18.9218 45V35.736C18.9218 35.256 18.8738 35.032 18.4738 35.032H17.2898V33.8H19.1618C19.9618 33.8 20.4098 34.168 20.4098 35.048V45H18.9218ZM23.784 45H22.328V43.272H23.784V45ZM41.088 45H39.072L33.904 40.696C33.264 40.168 33.136 39.688 33.136 39.24C33.136 38.888 33.344 38.424 33.824 38.008L38.56 33.8H40.496L35.216 38.424C34.928 38.68 34.592 38.888 34.592 39.24C34.592 39.64 34.992 39.96 35.344 40.248L41.088 45ZM31.04 45V33.8H32.528V45H31.04ZM41.6438 45V37.912C41.6438 37.032 42.0118 36.52 42.9398 36.52H45.9798C47.8198 36.52 48.8438 37.32 48.8438 39.272V45H47.4998V39.512C47.4998 38.36 47.0838 37.608 45.8038 37.608H43.4838C43.1638 37.608 42.9878 37.72 42.9878 38.152V45H41.6438ZM54.5206 36.424C57.5606 36.424 58.8726 37.528 58.8726 40.728C58.8726 43.944 57.5606 45.096 54.5206 45.096C51.4806 45.096 50.1686 43.944 50.1686 40.728C50.1686 37.528 51.4806 36.424 54.5206 36.424ZM51.5766 40.728C51.5766 43.128 52.3606 44.008 54.5206 44.008C56.6806 44.008 57.4646 43.128 57.4646 40.728C57.4646 38.328 56.6806 37.512 54.5206 37.512C52.3606 37.512 51.5766 38.328 51.5766 40.728ZM60.7183 36.52L62.4783 43.368C62.5103 43.48 62.5743 43.624 62.6543 43.624C62.7663 43.624 62.7823 43.464 62.8143 43.384L64.4783 37.16C64.6703 36.472 65.1983 36.424 65.4863 36.424C65.7743 36.424 66.3183 36.472 66.5103 37.16L68.1743 43.384C68.1903 43.464 68.2383 43.624 68.3343 43.624C68.4143 43.624 68.4783 43.496 68.5103 43.368L70.2703 36.52H71.5823L69.5343 44.168C69.3743 44.76 69.0543 45.096 68.3983 45.096C67.6943 45.096 67.3423 44.696 67.2303 44.264L65.6303 38.296C65.5983 38.2 65.5663 38.008 65.4863 38.008C65.4223 38.008 65.3743 38.2 65.3423 38.296L63.7423 44.264C63.6302 44.696 63.3103 45.096 62.5903 45.096C61.9183 45.096 61.6143 44.76 61.4543 44.168L59.4062 36.52H60.7183ZM80.3365 45H79.3285C77.2165 45 76.6245 43.992 76.6245 42.28V37.608H75.3765V36.52H76.6245V33.8H77.9685V36.52H80.3365V37.608H77.9685V42.2C77.9685 43.512 78.4805 43.912 79.7765 43.912H80.3365V45ZM81.2063 45V33.8H82.5503V36.52H85.4623C87.3343 36.52 88.4062 37.32 88.4062 39.4V45H87.0623V39.576C87.0623 38.296 86.5663 37.608 85.2863 37.608H82.5503V45H81.2063ZM97.2191 45H92.7871C90.2591 45 89.7311 43.352 89.7311 40.792C89.7311 37.672 90.7231 36.424 93.5871 36.424C95.8431 36.424 97.4431 37.16 97.4431 39.72C97.4431 40.696 97.1391 41.208 96.1791 41.208H91.1231C91.1231 42.584 91.3631 43.912 93.0751 43.912H97.2191V45ZM91.1231 40.12H95.6511C95.9711 40.12 96.0351 39.88 96.0351 39.688V39.624C96.0351 38.024 95.0271 37.512 93.6031 37.512C91.8591 37.512 91.1231 38.184 91.1231 40.12ZM102.999 36.52L105.559 43.384C105.623 43.56 105.687 43.736 105.783 43.736C105.895 43.736 105.959 43.56 106.023 43.384L108.567 36.52H109.959L106.871 44.36C106.599 45.048 106.183 45.096 105.783 45.096C105.383 45.096 104.967 45.048 104.695 44.36L101.607 36.52H102.999ZM110.871 36.52H115.335C116.839 36.52 117.543 37.448 117.543 38.84V43.72C117.543 44.584 117.207 45 116.215 45H112.439C110.887 45 110.231 44.168 110.231 42.408C110.231 40.728 110.887 39.832 112.439 39.832H116.199V38.824C116.199 38.104 115.847 37.608 114.999 37.608H110.871V36.52ZM116.199 40.92H112.695C111.863 40.92 111.639 41.496 111.639 42.408C111.639 43.32 111.863 43.912 112.695 43.912H115.751C116.055 43.912 116.199 43.736 116.199 43.48V40.92ZM119.144 45V33.8H120.488V45H119.144ZM129.377 36.52V43.608C129.377 44.504 129.009 45 128.081 45H124.945C123.105 45 122.081 44.2 122.081 42.248V36.52H123.425V42.008C123.425 43.16 123.841 43.912 125.121 43.912H127.537C127.857 43.912 128.033 43.8 128.033 43.368V36.52H129.377ZM138.188 45H133.756C131.228 45 130.7 43.352 130.7 40.792C130.7 37.672 131.692 36.424 134.556 36.424C136.812 36.424 138.412 37.16 138.412 39.72C138.412 40.696 138.108 41.208 137.148 41.208H132.092C132.092 42.584 132.332 43.912 134.044 43.912H138.188V45ZM132.092 40.12H136.62C136.94 40.12 137.004 39.88 137.004 39.688V39.624C137.004 38.024 135.996 37.512 134.572 37.512C132.828 37.512 132.092 38.184 132.092 40.12ZM147.552 36.424C150.592 36.424 151.904 37.528 151.904 40.728C151.904 43.944 150.592 45.096 147.552 45.096C144.512 45.096 143.2 43.944 143.2 40.728C143.2 37.528 144.512 36.424 147.552 36.424ZM144.608 40.728C144.608 43.128 145.392 44.008 147.552 44.008C149.712 44.008 150.496 43.128 150.496 40.728C150.496 38.328 149.712 37.512 147.552 37.512C145.392 37.512 144.608 38.328 144.608 40.728ZM154.998 45H153.654V37.608H152.438V36.52H153.654C153.654 34.264 155.19 33.704 157.302 33.704V34.776C156.07 34.776 155.062 34.968 154.998 36.52H157.302V37.608H154.998V45ZM162.343 36.52L164.103 43.368C164.135 43.48 164.199 43.624 164.279 43.624C164.391 43.624 164.407 43.464 164.439 43.384L166.103 37.16C166.295 36.472 166.823 36.424 167.111 36.424C167.399 36.424 167.943 36.472 168.135 37.16L169.799 43.384C169.815 43.464 169.863 43.624 169.959 43.624C170.039 43.624 170.103 43.496 170.135 43.368L171.895 36.52H173.207L171.159 44.168C170.999 44.76 170.679 45.096 170.023 45.096C169.319 45.096 168.967 44.696 168.855 44.264L167.255 38.296C167.223 38.2 167.191 38.008 167.111 38.008C167.047 38.008 166.999 38.2 166.967 38.296L165.367 44.264C165.255 44.696 164.935 45.096 164.215 45.096C163.543 45.096 163.239 44.76 163.079 44.168L161.031 36.52H162.343ZM174.003 45V33.8H175.347V36.52H178.259C180.131 36.52 181.203 37.32 181.203 39.4V45H179.859V39.576C179.859 38.296 179.363 37.608 178.083 37.608H175.347V45H174.003ZM183.168 36.52H187.632C189.136 36.52 189.84 37.448 189.84 38.84V43.72C189.84 44.584 189.504 45 188.512 45H184.736C183.184 45 182.528 44.168 182.528 42.408C182.528 40.728 183.184 39.832 184.736 39.832H188.496V38.824C188.496 38.104 188.144 37.608 187.296 37.608H183.168V36.52ZM188.496 40.92H184.992C184.16 40.92 183.936 41.496 183.936 42.408C183.936 43.32 184.16 43.912 184.992 43.912H188.048C188.352 43.912 188.496 43.736 188.496 43.48V40.92ZM195.665 45H194.657C192.545 45 191.953 43.992 191.953 42.28V37.608H190.705V36.52H191.953V33.8H193.297V36.52H195.665V37.608H193.297V42.2C193.297 43.512 193.809 43.912 195.105 43.912H195.665V45ZM201.997 45H200.509V33.8H201.997V45ZM31.168 55.52H35.632C37.136 55.52 37.84 56.448 37.84 57.84V62.72C37.84 63.584 37.504 64 36.512 64H32.736C31.184 64 30.528 63.168 30.528 61.408C30.528 59.728 31.184 58.832 32.736 58.832H36.496V57.824C36.496 57.104 36.144 56.608 35.296 56.608H31.168V55.52ZM36.496 59.92H32.992C32.16 59.92 31.936 60.496 31.936 61.408C31.936 62.32 32.16 62.912 32.992 62.912H36.048C36.352 62.912 36.496 62.736 36.496 62.48V59.92ZM39.4406 64V56.912C39.4406 56.032 39.8086 55.52 40.7366 55.52H48.3206C50.1606 55.52 51.1846 56.32 51.1846 58.272V64H49.8406V58.512C49.8406 57.36 49.4246 56.608 48.1446 56.608H45.9846V64H44.6406V56.608H41.2806C40.9606 56.608 40.7846 56.72 40.7846 57.152V64H39.4406ZM64.3331 55.424C67.3731 55.424 68.6851 56.528 68.6851 59.728C68.6851 62.944 67.3731 64.096 64.3331 64.096C61.2931 64.096 59.9811 62.944 59.9811 59.728C59.9811 56.528 61.2931 55.424 64.3331 55.424ZM61.3891 59.728C61.3891 62.128 62.1731 63.008 64.3331 63.008C66.4931 63.008 67.2771 62.128 67.2771 59.728C67.2771 57.328 66.4931 56.512 64.3331 56.512C62.1731 56.512 61.3891 57.328 61.3891 59.728ZM71.7788 64H70.4348V56.608H69.2188V55.52H70.4348C70.4348 53.264 71.9708 52.704 74.0828 52.704V53.776C72.8508 53.776 71.8428 53.968 71.7788 55.52H74.0828V56.608H71.7788V64ZM77.2788 64H75.9348V56.608H74.7188V55.52H75.9348C75.9348 53.264 77.4708 52.704 79.5828 52.704V53.776C78.3508 53.776 77.3428 53.968 77.2788 55.52H79.5828V56.608H77.2788V64ZM87.4379 64H83.0059C80.4779 64 79.9499 62.352 79.9499 59.792C79.9499 56.672 80.9419 55.424 83.8059 55.424C86.0619 55.424 87.6619 56.16 87.6619 58.72C87.6619 59.696 87.3579 60.208 86.3979 60.208H81.3419C81.3419 61.584 81.5819 62.912 83.2939 62.912H87.4379V64ZM81.3419 59.12H85.8699C86.1899 59.12 86.2539 58.88 86.2539 58.688V58.624C86.2539 57.024 85.2459 56.512 83.8219 56.512C82.0779 56.512 81.3419 57.184 81.3419 59.12ZM88.9875 64V58.576C88.9875 56.48 90.0115 55.52 92.1075 55.52H93.0355V56.608H92.3475C90.8755 56.608 90.3315 57.36 90.3315 58.912V64H88.9875ZM93.8473 64V55.52H95.1913V64H93.8473ZM95.2073 54.272H93.8313V52.8H95.2073V54.272ZM96.8 64V56.912C96.8 56.032 97.168 55.52 98.096 55.52H101.136C102.976 55.52 104 56.32 104 58.272V64H102.656V58.512C102.656 57.36 102.24 56.608 100.96 56.608H98.64C98.32 56.608 98.144 56.72 98.144 57.152V64H96.8ZM111.597 64H108.845C106.045 64 105.325 62.48 105.325 59.76C105.325 57.12 106.045 55.52 108.845 55.52H110.813C112.141 55.52 112.957 55.712 112.957 56.992V63.184C112.957 65.52 112.109 66.752 109.453 66.752H105.917V65.664H109.453C110.589 65.664 111.469 65.184 111.597 64ZM111.613 62.912V57.184C111.613 56.816 111.437 56.608 111.005 56.608H109.101C107.069 56.608 106.733 57.76 106.733 59.76C106.733 61.84 107.069 62.912 109.101 62.912H111.613ZM118.652 55.52H123.116C124.62 55.52 125.324 56.448 125.324 57.84V62.72C125.324 63.584 124.988 64 123.996 64H120.22C118.668 64 118.012 63.168 118.012 61.408C118.012 59.728 118.668 58.832 120.22 58.832H123.98V57.824C123.98 57.104 123.628 56.608 122.78 56.608H118.652V55.52ZM123.98 59.92H120.476C119.644 59.92 119.42 60.496 119.42 61.408C119.42 62.32 119.644 62.912 120.476 62.912H123.532C123.836 62.912 123.98 62.736 123.98 62.48V59.92ZM126.925 64V56.912C126.925 56.032 127.293 55.52 128.221 55.52H131.261C133.101 55.52 134.125 56.32 134.125 58.272V64H132.781V58.512C132.781 57.36 132.365 56.608 131.085 56.608H128.765C128.445 56.608 128.269 56.72 128.269 57.152V64H126.925ZM141.562 64H138.97C136.17 64 135.45 62.48 135.45 59.76C135.45 57.12 136.17 55.52 138.97 55.52H141.514V52.8H142.858V62.672C142.858 63.504 142.538 64 141.562 64ZM141.514 56.624H139.226C137.194 56.624 136.858 57.76 136.858 59.76C136.858 61.84 137.194 62.912 139.226 62.912H140.954C141.402 62.912 141.514 62.736 141.514 62.304V56.624ZM154.191 64H151.439C148.639 64 147.919 62.48 147.919 59.76C147.919 57.12 148.639 55.52 151.439 55.52H153.407C154.735 55.52 155.551 55.712 155.551 56.992V63.184C155.551 65.52 154.703 66.752 152.047 66.752H148.511V65.664H152.047C153.183 65.664 154.063 65.184 154.191 64ZM154.207 62.912V57.184C154.207 56.816 154.031 56.608 153.599 56.608H151.695C149.663 56.608 149.327 57.76 149.327 59.76C149.327 61.84 149.663 62.912 151.695 62.912H154.207ZM164.36 64H159.928C157.4 64 156.872 62.352 156.872 59.792C156.872 56.672 157.864 55.424 160.728 55.424C162.984 55.424 164.584 56.16 164.584 58.72C164.584 59.696 164.28 60.208 163.32 60.208H158.264C158.264 61.584 158.504 62.912 160.216 62.912H164.36V64ZM158.264 59.12H162.792C163.112 59.12 163.176 58.88 163.176 58.688V58.624C163.176 57.024 162.168 56.512 160.744 56.512C159 56.512 158.264 57.184 158.264 59.12ZM170.133 64H169.125C167.013 64 166.421 62.992 166.421 61.28V56.608H165.173V55.52H166.421V52.8H167.765V55.52H170.133V56.608H167.765V61.2C167.765 62.512 168.277 62.912 169.573 62.912H170.133V64ZM175.868 64H174.86C172.748 64 172.156 62.992 172.156 61.28V56.608H170.908V55.52H172.156V52.8H173.5V55.52H175.868V56.608H173.5V61.2C173.5 62.512 174.012 62.912 175.308 62.912H175.868V64ZM176.754 64V55.52H178.098V64H176.754ZM178.114 54.272H176.738V52.8H178.114V54.272ZM179.706 64V56.912C179.706 56.032 180.074 55.52 181.002 55.52H184.042C185.882 55.52 186.906 56.32 186.906 58.272V64H185.562V58.512C185.562 57.36 185.146 56.608 183.866 56.608H181.546C181.226 56.608 181.05 56.72 181.05 57.152V64H179.706ZM194.503 64H191.751C188.951 64 188.231 62.48 188.231 59.76C188.231 57.12 188.951 55.52 191.751 55.52H193.719C195.047 55.52 195.863 55.712 195.863 56.992V63.184C195.863 65.52 195.015 66.752 192.359 66.752H188.823V65.664H192.359C193.495 65.664 194.375 65.184 194.503 64ZM194.519 62.912V57.184C194.519 56.816 194.343 56.608 193.911 56.608H192.007C189.975 56.608 189.639 57.76 189.639 59.76C189.639 61.84 189.975 62.912 192.007 62.912H194.519Z" fill="white"/>
<path d="M409.699 139V137.784H414.307C415.523 137.784 416.179 137.672 416.179 135.96C416.179 134.792 415.987 133.96 414.467 133.96H409.987V132.744H414.371C415.731 132.744 416.067 132.2 416.067 130.872C416.067 129.896 415.939 129.016 414.739 129.016H409.907V127.8H415.075C417.027 127.8 417.603 128.808 417.603 130.76C417.603 131.88 417.427 133.144 416.019 133.32V133.384C417.363 133.512 417.731 134.664 417.731 135.96C417.731 137.688 417.267 139 415.219 139H409.699ZM420.784 139H419.328V137.272H420.784V139ZM436.6 139H429.608C428.632 139 428.04 138.536 428.04 137.416V129.384C428.04 128.184 428.632 127.8 429.608 127.8H436.536V129.016H430.264C429.64 129.016 429.528 129.208 429.528 129.768V132.664H436.376V133.88H429.528V137.016C429.528 137.576 429.64 137.784 430.264 137.784H436.6V139ZM438.452 130.52L441.012 137.384C441.076 137.56 441.14 137.736 441.236 137.736C441.348 137.736 441.412 137.56 441.476 137.384L444.02 130.52H445.412L442.324 138.36C442.052 139.048 441.636 139.096 441.236 139.096C440.836 139.096 440.42 139.048 440.148 138.36L437.06 130.52H438.452ZM453.329 139H448.897C446.368 139 445.84 137.352 445.84 134.792C445.84 131.672 446.833 130.424 449.697 130.424C451.953 130.424 453.553 131.16 453.553 133.72C453.553 134.696 453.249 135.208 452.289 135.208H447.233C447.233 136.584 447.473 137.912 449.185 137.912H453.329V139ZM447.233 134.12H451.761C452.081 134.12 452.145 133.88 452.145 133.688V133.624C452.145 132.024 451.137 131.512 449.713 131.512C447.969 131.512 447.233 132.184 447.233 134.12ZM454.878 139V131.912C454.878 131.032 455.246 130.52 456.174 130.52H459.214C461.054 130.52 462.078 131.32 462.078 133.272V139H460.734V133.512C460.734 132.36 460.318 131.608 459.038 131.608H456.718C456.398 131.608 456.222 131.72 456.222 132.152V139H454.878ZM467.425 139V130.52H468.769V139H467.425ZM468.785 129.272H467.409V127.8H468.785V129.272ZM472.138 139H470.794V131.608H469.578V130.52H470.794C470.794 128.264 472.33 127.704 474.442 127.704V128.776C473.21 128.776 472.202 128.968 472.138 130.52H474.442V131.608H472.138V139ZM484.812 139H482.22C479.42 139 478.7 137.48 478.7 134.76C478.7 132.12 479.42 130.52 482.22 130.52H484.764V127.8H486.108V137.672C486.108 138.504 485.788 139 484.812 139ZM484.764 131.624H482.476C480.444 131.624 480.108 132.76 480.108 134.76C480.108 136.84 480.444 137.912 482.476 137.912H484.204C484.652 137.912 484.764 137.736 484.764 137.304V131.624ZM494.922 139H490.49C487.962 139 487.434 137.352 487.434 134.792C487.434 131.672 488.426 130.424 491.29 130.424C493.546 130.424 495.146 131.16 495.146 133.72C495.146 134.696 494.842 135.208 493.882 135.208H488.826C488.826 136.584 489.066 137.912 490.778 137.912H494.922V139ZM488.826 134.12H493.354C493.674 134.12 493.738 133.88 493.738 133.688V133.624C493.738 132.024 492.73 131.512 491.306 131.512C489.562 131.512 488.826 132.184 488.826 134.12ZM496.28 139V137.912H501.096C501.8 137.912 502.12 137.544 502.12 136.84C502.12 135.944 501.352 135.784 500.04 135.464L498.488 135.08C496.872 134.68 496.152 134.056 496.152 132.632C496.152 131.208 496.952 130.52 498.44 130.52H503.032V131.608H498.584C497.8 131.608 497.496 131.88 497.496 132.632C497.496 133.576 498.152 133.8 499.08 134.04L500.76 134.472C502.472 134.904 503.528 135.208 503.528 136.856C503.528 138.168 503.048 139 501.432 139H496.28ZM506.16 139V141.72H504.816V131.848C504.816 130.888 505.376 130.52 506.208 130.52H508.752C511.472 130.52 512.224 132.088 512.224 134.728C512.224 137.368 511.472 139 508.752 139H506.16ZM506.16 132.104V137.912H508.512C510.544 137.912 510.816 136.568 510.816 134.728C510.816 132.888 510.544 131.608 508.512 131.608H506.656C506.336 131.608 506.16 131.72 506.16 132.104ZM520.766 139H516.334C513.806 139 513.278 137.352 513.278 134.792C513.278 131.672 514.27 130.424 517.134 130.424C519.39 130.424 520.99 131.16 520.99 133.72C520.99 134.696 520.686 135.208 519.726 135.208H514.67C514.67 136.584 514.91 137.912 516.622 137.912H520.766V139ZM514.67 134.12H519.198C519.518 134.12 519.582 133.88 519.582 133.688V133.624C519.582 132.024 518.574 131.512 517.15 131.512C515.406 131.512 514.67 132.184 514.67 134.12ZM522.316 139V133.576C522.316 131.48 523.34 130.52 525.436 130.52H526.364V131.608H525.676C524.204 131.608 523.66 132.36 523.66 133.912V139H522.316ZM527.215 130.52H531.679C533.183 130.52 533.887 131.448 533.887 132.84V137.72C533.887 138.584 533.551 139 532.559 139H528.783C527.231 139 526.575 138.168 526.575 136.408C526.575 134.728 527.231 133.832 528.783 133.832H532.543V132.824C532.543 132.104 532.191 131.608 531.343 131.608H527.215V130.52ZM532.543 134.92H529.039C528.207 134.92 527.983 135.496 527.983 136.408C527.983 137.32 528.207 137.912 529.039 137.912H532.095C532.399 137.912 532.543 137.736 532.543 137.48V134.92ZM539.712 139H538.704C536.592 139 536 137.992 536 136.28V131.608H534.752V130.52H536V127.8H537.344V130.52H539.712V131.608H537.344V136.2C537.344 137.512 537.856 137.912 539.152 137.912H539.712V139ZM547.797 139H543.365C540.837 139 540.309 137.352 540.309 134.792C540.309 131.672 541.301 130.424 544.165 130.424C546.421 130.424 548.021 131.16 548.021 133.72C548.021 134.696 547.717 135.208 546.757 135.208H541.701C541.701 136.584 541.941 137.912 543.653 137.912H547.797V139ZM541.701 134.12H546.229C546.549 134.12 546.613 133.88 546.613 133.688V133.624C546.613 132.024 545.605 131.512 544.181 131.512C542.437 131.512 541.701 132.184 541.701 134.12ZM549.635 140.616L548.547 139.96L550.291 137.048L551.443 137.736L549.635 140.616ZM427.8 158V150.912C427.8 150.032 428.168 149.52 429.096 149.52H432.136C433.976 149.52 435 150.32 435 152.272V158H433.656V152.512C433.656 151.36 433.24 150.608 431.96 150.608H429.64C429.32 150.608 429.144 150.72 429.144 151.152V158H427.8ZM443.813 158H439.381C436.853 158 436.325 156.352 436.325 153.792C436.325 150.672 437.317 149.424 440.181 149.424C442.437 149.424 444.037 150.16 444.037 152.72C444.037 153.696 443.733 154.208 442.773 154.208H437.717C437.717 155.584 437.957 156.912 439.669 156.912H443.813V158ZM437.717 153.12H442.245C442.565 153.12 442.629 152.88 442.629 152.688V152.624C442.629 151.024 441.621 150.512 440.197 150.512C438.453 150.512 437.717 151.184 437.717 153.12ZM445.859 149.52L448.419 156.384C448.483 156.56 448.547 156.736 448.643 156.736C448.755 156.736 448.819 156.56 448.883 156.384L451.427 149.52H452.819L449.731 157.36C449.459 158.048 449.043 158.096 448.643 158.096C448.243 158.096 447.827 158.048 447.555 157.36L444.466 149.52H445.859ZM460.735 158H456.303C453.775 158 453.247 156.352 453.247 153.792C453.247 150.672 454.239 149.424 457.103 149.424C459.359 149.424 460.959 150.16 460.959 152.72C460.959 153.696 460.655 154.208 459.695 154.208H454.639C454.639 155.584 454.879 156.912 456.591 156.912H460.735V158ZM454.639 153.12H459.167C459.487 153.12 459.551 152.88 459.551 152.688V152.624C459.551 151.024 458.543 150.512 457.119 150.512C455.375 150.512 454.639 151.184 454.639 153.12ZM462.284 158V152.576C462.284 150.48 463.308 149.52 465.404 149.52H466.332V150.608H465.644C464.172 150.608 463.628 151.36 463.628 152.912V158H462.284ZM470.863 158V146.8H472.207V158H470.863ZM481.016 158H476.584C474.056 158 473.528 156.352 473.528 153.792C473.528 150.672 474.52 149.424 477.384 149.424C479.64 149.424 481.24 150.16 481.24 152.72C481.24 153.696 480.936 154.208 479.976 154.208H474.92C474.92 155.584 475.16 156.912 476.872 156.912H481.016V158ZM474.92 153.12H479.448C479.768 153.12 479.832 152.88 479.832 152.688V152.624C479.832 151.024 478.824 150.512 477.4 150.512C475.656 150.512 474.92 151.184 474.92 153.12ZM486.79 158H485.782C483.67 158 483.078 156.992 483.078 155.28V150.608H481.83V149.52H483.078V146.8H484.422V149.52H486.79V150.608H484.422V155.2C484.422 156.512 484.934 156.912 486.23 156.912H486.79V158ZM491.41 158V149.52H492.754V158H491.41ZM492.77 148.272H491.394V146.8H492.77V148.272ZM498.587 158H497.579C495.467 158 494.875 156.992 494.875 155.28V150.608H493.627V149.52H494.875V146.8H496.219V149.52H498.587V150.608H496.219V155.2C496.219 156.512 496.731 156.912 498.027 156.912H498.587V158ZM502.999 158V156.912H507.815C508.519 156.912 508.839 156.544 508.839 155.84C508.839 154.944 508.071 154.784 506.759 154.464L505.207 154.08C503.591 153.68 502.871 153.056 502.871 151.632C502.871 150.208 503.671 149.52 505.159 149.52H509.751V150.608H505.303C504.519 150.608 504.215 150.88 504.215 151.632C504.215 152.576 504.871 152.8 505.799 153.04L507.479 153.472C509.191 153.904 510.247 154.208 510.247 155.856C510.247 157.168 509.767 158 508.151 158H502.999ZM511.534 158V146.8H512.878V149.52H515.79C517.662 149.52 518.734 150.32 518.734 152.4V158H517.39V152.576C517.39 151.296 516.894 150.608 515.614 150.608H512.878V158H511.534ZM524.411 149.424C527.451 149.424 528.763 150.528 528.763 153.728C528.763 156.944 527.451 158.096 524.411 158.096C521.371 158.096 520.059 156.944 520.059 153.728C520.059 150.528 521.371 149.424 524.411 149.424ZM521.467 153.728C521.467 156.128 522.251 157.008 524.411 157.008C526.571 157.008 527.355 156.128 527.355 153.728C527.355 151.328 526.571 150.512 524.411 150.512C522.251 150.512 521.467 151.328 521.467 153.728ZM530.609 149.52L532.369 156.368C532.401 156.48 532.465 156.624 532.545 156.624C532.657 156.624 532.673 156.464 532.705 156.384L534.369 150.16C534.561 149.472 535.089 149.424 535.377 149.424C535.665 149.424 536.209 149.472 536.401 150.16L538.065 156.384C538.081 156.464 538.129 156.624 538.225 156.624C538.305 156.624 538.369 156.496 538.401 156.368L540.161 149.52H541.473L539.425 157.168C539.265 157.76 538.945 158.096 538.289 158.096C537.585 158.096 537.233 157.696 537.121 157.264L535.521 151.296C535.489 151.2 535.457 151.008 535.377 151.008C535.313 151.008 535.265 151.2 535.233 151.296L533.633 157.264C533.521 157.696 533.201 158.096 532.481 158.096C531.809 158.096 531.505 157.76 531.345 157.168L529.297 149.52H530.609Z" fill="white"/>
<path d="M414.503 228V225.968H408.871C408.215 225.968 407.655 225.648 407.655 224.736C407.655 224.368 407.767 224.016 408.167 223.568L413.735 217.28C414.135 216.832 414.583 216.672 415.015 216.672C415.735 216.672 415.991 217.04 415.991 217.728V224.752H417.287V225.968H415.991V228H414.503ZM414.503 224.752V218.384C414.503 218.336 414.487 218.32 414.439 218.32C414.391 218.32 414.359 218.352 414.247 218.48L409.303 224.192C409.191 224.32 409.095 224.448 409.095 224.56C409.095 224.688 409.207 224.752 409.399 224.752H414.503ZM419.784 228H418.328V226.272H419.784V228ZM437.136 216.8V226.72C437.136 227.664 436.592 228.128 435.792 228.128C435.184 228.128 434.752 227.936 434.32 227.248L429.04 218.8C428.928 218.608 428.832 218.528 428.72 218.528C428.656 218.528 428.496 218.592 428.496 218.848V228H427.04V218C427.04 216.976 427.792 216.672 428.416 216.672C429.232 216.672 429.584 217.056 429.856 217.488L435.184 226C435.264 226.128 435.328 226.272 435.488 226.272C435.68 226.272 435.68 226.096 435.68 226V216.8H437.136ZM446.188 228H441.756C439.228 228 438.7 226.352 438.7 223.792C438.7 220.672 439.692 219.424 442.556 219.424C444.812 219.424 446.412 220.16 446.412 222.72C446.412 223.696 446.108 224.208 445.148 224.208H440.092C440.092 225.584 440.332 226.912 442.044 226.912H446.188V228ZM440.092 223.12H444.62C444.94 223.12 445.004 222.88 445.004 222.688V222.624C445.004 221.024 443.996 220.512 442.572 220.512C440.828 220.512 440.092 221.184 440.092 223.12ZM448.234 219.52L450.794 226.384C450.858 226.56 450.922 226.736 451.018 226.736C451.13 226.736 451.194 226.56 451.258 226.384L453.802 219.52H455.194L452.106 227.36C451.834 228.048 451.418 228.096 451.018 228.096C450.618 228.096 450.202 228.048 449.93 227.36L446.841 219.52H448.234ZM463.11 228H458.678C456.15 228 455.622 226.352 455.622 223.792C455.622 220.672 456.614 219.424 459.478 219.424C461.734 219.424 463.334 220.16 463.334 222.72C463.334 223.696 463.03 224.208 462.07 224.208H457.014C457.014 225.584 457.254 226.912 458.966 226.912H463.11V228ZM457.014 223.12H461.542C461.862 223.12 461.926 222.88 461.926 222.688V222.624C461.926 221.024 460.918 220.512 459.494 220.512C457.75 220.512 457.014 221.184 457.014 223.12ZM464.659 228V222.576C464.659 220.48 465.683 219.52 467.779 219.52H468.707V220.608H468.019C466.547 220.608 466.003 221.36 466.003 222.912V228H464.659ZM473.238 228V222.576C473.238 220.48 474.262 219.52 476.358 219.52H477.286V220.608H476.598C475.126 220.608 474.582 221.36 474.582 222.912V228H473.238ZM484.985 228H480.553C478.025 228 477.497 226.352 477.497 223.792C477.497 220.672 478.489 219.424 481.353 219.424C483.609 219.424 485.209 220.16 485.209 222.72C485.209 223.696 484.905 224.208 483.945 224.208H478.889C478.889 225.584 479.129 226.912 480.841 226.912H484.985V228ZM478.889 223.12H483.417C483.737 223.12 483.801 222.88 483.801 222.688V222.624C483.801 221.024 482.793 220.512 481.369 220.512C479.625 220.512 478.889 221.184 478.889 223.12ZM487.03 219.52L489.59 226.384C489.654 226.56 489.718 226.736 489.814 226.736C489.926 226.736 489.99 226.56 490.054 226.384L492.598 219.52H493.99L490.902 227.36C490.63 228.048 490.214 228.096 489.814 228.096C489.414 228.096 488.998 228.048 488.726 227.36L485.638 219.52H487.03ZM501.907 228H497.475C494.947 228 494.419 226.352 494.419 223.792C494.419 220.672 495.411 219.424 498.275 219.424C500.531 219.424 502.131 220.16 502.131 222.72C502.131 223.696 501.827 224.208 500.867 224.208H495.811C495.811 225.584 496.051 226.912 497.763 226.912H501.907V228ZM495.811 223.12H500.339C500.659 223.12 500.723 222.88 500.723 222.688V222.624C500.723 221.024 499.715 220.512 498.291 220.512C496.547 220.512 495.811 221.184 495.811 223.12ZM503.824 219.52H508.288C509.792 219.52 510.496 220.448 510.496 221.84V226.72C510.496 227.584 510.16 228 509.168 228H505.392C503.84 228 503.184 227.168 503.184 225.408C503.184 223.728 503.84 222.832 505.392 222.832H509.152V221.824C509.152 221.104 508.8 220.608 507.952 220.608H503.824V219.52ZM509.152 223.92H505.648C504.816 223.92 504.592 224.496 504.592 225.408C504.592 226.32 504.816 226.912 505.648 226.912H508.704C509.008 226.912 509.152 226.736 509.152 226.48V223.92ZM512.097 228V216.8H513.441V228H512.097ZM519.281 219.52L521.041 226.368C521.073 226.48 521.137 226.624 521.217 226.624C521.329 226.624 521.345 226.464 521.377 226.384L523.041 220.16C523.233 219.472 523.761 219.424 524.049 219.424C524.337 219.424 524.881 219.472 525.073 220.16L526.737 226.384C526.753 226.464 526.801 226.624 526.897 226.624C526.977 226.624 527.041 226.496 527.073 226.368L528.833 219.52H530.145L528.097 227.168C527.937 227.76 527.617 228.096 526.961 228.096C526.257 228.096 525.905 227.696 525.793 227.264L524.193 221.296C524.161 221.2 524.129 221.008 524.049 221.008C523.985 221.008 523.937 221.2 523.905 221.296L522.305 227.264C522.193 227.696 521.873 228.096 521.153 228.096C520.481 228.096 520.177 227.76 520.017 227.168L517.969 219.52H519.281ZM530.941 228V216.8H532.285V219.52H535.197C537.069 219.52 538.141 220.32 538.141 222.4V228H536.797V222.576C536.797 221.296 536.301 220.608 535.021 220.608H532.285V228H530.941ZM547.469 219.52L542.413 230.736H541.005L542.301 228L538.621 219.52H540.029L542.989 226.528L546.061 219.52H547.469ZM559.735 219.52L554.679 230.736H553.271L554.567 228L550.887 219.52H552.295L555.255 226.528L558.327 219.52H559.735ZM564.458 219.424C567.498 219.424 568.81 220.528 568.81 223.728C568.81 226.944 567.498 228.096 564.458 228.096C561.418 228.096 560.106 226.944 560.106 223.728C560.106 220.528 561.418 219.424 564.458 219.424ZM561.514 223.728C561.514 226.128 562.298 227.008 564.458 227.008C566.618 227.008 567.402 226.128 567.402 223.728C567.402 221.328 566.618 220.512 564.458 220.512C562.298 220.512 561.514 221.328 561.514 223.728ZM577.44 219.52V226.608C577.44 227.504 577.072 228 576.144 228H573.008C571.168 228 570.144 227.2 570.144 225.248V219.52H571.488V225.008C571.488 226.16 571.904 226.912 573.184 226.912H575.6C575.92 226.912 576.096 226.8 576.096 226.368V219.52H577.44ZM426.8 247V239.912C426.8 239.032 427.168 238.52 428.096 238.52H431.136C432.976 238.52 434 239.32 434 241.272V247H432.656V241.512C432.656 240.36 432.24 239.608 430.96 239.608H428.64C428.32 239.608 428.144 239.72 428.144 240.152V247H426.8ZM442.813 247H438.381C435.853 247 435.325 245.352 435.325 242.792C435.325 239.672 436.317 238.424 439.181 238.424C441.437 238.424 443.037 239.16 443.037 241.72C443.037 242.696 442.733 243.208 441.773 243.208H436.717C436.717 244.584 436.957 245.912 438.669 245.912H442.813V247ZM436.717 242.12H441.245C441.565 242.12 441.629 241.88 441.629 241.688V241.624C441.629 240.024 440.621 239.512 439.197 239.512C437.453 239.512 436.717 240.184 436.717 242.12ZM451.579 247H447.147C444.618 247 444.09 245.352 444.09 242.792C444.09 239.672 445.083 238.424 447.947 238.424C450.203 238.424 451.803 239.16 451.803 241.72C451.803 242.696 451.499 243.208 450.539 243.208H445.483C445.483 244.584 445.723 245.912 447.435 245.912H451.579V247ZM445.483 242.12H450.011C450.331 242.12 450.395 241.88 450.395 241.688V241.624C450.395 240.024 449.387 239.512 447.963 239.512C446.219 239.512 445.483 240.184 445.483 242.12ZM458.968 247H456.376C453.576 247 452.856 245.48 452.856 242.76C452.856 240.12 453.576 238.52 456.376 238.52H458.92V235.8H460.264V245.672C460.264 246.504 459.944 247 458.968 247ZM458.92 239.624H456.632C454.6 239.624 454.264 240.76 454.264 242.76C454.264 244.84 454.6 245.912 456.632 245.912H458.36C458.808 245.912 458.92 245.736 458.92 245.304V239.624ZM465.405 247V245.912H470.221C470.925 245.912 471.245 245.544 471.245 244.84C471.245 243.944 470.477 243.784 469.165 243.464L467.613 243.08C465.997 242.68 465.277 242.056 465.277 240.632C465.277 239.208 466.077 238.52 467.565 238.52H472.157V239.608H467.709C466.925 239.608 466.621 239.88 466.621 240.632C466.621 241.576 467.277 241.8 468.205 242.04L469.885 242.472C471.597 242.904 472.653 243.208 472.653 244.856C472.653 246.168 472.173 247 470.557 247H465.405ZM478.021 238.424C481.061 238.424 482.373 239.528 482.373 242.728C482.373 245.944 481.061 247.096 478.021 247.096C474.981 247.096 473.669 245.944 473.669 242.728C473.669 239.528 474.981 238.424 478.021 238.424ZM475.077 242.728C475.077 245.128 475.861 246.008 478.021 246.008C480.181 246.008 480.965 245.128 480.965 242.728C480.965 240.328 480.181 239.512 478.021 239.512C475.861 239.512 475.077 240.328 475.077 242.728ZM483.706 247V239.912C483.706 239.032 484.074 238.52 485.002 238.52H492.586C494.426 238.52 495.45 239.32 495.45 241.272V247H494.106V241.512C494.106 240.36 493.69 239.608 492.41 239.608H490.25V247H488.906V239.608H485.546C485.226 239.608 485.05 239.72 485.05 240.152V247H483.706ZM504.266 247H499.834C497.306 247 496.778 245.352 496.778 242.792C496.778 239.672 497.77 238.424 500.634 238.424C502.89 238.424 504.49 239.16 504.49 241.72C504.49 242.696 504.186 243.208 503.226 243.208H498.17C498.17 244.584 498.41 245.912 500.122 245.912H504.266V247ZM498.17 242.12H502.698C503.018 242.12 503.082 241.88 503.082 241.688V241.624C503.082 240.024 502.074 239.512 500.65 239.512C498.906 239.512 498.17 240.184 498.17 242.12ZM510.04 247H509.032C506.92 247 506.328 245.992 506.328 244.28V239.608H505.08V238.52H506.328V235.8H507.672V238.52H510.04V239.608H507.672V244.2C507.672 245.512 508.184 245.912 509.48 245.912H510.04V247ZM510.909 247V235.8H512.253V238.52H515.165C517.037 238.52 518.109 239.32 518.109 241.4V247H516.765V241.576C516.765 240.296 516.269 239.608 514.989 239.608H512.253V247H510.909ZM519.722 247V238.52H521.066V247H519.722ZM521.082 237.272H519.706V235.8H521.082V237.272ZM522.675 247V239.912C522.675 239.032 523.043 238.52 523.971 238.52H527.011C528.851 238.52 529.875 239.32 529.875 241.272V247H528.531V241.512C528.531 240.36 528.115 239.608 526.835 239.608H524.515C524.195 239.608 524.019 239.72 524.019 240.152V247H522.675ZM537.472 247H534.72C531.92 247 531.2 245.48 531.2 242.76C531.2 240.12 531.92 238.52 534.72 238.52H536.688C538.016 238.52 538.832 238.712 538.832 239.992V246.184C538.832 248.52 537.984 249.752 535.328 249.752H531.792V248.664H535.328C536.464 248.664 537.344 248.184 537.472 247ZM537.488 245.912V240.184C537.488 239.816 537.312 239.608 536.88 239.608H534.976C532.944 239.608 532.608 240.76 532.608 242.76C532.608 244.84 532.944 245.912 534.976 245.912H537.488ZM540.713 248.616L539.625 247.96L541.369 245.048L542.521 245.736L540.713 248.616ZM547.749 247V245.912H552.565C553.269 245.912 553.589 245.544 553.589 244.84C553.589 243.944 552.821 243.784 551.509 243.464L549.957 243.08C548.341 242.68 547.621 242.056 547.621 240.632C547.621 239.208 548.421 238.52 549.909 238.52H554.501V239.608H550.053C549.269 239.608 548.965 239.88 548.965 240.632C548.965 241.576 549.621 241.8 550.549 242.04L552.229 242.472C553.941 242.904 554.997 243.208 554.997 244.856C554.997 246.168 554.517 247 552.901 247H547.749ZM560.352 247H559.344C557.232 247 556.64 245.992 556.64 244.28V239.608H555.392V238.52H556.64V235.8H557.984V238.52H560.352V239.608H557.984V244.2C557.984 245.512 558.496 245.912 559.792 245.912H560.352V247ZM561.238 247V238.52H562.582V247H561.238ZM562.598 237.272H561.222V235.8H562.598V237.272ZM570.911 247H567.519C564.639 247 563.919 245.384 563.919 242.744C563.919 240.184 564.639 238.52 567.519 238.52H570.735V239.608H567.759C565.647 239.608 565.327 240.824 565.327 242.744C565.327 244.744 565.647 245.912 567.759 245.912H570.911V247ZM579.412 247H577.684L574.532 243.896C574.276 243.64 573.924 243.16 573.924 242.616C573.924 242.056 574.244 241.672 574.548 241.368L577.364 238.52H579.012L575.572 241.96C575.428 242.104 575.284 242.296 575.284 242.568C575.284 242.872 575.508 243.144 575.716 243.352L579.412 247ZM573.316 247H571.972V235.8H573.316V247ZM431.024 266H430.016C427.904 266 427.312 264.992 427.312 263.28V258.608H426.064V257.52H427.312V254.8H428.656V257.52H431.024V258.608H428.656V263.2C428.656 264.512 429.168 264.912 430.464 264.912H431.024V266ZM435.818 257.424C438.858 257.424 440.17 258.528 440.17 261.728C440.17 264.944 438.858 266.096 435.818 266.096C432.778 266.096 431.465 264.944 431.465 261.728C431.465 258.528 432.778 257.424 435.818 257.424ZM432.874 261.728C432.874 264.128 433.658 265.008 435.818 265.008C437.978 265.008 438.762 264.128 438.762 261.728C438.762 259.328 437.978 258.512 435.818 258.512C433.658 258.512 432.874 259.328 432.874 261.728ZM445.75 257.52L447.51 264.368C447.542 264.48 447.606 264.624 447.686 264.624C447.798 264.624 447.814 264.464 447.846 264.384L449.51 258.16C449.702 257.472 450.23 257.424 450.518 257.424C450.806 257.424 451.35 257.472 451.542 258.16L453.206 264.384C453.222 264.464 453.27 264.624 453.366 264.624C453.446 264.624 453.51 264.496 453.542 264.368L455.302 257.52H456.614L454.566 265.168C454.406 265.76 454.086 266.096 453.43 266.096C452.726 266.096 452.374 265.696 452.262 265.264L450.662 259.296C450.63 259.2 450.598 259.008 450.518 259.008C450.454 259.008 450.406 259.2 450.374 259.296L448.774 265.264C448.661 265.696 448.342 266.096 447.622 266.096C446.95 266.096 446.646 265.76 446.486 265.168L444.438 257.52H445.75ZM457.409 266V254.8H458.753V257.52H461.665C463.537 257.52 464.609 258.32 464.609 260.4V266H463.265V260.576C463.265 259.296 462.769 258.608 461.489 258.608H458.753V266H457.409ZM466.574 257.52H471.038C472.542 257.52 473.246 258.448 473.246 259.84V264.72C473.246 265.584 472.91 266 471.918 266H468.142C466.59 266 465.934 265.168 465.934 263.408C465.934 261.728 466.59 260.832 468.142 260.832H471.902V259.824C471.902 259.104 471.55 258.608 470.702 258.608H466.574V257.52ZM471.902 261.92H468.398C467.566 261.92 467.342 262.496 467.342 263.408C467.342 264.32 467.566 264.912 468.398 264.912H471.454C471.758 264.912 471.902 264.736 471.902 264.48V261.92ZM479.071 266H478.063C475.951 266 475.359 264.992 475.359 263.28V258.608H474.111V257.52H475.359V254.8H476.703V257.52H479.071V258.608H476.703V263.2C476.703 264.512 477.215 264.912 478.511 264.912H479.071V266ZM491.563 257.52L486.507 268.736H485.099L486.395 266L482.715 257.52H484.123L487.083 264.528L490.155 257.52H491.563ZM496.286 257.424C499.326 257.424 500.638 258.528 500.638 261.728C500.638 264.944 499.326 266.096 496.286 266.096C493.246 266.096 491.934 264.944 491.934 261.728C491.934 258.528 493.246 257.424 496.286 257.424ZM493.342 261.728C493.342 264.128 494.126 265.008 496.286 265.008C498.446 265.008 499.23 264.128 499.23 261.728C499.23 259.328 498.446 258.512 496.286 258.512C494.126 258.512 493.342 259.328 493.342 261.728ZM509.268 257.52V264.608C509.268 265.504 508.9 266 507.972 266H504.836C502.996 266 501.972 265.2 501.972 263.248V257.52H503.316V263.008C503.316 264.16 503.732 264.912 505.012 264.912H507.428C507.748 264.912 507.924 264.8 507.924 264.368V257.52H509.268ZM514.597 266V258.912C514.597 258.032 514.965 257.52 515.893 257.52H518.933C520.773 257.52 521.797 258.32 521.797 260.272V266H520.453V260.512C520.453 259.36 520.037 258.608 518.757 258.608H516.437C516.117 258.608 515.941 258.72 515.941 259.152V266H514.597ZM530.61 266H526.178C523.65 266 523.122 264.352 523.122 261.792C523.122 258.672 524.114 257.424 526.978 257.424C529.234 257.424 530.834 258.16 530.834 260.72C530.834 261.696 530.53 262.208 529.57 262.208H524.514C524.514 263.584 524.754 264.912 526.466 264.912H530.61V266ZM524.514 261.12H529.042C529.362 261.12 529.426 260.88 529.426 260.688V260.624C529.426 259.024 528.418 258.512 526.994 258.512C525.25 258.512 524.514 259.184 524.514 261.12ZM539.375 266H534.943C532.415 266 531.887 264.352 531.887 261.792C531.887 258.672 532.879 257.424 535.743 257.424C537.999 257.424 539.599 258.16 539.599 260.72C539.599 261.696 539.295 262.208 538.335 262.208H533.279C533.279 263.584 533.519 264.912 535.231 264.912H539.375V266ZM533.279 261.12H537.807C538.127 261.12 538.191 260.88 538.191 260.688V260.624C538.191 259.024 537.183 258.512 535.759 258.512C534.015 258.512 533.279 259.184 533.279 261.12ZM546.765 266H544.173C541.373 266 540.653 264.48 540.653 261.76C540.653 259.12 541.373 257.52 544.173 257.52H546.717V254.8H548.061V264.672C548.061 265.504 547.741 266 546.765 266ZM546.717 258.624H544.429C542.397 258.624 542.061 259.76 542.061 261.76C542.061 263.84 542.397 264.912 544.429 264.912H546.157C546.605 264.912 546.717 264.736 546.717 264.304V258.624Z" fill="white"/>
<path d="M162.7 281V279.784H167.804C168.94 279.784 169.18 278.872 169.18 277.624C169.18 276.616 169.004 275.848 167.788 275.848H164.732C163.628 275.848 162.668 275.544 162.668 273.992V271.096C162.668 270.344 163.116 269.8 163.996 269.8H170.332V271.016H164.636C164.332 271.016 164.156 271.16 164.156 271.592V273.608C164.156 274.232 164.332 274.632 165.1 274.632H168.268C170.204 274.632 170.732 275.768 170.732 277.64C170.732 279.48 170.364 281 168.252 281H162.7ZM173.784 281H172.328V279.272H173.784V281ZM180.8 281V279.784H187.056C187.904 279.784 188.24 279.192 188.24 278.216C188.24 277.624 188.112 277.032 186.992 276.664L182.56 275.192C181.216 274.744 180.64 273.976 180.64 272.424C180.64 270.824 181.408 269.8 183.184 269.8H189.248V271.016H183.456C182.608 271.016 182.192 271.416 182.192 272.456C182.192 273.064 182.256 273.656 183.248 273.992L187.472 275.4C188.96 275.896 189.792 276.456 189.792 278.216C189.792 279.736 189.2 281 187.472 281H180.8ZM191.238 281V273.912C191.238 273.032 191.606 272.52 192.534 272.52H200.118C201.958 272.52 202.982 273.32 202.982 275.272V281H201.638V275.512C201.638 274.36 201.222 273.608 199.942 273.608H197.782V281H196.438V273.608H193.078C192.758 273.608 192.582 273.72 192.582 274.152V281H191.238ZM204.949 272.52H209.413C210.917 272.52 211.621 273.448 211.621 274.84V279.72C211.621 280.584 211.285 281 210.293 281H206.517C204.965 281 204.309 280.168 204.309 278.408C204.309 276.728 204.965 275.832 206.517 275.832H210.277V274.824C210.277 274.104 209.925 273.608 209.077 273.608H204.949V272.52ZM210.277 276.92H206.773C205.941 276.92 205.717 277.496 205.717 278.408C205.717 279.32 205.941 279.912 206.773 279.912H209.829C210.133 279.912 210.277 279.736 210.277 279.48V276.92ZM213.222 281V275.576C213.222 273.48 214.246 272.52 216.342 272.52H217.27V273.608H216.582C215.11 273.608 214.566 274.36 214.566 275.912V281H213.222ZM222.93 281H221.922C219.81 281 219.218 279.992 219.218 278.28V273.608H217.97V272.52H219.218V269.8H220.562V272.52H222.93V273.608H220.562V278.2C220.562 279.512 221.074 279.912 222.37 279.912H222.93V281ZM223.8 281V269.8H225.144V281H223.8ZM234.626 272.52L229.57 283.736H228.162L229.458 281L225.777 272.52H227.186L230.146 279.528L233.218 272.52H234.626ZM240.347 281V283.72H239.003V273.848C239.003 272.888 239.563 272.52 240.395 272.52H242.939C245.659 272.52 246.411 274.088 246.411 276.728C246.411 279.368 245.659 281 242.939 281H240.347ZM240.347 274.104V279.912H242.699C244.731 279.912 245.003 278.568 245.003 276.728C245.003 274.888 244.731 273.608 242.699 273.608H240.843C240.523 273.608 240.347 273.72 240.347 274.104ZM251.818 272.424C254.858 272.424 256.17 273.528 256.17 276.728C256.17 279.944 254.858 281.096 251.818 281.096C248.778 281.096 247.465 279.944 247.465 276.728C247.465 273.528 248.778 272.424 251.818 272.424ZM248.874 276.728C248.874 279.128 249.658 280.008 251.818 280.008C253.978 280.008 254.762 279.128 254.762 276.728C254.762 274.328 253.978 273.512 251.818 273.512C249.658 273.512 248.874 274.328 248.874 276.728ZM257.519 281V272.52H258.863V281H257.519ZM258.879 271.272H257.503V269.8H258.879V271.272ZM260.472 281V273.912C260.472 273.032 260.84 272.52 261.768 272.52H264.808C266.648 272.52 267.672 273.32 267.672 275.272V281H266.328V275.512C266.328 274.36 265.912 273.608 264.632 273.608H262.312C261.992 273.608 261.816 273.72 261.816 274.152V281H260.472ZM273.493 281H272.485C270.373 281 269.781 279.992 269.781 278.28V273.608H268.533V272.52H269.781V269.8H271.125V272.52H273.493V273.608H271.125V278.2C271.125 279.512 271.637 279.912 272.933 279.912H273.493V281ZM282.177 272.424C285.217 272.424 286.529 273.528 286.529 276.728C286.529 279.944 285.217 281.096 282.177 281.096C279.137 281.096 277.825 279.944 277.825 276.728C277.825 273.528 279.137 272.424 282.177 272.424ZM279.233 276.728C279.233 279.128 280.017 280.008 282.177 280.008C284.337 280.008 285.121 279.128 285.121 276.728C285.121 274.328 284.337 273.512 282.177 273.512C280.017 273.512 279.233 274.328 279.233 276.728ZM295.159 272.52V279.608C295.159 280.504 294.791 281 293.863 281H290.727C288.887 281 287.863 280.2 287.863 278.248V272.52H289.207V278.008C289.207 279.16 289.623 279.912 290.903 279.912H293.319C293.639 279.912 293.815 279.8 293.815 279.368V272.52H295.159ZM300.977 281H299.969C297.857 281 297.265 279.992 297.265 278.28V273.608H296.017V272.52H297.265V269.8H298.609V272.52H300.977V273.608H298.609V278.2C298.609 279.512 299.121 279.912 300.417 279.912H300.977V281ZM309.805 281H308.797C306.685 281 306.093 279.992 306.093 278.28V273.608H304.845V272.52H306.093V269.8H307.437V272.52H309.805V273.608H307.437V278.2C307.437 279.512 307.949 279.912 309.245 279.912H309.805V281ZM310.675 281V269.8H312.019V272.52H314.931C316.803 272.52 317.875 273.32 317.875 275.4V281H316.531V275.576C316.531 274.296 316.035 273.608 314.755 273.608H312.019V281H310.675ZM326.688 281H322.256C319.728 281 319.2 279.352 319.2 276.792C319.2 273.672 320.192 272.424 323.056 272.424C325.312 272.424 326.912 273.16 326.912 275.72C326.912 276.696 326.608 277.208 325.648 277.208H320.592C320.592 278.584 320.832 279.912 322.544 279.912H326.688V281ZM320.592 276.12H325.12C325.44 276.12 325.504 275.88 325.504 275.688V275.624C325.504 274.024 324.496 273.512 323.072 273.512C321.328 273.512 320.592 274.184 320.592 276.12ZM333.732 281H332.388V273.608H331.172V272.52H332.388C332.388 270.264 333.924 269.704 336.036 269.704V270.776C334.804 270.776 333.796 270.968 333.732 272.52H336.036V273.608H333.732V281ZM336.644 281V269.8H337.988V281H336.644ZM339.949 272.52H344.413C345.917 272.52 346.621 273.448 346.621 274.84V279.72C346.621 280.584 346.285 281 345.293 281H341.517C339.965 281 339.309 280.168 339.309 278.408C339.309 276.728 339.965 275.832 341.517 275.832H345.277V274.824C345.277 274.104 344.925 273.608 344.077 273.608H339.949V272.52ZM345.277 276.92H341.773C340.941 276.92 340.717 277.496 340.717 278.408C340.717 279.32 340.941 279.912 341.773 279.912H344.829C345.133 279.912 345.277 279.736 345.277 279.48V276.92ZM348.734 272.52L350.494 279.368C350.526 279.48 350.59 279.624 350.67 279.624C350.782 279.624 350.798 279.464 350.83 279.384L352.494 273.16C352.686 272.472 353.214 272.424 353.502 272.424C353.79 272.424 354.334 272.472 354.526 273.16L356.19 279.384C356.206 279.464 356.254 279.624 356.35 279.624C356.43 279.624 356.494 279.496 356.526 279.368L358.286 272.52H359.598L357.55 280.168C357.39 280.76 357.07 281.096 356.414 281.096C355.71 281.096 355.358 280.696 355.246 280.264L353.646 274.296C353.614 274.2 353.582 274.008 353.502 274.008C353.438 274.008 353.39 274.2 353.358 274.296L351.758 280.264C351.646 280.696 351.326 281.096 350.606 281.096C349.934 281.096 349.63 280.76 349.47 280.168L347.422 272.52H348.734ZM360.358 281V279.912H365.174C365.878 279.912 366.198 279.544 366.198 278.84C366.198 277.944 365.43 277.784 364.118 277.464L362.566 277.08C360.95 276.68 360.23 276.056 360.23 274.632C360.23 273.208 361.03 272.52 362.518 272.52H367.11V273.608H362.662C361.878 273.608 361.574 273.88 361.574 274.632C361.574 275.576 362.23 275.8 363.158 276.04L364.838 276.472C366.55 276.904 367.606 277.208 367.606 278.856C367.606 280.168 367.126 281 365.51 281H360.358ZM180.816 300V291.52H182.16V300H180.816ZM182.176 290.272H180.8V288.8H182.176V290.272ZM183.769 300V292.912C183.769 292.032 184.137 291.52 185.065 291.52H188.105C189.945 291.52 190.969 292.32 190.969 294.272V300H189.625V294.512C189.625 293.36 189.209 292.608 187.929 292.608H185.609C185.289 292.608 185.113 292.72 185.113 293.152V300H183.769ZM200.524 300H199.516C197.404 300 196.812 298.992 196.812 297.28V292.608H195.564V291.52H196.812V288.8H198.156V291.52H200.524V292.608H198.156V297.2C198.156 298.512 198.668 298.912 199.964 298.912H200.524V300ZM201.394 300V288.8H202.738V291.52H205.65C207.522 291.52 208.594 292.32 208.594 294.4V300H207.25V294.576C207.25 293.296 206.754 292.608 205.474 292.608H202.738V300H201.394ZM217.407 300H212.975C210.447 300 209.919 298.352 209.919 295.792C209.919 292.672 210.911 291.424 213.775 291.424C216.031 291.424 217.631 292.16 217.631 294.72C217.631 295.696 217.327 296.208 216.367 296.208H211.311C211.311 297.584 211.551 298.912 213.263 298.912H217.407V300ZM211.311 295.12H215.839C216.159 295.12 216.223 294.88 216.223 294.688V294.624C216.223 293.024 215.215 292.512 213.791 292.512C212.047 292.512 211.311 293.184 211.311 295.12ZM226.771 291.424C229.811 291.424 231.123 292.528 231.123 295.728C231.123 298.944 229.811 300.096 226.771 300.096C223.731 300.096 222.419 298.944 222.419 295.728C222.419 292.528 223.731 291.424 226.771 291.424ZM223.827 295.728C223.827 298.128 224.611 299.008 226.771 299.008C228.931 299.008 229.715 298.128 229.715 295.728C229.715 293.328 228.931 292.512 226.771 292.512C224.611 292.512 223.827 293.328 223.827 295.728ZM236.68 300H235.672C233.56 300 232.968 298.992 232.968 297.28V292.608H231.72V291.52H232.968V288.8H234.312V291.52H236.68V292.608H234.312V297.2C234.312 298.512 234.824 298.912 236.12 298.912H236.68V300ZM237.55 300V288.8H238.894V291.52H241.806C243.678 291.52 244.75 292.32 244.75 294.4V300H243.406V294.576C243.406 293.296 242.91 292.608 241.63 292.608H238.894V300H237.55ZM253.563 300H249.131C246.603 300 246.075 298.352 246.075 295.792C246.075 292.672 247.067 291.424 249.931 291.424C252.187 291.424 253.787 292.16 253.787 294.72C253.787 295.696 253.483 296.208 252.523 296.208H247.467C247.467 297.584 247.707 298.912 249.419 298.912H253.563V300ZM247.467 295.12H251.995C252.315 295.12 252.379 294.88 252.379 294.688V294.624C252.379 293.024 251.371 292.512 249.947 292.512C248.203 292.512 247.467 293.184 247.467 295.12ZM255.113 300V294.576C255.113 292.48 256.137 291.52 258.233 291.52H259.161V292.608H258.473C257.001 292.608 256.457 293.36 256.457 294.912V300H255.113ZM265.035 300V302.72H263.691V292.848C263.691 291.888 264.251 291.52 265.083 291.52H267.627C270.347 291.52 271.099 293.088 271.099 295.728C271.099 298.368 270.347 300 267.627 300H265.035ZM265.035 293.104V298.912H267.387C269.419 298.912 269.691 297.568 269.691 295.728C269.691 293.888 269.419 292.608 267.387 292.608H265.531C265.211 292.608 265.035 292.72 265.035 293.104ZM272.793 291.52H277.257C278.761 291.52 279.465 292.448 279.465 293.84V298.72C279.465 299.584 279.129 300 278.137 300H274.361C272.809 300 272.153 299.168 272.153 297.408C272.153 295.728 272.809 294.832 274.361 294.832H278.121V293.824C278.121 293.104 277.769 292.608 276.921 292.608H272.793V291.52ZM278.121 295.92H274.617C273.785 295.92 273.561 296.496 273.561 297.408C273.561 298.32 273.785 298.912 274.617 298.912H277.673C277.977 298.912 278.121 298.736 278.121 298.48V295.92ZM281.066 300V294.576C281.066 292.48 282.09 291.52 284.186 291.52H285.114V292.608H284.426C282.954 292.608 282.41 293.36 282.41 294.912V300H281.066ZM290.774 300H289.766C287.654 300 287.062 298.992 287.062 297.28V292.608H285.814V291.52H287.062V288.8H288.406V291.52H290.774V292.608H288.406V297.2C288.406 298.512 288.918 298.912 290.214 298.912H290.774V300ZM300.172 291.52L295.116 302.736H293.708L295.004 300L291.324 291.52H292.732L295.692 298.528L298.764 291.52H300.172ZM301.312 292.016L300.256 291.36L302.096 288.496L303.216 289.2L301.312 292.016ZM304.389 300V298.912H309.205C309.909 298.912 310.229 298.544 310.229 297.84C310.229 296.944 309.461 296.784 308.149 296.464L306.597 296.08C304.981 295.68 304.261 295.056 304.261 293.632C304.261 292.208 305.061 291.52 306.549 291.52H311.141V292.608H306.693C305.909 292.608 305.605 292.88 305.605 293.632C305.605 294.576 306.261 294.8 307.189 295.04L308.869 295.472C310.581 295.904 311.637 296.208 311.637 297.856C311.637 299.168 311.157 300 309.541 300H304.389ZM320.739 291.424C323.779 291.424 325.091 292.528 325.091 295.728C325.091 298.944 323.779 300.096 320.739 300.096C317.699 300.096 316.387 298.944 316.387 295.728C316.387 292.528 317.699 291.424 320.739 291.424ZM317.795 295.728C317.795 298.128 318.579 299.008 320.739 299.008C322.899 299.008 323.683 298.128 323.683 295.728C323.683 293.328 322.899 292.512 320.739 292.512C318.579 292.512 317.795 293.328 317.795 295.728ZM328.185 300H326.841V292.608H325.625V291.52H326.841C326.841 289.264 328.377 288.704 330.489 288.704V289.776C329.257 289.776 328.249 289.968 328.185 291.52H330.489V292.608H328.185V300ZM333.685 300H332.341V292.608H331.125V291.52H332.341C332.341 289.264 333.877 288.704 335.989 288.704V289.776C334.757 289.776 333.749 289.968 333.685 291.52H335.989V292.608H333.685V300ZM343.844 300H339.412C336.884 300 336.356 298.352 336.356 295.792C336.356 292.672 337.348 291.424 340.212 291.424C342.468 291.424 344.068 292.16 344.068 294.72C344.068 295.696 343.764 296.208 342.804 296.208H337.748C337.748 297.584 337.988 298.912 339.7 298.912H343.844V300ZM337.748 295.12H342.276C342.596 295.12 342.66 294.88 342.66 294.688V294.624C342.66 293.024 341.652 292.512 340.228 292.512C338.484 292.512 337.748 293.184 337.748 295.12ZM345.394 300V294.576C345.394 292.48 346.418 291.52 348.514 291.52H349.442V292.608H348.754C347.282 292.608 346.738 293.36 346.738 294.912V300H345.394ZM350.254 300V291.52H351.598V300H350.254ZM351.614 290.272H350.238V288.8H351.614V290.272ZM353.206 300V292.912C353.206 292.032 353.574 291.52 354.502 291.52H357.542C359.382 291.52 360.406 292.32 360.406 294.272V300H359.062V294.512C359.062 293.36 358.646 292.608 357.366 292.608H355.046C354.726 292.608 354.55 292.72 354.55 293.152V300H353.206ZM368.003 300H365.251C362.451 300 361.731 298.48 361.731 295.76C361.731 293.12 362.451 291.52 365.251 291.52H367.219C368.547 291.52 369.363 291.712 369.363 292.992V299.184C369.363 301.52 368.515 302.752 365.859 302.752H362.323V301.664H365.859C366.995 301.664 367.875 301.184 368.003 300ZM368.019 298.912V293.184C368.019 292.816 367.843 292.608 367.411 292.608H365.507C363.475 292.608 363.139 293.76 363.139 295.76C363.139 297.84 363.475 298.912 365.507 298.912H368.019ZM185.024 319H184.016C181.904 319 181.312 317.992 181.312 316.28V311.608H180.064V310.52H181.312V307.8H182.656V310.52H185.024V311.608H182.656V316.2C182.656 317.512 183.168 317.912 184.464 317.912H185.024V319ZM189.818 310.424C192.858 310.424 194.17 311.528 194.17 314.728C194.17 317.944 192.858 319.096 189.818 319.096C186.778 319.096 185.465 317.944 185.465 314.728C185.465 311.528 186.778 310.424 189.818 310.424ZM186.874 314.728C186.874 317.128 187.658 318.008 189.818 318.008C191.978 318.008 192.762 317.128 192.762 314.728C192.762 312.328 191.978 311.512 189.818 311.512C187.658 311.512 186.874 312.328 186.874 314.728ZM199.238 319V313.576C199.238 311.48 200.262 310.52 202.358 310.52H203.286V311.608H202.598C201.126 311.608 200.582 312.36 200.582 313.912V319H199.238ZM210.985 319H206.553C204.025 319 203.497 317.352 203.497 314.792C203.497 311.672 204.489 310.424 207.353 310.424C209.609 310.424 211.209 311.16 211.209 313.72C211.209 314.696 210.905 315.208 209.945 315.208H204.889C204.889 316.584 205.129 317.912 206.841 317.912H210.985V319ZM204.889 314.12H209.417C209.737 314.12 209.801 313.88 209.801 313.688V313.624C209.801 312.024 208.793 311.512 207.369 311.512C205.625 311.512 204.889 312.184 204.889 314.12ZM218.374 319H215.782C212.982 319 212.262 317.48 212.262 314.76C212.262 312.12 212.982 310.52 215.782 310.52H218.326V307.8H219.67V317.672C219.67 318.504 219.35 319 218.374 319ZM218.326 311.624H216.038C214.006 311.624 213.67 312.76 213.67 314.76C213.67 316.84 214.006 317.912 216.038 317.912H217.766C218.214 317.912 218.326 317.736 218.326 317.304V311.624ZM228.565 310.52V317.608C228.565 318.504 228.197 319 227.269 319H224.133C222.293 319 221.269 318.2 221.269 316.248V310.52H222.613V316.008C222.613 317.16 223.029 317.912 224.309 317.912H226.725C227.045 317.912 227.221 317.8 227.221 317.368V310.52H228.565ZM236.879 319H233.487C230.607 319 229.887 317.384 229.887 314.744C229.887 312.184 230.607 310.52 233.487 310.52H236.703V311.608H233.727C231.615 311.608 231.295 312.824 231.295 314.744C231.295 316.744 231.615 317.912 233.727 317.912H236.879V319ZM244.844 319H240.412C237.884 319 237.356 317.352 237.356 314.792C237.356 311.672 238.348 310.424 241.212 310.424C243.468 310.424 245.068 311.16 245.068 313.72C245.068 314.696 244.764 315.208 243.804 315.208H238.748C238.748 316.584 238.988 317.912 240.7 317.912H244.844V319ZM238.748 314.12H243.276C243.596 314.12 243.66 313.88 243.66 313.688V313.624C243.66 312.024 242.652 311.512 241.228 311.512C239.484 311.512 238.748 312.184 238.748 314.12ZM250.144 319V310.52H251.488V319H250.144ZM251.504 309.272H250.128V307.8H251.504V309.272ZM257.321 319H256.313C254.201 319 253.609 317.992 253.609 316.28V311.608H252.361V310.52H253.609V307.8H254.953V310.52H257.321V311.608H254.953V316.2C254.953 317.512 255.465 317.912 256.761 317.912H257.321V319ZM258.155 319V317.912H262.971C263.675 317.912 263.995 317.544 263.995 316.84C263.995 315.944 263.227 315.784 261.915 315.464L260.363 315.08C258.747 314.68 258.027 314.056 258.027 312.632C258.027 311.208 258.827 310.52 260.315 310.52H264.907V311.608H260.459C259.675 311.608 259.371 311.88 259.371 312.632C259.371 313.576 260.027 313.8 260.955 314.04L262.635 314.472C264.347 314.904 265.403 315.208 265.403 316.856C265.403 318.168 264.923 319 263.307 319H258.155ZM270.921 310.52L273.481 317.384C273.545 317.56 273.609 317.736 273.705 317.736C273.817 317.736 273.881 317.56 273.945 317.384L276.489 310.52H277.881L274.793 318.36C274.521 319.048 274.105 319.096 273.705 319.096C273.305 319.096 272.889 319.048 272.617 318.36L269.529 310.52H270.921ZM278.793 310.52H283.257C284.761 310.52 285.465 311.448 285.465 312.84V317.72C285.465 318.584 285.129 319 284.137 319H280.361C278.809 319 278.153 318.168 278.153 316.408C278.153 314.728 278.809 313.832 280.361 313.832H284.121V312.824C284.121 312.104 283.769 311.608 282.921 311.608H278.793V310.52ZM284.121 314.92H280.617C279.785 314.92 279.561 315.496 279.561 316.408C279.561 317.32 279.785 317.912 280.617 317.912H283.673C283.977 317.912 284.121 317.736 284.121 317.48V314.92ZM287.066 319V307.8H288.41V319H287.066ZM297.299 310.52V317.608C297.299 318.504 296.931 319 296.003 319H292.867C291.027 319 290.003 318.2 290.003 316.248V310.52H291.347V316.008C291.347 317.16 291.763 317.912 293.043 317.912H295.459C295.779 317.912 295.955 317.8 295.955 317.368V310.52H297.299ZM306.11 319H301.678C299.15 319 298.622 317.352 298.622 314.792C298.622 311.672 299.614 310.424 302.478 310.424C304.734 310.424 306.334 311.16 306.334 313.72C306.334 314.696 306.03 315.208 305.07 315.208H300.014C300.014 316.584 300.254 317.912 301.966 317.912H306.11V319ZM300.014 314.12H304.542C304.862 314.12 304.926 313.88 304.926 313.688V313.624C304.926 312.024 303.918 311.512 302.494 311.512C300.75 311.512 300.014 312.184 300.014 314.12Z" fill="white"/>
<path d="M8.15972 202.248H11.8237C13.9037 202.248 14.7357 203.336 14.7357 205.512C14.7357 207.64 14.1277 209 11.7437 209H9.51972C7.53572 209 6.67172 207.96 6.67172 205.928V200.696C6.67172 198.984 7.58372 197.8 9.39172 197.8H14.1917V199.016H9.85572C8.78372 199.016 8.15972 199.608 8.15972 200.76V202.248ZM8.15972 203.464V205.976C8.15972 207.192 8.54372 207.784 9.87172 207.784H11.3757C12.7837 207.784 13.1837 206.968 13.1837 205.512C13.1837 204.168 12.7517 203.464 11.2157 203.464H8.15972ZM17.784 209H16.328V207.272H17.784V209ZM33.6 209H26.608C25.632 209 25.04 208.536 25.04 207.416V199.384C25.04 198.184 25.632 197.8 26.608 197.8H33.536V199.016H27.264C26.64 199.016 26.528 199.208 26.528 199.768V202.664H33.376V203.88H26.528V207.016C26.528 207.576 26.64 207.784 27.264 207.784H33.6V209ZM42.0725 209H40.4725L38.1045 205.576L35.7525 209H34.1525L37.3525 204.648L34.3285 200.52H35.8805L38.1045 203.736L40.3445 200.52H41.8965L38.8885 204.648L42.0725 209ZM47.2428 209H46.2348C44.1228 209 43.5308 207.992 43.5308 206.28V201.608H42.2828V200.52H43.5308V197.8H44.8748V200.52H47.2428V201.608H44.8748V206.2C44.8748 207.512 45.3868 207.912 46.6828 207.912H47.2428V209ZM48.1125 209V203.576C48.1125 201.48 49.1365 200.52 51.2325 200.52H52.1605V201.608H51.4725C50.0005 201.608 49.4565 202.36 49.4565 203.912V209H48.1125ZM53.0118 200.52H57.4758C58.9798 200.52 59.6838 201.448 59.6838 202.84V207.72C59.6838 208.584 59.3478 209 58.3558 209H54.5798C53.0278 209 52.3717 208.168 52.3717 206.408C52.3717 204.728 53.0278 203.832 54.5798 203.832H58.3398V202.824C58.3398 202.104 57.9878 201.608 57.1398 201.608H53.0118V200.52ZM58.3398 204.92H54.8358C54.0038 204.92 53.7798 205.496 53.7798 206.408C53.7798 207.32 54.0038 207.912 54.8358 207.912H57.8918C58.1958 207.912 58.3398 207.736 58.3398 207.48V204.92ZM68.0044 209H64.6124C61.7324 209 61.0124 207.384 61.0124 204.744C61.0124 202.184 61.7324 200.52 64.6124 200.52H67.8284V201.608H64.8524C62.7404 201.608 62.4204 202.824 62.4204 204.744C62.4204 206.744 62.7404 207.912 64.8524 207.912H68.0044V209ZM73.6021 209H72.5941C70.4821 209 69.8901 207.992 69.8901 206.28V201.608H68.6421V200.52H69.8901V197.8H71.2341V200.52H73.6021V201.608H71.2341V206.2C71.2341 207.512 71.7461 207.912 73.0421 207.912H73.6021V209ZM78.2063 209V201.912C78.2063 201.032 78.5743 200.52 79.5023 200.52H87.0863C88.9263 200.52 89.9503 201.32 89.9503 203.272V209H88.6063V203.512C88.6063 202.36 88.1903 201.608 86.9103 201.608H84.7503V209H83.4063V201.608H80.0463C79.7263 201.608 79.5503 201.72 79.5503 202.152V209H78.2063ZM91.918 200.52H96.382C97.886 200.52 98.59 201.448 98.59 202.84V207.72C98.59 208.584 98.254 209 97.262 209H93.486C91.934 209 91.278 208.168 91.278 206.408C91.278 204.728 91.934 203.832 93.486 203.832H97.246V202.824C97.246 202.104 96.894 201.608 96.046 201.608H91.918V200.52ZM97.246 204.92H93.742C92.91 204.92 92.686 205.496 92.686 206.408C92.686 207.32 92.91 207.912 93.742 207.912H96.798C97.102 207.912 97.246 207.736 97.246 207.48V204.92ZM107.151 209H105.551L103.183 205.576L100.831 209H99.2306L102.431 204.648L99.4066 200.52H100.959L103.183 203.736L105.423 200.52H106.975L103.967 204.648L107.151 209ZM107.8 209V200.52H109.144V209H107.8ZM109.16 199.272H107.784V197.8H109.16V199.272ZM110.753 209V201.912C110.753 201.032 111.121 200.52 112.049 200.52H119.633C121.473 200.52 122.497 201.32 122.497 203.272V209H121.153V203.512C121.153 202.36 120.737 201.608 119.457 201.608H117.297V209H115.953V201.608H112.593C112.273 201.608 112.097 201.72 112.097 202.152V209H110.753ZM131.393 200.52V207.608C131.393 208.504 131.025 209 130.097 209H126.961C125.121 209 124.097 208.2 124.097 206.248V200.52H125.441V206.008C125.441 207.16 125.857 207.912 127.137 207.912H129.553C129.873 207.912 130.049 207.8 130.049 207.368V200.52H131.393ZM132.988 209V201.912C132.988 201.032 133.356 200.52 134.284 200.52H141.868C143.708 200.52 144.732 201.32 144.732 203.272V209H143.388V203.512C143.388 202.36 142.972 201.608 141.692 201.608H139.532V209H138.188V201.608H134.828C134.508 201.608 134.332 201.72 134.332 202.152V209H132.988ZM150.562 200.52L153.122 207.384C153.186 207.56 153.25 207.736 153.346 207.736C153.458 207.736 153.522 207.56 153.586 207.384L156.13 200.52H157.522L154.434 208.36C154.162 209.048 153.746 209.096 153.346 209.096C152.946 209.096 152.53 209.048 152.258 208.36L149.17 200.52H150.562ZM158.434 200.52H162.898C164.402 200.52 165.106 201.448 165.106 202.84V207.72C165.106 208.584 164.77 209 163.778 209H160.002C158.45 209 157.794 208.168 157.794 206.408C157.794 204.728 158.45 203.832 160.002 203.832H163.762V202.824C163.762 202.104 163.41 201.608 162.562 201.608H158.434V200.52ZM163.762 204.92H160.258C159.426 204.92 159.202 205.496 159.202 206.408C159.202 207.32 159.426 207.912 160.258 207.912H163.314C163.618 207.912 163.762 207.736 163.762 207.48V204.92ZM166.706 209V197.8H168.05V209H166.706ZM176.94 200.52V207.608C176.94 208.504 176.572 209 175.644 209H172.508C170.668 209 169.644 208.2 169.644 206.248V200.52H170.988V206.008C170.988 207.16 171.404 207.912 172.684 207.912H175.1C175.42 207.912 175.596 207.8 175.596 207.368V200.52H176.94ZM185.75 209H181.318C178.79 209 178.262 207.352 178.262 204.792C178.262 201.672 179.254 200.424 182.118 200.424C184.374 200.424 185.974 201.16 185.974 203.72C185.974 204.696 185.67 205.208 184.71 205.208H179.654C179.654 206.584 179.894 207.912 181.606 207.912H185.75V209ZM179.654 204.12H184.182C184.502 204.12 184.566 203.88 184.566 203.688V203.624C184.566 202.024 183.558 201.512 182.134 201.512C180.39 201.512 179.654 202.184 179.654 204.12ZM26.56 228H25.216V220.608H24V219.52H25.216C25.216 217.264 26.752 216.704 28.864 216.704V217.776C27.632 217.776 26.624 217.968 26.56 219.52H28.864V220.608H26.56V228ZM33.4269 219.424C36.4669 219.424 37.7789 220.528 37.7789 223.728C37.7789 226.944 36.4669 228.096 33.4269 228.096C30.3869 228.096 29.0749 226.944 29.0749 223.728C29.0749 220.528 30.3869 219.424 33.4269 219.424ZM30.4829 223.728C30.4829 226.128 31.2669 227.008 33.4269 227.008C35.5869 227.008 36.3709 226.128 36.3709 223.728C36.3709 221.328 35.5869 220.512 33.4269 220.512C31.2669 220.512 30.4829 221.328 30.4829 223.728ZM39.1125 228V222.576C39.1125 220.48 40.1365 219.52 42.2325 219.52H43.1605V220.608H42.4725C41.0005 220.608 40.4565 221.36 40.4565 222.912V228H39.1125ZM48.2026 219.52L49.9626 226.368C49.9946 226.48 50.0586 226.624 50.1386 226.624C50.2506 226.624 50.2666 226.464 50.2986 226.384L51.9626 220.16C52.1546 219.472 52.6826 219.424 52.9706 219.424C53.2586 219.424 53.8026 219.472 53.9946 220.16L55.6586 226.384C55.6746 226.464 55.7226 226.624 55.8186 226.624C55.8986 226.624 55.9626 226.496 55.9946 226.368L57.7546 219.52H59.0666L57.0186 227.168C56.8586 227.76 56.5386 228.096 55.8826 228.096C55.1786 228.096 54.8266 227.696 54.7146 227.264L53.1146 221.296C53.0826 221.2 53.0506 221.008 52.9706 221.008C52.9066 221.008 52.8586 221.2 52.8266 221.296L51.2266 227.264C51.1146 227.696 50.7946 228.096 50.0746 228.096C49.4026 228.096 49.0986 227.76 48.9386 227.168L46.8906 219.52H48.2026ZM59.8625 228V216.8H61.2065V219.52H64.1185C65.9905 219.52 67.0625 220.32 67.0625 222.4V228H65.7185V222.576C65.7185 221.296 65.2225 220.608 63.9425 220.608H61.2065V228H59.8625ZM69.0274 219.52H73.4914C74.9954 219.52 75.6994 220.448 75.6994 221.84V226.72C75.6994 227.584 75.3634 228 74.3714 228H70.5954C69.0434 228 68.3874 227.168 68.3874 225.408C68.3874 223.728 69.0434 222.832 70.5954 222.832H74.3554V221.824C74.3554 221.104 74.0034 220.608 73.1554 220.608H69.0274V219.52ZM74.3554 223.92H70.8514C70.0194 223.92 69.7954 224.496 69.7954 225.408C69.7954 226.32 70.0194 226.912 70.8514 226.912H73.9074C74.2114 226.912 74.3554 226.736 74.3554 226.48V223.92ZM81.524 228H80.516C78.404 228 77.812 226.992 77.812 225.28V220.608H76.564V219.52H77.812V216.8H79.156V219.52H81.524V220.608H79.156V225.2C79.156 226.512 79.668 226.912 80.964 226.912H81.524V228ZM87.8561 228H86.3681V216.8H87.8561V228ZM93.793 219.52H98.257C99.761 219.52 100.465 220.448 100.465 221.84V226.72C100.465 227.584 100.129 228 99.137 228H95.361C93.809 228 93.153 227.168 93.153 225.408C93.153 223.728 93.809 222.832 95.361 222.832H99.121V221.824C99.121 221.104 98.769 220.608 97.921 220.608H93.793V219.52ZM99.121 223.92H95.617C94.785 223.92 94.561 224.496 94.561 225.408C94.561 226.32 94.785 226.912 95.617 226.912H98.673C98.977 226.912 99.121 226.736 99.121 226.48V223.92ZM102.066 228V220.912C102.066 220.032 102.434 219.52 103.362 219.52H110.946C112.786 219.52 113.81 220.32 113.81 222.272V228H112.466V222.512C112.466 221.36 112.05 220.608 110.77 220.608H108.61V228H107.266V220.608H103.906C103.586 220.608 103.41 220.72 103.41 221.152V228H102.066ZM123.224 219.424C126.264 219.424 127.576 220.528 127.576 223.728C127.576 226.944 126.264 228.096 123.224 228.096C120.184 228.096 118.872 226.944 118.872 223.728C118.872 220.528 120.184 219.424 123.224 219.424ZM120.28 223.728C120.28 226.128 121.064 227.008 123.224 227.008C125.384 227.008 126.168 226.128 126.168 223.728C126.168 221.328 125.384 220.512 123.224 220.512C121.064 220.512 120.28 221.328 120.28 223.728ZM130.669 228H129.325V220.608H128.109V219.52H129.325C129.325 217.264 130.861 216.704 132.973 216.704V217.776C131.741 217.776 130.733 217.968 130.669 219.52H132.973V220.608H130.669V228ZM136.169 228H134.825V220.608H133.609V219.52H134.825C134.825 217.264 136.361 216.704 138.473 216.704V217.776C137.241 217.776 136.233 217.968 136.169 219.52H138.473V220.608H136.169V228ZM146.329 228H141.897C139.368 228 138.84 226.352 138.84 223.792C138.84 220.672 139.833 219.424 142.697 219.424C144.953 219.424 146.553 220.16 146.553 222.72C146.553 223.696 146.249 224.208 145.289 224.208H140.233C140.233 225.584 140.473 226.912 142.185 226.912H146.329V228ZM140.233 223.12H144.761C145.081 223.12 145.145 222.88 145.145 222.688V222.624C145.145 221.024 144.137 220.512 142.713 220.512C140.969 220.512 140.233 221.184 140.233 223.12ZM147.878 228V222.576C147.878 220.48 148.902 219.52 150.998 219.52H151.926V220.608H151.238C149.766 220.608 149.222 221.36 149.222 222.912V228H147.878ZM152.738 228V219.52H154.082V228H152.738ZM154.098 218.272H152.722V216.8H154.098V218.272ZM155.691 228V220.912C155.691 220.032 156.059 219.52 156.987 219.52H160.027C161.867 219.52 162.891 220.32 162.891 222.272V228H161.547V222.512C161.547 221.36 161.131 220.608 159.851 220.608H157.531C157.211 220.608 157.035 220.72 157.035 221.152V228H155.691ZM170.488 228H167.736C164.936 228 164.215 226.48 164.215 223.76C164.215 221.12 164.936 219.52 167.736 219.52H169.704C171.032 219.52 171.848 219.712 171.848 220.992V227.184C171.848 229.52 171 230.752 168.344 230.752H164.808V229.664H168.344C169.48 229.664 170.36 229.184 170.488 228ZM170.504 226.912V221.184C170.504 220.816 170.328 220.608 169.896 220.608H167.992C165.96 220.608 165.624 221.76 165.624 223.76C165.624 225.84 165.96 226.912 167.992 226.912H170.504Z" fill="white"/>
<path d="M335.268 15H328.58C328.068 15 327.572 14.728 327.572 13.944C327.572 13.352 327.78 13.048 328.132 12.776L333.508 8.792C334.18 8.296 334.292 7.816 334.292 6.904C334.292 5.768 334.164 5.032 332.82 5.032H328.356V3.8H333.268C335.156 3.8 335.812 4.696 335.812 6.76C335.812 8.168 335.588 8.904 334.452 9.752L329.492 13.464C329.396 13.544 329.3 13.608 329.3 13.672C329.3 13.752 329.348 13.784 329.444 13.784H335.268V15ZM338.784 15H337.328V13.272H338.784V15ZM344.84 15L349.096 4.904C349.432 4.12 349.784 3.672 350.632 3.672C351.448 3.672 351.864 4.136 352.184 4.904L356.424 15H354.856L353.592 11.96H347.656L346.408 15H344.84ZM350.248 5.608L348.104 10.744H353.144L351.032 5.608C350.936 5.384 350.824 5.064 350.632 5.064C350.44 5.064 350.344 5.384 350.248 5.608ZM357.066 15V3.8H358.41V15H357.066ZM360.515 6.52L362.275 13.368C362.307 13.48 362.371 13.624 362.451 13.624C362.563 13.624 362.579 13.464 362.611 13.384L364.275 7.16C364.467 6.472 364.995 6.424 365.283 6.424C365.571 6.424 366.115 6.472 366.307 7.16L367.971 13.384C367.987 13.464 368.035 13.624 368.131 13.624C368.211 13.624 368.275 13.496 368.307 13.368L370.067 6.52H371.379L369.331 14.168C369.171 14.76 368.851 15.096 368.195 15.096C367.491 15.096 367.139 14.696 367.027 14.264L365.427 8.296C365.395 8.2 365.363 8.008 365.283 8.008C365.219 8.008 365.171 8.2 365.139 8.296L363.539 14.264C363.427 14.696 363.107 15.096 362.387 15.096C361.715 15.096 361.411 14.76 361.251 14.168L359.203 6.52H360.515ZM372.387 6.52H376.851C378.355 6.52 379.059 7.448 379.059 8.84V13.72C379.059 14.584 378.723 15 377.731 15H373.955C372.403 15 371.747 14.168 371.747 12.408C371.747 10.728 372.403 9.832 373.955 9.832H377.715V8.824C377.715 8.104 377.363 7.608 376.515 7.608H372.387V6.52ZM377.715 10.92H374.211C373.379 10.92 373.155 11.496 373.155 12.408C373.155 13.32 373.379 13.912 374.211 13.912H377.267C377.571 13.912 377.715 13.736 377.715 13.48V10.92ZM388.547 6.52L383.491 17.736H382.083L383.379 15L379.699 6.52H381.107L384.067 13.528L387.139 6.52H388.547ZM388.999 15V13.912H393.815C394.519 13.912 394.839 13.544 394.839 12.84C394.839 11.944 394.071 11.784 392.759 11.464L391.207 11.08C389.591 10.68 388.871 10.056 388.871 8.632C388.871 7.208 389.671 6.52 391.159 6.52H395.751V7.608H391.303C390.519 7.608 390.215 7.88 390.215 8.632C390.215 9.576 390.871 9.8 391.799 10.04L393.479 10.472C395.191 10.904 396.247 11.208 396.247 12.856C396.247 14.168 395.767 15 394.151 15H388.999ZM405.349 6.424C408.389 6.424 409.701 7.528 409.701 10.728C409.701 13.944 408.389 15.096 405.349 15.096C402.309 15.096 400.997 13.944 400.997 10.728C400.997 7.528 402.309 6.424 405.349 6.424ZM402.405 10.728C402.405 13.128 403.189 14.008 405.349 14.008C407.509 14.008 408.293 13.128 408.293 10.728C408.293 8.328 407.509 7.512 405.349 7.512C403.189 7.512 402.405 8.328 402.405 10.728ZM411.53 6.52L414.09 13.384C414.154 13.56 414.218 13.736 414.314 13.736C414.426 13.736 414.49 13.56 414.554 13.384L417.098 6.52H418.49L415.402 14.36C415.13 15.048 414.714 15.096 414.314 15.096C413.914 15.096 413.498 15.048 413.226 14.36L410.138 6.52H411.53ZM426.407 15H421.975C419.447 15 418.919 13.352 418.919 10.792C418.919 7.672 419.911 6.424 422.775 6.424C425.031 6.424 426.631 7.16 426.631 9.72C426.631 10.696 426.327 11.208 425.367 11.208H420.311C420.311 12.584 420.551 13.912 422.263 13.912H426.407V15ZM420.311 10.12H424.839C425.159 10.12 425.223 9.88 425.223 9.688V9.624C425.223 8.024 424.215 7.512 422.791 7.512C421.047 7.512 420.311 8.184 420.311 10.12ZM427.956 15V9.576C427.956 7.48 428.98 6.52 431.076 6.52H432.004V7.608H431.316C429.844 7.608 429.3 8.36 429.3 9.912V15H427.956ZM432.608 15V13.912H437.424C438.128 13.912 438.448 13.544 438.448 12.84C438.448 11.944 437.68 11.784 436.368 11.464L434.816 11.08C433.2 10.68 432.48 10.056 432.48 8.632C432.48 7.208 433.28 6.52 434.768 6.52H439.36V7.608H434.912C434.128 7.608 433.824 7.88 433.824 8.632C433.824 9.576 434.48 9.8 435.408 10.04L437.088 10.472C438.8 10.904 439.856 11.208 439.856 12.856C439.856 14.168 439.376 15 437.76 15H432.608ZM448.36 15H443.928C441.4 15 440.872 13.352 440.872 10.792C440.872 7.672 441.864 6.424 444.728 6.424C446.984 6.424 448.584 7.16 448.584 9.72C448.584 10.696 448.28 11.208 447.32 11.208H442.264C442.264 12.584 442.504 13.912 444.216 13.912H448.36V15ZM442.264 10.12H446.792C447.112 10.12 447.176 9.88 447.176 9.688V9.624C447.176 8.024 446.168 7.512 444.744 7.512C443 7.512 442.264 8.184 442.264 10.12ZM449.909 15V3.8H451.253V15H449.909ZM452.847 15V3.8H454.191V15H452.847ZM467.407 6.52L462.351 17.736H460.943L462.239 15L458.559 6.52H459.967L462.927 13.528L465.999 6.52H467.407ZM472.13 6.424C475.17 6.424 476.482 7.528 476.482 10.728C476.482 13.944 475.17 15.096 472.13 15.096C469.09 15.096 467.778 13.944 467.778 10.728C467.778 7.528 469.09 6.424 472.13 6.424ZM469.186 10.728C469.186 13.128 469.97 14.008 472.13 14.008C474.29 14.008 475.074 13.128 475.074 10.728C475.074 8.328 474.29 7.512 472.13 7.512C469.97 7.512 469.186 8.328 469.186 10.728ZM485.112 6.52V13.608C485.112 14.504 484.744 15 483.816 15H480.68C478.84 15 477.816 14.2 477.816 12.248V6.52H479.16V12.008C479.16 13.16 479.576 13.912 480.856 13.912H483.272C483.592 13.912 483.768 13.8 483.768 13.368V6.52H485.112ZM486.706 15V9.576C486.706 7.48 487.73 6.52 489.826 6.52H490.754V7.608H490.066C488.594 7.608 488.05 8.36 488.05 9.912V15H486.706ZM349.88 25.424C352.92 25.424 354.232 26.528 354.232 29.728C354.232 32.944 352.92 34.096 349.88 34.096C346.84 34.096 345.528 32.944 345.528 29.728C345.528 26.528 346.84 25.424 349.88 25.424ZM346.936 29.728C346.936 32.128 347.72 33.008 349.88 33.008C352.04 33.008 352.824 32.128 352.824 29.728C352.824 27.328 352.04 26.512 349.88 26.512C347.72 26.512 346.936 27.328 346.936 29.728ZM357.326 34H355.982V26.608H354.766V25.52H355.982C355.982 23.264 357.518 22.704 359.63 22.704V23.776C358.398 23.776 357.39 23.968 357.326 25.52H359.63V26.608H357.326V34ZM362.826 34H361.482V26.608H360.266V25.52H361.482C361.482 23.264 363.018 22.704 365.13 22.704V23.776C363.898 23.776 362.89 23.968 362.826 25.52H365.13V26.608H362.826V34ZM372.985 34H368.553C366.025 34 365.497 32.352 365.497 29.792C365.497 26.672 366.489 25.424 369.353 25.424C371.609 25.424 373.209 26.16 373.209 28.72C373.209 29.696 372.905 30.208 371.945 30.208H366.889C366.889 31.584 367.129 32.912 368.841 32.912H372.985V34ZM366.889 29.12H371.417C371.737 29.12 371.801 28.88 371.801 28.688V28.624C371.801 27.024 370.793 26.512 369.369 26.512C367.625 26.512 366.889 27.184 366.889 29.12ZM374.534 34V28.576C374.534 26.48 375.558 25.52 377.654 25.52H378.582V26.608H377.894C376.422 26.608 375.878 27.36 375.878 28.912V34H374.534ZM379.394 34V25.52H380.738V34H379.394ZM380.754 24.272H379.378V22.8H380.754V24.272ZM382.347 34V26.912C382.347 26.032 382.715 25.52 383.643 25.52H386.683C388.523 25.52 389.547 26.32 389.547 28.272V34H388.203V28.512C388.203 27.36 387.787 26.608 386.507 26.608H384.187C383.867 26.608 383.691 26.72 383.691 27.152V34H382.347ZM397.144 34H394.392C391.592 34 390.872 32.48 390.872 29.76C390.872 27.12 391.592 25.52 394.392 25.52H396.36C397.688 25.52 398.504 25.712 398.504 26.992V33.184C398.504 35.52 397.656 36.752 395 36.752H391.464V35.664H395C396.136 35.664 397.016 35.184 397.144 34ZM397.16 32.912V27.184C397.16 26.816 396.984 26.608 396.552 26.608H394.648C392.616 26.608 392.28 27.76 392.28 29.76C392.28 31.84 392.616 32.912 394.648 32.912H397.16ZM408.055 34H407.047C404.935 34 404.343 32.992 404.343 31.28V26.608H403.095V25.52H404.343V22.8H405.687V25.52H408.055V26.608H405.687V31.2C405.687 32.512 406.199 32.912 407.495 32.912H408.055V34ZM412.849 25.424C415.889 25.424 417.201 26.528 417.201 29.728C417.201 32.944 415.889 34.096 412.849 34.096C409.809 34.096 408.497 32.944 408.497 29.728C408.497 26.528 409.809 25.424 412.849 25.424ZM409.905 29.728C409.905 32.128 410.689 33.008 412.849 33.008C415.009 33.008 415.793 32.128 415.793 29.728C415.793 27.328 415.009 26.512 412.849 26.512C410.689 26.512 409.905 27.328 409.905 29.728ZM428.269 34H425.517C422.717 34 421.997 32.48 421.997 29.76C421.997 27.12 422.717 25.52 425.517 25.52H427.485C428.813 25.52 429.629 25.712 429.629 26.992V33.184C429.629 35.52 428.781 36.752 426.125 36.752H422.589V35.664H426.125C427.261 35.664 428.141 35.184 428.269 34ZM428.285 32.912V27.184C428.285 26.816 428.109 26.608 427.677 26.608H425.773C423.741 26.608 423.405 27.76 423.405 29.76C423.405 31.84 423.741 32.912 425.773 32.912H428.285ZM438.438 34H434.006C431.478 34 430.95 32.352 430.95 29.792C430.95 26.672 431.942 25.424 434.806 25.424C437.062 25.424 438.662 26.16 438.662 28.72C438.662 29.696 438.358 30.208 437.398 30.208H432.342C432.342 31.584 432.582 32.912 434.294 32.912H438.438V34ZM432.342 29.12H436.87C437.19 29.12 437.254 28.88 437.254 28.688V28.624C437.254 27.024 436.246 26.512 434.822 26.512C433.078 26.512 432.342 27.184 432.342 29.12ZM444.212 34H443.204C441.092 34 440.5 32.992 440.5 31.28V26.608H439.252V25.52H440.5V22.8H441.844V25.52H444.212V26.608H441.844V31.2C441.844 32.512 442.356 32.912 443.652 32.912H444.212V34ZM452.752 34H450.384C449.392 34 448.816 33.696 448.816 32.624V22.8H450.16V25.52H452.752C455.472 25.52 456.224 27.072 456.224 29.712C456.224 32.352 455.472 34 452.752 34ZM450.16 26.608V32.336C450.16 32.704 450.256 32.912 450.704 32.912H452.512C454.544 32.912 454.816 31.552 454.816 29.712C454.816 27.872 454.544 26.608 452.512 26.608H450.16ZM464.846 25.52V32.608C464.846 33.504 464.478 34 463.55 34H460.414C458.574 34 457.55 33.2 457.55 31.248V25.52H458.894V31.008C458.894 32.16 459.31 32.912 460.59 32.912H463.006C463.326 32.912 463.502 32.8 463.502 32.368V25.52H464.846ZM468.201 34H466.857V26.608H465.641V25.52H466.857C466.857 23.264 468.393 22.704 470.505 22.704V23.776C469.273 23.776 468.265 23.968 468.201 25.52H470.505V26.608H468.201V34ZM473.701 34H472.357V26.608H471.141V25.52H472.357C472.357 23.264 473.893 22.704 476.005 22.704V23.776C474.773 23.776 473.765 23.968 473.701 25.52H476.005V26.608H473.701V34ZM483.86 34H479.428C476.9 34 476.372 32.352 476.372 29.792C476.372 26.672 477.364 25.424 480.228 25.424C482.484 25.424 484.084 26.16 484.084 28.72C484.084 29.696 483.78 30.208 482.82 30.208H477.764C477.764 31.584 478.004 32.912 479.716 32.912H483.86V34ZM477.764 29.12H482.292C482.612 29.12 482.676 28.88 482.676 28.688V28.624C482.676 27.024 481.668 26.512 480.244 26.512C478.5 26.512 477.764 27.184 477.764 29.12ZM485.409 34V28.576C485.409 26.48 486.433 25.52 488.529 25.52H489.457V26.608H488.769C487.297 26.608 486.753 27.36 486.753 28.912V34H485.409ZM493.988 34V28.576C493.988 26.48 495.012 25.52 497.108 25.52H498.036V26.608H497.348C495.876 26.608 495.332 27.36 495.332 28.912V34H493.988ZM502.599 25.424C505.639 25.424 506.951 26.528 506.951 29.728C506.951 32.944 505.639 34.096 502.599 34.096C499.559 34.096 498.247 32.944 498.247 29.728C498.247 26.528 499.559 25.424 502.599 25.424ZM499.655 29.728C499.655 32.128 500.439 33.008 502.599 33.008C504.759 33.008 505.543 32.128 505.543 29.728C505.543 27.328 504.759 26.512 502.599 26.512C500.439 26.512 499.655 27.328 499.655 29.728ZM512.364 25.424C515.404 25.424 516.716 26.528 516.716 29.728C516.716 32.944 515.404 34.096 512.364 34.096C509.324 34.096 508.012 32.944 508.012 29.728C508.012 26.528 509.324 25.424 512.364 25.424ZM509.42 29.728C509.42 32.128 510.204 33.008 512.364 33.008C514.524 33.008 515.308 32.128 515.308 29.728C515.308 27.328 514.524 26.512 512.364 26.512C510.204 26.512 509.42 27.328 509.42 29.728ZM518.05 34V26.912C518.05 26.032 518.418 25.52 519.346 25.52H526.93C528.77 25.52 529.794 26.32 529.794 28.272V34H528.45V28.512C528.45 27.36 528.034 26.608 526.754 26.608H524.594V34H523.25V26.608H519.89C519.57 26.608 519.394 26.72 519.394 27.152V34H518.05Z" fill="white"/>
<g filter="url(#filter0_d_2113_5869)">
<path d="M191.364 127.03C191.541 127.03 191.711 127.056 191.88 127.082L204.847 87.7624C203.851 87.1767 203.174 86.1033 203.174 84.8612C203.174 82.9976 204.68 81.4871 206.538 81.4871C207.452 81.4871 208.277 81.8549 208.884 82.4476L239.176 66.4797C239.058 66.1349 238.98 65.771 238.98 65.3858C238.98 63.5224 240.486 62.0116 242.344 62.0116C243.814 62.0116 245.05 62.9626 245.508 64.2798L277.268 58.3865C277.692 57.0084 278.956 56 280.469 56C282.072 56 283.409 57.1272 283.746 58.6329L324.217 69.1114C324.817 68.1844 325.853 67.568 327.037 67.568C328.895 67.568 330.401 69.0788 330.401 70.9424C330.401 71.4715 330.269 71.9657 330.052 72.4114L343.015 84.3088C343.592 83.843 344.316 83.5527 345.114 83.5527C346.972 83.5527 348.479 85.0634 348.479 86.9269C348.479 87.7511 348.172 88.4962 347.683 89.0822L368.226 112.497C368.749 112.161 369.368 111.96 370.036 111.96C371.894 111.96 373.4 113.47 373.4 115.334C373.4 116.714 372.571 117.898 371.387 118.42L381.147 154.992C382.967 155.036 384.431 156.523 384.431 158.358C384.431 159.87 383.433 161.135 382.066 161.564L382.133 180.517C383.753 180.759 385 182.148 385 183.841C385 185.704 383.494 187.215 381.636 187.215C380.983 187.215 380.38 187.021 379.865 186.698L365.512 202.079C365.962 202.653 366.242 203.367 366.242 204.154C366.242 206.017 364.736 207.528 362.878 207.528C361.524 207.528 360.365 206.722 359.831 205.566L316.204 218.177C316.224 218.326 316.25 218.472 316.25 218.626C316.25 220.49 314.743 222 312.885 222C311.027 222 309.521 220.49 309.521 218.626C309.521 218.021 309.693 217.461 309.971 216.969L289.739 200.486C289.195 200.863 288.538 201.087 287.827 201.087C286.169 201.087 284.799 199.882 284.522 198.299L247.498 199.347C247.295 201.016 245.894 202.315 244.174 202.315C242.316 202.315 240.81 200.804 240.81 198.941C240.81 198.397 240.95 197.892 241.177 197.437L227.043 185.601C226.43 186.252 225.567 186.664 224.603 186.664C222.745 186.664 221.239 185.153 221.239 183.29C221.239 181.51 222.616 180.068 224.358 179.94L226.008 161.624C224.541 161.261 223.45 159.942 223.45 158.358C223.45 157.753 223.621 157.193 223.9 156.701L193.734 132.798C193.126 133.404 192.289 133.778 191.364 133.778C189.506 133.778 188 132.268 188 130.404C188 128.541 189.506 127.03 191.364 127.03ZM192.85 127.391C193.959 127.943 194.729 129.078 194.729 130.404C194.729 130.972 194.576 131.498 194.329 131.967L224.527 155.896C225.125 155.337 225.921 154.989 226.802 154.985L232.41 117.358C231.041 116.931 230.04 115.665 230.04 114.151C230.04 113.342 230.336 112.609 230.81 112.028L208.699 87.4278C208.113 87.9244 207.365 88.2353 206.538 88.2353C206.281 88.2353 206.033 88.2006 205.793 88.1458L192.85 127.391ZM381.114 180.519L381.048 161.731C379.239 161.72 377.777 160.277 377.714 158.475L326.889 151.82C326.729 152.37 326.448 152.868 326.057 153.263L361.321 201.179C361.789 200.932 362.312 200.779 362.878 200.779C363.583 200.779 364.236 200.999 364.777 201.371L379.094 186.029C378.588 185.439 378.271 184.68 378.271 183.841C378.271 182.156 379.505 180.772 381.114 180.519ZM227.806 155.151C228.592 155.395 229.251 155.911 229.673 156.601L276.109 137.044C276.107 136.994 276.094 136.948 276.094 136.897C276.094 135.583 276.852 134.456 277.946 133.899L266.759 104.085C266.469 104.166 266.17 104.224 265.855 104.224C264.602 104.224 263.522 103.529 262.943 102.51L236.627 113.233C236.711 113.527 236.769 113.831 236.769 114.151C236.769 116.011 235.269 117.518 233.416 117.524L229.673 142.628L227.806 155.151ZM287.827 194.339C288.228 194.339 288.608 194.421 288.965 194.551L321.227 153.189C320.661 152.585 320.308 151.778 320.308 150.883C320.308 150.691 320.334 150.506 320.364 150.322L295.927 142.199L282.686 137.798C282.381 138.898 281.542 139.762 280.461 140.102L287.244 194.398C287.434 194.364 287.627 194.339 287.827 194.339ZM328.524 116.01C328.524 115.919 328.544 115.833 328.551 115.744L312.426 111.923L269.039 101.893C268.799 102.629 268.325 103.257 267.691 103.672L276.714 128.327L278.917 133.578C279.094 133.549 279.273 133.523 279.458 133.523C281.271 133.523 282.737 134.963 282.809 136.763L320.689 149.354C321.247 148.264 322.366 147.509 323.672 147.509C323.763 147.509 323.848 147.529 323.937 147.536L330.628 119.135C329.395 118.634 328.524 117.426 328.524 116.01ZM269.499 78.4102C269.185 79.8563 267.946 80.9428 266.435 81.0426L266.631 97.5746C268.113 97.9271 269.219 99.2553 269.219 100.85C269.219 100.862 269.216 100.872 269.216 100.884L314.122 111.275L328.773 114.747C329.02 114.135 329.439 113.614 329.972 113.242L318.503 89.7075L315.759 84.0761C315.625 84.0924 315.492 84.1169 315.354 84.1169C313.613 84.1169 312.198 82.7857 312.024 81.0859L293.968 79.9498L269.499 78.4102ZM345.114 90.3011C343.256 90.3011 341.75 88.7903 341.75 86.9269C341.75 86.8725 341.763 86.8219 341.766 86.7681L318.462 82.0289C318.138 82.8147 317.525 83.4448 316.759 83.8L330.892 112.804C331.209 112.705 331.539 112.636 331.889 112.636C333.552 112.636 334.924 113.85 335.195 115.44L366.717 114.881C366.804 114.236 367.07 113.654 367.467 113.178L346.924 89.7638C346.4 90.1001 345.782 90.3011 345.114 90.3011ZM209.493 83.2804C209.746 83.754 209.903 84.2867 209.903 84.8612C209.903 85.5231 209.706 86.1359 209.377 86.6569L231.558 111.334C232.089 110.984 232.722 110.777 233.405 110.777C234.58 110.777 235.612 111.384 236.214 112.3L262.568 101.559C262.519 101.33 262.491 101.094 262.491 100.85C262.491 99.0688 263.871 97.6259 265.614 97.5L265.42 80.9596C263.948 80.5997 262.851 79.2779 262.851 77.6907C262.851 77.3169 262.926 76.9639 263.038 76.6277L245.061 67.3609C244.45 68.2053 243.464 68.76 242.344 68.76C241.235 68.76 240.26 68.2151 239.647 67.3852L209.493 83.2804ZM245.522 66.4492L252.296 69.9416L263.498 75.7158C264.11 74.8714 265.095 74.3165 266.215 74.3165C267.97 74.3165 269.395 75.6691 269.549 77.389L312.058 80.0643C312.084 79.9362 312.131 79.8173 312.172 79.6952L283.463 60.8839C282.909 61.9853 281.783 62.7485 280.469 62.7485C278.638 62.7485 277.156 61.2794 277.113 59.4536L245.698 65.2836C245.699 65.3184 245.709 65.3508 245.709 65.3858C245.709 65.7598 245.634 66.113 245.522 66.4492ZM327.037 74.3165C325.179 74.3165 323.672 72.8058 323.672 70.9424C323.672 70.6348 323.727 70.3426 323.803 70.0595L283.8 59.7025C283.795 59.7596 283.792 59.8173 283.783 59.8733L312.63 78.7753C313.241 77.9263 314.23 77.3686 315.354 77.3686C317.212 77.3686 318.718 78.8792 318.718 80.7426C318.718 80.8419 318.698 80.9352 318.689 81.032L341.967 85.7662C342.059 85.5146 342.171 85.273 342.317 85.0536L329.47 73.2624C328.857 73.9088 327.997 74.3165 327.037 74.3165ZM370.036 118.708C368.372 118.708 366.999 117.494 366.729 115.903L335.207 116.462C334.985 118.11 333.592 119.384 331.889 119.384C331.797 119.384 331.712 119.365 331.623 119.358L324.932 147.759C326.143 148.251 326.998 149.426 327.029 150.809L377.838 157.461C378.148 156.338 379.016 155.459 380.13 155.133L370.4 118.671C370.279 118.684 370.16 118.708 370.036 118.708ZM359.556 204.583C359.538 204.441 359.513 204.301 359.513 204.154C359.513 203.225 359.887 202.385 360.493 201.775L351.74 189.881L325.228 153.858C324.761 154.105 324.237 154.258 323.672 154.258C323.074 154.258 322.521 154.088 322.034 153.814L289.87 195.049C290.668 195.666 291.192 196.624 291.192 197.713C291.192 198.492 290.918 199.2 290.476 199.771L310.598 216.164C311.198 215.603 311.999 215.252 312.885 215.252C314.232 215.252 315.385 216.05 315.922 217.196L359.556 204.583ZM241.761 196.596C242.373 195.963 243.226 195.566 244.174 195.566C245.822 195.566 247.187 196.756 247.477 198.325L284.507 197.277C284.65 196.174 285.318 195.246 286.26 194.745L279.455 140.271C278.01 140.27 276.788 139.35 276.314 138.066L230.068 157.542C230.133 157.805 230.178 158.075 230.178 158.358C230.178 160.15 228.781 161.602 227.022 161.712L225.374 180.013C226.859 180.364 227.968 181.693 227.968 183.29C227.968 183.817 227.836 184.31 227.621 184.754L241.761 196.596Z" fill="#31E2ED"/>
</g>
<defs>
<filter id="filter0_d_2113_5869" x="174" y="42" width="225" height="194" filterUnits="userSpaceOnUse" color-interpolation-filters="sRGB">
<feFlood flood-opacity="0" result="BackgroundImageFix"/>
<feColorMatrix in="SourceAlpha" type="matrix" values="0 0 0 0 0 0 0 0 0 0 0 0 0 0 0 0 0 0 127 0" result="hardAlpha"/>
<feOffset/>
<feGaussianBlur stdDeviation="7"/>
<feComposite in2="hardAlpha" operator="out"/>
<feColorMatrix type="matrix" values="0 0 0 0 0.192157 0 0 0 0 0.886275 0 0 0 0 0.929412 0 0 0 0.61 0"/>
<feBlend mode="normal" in2="BackgroundImageFix" result="effect1_dropShadow_2113_5869"/>
<feBlend mode="normal" in="SourceGraphic" in2="effect1_dropShadow_2113_5869" result="shape"/>
</filter>
</defs>
</svg>
