<svg width="625" height="362" viewBox="0 0 625 362" fill="none" xmlns="http://www.w3.org/2000/svg">
<path d="M208 60L266 113" stroke="white" stroke-width="0.979902" stroke-linecap="round" stroke-linejoin="round"/>
<path d="M380 86L421 85" stroke="white" stroke-width="0.979902" stroke-linecap="round" stroke-linejoin="round"/>
<path d="M303 75L367 25" stroke="white" stroke-width="0.979902" stroke-linecap="round" stroke-linejoin="round"/>
<path d="M388 257L347 217" stroke="white" stroke-width="0.979902" stroke-linecap="round" stroke-linejoin="round"/>
<path d="M208 263L280 200" stroke="white" stroke-width="0.979902" stroke-linecap="round" stroke-linejoin="round"/>
<path d="M202 186L262 158" stroke="white" stroke-width="0.979902" stroke-linecap="round" stroke-linejoin="round"/>
<path d="M71.9218 45V35.736C71.9218 35.256 71.8738 35.032 71.4738 35.032H70.2898V33.8H72.1618C72.9618 33.8 73.4098 34.168 73.4098 35.048V45H71.9218ZM76.784 45H75.328V43.272H76.784V45ZM87.416 43.256L89.656 34.792C89.768 34.376 90.008 33.672 91 33.672C91.928 33.672 92.216 34.344 92.344 34.792L94.584 43.256C94.616 43.4 94.744 43.528 94.856 43.528C95.016 43.528 95.08 43.304 95.112 43.192L97.496 33.8H99L96.328 43.88C96.104 44.712 95.752 45.128 94.888 45.128C93.864 45.128 93.592 44.52 93.432 43.896L91.24 35.672C91.208 35.528 91.144 35.368 91 35.368C90.856 35.368 90.792 35.528 90.76 35.672L88.552 43.896C88.392 44.52 88.136 45.128 87.112 45.128C86.248 45.128 85.896 44.712 85.672 43.88L83 33.8H84.504L86.888 43.192C86.92 43.304 86.952 43.528 87.144 43.528C87.256 43.528 87.384 43.4 87.416 43.256ZM99.8 45V33.8H101.144V36.52H104.056C105.928 36.52 107 37.32 107 39.4V45H105.656V39.576C105.656 38.296 105.16 37.608 103.88 37.608H101.144V45H99.8ZM116.329 36.52L111.273 47.736H109.865L111.161 45L107.481 36.52H108.889L111.849 43.528L114.921 36.52H116.329ZM120.722 45V36.52H122.066V45H120.722ZM122.082 35.272H120.706V33.8H122.082V35.272ZM123.483 45V43.912H128.299C129.003 43.912 129.323 43.544 129.323 42.84C129.323 41.944 128.555 41.784 127.243 41.464L125.691 41.08C124.075 40.68 123.355 40.056 123.355 38.632C123.355 37.208 124.155 36.52 125.643 36.52H130.235V37.608H125.787C125.003 37.608 124.699 37.88 124.699 38.632C124.699 39.576 125.355 39.8 126.283 40.04L127.963 40.472C129.675 40.904 130.731 41.208 130.731 42.856C130.731 44.168 130.251 45 128.635 45H123.483ZM139.977 45H138.969C136.857 45 136.265 43.992 136.265 42.28V37.608H135.017V36.52H136.265V33.8H137.609V36.52H139.977V37.608H137.609V42.2C137.609 43.512 138.121 43.912 139.417 43.912H139.977V45ZM140.847 45V33.8H142.191V36.52H145.103C146.975 36.52 148.047 37.32 148.047 39.4V45H146.703V39.576C146.703 38.296 146.207 37.608 144.927 37.608H142.191V45H140.847ZM149.66 45V36.52H151.004V45H149.66ZM151.02 35.272H149.644V33.8H151.02V35.272ZM152.421 45V43.912H157.237C157.941 43.912 158.261 43.544 158.261 42.84C158.261 41.944 157.493 41.784 156.181 41.464L154.629 41.08C153.013 40.68 152.293 40.056 152.293 38.632C152.293 37.208 153.093 36.52 154.581 36.52H159.173V37.608H154.725C153.941 37.608 153.637 37.88 153.637 38.632C153.637 39.576 154.293 39.8 155.221 40.04L156.901 40.472C158.613 40.904 159.669 41.208 159.669 42.856C159.669 44.168 159.189 45 157.573 45H152.421ZM165.059 36.52H169.523C171.027 36.52 171.731 37.448 171.731 38.84V43.72C171.731 44.584 171.395 45 170.403 45H166.627C165.075 45 164.419 44.168 164.419 42.408C164.419 40.728 165.075 39.832 166.627 39.832H170.387V38.824C170.387 38.104 170.035 37.608 169.187 37.608H165.059V36.52ZM170.387 40.92H166.883C166.051 40.92 165.827 41.496 165.827 42.408C165.827 43.32 166.051 43.912 166.883 43.912H169.939C170.243 43.912 170.387 43.736 170.387 43.48V40.92ZM178.41 45V47.72H177.066V37.848C177.066 36.888 177.626 36.52 178.458 36.52H181.002C183.722 36.52 184.474 38.088 184.474 40.728C184.474 43.368 183.722 45 181.002 45H178.41ZM178.41 38.104V43.912H180.762C182.794 43.912 183.066 42.568 183.066 40.728C183.066 38.888 182.794 37.608 180.762 37.608H178.906C178.586 37.608 178.41 37.72 178.41 38.104ZM185.8 45V39.576C185.8 37.48 186.824 36.52 188.92 36.52H189.848V37.608H189.16C187.688 37.608 187.144 38.36 187.144 39.912V45H185.8ZM194.411 36.424C197.451 36.424 198.763 37.528 198.763 40.728C198.763 43.944 197.451 45.096 194.411 45.096C191.371 45.096 190.059 43.944 190.059 40.728C190.059 37.528 191.371 36.424 194.411 36.424ZM191.467 40.728C191.467 43.128 192.251 44.008 194.411 44.008C196.571 44.008 197.355 43.128 197.355 40.728C197.355 38.328 196.571 37.512 194.411 37.512C192.251 37.512 191.467 38.328 191.467 40.728ZM204.033 45H201.665C200.673 45 200.097 44.696 200.097 43.624V33.8H201.441V36.52H204.033C206.753 36.52 207.505 38.072 207.505 40.712C207.505 43.352 206.753 45 204.033 45ZM201.441 37.608V43.336C201.441 43.704 201.537 43.912 201.985 43.912H203.793C205.825 43.912 206.097 42.552 206.097 40.712C206.097 38.872 205.825 37.608 203.793 37.608H201.441ZM208.831 45V33.8H210.175V45H208.831ZM218.985 45H214.553C212.025 45 211.497 43.352 211.497 40.792C211.497 37.672 212.489 36.424 215.353 36.424C217.609 36.424 219.209 37.16 219.209 39.72C219.209 40.696 218.905 41.208 217.945 41.208H212.889C212.889 42.584 213.129 43.912 214.841 43.912H218.985V45ZM212.889 40.12H217.417C217.737 40.12 217.801 39.88 217.801 39.688V39.624C217.801 38.024 216.793 37.512 215.369 37.512C213.625 37.512 212.889 38.184 212.889 40.12ZM220.534 45V37.912C220.534 37.032 220.902 36.52 221.83 36.52H229.414C231.254 36.52 232.278 37.32 232.278 39.272V45H230.934V39.512C230.934 38.36 230.518 37.608 229.238 37.608H227.078V45H225.734V37.608H222.374C222.054 37.608 221.878 37.72 221.878 38.152V45H220.534ZM83.816 64V55.52H85.16V64H83.816ZM85.176 54.272H83.8V52.8H85.176V54.272ZM86.7688 64V56.912C86.7688 56.032 87.1368 55.52 88.0648 55.52H91.1048C92.9448 55.52 93.9688 56.32 93.9688 58.272V64H92.6248V58.512C92.6248 57.36 92.2088 56.608 90.9288 56.608H88.6088C88.2888 56.608 88.1128 56.72 88.1128 57.152V64H86.7688ZM103.524 64H102.516C100.404 64 99.812 62.992 99.812 61.28V56.608H98.564V55.52H99.812V52.8H101.156V55.52H103.524V56.608H101.156V61.2C101.156 62.512 101.668 62.912 102.964 62.912H103.524V64ZM104.394 64V52.8H105.738V55.52H108.65C110.522 55.52 111.594 56.32 111.594 58.4V64H110.25V58.576C110.25 57.296 109.754 56.608 108.474 56.608H105.738V64H104.394ZM120.407 64H115.975C113.447 64 112.919 62.352 112.919 59.792C112.919 56.672 113.911 55.424 116.775 55.424C119.031 55.424 120.631 56.16 120.631 58.72C120.631 59.696 120.327 60.208 119.367 60.208H114.311C114.311 61.584 114.551 62.912 116.263 62.912H120.407V64ZM114.311 59.12H118.839C119.159 59.12 119.223 58.88 119.223 58.688V58.624C119.223 57.024 118.215 56.512 116.791 56.512C115.047 56.512 114.311 57.184 114.311 59.12ZM127.451 64H126.107V56.608H124.891V55.52H126.107C126.107 53.264 127.643 52.704 129.755 52.704V53.776C128.523 53.776 127.515 53.968 127.451 55.52H129.755V56.608H127.451V64ZM130.379 64V55.52H131.723V64H130.379ZM131.739 54.272H130.363V52.8H131.739V54.272ZM133.331 64V58.576C133.331 56.48 134.355 55.52 136.451 55.52H137.379V56.608H136.691C135.219 56.608 134.675 57.36 134.675 58.912V64H133.331ZM137.983 64V62.912H142.799C143.503 62.912 143.823 62.544 143.823 61.84C143.823 60.944 143.055 60.784 141.743 60.464L140.191 60.08C138.575 59.68 137.855 59.056 137.855 57.632C137.855 56.208 138.655 55.52 140.143 55.52H144.735V56.608H140.287C139.503 56.608 139.199 56.88 139.199 57.632C139.199 58.576 139.855 58.8 140.783 59.04L142.463 59.472C144.175 59.904 145.231 60.208 145.231 61.856C145.231 63.168 144.751 64 143.135 64H137.983ZM150.587 64H149.579C147.467 64 146.875 62.992 146.875 61.28V56.608H145.627V55.52H146.875V52.8H148.219V55.52H150.587V56.608H148.219V61.2C148.219 62.512 148.731 62.912 150.027 62.912H150.587V64ZM156.535 64V66.72H155.191V56.848C155.191 55.888 155.751 55.52 156.583 55.52H159.127C161.847 55.52 162.599 57.088 162.599 59.728C162.599 62.368 161.847 64 159.127 64H156.535ZM156.535 57.104V62.912H158.887C160.919 62.912 161.191 61.568 161.191 59.728C161.191 57.888 160.919 56.608 158.887 56.608H157.031C156.711 56.608 156.535 56.72 156.535 57.104ZM163.925 64V52.8H165.269V64H163.925ZM167.231 55.52H171.695C173.199 55.52 173.903 56.448 173.903 57.84V62.72C173.903 63.584 173.567 64 172.575 64H168.799C167.247 64 166.59 63.168 166.59 61.408C166.59 59.728 167.247 58.832 168.799 58.832H172.559V57.824C172.559 57.104 172.207 56.608 171.359 56.608H167.231V55.52ZM172.559 59.92H169.055C168.223 59.92 167.999 60.496 167.999 61.408C167.999 62.32 168.223 62.912 169.055 62.912H172.111C172.415 62.912 172.559 62.736 172.559 62.48V59.92ZM182.223 64H178.831C175.951 64 175.231 62.384 175.231 59.744C175.231 57.184 175.951 55.52 178.831 55.52H182.047V56.608H179.071C176.959 56.608 176.639 57.824 176.639 59.744C176.639 61.744 176.959 62.912 179.071 62.912H182.223V64ZM190.188 64H185.756C183.228 64 182.7 62.352 182.7 59.792C182.7 56.672 183.692 55.424 186.556 55.424C188.812 55.424 190.412 56.16 190.412 58.72C190.412 59.696 190.108 60.208 189.148 60.208H184.092C184.092 61.584 184.332 62.912 186.044 62.912H190.188V64ZM184.092 59.12H188.62C188.94 59.12 189.004 58.88 189.004 58.688V58.624C189.004 57.024 187.996 56.512 186.572 56.512C184.828 56.512 184.092 57.184 184.092 59.12ZM192.714 64V62.4H194.122V64H192.714ZM194.122 61.184H192.714V60.112C192.714 59.072 193.146 58.656 193.93 58.192L195.194 57.456C195.914 57.04 196.106 56.608 196.106 55.744C196.106 54.576 195.818 54.016 194.666 54.016H191.178V52.8H195.13C196.842 52.8 197.658 53.568 197.658 55.536C197.658 56.816 197.274 57.552 196.234 58.16L194.826 59.008C194.458 59.232 194.122 59.552 194.122 60.048V61.184Z" fill="white"/>
<path d="M427.699 90V88.784H432.307C433.523 88.784 434.179 88.672 434.179 86.96C434.179 85.792 433.987 84.96 432.467 84.96H427.987V83.744H432.371C433.731 83.744 434.067 83.2 434.067 81.872C434.067 80.896 433.939 80.016 432.739 80.016H427.907V78.8H433.075C435.027 78.8 435.603 79.808 435.603 81.76C435.603 82.88 435.427 84.144 434.019 84.32V84.384C435.363 84.512 435.731 85.664 435.731 86.96C435.731 88.688 435.267 90 433.219 90H427.699ZM438.784 90H437.328V88.272H438.784V90ZM449.416 88.256L451.656 79.792C451.768 79.376 452.008 78.672 453 78.672C453.928 78.672 454.216 79.344 454.344 79.792L456.584 88.256C456.616 88.4 456.744 88.528 456.856 88.528C457.016 88.528 457.08 88.304 457.112 88.192L459.496 78.8H461L458.328 88.88C458.104 89.712 457.752 90.128 456.888 90.128C455.864 90.128 455.592 89.52 455.432 88.896L453.24 80.672C453.208 80.528 453.144 80.368 453 80.368C452.856 80.368 452.792 80.528 452.76 80.672L450.552 88.896C450.392 89.52 450.136 90.128 449.112 90.128C448.248 90.128 447.896 89.712 447.672 88.88L445 78.8H446.504L448.888 88.192C448.92 88.304 448.952 88.528 449.144 88.528C449.256 88.528 449.384 88.4 449.416 88.256ZM461.8 90V78.8H463.144V81.52H466.056C467.928 81.52 469 82.32 469 84.4V90H467.656V84.576C467.656 83.296 467.16 82.608 465.88 82.608H463.144V90H461.8ZM470.965 81.52H475.429C476.933 81.52 477.637 82.448 477.637 83.84V88.72C477.637 89.584 477.301 90 476.309 90H472.533C470.981 90 470.325 89.168 470.325 87.408C470.325 85.728 470.981 84.832 472.533 84.832H476.293V83.824C476.293 83.104 475.941 82.608 475.093 82.608H470.965V81.52ZM476.293 85.92H472.789C471.957 85.92 471.733 86.496 471.733 87.408C471.733 88.32 471.957 88.912 472.789 88.912H475.845C476.149 88.912 476.293 88.736 476.293 88.48V85.92ZM483.462 90H482.454C480.342 90 479.75 88.992 479.75 87.28V82.608H478.502V81.52H479.75V78.8H481.094V81.52H483.462V82.608H481.094V87.2C481.094 88.512 481.606 88.912 482.902 88.912H483.462V90ZM488.434 81.52H492.898C494.402 81.52 495.106 82.448 495.106 83.84V88.72C495.106 89.584 494.77 90 493.778 90H490.002C488.45 90 487.794 89.168 487.794 87.408C487.794 85.728 488.45 84.832 490.002 84.832H493.762V83.824C493.762 83.104 493.41 82.608 492.562 82.608H488.434V81.52ZM493.762 85.92H490.258C489.426 85.92 489.202 86.496 489.202 87.408C489.202 88.32 489.426 88.912 490.258 88.912H493.314C493.618 88.912 493.762 88.736 493.762 88.48V85.92ZM496.706 90V84.576C496.706 82.48 497.73 81.52 499.826 81.52H500.754V82.608H500.066C498.594 82.608 498.05 83.36 498.05 84.912V90H496.706ZM508.454 90H504.022C501.493 90 500.965 88.352 500.965 85.792C500.965 82.672 501.958 81.424 504.822 81.424C507.078 81.424 508.678 82.16 508.678 84.72C508.678 85.696 508.374 86.208 507.414 86.208H502.358C502.358 87.584 502.598 88.912 504.31 88.912H508.454V90ZM502.358 85.12H506.886C507.206 85.12 507.27 84.88 507.27 84.688V84.624C507.27 83.024 506.262 82.512 504.838 82.512C503.094 82.512 502.358 83.184 502.358 85.12ZM517.962 90H516.954C514.842 90 514.25 88.992 514.25 87.28V82.608H513.002V81.52H514.25V78.8H515.594V81.52H517.962V82.608H515.594V87.2C515.594 88.512 516.106 88.912 517.402 88.912H517.962V90ZM518.831 90V78.8H520.175V81.52H523.087C524.959 81.52 526.031 82.32 526.031 84.4V90H524.687V84.576C524.687 83.296 524.191 82.608 522.911 82.608H520.175V90H518.831ZM534.844 90H530.412C527.884 90 527.356 88.352 527.356 85.792C527.356 82.672 528.348 81.424 531.212 81.424C533.468 81.424 535.068 82.16 535.068 84.72C535.068 85.696 534.764 86.208 533.804 86.208H528.748C528.748 87.584 528.988 88.912 530.7 88.912H534.844V90ZM528.748 85.12H533.276C533.596 85.12 533.66 84.88 533.66 84.688V84.624C533.66 83.024 532.652 82.512 531.228 82.512C529.484 82.512 528.748 83.184 528.748 85.12ZM545.968 90H543.376C540.576 90 539.856 88.48 539.856 85.76C539.856 83.12 540.576 81.52 543.376 81.52H545.92V78.8H547.264V88.672C547.264 89.504 546.944 90 545.968 90ZM545.92 82.624H543.632C541.6 82.624 541.264 83.76 541.264 85.76C541.264 87.84 541.6 88.912 543.632 88.912H545.36C545.808 88.912 545.92 88.736 545.92 88.304V82.624ZM548.879 90V81.52H550.223V90H548.879ZM550.239 80.272H548.863V78.8H550.239V80.272ZM553.591 90H552.247V82.608H551.031V81.52H552.247C552.247 79.264 553.783 78.704 555.895 78.704V79.776C554.663 79.776 553.655 79.968 553.591 81.52H555.895V82.608H553.591V90ZM559.091 90H557.747V82.608H556.531V81.52H557.747C557.747 79.264 559.283 78.704 561.395 78.704V79.776C560.163 79.776 559.155 79.968 559.091 81.52H561.395V82.608H559.091V90ZM569.25 90H564.818C562.29 90 561.762 88.352 561.762 85.792C561.762 82.672 562.754 81.424 565.618 81.424C567.874 81.424 569.474 82.16 569.474 84.72C569.474 85.696 569.17 86.208 568.21 86.208H563.154C563.154 87.584 563.394 88.912 565.106 88.912H569.25V90ZM563.154 85.12H567.682C568.002 85.12 568.066 84.88 568.066 84.688V84.624C568.066 83.024 567.058 82.512 565.634 82.512C563.89 82.512 563.154 83.184 563.154 85.12ZM570.8 90V84.576C570.8 82.48 571.824 81.52 573.92 81.52H574.848V82.608H574.16C572.688 82.608 572.144 83.36 572.144 84.912V90H570.8ZM582.547 90H578.115C575.587 90 575.059 88.352 575.059 85.792C575.059 82.672 576.051 81.424 578.915 81.424C581.171 81.424 582.771 82.16 582.771 84.72C582.771 85.696 582.467 86.208 581.507 86.208H576.451C576.451 87.584 576.691 88.912 578.403 88.912H582.547V90ZM576.451 85.12H580.979C581.299 85.12 581.363 84.88 581.363 84.688V84.624C581.363 83.024 580.355 82.512 578.931 82.512C577.187 82.512 576.451 83.184 576.451 85.12ZM584.097 90V82.912C584.097 82.032 584.465 81.52 585.393 81.52H588.433C590.273 81.52 591.297 82.32 591.297 84.272V90H589.953V84.512C589.953 83.36 589.537 82.608 588.257 82.608H585.937C585.617 82.608 585.441 82.72 585.441 83.152V90H584.097ZM597.118 90H596.11C593.998 90 593.406 88.992 593.406 87.28V82.608H592.158V81.52H593.406V78.8H594.75V81.52H597.118V82.608H594.75V87.2C594.75 88.512 595.262 88.912 596.558 88.912H597.118V90ZM453.016 109H448.584C446.056 109 445.528 107.352 445.528 104.792C445.528 101.672 446.52 100.424 449.384 100.424C451.64 100.424 453.24 101.16 453.24 103.72C453.24 104.696 452.936 105.208 451.976 105.208H446.92C446.92 106.584 447.16 107.912 448.872 107.912H453.016V109ZM446.92 104.12H451.448C451.768 104.12 451.832 103.88 451.832 103.688V103.624C451.832 102.024 450.824 101.512 449.4 101.512C447.656 101.512 446.92 102.184 446.92 104.12ZM454.566 109V97.8H455.91V109H454.566ZM464.719 109H460.287C457.759 109 457.231 107.352 457.231 104.792C457.231 101.672 458.223 100.424 461.087 100.424C463.343 100.424 464.943 101.16 464.943 103.72C464.943 104.696 464.639 105.208 463.679 105.208H458.623C458.623 106.584 458.863 107.912 460.575 107.912H464.719V109ZM458.623 104.12H463.151C463.471 104.12 463.535 103.88 463.535 103.688V103.624C463.535 102.024 462.527 101.512 461.103 101.512C459.359 101.512 458.623 102.184 458.623 104.12ZM466.269 109V101.912C466.269 101.032 466.637 100.52 467.565 100.52H475.149C476.989 100.52 478.013 101.32 478.013 103.272V109H476.669V103.512C476.669 102.36 476.253 101.608 474.973 101.608H472.813V109H471.469V101.608H468.109C467.789 101.608 467.613 101.72 467.613 102.152V109H466.269ZM486.829 109H482.397C479.868 109 479.34 107.352 479.34 104.792C479.34 101.672 480.333 100.424 483.197 100.424C485.453 100.424 487.053 101.16 487.053 103.72C487.053 104.696 486.749 105.208 485.789 105.208H480.733C480.733 106.584 480.973 107.912 482.685 107.912H486.829V109ZM480.733 104.12H485.261C485.581 104.12 485.645 103.88 485.645 103.688V103.624C485.645 102.024 484.637 101.512 483.213 101.512C481.469 101.512 480.733 102.184 480.733 104.12ZM488.378 109V101.912C488.378 101.032 488.746 100.52 489.674 100.52H492.714C494.554 100.52 495.578 101.32 495.578 103.272V109H494.234V103.512C494.234 102.36 493.818 101.608 492.538 101.608H490.218C489.898 101.608 489.722 101.72 489.722 102.152V109H488.378ZM501.399 109H500.391C498.279 109 497.687 107.992 497.687 106.28V101.608H496.439V100.52H497.687V97.8H499.031V100.52H501.399V101.608H499.031V106.2C499.031 107.512 499.543 107.912 500.839 107.912H501.399V109ZM502.233 109V107.912H507.049C507.753 107.912 508.073 107.544 508.073 106.84C508.073 105.944 507.305 105.784 505.993 105.464L504.441 105.08C502.825 104.68 502.105 104.056 502.105 102.632C502.105 101.208 502.905 100.52 504.393 100.52H508.985V101.608H504.537C503.753 101.608 503.449 101.88 503.449 102.632C503.449 103.576 504.105 103.8 505.033 104.04L506.713 104.472C508.425 104.904 509.481 105.208 509.481 106.856C509.481 108.168 509.001 109 507.385 109H502.233ZM518.727 109H517.719C515.607 109 515.015 107.992 515.015 106.28V101.608H513.767V100.52H515.015V97.8H516.359V100.52H518.727V101.608H516.359V106.2C516.359 107.512 516.871 107.912 518.167 107.912H518.727V109ZM519.597 109V97.8H520.941V100.52H523.853C525.725 100.52 526.797 101.32 526.797 103.4V109H525.453V103.576C525.453 102.296 524.957 101.608 523.677 101.608H520.941V109H519.597ZM528.762 100.52H533.226C534.73 100.52 535.434 101.448 535.434 102.84V107.72C535.434 108.584 535.098 109 534.106 109H530.33C528.778 109 528.122 108.168 528.122 106.408C528.122 104.728 528.778 103.832 530.33 103.832H534.09V102.824C534.09 102.104 533.738 101.608 532.89 101.608H528.762V100.52ZM534.09 104.92H530.586C529.754 104.92 529.53 105.496 529.53 106.408C529.53 107.32 529.754 107.912 530.586 107.912H533.642C533.946 107.912 534.09 107.736 534.09 107.48V104.92ZM541.258 109H540.25C538.138 109 537.546 107.992 537.546 106.28V101.608H536.298V100.52H537.546V97.8H538.89V100.52H541.258V101.608H538.89V106.2C538.89 107.512 539.402 107.912 540.698 107.912H541.258V109ZM546.231 100.52H550.695C552.199 100.52 552.903 101.448 552.903 102.84V107.72C552.903 108.584 552.567 109 551.575 109H547.799C546.247 109 545.59 108.168 545.59 106.408C545.59 104.728 546.247 103.832 547.799 103.832H551.559V102.824C551.559 102.104 551.207 101.608 550.359 101.608H546.231V100.52ZM551.559 104.92H548.055C547.223 104.92 546.999 105.496 546.999 106.408C546.999 107.32 547.223 107.912 548.055 107.912H551.111C551.415 107.912 551.559 107.736 551.559 107.48V104.92ZM554.503 109V103.576C554.503 101.48 555.527 100.52 557.623 100.52H558.551V101.608H557.863C556.391 101.608 555.847 102.36 555.847 103.912V109H554.503ZM566.25 109H561.818C559.29 109 558.762 107.352 558.762 104.792C558.762 101.672 559.754 100.424 562.618 100.424C564.874 100.424 566.474 101.16 566.474 103.72C566.474 104.696 566.17 105.208 565.21 105.208H560.154C560.154 106.584 560.394 107.912 562.106 107.912H566.25V109ZM560.154 104.12H564.682C565.002 104.12 565.066 103.88 565.066 103.688V103.624C565.066 102.024 564.058 101.512 562.634 101.512C560.89 101.512 560.154 102.184 560.154 104.12ZM572.878 109V111.72H571.534V101.848C571.534 100.888 572.094 100.52 572.926 100.52H575.47C578.19 100.52 578.942 102.088 578.942 104.728C578.942 107.368 578.19 109 575.47 109H572.878ZM572.878 102.104V107.912H575.23C577.262 107.912 577.534 106.568 577.534 104.728C577.534 102.888 577.262 101.608 575.23 101.608H573.374C573.054 101.608 572.878 101.72 572.878 102.104ZM580.637 100.52H585.101C586.605 100.52 587.309 101.448 587.309 102.84V107.72C587.309 108.584 586.973 109 585.981 109H582.205C580.653 109 579.997 108.168 579.997 106.408C579.997 104.728 580.653 103.832 582.205 103.832H585.965V102.824C585.965 102.104 585.613 101.608 584.765 101.608H580.637V100.52ZM585.965 104.92H582.461C581.629 104.92 581.405 105.496 581.405 106.408C581.405 107.32 581.629 107.912 582.461 107.912H585.517C585.821 107.912 585.965 107.736 585.965 107.48V104.92ZM588.909 109V103.576C588.909 101.48 589.933 100.52 592.029 100.52H592.957V101.608H592.269C590.797 101.608 590.253 102.36 590.253 103.912V109H588.909ZM598.618 109H597.61C595.498 109 594.906 107.992 594.906 106.28V101.608H593.658V100.52H594.906V97.8H596.25V100.52H598.618V101.608H596.25V106.2C596.25 107.512 596.762 107.912 598.058 107.912H598.618V109ZM607.302 100.424C610.342 100.424 611.654 101.528 611.654 104.728C611.654 107.944 610.342 109.096 607.302 109.096C604.262 109.096 602.95 107.944 602.95 104.728C602.95 101.528 604.262 100.424 607.302 100.424ZM604.358 104.728C604.358 107.128 605.142 108.008 607.302 108.008C609.462 108.008 610.246 107.128 610.246 104.728C610.246 102.328 609.462 101.512 607.302 101.512C605.142 101.512 604.358 102.328 604.358 104.728ZM614.748 109H613.404V101.608H612.188V100.52H613.404C613.404 98.264 614.94 97.704 617.052 97.704V98.776C615.82 98.776 614.812 98.968 614.748 100.52H617.052V101.608H614.748V109ZM450.024 128H449.016C446.904 128 446.312 126.992 446.312 125.28V120.608H445.064V119.52H446.312V116.8H447.656V119.52H450.024V120.608H447.656V125.2C447.656 126.512 448.168 126.912 449.464 126.912H450.024V128ZM450.894 128V116.8H452.238V119.52H455.15C457.022 119.52 458.094 120.32 458.094 122.4V128H456.75V122.576C456.75 121.296 456.254 120.608 454.974 120.608H452.238V128H450.894ZM466.907 128H462.475C459.947 128 459.419 126.352 459.419 123.792C459.419 120.672 460.411 119.424 463.275 119.424C465.531 119.424 467.131 120.16 467.131 122.72C467.131 123.696 466.827 124.208 465.867 124.208H460.811C460.811 125.584 461.051 126.912 462.763 126.912H466.907V128ZM460.811 123.12H465.339C465.659 123.12 465.723 122.88 465.723 122.688V122.624C465.723 121.024 464.715 120.512 463.291 120.512C461.547 120.512 460.811 121.184 460.811 123.12ZM473.535 128V130.72H472.191V120.848C472.191 119.888 472.751 119.52 473.583 119.52H476.127C478.847 119.52 479.599 121.088 479.599 123.728C479.599 126.368 478.847 128 476.127 128H473.535ZM473.535 121.104V126.912H475.887C477.919 126.912 478.191 125.568 478.191 123.728C478.191 121.888 477.919 120.608 475.887 120.608H474.031C473.711 120.608 473.535 120.72 473.535 121.104ZM480.925 128V122.576C480.925 120.48 481.949 119.52 484.045 119.52H484.973V120.608H484.285C482.813 120.608 482.269 121.36 482.269 122.912V128H480.925ZM489.536 119.424C492.576 119.424 493.888 120.528 493.888 123.728C493.888 126.944 492.576 128.096 489.536 128.096C486.496 128.096 485.184 126.944 485.184 123.728C485.184 120.528 486.496 119.424 489.536 119.424ZM486.592 123.728C486.592 126.128 487.376 127.008 489.536 127.008C491.696 127.008 492.48 126.128 492.48 123.728C492.48 121.328 491.696 120.512 489.536 120.512C487.376 120.512 486.592 121.328 486.592 123.728ZM499.158 128H496.79C495.798 128 495.222 127.696 495.222 126.624V116.8H496.566V119.52H499.158C501.878 119.52 502.63 121.072 502.63 123.712C502.63 126.352 501.878 128 499.158 128ZM496.566 120.608V126.336C496.566 126.704 496.662 126.912 497.11 126.912H498.918C500.95 126.912 501.222 125.552 501.222 123.712C501.222 121.872 500.95 120.608 498.918 120.608H496.566ZM503.956 128V116.8H505.3V128H503.956ZM514.11 128H509.678C507.15 128 506.622 126.352 506.622 123.792C506.622 120.672 507.614 119.424 510.478 119.424C512.734 119.424 514.334 120.16 514.334 122.72C514.334 123.696 514.03 124.208 513.07 124.208H508.014C508.014 125.584 508.254 126.912 509.966 126.912H514.11V128ZM508.014 123.12H512.542C512.862 123.12 512.926 122.88 512.926 122.688V122.624C512.926 121.024 511.918 120.512 510.494 120.512C508.75 120.512 508.014 121.184 508.014 123.12ZM515.659 128V120.912C515.659 120.032 516.027 119.52 516.955 119.52H524.539C526.379 119.52 527.403 120.32 527.403 122.272V128H526.059V122.512C526.059 121.36 525.643 120.608 524.363 120.608H522.203V128H520.859V120.608H517.499C517.179 120.608 517.003 120.72 517.003 121.152V128H515.659ZM529.979 128V126.4H531.387V128H529.979ZM531.387 125.184H529.979V124.112C529.979 123.072 530.411 122.656 531.195 122.192L532.459 121.456C533.179 121.04 533.371 120.608 533.371 119.744C533.371 118.576 533.083 118.016 531.931 118.016H528.443V116.8H532.395C534.107 116.8 534.923 117.568 534.923 119.536C534.923 120.816 534.539 121.552 533.499 122.16L532.091 123.008C531.723 123.232 531.387 123.552 531.387 124.048V125.184Z" fill="white"/>
<path d="M399.503 272V269.968H393.871C393.215 269.968 392.655 269.648 392.655 268.736C392.655 268.368 392.767 268.016 393.167 267.568L398.735 261.28C399.135 260.832 399.583 260.672 400.015 260.672C400.735 260.672 400.991 261.04 400.991 261.728V268.752H402.287V269.968H400.991V272H399.503ZM399.503 268.752V262.384C399.503 262.336 399.487 262.32 399.439 262.32C399.391 262.32 399.359 262.352 399.247 262.48L394.303 268.192C394.191 268.32 394.095 268.448 394.095 268.56C394.095 268.688 394.207 268.752 394.399 268.752H399.503ZM404.784 272H403.328V270.272H404.784V272ZM415.416 270.256L417.656 261.792C417.768 261.376 418.008 260.672 419 260.672C419.928 260.672 420.216 261.344 420.344 261.792L422.584 270.256C422.616 270.4 422.744 270.528 422.856 270.528C423.016 270.528 423.08 270.304 423.112 270.192L425.496 260.8H427L424.328 270.88C424.104 271.712 423.752 272.128 422.888 272.128C421.864 272.128 421.592 271.52 421.432 270.896L419.24 262.672C419.208 262.528 419.144 262.368 419 262.368C418.856 262.368 418.792 262.528 418.76 262.672L416.552 270.896C416.392 271.52 416.136 272.128 415.112 272.128C414.248 272.128 413.896 271.712 413.672 270.88L411 260.8H412.504L414.888 270.192C414.92 270.304 414.952 270.528 415.144 270.528C415.256 270.528 415.384 270.4 415.416 270.256ZM427.8 272V260.8H429.144V263.52H432.056C433.928 263.52 435 264.32 435 266.4V272H433.656V266.576C433.656 265.296 433.16 264.608 431.88 264.608H429.144V272H427.8ZM436.613 272V263.52H437.957V272H436.613ZM437.973 262.272H436.597V260.8H437.973V262.272ZM446.286 272H442.894C440.014 272 439.294 270.384 439.294 267.744C439.294 265.184 440.014 263.52 442.894 263.52H446.11V264.608H443.134C441.022 264.608 440.702 265.824 440.702 267.744C440.702 269.744 441.022 270.912 443.134 270.912H446.286V272ZM447.347 272V260.8H448.691V263.52H451.603C453.475 263.52 454.547 264.32 454.547 266.4V272H453.203V266.576C453.203 265.296 452.707 264.608 451.427 264.608H448.691V272H447.347ZM467.094 272H462.662C460.134 272 459.606 270.352 459.606 267.792C459.606 264.672 460.598 263.424 463.462 263.424C465.718 263.424 467.318 264.16 467.318 266.72C467.318 267.696 467.014 268.208 466.054 268.208H460.998C460.998 269.584 461.238 270.912 462.95 270.912H467.094V272ZM460.998 267.12H465.526C465.846 267.12 465.91 266.88 465.91 266.688V266.624C465.91 265.024 464.902 264.512 463.478 264.512C461.734 264.512 460.998 265.184 460.998 267.12ZM468.644 272V260.8H469.988V272H468.644ZM478.797 272H474.365C471.837 272 471.309 270.352 471.309 267.792C471.309 264.672 472.301 263.424 475.165 263.424C477.421 263.424 479.021 264.16 479.021 266.72C479.021 267.696 478.717 268.208 477.757 268.208H472.701C472.701 269.584 472.941 270.912 474.653 270.912H478.797V272ZM472.701 267.12H477.229C477.549 267.12 477.613 266.88 477.613 266.688V266.624C477.613 265.024 476.605 264.512 475.181 264.512C473.437 264.512 472.701 265.184 472.701 267.12ZM480.347 272V264.912C480.347 264.032 480.715 263.52 481.643 263.52H489.227C491.067 263.52 492.091 264.32 492.091 266.272V272H490.747V266.512C490.747 265.36 490.331 264.608 489.051 264.608H486.891V272H485.547V264.608H482.187C481.867 264.608 481.691 264.72 481.691 265.152V272H480.347ZM500.907 272H496.475C493.947 272 493.419 270.352 493.419 267.792C493.419 264.672 494.411 263.424 497.275 263.424C499.531 263.424 501.131 264.16 501.131 266.72C501.131 267.696 500.827 268.208 499.867 268.208H494.811C494.811 269.584 495.051 270.912 496.763 270.912H500.907V272ZM494.811 267.12H499.339C499.659 267.12 499.723 266.88 499.723 266.688V266.624C499.723 265.024 498.715 264.512 497.291 264.512C495.547 264.512 494.811 265.184 494.811 267.12ZM502.456 272V264.912C502.456 264.032 502.824 263.52 503.752 263.52H506.792C508.632 263.52 509.656 264.32 509.656 266.272V272H508.312V266.512C508.312 265.36 507.896 264.608 506.616 264.608H504.296C503.976 264.608 503.8 264.72 503.8 265.152V272H502.456ZM515.477 272H514.469C512.357 272 511.765 270.992 511.765 269.28V264.608H510.517V263.52H511.765V260.8H513.109V263.52H515.477V264.608H513.109V269.2C513.109 270.512 513.621 270.912 514.917 270.912H515.477V272ZM517.707 265.104V270.128C517.707 272.224 518.683 273.36 520.555 273.472V274.512C517.867 274.368 516.587 272.784 516.587 270.128V265.104C516.587 262.448 517.867 260.864 520.555 260.72V261.76C518.683 261.872 517.707 263.008 517.707 265.104ZM521.717 272V270.912H526.533C527.237 270.912 527.557 270.544 527.557 269.84C527.557 268.944 526.789 268.784 525.477 268.464L523.925 268.08C522.309 267.68 521.589 267.056 521.589 265.632C521.589 264.208 522.389 263.52 523.877 263.52H528.469V264.608H524.021C523.237 264.608 522.933 264.88 522.933 265.632C522.933 266.576 523.589 266.8 524.517 267.04L526.197 267.472C527.909 267.904 528.965 268.208 528.965 269.856C528.965 271.168 528.485 272 526.869 272H521.717ZM532.845 270.128V265.104C532.845 263.008 531.885 261.872 530.013 261.76V260.72C532.685 260.864 533.981 262.448 533.981 265.104V270.128C533.981 272.784 532.685 274.368 530.013 274.512V273.472C531.885 273.36 532.845 272.224 532.845 270.128ZM539.566 272V263.52H540.91V272H539.566ZM540.926 262.272H539.55V260.8H540.926V262.272ZM542.327 272V270.912H547.143C547.847 270.912 548.167 270.544 548.167 269.84C548.167 268.944 547.399 268.784 546.087 268.464L544.535 268.08C542.919 267.68 542.199 267.056 542.199 265.632C542.199 264.208 542.999 263.52 544.487 263.52H549.079V264.608H544.631C543.847 264.608 543.543 264.88 543.543 265.632C543.543 266.576 544.199 266.8 545.127 267.04L546.807 267.472C548.519 267.904 549.575 268.208 549.575 269.856C549.575 271.168 549.095 272 547.479 272H542.327ZM554.597 272V264.912C554.597 264.032 554.965 263.52 555.893 263.52H563.477C565.317 263.52 566.341 264.32 566.341 266.272V272H564.997V266.512C564.997 265.36 564.581 264.608 563.301 264.608H561.141V272H559.797V264.608H556.437C556.117 264.608 555.941 264.72 555.941 265.152V272H554.597ZM572.021 263.424C575.061 263.424 576.373 264.528 576.373 267.728C576.373 270.944 575.061 272.096 572.021 272.096C568.981 272.096 567.669 270.944 567.669 267.728C567.669 264.528 568.981 263.424 572.021 263.424ZM569.077 267.728C569.077 270.128 569.861 271.008 572.021 271.008C574.181 271.008 574.965 270.128 574.965 267.728C574.965 265.328 574.181 264.512 572.021 264.512C569.861 264.512 569.077 265.328 569.077 267.728ZM577.514 272V270.912H582.33C583.034 270.912 583.354 270.544 583.354 269.84C583.354 268.944 582.586 268.784 581.274 268.464L579.722 268.08C578.106 267.68 577.386 267.056 577.386 265.632C577.386 264.208 578.186 263.52 579.674 263.52H584.266V264.608H579.818C579.034 264.608 578.73 264.88 578.73 265.632C578.73 266.576 579.386 266.8 580.314 267.04L581.994 267.472C583.706 267.904 584.762 268.208 584.762 269.856C584.762 271.168 584.282 272 582.666 272H577.514ZM590.118 272H589.11C586.998 272 586.406 270.992 586.406 269.28V264.608H585.158V263.52H586.406V260.8H587.75V263.52H590.118V264.608H587.75V269.2C587.75 270.512 588.262 270.912 589.558 270.912H590.118V272ZM418.52 291H415.128C412.248 291 411.528 289.384 411.528 286.744C411.528 284.184 412.248 282.52 415.128 282.52H418.344V283.608H415.368C413.256 283.608 412.936 284.824 412.936 286.744C412.936 288.744 413.256 289.912 415.368 289.912H418.52V291ZM419.949 282.52H424.413C425.917 282.52 426.621 283.448 426.621 284.84V289.72C426.621 290.584 426.285 291 425.293 291H421.517C419.965 291 419.309 290.168 419.309 288.408C419.309 286.728 419.965 285.832 421.517 285.832H425.277V284.824C425.277 284.104 424.925 283.608 424.077 283.608H419.949V282.52ZM425.277 286.92H421.773C420.941 286.92 420.717 287.496 420.717 288.408C420.717 289.32 420.941 289.912 421.773 289.912H424.829C425.133 289.912 425.277 289.736 425.277 289.48V286.92ZM435.518 282.52V289.608C435.518 290.504 435.15 291 434.222 291H431.086C429.246 291 428.222 290.2 428.222 288.248V282.52H429.566V288.008C429.566 289.16 429.982 289.912 431.262 289.912H433.678C433.998 289.912 434.174 289.8 434.174 289.368V282.52H435.518ZM436.921 291V289.912H441.737C442.441 289.912 442.761 289.544 442.761 288.84C442.761 287.944 441.993 287.784 440.681 287.464L439.129 287.08C437.513 286.68 436.793 286.056 436.793 284.632C436.793 283.208 437.593 282.52 439.081 282.52H443.673V283.608H439.225C438.441 283.608 438.137 283.88 438.137 284.632C438.137 285.576 438.793 285.8 439.721 286.04L441.401 286.472C443.113 286.904 444.169 287.208 444.169 288.856C444.169 290.168 443.689 291 442.073 291H436.921ZM445.824 282.52H450.288C451.792 282.52 452.496 283.448 452.496 284.84V289.72C452.496 290.584 452.16 291 451.168 291H447.392C445.84 291 445.184 290.168 445.184 288.408C445.184 286.728 445.84 285.832 447.392 285.832H451.152V284.824C451.152 284.104 450.8 283.608 449.952 283.608H445.824V282.52ZM451.152 286.92H447.648C446.816 286.92 446.592 287.496 446.592 288.408C446.592 289.32 446.816 289.912 447.648 289.912H450.704C451.008 289.912 451.152 289.736 451.152 289.48V286.92ZM454.097 291V279.8H455.441V291H454.097ZM464.993 291H463.985C461.873 291 461.281 289.992 461.281 288.28V283.608H460.033V282.52H461.281V279.8H462.625V282.52H464.993V283.608H462.625V288.2C462.625 289.512 463.137 289.912 464.433 289.912H464.993V291ZM469.786 282.424C472.826 282.424 474.138 283.528 474.138 286.728C474.138 289.944 472.826 291.096 469.786 291.096C466.746 291.096 465.434 289.944 465.434 286.728C465.434 283.528 466.746 282.424 469.786 282.424ZM466.842 286.728C466.842 289.128 467.626 290.008 469.786 290.008C471.946 290.008 472.73 289.128 472.73 286.728C472.73 284.328 471.946 283.512 469.786 283.512C467.626 283.512 466.842 284.328 466.842 286.728ZM483.43 291H482.422C480.31 291 479.718 289.992 479.718 288.28V283.608H478.47V282.52H479.718V279.8H481.062V282.52H483.43V283.608H481.062V288.2C481.062 289.512 481.574 289.912 482.87 289.912H483.43V291ZM484.3 291V279.8H485.644V282.52H488.556C490.428 282.52 491.5 283.32 491.5 285.4V291H490.156V285.576C490.156 284.296 489.66 283.608 488.38 283.608H485.644V291H484.3ZM500.313 291H495.881C493.353 291 492.825 289.352 492.825 286.792C492.825 283.672 493.817 282.424 496.681 282.424C498.937 282.424 500.537 283.16 500.537 285.72C500.537 286.696 500.233 287.208 499.273 287.208H494.217C494.217 288.584 494.457 289.912 496.169 289.912H500.313V291ZM494.217 286.12H498.745C499.065 286.12 499.129 285.88 499.129 285.688V285.624C499.129 284.024 498.121 283.512 496.697 283.512C494.953 283.512 494.217 284.184 494.217 286.12ZM505.597 291V283.912C505.597 283.032 505.965 282.52 506.893 282.52H509.933C511.773 282.52 512.797 283.32 512.797 285.272V291H511.453V285.512C511.453 284.36 511.037 283.608 509.757 283.608H507.437C507.117 283.608 506.941 283.72 506.941 284.152V291H505.597ZM521.61 291H517.178C514.65 291 514.122 289.352 514.122 286.792C514.122 283.672 515.114 282.424 517.978 282.424C520.234 282.424 521.834 283.16 521.834 285.72C521.834 286.696 521.53 287.208 520.57 287.208H515.514C515.514 288.584 515.754 289.912 517.466 289.912H521.61V291ZM515.514 286.12H520.042C520.362 286.12 520.426 285.88 520.426 285.688V285.624C520.426 284.024 519.418 283.512 517.994 283.512C516.25 283.512 515.514 284.184 515.514 286.12ZM529.159 291H526.407C523.607 291 522.887 289.48 522.887 286.76C522.887 284.12 523.607 282.52 526.407 282.52H528.375C529.703 282.52 530.519 282.712 530.519 283.992V290.184C530.519 292.52 529.671 293.752 527.015 293.752H523.479V292.664H527.015C528.151 292.664 529.031 292.184 529.159 291ZM529.175 289.912V284.184C529.175 283.816 528.999 283.608 528.567 283.608H526.663C524.631 283.608 524.295 284.76 524.295 286.76C524.295 288.84 524.631 289.912 526.663 289.912H529.175ZM532.481 282.52H536.945C538.449 282.52 539.153 283.448 539.153 284.84V289.72C539.153 290.584 538.817 291 537.825 291H534.049C532.497 291 531.84 290.168 531.84 288.408C531.84 286.728 532.497 285.832 534.049 285.832H537.809V284.824C537.809 284.104 537.457 283.608 536.609 283.608H532.481V282.52ZM537.809 286.92H534.305C533.473 286.92 533.249 287.496 533.249 288.408C533.249 289.32 533.473 289.912 534.305 289.912H537.361C537.665 289.912 537.809 289.736 537.809 289.48V286.92ZM544.977 291H543.969C541.857 291 541.265 289.992 541.265 288.28V283.608H540.017V282.52H541.265V279.8H542.609V282.52H544.977V283.608H542.609V288.2C542.609 289.512 543.121 289.912 544.417 289.912H544.977V291ZM545.863 291V282.52H547.207V291H545.863ZM547.223 281.272H545.847V279.8H547.223V281.272ZM549.312 282.52L551.872 289.384C551.936 289.56 552 289.736 552.096 289.736C552.208 289.736 552.272 289.56 552.336 289.384L554.88 282.52H556.272L553.184 290.36C552.912 291.048 552.496 291.096 552.096 291.096C551.696 291.096 551.28 291.048 551.008 290.36L547.92 282.52H549.312ZM564.188 291H559.756C557.228 291 556.7 289.352 556.7 286.792C556.7 283.672 557.692 282.424 560.556 282.424C562.812 282.424 564.412 283.16 564.412 285.72C564.412 286.696 564.108 287.208 563.148 287.208H558.092C558.092 288.584 558.332 289.912 560.044 289.912H564.188V291ZM558.092 286.12H562.62C562.94 286.12 563.004 285.88 563.004 285.688V285.624C563.004 284.024 561.996 283.512 560.572 283.512C558.828 283.512 558.092 284.184 558.092 286.12ZM576.688 291H572.256C569.728 291 569.2 289.352 569.2 286.792C569.2 283.672 570.192 282.424 573.056 282.424C575.312 282.424 576.912 283.16 576.912 285.72C576.912 286.696 576.608 287.208 575.648 287.208H570.592C570.592 288.584 570.832 289.912 572.544 289.912H576.688V291ZM570.592 286.12H575.12C575.44 286.12 575.504 285.88 575.504 285.688V285.624C575.504 284.024 574.496 283.512 573.072 283.512C571.328 283.512 570.592 284.184 570.592 286.12ZM579.998 291H578.654V283.608H577.438V282.52H578.654C578.654 280.264 580.19 279.704 582.302 279.704V280.776C581.07 280.776 580.062 280.968 579.998 282.52H582.302V283.608H579.998V291ZM585.498 291H584.154V283.608H582.938V282.52H584.154C584.154 280.264 585.69 279.704 587.802 279.704V280.776C586.57 280.776 585.562 280.968 585.498 282.52H587.802V283.608H585.498V291ZM595.657 291H591.225C588.697 291 588.169 289.352 588.169 286.792C588.169 283.672 589.161 282.424 592.025 282.424C594.281 282.424 595.881 283.16 595.881 285.72C595.881 286.696 595.577 287.208 594.617 287.208H589.561C589.561 288.584 589.801 289.912 591.513 289.912H595.657V291ZM589.561 286.12H594.089C594.409 286.12 594.473 285.88 594.473 285.688V285.624C594.473 284.024 593.465 283.512 592.041 283.512C590.297 283.512 589.561 284.184 589.561 286.12ZM603.926 291H600.534C597.654 291 596.934 289.384 596.934 286.744C596.934 284.184 597.654 282.52 600.534 282.52H603.75V283.608H600.774C598.662 283.608 598.342 284.824 598.342 286.744C598.342 288.744 598.662 289.912 600.774 289.912H603.926V291ZM609.524 291H608.516C606.404 291 605.812 289.992 605.812 288.28V283.608H604.564V282.52H605.812V279.8H607.156V282.52H609.524V283.608H607.156V288.2C607.156 289.512 607.668 289.912 608.964 289.912H609.524V291ZM611.37 291V289.4H612.778V291H611.37ZM612.778 288.184H611.37V287.112C611.37 286.072 611.802 285.656 612.586 285.192L613.85 284.456C614.57 284.04 614.762 283.608 614.762 282.744C614.762 281.576 614.474 281.016 613.322 281.016H609.834V279.8H613.786C615.498 279.8 616.314 280.568 616.314 282.536C616.314 283.816 615.93 284.552 614.89 285.16L613.482 286.008C613.114 286.232 612.778 286.552 612.778 287.048V288.184Z" fill="white"/>
<path d="M183.93 346.8V356.544C183.93 357.68 183.178 358.128 182.266 358.128C181.578 358.128 180.954 357.968 180.458 357.184L175.738 349.728C175.562 349.488 175.53 349.456 175.482 349.456C175.402 349.456 175.258 349.536 175.258 349.776V358H173.21V348.192C173.21 347.232 173.85 346.672 174.922 346.672C175.93 346.672 176.394 347.056 176.698 347.552L181.45 355.056C181.53 355.168 181.562 355.328 181.706 355.328C181.882 355.328 181.882 355.136 181.882 355.056V346.8H183.93ZM192.555 346.672C196.731 346.672 198.315 347.872 198.315 352.4C198.315 356.928 196.731 358.128 192.555 358.128C188.411 358.128 186.811 356.928 186.811 352.4C186.811 347.872 188.411 346.672 192.555 346.672ZM188.987 352.4C188.987 355.6 189.803 356.448 192.555 356.448C195.307 356.448 196.139 355.6 196.139 352.4C196.139 349.2 195.307 348.352 192.555 348.352C189.803 348.352 188.987 349.2 188.987 352.4ZM204.984 355.488L207.064 347.824C207.176 347.392 207.416 346.672 208.616 346.672C209.704 346.672 210.04 347.328 210.168 347.824L212.248 355.488C212.28 355.6 212.376 355.76 212.488 355.76C212.632 355.76 212.712 355.552 212.744 355.424L214.968 346.8H217.112L214.408 356.56C214.168 357.44 213.88 358.128 212.6 358.128C211.32 358.128 211.016 357.44 210.808 356.688L208.84 349.44C208.792 349.232 208.728 349.136 208.632 349.136C208.52 349.136 208.472 349.232 208.408 349.44L206.424 356.688C206.216 357.44 205.928 358.128 204.648 358.128C203.368 358.128 203.064 357.44 202.824 356.56L200.136 346.8H202.28L204.504 355.424C204.536 355.536 204.568 355.76 204.744 355.76C204.856 355.76 204.936 355.6 204.984 355.488ZM226.379 358H224.267V346.8H226.379V358ZM243.697 358H239.025C235.185 358 234.273 355.6 234.273 352.4C234.273 349.2 235.185 346.8 239.025 346.8H243.521V348.48H240.017C237.297 348.48 236.449 349.36 236.449 352.4C236.449 355.44 237.297 356.32 240.017 356.32H243.697V358ZM251.203 346.672C255.379 346.672 256.963 347.872 256.963 352.4C256.963 356.928 255.379 358.128 251.203 358.128C247.059 358.128 245.459 356.928 245.459 352.4C245.459 347.872 247.059 346.672 251.203 346.672ZM247.635 352.4C247.635 355.6 248.451 356.448 251.203 356.448C253.955 356.448 254.787 355.6 254.787 352.4C254.787 349.2 253.955 348.352 251.203 348.352C248.451 348.352 247.635 349.2 247.635 352.4ZM270.561 346.8V356.544C270.561 357.68 269.809 358.128 268.897 358.128C268.209 358.128 267.585 357.968 267.089 357.184L262.369 349.728C262.193 349.488 262.161 349.456 262.113 349.456C262.033 349.456 261.889 349.536 261.889 349.776V358H259.841V348.192C259.841 347.232 260.481 346.672 261.553 346.672C262.561 346.672 263.025 347.056 263.329 347.552L268.081 355.056C268.161 355.168 268.193 355.328 268.337 355.328C268.513 355.328 268.513 355.136 268.513 355.056V346.8H270.561ZM284.481 346.8V356.544C284.481 357.68 283.729 358.128 282.817 358.128C282.129 358.128 281.505 357.968 281.009 357.184L276.289 349.728C276.113 349.488 276.081 349.456 276.033 349.456C275.953 349.456 275.809 349.536 275.809 349.776V358H273.761V348.192C273.761 347.232 274.401 346.672 275.473 346.672C276.481 346.672 276.945 347.056 277.249 347.552L282.001 355.056C282.081 355.168 282.113 355.328 282.257 355.328C282.433 355.328 282.433 355.136 282.433 355.056V346.8H284.481ZM296.658 356.32V358H289.314C288.354 358 287.682 357.6 287.682 356.32V348.48C287.682 347.2 288.354 346.8 289.314 346.8H296.594V348.48H290.594C289.954 348.48 289.794 348.64 289.794 349.28V351.44H296.434V353.12H289.794V355.52C289.794 356.16 289.954 356.32 290.594 356.32H296.658ZM308.488 358H303.816C299.976 358 299.064 355.6 299.064 352.4C299.064 349.2 299.976 346.8 303.816 346.8H308.312V348.48H304.808C302.088 348.48 301.24 349.36 301.24 352.4C301.24 355.44 302.088 356.32 304.808 356.32H308.488V358ZM317.043 358H314.931V348.48H310.563V346.8H321.427V348.48H317.043V358ZM327.461 358L331.685 347.936C332.085 346.992 332.517 346.672 333.525 346.672C334.485 346.672 334.965 346.992 335.365 347.936L339.589 358H337.365L336.213 355.168H330.821L329.685 358H327.461ZM333.205 349.104L331.365 353.664H335.669L333.845 349.104C333.781 348.928 333.669 348.64 333.525 348.64C333.381 348.64 333.269 348.928 333.205 349.104ZM350.494 358H343.198C342.238 358 341.566 357.6 341.566 356.32V346.8H343.678V355.52C343.678 356.16 343.838 356.32 344.478 356.32H350.494V358ZM361.665 358H354.369C353.409 358 352.737 357.6 352.737 356.32V346.8H354.849V355.52C354.849 356.16 355.009 356.32 355.649 356.32H361.665V358ZM374.442 358H372.33V348.48H367.962V346.8H378.826V348.48H374.442V358ZM391.109 346.8V358H388.997V353.072H383.173V358H381.061V346.8H383.173V351.392H388.997V346.8H391.109ZM403.286 356.32V358H395.942C394.982 358 394.31 357.6 394.31 356.32V348.48C394.31 347.2 394.982 346.8 395.942 346.8H403.222V348.48H397.222C396.582 348.48 396.422 348.64 396.422 349.28V351.44H403.062V353.12H396.422V355.52C396.422 356.16 396.582 356.32 397.222 356.32H403.286ZM417.282 358H412.658C411.698 358 411.026 357.6 411.026 356.32V348.48C411.026 347.2 411.698 346.8 412.658 346.8H416.994C420.802 346.8 421.41 349.68 421.41 352.4C421.41 355.12 420.802 358 417.282 358ZM416.258 348.48H413.938C413.298 348.48 413.138 348.64 413.138 349.28V355.52C413.138 356.16 413.298 356.32 413.938 356.32H416.258C418.818 356.32 419.234 354.64 419.234 352.4C419.234 350.16 418.818 348.48 416.258 348.48ZM429.715 346.672C433.891 346.672 435.475 347.872 435.475 352.4C435.475 356.928 433.891 358.128 429.715 358.128C425.571 358.128 423.971 356.928 423.971 352.4C423.971 347.872 425.571 346.672 429.715 346.672ZM426.147 352.4C426.147 355.6 426.963 356.448 429.715 356.448C432.467 356.448 433.299 355.6 433.299 352.4C433.299 349.2 432.467 348.352 429.715 348.352C426.963 348.352 426.147 349.2 426.147 352.4ZM443.388 358H441.276V348.48H436.908V346.8H447.772V348.48H443.388V358ZM449.827 358V356.32H456.035C457.043 356.32 457.091 355.488 457.091 355.104C457.091 354.672 456.979 354.144 456.003 353.84L451.587 352.448C450.115 351.984 449.683 351.04 449.683 349.504C449.683 347.904 450.467 346.8 452.243 346.8H458.691V348.48H452.803C452.275 348.48 451.859 348.8 451.859 349.6C451.859 350.096 451.939 350.576 452.835 350.864L456.931 352.16C458.563 352.672 459.267 353.36 459.267 355.12C459.267 356.768 458.595 358 456.867 358H449.827Z" fill="white"/>
<path d="M127.7 287V285.784H132.804C133.94 285.784 134.18 284.872 134.18 283.624C134.18 282.616 134.004 281.848 132.788 281.848H129.732C128.628 281.848 127.668 281.544 127.668 279.992V277.096C127.668 276.344 128.116 275.8 128.996 275.8H135.332V277.016H129.636C129.332 277.016 129.156 277.16 129.156 277.592V279.608C129.156 280.232 129.332 280.632 130.1 280.632H133.268C135.204 280.632 135.732 281.768 135.732 283.64C135.732 285.48 135.364 287 133.252 287H127.7ZM138.784 287H137.328V285.272H138.784V287ZM149.416 285.256L151.656 276.792C151.768 276.376 152.008 275.672 153 275.672C153.928 275.672 154.216 276.344 154.344 276.792L156.584 285.256C156.616 285.4 156.744 285.528 156.856 285.528C157.016 285.528 157.08 285.304 157.112 285.192L159.496 275.8H161L158.328 285.88C158.104 286.712 157.752 287.128 156.888 287.128C155.864 287.128 155.592 286.52 155.432 285.896L153.24 277.672C153.208 277.528 153.144 277.368 153 277.368C152.856 277.368 152.792 277.528 152.76 277.672L150.552 285.896C150.392 286.52 150.136 287.128 149.112 287.128C148.248 287.128 147.896 286.712 147.672 285.88L145 275.8H146.504L148.888 285.192C148.92 285.304 148.952 285.528 149.144 285.528C149.256 285.528 149.384 285.4 149.416 285.256ZM161.8 287V275.8H163.144V278.52H166.056C167.928 278.52 169 279.32 169 281.4V287H167.656V281.576C167.656 280.296 167.16 279.608 165.88 279.608H163.144V287H161.8ZM170.965 278.52H175.429C176.933 278.52 177.637 279.448 177.637 280.84V285.72C177.637 286.584 177.301 287 176.309 287H172.533C170.981 287 170.325 286.168 170.325 284.408C170.325 282.728 170.981 281.832 172.533 281.832H176.293V280.824C176.293 280.104 175.941 279.608 175.093 279.608H170.965V278.52ZM176.293 282.92H172.789C171.957 282.92 171.733 283.496 171.733 284.408C171.733 285.32 171.957 285.912 172.789 285.912H175.845C176.149 285.912 176.293 285.736 176.293 285.48V282.92ZM183.462 287H182.454C180.342 287 179.75 285.992 179.75 284.28V279.608H178.502V278.52H179.75V275.8H181.094V278.52H183.462V279.608H181.094V284.2C181.094 285.512 181.606 285.912 182.902 285.912H183.462V287ZM188.066 287V279.912C188.066 279.032 188.434 278.52 189.362 278.52H196.946C198.786 278.52 199.81 279.32 199.81 281.272V287H198.466V281.512C198.466 280.36 198.05 279.608 196.77 279.608H194.61V287H193.266V279.608H189.906C189.586 279.608 189.41 279.72 189.41 280.152V287H188.066ZM201.777 278.52H206.241C207.745 278.52 208.449 279.448 208.449 280.84V285.72C208.449 286.584 208.113 287 207.121 287H203.345C201.793 287 201.137 286.168 201.137 284.408C201.137 282.728 201.793 281.832 203.345 281.832H207.105V280.824C207.105 280.104 206.753 279.608 205.905 279.608H201.777V278.52ZM207.105 282.92H203.601C202.769 282.92 202.545 283.496 202.545 284.408C202.545 285.32 202.769 285.912 203.601 285.912H206.657C206.961 285.912 207.105 285.736 207.105 285.48V282.92ZM215.89 287H213.298C210.498 287 209.778 285.48 209.778 282.76C209.778 280.12 210.498 278.52 213.298 278.52H215.842V275.8H217.186V285.672C217.186 286.504 216.866 287 215.89 287ZM215.842 279.624H213.554C211.522 279.624 211.186 280.76 211.186 282.76C211.186 284.84 211.522 285.912 213.554 285.912H215.282C215.73 285.912 215.842 285.736 215.842 285.304V279.624ZM226 287H221.568C219.04 287 218.512 285.352 218.512 282.792C218.512 279.672 219.504 278.424 222.368 278.424C224.624 278.424 226.224 279.16 226.224 281.72C226.224 282.696 225.92 283.208 224.96 283.208H219.904C219.904 284.584 220.144 285.912 221.856 285.912H226V287ZM219.904 282.12H224.432C224.752 282.12 224.816 281.88 224.816 281.688V281.624C224.816 280.024 223.808 279.512 222.384 279.512C220.64 279.512 219.904 280.184 219.904 282.12ZM235.508 287H234.5C232.388 287 231.796 285.992 231.796 284.28V279.608H230.548V278.52H231.796V275.8H233.14V278.52H235.508V279.608H233.14V284.2C233.14 285.512 233.652 285.912 234.948 285.912H235.508V287ZM236.378 287V275.8H237.722V278.52H240.634C242.506 278.52 243.578 279.32 243.578 281.4V287H242.234V281.576C242.234 280.296 241.738 279.608 240.458 279.608H237.722V287H236.378ZM245.191 287V278.52H246.535V287H245.191ZM246.551 277.272H245.175V275.8H246.551V277.272ZM247.952 287V285.912H252.768C253.472 285.912 253.792 285.544 253.792 284.84C253.792 283.944 253.024 283.784 251.712 283.464L250.16 283.08C248.544 282.68 247.824 282.056 247.824 280.632C247.824 279.208 248.624 278.52 250.112 278.52H254.704V279.608H250.256C249.472 279.608 249.168 279.88 249.168 280.632C249.168 281.576 249.824 281.8 250.752 282.04L252.432 282.472C254.144 282.904 255.2 283.208 255.2 284.856C255.2 286.168 254.72 287 253.104 287H247.952ZM267.438 287H263.006C260.478 287 259.95 285.352 259.95 282.792C259.95 279.672 260.942 278.424 263.806 278.424C266.062 278.424 267.662 279.16 267.662 281.72C267.662 282.696 267.358 283.208 266.398 283.208H261.342C261.342 284.584 261.582 285.912 263.294 285.912H267.438V287ZM261.342 282.12H265.87C266.19 282.12 266.254 281.88 266.254 281.688V281.624C266.254 280.024 265.246 279.512 263.822 279.512C262.078 279.512 261.342 280.184 261.342 282.12ZM268.988 287V275.8H270.332V287H268.988ZM279.141 287H274.709C272.181 287 271.653 285.352 271.653 282.792C271.653 279.672 272.645 278.424 275.509 278.424C277.765 278.424 279.365 279.16 279.365 281.72C279.365 282.696 279.061 283.208 278.101 283.208H273.045C273.045 284.584 273.285 285.912 274.997 285.912H279.141V287ZM273.045 282.12H277.573C277.893 282.12 277.957 281.88 277.957 281.688V281.624C277.957 280.024 276.949 279.512 275.525 279.512C273.781 279.512 273.045 280.184 273.045 282.12ZM280.691 287V279.912C280.691 279.032 281.059 278.52 281.987 278.52H289.571C291.411 278.52 292.435 279.32 292.435 281.272V287H291.091V281.512C291.091 280.36 290.675 279.608 289.395 279.608H287.235V287H285.891V279.608H282.531C282.211 279.608 282.035 279.72 282.035 280.152V287H280.691ZM301.25 287H296.818C294.29 287 293.762 285.352 293.762 282.792C293.762 279.672 294.754 278.424 297.618 278.424C299.874 278.424 301.474 279.16 301.474 281.72C301.474 282.696 301.17 283.208 300.21 283.208H295.154C295.154 284.584 295.394 285.912 297.106 285.912H301.25V287ZM295.154 282.12H299.682C300.002 282.12 300.066 281.88 300.066 281.688V281.624C300.066 280.024 299.058 279.512 297.634 279.512C295.89 279.512 295.154 280.184 295.154 282.12ZM302.8 287V279.912C302.8 279.032 303.168 278.52 304.096 278.52H307.136C308.976 278.52 310 279.32 310 281.272V287H308.656V281.512C308.656 280.36 308.24 279.608 306.96 279.608H304.64C304.32 279.608 304.144 279.72 304.144 280.152V287H302.8ZM315.821 287H314.813C312.701 287 312.109 285.992 312.109 284.28V279.608H310.861V278.52H312.109V275.8H313.453V278.52H315.821V279.608H313.453V284.2C313.453 285.512 313.965 285.912 315.261 285.912H315.821V287ZM318.051 280.104V285.128C318.051 287.224 319.027 288.36 320.899 288.472V289.512C318.211 289.368 316.931 287.784 316.931 285.128V280.104C316.931 277.448 318.211 275.864 320.899 275.72V276.76C319.027 276.872 318.051 278.008 318.051 280.104ZM322.061 287V285.912H326.877C327.581 285.912 327.901 285.544 327.901 284.84C327.901 283.944 327.133 283.784 325.821 283.464L324.269 283.08C322.653 282.68 321.933 282.056 321.933 280.632C321.933 279.208 322.733 278.52 324.221 278.52H328.813V279.608H324.365C323.581 279.608 323.277 279.88 323.277 280.632C323.277 281.576 323.933 281.8 324.861 282.04L326.541 282.472C328.253 282.904 329.309 283.208 329.309 284.856C329.309 286.168 328.829 287 327.213 287H322.061ZM333.189 285.128V280.104C333.189 278.008 332.229 276.872 330.357 276.76V275.72C333.029 275.864 334.325 277.448 334.325 280.104V285.128C334.325 287.784 333.029 289.368 330.357 289.512V288.472C332.229 288.36 333.189 287.224 333.189 285.128ZM152.52 306H149.128C146.248 306 145.528 304.384 145.528 301.744C145.528 299.184 146.248 297.52 149.128 297.52H152.344V298.608H149.368C147.256 298.608 146.936 299.824 146.936 301.744C146.936 303.744 147.256 304.912 149.368 304.912H152.52V306ZM157.349 297.424C160.389 297.424 161.701 298.528 161.701 301.728C161.701 304.944 160.389 306.096 157.349 306.096C154.309 306.096 152.997 304.944 152.997 301.728C152.997 298.528 154.309 297.424 157.349 297.424ZM154.405 301.728C154.405 304.128 155.189 305.008 157.349 305.008C159.509 305.008 160.293 304.128 160.293 301.728C160.293 299.328 159.509 298.512 157.349 298.512C155.189 298.512 154.405 299.328 154.405 301.728ZM163.034 306V298.912C163.034 298.032 163.402 297.52 164.33 297.52H171.914C173.754 297.52 174.778 298.32 174.778 300.272V306H173.434V300.512C173.434 299.36 173.018 298.608 171.738 298.608H169.578V306H168.234V298.608H164.874C164.554 298.608 164.378 298.72 164.378 299.152V306H163.034ZM183.594 306H179.162C176.634 306 176.106 304.352 176.106 301.792C176.106 298.672 177.098 297.424 179.962 297.424C182.218 297.424 183.818 298.16 183.818 300.72C183.818 301.696 183.514 302.208 182.554 302.208H177.498C177.498 303.584 177.738 304.912 179.45 304.912H183.594V306ZM177.498 301.12H182.026C182.346 301.12 182.41 300.88 182.41 300.688V300.624C182.41 299.024 181.402 298.512 179.978 298.512C178.234 298.512 177.498 299.184 177.498 301.12ZM188.894 306V297.52H190.238V306H188.894ZM190.254 296.272H188.878V294.8H190.254V296.272ZM191.847 306V298.912C191.847 298.032 192.215 297.52 193.143 297.52H196.183C198.023 297.52 199.047 298.32 199.047 300.272V306H197.703V300.512C197.703 299.36 197.287 298.608 196.007 298.608H193.687C193.367 298.608 193.191 298.72 193.191 299.152V306H191.847ZM204.868 306H203.86C201.748 306 201.156 304.992 201.156 303.28V298.608H199.908V297.52H201.156V294.8H202.5V297.52H204.868V298.608H202.5V303.2C202.5 304.512 203.012 304.912 204.308 304.912H204.868V306ZM209.661 297.424C212.701 297.424 214.013 298.528 214.013 301.728C214.013 304.944 212.701 306.096 209.661 306.096C206.621 306.096 205.309 304.944 205.309 301.728C205.309 298.528 206.621 297.424 209.661 297.424ZM206.717 301.728C206.717 304.128 207.501 305.008 209.661 305.008C211.821 305.008 212.605 304.128 212.605 301.728C212.605 299.328 211.821 298.512 209.661 298.512C207.501 298.512 206.717 299.328 206.717 301.728ZM226.297 306H221.865C219.337 306 218.809 304.352 218.809 301.792C218.809 298.672 219.801 297.424 222.665 297.424C224.921 297.424 226.521 298.16 226.521 300.72C226.521 301.696 226.217 302.208 225.257 302.208H220.201C220.201 303.584 220.441 304.912 222.153 304.912H226.297V306ZM220.201 301.12H224.729C225.049 301.12 225.113 300.88 225.113 300.688V300.624C225.113 299.024 224.105 298.512 222.681 298.512C220.937 298.512 220.201 299.184 220.201 301.12ZM234.807 306H233.207L230.839 302.576L228.487 306H226.887L230.087 301.648L227.063 297.52H228.615L230.839 300.736L233.079 297.52H234.631L231.623 301.648L234.807 306ZM235.457 306V297.52H236.801V306H235.457ZM236.817 296.272H235.441V294.8H236.817V296.272ZM238.217 306V304.912H243.033C243.737 304.912 244.057 304.544 244.057 303.84C244.057 302.944 243.289 302.784 241.977 302.464L240.425 302.08C238.809 301.68 238.089 301.056 238.089 299.632C238.089 298.208 238.889 297.52 240.377 297.52H244.969V298.608H240.521C239.737 298.608 239.433 298.88 239.433 299.632C239.433 300.576 240.089 300.8 241.017 301.04L242.697 301.472C244.409 301.904 245.465 302.208 245.465 303.856C245.465 305.168 244.985 306 243.369 306H238.217ZM250.821 306H249.813C247.701 306 247.109 304.992 247.109 303.28V298.608H245.861V297.52H247.109V294.8H248.453V297.52H250.821V298.608H248.453V303.2C248.453 304.512 248.965 304.912 250.261 304.912H250.821V306ZM258.907 306H254.475C251.947 306 251.419 304.352 251.419 301.792C251.419 298.672 252.411 297.424 255.275 297.424C257.531 297.424 259.131 298.16 259.131 300.72C259.131 301.696 258.827 302.208 257.867 302.208H252.811C252.811 303.584 253.051 304.912 254.763 304.912H258.907V306ZM252.811 301.12H257.339C257.659 301.12 257.723 300.88 257.723 300.688V300.624C257.723 299.024 256.715 298.512 255.291 298.512C253.547 298.512 252.811 299.184 252.811 301.12ZM260.456 306V298.912C260.456 298.032 260.824 297.52 261.752 297.52H264.792C266.632 297.52 267.656 298.32 267.656 300.272V306H266.312V300.512C266.312 299.36 265.896 298.608 264.616 298.608H262.296C261.976 298.608 261.8 298.72 261.8 299.152V306H260.456ZM275.973 306H272.581C269.701 306 268.981 304.384 268.981 301.744C268.981 299.184 269.701 297.52 272.581 297.52H275.797V298.608H272.821C270.709 298.608 270.389 299.824 270.389 301.744C270.389 303.744 270.709 304.912 272.821 304.912H275.973V306ZM283.938 306H279.506C276.978 306 276.45 304.352 276.45 301.792C276.45 298.672 277.442 297.424 280.306 297.424C282.562 297.424 284.162 298.16 284.162 300.72C284.162 301.696 283.858 302.208 282.898 302.208H277.842C277.842 303.584 278.082 304.912 279.794 304.912H283.938V306ZM277.842 301.12H282.37C282.69 301.12 282.754 300.88 282.754 300.688V300.624C282.754 299.024 281.746 298.512 280.322 298.512C278.578 298.512 277.842 299.184 277.842 301.12ZM286.464 306V304.4H287.872V306H286.464ZM287.872 303.184H286.464V302.112C286.464 301.072 286.896 300.656 287.68 300.192L288.944 299.456C289.664 299.04 289.856 298.608 289.856 297.744C289.856 296.576 289.568 296.016 288.416 296.016H284.928V294.8H288.88C290.592 294.8 291.408 295.568 291.408 297.536C291.408 298.816 291.024 299.552 289.984 300.16L288.576 301.008C288.208 301.232 287.872 301.552 287.872 302.048V303.184Z" fill="white"/>
<path d="M8.15972 183.248H11.8237C13.9037 183.248 14.7357 184.336 14.7357 186.512C14.7357 188.64 14.1277 190 11.7437 190H9.51972C7.53572 190 6.67172 188.96 6.67172 186.928V181.696C6.67172 179.984 7.58372 178.8 9.39172 178.8H14.1917V180.016H9.85572C8.78372 180.016 8.15972 180.608 8.15972 181.76V183.248ZM8.15972 184.464V186.976C8.15972 188.192 8.54372 188.784 9.87172 188.784H11.3757C12.7837 188.784 13.1837 187.968 13.1837 186.512C13.1837 185.168 12.7517 184.464 11.2157 184.464H8.15972ZM17.784 190H16.328V188.272H17.784V190ZM26.528 190H25.04V178.8H26.528V190ZM30.1225 190H28.7785V182.608H27.5625V181.52H28.7785C28.7785 179.264 30.3145 178.704 32.4265 178.704V179.776C31.1945 179.776 30.1865 179.968 30.1225 181.52H32.4265V182.608H30.1225V190ZM38.6843 190H37.1963V178.8H38.6843V190ZM48.4771 190H47.4691C45.3571 190 44.7651 188.992 44.7651 187.28V182.608H43.5171V181.52H44.7651V178.8H46.1091V181.52H48.4771V182.608H46.1091V187.2C46.1091 188.512 46.6211 188.912 47.9171 188.912H48.4771V190ZM49.7149 181.52H54.1789C55.6829 181.52 56.3869 182.448 56.3869 183.84V188.72C56.3869 189.584 56.0509 190 55.0589 190H51.2829C49.7309 190 49.0749 189.168 49.0749 187.408C49.0749 185.728 49.7309 184.832 51.2829 184.832H55.0429V183.824C55.0429 183.104 54.6909 182.608 53.8429 182.608H49.7149V181.52ZM55.0429 185.92H51.5389C50.7069 185.92 50.4829 186.496 50.4829 187.408C50.4829 188.32 50.7069 188.912 51.5389 188.912H54.5949C54.8989 188.912 55.0429 188.736 55.0429 188.48V185.92ZM64.7075 190H61.3155C58.4355 190 57.7155 188.384 57.7155 185.744C57.7155 183.184 58.4355 181.52 61.3155 181.52H64.5315V182.608H61.5555C59.4435 182.608 59.1235 183.824 59.1235 185.744C59.1235 187.744 59.4435 188.912 61.5555 188.912H64.7075V190ZM73.2088 190H71.4808L68.3288 186.896C68.0728 186.64 67.7208 186.16 67.7208 185.616C67.7208 185.056 68.0408 184.672 68.3448 184.368L71.1608 181.52H72.8088L69.3688 184.96C69.2248 185.104 69.0807 185.296 69.0807 185.568C69.0807 185.872 69.3048 186.144 69.5128 186.352L73.2088 190ZM67.1128 190H65.7688V178.8H67.1128V190ZM73.7531 190V178.8H75.0971V190H73.7531ZM83.9066 190H79.4746C76.9466 190 76.4186 188.352 76.4186 185.792C76.4186 182.672 77.4106 181.424 80.2746 181.424C82.5306 181.424 84.1306 182.16 84.1306 184.72C84.1306 185.696 83.8266 186.208 82.8666 186.208H77.8106C77.8106 187.584 78.0506 188.912 79.7626 188.912H83.9066V190ZM77.8106 185.12H82.3386C82.6586 185.12 82.7226 184.88 82.7226 184.688V184.624C82.7226 183.024 81.7146 182.512 80.2906 182.512C78.5466 182.512 77.8106 183.184 77.8106 185.12ZM93.4146 190H92.4066C90.2946 190 89.7026 188.992 89.7026 187.28V182.608H88.4546V181.52H89.7026V178.8H91.0466V181.52H93.4146V182.608H91.0466V187.2C91.0466 188.512 91.5586 188.912 92.8546 188.912H93.4146V190ZM94.2844 190V178.8H95.6284V181.52H98.5404C100.412 181.52 101.484 182.32 101.484 184.4V190H100.14V184.576C100.14 183.296 99.6444 182.608 98.3644 182.608H95.6284V190H94.2844ZM103.097 190V181.52H104.441V190H103.097ZM104.457 180.272H103.081V178.8H104.457V180.272ZM105.858 190V188.912H110.674C111.378 188.912 111.698 188.544 111.698 187.84C111.698 186.944 110.93 186.784 109.618 186.464L108.066 186.08C106.45 185.68 105.73 185.056 105.73 183.632C105.73 182.208 106.53 181.52 108.018 181.52H112.61V182.608H108.162C107.378 182.608 107.074 182.88 107.074 183.632C107.074 184.576 107.73 184.8 108.658 185.04L110.338 185.472C112.05 185.904 113.106 186.208 113.106 187.856C113.106 189.168 112.626 190 111.01 190H105.858ZM125.344 190H120.912C118.384 190 117.856 188.352 117.856 185.792C117.856 182.672 118.848 181.424 121.712 181.424C123.968 181.424 125.568 182.16 125.568 184.72C125.568 185.696 125.264 186.208 124.304 186.208H119.248C119.248 187.584 119.488 188.912 121.2 188.912H125.344V190ZM119.248 185.12H123.776C124.096 185.12 124.16 184.88 124.16 184.688V184.624C124.16 183.024 123.152 182.512 121.728 182.512C119.984 182.512 119.248 183.184 119.248 185.12ZM126.894 190V178.8H128.238V190H126.894ZM137.047 190H132.615C130.087 190 129.559 188.352 129.559 185.792C129.559 182.672 130.551 181.424 133.415 181.424C135.671 181.424 137.271 182.16 137.271 184.72C137.271 185.696 136.967 186.208 136.007 186.208H130.951C130.951 187.584 131.191 188.912 132.903 188.912H137.047V190ZM130.951 185.12H135.479C135.799 185.12 135.863 184.88 135.863 184.688V184.624C135.863 183.024 134.855 182.512 133.431 182.512C131.687 182.512 130.951 183.184 130.951 185.12ZM138.597 190V182.912C138.597 182.032 138.965 181.52 139.893 181.52H147.477C149.317 181.52 150.341 182.32 150.341 184.272V190H148.997V184.512C148.997 183.36 148.581 182.608 147.301 182.608H145.141V190H143.797V182.608H140.437C140.117 182.608 139.941 182.72 139.941 183.152V190H138.597ZM159.157 190H154.725C152.197 190 151.669 188.352 151.669 185.792C151.669 182.672 152.661 181.424 155.525 181.424C157.781 181.424 159.381 182.16 159.381 184.72C159.381 185.696 159.077 186.208 158.117 186.208H153.061C153.061 187.584 153.301 188.912 155.013 188.912H159.157V190ZM153.061 185.12H157.589C157.909 185.12 157.973 184.88 157.973 184.688V184.624C157.973 183.024 156.965 182.512 155.541 182.512C153.797 182.512 153.061 183.184 153.061 185.12ZM160.706 190V182.912C160.706 182.032 161.074 181.52 162.002 181.52H165.042C166.882 181.52 167.906 182.32 167.906 184.272V190H166.562V184.512C166.562 183.36 166.146 182.608 164.866 182.608H162.546C162.226 182.608 162.05 182.72 162.05 183.152V190H160.706ZM173.727 190H172.719C170.607 190 170.015 188.992 170.015 187.28V182.608H168.767V181.52H170.015V178.8H171.359V181.52H173.727V182.608H171.359V187.2C171.359 188.512 171.871 188.912 173.167 188.912H173.727V190ZM175.957 183.104V188.128C175.957 190.224 176.933 191.36 178.805 191.472V192.512C176.117 192.368 174.837 190.784 174.837 188.128V183.104C174.837 180.448 176.117 178.864 178.805 178.72V179.76C176.933 179.872 175.957 181.008 175.957 183.104ZM179.967 190V188.912H184.783C185.487 188.912 185.807 188.544 185.807 187.84C185.807 186.944 185.039 186.784 183.727 186.464L182.175 186.08C180.559 185.68 179.839 185.056 179.839 183.632C179.839 182.208 180.639 181.52 182.127 181.52H186.719V182.608H182.271C181.487 182.608 181.183 182.88 181.183 183.632C181.183 184.576 181.839 184.8 182.767 185.04L184.447 185.472C186.159 185.904 187.215 186.208 187.215 187.856C187.215 189.168 186.735 190 185.119 190H179.967ZM191.095 188.128V183.104C191.095 181.008 190.135 179.872 188.263 179.76V178.72C190.935 178.864 192.231 180.448 192.231 183.104V188.128C192.231 190.784 190.935 192.368 188.263 192.512V191.472C190.135 191.36 191.095 190.224 191.095 188.128ZM194.354 191.616L193.266 190.96L195.01 188.048L196.162 188.736L194.354 191.616ZM31.52 209H28.128C25.248 209 24.528 207.384 24.528 204.744C24.528 202.184 25.248 200.52 28.128 200.52H31.344V201.608H28.368C26.256 201.608 25.936 202.824 25.936 204.744C25.936 206.744 26.256 207.912 28.368 207.912H31.52V209ZM32.9493 200.52H37.4133C38.9173 200.52 39.6213 201.448 39.6213 202.84V207.72C39.6213 208.584 39.2853 209 38.2933 209H34.5173C32.9653 209 32.3092 208.168 32.3092 206.408C32.3092 204.728 32.9653 203.832 34.5173 203.832H38.2773V202.824C38.2773 202.104 37.9253 201.608 37.0773 201.608H32.9493V200.52ZM38.2773 204.92H34.7733C33.9413 204.92 33.7173 205.496 33.7173 206.408C33.7173 207.32 33.9413 207.912 34.7733 207.912H37.8293C38.1333 207.912 38.2773 207.736 38.2773 207.48V204.92ZM41.2219 209V201.912C41.2219 201.032 41.5899 200.52 42.5179 200.52H45.5579C47.3979 200.52 48.4219 201.32 48.4219 203.272V209H47.0779V203.512C47.0779 202.36 46.6619 201.608 45.3819 201.608H43.0619C42.7419 201.608 42.5659 201.72 42.5659 202.152V209H41.2219ZM57.9771 209H56.9691C54.8571 209 54.2651 207.992 54.2651 206.28V201.608H53.0171V200.52H54.2651V197.8H55.6091V200.52H57.9771V201.608H55.6091V206.2C55.6091 207.512 56.1211 207.912 57.4171 207.912H57.9771V209ZM58.8469 209V197.8H60.1909V200.52H63.1029C64.9749 200.52 66.0469 201.32 66.0469 203.4V209H64.7029V203.576C64.7029 202.296 64.2069 201.608 62.9269 201.608H60.1909V209H58.8469ZM74.8598 209H70.4278C67.8997 209 67.3717 207.352 67.3717 204.792C67.3717 201.672 68.3638 200.424 71.2278 200.424C73.4838 200.424 75.0838 201.16 75.0838 203.72C75.0838 204.696 74.7798 205.208 73.8198 205.208H68.7638C68.7638 206.584 69.0038 207.912 70.7158 207.912H74.8598V209ZM68.7638 204.12H73.2918C73.6118 204.12 73.6758 203.88 73.6758 203.688V203.624C73.6758 202.024 72.6678 201.512 71.2438 201.512C69.4998 201.512 68.7638 202.184 68.7638 204.12ZM80.1438 209V201.912C80.1438 201.032 80.5118 200.52 81.4398 200.52H84.4798C86.3198 200.52 87.3438 201.32 87.3438 203.272V209H85.9998V203.512C85.9998 202.36 85.5838 201.608 84.3038 201.608H81.9838C81.6638 201.608 81.4878 201.72 81.4878 202.152V209H80.1438ZM96.1566 209H91.7246C89.1966 209 88.6686 207.352 88.6686 204.792C88.6686 201.672 89.6606 200.424 92.5246 200.424C94.7806 200.424 96.3806 201.16 96.3806 203.72C96.3806 204.696 96.0766 205.208 95.1166 205.208H90.0606C90.0606 206.584 90.3006 207.912 92.0126 207.912H96.1566V209ZM90.0606 204.12H94.5886C94.9086 204.12 94.9726 203.88 94.9726 203.688V203.624C94.9726 202.024 93.9646 201.512 92.5406 201.512C90.7966 201.512 90.0606 202.184 90.0606 204.12ZM103.706 209H100.954C98.1543 209 97.4342 207.48 97.4342 204.76C97.4342 202.12 98.1543 200.52 100.954 200.52H102.922C104.25 200.52 105.066 200.712 105.066 201.992V208.184C105.066 210.52 104.218 211.752 101.562 211.752H98.0263V210.664H101.562C102.698 210.664 103.578 210.184 103.706 209ZM103.722 207.912V202.184C103.722 201.816 103.546 201.608 103.114 201.608H101.21C99.1783 201.608 98.8423 202.76 98.8423 204.76C98.8423 206.84 99.1783 207.912 101.21 207.912H103.722ZM107.027 200.52H111.491C112.995 200.52 113.699 201.448 113.699 202.84V207.72C113.699 208.584 113.363 209 112.371 209H108.595C107.043 209 106.387 208.168 106.387 206.408C106.387 204.728 107.043 203.832 108.595 203.832H112.355V202.824C112.355 202.104 112.003 201.608 111.155 201.608H107.027V200.52ZM112.355 204.92H108.851C108.019 204.92 107.795 205.496 107.795 206.408C107.795 207.32 108.019 207.912 108.851 207.912H111.907C112.211 207.912 112.355 207.736 112.355 207.48V204.92ZM119.524 209H118.516C116.404 209 115.812 207.992 115.812 206.28V201.608H114.564V200.52H115.812V197.8H117.156V200.52H119.524V201.608H117.156V206.2C117.156 207.512 117.668 207.912 118.964 207.912H119.524V209ZM120.41 209V200.52H121.754V209H120.41ZM121.77 199.272H120.394V197.8H121.77V199.272ZM123.859 200.52L126.419 207.384C126.483 207.56 126.547 207.736 126.643 207.736C126.755 207.736 126.819 207.56 126.883 207.384L129.427 200.52H130.819L127.731 208.36C127.459 209.048 127.043 209.096 126.643 209.096C126.243 209.096 125.827 209.048 125.555 208.36L122.466 200.52H123.859ZM138.735 209H134.303C131.775 209 131.247 207.352 131.247 204.792C131.247 201.672 132.239 200.424 135.103 200.424C137.359 200.424 138.959 201.16 138.959 203.72C138.959 204.696 138.655 205.208 137.695 205.208H132.639C132.639 206.584 132.879 207.912 134.591 207.912H138.735V209ZM132.639 204.12H137.167C137.487 204.12 137.551 203.88 137.551 203.688V203.624C137.551 202.024 136.543 201.512 135.119 201.512C133.375 201.512 132.639 202.184 132.639 204.12ZM151.235 209H146.803C144.275 209 143.747 207.352 143.747 204.792C143.747 201.672 144.739 200.424 147.603 200.424C149.859 200.424 151.459 201.16 151.459 203.72C151.459 204.696 151.155 205.208 150.195 205.208H145.139C145.139 206.584 145.379 207.912 147.091 207.912H151.235V209ZM145.139 204.12H149.667C149.987 204.12 150.051 203.88 150.051 203.688V203.624C150.051 202.024 149.043 201.512 147.619 201.512C145.875 201.512 145.139 202.184 145.139 204.12ZM154.544 209H153.2V201.608H151.984V200.52H153.2C153.2 198.264 154.736 197.704 156.848 197.704V198.776C155.616 198.776 154.608 198.968 154.544 200.52H156.848V201.608H154.544V209ZM160.044 209H158.7V201.608H157.484V200.52H158.7C158.7 198.264 160.236 197.704 162.348 197.704V198.776C161.116 198.776 160.108 198.968 160.044 200.52H162.348V201.608H160.044V209ZM170.204 209H165.772C163.243 209 162.715 207.352 162.715 204.792C162.715 201.672 163.708 200.424 166.572 200.424C168.828 200.424 170.428 201.16 170.428 203.72C170.428 204.696 170.124 205.208 169.164 205.208H164.108C164.108 206.584 164.348 207.912 166.06 207.912H170.204V209ZM164.108 204.12H168.636C168.956 204.12 169.02 203.88 169.02 203.688V203.624C169.02 202.024 168.012 201.512 166.588 201.512C164.844 201.512 164.108 202.184 164.108 204.12ZM178.473 209H175.081C172.201 209 171.481 207.384 171.481 204.744C171.481 202.184 172.201 200.52 175.081 200.52H178.297V201.608H175.321C173.209 201.608 172.889 202.824 172.889 204.744C172.889 206.744 173.209 207.912 175.321 207.912H178.473V209ZM184.071 209H183.063C180.951 209 180.359 207.992 180.359 206.28V201.608H179.111V200.52H180.359V197.8H181.703V200.52H184.071V201.608H181.703V206.2C181.703 207.512 182.215 207.912 183.511 207.912H184.071V209ZM28.736 228H26.368C25.376 228 24.8 227.696 24.8 226.624V216.8H26.144V219.52H28.736C31.456 219.52 32.208 221.072 32.208 223.712C32.208 226.352 31.456 228 28.736 228ZM26.144 220.608V226.336C26.144 226.704 26.24 226.912 26.688 226.912H28.496C30.528 226.912 30.8 225.552 30.8 223.712C30.8 221.872 30.528 220.608 28.496 220.608H26.144ZM40.7504 228H36.3184C33.7904 228 33.2624 226.352 33.2624 223.792C33.2624 220.672 34.2544 219.424 37.1184 219.424C39.3744 219.424 40.9744 220.16 40.9744 222.72C40.9744 223.696 40.6704 224.208 39.7104 224.208H34.6544C34.6544 225.584 34.8944 226.912 36.6064 226.912H40.7504V228ZM34.6544 223.12H39.1824C39.5024 223.12 39.5664 222.88 39.5664 222.688V222.624C39.5664 221.024 38.5584 220.512 37.1344 220.512C35.3904 220.512 34.6544 221.184 34.6544 223.12ZM46.0344 228V222.576C46.0344 220.48 47.0584 219.52 49.1544 219.52H50.0824V220.608H49.3944C47.9224 220.608 47.3784 221.36 47.3784 222.912V228H46.0344ZM57.7816 228H53.3496C50.8216 228 50.2936 226.352 50.2936 223.792C50.2936 220.672 51.2856 219.424 54.1496 219.424C56.4056 219.424 58.0056 220.16 58.0056 222.72C58.0056 223.696 57.7016 224.208 56.7416 224.208H51.6856C51.6856 225.584 51.9256 226.912 53.6376 226.912H57.7816V228ZM51.6856 223.12H56.2136C56.5336 223.12 56.5976 222.88 56.5976 222.688V222.624C56.5976 221.024 55.5896 220.512 54.1656 220.512C52.4216 220.512 51.6856 221.184 51.6856 223.12ZM65.1713 228H62.5793C59.7793 228 59.0592 226.48 59.0592 223.76C59.0592 221.12 59.7793 219.52 62.5793 219.52H65.1233V216.8H66.4673V226.672C66.4673 227.504 66.1473 228 65.1713 228ZM65.1233 220.624H62.8353C60.8033 220.624 60.4673 221.76 60.4673 223.76C60.4673 225.84 60.8033 226.912 62.8353 226.912H64.5633C65.0113 226.912 65.1233 226.736 65.1233 226.304V220.624ZM75.3616 219.52V226.608C75.3616 227.504 74.9936 228 74.0656 228H70.9296C69.0896 228 68.0656 227.2 68.0656 225.248V219.52H69.4096V225.008C69.4096 226.16 69.8256 226.912 71.1056 226.912H73.5216C73.8416 226.912 74.0176 226.8 74.0176 226.368V219.52H75.3616ZM83.6763 228H80.2843C77.4043 228 76.6842 226.384 76.6842 223.744C76.6842 221.184 77.4043 219.52 80.2843 219.52H83.5003V220.608H80.5243C78.4123 220.608 78.0923 221.824 78.0923 223.744C78.0923 225.744 78.4123 226.912 80.5243 226.912H83.6763V228ZM91.641 228H87.209C84.681 228 84.153 226.352 84.153 223.792C84.153 220.672 85.145 219.424 88.009 219.424C90.265 219.424 91.865 220.16 91.865 222.72C91.865 223.696 91.561 224.208 90.601 224.208H85.545C85.545 225.584 85.785 226.912 87.497 226.912H91.641V228ZM85.545 223.12H90.073C90.393 223.12 90.457 222.88 90.457 222.688V222.624C90.457 221.024 89.449 220.512 88.025 220.512C86.281 220.512 85.545 221.184 85.545 223.12ZM99.0306 228H96.4386C93.6386 228 92.9186 226.48 92.9186 223.76C92.9186 221.12 93.6386 219.52 96.4386 219.52H98.9826V216.8H100.327V226.672C100.327 227.504 100.007 228 99.0306 228ZM98.9826 220.624H96.6946C94.6626 220.624 94.3266 221.76 94.3266 223.76C94.3266 225.84 94.6626 226.912 96.6946 226.912H98.4226C98.8706 226.912 98.9826 226.736 98.9826 226.304V220.624ZM102.901 228V226.4H104.309V228H102.901ZM104.309 225.184H102.901V224.112C102.901 223.072 103.333 222.656 104.117 222.192L105.381 221.456C106.101 221.04 106.293 220.608 106.293 219.744C106.293 218.576 106.005 218.016 104.853 218.016H101.365V216.8H105.317C107.029 216.8 107.845 217.568 107.845 219.536C107.845 220.816 107.461 221.552 106.421 222.16L105.013 223.008C104.645 223.232 104.309 223.552 104.309 224.048V225.184Z" fill="white"/>
<path d="M370.268 15H363.58C363.068 15 362.572 14.728 362.572 13.944C362.572 13.352 362.78 13.048 363.132 12.776L368.508 8.792C369.18 8.296 369.292 7.816 369.292 6.904C369.292 5.768 369.164 5.032 367.82 5.032H363.356V3.8H368.268C370.156 3.8 370.812 4.696 370.812 6.76C370.812 8.168 370.588 8.904 369.452 9.752L364.492 13.464C364.396 13.544 364.3 13.608 364.3 13.672C364.3 13.752 364.348 13.784 364.444 13.784H370.268V15ZM373.784 15H372.328V13.272H373.784V15ZM384.416 13.256L386.656 4.792C386.768 4.376 387.008 3.672 388 3.672C388.928 3.672 389.216 4.344 389.344 4.792L391.584 13.256C391.616 13.4 391.744 13.528 391.856 13.528C392.016 13.528 392.08 13.304 392.112 13.192L394.496 3.8H396L393.328 13.88C393.104 14.712 392.752 15.128 391.888 15.128C390.864 15.128 390.592 14.52 390.432 13.896L388.24 5.672C388.208 5.528 388.144 5.368 388 5.368C387.856 5.368 387.792 5.528 387.76 5.672L385.552 13.896C385.392 14.52 385.136 15.128 384.112 15.128C383.248 15.128 382.896 14.712 382.672 13.88L380 3.8H381.504L383.888 13.192C383.92 13.304 383.952 13.528 384.144 13.528C384.256 13.528 384.384 13.4 384.416 13.256ZM396.8 15V3.8H398.144V6.52H401.056C402.928 6.52 404 7.32 404 9.4V15H402.656V9.576C402.656 8.296 402.16 7.608 400.88 7.608H398.144V15H396.8ZM405.965 6.52H410.429C411.933 6.52 412.637 7.448 412.637 8.84V13.72C412.637 14.584 412.301 15 411.309 15H407.533C405.981 15 405.325 14.168 405.325 12.408C405.325 10.728 405.981 9.832 407.533 9.832H411.293V8.824C411.293 8.104 410.941 7.608 410.093 7.608H405.965V6.52ZM411.293 10.92H407.789C406.957 10.92 406.733 11.496 406.733 12.408C406.733 13.32 406.957 13.912 407.789 13.912H410.845C411.149 13.912 411.293 13.736 411.293 13.48V10.92ZM418.462 15H417.454C415.342 15 414.75 13.992 414.75 12.28V7.608H413.502V6.52H414.75V3.8H416.094V6.52H418.462V7.608H416.094V12.2C416.094 13.512 416.606 13.912 417.902 13.912H418.462V15ZM423.082 15V6.52H424.426V15H423.082ZM424.442 5.272H423.066V3.8H424.442V5.272ZM425.842 15V13.912H430.658C431.362 13.912 431.682 13.544 431.682 12.84C431.682 11.944 430.914 11.784 429.602 11.464L428.05 11.08C426.434 10.68 425.714 10.056 425.714 8.632C425.714 7.208 426.514 6.52 428.002 6.52H432.594V7.608H428.146C427.362 7.608 427.058 7.88 427.058 8.632C427.058 9.576 427.714 9.8 428.642 10.04L430.322 10.472C432.034 10.904 433.09 11.208 433.09 12.856C433.09 14.168 432.61 15 430.994 15H425.842ZM442.337 15H441.329C439.217 15 438.625 13.992 438.625 12.28V7.608H437.377V6.52H438.625V3.8H439.969V6.52H442.337V7.608H439.969V12.2C439.969 13.512 440.481 13.912 441.777 13.912H442.337V15ZM443.206 15V3.8H444.55V6.52H447.462C449.334 6.52 450.406 7.32 450.406 9.4V15H449.062V9.576C449.062 8.296 448.566 7.608 447.286 7.608H444.55V15H443.206ZM459.219 15H454.787C452.259 15 451.731 13.352 451.731 10.792C451.731 7.672 452.723 6.424 455.587 6.424C457.843 6.424 459.443 7.16 459.443 9.72C459.443 10.696 459.139 11.208 458.179 11.208H453.123C453.123 12.584 453.363 13.912 455.075 13.912H459.219V15ZM453.123 10.12H457.651C457.971 10.12 458.035 9.88 458.035 9.688V9.624C458.035 8.024 457.027 7.512 455.603 7.512C453.859 7.512 453.123 8.184 453.123 10.12ZM464.503 15V7.912C464.503 7.032 464.871 6.52 465.799 6.52H468.839C470.679 6.52 471.703 7.32 471.703 9.272V15H470.359V9.512C470.359 8.36 469.943 7.608 468.663 7.608H466.343C466.023 7.608 465.847 7.72 465.847 8.152V15H464.503ZM480.516 15H476.084C473.556 15 473.028 13.352 473.028 10.792C473.028 7.672 474.02 6.424 476.884 6.424C479.14 6.424 480.74 7.16 480.74 9.72C480.74 10.696 480.436 11.208 479.476 11.208H474.42C474.42 12.584 474.66 13.912 476.372 13.912H480.516V15ZM474.42 10.12H478.948C479.268 10.12 479.332 9.88 479.332 9.688V9.624C479.332 8.024 478.324 7.512 476.9 7.512C475.156 7.512 474.42 8.184 474.42 10.12ZM488.066 15H485.314C482.514 15 481.794 13.48 481.794 10.76C481.794 8.12 482.514 6.52 485.314 6.52H487.282C488.61 6.52 489.426 6.712 489.426 7.992V14.184C489.426 16.52 488.578 17.752 485.922 17.752H482.386V16.664H485.922C487.058 16.664 487.938 16.184 488.066 15ZM488.082 13.912V8.184C488.082 7.816 487.906 7.608 487.474 7.608H485.57C483.538 7.608 483.202 8.76 483.202 10.76C483.202 12.84 483.538 13.912 485.57 13.912H488.082ZM491.387 6.52H495.851C497.355 6.52 498.059 7.448 498.059 8.84V13.72C498.059 14.584 497.723 15 496.731 15H492.955C491.403 15 490.747 14.168 490.747 12.408C490.747 10.728 491.403 9.832 492.955 9.832H496.715V8.824C496.715 8.104 496.363 7.608 495.515 7.608H491.387V6.52ZM496.715 10.92H493.211C492.379 10.92 492.155 11.496 492.155 12.408C492.155 13.32 492.379 13.912 493.211 13.912H496.267C496.571 13.912 496.715 13.736 496.715 13.48V10.92ZM503.883 15H502.875C500.763 15 500.171 13.992 500.171 12.28V7.608H498.923V6.52H500.171V3.8H501.515V6.52H503.883V7.608H501.515V12.2C501.515 13.512 502.027 13.912 503.323 13.912H503.883V15ZM504.769 15V6.52H506.113V15H504.769ZM506.129 5.272H504.753V3.8H506.129V5.272ZM508.218 6.52L510.778 13.384C510.842 13.56 510.906 13.736 511.002 13.736C511.114 13.736 511.178 13.56 511.242 13.384L513.786 6.52H515.178L512.09 14.36C511.818 15.048 511.402 15.096 511.002 15.096C510.602 15.096 510.186 15.048 509.914 14.36L506.826 6.52H508.218ZM523.094 15H518.662C516.134 15 515.606 13.352 515.606 10.792C515.606 7.672 516.598 6.424 519.462 6.424C521.718 6.424 523.318 7.16 523.318 9.72C523.318 10.696 523.014 11.208 522.054 11.208H516.998C516.998 12.584 517.238 13.912 518.95 13.912H523.094V15ZM516.998 10.12H521.526C521.846 10.12 521.91 9.88 521.91 9.688V9.624C521.91 8.024 520.902 7.512 519.478 7.512C517.734 7.512 516.998 8.184 516.998 10.12ZM388.016 34H383.584C381.056 34 380.528 32.352 380.528 29.792C380.528 26.672 381.52 25.424 384.384 25.424C386.64 25.424 388.24 26.16 388.24 28.72C388.24 29.696 387.936 30.208 386.976 30.208H381.92C381.92 31.584 382.16 32.912 383.872 32.912H388.016V34ZM381.92 29.12H386.448C386.768 29.12 386.832 28.88 386.832 28.688V28.624C386.832 27.024 385.824 26.512 384.4 26.512C382.656 26.512 381.92 27.184 381.92 29.12ZM391.326 34H389.982V26.608H388.766V25.52H389.982C389.982 23.264 391.518 22.704 393.63 22.704V23.776C392.398 23.776 391.39 23.968 391.326 25.52H393.63V26.608H391.326V34ZM396.826 34H395.482V26.608H394.266V25.52H395.482C395.482 23.264 397.018 22.704 399.13 22.704V23.776C397.898 23.776 396.89 23.968 396.826 25.52H399.13V26.608H396.826V34ZM406.985 34H402.553C400.025 34 399.497 32.352 399.497 29.792C399.497 26.672 400.489 25.424 403.353 25.424C405.609 25.424 407.209 26.16 407.209 28.72C407.209 29.696 406.905 30.208 405.945 30.208H400.889C400.889 31.584 401.129 32.912 402.841 32.912H406.985V34ZM400.889 29.12H405.417C405.737 29.12 405.801 28.88 405.801 28.688V28.624C405.801 27.024 404.793 26.512 403.369 26.512C401.625 26.512 400.889 27.184 400.889 29.12ZM415.254 34H411.862C408.982 34 408.262 32.384 408.262 29.744C408.262 27.184 408.982 25.52 411.862 25.52H415.078V26.608H412.102C409.99 26.608 409.67 27.824 409.67 29.744C409.67 31.744 409.99 32.912 412.102 32.912H415.254V34ZM420.852 34H419.844C417.732 34 417.14 32.992 417.14 31.28V26.608H415.892V25.52H417.14V22.8H418.484V25.52H420.852V26.608H418.484V31.2C418.484 32.512 418.996 32.912 420.292 32.912H420.852V34ZM425.472 34V25.52H426.816V34H425.472ZM426.832 24.272H425.456V22.8H426.832V24.272ZM432.649 34H431.641C429.529 34 428.937 32.992 428.937 31.28V26.608H427.689V25.52H428.937V22.8H430.281V25.52H432.649V26.608H430.281V31.2C430.281 32.512 430.793 32.912 432.089 32.912H432.649V34ZM437.269 34V25.52H438.613V34H437.269ZM438.629 24.272H437.253V22.8H438.629V24.272ZM440.03 34V32.912H444.846C445.55 32.912 445.87 32.544 445.87 31.84C445.87 30.944 445.102 30.784 443.79 30.464L442.238 30.08C440.622 29.68 439.902 29.056 439.902 27.632C439.902 26.208 440.702 25.52 442.19 25.52H446.782V26.608H442.334C441.55 26.608 441.246 26.88 441.246 27.632C441.246 28.576 441.902 28.8 442.83 29.04L444.51 29.472C446.222 29.904 447.278 30.208 447.278 31.856C447.278 33.168 446.798 34 445.182 34H440.03ZM459.02 34H455.628C452.748 34 452.028 32.384 452.028 29.744C452.028 27.184 452.748 25.52 455.628 25.52H458.844V26.608H455.868C453.756 26.608 453.436 27.824 453.436 29.744C453.436 31.744 453.756 32.912 455.868 32.912H459.02V34ZM460.449 25.52H464.913C466.417 25.52 467.121 26.448 467.121 27.84V32.72C467.121 33.584 466.785 34 465.793 34H462.017C460.465 34 459.809 33.168 459.809 31.408C459.809 29.728 460.465 28.832 462.017 28.832H465.777V27.824C465.777 27.104 465.425 26.608 464.577 26.608H460.449V25.52ZM465.777 29.92H462.273C461.441 29.92 461.217 30.496 461.217 31.408C461.217 32.32 461.441 32.912 462.273 32.912H465.329C465.633 32.912 465.777 32.736 465.777 32.48V29.92ZM476.018 25.52V32.608C476.018 33.504 475.65 34 474.722 34H471.586C469.746 34 468.722 33.2 468.722 31.248V25.52H470.066V31.008C470.066 32.16 470.482 32.912 471.762 32.912H474.178C474.498 32.912 474.674 32.8 474.674 32.368V25.52H476.018ZM477.421 34V32.912H482.237C482.941 32.912 483.261 32.544 483.261 31.84C483.261 30.944 482.493 30.784 481.181 30.464L479.629 30.08C478.013 29.68 477.293 29.056 477.293 27.632C477.293 26.208 478.093 25.52 479.581 25.52H484.173V26.608H479.725C478.941 26.608 478.637 26.88 478.637 27.632C478.637 28.576 479.293 28.8 480.221 29.04L481.901 29.472C483.613 29.904 484.669 30.208 484.669 31.856C484.669 33.168 484.189 34 482.573 34H477.421ZM485.972 34V25.52H487.316V34H485.972ZM487.332 24.272H485.956V22.8H487.332V24.272ZM488.925 34V26.912C488.925 26.032 489.293 25.52 490.221 25.52H493.261C495.101 25.52 496.125 26.32 496.125 28.272V34H494.781V28.512C494.781 27.36 494.365 26.608 493.085 26.608H490.765C490.445 26.608 490.269 26.72 490.269 27.152V34H488.925ZM503.722 34H500.97C498.17 34 497.45 32.48 497.45 29.76C497.45 27.12 498.17 25.52 500.97 25.52H502.938C504.266 25.52 505.082 25.712 505.082 26.992V33.184C505.082 35.52 504.234 36.752 501.578 36.752H498.042V35.664H501.578C502.714 35.664 503.594 35.184 503.722 34ZM503.738 32.912V27.184C503.738 26.816 503.562 26.608 503.13 26.608H501.226C499.194 26.608 498.858 27.76 498.858 29.76C498.858 31.84 499.194 32.912 501.226 32.912H503.738ZM507.651 34V32.4H509.059V34H507.651ZM509.059 31.184H507.651V30.112C507.651 29.072 508.083 28.656 508.867 28.192L510.131 27.456C510.851 27.04 511.043 26.608 511.043 25.744C511.043 24.576 510.755 24.016 509.603 24.016H506.115V22.8H510.067C511.779 22.8 512.595 23.568 512.595 25.536C512.595 26.816 512.211 27.552 511.171 28.16L509.763 29.008C509.395 29.232 509.059 29.552 509.059 30.048V31.184Z" fill="white"/>
<g filter="url(#filter0_d_2113_5868)">
<path d="M226.364 127.03C226.541 127.03 226.711 127.056 226.88 127.082L239.847 87.7624C238.851 87.1767 238.174 86.1033 238.174 84.8612C238.174 82.9976 239.68 81.4871 241.538 81.4871C242.452 81.4871 243.277 81.8549 243.884 82.4476L274.176 66.4797C274.058 66.1349 273.98 65.771 273.98 65.3858C273.98 63.5224 275.486 62.0116 277.344 62.0116C278.814 62.0116 280.05 62.9626 280.508 64.2798L312.268 58.3865C312.692 57.0084 313.956 56 315.469 56C317.072 56 318.409 57.1272 318.746 58.6329L359.217 69.1114C359.817 68.1844 360.853 67.568 362.037 67.568C363.895 67.568 365.401 69.0788 365.401 70.9424C365.401 71.4715 365.269 71.9657 365.052 72.4114L378.015 84.3088C378.592 83.843 379.316 83.5527 380.114 83.5527C381.972 83.5527 383.479 85.0634 383.479 86.9269C383.479 87.7511 383.172 88.4962 382.683 89.0822L403.226 112.497C403.749 112.161 404.368 111.96 405.036 111.96C406.894 111.96 408.4 113.47 408.4 115.334C408.4 116.714 407.571 117.898 406.387 118.42L416.147 154.992C417.967 155.036 419.431 156.523 419.431 158.358C419.431 159.87 418.433 161.135 417.066 161.564L417.133 180.517C418.753 180.759 420 182.148 420 183.841C420 185.704 418.494 187.215 416.636 187.215C415.983 187.215 415.38 187.021 414.865 186.698L400.512 202.079C400.962 202.653 401.242 203.367 401.242 204.154C401.242 206.017 399.736 207.528 397.878 207.528C396.524 207.528 395.365 206.722 394.831 205.566L351.204 218.177C351.224 218.326 351.25 218.472 351.25 218.626C351.25 220.49 349.743 222 347.885 222C346.027 222 344.521 220.49 344.521 218.626C344.521 218.021 344.693 217.461 344.971 216.969L324.739 200.486C324.195 200.863 323.538 201.087 322.827 201.087C321.169 201.087 319.799 199.882 319.522 198.299L282.498 199.347C282.295 201.016 280.894 202.315 279.174 202.315C277.316 202.315 275.81 200.804 275.81 198.941C275.81 198.397 275.95 197.892 276.177 197.437L262.043 185.601C261.43 186.252 260.567 186.664 259.603 186.664C257.745 186.664 256.239 185.153 256.239 183.29C256.239 181.51 257.616 180.068 259.358 179.94L261.008 161.624C259.541 161.261 258.45 159.942 258.45 158.358C258.45 157.753 258.621 157.193 258.9 156.701L228.734 132.798C228.126 133.404 227.289 133.778 226.364 133.778C224.506 133.778 223 132.268 223 130.404C223 128.541 224.506 127.03 226.364 127.03ZM227.85 127.391C228.959 127.943 229.729 129.078 229.729 130.404C229.729 130.972 229.576 131.498 229.329 131.967L259.527 155.896C260.125 155.337 260.921 154.989 261.802 154.985L267.41 117.358C266.041 116.931 265.04 115.665 265.04 114.151C265.04 113.342 265.336 112.609 265.81 112.028L243.699 87.4278C243.113 87.9244 242.365 88.2353 241.538 88.2353C241.281 88.2353 241.033 88.2006 240.793 88.1458L227.85 127.391ZM416.114 180.519L416.048 161.731C414.239 161.72 412.777 160.277 412.714 158.475L361.889 151.82C361.729 152.37 361.448 152.868 361.057 153.263L396.321 201.179C396.789 200.932 397.312 200.779 397.878 200.779C398.583 200.779 399.236 200.999 399.777 201.371L414.094 186.029C413.588 185.439 413.271 184.68 413.271 183.841C413.271 182.156 414.505 180.772 416.114 180.519ZM262.806 155.151C263.592 155.395 264.251 155.911 264.673 156.601L311.109 137.044C311.107 136.994 311.094 136.948 311.094 136.897C311.094 135.583 311.852 134.456 312.946 133.899L301.759 104.085C301.469 104.166 301.17 104.224 300.855 104.224C299.602 104.224 298.522 103.529 297.943 102.51L271.627 113.233C271.711 113.527 271.769 113.831 271.769 114.151C271.769 116.011 270.269 117.518 268.416 117.524L264.673 142.628L262.806 155.151ZM322.827 194.339C323.228 194.339 323.608 194.421 323.965 194.551L356.227 153.189C355.661 152.585 355.308 151.778 355.308 150.883C355.308 150.691 355.334 150.506 355.364 150.322L330.927 142.199L317.686 137.798C317.381 138.898 316.542 139.762 315.461 140.102L322.244 194.398C322.434 194.364 322.627 194.339 322.827 194.339ZM363.524 116.01C363.524 115.919 363.544 115.833 363.551 115.744L347.426 111.923L304.039 101.893C303.799 102.629 303.325 103.257 302.691 103.672L311.714 128.327L313.917 133.578C314.094 133.549 314.273 133.523 314.458 133.523C316.271 133.523 317.737 134.963 317.809 136.763L355.689 149.354C356.247 148.264 357.366 147.509 358.672 147.509C358.763 147.509 358.848 147.529 358.937 147.536L365.628 119.135C364.395 118.634 363.524 117.426 363.524 116.01ZM304.499 78.4102C304.185 79.8563 302.946 80.9428 301.435 81.0426L301.631 97.5746C303.113 97.9271 304.219 99.2553 304.219 100.85C304.219 100.862 304.216 100.872 304.216 100.884L349.122 111.275L363.773 114.747C364.02 114.135 364.439 113.614 364.972 113.242L353.503 89.7075L350.759 84.0761C350.625 84.0924 350.492 84.1169 350.354 84.1169C348.613 84.1169 347.198 82.7857 347.024 81.0859L328.968 79.9498L304.499 78.4102ZM380.114 90.3011C378.256 90.3011 376.75 88.7903 376.75 86.9269C376.75 86.8725 376.763 86.8219 376.766 86.7681L353.462 82.0289C353.138 82.8147 352.525 83.4448 351.759 83.8L365.892 112.804C366.209 112.705 366.539 112.636 366.889 112.636C368.552 112.636 369.924 113.85 370.195 115.44L401.717 114.881C401.804 114.236 402.07 113.654 402.467 113.178L381.924 89.7638C381.4 90.1001 380.782 90.3011 380.114 90.3011ZM244.493 83.2804C244.746 83.754 244.903 84.2867 244.903 84.8612C244.903 85.5231 244.706 86.1359 244.377 86.6569L266.558 111.334C267.089 110.984 267.722 110.777 268.405 110.777C269.58 110.777 270.612 111.384 271.214 112.3L297.568 101.559C297.519 101.33 297.491 101.094 297.491 100.85C297.491 99.0688 298.871 97.6259 300.614 97.5L300.42 80.9596C298.948 80.5997 297.851 79.2779 297.851 77.6907C297.851 77.3169 297.926 76.9639 298.038 76.6277L280.061 67.3609C279.45 68.2053 278.464 68.76 277.344 68.76C276.235 68.76 275.26 68.2151 274.647 67.3852L244.493 83.2804ZM280.522 66.4492L287.296 69.9416L298.498 75.7158C299.11 74.8714 300.095 74.3165 301.215 74.3165C302.97 74.3165 304.395 75.6691 304.549 77.389L347.058 80.0643C347.084 79.9362 347.131 79.8173 347.172 79.6952L318.463 60.8839C317.909 61.9853 316.783 62.7485 315.469 62.7485C313.638 62.7485 312.156 61.2794 312.113 59.4536L280.698 65.2836C280.699 65.3184 280.709 65.3508 280.709 65.3858C280.709 65.7598 280.634 66.113 280.522 66.4492ZM362.037 74.3165C360.179 74.3165 358.672 72.8058 358.672 70.9424C358.672 70.6348 358.727 70.3426 358.803 70.0595L318.8 59.7025C318.795 59.7596 318.792 59.8173 318.783 59.8733L347.63 78.7753C348.241 77.9263 349.23 77.3686 350.354 77.3686C352.212 77.3686 353.718 78.8792 353.718 80.7426C353.718 80.8419 353.698 80.9352 353.689 81.032L376.967 85.7662C377.059 85.5146 377.171 85.273 377.317 85.0536L364.47 73.2624C363.857 73.9088 362.997 74.3165 362.037 74.3165ZM405.036 118.708C403.372 118.708 401.999 117.494 401.729 115.903L370.207 116.462C369.985 118.11 368.592 119.384 366.889 119.384C366.797 119.384 366.712 119.365 366.623 119.358L359.932 147.759C361.143 148.251 361.998 149.426 362.029 150.809L412.838 157.461C413.148 156.338 414.016 155.459 415.13 155.133L405.4 118.671C405.279 118.684 405.16 118.708 405.036 118.708ZM394.556 204.583C394.538 204.441 394.513 204.301 394.513 204.154C394.513 203.225 394.887 202.385 395.493 201.775L386.74 189.881L360.228 153.858C359.761 154.105 359.237 154.258 358.672 154.258C358.074 154.258 357.521 154.088 357.034 153.814L324.87 195.049C325.668 195.666 326.192 196.624 326.192 197.713C326.192 198.492 325.918 199.2 325.476 199.771L345.598 216.164C346.198 215.603 346.999 215.252 347.885 215.252C349.232 215.252 350.385 216.05 350.922 217.196L394.556 204.583ZM276.761 196.596C277.373 195.963 278.226 195.566 279.174 195.566C280.822 195.566 282.187 196.756 282.477 198.325L319.507 197.277C319.65 196.174 320.318 195.246 321.26 194.745L314.455 140.271C313.01 140.27 311.788 139.35 311.314 138.066L265.068 157.542C265.133 157.805 265.178 158.075 265.178 158.358C265.178 160.15 263.781 161.602 262.022 161.712L260.374 180.013C261.859 180.364 262.968 181.693 262.968 183.29C262.968 183.817 262.836 184.31 262.621 184.754L276.761 196.596Z" fill="#31E2ED"/>
</g>
<defs>
<filter id="filter0_d_2113_5868" x="209" y="42" width="225" height="194" filterUnits="userSpaceOnUse" color-interpolation-filters="sRGB">
<feFlood flood-opacity="0" result="BackgroundImageFix"/>
<feColorMatrix in="SourceAlpha" type="matrix" values="0 0 0 0 0 0 0 0 0 0 0 0 0 0 0 0 0 0 127 0" result="hardAlpha"/>
<feOffset/>
<feGaussianBlur stdDeviation="7"/>
<feComposite in2="hardAlpha" operator="out"/>
<feColorMatrix type="matrix" values="0 0 0 0 0.192157 0 0 0 0 0.886275 0 0 0 0 0.929412 0 0 0 0.61 0"/>
<feBlend mode="normal" in2="BackgroundImageFix" result="effect1_dropShadow_2113_5868"/>
<feBlend mode="normal" in="SourceGraphic" in2="effect1_dropShadow_2113_5868" result="shape"/>
</filter>
</defs>
</svg>
