<svg width="607" height="356" viewBox="0 0 607 356" fill="none" xmlns="http://www.w3.org/2000/svg">
<g filter="url(#filter0_d_2098_6851)">
<rect x="33" y="47.9971" width="546" height="259" fill="url(#paint0_linear_2098_6851)" shape-rendering="crispEdges"/>
</g>
<g filter="url(#filter1_f_2098_6851)">
<rect x="18.7385" y="85.2868" width="540.618" height="254.115" transform="rotate(-7.08571 18.7385 85.2868)" stroke="url(#paint1_linear_2098_6851)" stroke-opacity="0.61" stroke-width="5"/>
</g>
<rect x="17.1157" y="84.2196" width="544" height="258.548" transform="rotate(-7.08571 17.1157 84.2196)" stroke="url(#paint2_linear_2098_6851)" stroke-opacity="0.61" stroke-width="2"/>
<path d="M75.328 111.199V127.999H71.008V120.991H63.64V127.999H59.32V111.199H63.64V117.631H71.008V111.199H75.328ZM84.3603 115.135C89.2803 115.135 91.4163 116.479 91.4163 121.639C91.4163 126.823 89.2803 128.143 84.3603 128.143C79.4403 128.143 77.3043 126.823 77.3043 121.639C77.3043 116.479 79.4403 115.135 84.3603 115.135ZM81.1443 121.639C81.1443 124.159 81.8403 125.383 84.3603 125.383C86.8803 125.383 87.5763 124.159 87.5763 121.639C87.5763 119.119 86.8803 117.895 84.3603 117.895C81.8403 117.895 81.1443 119.119 81.1443 121.639ZM95.5587 115.279L97.7187 123.655C97.7427 123.775 97.8387 124.039 97.9587 124.039C98.1027 124.039 98.1507 123.799 98.1747 123.679L100.287 116.407C100.527 115.543 101.271 115.135 102.543 115.135C103.815 115.135 104.559 115.543 104.823 116.407L106.935 123.679C106.959 123.799 107.031 124.039 107.151 124.039C107.271 124.039 107.367 123.799 107.391 123.655L109.551 115.279H113.151L110.175 126.007C109.815 127.327 109.191 128.143 107.415 128.143C105.639 128.143 104.943 127.423 104.679 126.511L102.735 119.767C102.687 119.623 102.663 119.359 102.543 119.359C102.447 119.359 102.399 119.623 102.351 119.767L100.407 126.511C100.143 127.423 99.4467 128.143 97.6947 128.143C95.9187 128.143 95.2707 127.327 94.9107 126.007L91.9587 115.279H95.5587ZM127.872 127.999H125.256C122.496 127.999 120.528 126.895 120.528 123.775V118.039H118.752V115.279H120.528V111.199H124.272V115.279H127.872V118.039H124.272V122.407C124.272 124.327 125.136 125.239 127.176 125.239H127.872V127.999ZM135.665 115.135C140.585 115.135 142.721 116.479 142.721 121.639C142.721 126.823 140.585 128.143 135.665 128.143C130.745 128.143 128.609 126.823 128.609 121.639C128.609 116.479 130.745 115.135 135.665 115.135ZM132.449 121.639C132.449 124.159 133.145 125.383 135.665 125.383C138.185 125.383 138.881 124.159 138.881 121.639C138.881 119.119 138.185 117.895 135.665 117.895C133.145 117.895 132.449 119.119 132.449 121.639ZM159.857 127.999H154.841C150.761 127.999 149.609 125.479 149.609 121.639C149.609 117.799 150.761 115.279 154.841 115.279H158.513V111.199H162.257V125.599C162.257 127.159 161.417 127.999 159.857 127.999ZM158.513 124.279V118.039H155.897C153.713 118.039 153.449 119.815 153.449 121.639C153.449 123.607 153.689 125.239 155.945 125.239H157.553C158.273 125.239 158.513 124.999 158.513 124.279ZM176.434 127.999H168.754C164.674 127.999 163.906 126.271 163.906 121.591C163.906 116.191 165.346 115.135 170.386 115.135C174.586 115.135 176.866 115.807 176.866 120.247C176.866 121.687 176.434 122.887 174.874 122.887H167.698C167.698 124.447 168.202 125.311 170.242 125.311H176.434V127.999ZM167.698 120.295H172.354C173.026 120.295 173.05 119.839 173.05 119.527C173.05 118.231 171.586 117.823 170.386 117.823C168.586 117.823 167.698 118.423 167.698 120.295ZM179.044 115.279H186.892C189.412 115.279 190.828 116.911 190.828 119.311V125.599C190.828 127.159 189.988 127.999 188.428 127.999H181.3C179.02 127.999 178.156 126.655 178.156 124.015C178.156 121.615 179.02 120.055 181.3 120.055H187.084V119.503C187.084 118.495 186.508 117.967 185.476 117.967H179.044V115.279ZM187.084 122.647H183.076C182.356 122.647 181.948 123.151 181.948 124.039C181.948 124.855 182.284 125.407 183.052 125.407H186.244C186.844 125.407 187.084 125.167 187.084 124.567V122.647ZM192.836 127.999V111.199H196.58V127.999H192.836ZM206.699 115.279L208.859 123.655C208.883 123.775 208.979 124.039 209.099 124.039C209.243 124.039 209.291 123.799 209.315 123.679L211.427 116.407C211.667 115.543 212.411 115.135 213.683 115.135C214.955 115.135 215.699 115.543 215.963 116.407L218.075 123.679C218.099 123.799 218.171 124.039 218.291 124.039C218.411 124.039 218.507 123.799 218.531 123.655L220.691 115.279H224.291L221.315 126.007C220.955 127.327 220.331 128.143 218.555 128.143C216.779 128.143 216.083 127.423 215.819 126.511L213.875 119.767C213.827 119.623 213.803 119.359 213.683 119.359C213.587 119.359 213.539 119.623 213.491 119.767L211.547 126.511C211.283 127.423 210.587 128.143 208.835 128.143C207.059 128.143 206.411 127.327 206.051 126.007L203.099 115.279H206.699ZM225.203 127.999V115.279H228.947V127.999H225.203ZM228.947 113.935H225.203V111.199H228.947V113.935ZM239.177 127.999H236.561C233.801 127.999 231.833 126.895 231.833 123.775V118.039H230.057V115.279H231.833V111.199H235.577V115.279H239.177V118.039H235.577V122.407C235.577 124.327 236.441 125.239 238.481 125.239H239.177V127.999ZM240.274 127.999V111.199H244.018V115.279H247.738C250.738 115.279 252.85 116.623 252.85 119.863V127.999H249.106V120.823C249.106 118.903 248.386 118.039 246.466 118.039H244.018V127.999H240.274ZM261.005 115.279H268.853C271.373 115.279 272.789 116.911 272.789 119.311V125.599C272.789 127.159 271.949 127.999 270.389 127.999H263.261C260.981 127.999 260.117 126.655 260.117 124.015C260.117 121.615 260.981 120.055 263.261 120.055H269.045V119.503C269.045 118.495 268.469 117.967 267.437 117.967H261.005V115.279ZM269.045 122.647H265.037C264.317 122.647 263.909 123.151 263.909 124.039C263.909 124.855 264.245 125.407 265.013 125.407H268.205C268.805 125.407 269.045 125.167 269.045 124.567V122.647ZM274.797 127.999V117.679C274.797 115.999 275.637 115.279 277.197 115.279H282.381C285.381 115.279 287.373 116.623 287.373 119.863V127.999H283.629V120.823C283.629 118.903 282.909 118.039 280.989 118.039H279.381C278.781 118.039 278.541 118.279 278.541 118.879V127.999H274.797ZM295.528 115.279H303.376C305.896 115.279 307.312 116.911 307.312 119.311V125.599C307.312 127.159 306.472 127.999 304.912 127.999H297.784C295.504 127.999 294.64 126.655 294.64 124.015C294.64 121.615 295.504 120.055 297.784 120.055H303.568V119.503C303.568 118.495 302.992 117.967 301.96 117.967H295.528V115.279ZM303.568 122.647H299.56C298.84 122.647 298.432 123.151 298.432 124.039C298.432 124.855 298.768 125.407 299.536 125.407H302.728C303.328 125.407 303.568 125.167 303.568 124.567V122.647ZM309.321 127.999V117.679C309.321 115.999 310.161 115.279 311.721 115.279H316.905C319.905 115.279 321.897 116.623 321.897 119.863V127.999H318.153V120.823C318.153 118.903 317.433 118.039 315.513 118.039H313.905C313.305 118.039 313.065 118.279 313.065 118.879V127.999H309.321ZM328.794 115.279H333.954C335.514 115.279 336.354 116.119 336.354 117.679V126.919C336.354 130.615 334.674 132.247 330.834 132.247H324.45V129.607H330.186C331.41 129.607 332.37 129.247 332.61 127.999H328.794C324.714 127.999 323.562 125.479 323.562 121.639C323.562 117.799 324.714 115.279 328.794 115.279ZM332.61 125.239V118.999C332.61 118.279 332.37 118.039 331.65 118.039H329.898C327.642 118.039 327.402 119.671 327.402 121.639C327.402 123.463 327.666 125.239 329.85 125.239H332.61ZM338.36 127.999V120.319C338.36 116.575 340.304 115.279 344.048 115.279H346.568V118.039H345.08C342.872 118.039 342.104 119.215 342.104 121.423V127.999H338.36ZM362.545 115.279L354.961 132.103H351.169L353.137 127.975L347.281 115.279H351.121L354.889 124.207L358.753 115.279H362.545ZM380.156 127.999H373.82C369.5 127.999 368.468 125.479 368.468 121.639C368.468 117.799 369.5 115.279 373.82 115.279H379.892V118.039H375.26C372.812 118.039 372.308 119.479 372.308 121.639C372.308 123.799 372.812 125.239 375.26 125.239H380.156V127.999ZM387.829 115.135C392.749 115.135 394.885 116.479 394.885 121.639C394.885 126.823 392.749 128.143 387.829 128.143C382.909 128.143 380.773 126.823 380.773 121.639C380.773 116.479 382.909 115.135 387.829 115.135ZM384.613 121.639C384.613 124.159 385.309 125.383 387.829 125.383C390.349 125.383 391.045 124.159 391.045 121.639C391.045 119.119 390.349 117.895 387.829 117.895C385.309 117.895 384.613 119.119 384.613 121.639ZM396.363 123.127V120.007H405.771V123.127H396.363ZM410.113 115.279L412.273 123.655C412.297 123.775 412.393 124.039 412.513 124.039C412.657 124.039 412.705 123.799 412.729 123.679L414.841 116.407C415.081 115.543 415.825 115.135 417.097 115.135C418.369 115.135 419.113 115.543 419.377 116.407L421.489 123.679C421.513 123.799 421.585 124.039 421.705 124.039C421.825 124.039 421.921 123.799 421.945 123.655L424.105 115.279H427.705L424.729 126.007C424.369 127.327 423.745 128.143 421.969 128.143C420.193 128.143 419.497 127.423 419.233 126.511L417.289 119.767C417.241 119.623 417.217 119.359 417.097 119.359C417.001 119.359 416.953 119.623 416.905 119.767L414.961 126.511C414.697 127.423 414.001 128.143 412.249 128.143C410.473 128.143 409.825 127.327 409.465 126.007L406.513 115.279H410.113ZM435.313 115.135C440.233 115.135 442.369 116.479 442.369 121.639C442.369 126.823 440.233 128.143 435.313 128.143C430.393 128.143 428.257 126.823 428.257 121.639C428.257 116.479 430.393 115.135 435.313 115.135ZM432.097 121.639C432.097 124.159 432.793 125.383 435.313 125.383C437.833 125.383 438.529 124.159 438.529 121.639C438.529 119.119 437.833 117.895 435.313 117.895C432.793 117.895 432.097 119.119 432.097 121.639ZM444.016 127.999V120.319C444.016 116.575 445.96 115.279 449.704 115.279H452.224V118.039H450.736C448.528 118.039 447.76 119.215 447.76 121.423V127.999H444.016ZM466.905 127.999H462.513L458.648 123.439C458.097 122.767 457.833 122.071 457.833 121.423C457.833 120.463 458.241 119.959 458.648 119.455L462.033 115.279H466.233L461.913 120.391C461.697 120.655 461.529 120.967 461.529 121.303C461.529 121.687 461.769 122.071 462.081 122.431L466.905 127.999ZM457.065 127.999H453.321V111.199H457.065V127.999ZM479.27 127.999H471.59C467.51 127.999 466.742 126.271 466.742 121.591C466.742 116.191 468.182 115.135 473.222 115.135C477.422 115.135 479.702 115.807 479.702 120.247C479.702 121.687 479.27 122.887 477.71 122.887H470.534C470.534 124.447 471.038 125.311 473.078 125.311H479.27V127.999ZM470.534 120.295H475.19C475.862 120.295 475.886 119.839 475.886 119.527C475.886 118.231 474.422 117.823 473.222 117.823C471.422 117.823 470.534 118.423 470.534 120.295ZM481.352 127.999V120.319C481.352 116.575 483.296 115.279 487.04 115.279H489.56V118.039H488.072C485.864 118.039 485.096 119.215 485.096 121.423V127.999H481.352Z" fill="#31E2ED"/>
<path d="M59.3 185.999V174.119C59.3 172.619 60.04 171.999 61.36 171.999H67.84C70.42 171.999 71.24 173.639 71.24 176.239C71.24 178.919 70.48 180.699 68.06 180.699H65.8V180.799L71.54 185.999H69.06L63.7 181.079C63.44 180.839 63.18 180.539 63.18 180.199V179.879C63.18 179.459 63.48 179.179 64.02 179.179H67.44C69.14 179.179 69.3 177.939 69.3 176.239C69.3 174.499 69.02 173.519 67.14 173.519H62.16C61.52 173.519 61.16 173.719 61.16 174.479V185.999H59.3ZM81.7505 185.999H76.2105C73.0505 185.999 72.3905 183.939 72.3905 180.739C72.3905 176.839 73.6305 175.279 77.2105 175.279C80.0305 175.279 82.0305 176.199 82.0305 179.399C82.0305 180.619 81.6505 181.259 80.4505 181.259H74.1305C74.1305 182.979 74.4305 184.639 76.5705 184.639H81.7505V185.999ZM74.1305 179.899H79.7905C80.1905 179.899 80.2705 179.599 80.2705 179.359V179.279C80.2705 177.279 79.0105 176.639 77.2305 176.639C75.0505 176.639 74.1305 177.479 74.1305 179.899ZM83.6875 185.999V177.139C83.6875 176.039 84.1475 175.399 85.3075 175.399H94.7875C97.0875 175.399 98.3675 176.399 98.3675 178.839V185.999H96.6875V179.139C96.6875 177.699 96.1675 176.759 94.5675 176.759H91.8675V185.999H90.1875V176.759H85.9875C85.5875 176.759 85.3675 176.899 85.3675 177.439V185.999H83.6875ZM100.827 175.399H106.407C108.287 175.399 109.167 176.559 109.167 178.299V184.399C109.167 185.479 108.747 185.999 107.507 185.999H102.787C100.847 185.999 100.027 184.959 100.027 182.759C100.027 180.659 100.847 179.539 102.787 179.539H107.487V178.279C107.487 177.379 107.047 176.759 105.987 176.759H100.827V175.399ZM107.487 180.899H103.107C102.067 180.899 101.787 181.619 101.787 182.759C101.787 183.899 102.067 184.639 103.107 184.639H106.927C107.307 184.639 107.487 184.419 107.487 184.099V180.899ZM111.188 185.999V175.399H112.868V185.999H111.188ZM112.888 173.839H111.168V171.999H112.888V173.839ZM114.879 185.999V177.139C114.879 176.039 115.339 175.399 116.499 175.399H120.299C122.599 175.399 123.879 176.399 123.879 178.839V185.999H122.199V179.139C122.199 177.699 121.679 176.759 120.079 176.759H117.179C116.779 176.759 116.559 176.899 116.559 177.439V185.999H114.879ZM138.943 185.999H134.703C131.103 185.999 130.203 183.979 130.203 180.679C130.203 177.479 131.103 175.399 134.703 175.399H138.723V176.759H135.003C132.363 176.759 131.963 178.279 131.963 180.679C131.963 183.179 132.363 184.639 135.003 184.639H138.943V185.999ZM140.73 175.399H146.31C148.19 175.399 149.07 176.559 149.07 178.299V184.399C149.07 185.479 148.65 185.999 147.41 185.999H142.69C140.75 185.999 139.93 184.959 139.93 182.759C139.93 180.659 140.75 179.539 142.69 179.539H147.39V178.279C147.39 177.379 146.95 176.759 145.89 176.759H140.73V175.399ZM147.39 180.899H143.01C141.97 180.899 141.69 181.619 141.69 182.759C141.69 183.899 141.97 184.639 143.01 184.639H146.83C147.21 184.639 147.39 184.419 147.39 184.099V180.899ZM151.07 185.999V171.999H152.75V185.999H151.07ZM154.742 185.999V177.139C154.742 176.039 155.202 175.399 156.362 175.399H165.842C168.142 175.399 169.422 176.399 169.422 178.839V185.999H167.742V179.139C167.742 177.699 167.222 176.759 165.622 176.759H162.922V185.999H161.242V176.759H157.042C156.642 176.759 156.422 176.899 156.422 177.439V185.999H154.742ZM176.73 175.399L178.93 183.959C178.97 184.099 179.05 184.279 179.15 184.279C179.29 184.279 179.31 184.079 179.35 183.979L181.43 176.199C181.67 175.339 182.33 175.279 182.69 175.279C183.05 175.279 183.73 175.339 183.97 176.199L186.05 183.979C186.07 184.079 186.13 184.279 186.25 184.279C186.35 184.279 186.43 184.119 186.47 183.959L188.67 175.399H190.31L187.75 184.959C187.55 185.699 187.15 186.119 186.33 186.119C185.45 186.119 185.01 185.619 184.87 185.079L182.87 177.619C182.83 177.499 182.79 177.259 182.69 177.259C182.61 177.259 182.55 177.499 182.51 177.619L180.51 185.079C180.37 185.619 179.97 186.119 179.07 186.119C178.23 186.119 177.85 185.699 177.65 184.959L175.09 175.399H176.73ZM191.305 185.999V171.999H192.985V175.399H196.625C198.965 175.399 200.305 176.399 200.305 178.999V185.999H198.625V179.219C198.625 177.619 198.005 176.759 196.405 176.759H192.985V185.999H191.305ZM211.321 185.999H205.781C202.621 185.999 201.961 183.939 201.961 180.739C201.961 176.839 203.201 175.279 206.781 175.279C209.601 175.279 211.601 176.199 211.601 179.399C211.601 180.619 211.221 181.259 210.021 181.259H203.701C203.701 182.979 204.001 184.639 206.141 184.639H211.321V185.999ZM203.701 179.899H209.361C209.761 179.899 209.841 179.599 209.841 179.359V179.279C209.841 177.279 208.581 176.639 206.801 176.639C204.621 176.639 203.701 177.479 203.701 179.899ZM213.258 185.999V177.139C213.258 176.039 213.718 175.399 214.878 175.399H218.678C220.978 175.399 222.258 176.399 222.258 178.839V185.999H220.578V179.139C220.578 177.699 220.058 176.759 218.458 176.759H215.558C215.158 176.759 214.938 176.899 214.938 177.439V185.999H213.258ZM231.122 185.999H229.442V176.759H227.922V175.399H229.442C229.442 172.579 231.362 171.879 234.002 171.879V173.219C232.462 173.219 231.202 173.459 231.122 175.399H234.002V176.759H231.122V185.999ZM234.851 175.399H240.431C242.311 175.399 243.191 176.559 243.191 178.299V184.399C243.191 185.479 242.771 185.999 241.531 185.999H236.811C234.871 185.999 234.051 184.959 234.051 182.759C234.051 180.659 234.871 179.539 236.811 179.539H241.511V178.279C241.511 177.379 241.071 176.759 240.011 176.759H234.851V175.399ZM241.511 180.899H237.131C236.091 180.899 235.811 181.619 235.811 182.759C235.811 183.899 236.091 184.639 237.131 184.639H240.951C241.331 184.639 241.511 184.419 241.511 184.099V180.899ZM253.591 185.999H249.351C245.751 185.999 244.851 183.979 244.851 180.679C244.851 177.479 245.751 175.399 249.351 175.399H253.371V176.759H249.651C247.011 176.759 246.611 178.279 246.611 180.679C246.611 183.179 247.011 184.639 249.651 184.639H253.591V185.999ZM263.547 185.999H258.007C254.847 185.999 254.187 183.939 254.187 180.739C254.187 176.839 255.427 175.279 259.007 175.279C261.827 175.279 263.827 176.199 263.827 179.399C263.827 180.619 263.447 181.259 262.247 181.259H255.927C255.927 182.979 256.227 184.639 258.367 184.639H263.547V185.999ZM255.927 179.899H261.587C261.987 179.899 262.067 179.599 262.067 179.359V179.279C262.067 177.279 260.807 176.639 259.027 176.639C256.847 176.639 255.927 177.479 255.927 179.899ZM272.784 185.999H269.544C266.044 185.999 265.144 184.099 265.144 180.699C265.144 177.399 266.044 175.399 269.544 175.399H272.724V171.999H274.404V184.339C274.404 185.379 274.004 185.999 272.784 185.999ZM272.724 176.779H269.864C267.324 176.779 266.904 178.199 266.904 180.699C266.904 183.299 267.324 184.639 269.864 184.639H272.024C272.584 184.639 272.724 184.419 272.724 183.879V176.779ZM281.71 175.399L283.91 183.959C283.95 184.099 284.03 184.279 284.13 184.279C284.27 184.279 284.29 184.079 284.33 183.979L286.41 176.199C286.65 175.339 287.31 175.279 287.67 175.279C288.03 175.279 288.71 175.339 288.95 176.199L291.03 183.979C291.05 184.079 291.11 184.279 291.23 184.279C291.33 184.279 291.41 184.119 291.45 183.959L293.65 175.399H295.29L292.73 184.959C292.53 185.699 292.13 186.119 291.31 186.119C290.43 186.119 289.99 185.619 289.85 185.079L287.85 177.619C287.81 177.499 287.77 177.259 287.67 177.259C287.59 177.259 287.53 177.499 287.49 177.619L285.49 185.079C285.35 185.619 284.95 186.119 284.05 186.119C283.21 186.119 282.83 185.699 282.63 184.959L280.07 175.399H281.71ZM296.305 185.999V175.399H297.985V185.999H296.305ZM298.005 173.839H296.285V171.999H298.005V173.839ZM305.276 185.999H304.016C301.376 185.999 300.636 184.739 300.636 182.599V176.759H299.076V175.399H300.636V171.999H302.316V175.399H305.276V176.759H302.316V182.499C302.316 184.139 302.956 184.639 304.576 184.639H305.276V185.999ZM306.363 185.999V171.999H308.043V175.399H311.683C314.023 175.399 315.363 176.399 315.363 178.999V185.999H313.683V179.219C313.683 177.619 313.063 176.759 311.463 176.759H308.043V185.999H306.363ZM322.487 175.399H328.067C329.947 175.399 330.827 176.559 330.827 178.299V184.399C330.827 185.479 330.407 185.999 329.167 185.999H324.447C322.507 185.999 321.687 184.959 321.687 182.759C321.687 180.659 322.507 179.539 324.447 179.539H329.147V178.279C329.147 177.379 328.707 176.759 327.647 176.759H322.487V175.399ZM329.147 180.899H324.767C323.727 180.899 323.447 181.619 323.447 182.759C323.447 183.899 323.727 184.639 324.767 184.639H328.587C328.967 184.639 329.147 184.419 329.147 184.099V180.899ZM332.828 185.999V177.139C332.828 176.039 333.288 175.399 334.448 175.399H338.248C340.548 175.399 341.828 176.399 341.828 178.839V185.999H340.148V179.139C340.148 177.699 339.628 176.759 338.028 176.759H335.128C334.728 176.759 334.508 176.899 334.508 177.439V185.999H332.828ZM351.324 185.999H347.884C344.384 185.999 343.484 184.099 343.484 180.699C343.484 177.399 344.384 175.399 347.884 175.399H350.344C352.004 175.399 353.024 175.639 353.024 177.239V184.979C353.024 187.899 351.964 189.439 348.644 189.439H344.224V188.079H348.644C350.064 188.079 351.164 187.479 351.324 185.999ZM351.344 184.639V177.479C351.344 177.019 351.124 176.759 350.584 176.759H348.204C345.664 176.759 345.244 178.199 345.244 180.699C345.244 183.299 345.664 184.639 348.204 184.639H351.344ZM364.036 185.999H358.496C355.336 185.999 354.676 183.939 354.676 180.739C354.676 176.839 355.916 175.279 359.496 175.279C362.316 175.279 364.316 176.199 364.316 179.399C364.316 180.619 363.936 181.259 362.736 181.259H356.416C356.416 182.979 356.716 184.639 358.856 184.639H364.036V185.999ZM356.416 179.899H362.076C362.476 179.899 362.556 179.599 362.556 179.359V179.279C362.556 177.279 361.296 176.639 359.516 176.639C357.336 176.639 356.416 177.479 356.416 179.899ZM365.973 185.999V179.219C365.973 176.599 367.253 175.399 369.873 175.399H371.033V176.759H370.173C368.333 176.759 367.653 177.699 367.653 179.639V185.999H365.973ZM372.407 185.999V183.999H374.167V185.999H372.407ZM374.147 182.479H372.407L372.327 171.999H374.247L374.147 182.479ZM382.127 171.999L386.667 184.039C386.727 184.219 386.847 184.339 386.987 184.339C387.127 184.339 387.227 184.219 387.307 184.039L391.867 171.999H393.907L388.727 184.939C388.487 185.519 388.087 186.159 386.987 186.159C385.887 186.159 385.467 185.519 385.247 184.939L380.087 171.999H382.127ZM394.44 175.399H400.02C401.9 175.399 402.78 176.559 402.78 178.299V184.399C402.78 185.479 402.36 185.999 401.12 185.999H396.4C394.46 185.999 393.64 184.959 393.64 182.759C393.64 180.659 394.46 179.539 396.4 179.539H401.1V178.279C401.1 177.379 400.66 176.759 399.6 176.759H394.44V175.399ZM401.1 180.899H396.72C395.68 180.899 395.4 181.619 395.4 182.759C395.4 183.899 395.68 184.639 396.72 184.639H400.54C400.92 184.639 401.1 184.419 401.1 184.099V180.899ZM404.781 185.999V171.999H406.461V185.999H404.781ZM408.473 185.999V175.399H410.153V185.999H408.473ZM410.173 173.839H408.453V171.999H410.173V173.839ZM419.464 185.999H416.224C412.724 185.999 411.824 184.099 411.824 180.699C411.824 177.399 412.724 175.399 416.224 175.399H419.404V171.999H421.084V184.339C421.084 185.379 420.684 185.999 419.464 185.999ZM419.404 176.779H416.544C414.004 176.779 413.584 178.199 413.584 180.699C413.584 183.299 414.004 184.639 416.544 184.639H418.704C419.264 184.639 419.404 184.419 419.404 183.879V176.779ZM423.542 175.399H429.122C431.002 175.399 431.882 176.559 431.882 178.299V184.399C431.882 185.479 431.462 185.999 430.222 185.999H425.502C423.562 185.999 422.742 184.959 422.742 182.759C422.742 180.659 423.562 179.539 425.502 179.539H430.202V178.279C430.202 177.379 429.762 176.759 428.702 176.759H423.542V175.399ZM430.202 180.899H425.822C424.782 180.899 424.502 181.619 424.502 182.759C424.502 183.899 424.782 184.639 425.822 184.639H429.642C430.022 184.639 430.202 184.419 430.202 184.099V180.899ZM439.163 185.999H437.903C435.263 185.999 434.523 184.739 434.523 182.599V176.759H432.963V175.399H434.523V171.999H436.203V175.399H439.163V176.759H436.203V182.499C436.203 184.139 436.843 184.639 438.463 184.639H439.163V185.999ZM449.27 185.999H443.73C440.57 185.999 439.91 183.939 439.91 180.739C439.91 176.839 441.15 175.279 444.73 175.279C447.55 175.279 449.55 176.199 449.55 179.399C449.55 180.619 449.17 181.259 447.97 181.259H441.65C441.65 182.979 441.95 184.639 444.09 184.639H449.27V185.999ZM441.65 179.899H447.31C447.71 179.899 447.79 179.599 447.79 179.359V179.279C447.79 177.279 446.53 176.639 444.75 176.639C442.57 176.639 441.65 177.479 441.65 179.899ZM461.155 185.999H459.895C457.255 185.999 456.515 184.739 456.515 182.599V176.759H454.955V175.399H456.515V171.999H458.195V175.399H461.155V176.759H458.195V182.499C458.195 184.139 458.835 184.639 460.455 184.639H461.155V185.999ZM462.242 185.999V171.999H463.922V175.399H467.562C469.902 175.399 471.242 176.399 471.242 178.999V185.999H469.562V179.219C469.562 177.619 468.942 176.759 467.342 176.759H463.922V185.999H462.242ZM482.258 185.999H476.718C473.558 185.999 472.898 183.939 472.898 180.739C472.898 176.839 474.138 175.279 477.718 175.279C480.538 175.279 482.538 176.199 482.538 179.399C482.538 180.619 482.158 181.259 480.958 181.259H474.638C474.638 182.979 474.938 184.639 477.078 184.639H482.258V185.999ZM474.638 179.899H480.298C480.698 179.899 480.778 179.599 480.778 179.359V179.279C480.778 177.279 479.518 176.639 477.738 176.639C475.558 176.639 474.638 177.479 474.638 179.899ZM484.215 185.999V175.399H485.895V185.999H484.215ZM485.915 173.839H484.195V171.999H485.915V173.839ZM487.906 185.999V179.219C487.906 176.599 489.186 175.399 491.806 175.399H492.966V176.759H492.106C490.266 176.759 489.586 177.699 489.586 179.639V185.999H487.906ZM59.62 204.399L62.82 212.979C62.9 213.199 62.98 213.419 63.1 213.419C63.24 213.419 63.32 213.199 63.4 212.979L66.58 204.399H68.32L64.46 214.199C64.12 215.059 63.6 215.119 63.1 215.119C62.6 215.119 62.08 215.059 61.74 214.199L57.88 204.399H59.62ZM69.2153 214.999V204.399H70.8953V214.999H69.2153ZM70.9153 202.839H69.1953V200.999H70.9153V202.839ZM81.9263 214.999H76.3863C73.2262 214.999 72.5662 212.939 72.5662 209.739C72.5662 205.839 73.8063 204.279 77.3863 204.279C80.2063 204.279 82.2063 205.199 82.2063 208.399C82.2063 209.619 81.8263 210.259 80.6263 210.259H74.3063C74.3063 211.979 74.6063 213.639 76.7463 213.639H81.9263V214.999ZM74.3063 208.899H79.9663C80.3663 208.899 80.4463 208.599 80.4463 208.359V208.279C80.4463 206.279 79.1863 205.639 77.4063 205.639C75.2263 205.639 74.3063 206.479 74.3063 208.899ZM84.5033 204.399L86.7033 212.959C86.7433 213.099 86.8233 213.279 86.9233 213.279C87.0633 213.279 87.0833 213.079 87.1233 212.979L89.2033 205.199C89.4433 204.339 90.1033 204.279 90.4633 204.279C90.8233 204.279 91.5033 204.339 91.7433 205.199L93.8233 212.979C93.8433 213.079 93.9033 213.279 94.0233 213.279C94.1233 213.279 94.2033 213.119 94.2433 212.959L96.4433 204.399H98.0833L95.5233 213.959C95.3233 214.699 94.9233 215.119 94.1033 215.119C93.2233 215.119 92.7833 214.619 92.6433 214.079L90.6433 206.619C90.6033 206.499 90.5633 206.259 90.4633 206.259C90.3833 206.259 90.3233 206.499 90.2833 206.619L88.2833 214.079C88.1433 214.619 87.7433 215.119 86.8433 215.119C86.0033 215.119 85.6233 214.699 85.4233 213.959L82.8633 204.399H84.5033ZM100.758 214.999V218.399H99.0781V206.059C99.0781 204.859 99.7781 204.399 100.818 204.399H103.998C107.398 204.399 108.338 206.359 108.338 209.659C108.338 212.959 107.398 214.999 103.998 214.999H100.758ZM100.758 206.379V213.639H103.698C106.238 213.639 106.578 211.959 106.578 209.659C106.578 207.359 106.238 205.759 103.698 205.759H101.378C100.978 205.759 100.758 205.899 100.758 206.379ZM115.096 204.279C118.896 204.279 120.536 205.659 120.536 209.659C120.536 213.679 118.896 215.119 115.096 215.119C111.296 215.119 109.656 213.679 109.656 209.659C109.656 205.659 111.296 204.279 115.096 204.279ZM111.416 209.659C111.416 212.659 112.396 213.759 115.096 213.759C117.796 213.759 118.776 212.659 118.776 209.659C118.776 206.659 117.796 205.639 115.096 205.639C112.396 205.639 111.416 206.659 111.416 209.659ZM122.223 214.999V204.399H123.903V214.999H122.223ZM123.923 202.839H122.203V200.999H123.923V202.839ZM125.914 214.999V206.139C125.914 205.039 126.374 204.399 127.534 204.399H131.334C133.634 204.399 134.914 205.399 134.914 207.839V214.999H133.234V208.139C133.234 206.699 132.714 205.759 131.114 205.759H128.214C127.814 205.759 127.594 205.899 127.594 206.439V214.999H125.914ZM142.19 214.999H140.93C138.29 214.999 137.55 213.739 137.55 211.599V205.759H135.99V204.399H137.55V200.999H139.23V204.399H142.19V205.759H139.23V211.499C139.23 213.139 139.87 213.639 141.49 213.639H142.19V214.999ZM148.405 204.399H153.985C155.865 204.399 156.745 205.559 156.745 207.299V213.399C156.745 214.479 156.325 214.999 155.085 214.999H150.365C148.425 214.999 147.605 213.959 147.605 211.759C147.605 209.659 148.425 208.539 150.365 208.539H155.065V207.279C155.065 206.379 154.625 205.759 153.565 205.759H148.405V204.399ZM155.065 209.899H150.685C149.645 209.899 149.365 210.619 149.365 211.759C149.365 212.899 149.645 213.639 150.685 213.639H154.505C154.885 213.639 155.065 213.419 155.065 213.099V209.899ZM158.746 214.999V206.139C158.746 205.039 159.206 204.399 160.366 204.399H164.166C166.466 204.399 167.746 205.399 167.746 207.839V214.999H166.066V208.139C166.066 206.699 165.546 205.759 163.946 205.759H161.046C160.646 205.759 160.426 205.899 160.426 206.439V214.999H158.746ZM177.042 214.999H173.802C170.302 214.999 169.402 213.099 169.402 209.699C169.402 206.399 170.302 204.399 173.802 204.399H176.982V200.999H178.662V213.339C178.662 214.379 178.262 214.999 177.042 214.999ZM176.982 205.779H174.122C171.582 205.779 171.162 207.199 171.162 209.699C171.162 212.299 171.582 213.639 174.122 213.639H176.282C176.842 213.639 176.982 213.419 176.982 212.879V205.779ZM185.088 214.999V213.639H191.108C191.988 213.639 192.388 213.179 192.388 212.299C192.388 211.179 191.428 210.979 189.788 210.579L187.848 210.099C185.828 209.599 184.928 208.819 184.928 207.039C184.928 205.259 185.928 204.399 187.788 204.399H193.528V205.759H187.968C186.988 205.759 186.608 206.099 186.608 207.039C186.608 208.219 187.428 208.499 188.588 208.799L190.688 209.339C192.828 209.879 194.148 210.259 194.148 212.319C194.148 213.959 193.548 214.999 191.528 214.999H185.088ZM195.758 214.999V200.999H197.438V204.399H201.078C203.418 204.399 204.758 205.399 204.758 207.999V214.999H203.078V208.219C203.078 206.619 202.458 205.759 200.858 205.759H197.438V214.999H195.758ZM207.214 204.399H212.794C214.674 204.399 215.554 205.559 215.554 207.299V213.399C215.554 214.479 215.134 214.999 213.894 214.999H209.174C207.234 214.999 206.414 213.959 206.414 211.759C206.414 209.659 207.234 208.539 209.174 208.539H213.874V207.279C213.874 206.379 213.434 205.759 212.374 205.759H207.214V204.399ZM213.874 209.899H209.494C208.454 209.899 208.174 210.619 208.174 211.759C208.174 212.899 208.454 213.639 209.494 213.639H213.314C213.694 213.639 213.874 213.419 213.874 213.099V209.899ZM217.555 214.999V208.219C217.555 205.599 218.835 204.399 221.455 204.399H222.615V205.759H221.755C219.915 205.759 219.235 206.699 219.235 208.639V214.999H217.555ZM232.239 214.999H226.699C223.539 214.999 222.879 212.939 222.879 209.739C222.879 205.839 224.119 204.279 227.699 204.279C230.519 204.279 232.519 205.199 232.519 208.399C232.519 209.619 232.139 210.259 230.939 210.259H224.619C224.619 211.979 224.919 213.639 227.059 213.639H232.239V214.999ZM224.619 208.899H230.279C230.679 208.899 230.759 208.599 230.759 208.359V208.279C230.759 206.279 229.499 205.639 227.719 205.639C225.539 205.639 224.619 206.479 224.619 208.899ZM248.704 204.399L242.384 218.419H240.624L242.244 214.999L237.644 204.399H239.404L243.104 213.159L246.944 204.399H248.704ZM254.608 204.279C258.408 204.279 260.048 205.659 260.048 209.659C260.048 213.679 258.408 215.119 254.608 215.119C250.808 215.119 249.168 213.679 249.168 209.659C249.168 205.659 250.808 204.279 254.608 204.279ZM250.928 209.659C250.928 212.659 251.908 213.759 254.608 213.759C257.308 213.759 258.288 212.659 258.288 209.659C258.288 206.659 257.308 205.639 254.608 205.639C251.908 205.639 250.928 206.659 250.928 209.659ZM270.835 204.399V213.259C270.835 214.379 270.375 214.999 269.215 214.999H265.295C262.995 214.999 261.715 213.999 261.715 211.559V204.399H263.395V211.259C263.395 212.699 263.915 213.639 265.515 213.639H268.535C268.935 213.639 269.155 213.499 269.155 212.959V204.399H270.835ZM272.828 214.999V208.219C272.828 205.599 274.108 204.399 276.728 204.399H277.888V205.759H277.028C275.188 205.759 274.508 206.699 274.508 208.639V214.999H272.828ZM278.643 214.999V213.639H284.663C285.543 213.639 285.943 213.179 285.943 212.299C285.943 211.179 284.983 210.979 283.343 210.579L281.403 210.099C279.383 209.599 278.483 208.819 278.483 207.039C278.483 205.259 279.483 204.399 281.343 204.399H287.083V205.759H281.523C280.543 205.759 280.163 206.099 280.163 207.039C280.163 208.219 280.983 208.499 282.143 208.799L284.243 209.339C286.383 209.879 287.703 210.259 287.703 212.319C287.703 213.959 287.103 214.999 285.083 214.999H278.643ZM293.88 210.319V208.799H300.44V210.319H293.88ZM312.288 214.999H311.028C308.388 214.999 307.648 213.739 307.648 211.599V205.759H306.088V204.399H307.648V200.999H309.328V204.399H312.288V205.759H309.328V211.499C309.328 213.139 309.968 213.639 311.588 213.639H312.288V214.999ZM313.375 214.999V200.999H315.055V204.399H318.695C321.035 204.399 322.375 205.399 322.375 207.999V214.999H320.695V208.219C320.695 206.619 320.075 205.759 318.475 205.759H315.055V214.999H313.375ZM324.391 214.999V204.399H326.071V214.999H324.391ZM326.091 202.839H324.371V200.999H326.091V202.839ZM327.842 214.999V213.639H333.862C334.742 213.639 335.142 213.179 335.142 212.299C335.142 211.179 334.182 210.979 332.542 210.579L330.602 210.099C328.582 209.599 327.682 208.819 327.682 207.039C327.682 205.259 328.682 204.399 330.542 204.399H336.282V205.759H330.722C329.742 205.759 329.362 206.099 329.362 207.039C329.362 208.219 330.182 208.499 331.342 208.799L333.442 209.339C335.582 209.879 336.902 210.259 336.902 212.319C336.902 213.959 336.302 214.999 334.282 214.999H327.842ZM343.64 204.399H349.22C351.1 204.399 351.98 205.559 351.98 207.299V213.399C351.98 214.479 351.56 214.999 350.32 214.999H345.6C343.66 214.999 342.84 213.959 342.84 211.759C342.84 209.659 343.66 208.539 345.6 208.539H350.3V207.279C350.3 206.379 349.86 205.759 348.8 205.759H343.64V204.399ZM350.3 209.899H345.92C344.88 209.899 344.6 210.619 344.6 211.759C344.6 212.899 344.88 213.639 345.92 213.639H349.74C350.12 213.639 350.3 213.419 350.3 213.099V209.899ZM360.328 214.999V218.399H358.648V206.059C358.648 204.859 359.348 204.399 360.388 204.399H363.568C366.968 204.399 367.908 206.359 367.908 209.659C367.908 212.959 366.968 214.999 363.568 214.999H360.328ZM360.328 206.379V213.639H363.268C365.808 213.639 366.148 211.959 366.148 209.659C366.148 207.359 365.808 205.759 363.268 205.759H360.948C360.548 205.759 360.328 205.899 360.328 206.379ZM374.666 204.279C378.466 204.279 380.106 205.659 380.106 209.659C380.106 213.679 378.466 215.119 374.666 215.119C370.866 215.119 369.226 213.679 369.226 209.659C369.226 205.659 370.866 204.279 374.666 204.279ZM370.986 209.659C370.986 212.659 371.966 213.759 374.666 213.759C377.366 213.759 378.346 212.659 378.346 209.659C378.346 206.659 377.366 205.639 374.666 205.639C371.966 205.639 370.986 206.659 370.986 209.659ZM382.413 204.399L384.613 212.959C384.653 213.099 384.733 213.279 384.833 213.279C384.973 213.279 384.993 213.079 385.033 212.979L387.113 205.199C387.353 204.339 388.013 204.279 388.373 204.279C388.733 204.279 389.413 204.339 389.653 205.199L391.733 212.979C391.753 213.079 391.813 213.279 391.933 213.279C392.033 213.279 392.113 213.119 392.153 212.959L394.353 204.399H395.993L393.433 213.959C393.233 214.699 392.833 215.119 392.013 215.119C391.133 215.119 390.693 214.619 390.553 214.079L388.553 206.619C388.513 206.499 388.473 206.259 388.373 206.259C388.293 206.259 388.233 206.499 388.193 206.619L386.193 214.079C386.053 214.619 385.653 215.119 384.753 215.119C383.913 215.119 383.533 214.699 383.333 213.959L380.773 204.399H382.413ZM406.008 214.999H400.468C397.308 214.999 396.648 212.939 396.648 209.739C396.648 205.839 397.888 204.279 401.468 204.279C404.288 204.279 406.288 205.199 406.288 208.399C406.288 209.619 405.908 210.259 404.708 210.259H398.388C398.388 211.979 398.688 213.639 400.828 213.639H406.008V214.999ZM398.388 208.899H404.048C404.448 208.899 404.528 208.599 404.528 208.359V208.279C404.528 206.279 403.268 205.639 401.488 205.639C399.308 205.639 398.388 206.479 398.388 208.899ZM407.945 214.999V208.219C407.945 205.599 409.225 204.399 411.845 204.399H413.005V205.759H412.145C410.305 205.759 409.625 206.699 409.625 208.639V214.999H407.945ZM417.001 214.999H415.321V205.759H413.801V204.399H415.321C415.321 201.579 417.241 200.879 419.881 200.879V202.219C418.341 202.219 417.081 202.459 417.001 204.399H419.881V205.759H417.001V214.999ZM429.995 204.399V213.259C429.995 214.379 429.535 214.999 428.375 214.999H424.455C422.155 214.999 420.875 213.999 420.875 211.559V204.399H422.555V211.259C422.555 212.699 423.075 213.639 424.675 213.639H427.695C428.095 213.639 428.315 213.499 428.315 212.959V204.399H429.995ZM431.988 214.999V200.999H433.668V214.999H431.988ZM440.968 204.399L443.168 212.959C443.208 213.099 443.288 213.279 443.388 213.279C443.528 213.279 443.548 213.079 443.588 212.979L445.668 205.199C445.908 204.339 446.568 204.279 446.928 204.279C447.288 204.279 447.968 204.339 448.208 205.199L450.288 212.979C450.308 213.079 450.368 213.279 450.488 213.279C450.588 213.279 450.668 213.119 450.708 212.959L452.908 204.399H454.548L451.988 213.959C451.788 214.699 451.388 215.119 450.568 215.119C449.688 215.119 449.248 214.619 449.108 214.079L447.108 206.619C447.068 206.499 447.028 206.259 446.928 206.259C446.848 206.259 446.788 206.499 446.748 206.619L444.748 214.079C444.608 214.619 444.208 215.119 443.308 215.119C442.468 215.119 442.088 214.699 441.888 213.959L439.328 204.399H440.968ZM455.808 204.399H461.388C463.268 204.399 464.148 205.559 464.148 207.299V213.399C464.148 214.479 463.728 214.999 462.488 214.999H457.768C455.828 214.999 455.008 213.959 455.008 211.759C455.008 209.659 455.828 208.539 457.768 208.539H462.468V207.279C462.468 206.379 462.028 205.759 460.968 205.759H455.808V204.399ZM462.468 209.899H458.088C457.048 209.899 456.768 210.619 456.768 211.759C456.768 212.899 457.048 213.639 458.088 213.639H461.908C462.288 213.639 462.468 213.419 462.468 213.099V209.899ZM476.008 204.399L469.688 218.419H467.928L469.548 214.999L464.948 204.399H466.708L470.408 213.159L474.248 204.399H476.008ZM486.76 214.999H485.5C482.86 214.999 482.12 213.739 482.12 211.599V205.759H480.56V204.399H482.12V200.999H483.8V204.399H486.76V205.759H483.8V211.499C483.8 213.139 484.44 213.639 486.06 213.639H486.76V214.999ZM492.752 204.279C496.552 204.279 498.192 205.659 498.192 209.659C498.192 213.679 496.552 215.119 492.752 215.119C488.952 215.119 487.312 213.679 487.312 209.659C487.312 205.659 488.952 204.279 492.752 204.279ZM489.072 209.659C489.072 212.659 490.052 213.759 492.752 213.759C495.452 213.759 496.432 212.659 496.432 209.659C496.432 206.659 495.452 205.639 492.752 205.639C490.052 205.639 489.072 206.659 489.072 209.659ZM59 243.999V229.999H60.68V233.399H64.32C66.66 233.399 68 234.399 68 236.999V243.999H66.32V237.219C66.32 235.619 65.7 234.759 64.1 234.759H60.68V243.999H59ZM70.4561 233.399H76.0361C77.9161 233.399 78.7961 234.559 78.7961 236.299V242.399C78.7961 243.479 78.3761 243.999 77.1361 243.999H72.4161C70.4761 243.999 69.6561 242.959 69.6561 240.759C69.6561 238.659 70.4761 237.539 72.4161 237.539H77.1161V236.279C77.1161 235.379 76.6761 234.759 75.6161 234.759H70.4561V233.399ZM77.1161 238.899H72.7361C71.6961 238.899 71.4161 239.619 71.4161 240.759C71.4161 241.899 71.6961 242.639 72.7361 242.639H76.5561C76.9361 242.639 77.1161 242.419 77.1161 242.099V238.899ZM80.7969 243.999V235.139C80.7969 234.039 81.2569 233.399 82.4169 233.399H86.2169C88.5169 233.399 89.7969 234.399 89.7969 236.839V243.999H88.1169V237.139C88.1169 235.699 87.5969 234.759 85.9969 234.759H83.0969C82.6969 234.759 82.4769 234.899 82.4769 235.439V243.999H80.7969ZM99.093 243.999H95.853C92.353 243.999 91.453 242.099 91.453 238.699C91.453 235.399 92.353 233.399 95.853 233.399H99.033V229.999H100.713V242.339C100.713 243.379 100.313 243.999 99.093 243.999ZM99.033 234.779H96.173C93.633 234.779 93.213 236.199 93.213 238.699C93.213 241.299 93.633 242.639 96.173 242.639H98.333C98.893 242.639 99.033 242.419 99.033 241.879V234.779ZM102.711 243.999V229.999H104.391V243.999H102.711ZM115.403 243.999H109.863C106.703 243.999 106.043 241.939 106.043 238.739C106.043 234.839 107.283 233.279 110.863 233.279C113.683 233.279 115.683 234.199 115.683 237.399C115.683 238.619 115.303 239.259 114.103 239.259H107.783C107.783 240.979 108.083 242.639 110.223 242.639H115.403V243.999ZM107.783 237.899H113.443C113.843 237.899 113.923 237.599 113.923 237.359V237.279C113.923 235.279 112.663 234.639 110.883 234.639C108.703 234.639 107.783 235.479 107.783 237.899ZM129.308 243.999H126.068C122.568 243.999 121.668 242.099 121.668 238.699C121.668 235.399 122.568 233.399 126.068 233.399H129.248V229.999H130.928V242.339C130.928 243.379 130.528 243.999 129.308 243.999ZM129.248 234.779H126.388C123.848 234.779 123.428 236.199 123.428 238.699C123.428 241.299 123.848 242.639 126.388 242.639H128.548C129.108 242.639 129.248 242.419 129.248 241.879V234.779ZM132.946 243.999V233.399H134.626V243.999H132.946ZM134.646 231.839H132.926V229.999H134.646V231.839ZM138.837 243.999H137.157V234.759H135.637V233.399H137.157C137.157 230.579 139.077 229.879 141.717 229.879V231.219C140.177 231.219 138.917 231.459 138.837 233.399H141.717V234.759H138.837V243.999ZM144.911 243.999H143.231V234.759H141.711V233.399H143.231C143.231 230.579 145.151 229.879 147.791 229.879V231.219C146.251 231.219 144.991 231.459 144.911 233.399H147.791V234.759H144.911V243.999ZM148.571 243.999V233.399H150.251V243.999H148.571ZM150.271 231.839H148.551V229.999H150.271V231.839ZM160.662 243.999H156.422C152.822 243.999 151.922 241.979 151.922 238.679C151.922 235.479 152.822 233.399 156.422 233.399H160.442V234.759H156.722C154.082 234.759 153.682 236.279 153.682 238.679C153.682 241.179 154.082 242.639 156.722 242.639H160.662V243.999ZM171.108 233.399V242.259C171.108 243.379 170.648 243.999 169.488 243.999H165.568C163.268 243.999 161.988 242.999 161.988 240.559V233.399H163.668V240.259C163.668 241.699 164.188 242.639 165.788 242.639H168.808C169.208 242.639 169.428 242.499 169.428 241.959V233.399H171.108ZM173.102 243.999V229.999H174.782V243.999H173.102ZM182.053 243.999H180.793C178.153 243.999 177.413 242.739 177.413 240.599V234.759H175.853V233.399H177.413V229.999H179.093V233.399H182.053V234.759H179.093V240.499C179.093 242.139 179.733 242.639 181.353 242.639H182.053V243.999ZM187.569 243.999V242.639H193.589C194.469 242.639 194.869 242.179 194.869 241.299C194.869 240.179 193.909 239.979 192.269 239.579L190.329 239.099C188.309 238.599 187.409 237.819 187.409 236.039C187.409 234.259 188.409 233.399 190.269 233.399H196.009V234.759H190.449C189.469 234.759 189.089 235.099 189.089 236.039C189.089 237.219 189.909 237.499 191.069 237.799L193.169 238.339C195.309 238.879 196.629 239.259 196.629 241.319C196.629 242.959 196.029 243.999 194.009 243.999H187.569ZM198.258 243.999V233.399H199.938V243.999H198.258ZM199.958 231.839H198.238V229.999H199.958V231.839ZM207.229 243.999H205.969C203.329 243.999 202.589 242.739 202.589 240.599V234.759H201.029V233.399H202.589V229.999H204.269V233.399H207.229V234.759H204.269V240.499C204.269 242.139 204.909 242.639 206.529 242.639H207.229V243.999ZM217.436 233.399V242.259C217.436 243.379 216.976 243.999 215.816 243.999H211.896C209.596 243.999 208.316 242.999 208.316 240.559V233.399H209.996V240.259C209.996 241.699 210.516 242.639 212.116 242.639H215.136C215.536 242.639 215.756 242.499 215.756 241.959V233.399H217.436ZM219.89 233.399H225.47C227.35 233.399 228.23 234.559 228.23 236.299V242.399C228.23 243.479 227.81 243.999 226.57 243.999H221.85C219.91 243.999 219.09 242.959 219.09 240.759C219.09 238.659 219.91 237.539 221.85 237.539H226.55V236.279C226.55 235.379 226.11 234.759 225.05 234.759H219.89V233.399ZM226.55 238.899H222.17C221.13 238.899 220.85 239.619 220.85 240.759C220.85 241.899 221.13 242.639 222.17 242.639H225.99C226.37 242.639 226.55 242.419 226.55 242.099V238.899ZM235.51 243.999H234.25C231.61 243.999 230.87 242.739 230.87 240.599V234.759H229.31V233.399H230.87V229.999H232.55V233.399H235.51V234.759H232.55V240.499C232.55 242.139 233.19 242.639 234.81 242.639H235.51V243.999ZM236.618 243.999V233.399H238.298V243.999H236.618ZM238.318 231.839H236.598V229.999H238.318V231.839ZM245.409 233.279C249.209 233.279 250.849 234.659 250.849 238.659C250.849 242.679 249.209 244.119 245.409 244.119C241.609 244.119 239.969 242.679 239.969 238.659C239.969 234.659 241.609 233.279 245.409 233.279ZM241.729 238.659C241.729 241.659 242.709 242.759 245.409 242.759C248.109 242.759 249.089 241.659 249.089 238.659C249.089 235.659 248.109 234.639 245.409 234.639C242.709 234.639 241.729 235.659 241.729 238.659ZM252.516 243.999V235.139C252.516 234.039 252.976 233.399 254.136 233.399H257.936C260.236 233.399 261.516 234.399 261.516 236.839V243.999H259.836V237.139C259.836 235.699 259.316 234.759 257.716 234.759H254.816C254.416 234.759 254.196 234.899 254.196 235.439V243.999H252.516ZM263.272 243.999V242.639H269.292C270.172 242.639 270.572 242.179 270.572 241.299C270.572 240.179 269.612 239.979 267.972 239.579L266.032 239.099C264.012 238.599 263.112 237.819 263.112 236.039C263.112 234.259 264.112 233.399 265.972 233.399H271.712V234.759H266.152C265.172 234.759 264.792 235.099 264.792 236.039C264.792 237.219 265.612 237.499 266.772 237.799L268.872 238.339C271.012 238.879 272.332 239.259 272.332 241.319C272.332 242.959 271.732 243.999 269.712 243.999H263.272ZM274.321 243.999V241.999H276.081V243.999H274.321ZM276.061 240.479H274.321L274.241 229.999H276.161L276.061 240.479Z" fill="#DBFDFF"/>
<defs>
<filter id="filter0_d_2098_6851" x="5" y="19.9971" width="602" height="315" filterUnits="userSpaceOnUse" color-interpolation-filters="sRGB">
<feFlood flood-opacity="0" result="BackgroundImageFix"/>
<feColorMatrix in="SourceAlpha" type="matrix" values="0 0 0 0 0 0 0 0 0 0 0 0 0 0 0 0 0 0 127 0" result="hardAlpha"/>
<feMorphology radius="9" operator="dilate" in="SourceAlpha" result="effect1_dropShadow_2098_6851"/>
<feOffset/>
<feGaussianBlur stdDeviation="9.5"/>
<feComposite in2="hardAlpha" operator="out"/>
<feColorMatrix type="matrix" values="0 0 0 0 0.0271007 0 0 0 0 0.929167 0 0 0 0 0.766795 0 0 0 0.14 0"/>
<feBlend mode="normal" in2="BackgroundImageFix" result="effect1_dropShadow_2098_6851"/>
<feBlend mode="normal" in="SourceGraphic" in2="effect1_dropShadow_2098_6851" result="shape"/>
</filter>
<filter id="filter1_f_2098_6851" x="0.949219" y="0.810547" width="603.414" height="354.439" filterUnits="userSpaceOnUse" color-interpolation-filters="sRGB">
<feFlood flood-opacity="0" result="BackgroundImageFix"/>
<feBlend mode="normal" in="SourceGraphic" in2="BackgroundImageFix" result="shape"/>
<feGaussianBlur stdDeviation="7.5" result="effect1_foregroundBlur_2098_6851"/>
</filter>
<linearGradient id="paint0_linear_2098_6851" x1="-1.63213" y1="40.4053" x2="623.412" y2="458.257" gradientUnits="userSpaceOnUse">
<stop stop-color="#04554E" stop-opacity="0.76"/>
<stop offset="1"/>
</linearGradient>
<linearGradient id="paint1_linear_2098_6851" x1="561.567" y1="68.4584" x2="-46.3712" y2="293.257" gradientUnits="userSpaceOnUse">
<stop stop-color="#07ED47"/>
<stop offset="1" stop-color="#16D5FF" stop-opacity="0.8"/>
</linearGradient>
<linearGradient id="paint2_linear_2098_6851" x1="562" y1="68.6137" x2="-47.0665" y2="292.748" gradientUnits="userSpaceOnUse">
<stop stop-color="#07ED47"/>
<stop offset="1" stop-color="#16D5FF" stop-opacity="0.8"/>
</linearGradient>
</defs>
</svg>
