<svg width="606" height="353" viewBox="0 0 606 353" fill="none" xmlns="http://www.w3.org/2000/svg">
<g filter="url(#filter0_d_2098_6846)">
<rect x="32" y="47" width="546" height="259" fill="url(#paint0_linear_2098_6846)" shape-rendering="crispEdges"/>
</g>
<g filter="url(#filter1_f_2098_6846)">
<rect x="18.1135" y="84.3991" width="539.269" height="252.728" transform="rotate(-7.08571 18.1135 84.3991)" stroke="url(#paint1_linear_2098_6846)" stroke-opacity="0.61" stroke-width="5"/>
</g>
<rect x="16.1157" y="83.2206" width="544" height="258.548" transform="rotate(-7.08571 16.1157 83.2206)" stroke="url(#paint2_linear_2098_6846)" stroke-opacity="0.61" stroke-width="2"/>
<path d="M74.328 110.2V127H70.008V119.992H62.64V127H58.32V110.2H62.64V116.632H70.008V110.2H74.328ZM83.3603 114.136C88.2803 114.136 90.4163 115.48 90.4163 120.64C90.4163 125.824 88.2803 127.144 83.3603 127.144C78.4403 127.144 76.3043 125.824 76.3043 120.64C76.3043 115.48 78.4403 114.136 83.3603 114.136ZM80.1443 120.64C80.1443 123.16 80.8403 124.384 83.3603 124.384C85.8803 124.384 86.5763 123.16 86.5763 120.64C86.5763 118.12 85.8803 116.896 83.3603 116.896C80.8403 116.896 80.1443 118.12 80.1443 120.64ZM94.5587 114.28L96.7187 122.656C96.7427 122.776 96.8387 123.04 96.9587 123.04C97.1027 123.04 97.1507 122.8 97.1747 122.68L99.2867 115.408C99.5267 114.544 100.271 114.136 101.543 114.136C102.815 114.136 103.559 114.544 103.823 115.408L105.935 122.68C105.959 122.8 106.031 123.04 106.151 123.04C106.271 123.04 106.367 122.8 106.391 122.656L108.551 114.28H112.151L109.175 125.008C108.815 126.328 108.191 127.144 106.415 127.144C104.639 127.144 103.943 126.424 103.679 125.512L101.735 118.768C101.687 118.624 101.663 118.36 101.543 118.36C101.447 118.36 101.399 118.624 101.351 118.768L99.4067 125.512C99.1427 126.424 98.4467 127.144 96.6947 127.144C94.9187 127.144 94.2707 126.328 93.9107 125.008L90.9587 114.28H94.5587ZM126.872 127H124.256C121.496 127 119.528 125.896 119.528 122.776V117.04H117.752V114.28H119.528V110.2H123.272V114.28H126.872V117.04H123.272V121.408C123.272 123.328 124.136 124.24 126.176 124.24H126.872V127ZM134.665 114.136C139.585 114.136 141.721 115.48 141.721 120.64C141.721 125.824 139.585 127.144 134.665 127.144C129.745 127.144 127.609 125.824 127.609 120.64C127.609 115.48 129.745 114.136 134.665 114.136ZM131.449 120.64C131.449 123.16 132.145 124.384 134.665 124.384C137.185 124.384 137.881 123.16 137.881 120.64C137.881 118.12 137.185 116.896 134.665 116.896C132.145 116.896 131.449 118.12 131.449 120.64ZM153.841 114.28H159.001C160.561 114.28 161.401 115.12 161.401 116.68V125.92C161.401 129.616 159.721 131.248 155.881 131.248H149.497V128.608H155.233C156.457 128.608 157.417 128.248 157.657 127H153.841C149.761 127 148.609 124.48 148.609 120.64C148.609 116.8 149.761 114.28 153.841 114.28ZM157.657 124.24V118C157.657 117.28 157.417 117.04 156.697 117.04H154.945C152.689 117.04 152.449 118.672 152.449 120.64C152.449 122.464 152.713 124.24 154.897 124.24H157.657ZM175.574 127H167.894C163.814 127 163.046 125.272 163.046 120.592C163.046 115.192 164.486 114.136 169.526 114.136C173.726 114.136 176.006 114.808 176.006 119.248C176.006 120.688 175.574 121.888 174.014 121.888H166.838C166.838 123.448 167.342 124.312 169.382 124.312H175.574V127ZM166.838 119.296H171.494C172.166 119.296 172.19 118.84 172.19 118.528C172.19 117.232 170.726 116.824 169.526 116.824C167.726 116.824 166.838 117.424 166.838 119.296ZM185.864 127H183.248C180.488 127 178.52 125.896 178.52 122.776V117.04H176.744V114.28H178.52V110.2H182.264V114.28H185.864V117.04H182.264V121.408C182.264 123.328 183.128 124.24 185.168 124.24H185.864V127ZM195.059 114.28L197.219 122.656C197.243 122.776 197.339 123.04 197.459 123.04C197.603 123.04 197.651 122.8 197.675 122.68L199.787 115.408C200.027 114.544 200.771 114.136 202.043 114.136C203.315 114.136 204.059 114.544 204.323 115.408L206.435 122.68C206.459 122.8 206.531 123.04 206.651 123.04C206.771 123.04 206.867 122.8 206.891 122.656L209.051 114.28H212.651L209.675 125.008C209.315 126.328 208.691 127.144 206.915 127.144C205.139 127.144 204.443 126.424 204.179 125.512L202.235 118.768C202.187 118.624 202.163 118.36 202.043 118.36C201.947 118.36 201.899 118.624 201.851 118.768L199.907 125.512C199.643 126.424 198.947 127.144 197.195 127.144C195.419 127.144 194.771 126.328 194.411 125.008L191.459 114.28H195.059ZM213.563 127V110.2H217.307V114.28H221.027C224.027 114.28 226.139 115.624 226.139 118.864V127H222.395V119.824C222.395 117.904 221.675 117.04 219.755 117.04H217.307V127H213.563ZM228.692 114.28H236.54C239.06 114.28 240.476 115.912 240.476 118.312V124.6C240.476 126.16 239.636 127 238.076 127H230.948C228.668 127 227.804 125.656 227.804 123.016C227.804 120.616 228.668 119.056 230.948 119.056H236.732V118.504C236.732 117.496 236.156 116.968 235.124 116.968H228.692V114.28ZM236.732 121.648H232.724C232.004 121.648 231.596 122.152 231.596 123.04C231.596 123.856 231.932 124.408 232.7 124.408H235.892C236.492 124.408 236.732 124.168 236.732 123.568V121.648ZM250.693 127H248.077C245.317 127 243.349 125.896 243.349 122.776V117.04H241.573V114.28H243.349V110.2H247.093V114.28H250.693V117.04H247.093V121.408C247.093 123.328 247.957 124.24 249.997 124.24H250.693V127ZM271.311 114.28L263.727 131.104H259.935L261.903 126.976L256.047 114.28H259.887L263.655 123.208L267.519 114.28H271.311ZM278.688 114.136C283.608 114.136 285.744 115.48 285.744 120.64C285.744 125.824 283.608 127.144 278.688 127.144C273.768 127.144 271.632 125.824 271.632 120.64C271.632 115.48 273.768 114.136 278.688 114.136ZM275.472 120.64C275.472 123.16 276.168 124.384 278.688 124.384C281.208 124.384 281.904 123.16 281.904 120.64C281.904 118.12 281.208 116.896 278.688 116.896C276.168 116.896 275.472 118.12 275.472 120.64ZM300.159 114.28V124.6C300.159 126.28 299.319 127 297.759 127H292.383C289.383 127 287.391 125.68 287.391 122.44V114.28H291.135V121.48C291.135 123.4 291.879 124.264 293.799 124.264H295.551C296.151 124.264 296.391 124.024 296.391 123.424V114.28H300.159ZM310.277 114.28L312.437 122.656C312.461 122.776 312.557 123.04 312.677 123.04C312.821 123.04 312.869 122.8 312.893 122.68L315.005 115.408C315.245 114.544 315.989 114.136 317.261 114.136C318.533 114.136 319.277 114.544 319.541 115.408L321.653 122.68C321.677 122.8 321.749 123.04 321.869 123.04C321.989 123.04 322.085 122.8 322.109 122.656L324.269 114.28H327.869L324.893 125.008C324.533 126.328 323.909 127.144 322.133 127.144C320.357 127.144 319.661 126.424 319.397 125.512L317.453 118.768C317.405 118.624 317.381 118.36 317.261 118.36C317.165 118.36 317.117 118.624 317.069 118.768L315.125 125.512C314.861 126.424 314.165 127.144 312.413 127.144C310.637 127.144 309.989 126.328 309.629 125.008L306.677 114.28H310.277ZM329.075 114.28H336.923C339.443 114.28 340.859 115.912 340.859 118.312V124.6C340.859 126.16 340.019 127 338.459 127H331.331C329.051 127 328.187 125.656 328.187 123.016C328.187 120.616 329.051 119.056 331.331 119.056H337.115V118.504C337.115 117.496 336.539 116.968 335.507 116.968H329.075V114.28ZM337.115 121.648H333.107C332.387 121.648 331.979 122.152 331.979 123.04C331.979 123.856 332.315 124.408 333.083 124.408H336.275C336.875 124.408 337.115 124.168 337.115 123.568V121.648ZM342.867 127V116.68C342.867 115 343.707 114.28 345.267 114.28H350.451C353.451 114.28 355.443 115.624 355.443 118.864V127H351.699V119.824C351.699 117.904 350.979 117.04 349.059 117.04H347.451C346.851 117.04 346.611 117.28 346.611 117.88V127H342.867ZM365.677 127H363.061C360.301 127 358.333 125.896 358.333 122.776V117.04H356.557V114.28H358.333V110.2H362.077V114.28H365.677V117.04H362.077V121.408C362.077 123.328 362.941 124.24 364.981 124.24H365.677V127ZM372.375 127V114.28H376.119V127H372.375ZM376.119 112.936H372.375V110.2H376.119V112.936ZM378.141 127V116.68C378.141 115 378.981 114.28 380.541 114.28H385.725C388.725 114.28 390.717 115.624 390.717 118.864V127H386.973V119.824C386.973 117.904 386.253 117.04 384.333 117.04H382.725C382.125 117.04 381.885 117.28 381.885 117.88V127H378.141ZM398.872 114.28H406.72C409.24 114.28 410.656 115.912 410.656 118.312V124.6C410.656 126.16 409.816 127 408.256 127H401.128C398.848 127 397.984 125.656 397.984 123.016C397.984 120.616 398.848 119.056 401.128 119.056H406.912V118.504C406.912 117.496 406.336 116.968 405.304 116.968H398.872V114.28ZM406.912 121.648H402.904C402.184 121.648 401.776 122.152 401.776 123.04C401.776 123.856 402.112 124.408 402.88 124.408H406.072C406.672 124.408 406.912 124.168 406.912 123.568V121.648ZM418.266 127V116.68C418.266 115 419.106 114.28 420.666 114.28H425.85C428.85 114.28 430.842 115.624 430.842 118.864V127H427.098V119.824C427.098 117.904 426.378 117.04 424.458 117.04H422.85C422.25 117.04 422.01 117.28 422.01 117.88V127H418.266ZM445.035 127H437.355C433.275 127 432.507 125.272 432.507 120.592C432.507 115.192 433.947 114.136 438.987 114.136C443.187 114.136 445.467 114.808 445.467 119.248C445.467 120.688 445.035 121.888 443.475 121.888H436.299C436.299 123.448 436.803 124.312 438.843 124.312H445.035V127ZM436.299 119.296H440.955C441.627 119.296 441.651 118.84 441.651 118.528C441.651 117.232 440.187 116.824 438.987 116.824C437.187 116.824 436.299 117.424 436.299 119.296ZM451.989 114.28H457.149C458.709 114.28 459.549 115.12 459.549 116.68V125.92C459.549 129.616 457.869 131.248 454.029 131.248H447.645V128.608H453.381C454.605 128.608 455.565 128.248 455.805 127H451.989C447.909 127 446.757 124.48 446.757 120.64C446.757 116.8 447.909 114.28 451.989 114.28ZM455.805 124.24V118C455.805 117.28 455.565 117.04 454.845 117.04H453.093C450.837 117.04 450.597 118.672 450.597 120.64C450.597 122.464 450.861 124.24 453.045 124.24H455.805ZM468.251 114.136C473.171 114.136 475.307 115.48 475.307 120.64C475.307 125.824 473.171 127.144 468.251 127.144C463.331 127.144 461.195 125.824 461.195 120.64C461.195 115.48 463.331 114.136 468.251 114.136ZM465.035 120.64C465.035 123.16 465.731 124.384 468.251 124.384C470.771 124.384 471.467 123.16 471.467 120.64C471.467 118.12 470.771 116.896 468.251 116.896C465.731 116.896 465.035 118.12 465.035 120.64ZM485.161 127H482.545C479.785 127 477.817 125.896 477.817 122.776V117.04H476.041V114.28H477.817V110.2H481.561V114.28H485.161V117.04H481.561V121.408C481.561 123.328 482.425 124.24 484.465 124.24H485.161V127ZM486.258 127V114.28H490.002V127H486.258ZM490.002 112.936H486.258V110.2H490.002V112.936ZM492.552 114.28H500.4C502.92 114.28 504.336 115.912 504.336 118.312V124.6C504.336 126.16 503.496 127 501.936 127H494.808C492.528 127 491.664 125.656 491.664 123.016C491.664 120.616 492.528 119.056 494.808 119.056H500.592V118.504C500.592 117.496 500.016 116.968 498.984 116.968H492.552V114.28ZM500.592 121.648H496.584C495.864 121.648 495.456 122.152 495.456 123.04C495.456 123.856 495.792 124.408 496.56 124.408H499.752C500.352 124.408 500.592 124.168 500.592 123.568V121.648ZM514.552 127H511.936C509.176 127 507.208 125.896 507.208 122.776V117.04H505.432V114.28H507.208V110.2H510.952V114.28H514.552V117.04H510.952V121.408C510.952 123.328 511.816 124.24 513.856 124.24H514.552V127ZM515.649 127V114.28H519.393V127H515.649ZM519.393 112.936H515.649V110.2H519.393V112.936ZM528.11 114.136C533.03 114.136 535.166 115.48 535.166 120.64C535.166 125.824 533.03 127.144 528.11 127.144C523.19 127.144 521.054 125.824 521.054 120.64C521.054 115.48 523.19 114.136 528.11 114.136ZM524.894 120.64C524.894 123.16 525.59 124.384 528.11 124.384C530.63 124.384 531.326 123.16 531.326 120.64C531.326 118.12 530.63 116.896 528.11 116.896C525.59 116.896 524.894 118.12 524.894 120.64ZM536.813 127V116.68C536.813 115 537.653 114.28 539.213 114.28H544.397C547.397 114.28 549.389 115.624 549.389 118.864V127H545.645V119.824C545.645 117.904 544.925 117.04 543.005 117.04H541.397C540.797 117.04 540.557 117.28 540.557 117.88V127H536.813Z" fill="#31E2ED"/>
<path d="M60.16 178.7V182.44C60.16 183.22 60.28 183.48 61.08 183.48H66.16C67.72 183.48 68.2 182.76 68.2 181.1C68.2 179.66 67.82 178.7 66.32 178.7H60.16ZM60.16 173.42V177.18H66.1C67.66 177.18 68 176.46 68 174.78C68 173.42 67.66 172.52 66.24 172.52H61.06C60.4 172.52 60.16 172.72 60.16 173.42ZM68.02 177.94C69.54 178.14 70.12 179.12 70.12 181.18C70.12 183.24 69.56 185 67.08 185H60.28C59.14 185 58.3 184.62 58.3 183.06V172.98C58.3 171.68 58.94 171 60.14 171H66.94C69.06 171 69.94 172.36 69.94 174.8C69.94 176.34 69.54 177.64 68.02 177.86V177.94ZM77.2211 174.28C81.0211 174.28 82.6611 175.66 82.6611 179.66C82.6611 183.68 81.0211 185.12 77.2211 185.12C73.4211 185.12 71.7811 183.68 71.7811 179.66C71.7811 175.66 73.4211 174.28 77.2211 174.28ZM73.5411 179.66C73.5411 182.66 74.5211 183.76 77.2211 183.76C79.9211 183.76 80.9011 182.66 80.9011 179.66C80.9011 176.66 79.9211 175.64 77.2211 175.64C74.5211 175.64 73.5411 176.66 73.5411 179.66ZM89.4281 174.28C93.2281 174.28 94.8681 175.66 94.8681 179.66C94.8681 183.68 93.2281 185.12 89.4281 185.12C85.6281 185.12 83.9881 183.68 83.9881 179.66C83.9881 175.66 85.6281 174.28 89.4281 174.28ZM85.7481 179.66C85.7481 182.66 86.7281 183.76 89.4281 183.76C92.1281 183.76 93.1081 182.66 93.1081 179.66C93.1081 176.66 92.1281 175.64 89.4281 175.64C86.7281 175.64 85.7481 176.66 85.7481 179.66ZM96.2952 185V183.64H102.315C103.195 183.64 103.595 183.18 103.595 182.3C103.595 181.18 102.635 180.98 100.995 180.58L99.0552 180.1C97.0352 179.6 96.1352 178.82 96.1352 177.04C96.1352 175.26 97.1352 174.4 98.9952 174.4H104.735V175.76H99.1752C98.1952 175.76 97.8152 176.1 97.8152 177.04C97.8152 178.22 98.6352 178.5 99.7952 178.8L101.895 179.34C104.035 179.88 105.355 180.26 105.355 182.32C105.355 183.96 104.755 185 102.735 185H96.2952ZM112.05 185H110.79C108.15 185 107.41 183.74 107.41 181.6V175.76H105.85V174.4H107.41V171H109.09V174.4H112.05V175.76H109.09V181.5C109.09 183.14 109.73 183.64 111.35 183.64H112.05V185ZM127.665 174.4L121.345 188.42H119.585L121.205 185L116.605 174.4H118.365L122.065 183.16L125.905 174.4H127.665ZM133.569 174.28C137.369 174.28 139.009 175.66 139.009 179.66C139.009 183.68 137.369 185.12 133.569 185.12C129.769 185.12 128.129 183.68 128.129 179.66C128.129 175.66 129.769 174.28 133.569 174.28ZM129.889 179.66C129.889 182.66 130.869 183.76 133.569 183.76C136.269 183.76 137.249 182.66 137.249 179.66C137.249 176.66 136.269 175.64 133.569 175.64C130.869 175.64 129.889 176.66 129.889 179.66ZM149.796 174.4V183.26C149.796 184.38 149.336 185 148.176 185H144.256C141.956 185 140.676 184 140.676 181.56V174.4H142.356V181.26C142.356 182.7 142.876 183.64 144.476 183.64H147.496C147.896 183.64 148.116 183.5 148.116 182.96V174.4H149.796ZM151.789 185V178.22C151.789 175.6 153.069 174.4 155.689 174.4H156.849V175.76H155.989C154.149 175.76 153.469 176.7 153.469 178.64V185H151.789ZM169.812 185H166.572C163.072 185 162.172 183.1 162.172 179.7C162.172 176.4 163.072 174.4 166.572 174.4H169.752V171H171.432V183.34C171.432 184.38 171.032 185 169.812 185ZM169.752 175.78H166.892C164.352 175.78 163.932 177.2 163.932 179.7C163.932 182.3 164.352 183.64 166.892 183.64H169.052C169.612 183.64 169.752 183.42 169.752 182.88V175.78ZM182.45 185H176.91C173.75 185 173.09 182.94 173.09 179.74C173.09 175.84 174.33 174.28 177.91 174.28C180.73 174.28 182.73 175.2 182.73 178.4C182.73 179.62 182.35 180.26 181.15 180.26H174.83C174.83 181.98 175.13 183.64 177.27 183.64H182.45V185ZM174.83 178.9H180.49C180.89 178.9 180.97 178.6 180.97 178.36V178.28C180.97 176.28 179.71 175.64 177.93 175.64C175.75 175.64 174.83 176.48 174.83 178.9ZM184.387 185V176.14C184.387 175.04 184.847 174.4 186.007 174.4H195.487C197.787 174.4 199.067 175.4 199.067 177.84V185H197.387V178.14C197.387 176.7 196.867 175.76 195.267 175.76H192.567V185H190.887V175.76H186.687C186.287 175.76 186.067 175.9 186.067 176.44V185H184.387ZM201.526 174.4H207.106C208.986 174.4 209.866 175.56 209.866 177.3V183.4C209.866 184.48 209.446 185 208.206 185H203.486C201.546 185 200.726 183.96 200.726 181.76C200.726 179.66 201.546 178.54 203.486 178.54H208.186V177.28C208.186 176.38 207.746 175.76 206.686 175.76H201.526V174.4ZM208.186 179.9H203.806C202.766 179.9 202.486 180.62 202.486 181.76C202.486 182.9 202.766 183.64 203.806 183.64H207.626C208.006 183.64 208.186 183.42 208.186 183.1V179.9ZM211.867 185V176.14C211.867 175.04 212.327 174.4 213.487 174.4H217.287C219.587 174.4 220.867 175.4 220.867 177.84V185H219.187V178.14C219.187 176.7 218.667 175.76 217.067 175.76H214.167C213.767 175.76 213.547 175.9 213.547 176.44V185H211.867ZM230.163 185H226.923C223.423 185 222.523 183.1 222.523 179.7C222.523 176.4 223.423 174.4 226.923 174.4H230.103V171H231.783V183.34C231.783 184.38 231.383 185 230.163 185ZM230.103 175.78H227.243C224.703 175.78 224.283 177.2 224.283 179.7C224.283 182.3 224.703 183.64 227.243 183.64H229.403C229.963 183.64 230.103 183.42 230.103 182.88V175.78ZM233.541 185V183.64H239.561C240.441 183.64 240.841 183.18 240.841 182.3C240.841 181.18 239.881 180.98 238.241 180.58L236.301 180.1C234.281 179.6 233.381 178.82 233.381 177.04C233.381 175.26 234.381 174.4 236.241 174.4H241.981V175.76H236.421C235.441 175.76 235.061 176.1 235.061 177.04C235.061 178.22 235.881 178.5 237.041 178.8L239.141 179.34C241.281 179.88 242.601 180.26 242.601 182.32C242.601 183.96 242.001 185 239.981 185H233.541ZM253.799 185H250.839C249.599 185 248.879 184.62 248.879 183.28V171H250.559V174.4H253.799C257.199 174.4 258.139 176.34 258.139 179.64C258.139 182.94 257.199 185 253.799 185ZM250.559 175.76V182.92C250.559 183.38 250.679 183.64 251.239 183.64H253.499C256.039 183.64 256.379 181.94 256.379 179.64C256.379 177.34 256.039 175.76 253.499 175.76H250.559ZM269.462 174.4L263.142 188.42H261.382L263.002 185L258.402 174.4H260.162L263.862 183.16L267.702 174.4H269.462ZM275.874 185V173.42C275.874 172.82 275.814 172.54 275.314 172.54H273.834V171H276.174C277.174 171 277.734 171.46 277.734 172.56V185H275.874ZM279.971 185V183.48H286.351C287.771 183.48 288.071 182.34 288.071 180.78C288.071 179.52 287.851 178.56 286.331 178.56H282.511C281.131 178.56 279.931 178.18 279.931 176.24V172.62C279.931 171.68 280.491 171 281.591 171H289.511V172.52H282.391C282.011 172.52 281.791 172.7 281.791 173.24V175.76C281.791 176.54 282.011 177.04 282.971 177.04H286.931C289.351 177.04 290.011 178.46 290.011 180.8C290.011 183.1 289.551 185 286.911 185H279.971ZM291.806 180.32V178.8H298.366V180.32H291.806ZM309.686 185H301.326C300.686 185 300.066 184.66 300.066 183.68C300.066 182.94 300.326 182.56 300.766 182.22L307.486 177.24C308.326 176.62 308.466 176.02 308.466 174.88C308.466 173.46 308.306 172.54 306.626 172.54H301.046V171H307.186C309.546 171 310.366 172.12 310.366 174.7C310.366 176.46 310.086 177.38 308.666 178.44L302.466 183.08C302.346 183.18 302.226 183.26 302.226 183.34C302.226 183.44 302.286 183.48 302.406 183.48H309.686V185ZM312.06 180.16V175.74C312.06 171.94 313.92 170.88 317.42 170.88C320.92 170.88 322.78 171.94 322.78 175.74V180.16C322.78 183.96 320.92 185.08 317.42 185.08C313.92 185.08 312.06 183.96 312.06 180.16ZM313.92 175.86V180.06C313.92 182.76 315.04 183.56 317.42 183.56C319.88 183.56 320.92 182.76 320.92 180.06V175.86C320.92 173.16 319.88 172.4 317.42 172.4C315.04 172.4 313.92 173.16 313.92 175.86ZM327.16 185L333.9 171H335.26L328.5 185H327.16ZM327.64 170.88C330.02 170.88 330.62 172.12 330.62 174.24C330.62 176.36 330.02 177.58 327.64 177.58C325.26 177.58 324.68 176.36 324.68 174.24C324.68 172.12 325.26 170.88 327.64 170.88ZM326.1 174.24C326.1 175.46 326.3 176.4 327.64 176.4C328.98 176.4 329.2 175.46 329.2 174.24C329.2 173 328.98 172.06 327.64 172.06C326.3 172.06 326.1 173 326.1 174.24ZM334.68 178.42C337.06 178.42 337.66 179.66 337.66 181.78C337.66 183.9 337.06 185.12 334.68 185.12C332.3 185.12 331.72 183.9 331.72 181.78C331.72 179.66 332.3 178.42 334.68 178.42ZM333.14 181.78C333.14 183 333.34 183.94 334.68 183.94C336.02 183.94 336.24 183 336.24 181.78C336.24 180.54 336.02 179.6 334.68 179.6C333.34 179.6 333.14 180.54 333.14 181.78ZM340.04 185V183H341.8V185H340.04ZM341.78 181.48H340.04L339.96 171H341.88L341.78 181.48ZM355.36 185H353.5V172.52H347.84V171H361.02V172.52H355.36V185ZM362.219 185V171H363.899V174.4H367.539C369.879 174.4 371.219 175.4 371.219 178V185H369.539V178.22C369.539 176.62 368.919 175.76 367.319 175.76H363.899V185H362.219ZM373.235 185V174.4H374.915V185H373.235ZM374.935 172.84H373.215V171H374.935V172.84ZM376.686 185V183.64H382.706C383.586 183.64 383.986 183.18 383.986 182.3C383.986 181.18 383.026 180.98 381.386 180.58L379.446 180.1C377.426 179.6 376.526 178.82 376.526 177.04C376.526 175.26 377.526 174.4 379.386 174.4H385.126V175.76H379.566C378.586 175.76 378.206 176.1 378.206 177.04C378.206 178.22 379.026 178.5 380.186 178.8L382.286 179.34C384.426 179.88 385.746 180.26 385.746 182.32C385.746 183.96 385.146 185 383.126 185H376.686ZM401.043 185H395.503C392.343 185 391.683 182.94 391.683 179.74C391.683 175.84 392.923 174.28 396.503 174.28C399.323 174.28 401.323 175.2 401.323 178.4C401.323 179.62 400.943 180.26 399.743 180.26H393.423C393.423 181.98 393.723 183.64 395.863 183.64H401.043V185ZM393.423 178.9H399.083C399.483 178.9 399.563 178.6 399.563 178.36V178.28C399.563 176.28 398.303 175.64 396.523 175.64C394.343 175.64 393.423 176.48 393.423 178.9ZM411.68 185H409.68L406.72 180.72L403.78 185H401.78L405.78 179.56L402 174.4H403.94L406.72 178.42L409.52 174.4H411.46L407.7 179.56L411.68 185ZM418.143 185H416.883C414.243 185 413.503 183.74 413.503 181.6V175.76H411.943V174.4H413.503V171H415.183V174.4H418.143V175.76H415.183V181.5C415.183 183.14 415.823 183.64 417.443 183.64H418.143V185ZM419.23 185V178.22C419.23 175.6 420.51 174.4 423.13 174.4H424.29V175.76H423.43C421.59 175.76 420.91 176.7 420.91 178.64V185H419.23ZM425.355 174.4H430.935C432.815 174.4 433.695 175.56 433.695 177.3V183.4C433.695 184.48 433.275 185 432.035 185H427.315C425.375 185 424.555 183.96 424.555 181.76C424.555 179.66 425.375 178.54 427.315 178.54H432.015V177.28C432.015 176.38 431.575 175.76 430.515 175.76H425.355V174.4ZM432.015 179.9H427.635C426.595 179.9 426.315 180.62 426.315 181.76C426.315 182.9 426.595 183.64 427.635 183.64H431.455C431.835 183.64 432.015 183.42 432.015 183.1V179.9ZM440.363 185V176.14C440.363 175.04 440.823 174.4 441.983 174.4H451.463C453.763 174.4 455.043 175.4 455.043 177.84V185H453.363V178.14C453.363 176.7 452.843 175.76 451.243 175.76H448.543V185H446.863V175.76H442.663C442.263 175.76 442.043 175.9 442.043 176.44V185H440.363ZM457.503 174.4H463.083C464.963 174.4 465.843 175.56 465.843 177.3V183.4C465.843 184.48 465.423 185 464.183 185H459.463C457.523 185 456.703 183.96 456.703 181.76C456.703 179.66 457.523 178.54 459.463 178.54H464.163V177.28C464.163 176.38 463.723 175.76 462.663 175.76H457.503V174.4ZM464.163 179.9H459.783C458.743 179.9 458.463 180.62 458.463 181.76C458.463 182.9 458.743 183.64 459.783 183.64H463.603C463.983 183.64 464.163 183.42 464.163 183.1V179.9ZM467.844 185V178.22C467.844 175.6 469.124 174.4 471.744 174.4H472.904V175.76H472.044C470.204 175.76 469.524 176.7 469.524 178.64V185H467.844ZM481.008 185H477.568C474.068 185 473.168 183.1 473.168 179.7C473.168 176.4 474.068 174.4 477.568 174.4H480.028C481.688 174.4 482.708 174.64 482.708 176.24V183.98C482.708 186.9 481.648 188.44 478.328 188.44H473.908V187.08H478.328C479.748 187.08 480.848 186.48 481.008 185ZM481.028 183.64V176.48C481.028 176.02 480.808 175.76 480.268 175.76H477.888C475.348 175.76 474.928 177.2 474.928 179.7C474.928 182.3 475.348 183.64 477.888 183.64H481.028ZM484.719 185V174.4H486.399V185H484.719ZM486.419 172.84H484.699V171H486.419V172.84ZM488.41 185V176.14C488.41 175.04 488.87 174.4 490.03 174.4H493.83C496.13 174.4 497.41 175.4 497.41 177.84V185H495.73V178.14C495.73 176.7 495.21 175.76 493.61 175.76H490.71C490.31 175.76 490.09 175.9 490.09 176.44V185H488.41ZM62.92 214H59.96C58.72 214 58 213.62 58 212.28V200H59.68V203.4H62.92C66.32 203.4 67.26 205.34 67.26 208.64C67.26 211.94 66.32 214 62.92 214ZM59.68 204.76V211.92C59.68 212.38 59.8 212.64 60.36 212.64H62.62C65.16 212.64 65.5 210.94 65.5 208.64C65.5 206.34 65.16 204.76 62.62 204.76H59.68ZM77.938 214H72.398C69.238 214 68.578 211.94 68.578 208.74C68.578 204.84 69.818 203.28 73.398 203.28C76.218 203.28 78.218 204.2 78.218 207.4C78.218 208.62 77.838 209.26 76.638 209.26H70.318C70.318 210.98 70.618 212.64 72.758 212.64H77.938V214ZM70.318 207.9H75.978C76.378 207.9 76.458 207.6 76.458 207.36V207.28C76.458 205.28 75.198 204.64 73.418 204.64C71.238 204.64 70.318 205.48 70.318 207.9ZM88.275 214H84.035C80.435 214 79.535 211.98 79.535 208.68C79.535 205.48 80.435 203.4 84.035 203.4H88.055V204.76H84.335C81.695 204.76 81.295 206.28 81.295 208.68C81.295 211.18 81.695 212.64 84.335 212.64H88.275V214ZM94.3109 203.28C98.1109 203.28 99.7509 204.66 99.7509 208.66C99.7509 212.68 98.1109 214.12 94.3109 214.12C90.5109 214.12 88.8709 212.68 88.8709 208.66C88.8709 204.66 90.5109 203.28 94.3109 203.28ZM90.6309 208.66C90.6309 211.66 91.6109 212.76 94.3109 212.76C97.0109 212.76 97.9909 211.66 97.9909 208.66C97.9909 205.66 97.0109 204.64 94.3109 204.64C91.6109 204.64 90.6309 205.66 90.6309 208.66ZM101.418 214V205.14C101.418 204.04 101.878 203.4 103.038 203.4H112.518C114.818 203.4 116.098 204.4 116.098 206.84V214H114.418V207.14C114.418 205.7 113.898 204.76 112.298 204.76H109.598V214H107.918V204.76H103.718C103.318 204.76 103.098 204.9 103.098 205.44V214H101.418ZM127.118 214H121.578C118.418 214 117.758 211.94 117.758 208.74C117.758 204.84 118.998 203.28 122.578 203.28C125.398 203.28 127.398 204.2 127.398 207.4C127.398 208.62 127.018 209.26 125.818 209.26H119.498C119.498 210.98 119.798 212.64 121.938 212.64H127.118V214ZM119.498 207.9H125.158C125.558 207.9 125.638 207.6 125.638 207.36V207.28C125.638 205.28 124.378 204.64 122.598 204.64C120.418 204.64 119.498 205.48 119.498 207.9ZM128.815 214V212.64H134.835C135.715 212.64 136.115 212.18 136.115 211.3C136.115 210.18 135.155 209.98 133.515 209.58L131.575 209.1C129.555 208.6 128.655 207.82 128.655 206.04C128.655 204.26 129.655 203.4 131.515 203.4H137.255V204.76H131.695C130.715 204.76 130.335 205.1 130.335 206.04C130.335 207.22 131.155 207.5 132.315 207.8L134.415 208.34C136.555 208.88 137.875 209.26 137.875 211.32C137.875 212.96 137.275 214 135.255 214H128.815ZM154.012 203.4L147.692 217.42H145.932L147.552 214L142.952 203.4H144.712L148.412 212.16L152.252 203.4H154.012ZM159.916 203.28C163.716 203.28 165.356 204.66 165.356 208.66C165.356 212.68 163.716 214.12 159.916 214.12C156.116 214.12 154.476 212.68 154.476 208.66C154.476 204.66 156.116 203.28 159.916 203.28ZM156.236 208.66C156.236 211.66 157.216 212.76 159.916 212.76C162.616 212.76 163.596 211.66 163.596 208.66C163.596 205.66 162.616 204.64 159.916 204.64C157.216 204.64 156.236 205.66 156.236 208.66ZM176.143 203.4V212.26C176.143 213.38 175.683 214 174.523 214H170.603C168.303 214 167.023 213 167.023 210.56V203.4H168.703V210.26C168.703 211.7 169.223 212.64 170.823 212.64H173.843C174.243 212.64 174.463 212.5 174.463 211.96V203.4H176.143ZM178.137 214V207.22C178.137 204.6 179.417 203.4 182.037 203.4H183.197V204.76H182.337C180.497 204.76 179.817 205.7 179.817 207.64V214H178.137ZM188.859 214V200H190.539V214H188.859ZM201.551 214H196.011C192.851 214 192.191 211.94 192.191 208.74C192.191 204.84 193.431 203.28 197.011 203.28C199.831 203.28 201.831 204.2 201.831 207.4C201.831 208.62 201.451 209.26 200.251 209.26H193.931C193.931 210.98 194.231 212.64 196.371 212.64H201.551V214ZM193.931 207.9H199.591C199.991 207.9 200.071 207.6 200.071 207.36V207.28C200.071 205.28 198.811 204.64 197.031 204.64C194.851 204.64 193.931 205.48 193.931 207.9ZM204.108 203.4L207.308 211.98C207.388 212.2 207.468 212.42 207.588 212.42C207.728 212.42 207.808 212.2 207.888 211.98L211.068 203.4H212.808L208.948 213.2C208.608 214.06 208.088 214.12 207.588 214.12C207.088 214.12 206.568 214.06 206.228 213.2L202.368 203.4H204.108ZM222.704 214H217.164C214.004 214 213.344 211.94 213.344 208.74C213.344 204.84 214.584 203.28 218.164 203.28C220.984 203.28 222.984 204.2 222.984 207.4C222.984 208.62 222.604 209.26 221.404 209.26H215.084C215.084 210.98 215.384 212.64 217.524 212.64H222.704V214ZM215.084 207.9H220.744C221.144 207.9 221.224 207.6 221.224 207.36V207.28C221.224 205.28 219.964 204.64 218.184 204.64C216.004 204.64 215.084 205.48 215.084 207.9ZM224.641 214V207.22C224.641 204.6 225.921 203.4 228.541 203.4H229.701V204.76H228.841C227.001 204.76 226.321 205.7 226.321 207.64V214H224.641ZM230.765 203.4H236.345C238.225 203.4 239.105 204.56 239.105 206.3V212.4C239.105 213.48 238.685 214 237.445 214H232.725C230.785 214 229.965 212.96 229.965 210.76C229.965 208.66 230.785 207.54 232.725 207.54H237.425V206.28C237.425 205.38 236.985 204.76 235.925 204.76H230.765V203.4ZM237.425 208.9H233.045C232.005 208.9 231.725 209.62 231.725 210.76C231.725 211.9 232.005 212.64 233.045 212.64H236.865C237.245 212.64 237.425 212.42 237.425 212.1V208.9ZM248.605 214H245.165C241.665 214 240.765 212.1 240.765 208.7C240.765 205.4 241.665 203.4 245.165 203.4H247.625C249.285 203.4 250.305 203.64 250.305 205.24V212.98C250.305 215.9 249.245 217.44 245.925 217.44H241.505V216.08H245.925C247.345 216.08 248.445 215.48 248.605 214ZM248.625 212.64V205.48C248.625 205.02 248.405 204.76 247.865 204.76H245.485C242.945 204.76 242.525 206.2 242.525 208.7C242.525 211.3 242.945 212.64 245.485 212.64H248.625ZM261.317 214H255.777C252.617 214 251.957 211.94 251.957 208.74C251.957 204.84 253.197 203.28 256.777 203.28C259.597 203.28 261.597 204.2 261.597 207.4C261.597 208.62 261.217 209.26 260.017 209.26H253.697C253.697 210.98 253.997 212.64 256.137 212.64H261.317V214ZM253.697 207.9H259.357C259.757 207.9 259.837 207.6 259.837 207.36V207.28C259.837 205.28 258.577 204.64 256.797 204.64C254.617 204.64 253.697 205.48 253.697 207.9ZM273.202 214H271.942C269.302 214 268.562 212.74 268.562 210.6V204.76H267.002V203.4H268.562V200H270.242V203.4H273.202V204.76H270.242V210.5C270.242 212.14 270.882 212.64 272.502 212.64H273.202V214ZM279.194 203.28C282.994 203.28 284.634 204.66 284.634 208.66C284.634 212.68 282.994 214.12 279.194 214.12C275.394 214.12 273.754 212.68 273.754 208.66C273.754 204.66 275.394 203.28 279.194 203.28ZM275.514 208.66C275.514 211.66 276.494 212.76 279.194 212.76C281.894 212.76 282.874 211.66 282.874 208.66C282.874 205.66 281.894 204.64 279.194 204.64C276.494 204.64 275.514 205.66 275.514 208.66ZM290.729 214V212.64H296.749C297.629 212.64 298.029 212.18 298.029 211.3C298.029 210.18 297.069 209.98 295.429 209.58L293.489 209.1C291.469 208.6 290.569 207.82 290.569 206.04C290.569 204.26 291.569 203.4 293.429 203.4H299.169V204.76H293.609C292.629 204.76 292.249 205.1 292.249 206.04C292.249 207.22 293.069 207.5 294.229 207.8L296.329 208.34C298.469 208.88 299.789 209.26 299.789 211.32C299.789 212.96 299.189 214 297.169 214H290.729ZM310.418 214H304.878C301.718 214 301.058 211.94 301.058 208.74C301.058 204.84 302.298 203.28 305.878 203.28C308.698 203.28 310.698 204.2 310.698 207.4C310.698 208.62 310.318 209.26 309.118 209.26H302.798C302.798 210.98 303.098 212.64 305.238 212.64H310.418V214ZM302.798 207.9H308.458C308.858 207.9 308.938 207.6 308.938 207.36V207.28C308.938 205.28 307.678 204.64 305.898 204.64C303.718 204.64 302.798 205.48 302.798 207.9ZM320.755 214H316.515C312.915 214 312.015 211.98 312.015 208.68C312.015 205.48 312.915 203.4 316.515 203.4H320.535V204.76H316.815C314.175 204.76 313.775 206.28 313.775 208.68C313.775 211.18 314.175 212.64 316.815 212.64H320.755V214ZM331.202 203.4V212.26C331.202 213.38 330.742 214 329.582 214H325.662C323.362 214 322.082 213 322.082 210.56V203.4H323.762V210.26C323.762 211.7 324.282 212.64 325.882 212.64H328.902C329.302 212.64 329.522 212.5 329.522 211.96V203.4H331.202ZM333.195 214V207.22C333.195 204.6 334.475 203.4 337.095 203.4H338.255V204.76H337.395C335.555 204.76 334.875 205.7 334.875 207.64V214H333.195ZM347.879 214H342.339C339.179 214 338.519 211.94 338.519 208.74C338.519 204.84 339.759 203.28 343.339 203.28C346.159 203.28 348.159 204.2 348.159 207.4C348.159 208.62 347.779 209.26 346.579 209.26H340.259C340.259 210.98 340.559 212.64 342.699 212.64H347.879V214ZM340.259 207.9H345.919C346.319 207.9 346.399 207.6 346.399 207.36V207.28C346.399 205.28 345.139 204.64 343.359 204.64C341.179 204.64 340.259 205.48 340.259 207.9ZM354.484 214V205.14C354.484 204.04 354.944 203.4 356.104 203.4H365.584C367.884 203.4 369.164 204.4 369.164 206.84V214H367.484V207.14C367.484 205.7 366.964 204.76 365.364 204.76H362.664V214H360.984V204.76H356.784C356.384 204.76 356.164 204.9 356.164 205.44V214H354.484ZM376.264 203.28C380.064 203.28 381.704 204.66 381.704 208.66C381.704 212.68 380.064 214.12 376.264 214.12C372.464 214.12 370.824 212.68 370.824 208.66C370.824 204.66 372.464 203.28 376.264 203.28ZM372.584 208.66C372.584 211.66 373.564 212.76 376.264 212.76C378.964 212.76 379.944 211.66 379.944 208.66C379.944 205.66 378.964 204.64 376.264 204.64C373.564 204.64 372.584 205.66 372.584 208.66ZM383.371 214V207.22C383.371 204.6 384.651 203.4 387.271 203.4H388.431V204.76H387.571C385.731 204.76 385.051 205.7 385.051 207.64V214H383.371ZM398.055 214H392.515C389.355 214 388.695 211.94 388.695 208.74C388.695 204.84 389.935 203.28 393.515 203.28C396.335 203.28 398.335 204.2 398.335 207.4C398.335 208.62 397.955 209.26 396.755 209.26H390.435C390.435 210.98 390.735 212.64 392.875 212.64H398.055V214ZM390.435 207.9H396.095C396.495 207.9 396.575 207.6 396.575 207.36V207.28C396.575 205.28 395.315 204.64 393.535 204.64C391.355 204.64 390.435 205.48 390.435 207.9ZM411.96 214H408.72C405.22 214 404.32 212.1 404.32 208.7C404.32 205.4 405.22 203.4 408.72 203.4H411.9V200H413.58V212.34C413.58 213.38 413.18 214 411.96 214ZM411.9 204.78H409.04C406.5 204.78 406.08 206.2 406.08 208.7C406.08 211.3 406.5 212.64 409.04 212.64H411.2C411.76 212.64 411.9 212.42 411.9 211.88V204.78ZM424.598 214H419.058C415.898 214 415.238 211.94 415.238 208.74C415.238 204.84 416.478 203.28 420.058 203.28C422.878 203.28 424.878 204.2 424.878 207.4C424.878 208.62 424.498 209.26 423.298 209.26H416.978C416.978 210.98 417.278 212.64 419.418 212.64H424.598V214ZM416.978 207.9H422.638C423.038 207.9 423.118 207.6 423.118 207.36V207.28C423.118 205.28 421.858 204.64 420.078 204.64C417.898 204.64 416.978 205.48 416.978 207.9ZM426.535 214V200H428.215V214H426.535ZM430.227 214V203.4H431.907V214H430.227ZM431.927 201.84H430.207V200H431.927V201.84ZM434.538 203.4L437.738 211.98C437.818 212.2 437.898 212.42 438.018 212.42C438.158 212.42 438.238 212.2 438.318 211.98L441.498 203.4H443.238L439.378 213.2C439.038 214.06 438.518 214.12 438.018 214.12C437.518 214.12 436.998 214.06 436.658 213.2L432.798 203.4H434.538ZM453.133 214H447.593C444.433 214 443.773 211.94 443.773 208.74C443.773 204.84 445.013 203.28 448.593 203.28C451.413 203.28 453.413 204.2 453.413 207.4C453.413 208.62 453.033 209.26 451.833 209.26H445.513C445.513 210.98 445.813 212.64 447.953 212.64H453.133V214ZM445.513 207.9H451.173C451.573 207.9 451.653 207.6 451.653 207.36V207.28C451.653 205.28 450.393 204.64 448.613 204.64C446.433 204.64 445.513 205.48 445.513 207.9ZM455.07 214V207.22C455.07 204.6 456.35 203.4 458.97 203.4H460.13V204.76H459.27C457.43 204.76 456.75 205.7 456.75 207.64V214H455.07ZM461.194 203.4H466.774C468.654 203.4 469.534 204.56 469.534 206.3V212.4C469.534 213.48 469.114 214 467.874 214H463.154C461.214 214 460.394 212.96 460.394 210.76C460.394 208.66 461.214 207.54 463.154 207.54H467.854V206.28C467.854 205.38 467.414 204.76 466.354 204.76H461.194V203.4ZM467.854 208.9H463.474C462.434 208.9 462.154 209.62 462.154 210.76C462.154 211.9 462.434 212.64 463.474 212.64H467.294C467.674 212.64 467.854 212.42 467.854 212.1V208.9ZM476.455 214H473.495C472.255 214 471.535 213.62 471.535 212.28V200H473.215V203.4H476.455C479.855 203.4 480.795 205.34 480.795 208.64C480.795 211.94 479.855 214 476.455 214ZM473.215 204.76V211.92C473.215 212.38 473.335 212.64 473.895 212.64H476.155C478.695 212.64 479.035 210.94 479.035 208.64C479.035 206.34 478.695 204.76 476.155 204.76H473.215ZM482.453 214V200H484.133V214H482.453ZM495.145 214H489.605C486.445 214 485.785 211.94 485.785 208.74C485.785 204.84 487.025 203.28 490.605 203.28C493.425 203.28 495.425 204.2 495.425 207.4C495.425 208.62 495.045 209.26 493.845 209.26H487.525C487.525 210.98 487.825 212.64 489.965 212.64H495.145V214ZM487.525 207.9H493.185C493.585 207.9 493.665 207.6 493.665 207.36V207.28C493.665 205.28 492.405 204.64 490.625 204.64C488.445 204.64 487.525 205.48 487.525 207.9ZM496.842 214V212.64H502.862C503.742 212.64 504.142 212.18 504.142 211.3C504.142 210.18 503.182 209.98 501.542 209.58L499.602 209.1C497.582 208.6 496.682 207.82 496.682 206.04C496.682 204.26 497.682 203.4 499.542 203.4H505.282V204.76H499.722C498.742 204.76 498.362 205.1 498.362 206.04C498.362 207.22 499.182 207.5 500.342 207.8L502.442 208.34C504.582 208.88 505.902 209.26 505.902 211.32C505.902 212.96 505.302 214 503.282 214H496.842ZM514.38 214H512.7V204.76H511.18V203.4H512.7C512.7 200.58 514.62 199.88 517.26 199.88V201.22C515.72 201.22 514.46 201.46 514.38 203.4H517.26V204.76H514.38V214ZM518.254 214V207.22C518.254 204.6 519.534 203.4 522.154 203.4H523.314V204.76H522.454C520.614 204.76 519.934 205.7 519.934 207.64V214H518.254ZM529.018 203.28C532.818 203.28 534.458 204.66 534.458 208.66C534.458 212.68 532.818 214.12 529.018 214.12C525.218 214.12 523.578 212.68 523.578 208.66C523.578 204.66 525.218 203.28 529.018 203.28ZM525.338 208.66C525.338 211.66 526.318 212.76 529.018 212.76C531.718 212.76 532.698 211.66 532.698 208.66C532.698 205.66 531.718 204.64 529.018 204.64C526.318 204.64 525.338 205.66 525.338 208.66ZM536.125 214V205.14C536.125 204.04 536.585 203.4 537.745 203.4H547.225C549.525 203.4 550.805 204.4 550.805 206.84V214H549.125V207.14C549.125 205.7 548.605 204.76 547.005 204.76H544.305V214H542.625V204.76H538.425C538.025 204.76 537.805 204.9 537.805 205.44V214H536.125ZM63.28 243H62.02C59.38 243 58.64 241.74 58.64 239.6V233.76H57.08V232.4H58.64V229H60.32V232.4H63.28V233.76H60.32V239.5C60.32 241.14 60.96 241.64 62.58 241.64H63.28V243ZM64.3672 243V229H66.0472V232.4H69.6872C72.0272 232.4 73.3672 233.4 73.3672 236V243H71.6872V236.22C71.6872 234.62 71.0672 233.76 69.4672 233.76H66.0472V243H64.3672ZM84.3833 243H78.8433C75.6833 243 75.0233 240.94 75.0233 237.74C75.0233 233.84 76.2633 232.28 79.8433 232.28C82.6633 232.28 84.6633 233.2 84.6633 236.4C84.6633 237.62 84.2833 238.26 83.0833 238.26H76.7633C76.7633 239.98 77.0633 241.64 79.2033 241.64H84.3833V243ZM76.7633 236.9H82.4233C82.8233 236.9 82.9033 236.6 82.9033 236.36V236.28C82.9033 234.28 81.6433 233.64 79.8633 233.64C77.6833 233.64 76.7633 234.48 76.7633 236.9ZM96.0883 232.28C99.8883 232.28 101.528 233.66 101.528 237.66C101.528 241.68 99.8883 243.12 96.0883 243.12C92.2883 243.12 90.6483 241.68 90.6483 237.66C90.6483 233.66 92.2883 232.28 96.0883 232.28ZM92.4083 237.66C92.4083 240.66 93.3883 241.76 96.0883 241.76C98.7883 241.76 99.7683 240.66 99.7683 237.66C99.7683 234.66 98.7883 233.64 96.0883 233.64C93.3883 233.64 92.4083 234.66 92.4083 237.66ZM108.475 243H107.215C104.575 243 103.835 241.74 103.835 239.6V233.76H102.275V232.4H103.835V229H105.515V232.4H108.475V233.76H105.515V239.5C105.515 241.14 106.155 241.64 107.775 241.64H108.475V243ZM109.563 243V229H111.243V232.4H114.883C117.223 232.4 118.562 233.4 118.562 236V243H116.883V236.22C116.883 234.62 116.263 233.76 114.663 233.76H111.243V243H109.563ZM129.579 243H124.039C120.879 243 120.219 240.94 120.219 237.74C120.219 233.84 121.459 232.28 125.039 232.28C127.859 232.28 129.859 233.2 129.859 236.4C129.859 237.62 129.479 238.26 128.279 238.26H121.959C121.959 239.98 122.259 241.64 124.399 241.64H129.579V243ZM121.959 236.9H127.619C128.019 236.9 128.099 236.6 128.099 236.36V236.28C128.099 234.28 126.839 233.64 125.059 233.64C122.879 233.64 121.959 234.48 121.959 236.9ZM131.516 243V236.22C131.516 233.6 132.796 232.4 135.416 232.4H136.576V233.76H135.716C133.876 233.76 133.196 234.7 133.196 236.64V243H131.516ZM143.918 243V246.4H142.238V234.06C142.238 232.86 142.938 232.4 143.978 232.4H147.158C150.558 232.4 151.498 234.36 151.498 237.66C151.498 240.96 150.558 243 147.158 243H143.918ZM143.918 234.38V241.64H146.858C149.398 241.64 149.738 239.96 149.738 237.66C149.738 235.36 149.398 233.76 146.858 233.76H144.538C144.138 233.76 143.918 233.9 143.918 234.38ZM153.616 232.4H159.196C161.076 232.4 161.956 233.56 161.956 235.3V241.4C161.956 242.48 161.536 243 160.296 243H155.576C153.636 243 152.816 241.96 152.816 239.76C152.816 237.66 153.636 236.54 155.576 236.54H160.276V235.28C160.276 234.38 159.836 233.76 158.776 233.76H153.616V232.4ZM160.276 237.9H155.896C154.856 237.9 154.576 238.62 154.576 239.76C154.576 240.9 154.856 241.64 155.896 241.64H159.716C160.096 241.64 160.276 241.42 160.276 241.1V237.9ZM163.957 243V236.22C163.957 233.6 165.237 232.4 167.857 232.4H169.017V233.76H168.157C166.317 233.76 165.637 234.7 165.637 236.64V243H163.957ZM176.093 243H174.833C172.193 243 171.453 241.74 171.453 239.6V233.76H169.893V232.4H171.453V229H173.133V232.4H176.093V233.76H173.133V239.5C173.133 241.14 173.773 241.64 175.393 241.64H176.093V243ZM187.84 232.4L181.52 246.42H179.76L181.38 243L176.78 232.4H178.54L182.24 241.16L186.08 232.4H187.84ZM189.025 243V241H190.785V243H189.025ZM190.765 239.48H189.025L188.945 229H190.865L190.765 239.48Z" fill="#DBFDFF"/>
<defs>
<filter id="filter0_d_2098_6846" x="4" y="19" width="602" height="315" filterUnits="userSpaceOnUse" color-interpolation-filters="sRGB">
<feFlood flood-opacity="0" result="BackgroundImageFix"/>
<feColorMatrix in="SourceAlpha" type="matrix" values="0 0 0 0 0 0 0 0 0 0 0 0 0 0 0 0 0 0 127 0" result="hardAlpha"/>
<feMorphology radius="9" operator="dilate" in="SourceAlpha" result="effect1_dropShadow_2098_6846"/>
<feOffset/>
<feGaussianBlur stdDeviation="9.5"/>
<feComposite in2="hardAlpha" operator="out"/>
<feColorMatrix type="matrix" values="0 0 0 0 0.0271007 0 0 0 0 0.929167 0 0 0 0 0.766795 0 0 0 0.14 0"/>
<feBlend mode="normal" in2="BackgroundImageFix" result="effect1_dropShadow_2098_6846"/>
<feBlend mode="normal" in="SourceGraphic" in2="effect1_dropShadow_2098_6846" result="shape"/>
</filter>
<filter id="filter1_f_2098_6846" x="0.324219" y="0.0888672" width="601.902" height="352.897" filterUnits="userSpaceOnUse" color-interpolation-filters="sRGB">
<feFlood flood-opacity="0" result="BackgroundImageFix"/>
<feBlend mode="normal" in="SourceGraphic" in2="BackgroundImageFix" result="shape"/>
<feGaussianBlur stdDeviation="7.5" result="effect1_foregroundBlur_2098_6846"/>
</filter>
<linearGradient id="paint0_linear_2098_6846" x1="-2.63213" y1="39.4082" x2="622.412" y2="457.26" gradientUnits="userSpaceOnUse">
<stop stop-color="#04554E" stop-opacity="0.76"/>
<stop offset="1"/>
</linearGradient>
<linearGradient id="paint1_linear_2098_6846" x1="559.593" y1="67.6492" x2="-46.4196" y2="292.385" gradientUnits="userSpaceOnUse">
<stop stop-color="#07ED47"/>
<stop offset="1" stop-color="#16D5FF" stop-opacity="0.8"/>
</linearGradient>
<linearGradient id="paint2_linear_2098_6846" x1="561" y1="67.6147" x2="-48.0665" y2="291.749" gradientUnits="userSpaceOnUse">
<stop stop-color="#07ED47"/>
<stop offset="1" stop-color="#16D5FF" stop-opacity="0.8"/>
</linearGradient>
</defs>
</svg>
