<svg width="97" height="64" viewBox="0 0 97 64" fill="none" xmlns="http://www.w3.org/2000/svg">
<path d="M22.2582 38.6001L18.633 35.7601L18.8 37.013C21.8405 30.8318 24.8978 24.6338 27.9383 18.4525L29.2748 15.7461L28.3726 16.264C30.3774 16.4645 32.3821 16.6817 34.3869 16.8821C35.7066 17.0158 35.7066 14.9442 34.3869 14.8106C32.3821 14.6101 30.3774 14.3929 28.3726 14.1925C28.0385 14.159 27.6209 14.4096 27.4705 14.7103C24.43 20.8916 21.3728 27.0896 18.3323 33.2709L16.9958 35.9773C16.812 36.3448 16.7786 36.9462 17.1628 37.2302L20.7881 40.0703C21.8238 40.8889 23.3107 39.4187 22.2582 38.6001Z" fill="#31E2ED" fill-opacity="0.61"/>
<path d="M50.8084 49.6418C55.1353 51.4628 59.4455 53.2838 63.7724 55.1047C64.4907 55.4055 65.2091 55.6895 65.9107 56.0069C67.2305 56.6083 68.0658 58.2288 67.3809 59.6989C66.6959 61.1691 64.9919 61.6034 63.5385 61.0187C62.5862 60.6345 61.6507 60.2335 60.6984 59.8493C58.3095 58.8636 55.9205 57.8947 53.5148 56.909C52.2785 56.4078 51.7439 58.4126 52.9635 58.9137C55.2522 59.8493 57.5577 60.8015 59.8464 61.7371C60.8989 62.1714 61.9347 62.6058 62.9872 63.0234C64.7246 63.7084 66.6959 63.4077 68.0993 62.1547C69.8701 60.5509 70.2042 57.761 68.8009 55.8064C68.0658 54.7706 67.0301 54.2694 65.9107 53.785L58.1591 50.5106C55.8871 49.5583 53.615 48.5893 51.343 47.6371C50.8251 47.4199 50.207 47.871 50.0733 48.3555C49.9063 48.9569 50.2905 49.4079 50.7917 49.6251L50.8084 49.6418Z" fill="#31E2ED" fill-opacity="0.61"/>
<path d="M53.7497 42.8599C56.3224 43.9124 58.8952 44.9649 61.4679 46.0341C64.0407 47.1033 66.9308 48.0722 69.5036 49.3252C70.7231 49.9266 71.4415 51.4134 70.9403 52.7666C70.3723 54.337 68.6683 54.905 67.1814 54.3537C65.9285 53.8859 65.3939 55.8907 66.6301 56.3585C69.9045 57.578 73.4964 54.9217 73.1455 51.3967C72.9785 49.7261 71.9427 48.2059 70.4224 47.4875C70.0716 47.3204 69.7041 47.1868 69.3532 47.0364L57.9596 42.3587C56.7401 41.8575 55.5205 41.3563 54.301 40.8552C53.0814 40.354 52.5301 42.3587 53.7497 42.8599Z" fill="#31E2ED" fill-opacity="0.61"/>
<path d="M57.2409 36.0933C59.8136 37.1458 62.3864 38.1983 64.9591 39.2675C67.5319 40.3366 70.422 41.3056 73.0115 42.5586C74.231 43.16 74.9494 44.6468 74.4482 46C73.8802 47.5704 72.1762 48.1384 70.6893 47.5871C69.4364 47.1193 68.9018 49.1241 70.138 49.5919C73.4124 50.8114 77.0043 48.1551 76.6534 44.6301C76.4864 42.9595 75.4506 41.4393 73.9303 40.7209C73.5795 40.5538 73.212 40.4202 72.8611 40.2698C69.0521 38.7162 65.2598 37.1458 61.4508 35.5921C60.2313 35.0909 59.0117 34.5897 57.7922 34.0886C56.5727 33.5874 56.0214 35.5921 57.2409 36.0933Z" fill="#31E2ED" fill-opacity="0.61"/>
<path d="M50.2251 24.8667C58.5782 28.3249 66.9312 31.783 75.2843 35.2579C75.7688 35.4584 76.3034 35.6254 76.7377 35.9429C79.4775 37.9142 76.9549 41.7566 73.9812 40.7208C72.7283 40.2698 72.177 42.2745 73.4299 42.7256C78.1578 44.3795 82.2007 38.4488 78.5754 34.8068C77.406 33.6207 75.3511 33.0694 73.8476 32.4513C67.8668 29.9788 61.9027 27.5063 55.9219 25.017L50.7764 22.8787C49.5401 22.3608 49.0055 24.3655 50.2251 24.8834V24.8667Z" fill="#31E2ED" fill-opacity="0.61"/>
<path d="M24.0627 46.9183C23.2608 46.1666 22.9266 45.1475 23.1605 44.1785C23.3276 43.4936 23.6784 43.0592 24.1963 42.5246L25.8502 40.7538C26.318 40.2526 26.6855 39.8015 27.2535 39.5008C27.454 39.4006 27.6378 39.3338 27.9218 39.2669C28.1056 39.2335 28.3729 39.2001 28.6736 39.2168C28.8573 39.2168 29.0745 39.2669 29.3585 39.3505C29.6091 39.434 29.8263 39.5342 30.1103 39.7347C30.4945 40.002 30.8788 40.4865 31.0458 40.9375C31.0458 40.971 31.1127 41.1547 31.1461 41.255C31.1461 41.2884 31.2296 41.6726 31.2129 41.539C31.2296 41.6893 31.2463 41.8397 31.2463 41.99C31.2463 42.0569 31.2296 42.391 31.2463 42.2907C31.2129 42.5246 31.096 42.9423 31.0625 43.0425C30.9623 43.2931 30.7785 43.5771 30.6449 43.7275C30.5112 43.8945 30.3442 44.0616 30.1938 44.2119L28.59 45.9828C28.3896 46.2 28.2058 46.4172 28.0053 46.6176C27.855 46.768 27.7213 46.935 27.5543 47.052C27.4373 47.1355 27.0197 47.3694 26.9194 47.4028C26.7524 47.4529 26.602 47.5031 26.4349 47.5365C26.4182 47.5365 26.1843 47.5866 26.3013 47.5699C26.3681 47.5699 26.1008 47.5699 26.1008 47.5699C25.7166 47.5866 25.5662 47.5699 25.2488 47.5031C24.898 47.4195 24.781 47.3694 24.4803 47.2023C24.1128 46.9852 23.8455 46.6009 23.3276 46.6009C21.9911 46.6009 21.9911 48.6725 23.3276 48.6725L22.5925 48.3718C23.8121 49.441 25.4159 49.892 27.0197 49.5078C28.1223 49.2572 28.9743 48.589 29.726 47.7704L31.5303 45.7823C32.2487 44.9971 32.9002 44.2119 33.1675 43.1595C33.5518 41.5724 33.1341 39.9018 32.0482 38.6822C30.9623 37.4627 29.2583 36.9448 27.6545 37.1954C25.5996 37.5128 24.2966 39.3338 22.9601 40.7705C22.1916 41.5891 21.4732 42.3743 21.1725 43.4936C20.7047 45.231 21.256 47.1355 22.5758 48.3551C23.5615 49.2572 25.0149 47.8038 24.046 46.8849L24.0627 46.9183Z" fill="#31E2ED" fill-opacity="0.61"/>
<path d="M29.959 51.7464C29.1571 50.9946 28.823 49.9755 29.0569 49.0066C29.224 48.3216 29.5748 47.8873 30.0927 47.3527L31.7466 45.5818C32.2144 45.0806 32.5819 44.6296 33.1499 44.3289C33.3838 44.2119 33.6511 44.1284 33.9852 44.0616C33.885 44.0783 34.2191 44.0449 34.2859 44.0449C34.3694 44.0449 34.4363 44.0449 34.5198 44.0449C34.5198 44.0449 34.8539 44.0783 34.7036 44.0449C35.3718 44.1284 35.8563 44.379 36.3074 44.8133L36.0066 44.0783C36.0066 44.5126 36.3575 44.8301 36.5412 45.0639C36.6916 45.2477 36.8921 45.6319 36.9422 45.7489C36.9923 45.8658 37.0257 45.9995 37.0591 46.1331C37.0758 46.2 37.0925 46.2835 37.1093 46.3503C37.1427 46.5341 37.1093 46.2334 37.1093 46.4171C37.1093 46.5508 37.126 46.6844 37.126 46.8181C37.126 46.9016 37.126 46.9684 37.126 47.052C37.1093 47.4028 37.1427 46.9851 37.126 47.1689C36.9923 47.9875 36.6415 48.4219 36.0902 49.04L34.4864 50.8109C34.0353 51.312 33.6177 51.8132 33.0831 52.1139C32.1141 52.6318 30.8444 52.5149 29.959 51.7631C29.5414 51.3956 28.9065 51.3455 28.4889 51.7631C28.1213 52.1306 28.0712 52.8657 28.4889 53.2332C29.7084 54.2857 31.2788 54.7368 32.8659 54.386C33.9685 54.1521 34.8539 53.5005 35.589 52.6819L37.3598 50.7273C38.0448 49.9755 38.6796 49.2405 38.997 48.2548C39.5316 46.5508 39.0138 44.6463 37.7775 43.3933L38.0782 44.1284C38.0782 43.2096 36.7751 42.5747 36.0234 42.3074C35.2716 42.0401 34.4697 41.9733 33.6845 42.0735C32.4817 42.2406 31.496 42.8587 30.6774 43.7274L28.7562 45.7656C28.0545 46.5174 27.403 47.2692 27.1023 48.2715C26.5677 50.0257 27.1357 51.997 28.4722 53.25C29.4578 54.1521 30.9113 52.6986 29.9423 51.7798L29.959 51.7464Z" fill="#31E2ED" fill-opacity="0.61"/>
<path d="M36.5585 55.7396C36.1408 55.3554 35.8568 54.9544 35.7065 54.4533C35.6229 54.1526 35.6062 54.069 35.5895 53.8351C35.5728 53.5177 35.5895 53.2337 35.6396 53.0499C35.79 52.3483 36.1408 51.9139 36.6587 51.3626L38.2792 49.6252C38.6802 49.1908 39.0811 48.7063 39.5322 48.439C40.4176 47.9044 41.4868 47.8877 42.3889 48.439C43.3412 49.0071 43.7755 49.9927 43.7087 51.0452C43.7087 51.0452 43.692 51.2457 43.7087 51.112C43.7087 51.1621 43.692 51.229 43.6753 51.2791C43.6419 51.4294 43.6085 51.5798 43.5584 51.7302C43.4915 51.9306 43.3746 52.1812 43.1908 52.4151C43.1073 52.5321 42.9068 52.7492 42.7565 52.9163L41.2028 54.6203C40.6849 55.1883 40.2171 55.7897 39.599 56.1072C38.6467 56.5916 37.3938 56.4747 36.5251 55.7229C36.1074 55.3554 35.4726 55.3053 35.0549 55.7229C34.6874 56.0905 34.6373 56.8255 35.0549 57.1931C36.2745 58.2623 37.8783 58.7133 39.4821 58.3291C40.5847 58.0785 41.4367 57.4102 42.1885 56.5916L43.9927 54.6036C44.7111 53.8184 45.3626 53.0332 45.6299 51.9807C46.0142 50.3937 45.5965 48.7231 44.5106 47.5035C43.4247 46.284 41.7207 45.7661 40.1169 46.0167C38.062 46.3341 36.759 48.155 35.4225 49.5918C34.654 50.4104 33.9356 51.1956 33.6349 52.3149C33.1671 54.0523 33.7184 55.9568 35.0382 57.1764C36.0239 58.0785 37.4773 56.6251 36.5084 55.7062L36.5585 55.7396Z" fill="#31E2ED" fill-opacity="0.61"/>
<path d="M43.7586 59.1482C43.7586 59.1482 43.5916 58.9978 43.5248 58.9143C43.4913 58.8809 43.3076 58.647 43.4078 58.7973C43.2575 58.5969 43.1405 58.3797 43.0236 58.1625C42.9567 57.9787 43.0069 58.1291 43.0236 58.1625C43.0236 58.1124 42.9902 58.079 42.9734 58.0289C42.94 57.9286 42.9066 57.8284 42.8732 57.7282C42.8398 57.6112 42.8231 57.4943 42.8064 57.3773C42.8064 57.3773 42.8064 57.5444 42.8064 57.4274C42.8064 57.3606 42.8064 57.2771 42.8064 57.2103C42.8064 56.9931 42.8064 56.7926 42.8231 56.5754C42.7897 56.7926 42.8398 56.5253 42.8565 56.4418C42.8899 56.3081 42.9233 56.1745 42.9734 56.0408C42.9734 55.9907 43.0069 55.9573 43.0236 55.9072C42.9567 56.0408 43.0737 55.7568 43.0236 55.9072C43.0737 55.8069 43.1238 55.7067 43.1739 55.6232C43.224 55.5396 43.2909 55.4394 43.3577 55.3392C43.4412 55.2055 43.2575 55.4394 43.3577 55.3225C43.4078 55.2556 43.4579 55.2055 43.5248 55.1387C43.8589 54.7879 44.2264 54.4537 44.5772 54.1029C44.6274 54.0528 44.6775 54.0027 44.7276 53.9526C44.7944 53.9024 44.8445 53.8356 44.9114 53.7855C44.9448 53.7521 44.9782 53.7187 45.0283 53.6853C44.9114 53.7855 45.0283 53.6853 45.0784 53.6519C45.2622 53.5349 45.446 53.418 45.6464 53.3344C45.4961 53.3846 45.7968 53.2676 45.6464 53.3344C45.6966 53.3344 45.73 53.301 45.7801 53.2843C45.9137 53.2342 46.0474 53.2008 46.181 53.1841C46.2479 53.1841 46.5152 53.134 46.3147 53.1507C46.4149 53.1507 46.5319 53.134 46.6321 53.134C46.7323 53.134 46.8493 53.134 46.9495 53.134C47.0163 53.134 47.0665 53.134 47.1333 53.134C46.9829 53.134 47.0832 53.134 47.1667 53.134C47.3839 53.1674 47.5843 53.2342 47.7848 53.301C47.9018 53.3344 47.7681 53.301 47.7514 53.301C47.8015 53.3344 47.8683 53.3511 47.9185 53.3846C48.0354 53.4347 48.1356 53.5015 48.2359 53.5683C48.286 53.6017 48.3361 53.6351 48.3862 53.6686C48.3528 53.6519 48.2526 53.5516 48.4029 53.6686C48.4865 53.7354 48.57 53.8189 48.6535 53.9024C48.7371 53.986 48.8039 54.0695 48.8874 54.153C48.7705 54.0194 48.971 54.27 49.0044 54.3201C49.0712 54.4203 49.138 54.5373 49.1881 54.6375C49.2215 54.6876 49.2884 54.8881 49.2383 54.721C49.3218 54.9549 49.3886 55.1888 49.4387 55.4227C49.4387 55.4728 49.4387 55.6232 49.4387 55.4227C49.4387 55.4728 49.4387 55.5062 49.4387 55.5564C49.4387 55.6566 49.4387 55.7735 49.4387 55.8738C49.4387 55.9907 49.4387 56.1244 49.422 56.2413C49.422 56.2246 49.4554 56.0742 49.422 56.1912C49.4053 56.258 49.3886 56.3415 49.3719 56.4084C49.3552 56.5086 49.3218 56.6088 49.2884 56.7258C49.2717 56.7759 49.1714 57.0432 49.2383 56.8594C49.138 57.0933 49.0044 57.2938 48.8707 57.511C48.971 57.3773 48.8039 57.5945 48.7538 57.6446C48.7037 57.6947 48.687 57.7282 48.6368 57.7616C48.57 57.8284 48.5032 57.9119 48.4197 57.9787L47.8015 58.6303C47.8015 58.6303 47.6846 58.7472 47.6345 58.7973C47.5509 58.8976 47.4507 58.9811 47.3672 59.0646C47.317 59.1148 47.2669 59.1482 47.2168 59.1816C47.3338 59.0813 47.2168 59.1816 47.1667 59.215C47.0665 59.2818 46.9662 59.3486 46.8493 59.4155C46.7992 59.4489 46.4483 59.5992 46.6488 59.5157C46.4149 59.5992 46.1977 59.6661 45.9471 59.7162C45.7467 59.7329 45.897 59.7162 45.9471 59.7162C45.8803 59.7162 45.8302 59.7162 45.7634 59.7162C45.6297 59.7162 45.4961 59.7162 45.3624 59.7162C45.3123 59.7162 45.2789 59.7162 45.2288 59.7162C44.9448 59.7162 45.3457 59.7496 45.1954 59.7162C45.0617 59.6828 44.9281 59.6661 44.7944 59.6327C44.6775 59.5992 44.5605 59.5658 44.4436 59.5157C44.2765 59.4322 44.4102 59.5157 44.4436 59.5157C44.3935 59.4823 44.3266 59.4656 44.2765 59.4322C44.1596 59.3654 44.0259 59.2985 43.909 59.215C43.8756 59.1816 43.8255 59.1649 43.792 59.1315C43.9591 59.2484 43.7085 59.0646 43.7085 59.0479L44.0092 59.783C44.0092 59.2484 43.5248 58.7138 42.9734 58.7472C42.4221 58.7806 41.9377 59.1983 41.9377 59.783C41.9377 60.5348 42.8231 61.036 43.4412 61.32C44.0593 61.604 44.6608 61.7543 45.329 61.7877C46.582 61.8546 47.8182 61.3868 48.7538 60.5682C49.2383 60.1505 49.6559 59.6494 50.0903 59.1983C50.9256 58.3129 51.4101 57.227 51.4936 56.0241C51.6606 53.3846 49.539 51.1626 46.9495 50.9789C45.6798 50.8786 44.4269 51.3631 43.4746 52.1817C43.0069 52.5827 42.5725 53.0504 42.1214 53.4848C40.1668 55.406 40.2336 58.6804 42.2551 60.5181C42.6727 60.9023 43.3076 60.919 43.7252 60.5181C44.1095 60.1338 44.1429 59.4322 43.7252 59.0479L43.7586 59.1482Z" fill="#31E2ED" fill-opacity="0.61"/>
<path d="M44.9282 22.7447C41.5369 24.1647 38.1623 25.6181 34.7542 27.0048C33.9189 27.3389 33.0836 27.5895 32.1982 27.2721C29.5586 26.3031 30.1099 23.1623 32.2149 22.0764C33.1504 21.592 34.1528 21.2244 35.1217 20.8068L47.8351 15.2603C49.038 14.7424 50.3744 14.3081 51.4938 13.6565C51.4938 13.6565 50.8088 13.6565 51.5439 13.7735C52.3291 13.9071 53.2312 13.8403 54.0331 13.8737C58.2096 14.0408 62.3862 14.2078 66.5627 14.3916L65.6606 13.8737C69.7034 19.37 73.7463 24.8664 77.7892 30.3627L77.9563 29.1097L76.1353 31.0476C75.2165 32.0166 76.6866 33.4867 77.6055 32.5178L79.4264 30.5799C79.7104 30.2792 79.8608 29.6944 79.5935 29.3269C76.1687 24.6659 72.744 20.0216 69.3192 15.3606C68.4505 14.1911 67.682 12.4036 66.1116 12.3033C62.9542 12.1196 59.7967 12.0528 56.6392 11.9191L52.1787 11.7353C51.5439 11.7019 51.0761 11.6685 50.458 11.8857C48.1525 12.7043 45.9139 13.857 43.6753 14.8427C40.4009 16.2627 37.1265 17.6994 33.8521 19.1195C31.4464 20.1719 28.7901 21.024 28.3725 24.0645C28.0216 26.6038 29.7925 28.9761 32.2984 29.4271C33.8187 29.7111 35.0716 29.1097 36.4248 28.5417C39.4486 27.2721 42.4557 26.0191 45.4795 24.7494C46.6991 24.2482 46.1645 22.2435 44.9282 22.7447Z" fill="#31E2ED" fill-opacity="0.61"/>
<path d="M68.1501 9.94848C71.6584 14.5928 75.1666 19.2538 78.6749 23.8981C80.379 26.1534 82.0663 28.4088 83.7703 30.6641C84.5054 31.6331 85.324 32.4684 86.6438 32.4517C87.9636 32.435 89.0662 31.3992 90.0852 30.6975L94.6627 27.5735C95.9491 26.688 97.2188 25.7525 96.9682 23.9482C96.8512 23.0795 96.35 22.4781 95.8489 21.8098L93.5935 18.7192C89.5506 13.1895 85.5078 7.64303 81.4649 2.1133C80.7632 1.16105 80.0783 0.208797 78.7752 0.0751482C77.1881 -0.108619 75.8015 1.19446 74.5652 2.01306L69.6536 5.28747C67.9997 6.39007 66.9639 8.01057 68.1501 9.94848C68.835 11.0845 70.6393 10.0487 69.9376 8.89599C69.1524 7.60962 71.0068 6.87455 71.8588 6.28983L76.1523 3.43308C76.9208 2.91519 78.2239 1.64553 79.1427 2.41401C79.5103 2.73143 79.7943 3.29943 80.0783 3.68368L91.0709 18.7693C92.2403 20.3731 93.6102 21.9435 94.6293 23.6308C95.3477 24.8337 94.3453 25.268 93.5267 25.8193L89.4838 28.5925C88.7989 29.0603 87.5626 30.3133 86.6438 30.3634C85.9421 30.3968 85.5746 29.6283 85.2238 29.1605L80.4625 22.8456C76.9542 18.2013 73.4459 13.5403 69.9376 8.89599C69.1524 7.84351 67.3482 8.87929 68.1501 9.94848Z" fill="#31E2ED" fill-opacity="0.61"/>
<path d="M14.423 36.4261C17.0458 31.1302 19.6854 25.8344 22.3083 20.5385C23.5278 18.0827 24.7808 15.6269 25.9669 13.1544C26.5015 12.0685 26.8356 10.9492 26.2008 9.79646C25.566 8.64374 24.1626 8.12585 23.0935 7.54113L18.1818 4.81803C16.8286 4.06625 15.4086 3.43142 13.9552 4.4672C13.2869 4.95168 12.9695 5.67004 12.602 6.3717L10.8479 9.76305C7.69039 15.8775 4.53293 21.9919 1.37547 28.1064C0.84087 29.1422 0.356391 30.1445 0.774045 31.3474C1.29194 32.8175 2.96255 33.4357 4.21551 34.154L9.57818 37.2112C11.3323 38.2136 13.1867 38.2971 14.4063 36.4093C15.1246 35.29 13.3371 34.2375 12.6187 35.3569C11.8168 36.6098 10.046 35.0896 9.19394 34.6051L4.80023 32.0992C3.98163 31.6314 2.42795 31.1135 2.76208 29.9274C2.89573 29.4429 3.26326 28.9417 3.49715 28.5073L12.1175 11.8513C12.9862 10.164 13.7213 8.15926 14.8239 6.60559C15.5757 5.53639 16.3943 6.18793 17.2296 6.65571L21.5398 9.04468C22.2247 9.42893 24.1292 10.0638 24.4467 10.9325C24.6471 11.4838 24.1459 12.1687 23.9121 12.6365C22.7426 15.0088 21.5565 17.381 20.3871 19.7533C17.7976 24.9656 15.2249 30.1612 12.6354 35.3736C12.0507 36.5597 13.8383 37.6122 14.423 36.4261Z" fill="#31E2ED" fill-opacity="0.61"/>
</svg>
