<svg width="76" height="107" viewBox="0 0 76 107" fill="none" xmlns="http://www.w3.org/2000/svg">
<path d="M74.1237 73.7625V98.1337C74.1237 99.1047 74.182 100.095 74.1237 101.066C73.9684 103.455 72.2012 104.853 69.9097 104.911C67.5211 104.969 65.1132 104.911 62.7052 104.911H7.94277C5.18523 104.911 2.00047 104.756 1.84512 101.027C1.78686 99.629 1.84512 98.2308 1.84512 96.8326V7.17376C1.84512 4.51332 2.56363 1.94997 5.90375 1.85288C14.4288 1.60043 22.9927 1.85288 31.5372 1.85288H34.1394C35.3046 1.85288 35.3046 0.027463 34.1394 0.027463H8.73896C7.72916 0.00804373 6.69994 -0.0113756 5.69014 0.00804373C2.52479 0.163398 0.155638 2.51313 0.019703 5.67848C-0.0191356 6.94073 0.019703 8.20298 0.019703 9.44582V93.8809C0.019703 96.0558 0.019703 98.2308 0.019703 100.406C0.0391223 103.843 2.15582 106.601 5.76781 106.717C12.4092 106.931 19.0894 106.717 25.7308 106.717H68.2785C71.5409 106.717 74.9587 106.096 75.7938 102.251C76.0268 101.144 75.9297 99.9203 75.9297 98.794V73.7625C75.9297 72.5973 74.1043 72.5973 74.1043 73.7625H74.1237Z" fill="#31E2ED" fill-opacity="0.61"/>
<path d="M9.03012 19.4465H26.0026C27.1677 19.4465 27.1677 17.6211 26.0026 17.6211H9.03012C7.86496 17.6211 7.86496 19.4465 9.03012 19.4465Z" fill="#31E2ED" fill-opacity="0.61"/>
<path d="M9.03012 31.0989H59.5591C60.7243 31.0989 60.7243 29.2734 59.5591 29.2734H9.03012C7.86496 29.2734 7.86496 31.0989 9.03012 31.0989Z" fill="#31E2ED" fill-opacity="0.61"/>
<path d="M9.03012 42.7492H67.6569C68.8221 42.7492 68.8221 40.9238 67.6569 40.9238H9.03012C7.86496 40.9238 7.86496 42.7492 9.03012 42.7492Z" fill="#31E2ED" fill-opacity="0.61"/>
<path d="M9.03012 54.2844H67.6569C68.8221 54.2844 68.8221 52.459 67.6569 52.459H9.03012C7.86496 52.459 7.86496 54.2844 9.03012 54.2844Z" fill="#31E2ED" fill-opacity="0.61"/>
<path d="M9.03012 65.801H46.7812C47.9464 65.801 47.9464 63.9756 46.7812 63.9756H9.03012C7.86496 63.9756 7.86496 65.801 9.03012 65.801Z" fill="#31E2ED" fill-opacity="0.61"/>
<path d="M9.03012 77.841H66.8413C68.0065 77.841 68.0065 76.0156 66.8413 76.0156H9.03012C7.86496 76.0156 7.86496 77.841 9.03012 77.841Z" fill="#31E2ED" fill-opacity="0.61"/>
<path d="M9.03012 89.8791H66.8413C68.0065 89.8791 68.0065 88.0537 66.8413 88.0537H9.03012C7.86496 88.0537 7.86496 89.8791 9.03012 89.8791Z" fill="#31E2ED" fill-opacity="0.61"/>
<path d="M1.84547 33.0594V8.6882C1.84547 7.71723 1.78722 6.72685 1.84547 5.75588C2.00083 3.36731 3.76798 1.96912 6.05946 1.91087C8.44803 1.85261 10.856 1.91087 13.264 1.91087H68.0264C70.7839 1.91087 73.9687 2.06622 74.1241 5.79472C74.1823 7.19291 74.1241 8.5911 74.1241 9.98929V99.6481C74.1241 102.309 73.4056 104.872 70.0654 104.969C61.5404 105.221 52.9765 104.969 44.432 104.969H41.8298C40.6646 104.969 40.6646 106.794 41.8298 106.794H67.2108C68.2206 106.794 69.2498 106.833 70.2596 106.794C73.425 106.659 75.7941 104.309 75.9301 101.124C75.9883 99.8812 75.9301 98.6189 75.9301 97.3567V12.9216C75.9301 10.7466 75.9301 8.57168 75.9301 6.39672C75.9106 2.95951 73.7939 0.201968 70.1819 0.0854521C63.5406 -0.108741 56.8603 0.104871 50.2189 0.104871H7.67126C4.40882 0.104871 0.991026 0.726288 0.155996 4.57131C-0.0770352 5.67821 0.0200612 6.90162 0.0200612 8.02794V33.0594C0.0200612 34.2246 1.84547 34.2246 1.84547 33.0594Z" fill="#31E2ED" fill-opacity="0.61"/>
</svg>
