<svg width="107" height="106" viewBox="0 0 107 106" fill="none" xmlns="http://www.w3.org/2000/svg">
<path d="M11.1497 38.6929C10.505 38.6929 9.97404 38.181 9.95508 37.5362C9.95508 37.2139 9.74649 30.1409 15.4352 26.1967C13.4442 24.4522 12.2495 21.8923 12.2495 19.1806C12.2495 14.0418 16.4212 9.87012 21.5601 9.87012C26.6989 9.87012 30.8706 14.0418 30.8706 19.1806C30.8706 21.8923 29.6949 24.4332 27.7039 26.1778C33.4305 30.1219 33.2409 37.2139 33.2219 37.5362C33.203 38.1999 32.6341 38.674 31.9894 38.674C31.3257 38.655 30.8137 38.1051 30.8327 37.4414C30.8327 37.157 31.0033 30.2736 25.0112 27.3534C24.8026 27.2586 24.632 27.1069 24.5182 26.9173C24.3475 26.6329 24.2906 26.2915 24.3665 25.9692C24.4423 25.6468 24.6509 25.3624 24.9354 25.2107C27.116 23.9971 28.4813 21.6647 28.4813 19.1617C28.4813 15.3502 25.3715 12.2404 21.5601 12.2404C17.7486 12.2404 14.6388 15.3502 14.6388 19.1617C14.6388 21.6837 16.0041 24.0161 18.2227 25.2296C18.6209 25.4382 18.8484 25.8554 18.8484 26.3105C18.8484 26.7656 18.583 27.1638 18.1658 27.3534C12.1737 30.2547 12.3254 37.138 12.3443 37.4414C12.3633 38.1051 11.8513 38.655 11.1876 38.674H11.1497V38.6929Z" fill="#31E2ED" fill-opacity="0.61"/>
<path d="M36.73 42.6186H6.10576C5.44208 42.6186 4.91113 42.0877 4.91113 41.424V7.72783C4.91113 7.06415 5.44208 6.5332 6.10576 6.5332H36.749C37.4127 6.5332 37.9436 7.06415 37.9436 7.72783V41.405C37.9436 42.0687 37.4127 42.5997 36.749 42.5997L36.73 42.6186ZM7.28143 40.2294H35.5354V8.92246H7.30039V40.2104L7.28143 40.2294Z" fill="#31E2ED" fill-opacity="0.61"/>
<path d="M20.6124 62.7938H6.65606C5.99237 62.7938 5.46143 62.2629 5.46143 61.5992V47.6429C5.46143 46.9792 5.99237 46.4482 6.65606 46.4482H20.6124C21.2761 46.4482 21.807 46.9792 21.807 47.6429C21.807 48.3066 21.2761 48.8375 20.6124 48.8375H7.85069V60.4046H19.4177V57.5412C19.4177 56.8776 19.9487 56.3466 20.6124 56.3466C21.2761 56.3466 21.807 56.8776 21.807 57.5412V61.6181C21.807 62.2818 21.2761 62.8128 20.6124 62.8128V62.7938Z" fill="#31E2ED" fill-opacity="0.61"/>
<path d="M14.298 58.9649C13.9946 58.9649 13.6912 58.8511 13.4447 58.6235L8.91267 54.0915C8.43861 53.6175 8.43861 52.859 8.91267 52.4039C9.38673 51.9488 10.1452 51.9298 10.6003 52.4039L14.317 56.1205L22.9448 48.3839C23.4379 47.9477 24.1964 47.9856 24.6325 48.4787C25.0686 48.9717 25.0307 49.7302 24.5377 50.1663L15.0754 58.6615C14.8479 58.8701 14.5635 58.9649 14.279 58.9649H14.298Z" fill="#31E2ED" fill-opacity="0.61"/>
<path d="M20.6124 80.5624H6.65606C5.99237 80.5624 5.46143 80.0314 5.46143 79.3677V65.4114C5.46143 64.7477 5.99237 64.2168 6.65606 64.2168H20.6124C21.2761 64.2168 21.807 64.7477 21.807 65.4114C21.807 66.0751 21.2761 66.6061 20.6124 66.6061H7.85069V78.1731H19.4177V75.3098C19.4177 74.6461 19.9487 74.1152 20.6124 74.1152C21.2761 74.1152 21.807 74.6461 21.807 75.3098V79.3867C21.807 80.0504 21.2761 80.5813 20.6124 80.5813V80.5624Z" fill="#31E2ED" fill-opacity="0.61"/>
<path d="M14.298 76.7139C13.9946 76.7139 13.6912 76.6001 13.4447 76.3726L8.91267 71.8406C8.43861 71.3665 8.43861 70.608 8.91267 70.1529C9.38673 69.6978 10.1452 69.6788 10.6003 70.1529L14.317 73.8695L22.9448 66.1329C23.4379 65.6967 24.1964 65.7347 24.6325 66.2277C25.0686 66.7207 25.0307 67.4792 24.5377 67.9154L15.0754 76.4105C14.8479 76.6191 14.5635 76.7139 14.279 76.7139H14.298Z" fill="#31E2ED" fill-opacity="0.61"/>
<path d="M20.6124 98.8983H6.65606C5.99237 98.8983 5.46143 98.3674 5.46143 97.7037V83.7474C5.46143 83.0837 5.99237 82.5527 6.65606 82.5527H20.6124C21.2761 82.5527 21.807 83.0837 21.807 83.7474C21.807 84.4111 21.2761 84.942 20.6124 84.942H7.85069V96.5091H19.4177V93.6457C19.4177 92.982 19.9487 92.4511 20.6124 92.4511C21.2761 92.4511 21.807 92.982 21.807 93.6457V97.7037C21.807 98.3674 21.2761 98.8983 20.6124 98.8983Z" fill="#31E2ED" fill-opacity="0.61"/>
<path d="M14.298 95.0498C13.9946 95.0498 13.6912 94.9361 13.4447 94.7085L8.91267 90.1765C8.43861 89.7024 8.43861 88.9439 8.91267 88.4888C9.38673 88.0337 10.1452 88.0148 10.6003 88.4888L14.317 92.2055L22.9448 84.4688C23.4379 84.0327 24.1964 84.0706 24.6325 84.5636C25.0686 85.0567 25.0307 85.8151 24.5377 86.2513L15.0754 94.7464C14.8479 94.955 14.5635 95.0498 14.279 95.0498H14.298Z" fill="#31E2ED" fill-opacity="0.61"/>
<path d="M48.4677 52.7828H27.4764C26.8127 52.7828 26.2817 52.2519 26.2817 51.5882C26.2817 50.9245 26.8127 50.3936 27.4764 50.3936H48.4677C49.1314 50.3936 49.6624 50.9245 49.6624 51.5882C49.6624 52.2519 49.1314 52.7828 48.4677 52.7828Z" fill="#31E2ED" fill-opacity="0.61"/>
<path d="M48.1454 58.8316H27.4764C26.8127 58.8316 26.2817 58.3007 26.2817 57.637C26.2817 56.9733 26.8127 56.4424 27.4764 56.4424H48.1454C48.809 56.4424 49.34 56.9733 49.34 57.637C49.34 58.3007 48.809 58.8316 48.1454 58.8316Z" fill="#31E2ED" fill-opacity="0.61"/>
<path d="M59.3516 70.5504H27.7981C27.1345 70.5504 26.6035 70.0194 26.6035 69.3558C26.6035 68.6921 27.1345 68.1611 27.7981 68.1611H59.3516C60.0152 68.1611 60.5462 68.6921 60.5462 69.3558C60.5462 70.0194 60.0152 70.5504 59.3516 70.5504Z" fill="#31E2ED" fill-opacity="0.61"/>
<path d="M48.4671 76.6002H27.7981C27.1345 76.6002 26.6035 76.0692 26.6035 75.4056C26.6035 74.7419 27.1345 74.2109 27.7981 74.2109H48.4671C49.1308 74.2109 49.6618 74.7419 49.6618 75.4056C49.6618 76.0692 49.1308 76.6002 48.4671 76.6002Z" fill="#31E2ED" fill-opacity="0.61"/>
<path d="M60.5849 90.8024H29.0125C28.3488 90.8024 27.8179 90.2714 27.8179 89.6077C27.8179 88.944 28.3488 88.4131 29.0125 88.4131H60.5659C61.2296 88.4131 61.7605 88.944 61.7605 89.6077C61.7605 90.2714 61.2296 90.8024 60.5659 90.8024H60.5849Z" fill="#31E2ED" fill-opacity="0.61"/>
<path d="M49.6815 96.8512H29.0125C28.3488 96.8512 27.8179 96.3202 27.8179 95.6565C27.8179 94.9929 28.3488 94.4619 29.0125 94.4619H49.6815C50.3452 94.4619 50.8761 94.9929 50.8761 95.6565C50.8761 96.3202 50.3452 96.8512 49.6815 96.8512Z" fill="#31E2ED" fill-opacity="0.61"/>
<path d="M70.2746 60.4629C69.9712 60.4629 69.6678 60.3491 69.4213 60.1216L56.7354 47.4357C56.2614 46.9617 56.2614 46.2032 56.7354 45.7481L92.2709 10.2315C92.745 9.75746 93.5035 9.75746 93.9586 10.2315L106.644 22.9174C107.118 23.3914 107.118 24.1499 106.644 24.605L71.1279 60.1216C70.9003 60.3491 70.5969 60.4629 70.2746 60.4629ZM59.2764 46.5824L70.2746 57.5806L104.103 23.7517L93.1053 12.7535L59.2764 46.5824Z" fill="#31E2ED" fill-opacity="0.61"/>
<path d="M98.377 32.3796C98.0547 32.3796 97.7513 32.2468 97.5237 32.0383L84.8379 19.3524C84.6104 19.1249 84.4966 18.8215 84.4966 18.4991C84.4966 18.1768 84.6293 17.8734 84.8379 17.6458L92.2522 10.2315C92.7263 9.75746 93.4848 9.75746 93.9398 10.2315L106.626 22.9174C107.1 23.3914 107.1 24.1499 106.626 24.605L99.2114 32.0193C98.9838 32.2468 98.6804 32.3606 98.3581 32.3606L98.377 32.3796ZM87.3789 18.4991L98.377 29.4973L104.104 23.7707L93.1055 12.7725L87.3789 18.4991Z" fill="#31E2ED" fill-opacity="0.61"/>
<path d="M66.672 56.86C66.3686 56.86 66.0652 56.7462 65.8187 56.5187L60.2627 50.9627C60.0352 50.7351 59.9214 50.4317 59.9214 50.1094C59.9214 49.787 60.0541 49.4836 60.2627 49.2561L88.365 21.1538C88.5925 20.9263 88.8959 20.8125 89.2183 20.8125C89.5406 20.8125 89.844 20.9452 90.0716 21.1538L95.6276 26.7098C96.1016 27.1839 96.1016 27.9424 95.6276 28.3975L67.5253 56.4997C67.2978 56.7273 66.9944 56.841 66.672 56.841V56.86ZM62.8037 50.1094L66.672 53.9777L93.0866 27.5631L89.2183 23.6948L62.8037 50.1094Z" fill="#31E2ED" fill-opacity="0.61"/>
<path d="M102.093 28.6629C101.79 28.6629 101.486 28.5491 101.24 28.3216L88.5538 15.6357C88.0797 15.1617 88.0797 14.4032 88.5538 13.9481C89.0278 13.493 89.7863 13.474 90.2414 13.9481L102.927 26.6339C103.401 27.108 103.401 27.8665 102.927 28.3216C102.7 28.5491 102.396 28.6629 102.074 28.6629H102.093Z" fill="#31E2ED" fill-opacity="0.61"/>
<path d="M55.2184 65.9236C54.915 65.9236 54.5927 65.8099 54.3651 65.5823L51.6345 62.8517C51.3122 62.5294 51.1984 62.0553 51.3501 61.6381L56.451 46.2407C56.6596 45.6149 57.3232 45.2736 57.968 45.4822C58.5937 45.6908 58.935 46.3734 58.7265 46.9992L53.8531 61.695L55.5218 63.3637L69.8574 58.187C70.4642 57.9594 71.1658 58.2818 71.3933 58.9076C71.6209 59.5333 71.2985 60.216 70.6728 60.4435L55.6166 65.8857C55.4839 65.9426 55.3512 65.9616 55.2184 65.9616V65.9236Z" fill="#31E2ED" fill-opacity="0.61"/>
<path d="M62.7472 63.1944C62.6334 63.1944 62.5196 63.1944 62.4059 63.1375L53.0574 60.369C52.4316 60.1794 52.0714 59.5157 52.242 58.8899C52.4127 58.2642 53.0953 57.9039 53.7211 58.0745L63.0695 60.8431C63.6953 61.0327 64.0556 61.6964 63.8849 62.3221C63.7332 62.8341 63.2592 63.1754 62.7472 63.1754V63.1944Z" fill="#31E2ED" fill-opacity="0.61"/>
<path d="M69.5351 105.214H1.19463C0.530947 105.214 0 104.683 0 104.019V2.11553C0 1.45185 0.530947 0.920898 1.19463 0.920898H69.5351C70.1987 0.920898 70.7297 1.45185 70.7297 2.11553V29.3455C70.7297 30.0092 70.1987 30.5401 69.5351 30.5401C68.8714 30.5401 68.3404 30.0092 68.3404 29.3455V3.31016H2.38926V102.825H68.3404V63.9139C68.3404 63.2503 68.8714 62.7193 69.5351 62.7193C70.1987 62.7193 70.7297 63.2503 70.7297 63.9139V104.019C70.7297 104.683 70.1987 105.214 69.5351 105.214Z" fill="#31E2ED" fill-opacity="0.61"/>
<path d="M64.4905 28.663C63.8268 28.663 63.2959 28.1321 63.2959 27.4684V6.05986C63.2959 5.39618 63.8268 4.86523 64.4905 4.86523C65.1542 4.86523 65.6852 5.39618 65.6852 6.05986V27.4684C65.6852 28.1321 65.1542 28.663 64.4905 28.663Z" fill="#31E2ED" fill-opacity="0.61"/>
<path d="M60.0726 26.5965C59.4089 26.5965 58.8779 26.0656 58.8779 25.4019V18.2151C58.8779 17.5515 59.4089 17.0205 60.0726 17.0205C60.7362 17.0205 61.2672 17.5515 61.2672 18.2151V25.4019C61.2672 26.0656 60.7362 26.5965 60.0726 26.5965Z" fill="#31E2ED" fill-opacity="0.61"/>
</svg>
