<svg width="112" height="100" viewBox="0 0 112 100" fill="none" xmlns="http://www.w3.org/2000/svg">
<path d="M61.8935 98.3826C61.4249 98.3826 61.0284 98.0042 61.0103 97.5356C61.0103 97.3553 60.5057 79.3862 75.3928 71.0775C69.8237 67.4008 66.4353 61.1468 66.4353 54.4061C66.4353 43.3759 75.4108 34.4004 86.441 34.4004C97.4712 34.4004 106.447 43.3759 106.447 54.4061C106.447 61.1287 103.076 67.3648 97.5433 71.0595C112.503 79.3502 111.998 97.3553 111.998 97.5536C111.98 98.0402 111.583 98.4908 111.079 98.4007C110.592 98.4007 110.214 97.9681 110.232 97.4815C110.232 97.3013 110.718 79.3502 95.4166 71.9426C95.2724 71.8706 95.1642 71.7804 95.0741 71.6543C94.9299 71.456 94.8759 71.1677 94.9299 70.9334C94.984 70.6991 95.1282 70.4648 95.3445 70.3386C101.112 67.1305 104.68 61.0206 104.68 54.4241C104.68 44.3672 96.498 36.1847 86.441 36.1847C76.3841 36.1847 68.2016 44.3672 68.2016 54.4241C68.2016 61.0747 71.8062 67.1845 77.6277 70.3927C77.9161 70.5549 78.0963 70.8613 78.0783 71.1857C78.0783 71.5101 77.88 71.8165 77.5736 71.9607C62.29 79.3682 62.7586 97.3193 62.7586 97.4995C62.7586 97.9861 62.3981 98.4007 61.9115 98.4187C61.9115 98.4187 61.8935 98.4187 61.8755 98.4187L61.8935 98.3826Z" fill="#31E2ED" fill-opacity="0.61"/>
<path d="M76.9431 55.1823C78.466 55.1823 79.7006 53.4232 79.7006 51.2533C79.7006 49.0833 78.466 47.3242 76.9431 47.3242C75.4201 47.3242 74.1855 49.0833 74.1855 51.2533C74.1855 53.4232 75.4201 55.1823 76.9431 55.1823Z" fill="#31E2ED" fill-opacity="0.61"/>
<path d="M91.5954 55.1823C93.1184 55.1823 94.353 53.4232 94.353 51.2533C94.353 49.0833 93.1184 47.3242 91.5954 47.3242C90.0725 47.3242 88.8379 49.0833 88.8379 51.2533C88.8379 53.4232 90.0725 55.1823 91.5954 55.1823Z" fill="#31E2ED" fill-opacity="0.61"/>
<path d="M50.1064 99.1937C50.1064 99.1937 50.0884 99.1937 50.0704 99.1937C49.5838 99.1937 49.2053 98.7612 49.2233 98.2745C49.2233 98.0943 49.7099 80.1432 34.4082 72.7357C34.1018 72.5915 33.9216 72.2851 33.9036 71.9607C33.9036 71.6363 34.0658 71.3299 34.3542 71.1677C40.1757 67.9596 43.7803 61.8497 43.7803 55.1992C43.7803 45.1422 35.5978 36.9597 25.5408 36.9597C15.4839 36.9597 7.3014 45.1422 7.3014 55.1992C7.3014 61.7956 10.888 67.9055 16.6374 71.1136C16.8537 71.2398 16.9979 71.438 17.07 71.6723C17.142 71.9066 17.088 72.159 16.9618 72.3572C16.8717 72.5014 16.7275 72.6636 16.5653 72.7357C1.28166 80.1613 1.76829 98.0943 1.76829 98.2926C1.76829 98.7792 1.40782 99.1937 0.921198 99.2117C0.434572 99.3019 0.0200392 98.8513 0.00201603 98.3647C0.00201603 98.1844 -0.502632 80.1613 14.4566 71.8706C8.92348 68.1939 5.55315 61.9398 5.55315 55.2352C5.55315 44.205 14.5287 35.2295 25.5589 35.2295C36.589 35.2295 45.5646 44.205 45.5646 55.2352C45.5646 61.9759 42.1582 68.2299 36.6071 71.9066C51.5122 80.2153 51.0076 98.1664 50.9896 98.3647C50.9715 98.8333 50.575 99.2117 50.1064 99.2117V99.1937Z" fill="#31E2ED" fill-opacity="0.61"/>
<path d="M35.0564 55.9938C36.5793 55.9938 37.8139 54.2347 37.8139 52.0648C37.8139 49.8948 36.5793 48.1357 35.0564 48.1357C33.5334 48.1357 32.2988 49.8948 32.2988 52.0648C32.2988 54.2347 33.5334 55.9938 35.0564 55.9938Z" fill="#31E2ED" fill-opacity="0.61"/>
<path d="M20.404 55.9938C21.927 55.9938 23.1616 54.2347 23.1616 52.0648C23.1616 49.8948 21.927 48.1357 20.404 48.1357C18.8811 48.1357 17.6465 49.8948 17.6465 52.0648C17.6465 54.2347 18.8811 55.9938 20.404 55.9938Z" fill="#31E2ED" fill-opacity="0.61"/>
<path d="M34.318 76.2506H20.8187C20.3321 76.2506 19.9355 75.8541 19.9355 75.3675C19.9355 74.8809 20.3321 74.4844 20.8187 74.4844H34.318C34.8047 74.4844 35.2012 74.8809 35.2012 75.3675C35.2012 75.8541 34.8047 76.2506 34.318 76.2506Z" fill="#31E2ED" fill-opacity="0.61"/>
<path d="M27.5775 80.6839C27.5775 80.6839 27.5414 80.6839 27.5234 80.6839C27.253 80.6839 27.0187 80.5397 26.8565 80.3234L23.6124 75.8897C23.324 75.4932 23.4141 74.9345 23.8106 74.6641C24.2071 74.3757 24.7478 74.4659 25.0362 74.8624L27.6496 78.431L30.9838 74.7903C31.3083 74.4298 31.867 74.4118 32.2274 74.7362C32.5879 75.0606 32.6059 75.6193 32.2815 75.9798L28.2263 80.4135C28.0641 80.5937 27.8298 80.7019 27.5775 80.7019V80.6839Z" fill="#31E2ED" fill-opacity="0.61"/>
<path d="M27.5773 98.6547C27.2889 98.6547 27.0366 98.5285 26.8564 98.2942L22.3325 92.0763C22.1523 91.842 22.1163 91.5175 22.2244 91.2472L26.7482 79.4961C27.0186 78.8112 28.136 78.8112 28.4063 79.4961L32.9302 91.2472C33.0383 91.5356 33.0023 91.842 32.822 92.0763L28.2982 98.2942C28.136 98.5285 27.8657 98.6547 27.5773 98.6547ZM24.0447 91.4274L27.5773 96.2756L31.1098 91.4274L27.5773 82.2716L24.0447 91.4274Z" fill="#31E2ED" fill-opacity="0.61"/>
<path d="M48.7191 50.0993C48.4848 50.0993 48.2685 50.0091 48.0883 49.8289C47.7819 49.5225 47.7459 49.0539 47.9982 48.6934L60.9028 30.454H57.3702C54.6668 30.454 52.4499 28.2552 52.4499 25.5517V4.98726C52.4499 2.28379 54.6487 0.0849609 57.3702 0.0849609H96.4985C99.202 0.0849609 101.419 2.28379 101.419 4.98726V25.5517C101.419 28.2552 99.22 30.454 96.4985 30.454H77.8265L49.1877 49.919C49.0435 50.0272 48.8633 50.0812 48.6831 50.0812L48.7191 50.0993ZM57.3702 1.85123C55.64 1.85123 54.2162 3.25704 54.2162 4.98726V25.5517C54.2162 27.2819 55.622 28.6877 57.3702 28.6877H62.615C62.9394 28.6877 63.2458 28.868 63.408 29.1744C63.5702 29.4807 63.5342 29.8232 63.3359 30.0935L52.2697 45.7196L77.0876 28.8499C77.2318 28.7418 77.412 28.6877 77.5922 28.6877H96.5346C98.2648 28.6877 99.6886 27.2819 99.6886 25.5517V4.98726C99.6886 3.25704 98.2828 1.85123 96.5346 1.85123H57.4063H57.3702Z" fill="#31E2ED" fill-opacity="0.61"/>
<path d="M43.3481 36.8876C43.1679 36.8876 42.9876 36.8335 42.8434 36.7254L32.6784 29.5341H12.2221C9.51861 29.5341 7.30176 27.3353 7.30176 24.6318V13.061C7.30176 10.3575 9.50058 8.14062 12.2221 8.14062H42.9336C45.637 8.14062 47.8359 10.3395 47.8359 13.061V24.6318C47.8359 27.0289 46.1237 29.0115 43.8527 29.462L44.2132 35.9684C44.2312 36.3108 44.051 36.6353 43.7626 36.7975C43.6365 36.8696 43.4743 36.9056 43.3301 36.9056L43.3481 36.8876ZM12.2221 9.9069C10.4919 9.9069 9.06803 11.3127 9.06803 13.061V24.6318C9.06803 26.362 10.4738 27.7679 12.2221 27.7679H32.9487C33.129 27.7679 33.3092 27.8219 33.4534 27.9301L42.3568 34.2202L42.0504 28.687C42.0504 28.4527 42.1225 28.2004 42.2847 28.0382C42.4469 27.858 42.6812 27.7679 42.9336 27.7679C44.6638 27.7679 46.0696 26.362 46.0696 24.6318V13.061C46.0696 11.3307 44.6638 9.9069 42.9336 9.9069H12.2221Z" fill="#31E2ED" fill-opacity="0.61"/>
<path d="M40.0137 14.1794H13.033C12.5464 14.1794 12.1499 13.7828 12.1499 13.2962C12.1499 12.8096 12.5464 12.4131 13.033 12.4131H40.0137C40.5004 12.4131 40.8969 12.8096 40.8969 13.2962C40.8969 13.7828 40.5004 14.1794 40.0137 14.1794Z" fill="#31E2ED" fill-opacity="0.61"/>
<path d="M40.0137 19.3688H13.033C12.5464 19.3688 12.1499 18.9723 12.1499 18.4857C12.1499 17.999 12.5464 17.6025 13.033 17.6025H40.0137C40.5004 17.6025 40.8969 17.999 40.8969 18.4857C40.8969 18.9723 40.5004 19.3688 40.0137 19.3688Z" fill="#31E2ED" fill-opacity="0.61"/>
<path d="M25.3248 24.7409H13.033C12.5464 24.7409 12.1499 24.3444 12.1499 23.8577C12.1499 23.3711 12.5464 22.9746 13.033 22.9746H25.3248C25.8115 22.9746 26.208 23.3711 26.208 23.8577C26.208 24.3444 25.8115 24.7409 25.3248 24.7409Z" fill="#31E2ED" fill-opacity="0.61"/>
<path d="M97.4712 10.5202H70.4906C70.0039 10.5202 69.6074 10.1237 69.6074 9.63704C69.6074 9.15042 70.0039 8.75391 70.4906 8.75391H97.4712C97.9579 8.75391 98.3544 9.15042 98.3544 9.63704C98.3544 10.1237 97.9579 10.5202 97.4712 10.5202Z" fill="#31E2ED" fill-opacity="0.61"/>
<path d="M97.4712 15.7292H70.4906C70.0039 15.7292 69.6074 15.3327 69.6074 14.846C69.6074 14.3594 70.0039 13.9629 70.4906 13.9629H97.4712C97.9579 13.9629 98.3544 14.3594 98.3544 14.846C98.3544 15.3327 97.9579 15.7292 97.4712 15.7292Z" fill="#31E2ED" fill-opacity="0.61"/>
<path d="M82.7824 21.0817H70.4906C70.0039 21.0817 69.6074 20.6852 69.6074 20.1986C69.6074 19.7119 70.0039 19.3154 70.4906 19.3154H82.7824C83.269 19.3154 83.6655 19.7119 83.6655 20.1986C83.6655 20.6852 83.269 21.0817 82.7824 21.0817Z" fill="#31E2ED" fill-opacity="0.61"/>
<path d="M61.9113 17.4048V16.792C61.9113 15.9089 62.0375 15.188 62.3078 14.6292C62.5782 14.0705 63.0828 13.4577 63.8218 12.8269C64.8491 11.9618 65.4799 11.313 65.7503 10.8804C66.0206 10.4479 66.1468 9.9252 66.1468 9.29438C66.1468 8.51939 65.8944 7.94265 65.4078 7.51009C64.9212 7.09556 64.2003 6.87928 63.2811 6.87928C62.6863 6.87928 62.1096 6.95137 61.5509 7.09556C60.9921 7.23974 60.3433 7.49207 59.6044 7.85253L58.9375 6.32056C60.3613 5.58161 61.8392 5.20312 63.3892 5.20312C64.8311 5.20312 65.9485 5.56359 66.7415 6.26649C67.5345 6.9694 67.9311 7.96067 67.9311 9.25834C67.9311 9.79903 67.859 10.2857 67.7148 10.7002C67.5706 11.1147 67.3543 11.5112 67.0659 11.8897C66.7776 12.2682 66.1648 12.863 65.2096 13.692C64.4526 14.3409 63.9479 14.8816 63.7136 15.2961C63.4613 15.7287 63.3532 16.3054 63.3532 17.0083V17.3868H61.8933L61.9113 17.4048ZM61.3526 20.7571C61.3526 19.7298 61.8032 19.2252 62.7043 19.2252C63.1369 19.2252 63.4793 19.3513 63.7136 19.6217C63.9479 19.892 64.0741 20.2705 64.0741 20.7571C64.0741 21.2437 63.9479 21.6042 63.7136 21.8746C63.4793 22.1449 63.1369 22.2711 62.7043 22.2711C62.3078 22.2711 61.9834 22.1449 61.7311 21.9106C61.4788 21.6763 61.3526 21.2798 61.3526 20.7391V20.7571Z" fill="#31E2ED" fill-opacity="0.61"/>
</svg>
