<svg width="379" height="280" viewBox="0 0 379 280" fill="none" xmlns="http://www.w3.org/2000/svg">
<path opacity="0.27" d="M371.401 20.334H7.60156V249.774H371.401V20.334Z" fill="#4D4D4D"/>
<path d="M185.357 142.162C184.717 142.162 184.078 141.988 183.507 141.659C182.343 140.989 181.648 139.786 181.648 138.442V123.9C181.648 122.556 182.343 121.353 183.507 120.683C184.078 120.354 184.717 120.18 185.355 120.18C185.997 120.18 186.638 120.355 187.212 120.687L199.768 127.957C200.928 128.629 201.62 129.83 201.62 131.171C201.62 132.512 200.928 133.713 199.768 134.385L187.212 141.655C186.639 141.987 185.999 142.162 185.359 142.162H185.357Z" fill="#0D0A15"/>
<path d="M373.565 279.426H5.43491C2.43805 279.426 0 276.989 0 273.993V5.43238C0 2.43667 2.43805 0 5.43491 0H373.565C376.562 0 379 2.43667 379 5.43238V273.993C379 276.989 376.562 279.426 373.565 279.426ZM5.43491 0.936332C2.95498 0.936332 0.936864 2.9533 0.936864 5.43238V273.993C0.936864 276.472 2.95498 278.489 5.43491 278.489H373.565C376.045 278.489 378.063 276.472 378.063 273.993V5.43238C378.063 2.9533 376.045 0.936332 373.565 0.936332H5.43491Z" fill="black"/>
<path d="M344.651 13.9534C346.47 13.9534 347.943 12.4804 347.943 10.6632C347.943 8.84611 346.47 7.37305 344.651 7.37305C342.833 7.37305 341.359 8.84611 341.359 10.6632C341.359 12.4804 342.833 13.9534 344.651 13.9534Z" stroke="black" stroke-width="3.46619" stroke-miterlimit="10"/>
<path d="M355.136 13.9534C356.954 13.9534 358.428 12.4804 358.428 10.6632C358.428 8.84611 356.954 7.37305 355.136 7.37305C353.318 7.37305 351.844 8.84611 351.844 10.6632C351.844 12.4804 353.318 13.9534 355.136 13.9534Z" stroke="black" stroke-width="3.46619" stroke-miterlimit="10"/>
<path d="M365.62 13.9534C367.438 13.9534 368.912 12.4804 368.912 10.6632C368.912 8.84611 367.438 7.37305 365.62 7.37305C363.802 7.37305 362.328 8.84611 362.328 10.6632C362.328 12.4804 363.802 13.9534 365.62 13.9534Z" stroke="black" stroke-width="3.46619" stroke-miterlimit="10"/>
<path d="M365.621 263.819H12.4917C11.2451 263.819 10.2344 262.809 10.2344 261.563C10.2344 260.317 11.2451 259.307 12.4917 259.307H365.621C366.868 259.307 367.878 260.317 367.878 261.563C367.878 262.809 366.868 263.819 365.621 263.819Z" fill="#00C1AE"/>
<path d="M191.637 261.978H12.4948C12.2644 261.978 12.0781 261.792 12.0781 261.561C12.0781 261.331 12.2644 261.145 12.4948 261.145H191.637C191.868 261.145 192.054 261.331 192.054 261.561C192.054 261.792 191.868 261.978 191.637 261.978Z" fill="black"/>
<g opacity="0.27">
<path d="M371.963 250.337H7.03516V19.7695H371.963V250.337ZM8.1638 249.209H370.835V20.8975H8.1638V249.209Z" fill="#999999"/>
</g>
</svg>
