<svg width="53" height="44" viewBox="0 0 53 44" fill="none" xmlns="http://www.w3.org/2000/svg">
<path d="M0.4 27.82V15.76C0.4 3.76 5.32 0.579999 17.32 0.579999C29.32 0.579999 34.24 3.76 34.24 15.76V27.82C34.24 39.82 29.32 43.3 17.32 43.3C5.32 43.3 0.4 39.82 0.4 27.82ZM8.32 16.12V27.52C8.32 34.72 10.78 37 17.32 37C24.28 37 26.32 34.72 26.32 27.52V16.12C26.32 8.92 24.28 6.88 17.32 6.88C10.78 6.88 8.32 8.92 8.32 16.12ZM44.3852 43V10.18C44.3852 8.38 44.2652 7.3 42.4052 7.3H37.7852V0.999997H46.8452C50.4452 0.999997 52.3052 2.68 52.3052 6.28V43H44.3852Z" fill="#BAFFF7" fill-opacity="0.4"/>
<path d="M-2 49H55.9052V52H-2V49Z" fill="#BAFFF7" fill-opacity="0.4"/>
</svg>
