<svg width="71" height="44" viewBox="0 0 71 44" fill="none" xmlns="http://www.w3.org/2000/svg">
<path d="M0.4 27.82V15.76C0.4 3.76 5.32 0.579999 17.32 0.579999C29.32 0.579999 34.24 3.76 34.24 15.76V27.82C34.24 39.82 29.32 43.3 17.32 43.3C5.32 43.3 0.4 39.82 0.4 27.82ZM8.32 16.12V27.52C8.32 34.72 10.78 37 17.32 37C24.28 37 26.32 34.72 26.32 27.52V16.12C26.32 8.92 24.28 6.88 17.32 6.88C10.78 6.88 8.32 8.92 8.32 16.12ZM42.2814 43C41.5014 43 37.8414 42.94 37.8414 37.96C37.8414 34.6 39.1614 33.34 40.4214 32.44L59.8614 19.12C62.4414 17.32 62.5614 15.46 62.5614 13.06C62.5614 8.98 61.6014 7.3 57.4014 7.3H40.6614V0.999997H61.0614C68.0214 0.999997 70.6014 4.54 70.6014 12.16C70.6014 17.92 69.7014 20.62 65.0814 23.86L48.1614 35.62C47.9814 35.8 47.5014 36.04 47.5014 36.34C47.5014 36.52 47.5614 36.7 47.9814 36.7H68.8614V43H42.2814Z" fill="#BAFFF7" fill-opacity="0.4"/>
<path d="M-2 49H73.0014V52H-2V49Z" fill="#BAFFF7" fill-opacity="0.4"/>
</svg>
