<svg width="72" height="44" viewBox="0 0 72 44" fill="none" xmlns="http://www.w3.org/2000/svg">
<path d="M0.4 27.82V15.76C0.4 3.76 5.32 0.579999 17.32 0.579999C29.32 0.579999 34.24 3.76 34.24 15.76V27.82C34.24 39.82 29.32 43.3 17.32 43.3C5.32 43.3 0.4 39.82 0.4 27.82ZM8.32 16.12V27.52C8.32 34.72 10.78 37 17.32 37C24.28 37 26.32 34.72 26.32 27.52V16.12C26.32 8.92 24.28 6.88 17.32 6.88C10.78 6.88 8.32 8.92 8.32 16.12ZM39.0133 43V36.7H55.8733C60.7933 36.7 63.1933 36.58 63.1933 31C63.1933 27.46 62.5333 24.94 57.4933 24.94H40.0933V18.64H57.0133C61.5133 18.64 62.5933 16.9 62.5933 12.88C62.5933 9.76 62.0533 7.3 57.6733 7.3H39.7333V0.999997H60.7933C68.2333 0.999997 70.7533 4.72 70.7533 12.04C70.7533 15.88 70.0933 20.8 64.4533 21.52V21.76C69.9733 22.06 71.3533 26.68 71.3533 31.42C71.3533 37.9 69.6133 43 61.4533 43H39.0133Z" fill="#BAFFF7" fill-opacity="0.4"/>
<path d="M-2 49H73.7533V52H-2V49Z" fill="#BAFFF7" fill-opacity="0.4"/>
</svg>
