<svg width="77" height="44" viewBox="0 0 77 44" fill="none" xmlns="http://www.w3.org/2000/svg">
<path d="M0.4 27.82V15.76C0.4 3.76 5.32 0.579999 17.32 0.579999C29.32 0.579999 34.24 3.76 34.24 15.76V27.82C34.24 39.82 29.32 43.3 17.32 43.3C5.32 43.3 0.4 39.82 0.4 27.82ZM8.32 16.12V27.52C8.32 34.72 10.78 37 17.32 37C24.28 37 26.32 34.72 26.32 27.52V16.12C26.32 8.92 24.28 6.88 17.32 6.88C10.78 6.88 8.32 8.92 8.32 16.12ZM63.0133 43V35.92H42.8533C39.4933 35.92 37.6933 34.18 37.6933 30.1C37.6933 28.48 37.9333 26.86 40.0333 24.64L60.3133 2.92C62.2933 0.759997 64.7533 0.52 66.1333 0.52C69.3133 0.52 70.9333 1.9 70.9333 5.08V29.62H76.2133V35.92H70.9333V43H63.0133ZM63.0133 29.62V9.7C63.0133 9.52 62.9533 9.46 62.7733 9.46C62.5933 9.46 62.5333 9.52 62.0533 10.06L45.9733 27.88C45.6733 28.18 45.2533 28.6 45.2533 28.9C45.2533 29.14 45.3733 29.62 46.3333 29.62H63.0133Z" fill="#BAFFF7" fill-opacity="0.4"/>
<path d="M-2 49H77.4133V52H-2V49Z" fill="#BAFFF7" fill-opacity="0.4"/>
</svg>
