<svg width="54" height="50" viewBox="0 0 54 50" fill="none" xmlns="http://www.w3.org/2000/svg">
<path d="M48.8096 49.8555C51.678 49.8555 54 47.5281 54 44.6636V16.617C54 13.7478 51.6733 11.4251 48.8096 11.4251H42.0037C40.0679 4.40053 33.5257 -0.339075 26.2488 0.0189864C19.537 0.358203 13.7908 4.95176 11.9822 11.4251H5.19041C2.32203 11.4251 0 13.7525 0 16.617V44.6636C0 47.5328 2.32674 49.8555 5.19041 49.8555H48.8049H48.8096ZM26.3477 2.08726C30.0356 1.90823 33.6387 3.25097 36.314 5.7998C38.9893 8.34863 40.5012 11.8821 40.5012 15.5758C40.5153 19.3119 38.9657 22.8831 36.2245 25.4178C33.6105 27.9431 32.1504 31.4342 32.1928 35.0713V36.3481H21.8072V35.2456C21.8543 31.5331 20.3754 27.9619 17.719 25.3613C13.7908 21.644 12.4626 15.9433 14.3419 10.8692C16.2212 5.7998 20.9453 2.34168 26.3477 2.08255V2.08726ZM30.1157 43.6224H23.8843C22.7351 43.6224 21.8072 42.6943 21.8072 41.5447V38.4305H32.1928V41.5447C32.1928 42.6943 31.2649 43.6224 30.1157 43.6224ZM18.0722 49.0216C17.4788 48.2395 16.5603 47.7778 15.5806 47.7778H5.19511C3.47597 47.7778 2.08182 46.3833 2.08182 44.6636V16.617C2.08182 14.8974 3.47597 13.5028 5.19511 13.5028H11.5772C11.5489 13.7196 11.5065 13.9316 11.4877 14.153C11.0449 18.9067 12.8159 23.6039 16.2918 26.8783C18.5338 29.0832 19.7772 32.1079 19.7301 35.2504V41.5494C19.7396 43.4387 21.016 45.0829 22.8434 45.5588V46.746C22.8434 47.3208 23.3097 47.7825 23.8796 47.7825C24.4495 47.7825 24.9158 47.3161 24.9158 46.746V45.7095H29.07V46.746C29.07 47.3208 29.5363 47.7825 30.1062 47.7825C30.6761 47.7825 31.1424 47.3161 31.1424 46.746V45.5588C32.9699 45.0876 34.251 43.4387 34.2557 41.5494V35.076C34.2086 32.0137 35.4285 29.0738 37.6281 26.9396C40.7885 24.0091 42.583 19.8914 42.5642 15.5758C42.5594 14.8785 42.5076 14.186 42.4134 13.4981H48.7955C50.5146 13.4981 51.9088 14.8927 51.9088 16.6123V44.6589C51.9088 46.3785 50.5146 47.7731 48.7955 47.7731H38.4099C37.4303 47.7731 36.5071 48.2395 35.9184 49.0216" fill="url(#paint0_linear_1184_1271)"/>
<path d="M24.9239 29.0781C24.3493 29.0781 23.8877 29.5446 23.8877 30.1146V33.2288C23.8877 33.8036 24.354 34.2653 24.9239 34.2653C25.4938 34.2653 25.9601 33.7989 25.9601 33.2288V30.1146C25.9601 29.5398 25.4938 29.0781 24.9239 29.0781Z" fill="url(#paint1_linear_1184_1271)"/>
<path d="M23.8877 24.9265C23.8877 25.5013 24.354 25.963 24.9239 25.963C25.4938 25.963 25.9601 25.4966 25.9601 24.9265V23.89C25.9601 23.3152 25.4938 22.8535 24.9239 22.8535C24.354 22.8535 23.8877 23.3199 23.8877 23.89V24.9265Z" fill="url(#paint2_linear_1184_1271)"/>
<path d="M29.0782 34.2751C29.6528 34.2751 30.1144 33.8086 30.1144 33.2386V30.1244C30.1144 29.5496 29.6481 29.0879 29.0782 29.0879C28.5083 29.0879 28.042 29.5543 28.042 30.1244V33.2386C28.042 33.8134 28.5083 34.2751 29.0782 34.2751Z" fill="url(#paint3_linear_1184_1271)"/>
<path d="M29.0782 25.963C29.6528 25.963 30.1144 25.4966 30.1144 24.9265V23.89C30.1144 23.3152 29.6481 22.8535 29.0782 22.8535C28.5083 22.8535 28.042 23.3199 28.042 23.89V24.9265C28.042 25.5013 28.5083 25.963 29.0782 25.963Z" fill="url(#paint4_linear_1184_1271)"/>
<path d="M10.3869 7.26463C10.8296 7.26463 11.2205 6.98666 11.3665 6.57206C11.5126 6.15747 11.3807 5.69105 11.0368 5.41779L5.84644 1.26238C5.39899 0.904323 4.7443 0.974992 4.38634 1.42257C4.02838 1.87015 4.09903 2.52502 4.54648 2.88309L9.73689 7.03849C9.92058 7.18454 10.1514 7.26463 10.3869 7.26463Z" fill="url(#paint5_linear_1184_1271)"/>
<path d="M44.2681 7.03849L49.4585 2.88309C49.906 2.52502 49.9766 1.87015 49.6187 1.42257C49.2607 0.974992 48.606 0.904323 48.1586 1.26238L42.9682 5.41779C42.6761 5.64864 42.5348 6.02084 42.5914 6.38361C42.6479 6.74639 42.8928 7.06204 43.2413 7.19396C43.5899 7.32587 43.9808 7.26934 44.2681 7.03849Z" fill="url(#paint6_linear_1184_1271)"/>
<path d="M4.38537 37.0023C4.55964 37.219 4.80926 37.3557 5.08244 37.3839C5.35562 37.4122 5.6288 37.3368 5.84546 37.1625L11.0359 33.0071C11.4833 32.649 11.554 31.9942 11.196 31.5466C10.838 31.099 10.1834 31.0283 9.73591 31.3864L4.5455 35.5418C4.32884 35.7161 4.19226 35.9658 4.164 36.2391C4.13574 36.5123 4.2111 36.7856 4.38537 37.0023Z" fill="url(#paint7_linear_1184_1271)"/>
<path d="M48.1578 37.1625C48.6052 37.5206 49.2599 37.4499 49.6179 37.0023C49.9758 36.5547 49.9052 35.8999 49.4577 35.5418L44.2673 31.3864C43.8199 31.0283 43.1652 31.099 42.8072 31.5466C42.4493 31.9942 42.5199 32.649 42.9674 33.0071L48.1578 37.1625Z" fill="url(#paint8_linear_1184_1271)"/>
<path d="M17.4584 13.4791C17.5244 13.4933 17.5903 13.498 17.6562 13.498C18.1508 13.498 18.5794 13.1446 18.6736 12.6547C19.4178 8.82906 23.2046 7.19893 23.2423 7.1848C23.7745 6.96808 24.0241 6.36031 23.8075 5.82793C23.5908 5.29555 22.9832 5.04585 22.451 5.26257C22.2532 5.34267 17.595 7.312 16.6342 12.2589C16.5258 12.8243 16.8932 13.3661 17.4584 13.4744V13.4791Z" fill="url(#paint9_linear_1184_1271)"/>
<path d="M5.1944 18.6941H8.3077C8.88232 18.6941 9.3439 18.2277 9.3439 17.6576C9.3439 17.0875 8.87761 16.6211 8.3077 16.6211H5.1944C4.61978 16.6211 4.1582 17.0875 4.1582 17.6576C4.1582 18.2277 4.62449 18.6941 5.1944 18.6941Z" fill="url(#paint10_linear_1184_1271)"/>
<path d="M45.6973 18.6941H48.8106C49.3852 18.6941 49.8468 18.2277 49.8468 17.6576C49.8468 17.0875 49.3805 16.6211 48.8106 16.6211H45.6973C45.1227 16.6211 44.6611 17.0875 44.6611 17.6576C44.6611 18.2277 45.1274 18.6941 45.6973 18.6941Z" fill="url(#paint11_linear_1184_1271)"/>
<defs>
<linearGradient id="paint0_linear_1184_1271" x1="0.00470999" y1="24.9231" x2="54.0047" y2="24.9231" gradientUnits="userSpaceOnUse">
<stop stop-color="#007367"/>
<stop offset="1" stop-color="#0FCED1"/>
</linearGradient>
<linearGradient id="paint1_linear_1184_1271" x1="23.8877" y1="31.6788" x2="25.9648" y2="31.6788" gradientUnits="userSpaceOnUse">
<stop stop-color="#007367"/>
<stop offset="1" stop-color="#0FCED1"/>
</linearGradient>
<linearGradient id="paint2_linear_1184_1271" x1="23.8877" y1="24.4035" x2="25.9648" y2="24.4035" gradientUnits="userSpaceOnUse">
<stop stop-color="#007367"/>
<stop offset="1" stop-color="#0FCED1"/>
</linearGradient>
<linearGradient id="paint3_linear_1184_1271" x1="28.042" y1="31.6791" x2="30.1191" y2="31.6791" gradientUnits="userSpaceOnUse">
<stop stop-color="#007367"/>
<stop offset="1" stop-color="#0FCED1"/>
</linearGradient>
<linearGradient id="paint4_linear_1184_1271" x1="28.042" y1="24.4035" x2="30.1191" y2="24.4035" gradientUnits="userSpaceOnUse">
<stop stop-color="#007367"/>
<stop offset="1" stop-color="#0FCED1"/>
</linearGradient>
<linearGradient id="paint5_linear_1184_1271" x1="4.15555" y1="4.15044" x2="11.4231" y2="4.15044" gradientUnits="userSpaceOnUse">
<stop stop-color="#007367"/>
<stop offset="1" stop-color="#0FCED1"/>
</linearGradient>
<linearGradient id="paint6_linear_1184_1271" x1="42.5772" y1="4.15043" x2="49.8494" y2="4.15043" gradientUnits="userSpaceOnUse">
<stop stop-color="#007367"/>
<stop offset="1" stop-color="#0FCED1"/>
</linearGradient>
<linearGradient id="paint7_linear_1184_1271" x1="4.15929" y1="34.2745" x2="11.4268" y2="34.2745" gradientUnits="userSpaceOnUse">
<stop stop-color="#007367"/>
<stop offset="1" stop-color="#0FCED1"/>
</linearGradient>
<linearGradient id="paint8_linear_1184_1271" x1="42.5765" y1="34.2745" x2="49.8487" y2="34.2745" gradientUnits="userSpaceOnUse">
<stop stop-color="#007367"/>
<stop offset="1" stop-color="#0FCED1"/>
</linearGradient>
<linearGradient id="paint9_linear_1184_1271" x1="16.6153" y1="9.34259" x2="23.8875" y2="9.34259" gradientUnits="userSpaceOnUse">
<stop stop-color="#007367"/>
<stop offset="1" stop-color="#0FCED1"/>
</linearGradient>
<linearGradient id="paint10_linear_1184_1271" x1="4.1582" y1="17.6529" x2="9.34861" y2="17.6529" gradientUnits="userSpaceOnUse">
<stop stop-color="#007367"/>
<stop offset="1" stop-color="#0FCED1"/>
</linearGradient>
<linearGradient id="paint11_linear_1184_1271" x1="44.6564" y1="17.6529" x2="49.8515" y2="17.6529" gradientUnits="userSpaceOnUse">
<stop stop-color="#007367"/>
<stop offset="1" stop-color="#0FCED1"/>
</linearGradient>
</defs>
</svg>
