<svg width="315" height="588" viewBox="0 0 315 588" fill="none" xmlns="http://www.w3.org/2000/svg">
<g filter="url(#filter0_dd_1645_6163)">
<path d="M9 21C9 12.1634 16.1634 5 25 5H290C298.837 5 306 12.1634 306 21V559C306 567.837 298.837 575 290 575H25C16.1634 575 9 567.837 9 559V21Z" fill="url(#paint0_linear_1645_6163)" shape-rendering="crispEdges"/>
</g>
<path d="M47.5032 91H45.9192V83.86C45.9192 82.9 46.4232 82.6 47.1432 82.6H52.6032V83.86H48.1032C47.6232 83.86 47.5032 83.98 47.5032 84.46V86.128H51.2232V87.388H47.5032V91ZM55.7518 84.568C58.0318 84.568 59.1358 85.288 59.1358 87.808C59.1358 90.352 58.0318 91.072 55.7518 91.072C53.4718 91.072 52.3678 90.352 52.3678 87.808C52.3678 85.288 53.4718 84.568 55.7518 84.568ZM53.8198 87.808C53.8198 89.368 54.3118 89.992 55.7518 89.992C57.1918 89.992 57.6838 89.368 57.6838 87.808C57.6838 86.248 57.1918 85.648 55.7518 85.648C54.3118 85.648 53.8198 86.248 53.8198 87.808ZM60.0481 91V87.04C60.0481 85.336 60.9121 84.64 62.6161 84.64H63.5641V85.72H62.9761C61.8481 85.72 61.4521 86.284 61.4521 87.412V91H60.0481ZM68.6673 91H67.0833V83.86C67.0833 82.9 67.5873 82.6 68.3073 82.6H73.7673V83.86H69.2673C68.7873 83.86 68.6673 83.98 68.6673 84.46V86.128H72.3873V87.388H68.6673V91ZM79.6039 84.64V89.92C79.6039 90.64 79.2439 91 78.5239 91H76.1959C74.7559 91 73.7239 90.508 73.7239 88.828V84.64H75.1279V88.456C75.1279 89.416 75.4999 89.92 76.4599 89.92H77.8399C78.0799 89.92 78.1999 89.8 78.1999 89.56V84.64H79.6039ZM84.2483 91H83.3723C81.9323 91 81.0323 90.484 81.0323 88.924V85.72H80.1562V84.64H81.0323V82.6H82.4363V84.64H84.2483V85.72H82.4363V88.636C82.4363 89.596 82.9403 89.92 83.9003 89.92H84.2483V91ZM90.6781 84.64V89.92C90.6781 90.64 90.3181 91 89.5981 91H87.2701C85.8301 91 84.7981 90.508 84.7981 88.828V84.64H86.2021V88.456C86.2021 89.416 86.5741 89.92 87.5341 89.92H88.9141C89.1541 89.92 89.2741 89.8 89.2741 89.56V84.64H90.6781ZM91.7825 91V87.04C91.7825 85.336 92.6465 84.64 94.3505 84.64H95.2985V85.72H94.7105C93.5825 85.72 93.1865 86.284 93.1865 87.412V91H91.7825ZM101.468 91H97.9397C95.8997 91 95.5397 89.848 95.5397 87.808C95.5397 85.288 96.4517 84.568 98.6117 84.568C100.412 84.568 101.672 85.048 101.672 87.088C101.672 87.808 101.408 88.288 100.688 88.288H96.9917C96.9917 89.248 97.1597 89.92 98.3597 89.92H101.468V91ZM96.9917 87.208H99.9077C100.184 87.208 100.22 87.016 100.22 86.836C100.22 85.996 99.4517 85.648 98.6117 85.648C97.4117 85.648 96.9917 86.128 96.9917 87.208ZM107.14 91H105.556V83.86C105.556 82.9 106.06 82.6 106.78 82.6H112.24V83.86H107.74C107.26 83.86 107.14 83.98 107.14 84.46V86.128H110.86V87.388H107.14V91ZM113.029 91V84.64H114.433V91H113.029ZM114.433 83.8H113.029V82.504H114.433V83.8ZM115.536 91V85.72C115.536 85 115.896 84.64 116.616 84.64H118.848C120.288 84.64 121.32 85.132 121.32 86.812V91H119.916V87.184C119.916 86.224 119.544 85.72 118.584 85.72H117.3C117.06 85.72 116.94 85.84 116.94 86.08V91H115.536ZM122.703 84.64H126.315C127.515 84.64 128.103 85.432 128.103 86.512V89.92C128.103 90.64 127.743 91 127.023 91H123.819C122.739 91 122.235 90.34 122.235 89.02C122.235 87.82 122.739 87.04 123.819 87.04H126.699V86.632C126.699 86.032 126.411 85.72 125.811 85.72H122.703V84.64ZM126.699 88.12H124.359C123.879 88.12 123.687 88.42 123.687 89.02C123.687 89.62 123.879 89.92 124.359 89.92H126.339C126.579 89.92 126.699 89.8 126.699 89.56V88.12ZM129.212 91V85.72C129.212 85 129.572 84.64 130.292 84.64H132.524C133.964 84.64 134.996 85.132 134.996 86.812V91H133.592V87.184C133.592 86.224 133.22 85.72 132.26 85.72H130.976C130.736 85.72 130.616 85.84 130.616 86.08V91H129.212ZM141.299 85.72H138.983C137.507 85.72 137.363 86.608 137.363 87.808C137.363 89.008 137.507 89.92 138.983 89.92H141.443V91H138.635C136.475 91 135.911 89.728 135.911 87.808C135.911 85.888 136.475 84.64 138.635 84.64H141.299V85.72ZM147.78 91H144.252C142.212 91 141.852 89.848 141.852 87.808C141.852 85.288 142.764 84.568 144.924 84.568C146.724 84.568 147.984 85.048 147.984 87.088C147.984 87.808 147.72 88.288 147 88.288H143.304C143.304 89.248 143.472 89.92 144.672 89.92H147.78V91ZM143.304 87.208H146.22C146.496 87.208 146.532 87.016 146.532 86.836C146.532 85.996 145.764 85.648 144.924 85.648C143.724 85.648 143.304 86.128 143.304 87.208ZM158.588 87.364V89.404C158.588 90.508 158.348 91 156.908 91H154.112C152.564 91 151.868 90.364 151.868 88.6C151.868 87.712 152.156 87.004 153.14 86.812V86.764C152.228 86.668 151.88 85.768 151.88 84.772C151.88 83.296 152.516 82.6 154.1 82.6H158.492V83.848H154.712C153.86 83.848 153.488 84.016 153.488 84.94C153.488 85.936 153.872 86.236 154.82 86.236H159.848V87.364H158.588ZM156.476 89.752C156.98 89.752 157.04 89.62 157.04 89.308V87.376H154.424C153.776 87.376 153.476 87.688 153.476 88.54C153.476 89.344 153.716 89.752 154.592 89.752H156.476ZM170.439 91H166.935C164.055 91 163.371 89.2 163.371 86.8C163.371 84.4 164.055 82.6 166.935 82.6H170.307V83.86H167.679C165.639 83.86 165.003 84.52 165.003 86.8C165.003 89.08 165.639 89.74 167.679 89.74H170.439V91ZM174.31 84.568C176.59 84.568 177.694 85.288 177.694 87.808C177.694 90.352 176.59 91.072 174.31 91.072C172.03 91.072 170.926 90.352 170.926 87.808C170.926 85.288 172.03 84.568 174.31 84.568ZM172.378 87.808C172.378 89.368 172.87 89.992 174.31 89.992C175.75 89.992 176.242 89.368 176.242 87.808C176.242 86.248 175.75 85.648 174.31 85.648C172.87 85.648 172.378 86.248 172.378 87.808ZM178.607 91V85.72C178.607 85 178.967 84.64 179.687 84.64H185.195C186.635 84.64 187.667 85.132 187.667 86.812V91H186.263V87.184C186.263 86.224 185.891 85.72 184.931 85.72H183.839V91H182.435V85.72H180.371C180.131 85.72 180.011 85.84 180.011 86.08V91H178.607ZM188.767 91V85.72C188.767 85 189.127 84.64 189.847 84.64H195.355C196.795 84.64 197.827 85.132 197.827 86.812V91H196.423V87.184C196.423 86.224 196.051 85.72 195.091 85.72H193.999V91H192.595V85.72H190.531C190.291 85.72 190.171 85.84 190.171 86.08V91H188.767ZM204.663 91H201.135C199.095 91 198.735 89.848 198.735 87.808C198.735 85.288 199.647 84.568 201.807 84.568C203.607 84.568 204.867 85.048 204.867 87.088C204.867 87.808 204.603 88.288 203.883 88.288H200.187C200.187 89.248 200.355 89.92 201.555 89.92H204.663V91ZM200.187 87.208H203.103C203.379 87.208 203.415 87.016 203.415 86.836C203.415 85.996 202.647 85.648 201.807 85.648C200.607 85.648 200.187 86.128 200.187 87.208ZM205.782 91V87.04C205.782 85.336 206.646 84.64 208.35 84.64H209.298V85.72H208.71C207.582 85.72 207.186 86.284 207.186 87.412V91H205.782ZM214.811 85.72H212.495C211.019 85.72 210.875 86.608 210.875 87.808C210.875 89.008 211.019 89.92 212.495 89.92H214.955V91H212.146C209.987 91 209.423 89.728 209.423 87.808C209.423 85.888 209.987 84.64 212.146 84.64H214.811V85.72ZM221.292 91H217.764C215.724 91 215.364 89.848 215.364 87.808C215.364 85.288 216.276 84.568 218.436 84.568C220.236 84.568 221.496 85.048 221.496 87.088C221.496 87.808 221.232 88.288 220.512 88.288H216.816C216.816 89.248 216.984 89.92 218.184 89.92H221.292V91ZM216.816 87.208H219.732C220.008 87.208 220.044 87.016 220.044 86.836C220.044 85.996 219.276 85.648 218.436 85.648C217.236 85.648 216.816 86.128 216.816 87.208ZM232.076 91H226.604C225.884 91 225.38 90.7 225.38 89.74V82.6H226.964V89.14C226.964 89.62 227.084 89.74 227.564 89.74H232.076V91ZM238.366 91H234.838C232.798 91 232.438 89.848 232.438 87.808C232.438 85.288 233.35 84.568 235.51 84.568C237.31 84.568 238.57 85.048 238.57 87.088C238.57 87.808 238.306 88.288 237.586 88.288H233.89C233.89 89.248 234.058 89.92 235.258 89.92H238.366V91ZM233.89 87.208H236.806C237.082 87.208 237.118 87.016 237.118 86.836C237.118 85.996 236.35 85.648 235.51 85.648C234.31 85.648 233.89 86.128 233.89 87.208ZM239.762 84.64H243.374C244.574 84.64 245.162 85.432 245.162 86.512V89.92C245.162 90.64 244.802 91 244.082 91H240.878C239.798 91 239.294 90.34 239.294 89.02C239.294 87.82 239.798 87.04 240.878 87.04H243.758V86.632C243.758 86.032 243.47 85.72 242.87 85.72H239.762V84.64ZM243.758 88.12H241.418C240.938 88.12 240.746 88.42 240.746 89.02C240.746 89.62 240.938 89.92 241.418 89.92H243.398C243.638 89.92 243.758 89.8 243.758 89.56V88.12ZM251.983 82.6V89.92C251.983 90.64 251.623 91 250.903 91H248.683C246.643 91 246.079 89.728 246.079 87.808C246.079 85.888 246.643 84.64 248.683 84.64H250.579V82.6H251.983ZM250.579 85.72H249.031C247.675 85.72 247.531 86.608 247.531 87.808C247.531 89.008 247.675 89.92 249.031 89.92H250.219C250.459 89.92 250.579 89.8 250.579 89.56V85.72ZM258.827 91H255.299C253.259 91 252.899 89.848 252.899 87.808C252.899 85.288 253.811 84.568 255.971 84.568C257.771 84.568 259.031 85.048 259.031 87.088C259.031 87.808 258.767 88.288 258.047 88.288H254.351C254.351 89.248 254.519 89.92 255.719 89.92H258.827V91ZM254.351 87.208H257.267C257.543 87.208 257.579 87.016 257.579 86.836C257.579 85.996 256.811 85.648 255.971 85.648C254.771 85.648 254.351 86.128 254.351 87.208ZM259.947 91V87.04C259.947 85.336 260.811 84.64 262.515 84.64H263.463V85.72H262.875C261.747 85.72 261.351 86.284 261.351 87.412V91H259.947ZM263.857 91V89.92H267.433C267.721 89.92 268.021 89.764 268.021 89.344C268.021 88.672 267.265 88.624 266.689 88.456L265.465 88.12C264.097 87.748 263.773 87.184 263.773 86.272C263.773 85.12 264.313 84.64 265.597 84.64H269.185V85.72H265.813C265.357 85.72 265.141 85.828 265.141 86.296C265.141 86.836 265.669 86.98 266.137 87.112L267.505 87.496C268.633 87.808 269.485 88.084 269.485 89.38C269.485 90.352 269.137 91 267.925 91H263.857Z" fill="#FFF0F0"/>
<path d="M48.6 487V486.088H53.292C53.928 486.088 54.18 485.644 54.18 484.912C54.18 484.468 54.084 484.024 53.244 483.748L49.92 482.644C48.912 482.308 48.48 481.732 48.48 480.568C48.48 479.368 49.056 478.6 50.388 478.6H54.936V479.512H50.592C49.956 479.512 49.644 479.812 49.644 480.592C49.644 481.048 49.692 481.492 50.436 481.744L53.604 482.8C54.72 483.172 55.344 483.592 55.344 484.912C55.344 486.052 54.9 487 53.604 487H48.6ZM61.8401 487H58.5161C56.6201 487 56.2241 485.764 56.2241 483.844C56.2241 481.504 56.9681 480.568 59.1161 480.568C60.8081 480.568 62.0081 481.12 62.0081 483.04C62.0081 483.772 61.7801 484.156 61.0601 484.156H57.2681C57.2681 485.188 57.4481 486.184 58.7321 486.184H61.8401V487ZM57.2681 483.34H60.6641C60.9041 483.34 60.9521 483.16 60.9521 483.016V482.968C60.9521 481.768 60.1961 481.384 59.1281 481.384C57.8201 481.384 57.2681 481.888 57.2681 483.34ZM63.0023 487V478.6H64.0103V487H63.0023ZM70.6175 487H67.2935C65.3975 487 65.0015 485.764 65.0015 483.844C65.0015 481.504 65.7455 480.568 67.8935 480.568C69.5855 480.568 70.7855 481.12 70.7855 483.04C70.7855 483.772 70.5575 484.156 69.8375 484.156H66.0455C66.0455 485.188 66.2255 486.184 67.5095 486.184H70.6175V487ZM66.0455 483.34H69.4415C69.6815 483.34 69.7295 483.16 69.7295 483.016V482.968C69.7295 481.768 68.9735 481.384 67.9055 481.384C66.5975 481.384 66.0455 481.888 66.0455 483.34ZM76.8197 487H74.2757C72.1157 487 71.5757 485.788 71.5757 483.808C71.5757 481.888 72.1157 480.64 74.2757 480.64H76.6877V481.456H74.4557C72.8717 481.456 72.6317 482.368 72.6317 483.808C72.6317 485.308 72.8717 486.184 74.4557 486.184H76.8197V487ZM81.018 487H80.262C78.678 487 78.234 486.244 78.234 484.96V481.456H77.298V480.64H78.234V478.6H79.242V480.64H81.018V481.456H79.242V484.9C79.242 485.884 79.626 486.184 80.598 486.184H81.018V487ZM81.6823 487V480.64H82.6903V487H81.6823ZM82.7023 479.704H81.6703V478.6H82.7023V479.704ZM86.9569 480.568C89.2369 480.568 90.2209 481.396 90.2209 483.796C90.2209 486.208 89.2369 487.072 86.9569 487.072C84.6769 487.072 83.6929 486.208 83.6929 483.796C83.6929 481.396 84.6769 480.568 86.9569 480.568ZM84.7489 483.796C84.7489 485.596 85.3369 486.256 86.9569 486.256C88.5769 486.256 89.1649 485.596 89.1649 483.796C89.1649 481.996 88.5769 481.384 86.9569 481.384C85.3369 481.384 84.7489 481.996 84.7489 483.796ZM91.2211 487V481.684C91.2211 481.024 91.4971 480.64 92.1931 480.64H94.4731C95.8531 480.64 96.6211 481.24 96.6211 482.704V487H95.6131V482.884C95.6131 482.02 95.3011 481.456 94.3411 481.456H92.6011C92.3611 481.456 92.2291 481.54 92.2291 481.864V487H91.2211ZM105.66 487H103.116C100.956 487 100.416 485.788 100.416 483.808C100.416 481.888 100.956 480.64 103.116 480.64H105.528V481.456H103.296C101.712 481.456 101.472 482.368 101.472 483.808C101.472 485.308 101.712 486.184 103.296 486.184H105.66V487ZM106.455 487V482.932C106.455 481.36 107.223 480.64 108.795 480.64H109.491V481.456H108.975C107.871 481.456 107.463 482.02 107.463 483.184V487H106.455ZM110.1 487V480.64H111.108V487H110.1ZM111.12 479.704H110.088V478.6H111.12V479.704ZM115.483 487H114.727C113.143 487 112.699 486.244 112.699 484.96V481.456H111.763V480.64H112.699V478.6H113.707V480.64H115.483V481.456H113.707V484.9C113.707 485.884 114.091 486.184 115.063 486.184H115.483V487ZM121.547 487H118.223C116.327 487 115.931 485.764 115.931 483.844C115.931 481.504 116.675 480.568 118.823 480.568C120.515 480.568 121.715 481.12 121.715 483.04C121.715 483.772 121.487 484.156 120.767 484.156H116.975C116.975 485.188 117.155 486.184 118.439 486.184H121.547V487ZM116.975 483.34H120.371C120.611 483.34 120.659 483.16 120.659 483.016V482.968C120.659 481.768 119.903 481.384 118.835 481.384C117.527 481.384 116.975 481.888 116.975 483.34ZM122.709 487V482.932C122.709 481.36 123.477 480.64 125.049 480.64H125.745V481.456H125.229C124.125 481.456 123.717 482.02 123.717 483.184V487H122.709ZM126.354 487V480.64H127.362V487H126.354ZM127.374 479.704H126.342V478.6H127.374V479.704ZM128.845 480.64H132.193C133.321 480.64 133.849 481.336 133.849 482.38V486.04C133.849 486.688 133.597 487 132.853 487H130.021C128.857 487 128.365 486.376 128.365 485.056C128.365 483.796 128.857 483.124 130.021 483.124H132.841V482.368C132.841 481.828 132.577 481.456 131.941 481.456H128.845V480.64ZM132.841 483.94H130.213C129.589 483.94 129.421 484.372 129.421 485.056C129.421 485.74 129.589 486.184 130.213 486.184H132.505C132.733 486.184 132.841 486.052 132.841 485.86V483.94ZM140.802 487H139.026C138.282 487 137.85 486.772 137.85 485.968V478.6H138.858V480.64H140.802C142.842 480.64 143.406 481.804 143.406 483.784C143.406 485.764 142.842 487 140.802 487ZM138.858 481.456V485.752C138.858 486.028 138.93 486.184 139.266 486.184H140.622C142.146 486.184 142.35 485.164 142.35 483.784C142.35 482.404 142.146 481.456 140.622 481.456H138.858ZM144.677 480.64H148.025C149.153 480.64 149.681 481.336 149.681 482.38V486.04C149.681 486.688 149.429 487 148.685 487H145.853C144.689 487 144.197 486.376 144.197 485.056C144.197 483.796 144.689 483.124 145.853 483.124H148.673V482.368C148.673 481.828 148.409 481.456 147.773 481.456H144.677V480.64ZM148.673 483.94H146.045C145.421 483.94 145.253 484.372 145.253 485.056C145.253 485.74 145.421 486.184 146.045 486.184H148.337C148.565 486.184 148.673 486.052 148.673 485.86V483.94ZM150.737 487V486.184H154.349C154.877 486.184 155.117 485.908 155.117 485.38C155.117 484.708 154.541 484.588 153.557 484.348L152.393 484.06C151.181 483.76 150.641 483.292 150.641 482.224C150.641 481.156 151.241 480.64 152.357 480.64H155.801V481.456H152.465C151.877 481.456 151.649 481.66 151.649 482.224C151.649 482.932 152.141 483.1 152.837 483.28L154.097 483.604C155.381 483.928 156.173 484.156 156.173 485.392C156.173 486.376 155.813 487 154.601 487H150.737ZM162.551 487H159.227C157.331 487 156.935 485.764 156.935 483.844C156.935 481.504 157.679 480.568 159.827 480.568C161.519 480.568 162.719 481.12 162.719 483.04C162.719 483.772 162.491 484.156 161.771 484.156H157.979C157.979 485.188 158.159 486.184 159.443 486.184H162.551V487ZM157.979 483.34H161.375C161.615 483.34 161.663 483.16 161.663 483.016V482.968C161.663 481.768 160.907 481.384 159.839 481.384C158.531 481.384 157.979 481.888 157.979 483.34ZM168.093 487H166.149C164.049 487 163.509 485.86 163.509 483.82C163.509 481.84 164.049 480.64 166.149 480.64H168.057V478.6H169.065V486.004C169.065 486.628 168.825 487 168.093 487ZM168.057 481.468H166.341C164.817 481.468 164.565 482.32 164.565 483.82C164.565 485.38 164.817 486.184 166.341 486.184H167.637C167.973 486.184 168.057 486.052 168.057 485.728V481.468ZM176.125 480.568C178.405 480.568 179.389 481.396 179.389 483.796C179.389 486.208 178.405 487.072 176.125 487.072C173.845 487.072 172.861 486.208 172.861 483.796C172.861 481.396 173.845 480.568 176.125 480.568ZM173.917 483.796C173.917 485.596 174.505 486.256 176.125 486.256C177.745 486.256 178.333 485.596 178.333 483.796C178.333 481.996 177.745 481.384 176.125 481.384C174.505 481.384 173.917 481.996 173.917 483.796ZM180.389 487V481.684C180.389 481.024 180.665 480.64 181.361 480.64H183.641C185.021 480.64 185.789 481.24 185.789 482.704V487H184.781V482.884C184.781 482.02 184.469 481.456 183.509 481.456H181.769C181.529 481.456 181.397 481.54 181.397 481.864V487H180.389ZM191.084 487H189.968V479.728C189.968 478.864 190.376 478.6 191.096 478.6H194.948C196.64 478.6 197.096 479.584 197.096 481.168C197.096 482.824 196.64 483.796 194.948 483.796H191.084V487ZM191.084 482.884H194.552C195.74 482.884 195.932 482.284 195.932 481.168C195.932 480.088 195.716 479.512 194.552 479.512H191.624C191.144 479.512 191.084 479.68 191.084 480.064V482.884ZM203.297 487H199.973C198.077 487 197.681 485.764 197.681 483.844C197.681 481.504 198.425 480.568 200.573 480.568C202.265 480.568 203.465 481.12 203.465 483.04C203.465 483.772 203.237 484.156 202.517 484.156H198.725C198.725 485.188 198.905 486.184 200.189 486.184H203.297V487ZM198.725 483.34H202.121C202.361 483.34 202.409 483.16 202.409 483.016V482.968C202.409 481.768 201.653 481.384 200.585 481.384C199.277 481.384 198.725 481.888 198.725 483.34ZM204.459 487V482.932C204.459 481.36 205.227 480.64 206.799 480.64H207.495V481.456H206.979C205.875 481.456 205.467 482.02 205.467 483.184V487H204.459ZM207.948 487V486.184H211.56C212.088 486.184 212.328 485.908 212.328 485.38C212.328 484.708 211.752 484.588 210.768 484.348L209.604 484.06C208.392 483.76 207.852 483.292 207.852 482.224C207.852 481.156 208.452 480.64 209.568 480.64H213.012V481.456H209.676C209.088 481.456 208.86 481.66 208.86 482.224C208.86 482.932 209.352 483.1 210.048 483.28L211.308 483.604C212.592 483.928 213.384 484.156 213.384 485.392C213.384 486.376 213.024 487 211.812 487H207.948ZM217.41 480.568C219.69 480.568 220.674 481.396 220.674 483.796C220.674 486.208 219.69 487.072 217.41 487.072C215.13 487.072 214.146 486.208 214.146 483.796C214.146 481.396 215.13 480.568 217.41 480.568ZM215.202 483.796C215.202 485.596 215.79 486.256 217.41 486.256C219.03 486.256 219.618 485.596 219.618 483.796C219.618 481.996 219.03 481.384 217.41 481.384C215.79 481.384 215.202 481.996 215.202 483.796ZM221.674 487V481.684C221.674 481.024 221.95 480.64 222.646 480.64H224.926C226.306 480.64 227.074 481.24 227.074 482.704V487H226.066V482.884C226.066 482.02 225.754 481.456 224.794 481.456H223.054C222.814 481.456 222.682 481.54 222.682 481.864V487H221.674ZM228.548 480.64H231.896C233.024 480.64 233.552 481.336 233.552 482.38V486.04C233.552 486.688 233.3 487 232.556 487H229.724C228.56 487 228.068 486.376 228.068 485.056C228.068 483.796 228.56 483.124 229.724 483.124H232.544V482.368C232.544 481.828 232.28 481.456 231.644 481.456H228.548V480.64ZM232.544 483.94H229.916C229.292 483.94 229.124 484.372 229.124 485.056C229.124 485.74 229.292 486.184 229.916 486.184H232.208C232.436 486.184 232.544 486.052 232.544 485.86V483.94ZM234.752 487V478.6H235.76V487H234.752ZM48.612 503V496.64H49.62V503H48.612ZM49.632 495.704H48.6V494.6H49.632V495.704ZM50.8266 503V497.684C50.8266 497.024 51.1026 496.64 51.7986 496.64H54.0786C55.4586 496.64 56.2266 497.24 56.2266 498.704V503H55.2186V498.884C55.2186 498.02 54.9066 497.456 53.9466 497.456H52.2066C51.9666 497.456 51.8346 497.54 51.8346 497.864V503H50.8266ZM60.5922 503H59.8362C58.2522 503 57.8082 502.244 57.8082 500.96V497.456H56.8722V496.64H57.8082V494.6H58.8162V496.64H60.5922V497.456H58.8162V500.9C58.8162 501.884 59.2002 502.184 60.1722 502.184H60.5922V503ZM66.6565 503H63.3325C61.4365 503 61.0405 501.764 61.0405 499.844C61.0405 497.504 61.7845 496.568 63.9325 496.568C65.6245 496.568 66.8245 497.12 66.8245 499.04C66.8245 499.772 66.5965 500.156 65.8765 500.156H62.0845C62.0845 501.188 62.2645 502.184 63.5485 502.184H66.6565V503ZM62.0845 499.34H65.4805C65.7205 499.34 65.7685 499.16 65.7685 499.016V498.968C65.7685 497.768 65.0125 497.384 63.9445 497.384C62.6365 497.384 62.0845 497.888 62.0845 499.34ZM67.8188 503V498.932C67.8188 497.36 68.5868 496.64 70.1588 496.64H70.8548V497.456H70.3388C69.2348 497.456 68.8268 498.02 68.8268 499.184V503H67.8188ZM72.304 496.64L74.224 501.788C74.272 501.92 74.32 502.052 74.392 502.052C74.476 502.052 74.524 501.92 74.572 501.788L76.48 496.64H77.524L75.208 502.52C75.004 503.036 74.692 503.072 74.392 503.072C74.092 503.072 73.78 503.036 73.576 502.52L71.26 496.64H72.304ZM78.0612 503V496.64H79.0692V503H78.0612ZM79.0812 495.704H78.0492V494.6H79.0812V495.704ZM85.6878 503H82.3638C80.4678 503 80.0718 501.764 80.0718 499.844C80.0718 497.504 80.8158 496.568 82.9638 496.568C84.6558 496.568 85.8558 497.12 85.8558 499.04C85.8558 499.772 85.6278 500.156 84.9078 500.156H81.1158C81.1158 501.188 81.2958 502.184 82.5798 502.184H85.6878V503ZM81.1158 499.34H84.5118C84.7518 499.34 84.7998 499.16 84.7998 499.016V498.968C84.7998 497.768 84.0438 497.384 82.9758 497.384C81.6678 497.384 81.1158 497.888 81.1158 499.34ZM87.234 496.64L88.554 501.776C88.578 501.86 88.626 501.968 88.686 501.968C88.77 501.968 88.782 501.848 88.806 501.788L90.054 497.12C90.198 496.604 90.594 496.568 90.81 496.568C91.026 496.568 91.434 496.604 91.578 497.12L92.826 501.788C92.838 501.848 92.874 501.968 92.946 501.968C93.006 501.968 93.054 501.872 93.078 501.776L94.398 496.64H95.382L93.846 502.376C93.726 502.82 93.486 503.072 92.994 503.072C92.466 503.072 92.202 502.772 92.118 502.448L90.918 497.972C90.894 497.9 90.87 497.756 90.81 497.756C90.762 497.756 90.726 497.9 90.702 497.972L89.502 502.448C89.418 502.772 89.178 503.072 88.638 503.072C88.134 503.072 87.906 502.82 87.786 502.376L86.25 496.64H87.234ZM99.0557 496.64H102.404C103.532 496.64 104.06 497.336 104.06 498.38V502.04C104.06 502.688 103.808 503 103.064 503H100.232C99.0677 503 98.5757 502.376 98.5757 501.056C98.5757 499.796 99.0677 499.124 100.232 499.124H103.052V498.368C103.052 497.828 102.788 497.456 102.152 497.456H99.0557V496.64ZM103.052 499.94H100.424C99.7997 499.94 99.6317 500.372 99.6317 501.056C99.6317 501.74 99.7997 502.184 100.424 502.184H102.716C102.944 502.184 103.052 502.052 103.052 501.86V499.94ZM105.26 503V497.684C105.26 497.024 105.536 496.64 106.232 496.64H108.512C109.892 496.64 110.66 497.24 110.66 498.704V503H109.652V498.884C109.652 498.02 109.34 497.456 108.38 497.456H106.64C106.4 497.456 106.268 497.54 106.268 497.864V503H105.26ZM116.238 503H114.294C112.194 503 111.654 501.86 111.654 499.82C111.654 497.84 112.194 496.64 114.294 496.64H116.202V494.6H117.21V502.004C117.21 502.628 116.97 503 116.238 503ZM116.202 497.468H114.486C112.962 497.468 112.71 498.32 112.71 499.82C112.71 501.38 112.962 502.184 114.486 502.184H115.782C116.118 502.184 116.202 502.052 116.202 501.728V497.468ZM121.209 503V502.088H125.901C126.537 502.088 126.789 501.644 126.789 500.912C126.789 500.468 126.693 500.024 125.853 499.748L122.529 498.644C121.521 498.308 121.089 497.732 121.089 496.568C121.089 495.368 121.665 494.6 122.997 494.6H127.545V495.512H123.201C122.565 495.512 122.253 495.812 122.253 496.592C122.253 497.048 122.301 497.492 123.045 497.744L126.213 498.8C127.329 499.172 127.953 499.592 127.953 500.912C127.953 502.052 127.509 503 126.213 503H121.209ZM129.038 503V494.6H130.046V496.64H132.23C133.634 496.64 134.438 497.24 134.438 498.8V503H133.43V498.932C133.43 497.972 133.058 497.456 132.098 497.456H130.046V503H129.038ZM138.695 496.568C140.975 496.568 141.959 497.396 141.959 499.796C141.959 502.208 140.975 503.072 138.695 503.072C136.415 503.072 135.431 502.208 135.431 499.796C135.431 497.396 136.415 496.568 138.695 496.568ZM136.487 499.796C136.487 501.596 137.075 502.256 138.695 502.256C140.315 502.256 140.903 501.596 140.903 499.796C140.903 497.996 140.315 497.384 138.695 497.384C137.075 497.384 136.487 497.996 136.487 499.796ZM142.959 503V498.932C142.959 497.36 143.727 496.64 145.299 496.64H145.995V497.456H145.479C144.375 497.456 143.967 498.02 143.967 499.184V503H142.959ZM150.241 503H149.485C147.901 503 147.457 502.244 147.457 500.96V497.456H146.521V496.64H147.457V494.6H148.465V496.64H150.241V497.456H148.465V500.9C148.465 501.884 148.849 502.184 149.821 502.184H150.241V503ZM152.974 503L156.166 495.428C156.418 494.84 156.682 494.504 157.318 494.504C157.93 494.504 158.242 494.852 158.482 495.428L161.662 503H160.486L159.538 500.72H155.086L154.15 503H152.974ZM157.03 495.956L155.422 499.808H159.202L157.618 495.956C157.546 495.788 157.462 495.548 157.318 495.548C157.174 495.548 157.102 495.788 157.03 495.956ZM162.116 503V502.184H165.728C166.256 502.184 166.496 501.908 166.496 501.38C166.496 500.708 165.92 500.588 164.936 500.348L163.772 500.06C162.56 499.76 162.02 499.292 162.02 498.224C162.02 497.156 162.62 496.64 163.736 496.64H167.18V497.456H163.844C163.256 497.456 163.028 497.66 163.028 498.224C163.028 498.932 163.52 499.1 164.216 499.28L165.476 499.604C166.76 499.928 167.552 500.156 167.552 501.392C167.552 502.376 167.192 503 165.98 503H162.116ZM168.374 503V502.184H171.986C172.514 502.184 172.754 501.908 172.754 501.38C172.754 500.708 172.178 500.588 171.194 500.348L170.03 500.06C168.818 499.76 168.278 499.292 168.278 498.224C168.278 497.156 168.878 496.64 169.994 496.64H173.438V497.456H170.102C169.514 497.456 169.286 497.66 169.286 498.224C169.286 498.932 169.778 499.1 170.474 499.28L171.734 499.604C173.018 499.928 173.81 500.156 173.81 501.392C173.81 502.376 173.45 503 172.238 503H168.374ZM180.188 503H176.864C174.968 503 174.572 501.764 174.572 499.844C174.572 497.504 175.316 496.568 177.464 496.568C179.156 496.568 180.356 497.12 180.356 499.04C180.356 499.772 180.128 500.156 179.408 500.156H175.616C175.616 501.188 175.796 502.184 177.08 502.184H180.188V503ZM175.616 499.34H179.012C179.252 499.34 179.3 499.16 179.3 499.016V498.968C179.3 497.768 178.544 497.384 177.476 497.384C176.168 497.384 175.616 497.888 175.616 499.34ZM181.206 503V502.184H184.818C185.346 502.184 185.586 501.908 185.586 501.38C185.586 500.708 185.01 500.588 184.026 500.348L182.862 500.06C181.65 499.76 181.11 499.292 181.11 498.224C181.11 497.156 181.71 496.64 182.826 496.64H186.27V497.456H182.934C182.346 497.456 182.118 497.66 182.118 498.224C182.118 498.932 182.61 499.1 183.306 499.28L184.566 499.604C185.85 499.928 186.642 500.156 186.642 501.392C186.642 502.376 186.282 503 185.07 503H181.206ZM187.464 503V502.184H191.076C191.604 502.184 191.844 501.908 191.844 501.38C191.844 500.708 191.268 500.588 190.284 500.348L189.12 500.06C187.908 499.76 187.368 499.292 187.368 498.224C187.368 497.156 187.968 496.64 189.084 496.64H192.528V497.456H189.192C188.604 497.456 188.376 497.66 188.376 498.224C188.376 498.932 188.868 499.1 189.564 499.28L190.824 499.604C192.108 499.928 192.9 500.156 192.9 501.392C192.9 502.376 192.54 503 191.328 503H187.464ZM193.866 503V497.684C193.866 497.024 194.142 496.64 194.838 496.64H200.526C201.906 496.64 202.674 497.24 202.674 498.704V503H201.666V498.884C201.666 498.02 201.354 497.456 200.394 497.456H198.774V503H197.766V497.456H195.246C195.006 497.456 194.874 497.54 194.874 497.864V503H193.866ZM209.285 503H205.961C204.065 503 203.669 501.764 203.669 499.844C203.669 497.504 204.413 496.568 206.561 496.568C208.253 496.568 209.453 497.12 209.453 499.04C209.453 499.772 209.225 500.156 208.505 500.156H204.713C204.713 501.188 204.893 502.184 206.177 502.184H209.285V503ZM204.713 499.34H208.109C208.349 499.34 208.397 499.16 208.397 499.016V498.968C208.397 497.768 207.641 497.384 206.573 497.384C205.265 497.384 204.713 497.888 204.713 499.34ZM210.448 503V497.684C210.448 497.024 210.724 496.64 211.42 496.64H213.7C215.08 496.64 215.848 497.24 215.848 498.704V503H214.84V498.884C214.84 498.02 214.528 497.456 213.568 497.456H211.828C211.588 497.456 211.456 497.54 211.456 497.864V503H210.448ZM220.213 503H219.457C217.873 503 217.429 502.244 217.429 500.96V497.456H216.493V496.64H217.429V494.6H218.437V496.64H220.213V497.456H218.437V500.9C218.437 501.884 218.821 502.184 219.793 502.184H220.213V503Z" fill="#00C1AE"/>
<path d="M50.26 522.23V520.47L48.74 521.35L48.45 520.84L49.97 519.96L48.45 519.08C48.54 518.92 48.64 518.76 48.73 518.59L50.26 519.47V517.71H50.83V519.47L52.35 518.59L52.64 519.1L51.12 519.98L52.64 520.86L52.35 521.35L50.83 520.47V522.23H50.26ZM57.0019 525H56.0719V518H57.0019V525ZM64.6084 518V524.2C64.6084 524.79 64.2684 525.08 63.7684 525.08C63.3884 525.08 63.1184 524.96 62.8484 524.53L59.5484 519.25C59.4784 519.13 59.4184 519.08 59.3484 519.08C59.3084 519.08 59.2084 519.12 59.2084 519.28V525H58.2984V518.75C58.2984 518.11 58.7684 517.92 59.1584 517.92C59.6684 517.92 59.8884 518.16 60.0584 518.43L63.3884 523.75C63.4384 523.83 63.4784 523.92 63.5784 523.92C63.6984 523.92 63.6984 523.81 63.6984 523.75V518H64.6084ZM65.9059 525V519.06C65.9059 518.31 66.2759 518 66.9359 518H70.1759C71.4659 518 71.8759 518.82 71.8759 520.12C71.8759 521.46 71.4959 522.35 70.2859 522.35H69.1559V522.4L72.0259 525H70.7859L68.1059 522.54C67.9759 522.42 67.8459 522.27 67.8459 522.1V521.94C67.8459 521.73 67.9959 521.59 68.2659 521.59H69.9759C70.8259 521.59 70.9059 520.97 70.9059 520.12C70.9059 519.25 70.7659 518.76 69.8259 518.76H67.3359C67.0159 518.76 66.8359 518.86 66.8359 519.24V525H65.9059ZM79.9678 525H75.7878C75.4678 525 75.1578 524.83 75.1578 524.34C75.1578 523.97 75.2878 523.78 75.5078 523.61L78.8678 521.12C79.2878 520.81 79.3578 520.51 79.3578 519.94C79.3578 519.23 79.2778 518.77 78.4378 518.77H75.6478V518H78.7178C79.8978 518 80.3078 518.56 80.3078 519.85C80.3078 520.73 80.1678 521.19 79.4578 521.72L76.3578 524.04C76.2978 524.09 76.2378 524.13 76.2378 524.17C76.2378 524.22 76.2678 524.24 76.3278 524.24H79.9678V525ZM81.3851 526.01L80.7051 525.6L81.7951 523.78L82.5151 524.21L81.3851 526.01ZM87.6284 522.22H85.3384C84.0384 522.22 83.5184 521.53 83.5184 520.17C83.5184 518.84 83.8984 518 85.3884 518H86.7784C88.0184 518 88.5584 518.66 88.5584 519.92V523.2C88.5584 524.26 87.9884 525 86.8584 525H83.8584V524.24H86.5684C87.2384 524.24 87.6284 523.86 87.6284 523.15V522.22ZM87.6284 521.46V519.88C87.6284 519.12 87.3884 518.76 86.5584 518.76H85.6184C84.7384 518.76 84.4884 519.26 84.4884 520.17C84.4884 521.01 84.7584 521.46 85.7184 521.46H87.6284ZM93.6635 522.22H91.3735C90.0735 522.22 89.5535 521.53 89.5535 520.17C89.5535 518.84 89.9335 518 91.4235 518H92.8135C94.0535 518 94.5935 518.66 94.5935 519.92V523.2C94.5935 524.26 94.0235 525 92.8935 525H89.8935V524.24H92.6035C93.2735 524.24 93.6635 523.86 93.6635 523.15V522.22ZM93.6635 521.46V519.88C93.6635 519.12 93.4235 518.76 92.5935 518.76H91.6535C90.7735 518.76 90.5235 519.26 90.5235 520.17C90.5235 521.01 90.7935 521.46 91.7535 521.46H93.6635ZM99.6987 522.22H97.4087C96.1087 522.22 95.5887 521.53 95.5887 520.17C95.5887 518.84 95.9687 518 97.4587 518H98.8487C100.089 518 100.629 518.66 100.629 519.92V523.2C100.629 524.26 100.059 525 98.9287 525H95.9287V524.24H98.6387C99.3087 524.24 99.6987 523.86 99.6987 523.15V522.22ZM99.6987 521.46V519.88C99.6987 519.12 99.4587 518.76 98.6287 518.76H97.6887C96.8087 518.76 96.5587 519.26 96.5587 520.17C96.5587 521.01 96.8287 521.46 97.7887 521.46H99.6987ZM108.568 519.7V524.13C108.568 524.69 108.338 525 107.758 525H105.798C104.648 525 104.008 524.5 104.008 523.28V519.7H104.848V523.13C104.848 523.85 105.108 524.32 105.908 524.32H107.418C107.618 524.32 107.728 524.25 107.728 523.98V519.7H108.568ZM110.404 525V526.7H109.564V520.53C109.564 519.93 109.914 519.7 110.434 519.7H112.024C113.724 519.7 114.194 520.68 114.194 522.33C114.194 523.98 113.724 525 112.024 525H110.404ZM110.404 520.69V524.32H111.874C113.144 524.32 113.314 523.48 113.314 522.33C113.314 521.18 113.144 520.38 111.874 520.38H110.714C110.514 520.38 110.404 520.45 110.404 520.69ZM116.123 525H115.283V520.38H114.523V519.7H115.283C115.283 518.29 116.243 517.94 117.563 517.94V518.61C116.793 518.61 116.163 518.73 116.123 519.7H117.563V520.38H116.123V525ZM118.061 525V521.61C118.061 520.3 118.701 519.7 120.011 519.7H120.591V520.38H120.161C119.241 520.38 118.901 520.85 118.901 521.82V525H118.061ZM123.443 519.64C125.343 519.64 126.163 520.33 126.163 522.33C126.163 524.34 125.343 525.06 123.443 525.06C121.543 525.06 120.723 524.34 120.723 522.33C120.723 520.33 121.543 519.64 123.443 519.64ZM121.603 522.33C121.603 523.83 122.093 524.38 123.443 524.38C124.793 524.38 125.283 523.83 125.283 522.33C125.283 520.83 124.793 520.32 123.443 520.32C122.093 520.32 121.603 520.83 121.603 522.33ZM126.996 525V520.57C126.996 520.02 127.226 519.7 127.806 519.7H129.706C130.856 519.7 131.496 520.2 131.496 521.42V525H130.656V521.57C130.656 520.85 130.396 520.38 129.596 520.38H128.146C127.946 520.38 127.836 520.45 127.836 520.72V525H126.996ZM135.134 525H134.504C133.184 525 132.814 524.37 132.814 523.3V520.38H132.034V519.7H132.814V518H133.654V519.7H135.134V520.38H133.654V523.25C133.654 524.07 133.974 524.32 134.784 524.32H135.134V525ZM138.242 519.7H141.032C141.972 519.7 142.412 520.28 142.412 521.15V524.2C142.412 524.74 142.202 525 141.582 525H139.222C138.252 525 137.842 524.48 137.842 523.38C137.842 522.33 138.252 521.77 139.222 521.77H141.572V521.14C141.572 520.69 141.352 520.38 140.822 520.38H138.242V519.7ZM141.572 522.45H139.382C138.862 522.45 138.722 522.81 138.722 523.38C138.722 523.95 138.862 524.32 139.382 524.32H141.292C141.482 524.32 141.572 524.21 141.572 524.05V522.45ZM143.412 525V520.57C143.412 520.02 143.642 519.7 144.222 519.7H146.122C147.272 519.7 147.912 520.2 147.912 521.42V525H147.072V521.57C147.072 520.85 146.812 520.38 146.012 520.38H144.562C144.362 520.38 144.252 520.45 144.252 520.72V525H143.412ZM152.56 525H150.94C149.19 525 148.74 524.05 148.74 522.35C148.74 520.7 149.19 519.7 150.94 519.7H152.53V518H153.37V524.17C153.37 524.69 153.17 525 152.56 525ZM152.53 520.39H151.1C149.83 520.39 149.62 521.1 149.62 522.35C149.62 523.65 149.83 524.32 151.1 524.32H152.18C152.46 524.32 152.53 524.21 152.53 523.94V520.39ZM159.163 525H157.683C157.063 525 156.703 524.81 156.703 524.14V518H157.543V519.7H159.163C160.863 519.7 161.333 520.67 161.333 522.32C161.333 523.97 160.863 525 159.163 525ZM157.543 520.38V523.96C157.543 524.19 157.603 524.32 157.883 524.32H159.013C160.283 524.32 160.453 523.47 160.453 522.32C160.453 521.17 160.283 520.38 159.013 520.38H157.543ZM162.392 519.7H165.182C166.122 519.7 166.562 520.28 166.562 521.15V524.2C166.562 524.74 166.352 525 165.732 525H163.372C162.402 525 161.992 524.48 161.992 523.38C161.992 522.33 162.402 521.77 163.372 521.77H165.722V521.14C165.722 520.69 165.502 520.38 164.972 520.38H162.392V519.7ZM165.722 522.45H163.532C163.012 522.45 162.872 522.81 162.872 523.38C162.872 523.95 163.012 524.32 163.532 524.32H165.442C165.632 524.32 165.722 524.21 165.722 524.05V522.45ZM167.563 525V518H168.403V525H167.563ZM169.628 519.7H172.418C173.358 519.7 173.798 520.28 173.798 521.15V524.2C173.798 524.74 173.588 525 172.968 525H170.608C169.638 525 169.228 524.48 169.228 523.38C169.228 522.33 169.638 521.77 170.608 521.77H172.958V521.14C172.958 520.69 172.738 520.38 172.208 520.38H169.628V519.7ZM172.958 522.45H170.768C170.248 522.45 170.108 522.81 170.108 523.38C170.108 523.95 170.248 524.32 170.768 524.32H172.678C172.868 524.32 172.958 524.21 172.958 524.05V522.45ZM174.799 525V520.57C174.799 520.02 175.029 519.7 175.609 519.7H177.509C178.659 519.7 179.299 520.2 179.299 521.42V525H178.459V521.57C178.459 520.85 178.199 520.38 177.399 520.38H175.949C175.749 520.38 175.639 520.45 175.639 520.72V525H174.799ZM184.497 525H182.377C180.577 525 180.127 523.99 180.127 522.34C180.127 520.74 180.577 519.7 182.377 519.7H184.387V520.38H182.527C181.207 520.38 181.007 521.14 181.007 522.34C181.007 523.59 181.207 524.32 182.527 524.32H184.497V525ZM189.475 525H186.705C185.125 525 184.795 523.97 184.795 522.37C184.795 520.42 185.415 519.64 187.205 519.64C188.615 519.64 189.615 520.1 189.615 521.7C189.615 522.31 189.425 522.63 188.825 522.63H185.665C185.665 523.49 185.815 524.32 186.885 524.32H189.475V525ZM185.665 521.95H188.495C188.695 521.95 188.735 521.8 188.735 521.68V521.64C188.735 520.64 188.105 520.32 187.215 520.32C186.125 520.32 185.665 520.74 185.665 521.95ZM193.007 519.7H195.797C196.737 519.7 197.177 520.28 197.177 521.15V524.2C197.177 524.74 196.967 525 196.347 525H193.987C193.017 525 192.607 524.48 192.607 523.38C192.607 522.33 193.017 521.77 193.987 521.77H196.337V521.14C196.337 520.69 196.117 520.38 195.587 520.38H193.007V519.7ZM196.337 522.45H194.147C193.627 522.45 193.487 522.81 193.487 523.38C193.487 523.95 193.627 524.32 194.147 524.32H196.057C196.247 524.32 196.337 524.21 196.337 524.05V522.45ZM198.178 525V520.57C198.178 520.02 198.408 519.7 198.988 519.7H203.728C204.878 519.7 205.518 520.2 205.518 521.42V525H204.678V521.57C204.678 520.85 204.418 520.38 203.618 520.38H202.268V525H201.428V520.38H199.328C199.128 520.38 199.018 520.45 199.018 520.72V525H198.178ZM209.068 519.64C210.968 519.64 211.788 520.33 211.788 522.33C211.788 524.34 210.968 525.06 209.068 525.06C207.168 525.06 206.348 524.34 206.348 522.33C206.348 520.33 207.168 519.64 209.068 519.64ZM207.228 522.33C207.228 523.83 207.718 524.38 209.068 524.38C210.418 524.38 210.908 523.83 210.908 522.33C210.908 520.83 210.418 520.32 209.068 520.32C207.718 520.32 207.228 520.83 207.228 522.33ZM217.181 519.7V524.13C217.181 524.69 216.951 525 216.371 525H214.411C213.261 525 212.621 524.5 212.621 523.28V519.7H213.461V523.13C213.461 523.85 213.721 524.32 214.521 524.32H216.031C216.231 524.32 216.341 524.25 216.341 523.98V519.7H217.181ZM218.178 525V520.57C218.178 520.02 218.408 519.7 218.988 519.7H220.888C222.038 519.7 222.678 520.2 222.678 521.42V525H221.838V521.57C221.838 520.85 221.578 520.38 220.778 520.38H219.328C219.128 520.38 219.018 520.45 219.018 520.72V525H218.178ZM226.316 525H225.686C224.366 525 223.996 524.37 223.996 523.3V520.38H223.216V519.7H223.996V518H224.836V519.7H226.316V520.38H224.836V523.25C224.836 524.07 225.156 524.32 225.966 524.32H226.316V525ZM48.73 532.7H51.52C52.46 532.7 52.9 533.28 52.9 534.15V537.2C52.9 537.74 52.69 538 52.07 538H49.71C48.74 538 48.33 537.48 48.33 536.38C48.33 535.33 48.74 534.77 49.71 534.77H52.06V534.14C52.06 533.69 51.84 533.38 51.31 533.38H48.73V532.7ZM52.06 535.45H49.87C49.35 535.45 49.21 535.81 49.21 536.38C49.21 536.95 49.35 537.32 49.87 537.32H51.78C51.97 537.32 52.06 537.21 52.06 537.05V535.45ZM55.0004 538H54.1604V533.38H53.4004V532.7H54.1604C54.1604 531.29 55.1204 530.94 56.4404 530.94V531.61C55.6704 531.61 55.0404 531.73 55.0004 532.7H56.4404V533.38H55.0004V538ZM59.9779 538H59.3479C58.0279 538 57.6579 537.37 57.6579 536.3V533.38H56.8779V532.7H57.6579V531H58.4979V532.7H59.9779V533.38H58.4979V536.25C58.4979 537.07 58.8179 537.32 59.6279 537.32H59.9779V538ZM65.0315 538H62.2615C60.6815 538 60.3515 536.97 60.3515 535.37C60.3515 533.42 60.9715 532.64 62.7615 532.64C64.1715 532.64 65.1715 533.1 65.1715 534.7C65.1715 535.31 64.9815 535.63 64.3815 535.63H61.2215C61.2215 536.49 61.3715 537.32 62.4415 537.32H65.0315V538ZM61.2215 534.95H64.0515C64.2515 534.95 64.2915 534.8 64.2915 534.68V534.64C64.2915 533.64 63.6615 533.32 62.7715 533.32C61.6815 533.32 61.2215 533.74 61.2215 534.95ZM66 538V534.61C66 533.3 66.64 532.7 67.95 532.7H68.53V533.38H68.1C67.18 533.38 66.84 533.85 66.84 534.82V538H66ZM71.2413 538V537.32H74.2513C74.6913 537.32 74.8913 537.09 74.8913 536.65C74.8913 536.09 74.4113 535.99 73.5913 535.79L72.6213 535.55C71.6113 535.3 71.1613 534.91 71.1613 534.02C71.1613 533.13 71.6613 532.7 72.5913 532.7H75.4613V533.38H72.6813C72.1913 533.38 72.0013 533.55 72.0013 534.02C72.0013 534.61 72.4113 534.75 72.9913 534.9L74.0413 535.17C75.1113 535.44 75.7713 535.63 75.7713 536.66C75.7713 537.48 75.4713 538 74.4613 538H71.2413ZM81.1362 532.7V537.13C81.1362 537.69 80.9062 538 80.3262 538H78.3662C77.2162 538 76.5762 537.5 76.5762 536.28V532.7H77.4162V536.13C77.4162 536.85 77.6762 537.32 78.4762 537.32H79.9862C80.1862 537.32 80.2962 537.25 80.2962 536.98V532.7H81.1362ZM86.3328 538H84.2128C82.4128 538 81.9628 536.99 81.9628 535.34C81.9628 533.74 82.4128 532.7 84.2128 532.7H86.2228V533.38H84.3628C83.0428 533.38 82.8428 534.14 82.8428 535.34C82.8428 536.59 83.0428 537.32 84.3628 537.32H86.3328V538ZM91.0008 538H88.8808C87.0808 538 86.6308 536.99 86.6308 535.34C86.6308 533.74 87.0808 532.7 88.8808 532.7H90.8908V533.38H89.0308C87.7108 533.38 87.5108 534.14 87.5108 535.34C87.5108 536.59 87.7108 537.32 89.0308 537.32H91.0008V538ZM95.9788 538H93.2088C91.6287 538 91.2987 536.97 91.2987 535.37C91.2987 533.42 91.9188 532.64 93.7088 532.64C95.1188 532.64 96.1188 533.1 96.1188 534.7C96.1188 535.31 95.9288 535.63 95.3288 535.63H92.1688C92.1688 536.49 92.3188 537.32 93.3888 537.32H95.9788V538ZM92.1688 534.95H94.9988C95.1988 534.95 95.2388 534.8 95.2388 534.68V534.64C95.2388 533.64 94.6088 533.32 93.7188 533.32C92.6288 533.32 92.1688 533.74 92.1688 534.95ZM96.8273 538V537.32H99.8373C100.277 537.32 100.477 537.09 100.477 536.65C100.477 536.09 99.9973 535.99 99.1773 535.79L98.2073 535.55C97.1973 535.3 96.7473 534.91 96.7473 534.02C96.7473 533.13 97.2473 532.7 98.1773 532.7H101.047V533.38H98.2673C97.7773 533.38 97.5873 533.55 97.5873 534.02C97.5873 534.61 97.9973 534.75 98.5773 534.9L99.6273 535.17C100.697 535.44 101.357 535.63 101.357 536.66C101.357 537.48 101.057 538 100.047 538H96.8273ZM102.042 538V537.32H105.052C105.492 537.32 105.692 537.09 105.692 536.65C105.692 536.09 105.212 535.99 104.392 535.79L103.422 535.55C102.412 535.3 101.962 534.91 101.962 534.02C101.962 533.13 102.462 532.7 103.392 532.7H106.262V533.38H103.482C102.992 533.38 102.802 533.55 102.802 534.02C102.802 534.61 103.212 534.75 103.792 534.9L104.842 535.17C105.912 535.44 106.572 535.63 106.572 536.66C106.572 537.48 106.272 538 105.262 538H102.042ZM110.551 538V539.7H109.711V533.53C109.711 532.93 110.061 532.7 110.581 532.7H112.171C113.871 532.7 114.341 533.68 114.341 535.33C114.341 536.98 113.871 538 112.171 538H110.551ZM110.551 533.69V537.32H112.021C113.291 537.32 113.461 536.48 113.461 535.33C113.461 534.18 113.291 533.38 112.021 533.38H110.861C110.661 533.38 110.551 533.45 110.551 533.69ZM115.17 538V531H116.01V538H115.17ZM117.236 532.7H120.026C120.966 532.7 121.406 533.28 121.406 534.15V537.2C121.406 537.74 121.196 538 120.576 538H118.216C117.246 538 116.836 537.48 116.836 536.38C116.836 535.33 117.246 534.77 118.216 534.77H120.566V534.14C120.566 533.69 120.346 533.38 119.816 533.38H117.236V532.7ZM120.566 535.45H118.376C117.856 535.45 117.716 535.81 117.716 536.38C117.716 536.95 117.856 537.32 118.376 537.32H120.286C120.476 537.32 120.566 537.21 120.566 537.05V535.45ZM126.606 538H124.486C122.686 538 122.236 536.99 122.236 535.34C122.236 533.74 122.686 532.7 124.486 532.7H126.496V533.38H124.636C123.316 533.38 123.116 534.14 123.116 535.34C123.116 536.59 123.316 537.32 124.636 537.32H126.606V538ZM131.584 538H128.814C127.234 538 126.904 536.97 126.904 535.37C126.904 533.42 127.524 532.64 129.314 532.64C130.724 532.64 131.724 533.1 131.724 534.7C131.724 535.31 131.534 535.63 130.934 535.63H127.774C127.774 536.49 127.924 537.32 128.994 537.32H131.584V538ZM127.774 534.95H130.604C130.804 534.95 130.844 534.8 130.844 534.68V534.64C130.844 533.64 130.214 533.32 129.324 533.32C128.234 533.32 127.774 533.74 127.774 534.95ZM132.553 538V533.57C132.553 533.02 132.783 532.7 133.363 532.7H138.103C139.253 532.7 139.893 533.2 139.893 534.42V538H139.053V534.57C139.053 533.85 138.793 533.38 137.993 533.38H136.643V538H135.803V533.38H133.703C133.503 533.38 133.393 533.45 133.393 533.72V538H132.553ZM145.403 538H142.633C141.053 538 140.723 536.97 140.723 535.37C140.723 533.42 141.343 532.64 143.133 532.64C144.543 532.64 145.543 533.1 145.543 534.7C145.543 535.31 145.353 535.63 144.753 535.63H141.593C141.593 536.49 141.743 537.32 142.813 537.32H145.403V538ZM141.593 534.95H144.423C144.623 534.95 144.663 534.8 144.663 534.68V534.64C144.663 533.64 144.033 533.32 143.143 533.32C142.053 533.32 141.593 533.74 141.593 534.95ZM146.371 538V533.57C146.371 533.02 146.601 532.7 147.181 532.7H149.081C150.231 532.7 150.871 533.2 150.871 534.42V538H150.031V534.57C150.031 533.85 149.771 533.38 148.971 533.38H147.521C147.321 533.38 147.211 533.45 147.211 533.72V538H146.371ZM154.509 538H153.879C152.559 538 152.189 537.37 152.189 536.3V533.38H151.409V532.7H152.189V531H153.029V532.7H154.509V533.38H153.029V536.25C153.029 537.07 153.349 537.32 154.159 537.32H154.509V538Z" fill="#D2D1D1"/>
<g filter="url(#filter1_dd_1645_6163)">
<path d="M33 138C33 129.163 40.1634 122 49 122H254C262.837 122 270 129.163 270 138V219C270 227.837 262.837 235 254 235H49C40.1634 235 33 227.837 33 219V138Z" fill="url(#paint1_linear_1645_6163)" shape-rendering="crispEdges"/>
</g>
<path d="M52.416 149.256L54.656 140.792C54.768 140.376 55.008 139.672 56 139.672C56.928 139.672 57.216 140.344 57.344 140.792L59.584 149.256C59.616 149.4 59.744 149.528 59.856 149.528C60.016 149.528 60.08 149.304 60.112 149.192L62.496 139.8H64L61.328 149.88C61.104 150.712 60.752 151.128 59.888 151.128C58.864 151.128 58.592 150.52 58.432 149.896L56.24 141.672C56.208 141.528 56.144 141.368 56 141.368C55.856 141.368 55.792 141.528 55.76 141.672L53.552 149.896C53.392 150.52 53.136 151.128 52.112 151.128C51.248 151.128 50.896 150.712 50.672 149.88L48 139.8H49.504L51.888 149.192C51.92 149.304 51.952 149.528 52.144 149.528C52.256 149.528 52.384 149.4 52.416 149.256ZM74.56 139.8V151H73.072V145.88H66.528V151H65.04V139.8H66.528V144.664H73.072V139.8H74.56ZM81.8978 139.672C86.0258 139.672 87.4818 141.112 87.4818 145.4C87.4818 149.688 86.0258 151.128 81.8978 151.128C77.8018 151.128 76.3138 149.688 76.3138 145.4C76.3138 141.112 77.8018 139.672 81.8978 139.672ZM77.8658 145.4C77.8658 148.792 78.7138 149.912 81.8978 149.912C85.0818 149.912 85.9298 148.792 85.9298 145.4C85.9298 142.024 85.0818 140.888 81.8978 140.888C78.7138 140.888 77.8658 142.024 77.8658 145.4ZM94.4655 151H92.9775V139.8H94.4655V151ZM96.3 151V149.784H102.556C103.404 149.784 103.74 149.192 103.74 148.216C103.74 147.624 103.612 147.032 102.492 146.664L98.06 145.192C96.716 144.744 96.14 143.976 96.14 142.424C96.14 140.824 96.908 139.8 98.684 139.8H104.748V141.016H98.956C98.108 141.016 97.692 141.416 97.692 142.456C97.692 143.064 97.756 143.656 98.748 143.992L102.972 145.4C104.46 145.896 105.292 146.456 105.292 148.216C105.292 149.736 104.7 151 102.972 151H96.3ZM112.2 151H110.712V139.8H112.2V151ZM119.25 151H117.762V141.016H113.234V139.8H123.778V141.016H119.25V151ZM130.044 151H128.556V141.384C128.556 140.184 129.148 139.8 130.124 139.8H136.876V141.016H130.78C130.156 141.016 130.044 141.208 130.044 141.768V144.776H135.036V145.992H130.044V151ZM142.773 139.672C146.901 139.672 148.357 141.112 148.357 145.4C148.357 149.688 146.901 151.128 142.773 151.128C138.677 151.128 137.189 149.688 137.189 145.4C137.189 141.112 138.677 139.672 142.773 139.672ZM138.741 145.4C138.741 148.792 139.589 149.912 142.773 149.912C145.957 149.912 146.805 148.792 146.805 145.4C146.805 142.024 145.957 140.888 142.773 140.888C139.589 140.888 138.741 142.024 138.741 145.4ZM150.118 151V141.496C150.118 140.296 150.71 139.8 151.766 139.8H156.95C159.014 139.8 159.67 141.112 159.67 143.192C159.67 145.336 159.062 146.76 157.126 146.76H155.318V146.84L159.91 151H157.926L153.638 147.064C153.43 146.872 153.222 146.632 153.222 146.36V146.104C153.222 145.768 153.462 145.544 153.894 145.544H156.63C157.99 145.544 158.118 144.552 158.118 143.192C158.118 141.8 157.894 141.016 156.39 141.016H152.406C151.894 141.016 151.606 141.176 151.606 141.784V151H150.118ZM162.323 151V149.4H163.731V151H162.323ZM163.731 148.184H162.323V147.112C162.323 146.072 162.755 145.656 163.539 145.192L164.803 144.456C165.523 144.04 165.715 143.608 165.715 142.744C165.715 141.576 165.427 141.016 164.275 141.016H160.787V139.8H164.739C166.451 139.8 167.267 140.568 167.267 142.536C167.267 143.816 166.883 144.552 165.843 145.16L164.435 146.008C164.067 146.232 163.731 146.552 163.731 147.048V148.184Z" fill="#FFF0F0"/>
<path d="M49.736 178H48.98V169.502C48.98 168.522 49.442 168.2 50.31 168.2H55.756V168.872H50.338C49.806 168.872 49.736 169.082 49.736 169.502V172.792H54.132V173.464H49.736V178ZM55.674 178V173.128C55.674 171.448 56.472 170.58 58.152 170.58H58.656V171.238H58.152C56.892 171.238 56.402 171.896 56.402 173.296V178H55.674ZM65.083 178H61.443C59.399 178 58.881 176.46 58.881 174.346C58.881 171.84 59.553 170.496 62.059 170.496C63.893 170.496 65.251 171.224 65.251 173.324C65.251 174.178 65.027 174.542 64.187 174.542H59.637C59.637 175.844 59.861 177.342 61.443 177.342H65.083V178ZM59.637 173.884H64.187C64.425 173.884 64.495 173.688 64.495 173.548V173.45C64.495 171.63 63.599 171.154 62.073 171.154C60.421 171.154 59.637 171.756 59.637 173.884ZM66.2358 178V177.342H70.4918C71.3738 177.342 71.5558 176.88 71.5558 176.138C71.5558 175.256 71.0098 175.13 69.5118 174.78L68.2238 174.486C66.9918 174.206 66.1238 173.786 66.1238 172.372C66.1238 171.21 66.8658 170.58 67.9858 170.58H71.8358V171.238H67.9858C67.1458 171.238 66.8798 171.588 66.8798 172.372C66.8798 173.394 67.3978 173.59 68.4758 173.842L69.8198 174.15C71.4858 174.528 72.3118 174.766 72.3118 176.138C72.3118 177.286 71.9198 178 70.4918 178H66.2358ZM73.4337 178V168.2H74.1617V170.58H77.0177C78.6137 170.58 79.3137 171.392 79.3137 173.072V178H78.5857V172.988C78.5857 171.868 78.1377 171.238 77.0177 171.238H74.1617V178H73.4337ZM86.7802 178H83.1402C81.0962 178 80.5782 176.46 80.5782 174.346C80.5782 171.84 81.2502 170.496 83.7562 170.496C85.5902 170.496 86.9482 171.224 86.9482 173.324C86.9482 174.178 86.7242 174.542 85.8842 174.542H81.3342C81.3342 175.844 81.5582 177.342 83.1402 177.342H86.7802V178ZM81.3342 173.884H85.8842C86.1222 173.884 86.1922 173.688 86.1922 173.548V173.45C86.1922 171.63 85.2962 171.154 83.7702 171.154C82.1182 171.154 81.3342 171.756 81.3342 173.884ZM88.213 178V173.128C88.213 171.448 89.011 170.58 90.691 170.58H91.195V171.238H90.691C89.431 171.238 88.941 171.896 88.941 173.296V178H88.213ZM91.6655 178V177.342H95.9215C96.8035 177.342 96.9855 176.88 96.9855 176.138C96.9855 175.256 96.4395 175.13 94.9415 174.78L93.6535 174.486C92.4215 174.206 91.5535 173.786 91.5535 172.372C91.5535 171.21 92.2955 170.58 93.4155 170.58H97.2655V171.238H93.4155C92.5755 171.238 92.3095 171.588 92.3095 172.372C92.3095 173.394 92.8275 173.59 93.9055 173.842L95.2495 174.15C96.9155 174.528 97.7415 174.766 97.7415 176.138C97.7415 177.286 97.3495 178 95.9215 178H91.6655ZM102.439 170.58H106.037C107.269 170.58 107.815 171.266 107.815 172.442V177.02C107.815 177.678 107.633 178 106.737 178H103.881C102.411 178 101.879 177.3 101.879 175.76C101.879 174.22 102.425 173.562 103.881 173.562H107.087V172.316C107.087 171.756 106.821 171.238 106.037 171.238H102.439V170.58ZM107.087 174.22H103.685C102.789 174.22 102.635 174.864 102.635 175.76C102.635 176.656 102.789 177.342 103.685 177.342H106.737C106.989 177.342 107.087 177.174 107.087 177.006V174.22ZM109.322 178V171.756C109.322 171.042 109.546 170.58 110.33 170.58H113.06C114.6 170.58 115.202 171.406 115.202 172.862V178H114.474V172.862C114.474 171.966 114.18 171.238 113.06 171.238H110.498C110.218 171.238 110.05 171.294 110.05 171.77V178H109.322ZM121.563 178H119.603C117.083 178 116.467 176.81 116.467 174.29C116.467 171.91 117.083 170.58 119.603 170.58H121.843V168.2H122.571V176.922C122.571 177.552 122.445 178 121.563 178ZM121.843 171.238H119.603C117.643 171.238 117.223 172.19 117.223 174.29C117.223 176.53 117.643 177.342 119.603 177.342H121.283C121.787 177.342 121.843 177.174 121.843 176.712V171.238ZM133.306 178H129.666C127.622 178 127.104 176.46 127.104 174.346C127.104 171.84 127.776 170.496 130.282 170.496C132.116 170.496 133.474 171.224 133.474 173.324C133.474 174.178 133.25 174.542 132.41 174.542H127.86C127.86 175.844 128.084 177.342 129.666 177.342H133.306V178ZM127.86 173.884H132.41C132.648 173.884 132.718 173.688 132.718 173.548V173.45C132.718 171.63 131.822 171.154 130.296 171.154C128.644 171.154 127.86 171.756 127.86 173.884ZM134.738 178V171.756C134.738 171.042 134.962 170.58 135.746 170.58H138.476C140.016 170.58 140.618 171.406 140.618 172.862V178H139.89V172.862C139.89 171.966 139.596 171.238 138.476 171.238H135.914C135.634 171.238 135.466 171.294 135.466 171.77V178H134.738ZM145.257 178H144.557C142.541 178 142.541 176.824 142.541 175.648V171.238H141.379V170.58H142.541V168.2H143.269V170.58H145.257V171.238H143.269V175.858C143.269 177.02 143.577 177.342 144.725 177.342H145.257V178ZM146.018 178V173.128C146.018 171.448 146.816 170.58 148.496 170.58H149V171.238H148.496C147.236 171.238 146.746 171.896 146.746 173.296V178H146.018ZM156.695 170.58L152.271 180.394H151.487L152.607 177.958L149.471 170.58H150.255L152.999 177.09L155.911 170.58H156.695ZM160.633 178V168.2H161.361V178H160.633ZM168.825 178H165.185C163.141 178 162.623 176.46 162.623 174.346C162.623 171.84 163.295 170.496 165.801 170.496C167.635 170.496 168.993 171.224 168.993 173.324C168.993 174.178 168.769 174.542 167.929 174.542H163.379C163.379 175.844 163.603 177.342 165.185 177.342H168.825V178ZM163.379 173.884H167.929C168.167 173.884 168.237 173.688 168.237 173.548V173.45C168.237 171.63 167.341 171.154 165.815 171.154C164.163 171.154 163.379 171.756 163.379 173.884ZM170.244 170.58L172.638 177.09C172.694 177.244 172.75 177.398 172.848 177.398C172.946 177.398 173.002 177.244 173.058 177.09L175.452 170.58H176.194L173.618 177.44C173.408 177.986 173.128 178.084 172.848 178.084C172.568 178.084 172.288 177.986 172.078 177.44L169.502 170.58H170.244ZM182.894 178H179.254C177.21 178 176.692 176.46 176.692 174.346C176.692 171.84 177.364 170.496 179.87 170.496C181.704 170.496 183.062 171.224 183.062 173.324C183.062 174.178 182.838 174.542 181.998 174.542H177.448C177.448 175.844 177.672 177.342 179.254 177.342H182.894V178ZM177.448 173.884H181.998C182.236 173.884 182.306 173.688 182.306 173.548V173.45C182.306 171.63 181.41 171.154 179.883 171.154C178.232 171.154 177.448 171.756 177.448 173.884ZM184.326 178V168.2H185.054V178H184.326ZM54.706 196H51.066C49.022 196 48.504 194.46 48.504 192.346C48.504 189.84 49.176 188.496 51.682 188.496C53.516 188.496 54.874 189.224 54.874 191.324C54.874 192.178 54.65 192.542 53.81 192.542H49.26C49.26 193.844 49.484 195.342 51.066 195.342H54.706V196ZM49.26 191.884H53.81C54.048 191.884 54.118 191.688 54.118 191.548V191.45C54.118 189.63 53.222 189.154 51.696 189.154C50.044 189.154 49.26 189.756 49.26 191.884ZM56.1388 196V189.756C56.1388 189.042 56.3628 188.58 57.1468 188.58H64.0208C65.5608 188.58 66.1628 189.406 66.1628 190.862V196H65.4348V190.862C65.4348 189.966 65.1408 189.238 64.0208 189.238H61.5148V196H60.7868V189.238H57.3148C57.0348 189.238 56.8668 189.294 56.8668 189.77V196H56.1388ZM68.4059 196V198.38H67.6779V189.644C67.6779 188.804 68.2379 188.58 68.8539 188.58H70.7439C73.1239 188.58 73.7819 189.896 73.7819 192.276C73.7819 194.656 73.1239 196 70.7439 196H68.4059ZM68.4059 189.742V195.342H70.7439C72.7039 195.342 73.0259 194.096 73.0259 192.276C73.0259 190.456 72.7039 189.238 70.7439 189.238H68.8539C68.5599 189.238 68.4059 189.322 68.4059 189.742ZM75.047 196V186.2H75.775V196H75.047ZM80.7052 188.496C83.3652 188.496 84.3732 189.616 84.3732 192.276C84.3732 194.936 83.3652 196.084 80.7052 196.084C78.0452 196.084 77.0372 194.936 77.0372 192.276C77.0372 189.616 78.0452 188.496 80.7052 188.496ZM77.7932 192.276C77.7932 194.656 78.6052 195.426 80.7052 195.426C82.8052 195.426 83.6172 194.656 83.6172 192.276C83.6172 189.896 82.8052 189.154 80.7052 189.154C78.6052 189.154 77.7932 189.896 77.7932 192.276ZM92.013 188.58L87.589 198.394H86.805L87.925 195.958L84.789 188.58H85.573L88.317 195.09L91.229 188.58H92.013ZM98.497 196H94.857C92.813 196 92.295 194.46 92.295 192.346C92.295 189.84 92.967 188.496 95.473 188.496C97.307 188.496 98.665 189.224 98.665 191.324C98.665 192.178 98.441 192.542 97.601 192.542H93.051C93.051 193.844 93.275 195.342 94.857 195.342H98.497V196ZM93.051 191.884H97.601C97.839 191.884 97.909 191.688 97.909 191.548V191.45C97.909 189.63 97.013 189.154 95.487 189.154C93.835 189.154 93.051 189.756 93.051 191.884ZM105.88 196H102.24C100.196 196 99.6778 194.46 99.6778 192.346C99.6778 189.84 100.35 188.496 102.856 188.496C104.69 188.496 106.048 189.224 106.048 191.324C106.048 192.178 105.824 192.542 104.984 192.542H100.434C100.434 193.844 100.658 195.342 102.24 195.342H105.88V196ZM100.434 191.884H104.984C105.222 191.884 105.292 191.688 105.292 191.548V191.45C105.292 189.63 104.396 189.154 102.87 189.154C101.218 189.154 100.434 189.756 100.434 191.884ZM107.033 196V195.342H111.289C112.171 195.342 112.353 194.88 112.353 194.138C112.353 193.256 111.807 193.13 110.309 192.78L109.021 192.486C107.789 192.206 106.921 191.786 106.921 190.372C106.921 189.21 107.663 188.58 108.783 188.58H112.633V189.238H108.783C107.943 189.238 107.677 189.588 107.677 190.372C107.677 191.394 108.195 191.59 109.273 191.842L110.617 192.15C112.283 192.528 113.109 192.766 113.109 194.138C113.109 195.286 112.717 196 111.289 196H107.033ZM117.47 188.58L119.136 195.076C119.178 195.174 119.22 195.3 119.29 195.3C119.388 195.3 119.416 195.132 119.43 195.09L120.984 189.098C121.124 188.58 121.46 188.496 121.684 188.496C121.908 188.496 122.244 188.58 122.384 189.098L123.938 195.09C123.952 195.132 123.98 195.3 124.078 195.3C124.148 195.3 124.19 195.174 124.232 195.076L125.898 188.58H126.626L124.806 195.468C124.722 195.79 124.554 196.084 124.092 196.084C123.56 196.084 123.378 195.664 123.336 195.454L121.824 189.658C121.796 189.532 121.74 189.392 121.684 189.392C121.628 189.392 121.572 189.532 121.544 189.658L120.032 195.454C119.962 195.664 119.836 196.084 119.276 196.084C118.814 196.084 118.646 195.79 118.562 195.468L116.742 188.58H117.47ZM127.411 196V188.58H128.139V196H127.411ZM128.167 187.292H127.383V186.2H128.167V187.292ZM132.802 196H132.102C130.086 196 130.086 194.824 130.086 193.648V189.238H128.924V188.58H130.086V186.2H130.814V188.58H132.802V189.238H130.814V193.858C130.814 195.02 131.122 195.342 132.27 195.342H132.802V196ZM133.563 196V186.2H134.291V188.58H137.147C138.743 188.58 139.443 189.392 139.443 191.072V196H138.715V190.988C138.715 189.868 138.267 189.238 137.147 189.238H134.291V196H133.563ZM150.163 188.58V194.824C150.163 195.538 149.939 196 149.155 196H146.369C144.829 196 144.227 195.174 144.227 193.718V188.58H144.955V193.718C144.955 194.614 145.249 195.342 146.369 195.342H148.987C149.267 195.342 149.435 195.286 149.435 194.81V188.58H150.163ZM152.406 196V198.38H151.678V189.644C151.678 188.804 152.238 188.58 152.854 188.58H154.744C157.124 188.58 157.782 189.896 157.782 192.276C157.782 194.656 157.124 196 154.744 196H152.406ZM152.406 189.742V195.342H154.744C156.704 195.342 157.026 194.096 157.026 192.276C157.026 190.456 156.704 189.238 154.744 189.238H152.854C152.56 189.238 152.406 189.322 152.406 189.742ZM165.437 196H164.737C162.721 196 162.721 194.824 162.721 193.648V189.238H161.559V188.58H162.721V186.2H163.449V188.58H165.437V189.238H163.449V193.858C163.449 195.02 163.757 195.342 164.905 195.342H165.437V196ZM169.477 188.496C172.137 188.496 173.145 189.616 173.145 192.276C173.145 194.936 172.137 196.084 169.477 196.084C166.817 196.084 165.809 194.936 165.809 192.276C165.809 189.616 166.817 188.496 169.477 188.496ZM166.565 192.276C166.565 194.656 167.377 195.426 169.477 195.426C171.577 195.426 172.389 194.656 172.389 192.276C172.389 189.896 171.577 189.154 169.477 189.154C167.377 189.154 166.565 189.896 166.565 192.276ZM178.382 196V187.432C178.382 187.012 178.326 186.872 178.046 186.872H176.912V186.2H178.228C178.788 186.2 179.138 186.438 179.138 187.138V196H178.382ZM190.519 188.58L186.095 198.394H185.311L186.431 195.958L183.295 188.58H184.079L186.823 195.09L189.735 188.58H190.519ZM197.003 196H193.363C191.319 196 190.801 194.46 190.801 192.346C190.801 189.84 191.473 188.496 193.979 188.496C195.813 188.496 197.171 189.224 197.171 191.324C197.171 192.178 196.947 192.542 196.107 192.542H191.557C191.557 193.844 191.781 195.342 193.363 195.342H197.003V196ZM191.557 191.884H196.107C196.345 191.884 196.415 191.688 196.415 191.548V191.45C196.415 189.63 195.519 189.154 193.993 189.154C192.341 189.154 191.557 189.756 191.557 191.884ZM198.744 188.58H202.342C203.574 188.58 204.12 189.266 204.12 190.442V195.02C204.12 195.678 203.938 196 203.042 196H200.186C198.716 196 198.184 195.3 198.184 193.76C198.184 192.22 198.73 191.562 200.186 191.562H203.392V190.316C203.392 189.756 203.126 189.238 202.342 189.238H198.744V188.58ZM203.392 192.22H199.99C199.094 192.22 198.94 192.864 198.94 193.76C198.94 194.656 199.094 195.342 199.99 195.342H203.042C203.294 195.342 203.392 195.174 203.392 195.006V192.22ZM205.627 196V191.128C205.627 189.448 206.425 188.58 208.105 188.58H208.609V189.238H208.105C206.845 189.238 206.355 189.896 206.355 191.296V196H205.627ZM212.599 188.58L214.265 195.076C214.307 195.174 214.349 195.3 214.419 195.3C214.517 195.3 214.545 195.132 214.559 195.09L216.113 189.098C216.253 188.58 216.589 188.496 216.813 188.496C217.037 188.496 217.373 188.58 217.513 189.098L219.067 195.09C219.081 195.132 219.109 195.3 219.207 195.3C219.277 195.3 219.319 195.174 219.361 195.076L221.027 188.58H221.755L219.935 195.468C219.851 195.79 219.683 196.084 219.221 196.084C218.689 196.084 218.507 195.664 218.465 195.454L216.953 189.658C216.925 189.532 216.869 189.392 216.813 189.392C216.757 189.392 216.701 189.532 216.673 189.658L215.161 195.454C215.091 195.664 214.965 196.084 214.405 196.084C213.943 196.084 213.775 195.79 213.691 195.468L211.871 188.58H212.599ZM225.928 188.496C228.588 188.496 229.596 189.616 229.596 192.276C229.596 194.936 228.588 196.084 225.928 196.084C223.268 196.084 222.26 194.936 222.26 192.276C222.26 189.616 223.268 188.496 225.928 188.496ZM223.016 192.276C223.016 194.656 223.828 195.426 225.928 195.426C228.028 195.426 228.84 194.656 228.84 192.276C228.84 189.896 228.028 189.154 225.928 189.154C223.828 189.154 223.016 189.896 223.016 192.276ZM230.852 196V191.128C230.852 189.448 231.65 188.58 233.33 188.58H233.834V189.238H233.33C232.07 189.238 231.58 189.896 231.58 191.296V196H230.852ZM240.45 196H239.442L236.432 193.228C236.194 193.018 235.872 192.598 235.872 192.164C235.872 191.73 236.152 191.38 236.446 191.1L239.134 188.58H240.114L236.894 191.604C236.768 191.716 236.628 191.898 236.628 192.136C236.628 192.43 236.866 192.682 237.034 192.836L240.45 196ZM235.312 196H234.584V186.2H235.312V196ZM54.706 214H51.066C49.022 214 48.504 212.46 48.504 210.346C48.504 207.84 49.176 206.496 51.682 206.496C53.516 206.496 54.874 207.224 54.874 209.324C54.874 210.178 54.65 210.542 53.81 210.542H49.26C49.26 211.844 49.484 213.342 51.066 213.342H54.706V214ZM49.26 209.884H53.81C54.048 209.884 54.118 209.688 54.118 209.548V209.45C54.118 207.63 53.222 207.154 51.696 207.154C50.044 207.154 49.26 207.756 49.26 209.884ZM61.5988 214H60.7168L58.4488 210.738L56.1808 214H55.2988L58.0568 210.192L55.4248 206.58H56.2788L58.4488 209.646L60.6188 206.58H61.4728L58.8548 210.192L61.5988 214ZM63.0055 214V216.38H62.2775V207.644C62.2775 206.804 62.8375 206.58 63.4535 206.58H65.3435C67.7235 206.58 68.3815 207.896 68.3815 210.276C68.3815 212.656 67.7235 214 65.3435 214H63.0055ZM63.0055 207.742V213.342H65.3435C67.3035 213.342 67.6255 212.096 67.6255 210.276C67.6255 208.456 67.3035 207.238 65.3435 207.238H63.4535C63.1595 207.238 63.0055 207.322 63.0055 207.742ZM75.5966 214H71.9566C69.9126 214 69.3946 212.46 69.3946 210.346C69.3946 207.84 70.0666 206.496 72.5726 206.496C74.4066 206.496 75.7646 207.224 75.7646 209.324C75.7646 210.178 75.5406 210.542 74.7006 210.542H70.1506C70.1506 211.844 70.3746 213.342 71.9566 213.342H75.5966V214ZM70.1506 209.884H74.7006C74.9386 209.884 75.0086 209.688 75.0086 209.548V209.45C75.0086 207.63 74.1126 207.154 72.5866 207.154C70.9346 207.154 70.1506 207.756 70.1506 209.884ZM77.0294 214V209.128C77.0294 207.448 77.8274 206.58 79.5074 206.58H80.0114V207.238H79.5074C78.2474 207.238 77.7574 207.896 77.7574 209.296V214H77.0294ZM80.7899 214V206.58H81.5179V214H80.7899ZM81.5459 205.292H80.7619V204.2H81.5459V205.292ZM89.0087 214H85.3687C83.3247 214 82.8067 212.46 82.8067 210.346C82.8067 207.84 83.4787 206.496 85.9847 206.496C87.8187 206.496 89.1767 207.224 89.1767 209.324C89.1767 210.178 88.9527 210.542 88.1127 210.542H83.5627C83.5627 211.844 83.7867 213.342 85.3687 213.342H89.0087V214ZM83.5627 209.884H88.1127C88.3507 209.884 88.4207 209.688 88.4207 209.548V209.45C88.4207 207.63 87.5247 207.154 85.9987 207.154C84.3467 207.154 83.5627 207.756 83.5627 209.884ZM90.4415 214V207.756C90.4415 207.042 90.6655 206.58 91.4495 206.58H94.1795C95.7195 206.58 96.3215 207.406 96.3215 208.862V214H95.5935V208.862C95.5935 207.966 95.2995 207.238 94.1795 207.238H91.6175C91.3375 207.238 91.1695 207.294 91.1695 207.77V214H90.4415ZM103.382 214H100.722C98.202 214 97.586 212.67 97.586 210.29C97.586 208.05 98.202 206.58 100.722 206.58H103.214V207.238H100.722C98.762 207.238 98.342 208.33 98.342 210.29C98.342 212.39 98.762 213.342 100.722 213.342H103.382V214ZM110.036 214H106.396C104.352 214 103.834 212.46 103.834 210.346C103.834 207.84 104.506 206.496 107.012 206.496C108.846 206.496 110.204 207.224 110.204 209.324C110.204 210.178 109.98 210.542 109.14 210.542H104.59C104.59 211.844 104.814 213.342 106.396 213.342H110.036V214ZM104.59 209.884H109.14C109.378 209.884 109.448 209.688 109.448 209.548V209.45C109.448 207.63 108.552 207.154 107.026 207.154C105.374 207.154 104.59 207.756 104.59 209.884Z" fill="#FFF0F0"/>
<path d="M48 161H185" stroke="#00C1AE" stroke-width="0.2"/>
<g filter="url(#filter2_dd_1645_6163)">
<path d="M33 268C33 259.163 40.1634 252 49 252H254C262.837 252 270 259.163 270 268V329C270 337.837 262.837 345 254 345H49C40.1634 345 33 337.837 33 329V268Z" fill="url(#paint2_linear_1645_6163)" shape-rendering="crispEdges"/>
</g>
<path d="M54.912 281H50.608C49.632 281 49.04 280.616 49.04 279.416V271.384C49.04 270.184 49.632 269.8 50.608 269.8H54.688C58.272 269.8 59.088 272.472 59.088 275.352C59.088 278.232 58.352 281 54.912 281ZM54.24 271.016H51.264C50.672 271.016 50.528 271.24 50.528 271.768V279.016C50.528 279.608 50.656 279.784 51.264 279.784H54.32C57.12 279.784 57.536 277.752 57.536 275.352C57.536 272.952 57.04 271.016 54.24 271.016ZM65.4285 279.912C67.6685 279.912 68.5165 279.16 68.5165 277.08V269.8H70.0045V277.224C70.0045 280.184 68.2285 281.128 65.4285 281.128C62.6285 281.128 60.8525 280.184 60.8525 277.224V269.8H62.3405V277.08C62.3405 279.16 63.1885 279.912 65.4285 279.912ZM72.0869 281V271.496C72.0869 270.296 72.6789 269.8 73.7349 269.8H78.9189C80.9829 269.8 81.6389 271.112 81.6389 273.192C81.6389 275.336 81.0309 276.76 79.0949 276.76H77.2869V276.84L81.8789 281H79.8949L75.6069 277.064C75.3989 276.872 75.1909 276.632 75.1909 276.36V276.104C75.1909 275.768 75.4309 275.544 75.8629 275.544H78.5989C79.9589 275.544 80.0869 274.552 80.0869 273.192C80.0869 271.8 79.8629 271.016 78.3589 271.016H74.3749C73.8629 271.016 73.5749 271.176 73.5749 271.784V281H72.0869ZM82.3556 281L86.6116 270.904C86.9476 270.12 87.2996 269.672 88.1476 269.672C88.9636 269.672 89.3796 270.136 89.6996 270.904L93.9396 281H92.3716L91.1076 277.96H85.1716L83.9236 281H82.3556ZM87.7636 271.608L85.6196 276.744H90.6596L88.5476 271.608C88.4516 271.384 88.3396 271.064 88.1476 271.064C87.9556 271.064 87.8596 271.384 87.7636 271.608ZM98.2035 281H96.7155V271.016H92.1875V269.8H102.732V271.016H98.2035V281ZM105.262 281H103.774V269.8H105.262V281ZM112.601 269.672C116.729 269.672 118.185 271.112 118.185 275.4C118.185 279.688 116.729 281.128 112.601 281.128C108.505 281.128 107.017 279.688 107.017 275.4C107.017 271.112 108.505 269.672 112.601 269.672ZM108.569 275.4C108.569 278.792 109.417 279.912 112.601 279.912C115.785 279.912 116.633 278.792 116.633 275.4C116.633 272.024 115.785 270.888 112.601 270.888C109.417 270.888 108.569 272.024 108.569 275.4ZM130.042 269.8V279.72C130.042 280.664 129.498 281.128 128.698 281.128C128.09 281.128 127.658 280.936 127.226 280.248L121.946 271.8C121.834 271.608 121.738 271.528 121.626 271.528C121.562 271.528 121.402 271.592 121.402 271.848V281H119.946V271C119.946 269.976 120.698 269.672 121.322 269.672C122.138 269.672 122.49 270.056 122.762 270.488L128.09 279C128.17 279.128 128.234 279.272 128.394 279.272C128.586 279.272 128.586 279.096 128.586 279V269.8H130.042Z" fill="#FFF0F0"/>
<path d="M49.456 302.176H52.718C54.482 302.176 55.28 303.128 55.28 305.074C55.28 306.964 54.594 308 52.648 308H51.22C49.54 308 48.7 307.202 48.7 305.326V300.706C48.7 299.278 49.512 298.2 50.912 298.2H54.804V298.872H51.066C50.086 298.872 49.456 299.558 49.456 300.65V302.176ZM49.456 302.848V305.494C49.456 306.74 49.974 307.328 51.192 307.328H52.648C54.09 307.328 54.496 306.516 54.496 304.962C54.496 303.562 54.02 302.848 52.536 302.848H49.456ZM62.738 307.132L64.838 299.04C64.936 298.676 65.146 298.088 65.832 298.088C66.518 298.088 66.728 298.676 66.826 299.04L68.926 307.132C68.968 307.286 69.094 307.384 69.192 307.384C69.36 307.384 69.416 307.174 69.43 307.076L71.642 298.2H72.412L70.088 307.286C69.906 307.972 69.542 308.112 69.164 308.112C68.492 308.112 68.296 307.622 68.184 307.216L66.056 299.166C66.042 299.096 65.986 298.886 65.832 298.886C65.678 298.886 65.622 299.096 65.608 299.166L63.48 307.216C63.368 307.622 63.172 308.112 62.5 308.112C62.122 308.112 61.758 307.972 61.576 307.286L59.252 298.2H60.022L62.234 307.076C62.248 307.174 62.304 307.384 62.472 307.384C62.57 307.384 62.696 307.286 62.738 307.132ZM79.124 308H75.484C73.44 308 72.922 306.46 72.922 304.346C72.922 301.84 73.594 300.496 76.1 300.496C77.934 300.496 79.292 301.224 79.292 303.324C79.292 304.178 79.068 304.542 78.228 304.542H73.678C73.678 305.844 73.902 307.342 75.484 307.342H79.124V308ZM73.678 303.884H78.228C78.466 303.884 78.536 303.688 78.536 303.548V303.45C78.536 301.63 77.64 301.154 76.114 301.154C74.462 301.154 73.678 301.756 73.678 303.884ZM86.5068 308H82.8668C80.8228 308 80.3048 306.46 80.3048 304.346C80.3048 301.84 80.9768 300.496 83.4828 300.496C85.3168 300.496 86.6748 301.224 86.6748 303.324C86.6748 304.178 86.4508 304.542 85.6108 304.542H81.0608C81.0608 305.844 81.2848 307.342 82.8668 307.342H86.5068V308ZM81.0608 303.884H85.6108C85.8488 303.884 85.9188 303.688 85.9188 303.548V303.45C85.9188 301.63 85.0228 301.154 83.4968 301.154C81.8448 301.154 81.0608 301.756 81.0608 303.884ZM93.8056 308H92.7976L89.7876 305.228C89.5496 305.018 89.2276 304.598 89.2276 304.164C89.2276 303.73 89.5076 303.38 89.8016 303.1L92.4896 300.58H93.4696L90.2496 303.604C90.1236 303.716 89.9836 303.898 89.9836 304.136C89.9836 304.43 90.2216 304.682 90.3896 304.836L93.8056 308ZM88.6676 308H87.9396V298.2H88.6676V308ZM94.1401 308V307.342H98.3961C99.2781 307.342 99.4601 306.88 99.4601 306.138C99.4601 305.256 98.9141 305.13 97.4161 304.78L96.1281 304.486C94.8961 304.206 94.0281 303.786 94.0281 302.372C94.0281 301.21 94.7701 300.58 95.8901 300.58H99.7401V301.238H95.8901C95.0501 301.238 94.7841 301.588 94.7841 302.372C94.7841 303.394 95.3021 303.59 96.3801 303.842L97.7241 304.15C99.3901 304.528 100.216 304.766 100.216 306.138C100.216 307.286 99.8241 308 98.3961 308H94.1401ZM48.616 326L53.67 317.53C53.824 317.264 53.838 317.138 53.838 317.096C53.838 316.886 53.698 316.872 53.6 316.872H47.86V316.2H53.74C54.132 316.2 54.65 316.256 54.65 316.942C54.65 317.376 54.44 317.712 54.37 317.824L49.47 326H48.616ZM66.6234 316.2V326H65.8674V321.352H59.5114V326H58.7554V316.2H59.5114V320.68H65.8674V316.2H66.6234ZM71.7775 318.496C74.4375 318.496 75.4455 319.616 75.4455 322.276C75.4455 324.936 74.4375 326.084 71.7775 326.084C69.1175 326.084 68.1095 324.936 68.1095 322.276C68.1095 319.616 69.1175 318.496 71.7775 318.496ZM68.8655 322.276C68.8655 324.656 69.6775 325.426 71.7775 325.426C73.8775 325.426 74.6895 324.656 74.6895 322.276C74.6895 319.896 73.8775 319.154 71.7775 319.154C69.6775 319.154 68.8655 319.896 68.8655 322.276ZM82.6373 318.58V324.824C82.6373 325.538 82.4133 326 81.6293 326H78.8433C77.3033 326 76.7013 325.174 76.7013 323.718V318.58H77.4293V323.718C77.4293 324.614 77.7233 325.342 78.8433 325.342H81.4613C81.7413 325.342 81.9093 325.286 81.9093 324.81V318.58H82.6373ZM84.1525 326V321.128C84.1525 319.448 84.9505 318.58 86.6305 318.58H87.1345V319.238H86.6305C85.3705 319.238 84.8805 319.896 84.8805 321.296V326H84.1525ZM87.6049 326V325.342H91.8609C92.7429 325.342 92.9249 324.88 92.9249 324.138C92.9249 323.256 92.3789 323.13 90.8809 322.78L89.5929 322.486C88.3609 322.206 87.4929 321.786 87.4929 320.372C87.4929 319.21 88.2349 318.58 89.3549 318.58H93.2049V319.238H89.3549C88.5149 319.238 88.2489 319.588 88.2489 320.372C88.2489 321.394 88.7669 321.59 89.8449 321.842L91.1889 322.15C92.8549 322.528 93.6809 322.766 93.6809 324.138C93.6809 325.286 93.2889 326 91.8609 326H87.6049ZM98.7985 326V328.38H98.0705V319.644C98.0705 318.804 98.6305 318.58 99.2465 318.58H101.136C103.516 318.58 104.174 319.896 104.174 322.276C104.174 324.656 103.516 326 101.136 326H98.7985ZM98.7985 319.742V325.342H101.136C103.096 325.342 103.418 324.096 103.418 322.276C103.418 320.456 103.096 319.238 101.136 319.238H99.2465C98.9525 319.238 98.7985 319.322 98.7985 319.742ZM111.39 326H107.75C105.706 326 105.188 324.46 105.188 322.346C105.188 319.84 105.86 318.496 108.366 318.496C110.2 318.496 111.558 319.224 111.558 321.324C111.558 322.178 111.334 322.542 110.494 322.542H105.944C105.944 323.844 106.168 325.342 107.75 325.342H111.39V326ZM105.944 321.884H110.494C110.732 321.884 110.802 321.688 110.802 321.548V321.45C110.802 319.63 109.906 319.154 108.38 319.154C106.728 319.154 105.944 319.756 105.944 321.884ZM112.822 326V321.128C112.822 319.448 113.62 318.58 115.3 318.58H115.804V319.238H115.3C114.04 319.238 113.55 319.896 113.55 321.296V326H112.822ZM122.552 325.132L124.652 317.04C124.75 316.676 124.96 316.088 125.646 316.088C126.332 316.088 126.542 316.676 126.64 317.04L128.74 325.132C128.782 325.286 128.908 325.384 129.006 325.384C129.174 325.384 129.23 325.174 129.244 325.076L131.456 316.2H132.226L129.902 325.286C129.72 325.972 129.356 326.112 128.978 326.112C128.306 326.112 128.11 325.622 127.998 325.216L125.87 317.166C125.856 317.096 125.8 316.886 125.646 316.886C125.492 316.886 125.436 317.096 125.422 317.166L123.294 325.216C123.182 325.622 122.986 326.112 122.314 326.112C121.936 326.112 121.572 325.972 121.39 325.286L119.066 316.2H119.836L122.048 325.076C122.062 325.174 122.118 325.384 122.286 325.384C122.384 325.384 122.51 325.286 122.552 325.132ZM138.938 326H135.298C133.254 326 132.736 324.46 132.736 322.346C132.736 319.84 133.408 318.496 135.914 318.496C137.748 318.496 139.106 319.224 139.106 321.324C139.106 322.178 138.882 322.542 138.042 322.542H133.492C133.492 323.844 133.716 325.342 135.298 325.342H138.938V326ZM133.492 321.884H138.042C138.28 321.884 138.35 321.688 138.35 321.548V321.45C138.35 319.63 137.454 319.154 135.928 319.154C134.276 319.154 133.492 319.756 133.492 321.884ZM146.321 326H142.681C140.637 326 140.119 324.46 140.119 322.346C140.119 319.84 140.791 318.496 143.297 318.496C145.131 318.496 146.489 319.224 146.489 321.324C146.489 322.178 146.265 322.542 145.425 322.542H140.875C140.875 323.844 141.099 325.342 142.681 325.342H146.321V326ZM140.875 321.884H145.425C145.663 321.884 145.733 321.688 145.733 321.548V321.45C145.733 319.63 144.837 319.154 143.311 319.154C141.659 319.154 140.875 319.756 140.875 321.884ZM153.62 326H152.612L149.602 323.228C149.364 323.018 149.042 322.598 149.042 322.164C149.042 321.73 149.322 321.38 149.616 321.1L152.304 318.58H153.284L150.064 321.604C149.938 321.716 149.798 321.898 149.798 322.136C149.798 322.43 150.036 322.682 150.204 322.836L153.62 326ZM148.482 326H147.754V316.2H148.482V326Z" fill="#FFF0F0"/>
<path d="M107.624 302.672V306.728C107.624 308.312 108.32 309.128 109.712 309.296V309.848C107.624 309.644 107.024 308.312 107.024 306.728V302.672C107.024 301.088 107.624 299.756 109.712 299.552V300.104C108.32 300.272 107.624 301.088 107.624 302.672ZM110.698 301.64L112.126 307.208C112.162 307.292 112.198 307.4 112.258 307.4C112.342 307.4 112.366 307.256 112.378 307.22L113.71 302.084C113.83 301.64 114.118 301.568 114.31 301.568C114.502 301.568 114.79 301.64 114.91 302.084L116.242 307.22C116.254 307.256 116.278 307.4 116.362 307.4C116.422 307.4 116.458 307.292 116.494 307.208L117.922 301.64H118.546L116.986 307.544C116.914 307.82 116.77 308.072 116.374 308.072C115.918 308.072 115.762 307.712 115.726 307.532L114.43 302.564C114.406 302.456 114.358 302.336 114.31 302.336C114.262 302.336 114.214 302.456 114.19 302.564L112.894 307.532C112.834 307.712 112.726 308.072 112.246 308.072C111.85 308.072 111.706 307.82 111.634 307.544L110.074 301.64H110.698ZM124.295 308H121.175C119.423 308 118.979 306.68 118.979 304.868C118.979 302.72 119.555 301.568 121.703 301.568C123.275 301.568 124.439 302.192 124.439 303.992C124.439 304.724 124.247 305.036 123.527 305.036H119.627C119.627 306.152 119.819 307.436 121.175 307.436H124.295V308ZM119.627 304.472H123.527C123.731 304.472 123.791 304.304 123.791 304.184V304.1C123.791 302.54 123.023 302.132 121.715 302.132C120.299 302.132 119.627 302.648 119.627 304.472ZM130.623 308H127.503C125.751 308 125.307 306.68 125.307 304.868C125.307 302.72 125.883 301.568 128.031 301.568C129.603 301.568 130.767 302.192 130.767 303.992C130.767 304.724 130.575 305.036 129.855 305.036H125.955C125.955 306.152 126.147 307.436 127.503 307.436H130.623V308ZM125.955 304.472H129.855C130.059 304.472 130.119 304.304 130.119 304.184V304.1C130.119 302.54 129.351 302.132 128.043 302.132C126.627 302.132 125.955 302.648 125.955 304.472ZM136.879 308H136.015L133.435 305.624C133.231 305.444 132.955 305.084 132.955 304.712C132.955 304.34 133.195 304.04 133.447 303.8L135.751 301.64H136.591L133.831 304.232C133.723 304.328 133.603 304.484 133.603 304.688C133.603 304.94 133.807 305.156 133.951 305.288L136.879 308ZM132.475 308H131.851V299.6H132.475V308ZM142.271 308H139.151C137.399 308 136.955 306.68 136.955 304.868C136.955 302.72 137.531 301.568 139.679 301.568C141.251 301.568 142.415 302.192 142.415 303.992C142.415 304.724 142.223 305.036 141.503 305.036H137.603C137.603 306.152 137.795 307.436 139.151 307.436H142.271V308ZM137.603 304.472H141.503C141.707 304.472 141.767 304.304 141.767 304.184V304.1C141.767 302.54 140.999 302.132 139.691 302.132C138.275 302.132 137.603 302.648 137.603 304.472ZM143.5 308V302.648C143.5 302.036 143.692 301.64 144.364 301.64H146.704C148.024 301.64 148.54 302.348 148.54 303.596V308H147.916V303.596C147.916 302.828 147.664 302.204 146.704 302.204H144.508C144.268 302.204 144.124 302.252 144.124 302.66V308H143.5ZM153.991 308H152.311C150.151 308 149.623 306.98 149.623 304.82C149.623 302.78 150.151 301.64 152.311 301.64H154.231V299.6H154.855V307.076C154.855 307.616 154.747 308 153.991 308ZM154.231 302.204H152.311C150.631 302.204 150.271 303.02 150.271 304.82C150.271 306.74 150.631 307.436 152.311 307.436H153.751C154.183 307.436 154.231 307.292 154.231 306.896V302.204ZM155.916 308V307.436H159.564C160.32 307.436 160.476 307.04 160.476 306.404C160.476 305.648 160.008 305.54 158.724 305.24L157.62 304.988C156.564 304.748 155.82 304.388 155.82 303.176C155.82 302.18 156.456 301.64 157.416 301.64H160.716V302.204H157.416C156.696 302.204 156.468 302.504 156.468 303.176C156.468 304.052 156.912 304.22 157.836 304.436L158.988 304.7C160.416 305.024 161.124 305.228 161.124 306.404C161.124 307.388 160.788 308 159.564 308H155.916ZM167.814 301.568C170.094 301.568 170.958 302.528 170.958 304.808C170.958 307.088 170.094 308.072 167.814 308.072C165.534 308.072 164.67 307.088 164.67 304.808C164.67 302.528 165.534 301.568 167.814 301.568ZM165.318 304.808C165.318 306.848 166.014 307.508 167.814 307.508C169.614 307.508 170.31 306.848 170.31 304.808C170.31 302.768 169.614 302.132 167.814 302.132C166.014 302.132 165.318 302.768 165.318 304.808ZM172.035 308V302.648C172.035 302.036 172.227 301.64 172.899 301.64H175.239C176.559 301.64 177.075 302.348 177.075 303.596V308H176.451V303.596C176.451 302.828 176.199 302.204 175.239 302.204H173.043C172.803 302.204 172.659 302.252 172.659 302.66V308H172.035ZM178.375 308V299.6H178.999V308H178.375ZM185.768 301.64L181.976 310.052H181.304L182.264 307.964L179.576 301.64H180.248L182.6 307.22L185.096 301.64H185.768ZM188.143 306.728V302.672C188.143 301.088 187.447 300.272 186.055 300.104V299.552C188.143 299.756 188.743 301.088 188.743 302.672V306.728C188.743 308.312 188.143 309.644 186.055 309.848V309.296C187.447 309.128 188.143 308.312 188.143 306.728Z" fill="#008D84"/>
<path d="M48 291H185" stroke="#00C1AE" stroke-width="0.2"/>
<g filter="url(#filter3_dd_1645_6163)">
<path d="M33 378C33 369.163 40.1634 362 49 362H254C262.837 362 270 369.163 270 378V419C270 427.837 262.837 435 254 435H49C40.1634 435 33 427.837 33 419V378Z" fill="url(#paint3_linear_1645_6163)" shape-rendering="crispEdges"/>
</g>
<path d="M50.528 391H49.04V381.384C49.04 380.184 49.632 379.8 50.608 379.8H57.36V381.016H51.264C50.64 381.016 50.528 381.208 50.528 381.768V384.776H55.52V385.992H50.528V391ZM67.1938 391H60.2018C59.2258 391 58.6338 390.536 58.6338 389.416V381.384C58.6338 380.184 59.2258 379.8 60.2018 379.8H67.1298V381.016H60.8578C60.2338 381.016 60.1218 381.208 60.1218 381.768V384.664H66.9698V385.88H60.1218V389.016C60.1218 389.576 60.2338 389.784 60.8578 389.784H67.1938V391ZM77.35 391H70.358C69.382 391 68.79 390.536 68.79 389.416V381.384C68.79 380.184 69.382 379.8 70.358 379.8H77.286V381.016H71.014C70.39 381.016 70.278 381.208 70.278 381.768V384.664H77.126V385.88H70.278V389.016C70.278 389.576 70.39 389.784 71.014 389.784H77.35V391ZM78.7063 391V389.784H84.9623C85.8103 389.784 86.1463 389.192 86.1463 388.216C86.1463 387.624 86.0183 387.032 84.8983 386.664L80.4663 385.192C79.1223 384.744 78.5463 383.976 78.5463 382.424C78.5463 380.824 79.3143 379.8 81.0903 379.8H87.1543V381.016H81.3623C80.5143 381.016 80.0983 381.416 80.0983 382.456C80.0983 383.064 80.1623 383.656 81.1543 383.992L85.3783 385.4C86.8663 385.896 87.6983 386.456 87.6983 388.216C87.6983 389.736 87.1063 391 85.3783 391H78.7063Z" fill="#FFF0F0"/>
<path d="M49.736 418H48.98V408.2H49.736V418ZM59.9887 408.2V417.02C59.9887 417.678 59.6947 418.112 59.0927 418.112C58.6447 418.112 58.4347 417.902 58.1127 417.398L52.9887 409.124C52.9327 409.026 52.8207 408.886 52.6667 408.886C52.6247 408.886 52.4567 408.928 52.4567 409.166V418H51.7007V409.082C51.7007 408.116 52.4567 408.088 52.6247 408.088C53.1707 408.088 53.3807 408.41 53.5907 408.746L58.7427 417.062C58.8127 417.188 58.8967 417.314 59.0507 417.314C59.2327 417.314 59.2327 417.16 59.2327 417.062V408.2H59.9887ZM61.9546 418V409.698C61.9546 408.718 62.4026 408.2 63.4246 408.2H67.5546C69.3466 408.2 69.8506 409.39 69.8506 411.07C69.8506 412.806 69.4166 414.01 67.6666 414.01H65.4966V414.08L70.0886 418H68.9826L64.6566 414.276C64.5166 414.15 64.3906 414.066 64.3906 413.884V413.66C64.3906 413.45 64.5166 413.338 64.7266 413.338H67.6246C68.9686 413.338 69.0386 412.316 69.0386 411.07C69.0386 409.754 68.8706 408.872 67.4146 408.872H63.4106C63.0886 408.872 62.7106 409.026 62.7106 409.53V418H61.9546ZM80.4459 414.024H77.1839C75.4199 414.024 74.6219 413.072 74.6219 411.126C74.6219 409.236 75.3079 408.2 77.2539 408.2H78.6819C80.3619 408.2 81.2019 408.998 81.2019 410.874V415.494C81.2019 416.922 80.3899 418 78.9899 418H75.0979V417.328H78.8359C79.8159 417.328 80.4459 416.642 80.4459 415.55V414.024ZM80.4459 413.352V410.706C80.4459 409.46 79.9279 408.872 78.7099 408.872H77.2539C75.8119 408.872 75.4059 409.684 75.4059 411.238C75.4059 412.638 75.8819 413.352 77.3659 413.352H80.4459ZM82.5783 419.204L81.9062 418.798L83.2503 416.544L83.9223 416.95L82.5783 419.204ZM91.151 414.024H87.889C86.125 414.024 85.327 413.072 85.327 411.126C85.327 409.236 86.013 408.2 87.959 408.2H89.387C91.067 408.2 91.907 408.998 91.907 410.874V415.494C91.907 416.922 91.095 418 89.695 418H85.803V417.328H89.541C90.521 417.328 91.151 416.642 91.151 415.55V414.024ZM91.151 413.352V410.706C91.151 409.46 90.633 408.872 89.415 408.872H87.959C86.517 408.872 86.111 409.684 86.111 411.238C86.111 412.638 86.587 413.352 88.071 413.352H91.151ZM99.1353 414.024H95.8733C94.1093 414.024 93.3113 413.072 93.3113 411.126C93.3113 409.236 93.9973 408.2 95.9433 408.2H97.3713C99.0513 408.2 99.8913 408.998 99.8913 410.874V415.494C99.8913 416.922 99.0793 418 97.6793 418H93.7873V417.328H97.5253C98.5053 417.328 99.1353 416.642 99.1353 415.55V414.024ZM99.1353 413.352V410.706C99.1353 409.46 98.6173 408.872 97.3993 408.872H95.9433C94.5013 408.872 94.0953 409.684 94.0953 411.238C94.0953 412.638 94.5713 413.352 96.0553 413.352H99.1353ZM107.12 414.024H103.858C102.094 414.024 101.296 413.072 101.296 411.126C101.296 409.236 101.982 408.2 103.928 408.2H105.356C107.036 408.2 107.876 408.998 107.876 410.874V415.494C107.876 416.922 107.064 418 105.664 418H101.772V417.328H105.51C106.49 417.328 107.12 416.642 107.12 415.55V414.024ZM107.12 413.352V410.706C107.12 409.46 106.602 408.872 105.384 408.872H103.928C102.486 408.872 102.08 409.684 102.08 411.238C102.08 412.638 102.556 413.352 104.04 413.352H107.12ZM109.14 420.282H108.44L114.572 407.64H115.272L109.14 420.282ZM115.829 414.5V413.8H120.029V414.5H115.829Z" fill="#FFF0F0"/>
<path d="M48 401H185" stroke="#00C1AE" stroke-width="0.2"/>
<g filter="url(#filter4_d_1645_6163)">
<path d="M52.04 51H49.16V42.04H45V39.8H56.2V42.04H52.04V51ZM69.3551 39.8V51H66.4751V46.328H61.5631V51H58.6831V39.8H61.5631V44.088H66.4751V39.8H69.3551ZM82.1126 39.8V41.976H76.3526C75.7926 41.976 75.6006 42.168 75.6006 42.728V44.28H81.9686V46.36H75.6006V48.072C75.6006 48.632 75.7926 48.824 76.3526 48.824H82.1766V51H74.4166C73.3766 51 72.7206 50.488 72.7206 49.288V41.528C72.7206 40.328 73.3766 39.8 74.4166 39.8H82.1126ZM45.684 71V68.48H52.668C53.532 68.48 53.568 67.922 53.568 67.616C53.568 67.184 53.352 66.824 52.596 66.59L47.664 65.114C46.026 64.628 45.54 63.35 45.54 61.586C45.54 59.696 46.368 58.4 48.456 58.4H56.232V60.92H49.716C49.248 60.92 48.834 61.1 48.834 61.748C48.834 62.234 49.086 62.576 49.842 62.81L54.27 64.106C56.142 64.646 56.88 65.582 56.88 67.652C56.88 69.65 56.142 71 54 71H45.684ZM73.2137 62.306L70.6217 69.542C70.2797 70.496 69.9377 71.144 68.5157 71.144C67.0757 71.144 66.7337 70.496 66.3917 69.542L63.8177 62.306C63.7457 62.108 63.6557 61.874 63.5477 61.874C63.3677 61.874 63.3677 62.18 63.3677 62.27L63.4577 71H60.2177V60.2C60.2177 58.508 61.8197 58.256 62.7737 58.256C64.0337 58.256 65.0057 58.706 65.5097 60.11L68.1557 67.382C68.2277 67.598 68.3717 67.904 68.5157 67.904C68.6597 67.904 68.8037 67.598 68.8757 67.382L71.5217 60.11C72.0257 58.706 72.9977 58.256 74.2397 58.256C76.3097 58.256 76.8137 59.228 76.8137 60.2V71H73.5737L73.6817 62.27C73.6817 62.018 73.5917 61.874 73.4837 61.874C73.3937 61.874 73.3037 62.054 73.2137 62.306ZM79.2478 71L83.9458 59.732C84.3598 58.742 84.8818 58.256 86.4298 58.256C87.5638 58.256 88.3918 58.508 88.8958 59.732L93.6118 71H90.2098L89.0758 68.12H83.7658L82.6318 71H79.2478ZM86.1598 61.676L84.5578 65.672H88.2838L86.6818 61.676C86.6098 61.478 86.5558 61.28 86.4298 61.28C86.3038 61.28 86.2318 61.478 86.1598 61.676ZM96.0384 71V60.344C96.0384 58.994 96.7764 58.4 97.9464 58.4H104.678C107.288 58.4 108.044 59.93 108.044 62.54C108.044 64.736 107.504 66.878 105.182 66.878H104.282V66.968L108.296 71H104.318L101.474 67.724C101.006 67.202 100.34 66.644 100.34 65.942V65.654C100.34 64.736 101.024 64.52 102.194 64.52H103.256C104.462 64.52 104.732 63.908 104.732 62.648C104.732 61.352 104.354 60.92 103.13 60.92H100.124C99.4944 60.92 99.2784 61.136 99.2784 61.766V71H96.0384ZM118.55 71H115.31V60.92H110.63V58.4H123.23V60.92H118.55V71ZM135.264 71H132.024V60.344C132.024 58.994 132.762 58.4 133.932 58.4H142.572V60.92H136.11C135.48 60.92 135.264 61.136 135.264 61.766V63.44H140.772V65.96H135.264V71ZM156.115 58.4V60.848H149.635C149.005 60.848 148.789 61.064 148.789 61.694V63.44H155.953V65.78H148.789V67.706C148.789 68.336 149.005 68.552 149.635 68.552H156.187V71H147.457C146.287 71 145.549 70.424 145.549 69.074V60.344C145.549 58.994 146.287 58.4 147.457 58.4H156.115ZM170.167 71H161.509C160.339 71 159.601 70.424 159.601 69.074V58.4H162.841V67.634C162.841 68.264 163.057 68.48 163.687 68.48H170.167V71ZM183.516 71H174.858C173.688 71 172.95 70.424 172.95 69.074V58.4H176.19V67.634C176.19 68.264 176.406 68.48 177.036 68.48H183.516V71ZM192.09 58.256C197.04 58.256 198.786 59.462 198.786 64.7C198.786 69.956 197.04 71.144 192.09 71.144C187.14 71.144 185.394 69.956 185.394 64.7C185.394 59.462 187.14 58.256 192.09 58.256ZM188.706 64.7C188.706 67.67 189.462 68.624 192.09 68.624C194.718 68.624 195.474 67.67 195.474 64.7C195.474 61.73 194.718 60.776 192.09 60.776C189.462 60.776 188.706 61.73 188.706 64.7ZM207.092 67.13L209.216 59.588C209.468 58.688 210.206 58.256 211.25 58.256C212.222 58.256 213.014 58.652 213.284 59.588L215.39 67.13C215.426 67.238 215.534 67.436 215.624 67.436C215.732 67.436 215.822 67.292 215.894 67.058L218.18 58.4H221.456L218.396 68.966C217.946 70.55 217.37 71.144 215.84 71.144C214.166 71.144 213.68 70.37 213.374 69.254L211.466 62.432C211.412 62.27 211.358 62.108 211.25 62.108C211.142 62.108 211.088 62.27 211.034 62.432L209.126 69.254C208.82 70.37 208.334 71.144 206.66 71.144C205.148 71.144 204.536 70.532 204.086 68.966L201.044 58.4H204.32L206.606 67.058C206.66 67.292 206.732 67.436 206.858 67.436C206.966 67.436 207.056 67.238 207.092 67.13ZM223.94 71V68.48H230.924C231.788 68.48 231.824 67.922 231.824 67.616C231.824 67.184 231.608 66.824 230.852 66.59L225.92 65.114C224.282 64.628 223.796 63.35 223.796 61.586C223.796 59.696 224.624 58.4 226.712 58.4H234.488V60.92H227.972C227.504 60.92 227.09 61.1 227.09 61.748C227.09 62.234 227.342 62.576 228.098 62.81L232.526 64.106C234.398 64.646 235.136 65.582 235.136 67.652C235.136 69.65 234.398 71 232.256 71H223.94ZM250.48 58.4V71H247.24V65.744H241.714V71H238.474V58.4H241.714V63.224H247.24V58.4H250.48ZM257.506 71H254.266V58.4H257.506V71ZM264.527 71H261.287V60.344C261.287 58.994 262.025 58.4 263.195 58.4H269.891C272.681 58.4 273.293 60.146 273.293 62.666C273.293 65.186 272.681 66.968 269.891 66.968H264.527V71ZM264.527 64.448H268.217C269.567 64.448 269.981 63.926 269.981 62.666C269.981 61.406 269.567 60.92 268.217 60.92H265.373C264.743 60.92 264.527 61.136 264.527 61.766V64.448Z" fill="white"/>
</g>
<defs>
<filter id="filter0_dd_1645_6163" x="0" y="0" width="315" height="588" filterUnits="userSpaceOnUse" color-interpolation-filters="sRGB">
<feFlood flood-opacity="0" result="BackgroundImageFix"/>
<feColorMatrix in="SourceAlpha" type="matrix" values="0 0 0 0 0 0 0 0 0 0 0 0 0 0 0 0 0 0 127 0" result="hardAlpha"/>
<feOffset/>
<feGaussianBlur stdDeviation="2"/>
<feComposite in2="hardAlpha" operator="out"/>
<feColorMatrix type="matrix" values="0 0 0 0 0.0271007 0 0 0 0 0.929167 0 0 0 0 0.766795 0 0 0 0.3 0"/>
<feBlend mode="normal" in2="BackgroundImageFix" result="effect1_dropShadow_1645_6163"/>
<feColorMatrix in="SourceAlpha" type="matrix" values="0 0 0 0 0 0 0 0 0 0 0 0 0 0 0 0 0 0 127 0" result="hardAlpha"/>
<feOffset dy="4"/>
<feGaussianBlur stdDeviation="4.5"/>
<feComposite in2="hardAlpha" operator="out"/>
<feColorMatrix type="matrix" values="0 0 0 0 0.729167 0 0 0 0 1 0 0 0 0 0.9675 0 0 0 0.09 0"/>
<feBlend mode="normal" in2="effect1_dropShadow_1645_6163" result="effect2_dropShadow_1645_6163"/>
<feBlend mode="normal" in="SourceGraphic" in2="effect2_dropShadow_1645_6163" result="shape"/>
</filter>
<filter id="filter1_dd_1645_6163" x="24" y="117" width="255" height="131" filterUnits="userSpaceOnUse" color-interpolation-filters="sRGB">
<feFlood flood-opacity="0" result="BackgroundImageFix"/>
<feColorMatrix in="SourceAlpha" type="matrix" values="0 0 0 0 0 0 0 0 0 0 0 0 0 0 0 0 0 0 127 0" result="hardAlpha"/>
<feOffset/>
<feGaussianBlur stdDeviation="2"/>
<feComposite in2="hardAlpha" operator="out"/>
<feColorMatrix type="matrix" values="0 0 0 0 0.0271007 0 0 0 0 0.929167 0 0 0 0 0.766795 0 0 0 0.3 0"/>
<feBlend mode="normal" in2="BackgroundImageFix" result="effect1_dropShadow_1645_6163"/>
<feColorMatrix in="SourceAlpha" type="matrix" values="0 0 0 0 0 0 0 0 0 0 0 0 0 0 0 0 0 0 127 0" result="hardAlpha"/>
<feOffset dy="4"/>
<feGaussianBlur stdDeviation="4.5"/>
<feComposite in2="hardAlpha" operator="out"/>
<feColorMatrix type="matrix" values="0 0 0 0 0.729167 0 0 0 0 1 0 0 0 0 0.9675 0 0 0 0.09 0"/>
<feBlend mode="normal" in2="effect1_dropShadow_1645_6163" result="effect2_dropShadow_1645_6163"/>
<feBlend mode="normal" in="SourceGraphic" in2="effect2_dropShadow_1645_6163" result="shape"/>
</filter>
<filter id="filter2_dd_1645_6163" x="24" y="247" width="255" height="111" filterUnits="userSpaceOnUse" color-interpolation-filters="sRGB">
<feFlood flood-opacity="0" result="BackgroundImageFix"/>
<feColorMatrix in="SourceAlpha" type="matrix" values="0 0 0 0 0 0 0 0 0 0 0 0 0 0 0 0 0 0 127 0" result="hardAlpha"/>
<feOffset/>
<feGaussianBlur stdDeviation="2"/>
<feComposite in2="hardAlpha" operator="out"/>
<feColorMatrix type="matrix" values="0 0 0 0 0.0271007 0 0 0 0 0.929167 0 0 0 0 0.766795 0 0 0 0.3 0"/>
<feBlend mode="normal" in2="BackgroundImageFix" result="effect1_dropShadow_1645_6163"/>
<feColorMatrix in="SourceAlpha" type="matrix" values="0 0 0 0 0 0 0 0 0 0 0 0 0 0 0 0 0 0 127 0" result="hardAlpha"/>
<feOffset dy="4"/>
<feGaussianBlur stdDeviation="4.5"/>
<feComposite in2="hardAlpha" operator="out"/>
<feColorMatrix type="matrix" values="0 0 0 0 0.729167 0 0 0 0 1 0 0 0 0 0.9675 0 0 0 0.09 0"/>
<feBlend mode="normal" in2="effect1_dropShadow_1645_6163" result="effect2_dropShadow_1645_6163"/>
<feBlend mode="normal" in="SourceGraphic" in2="effect2_dropShadow_1645_6163" result="shape"/>
</filter>
<filter id="filter3_dd_1645_6163" x="24" y="357" width="255" height="91" filterUnits="userSpaceOnUse" color-interpolation-filters="sRGB">
<feFlood flood-opacity="0" result="BackgroundImageFix"/>
<feColorMatrix in="SourceAlpha" type="matrix" values="0 0 0 0 0 0 0 0 0 0 0 0 0 0 0 0 0 0 127 0" result="hardAlpha"/>
<feOffset/>
<feGaussianBlur stdDeviation="2"/>
<feComposite in2="hardAlpha" operator="out"/>
<feColorMatrix type="matrix" values="0 0 0 0 0.0271007 0 0 0 0 0.929167 0 0 0 0 0.766795 0 0 0 0.3 0"/>
<feBlend mode="normal" in2="BackgroundImageFix" result="effect1_dropShadow_1645_6163"/>
<feColorMatrix in="SourceAlpha" type="matrix" values="0 0 0 0 0 0 0 0 0 0 0 0 0 0 0 0 0 0 127 0" result="hardAlpha"/>
<feOffset dy="4"/>
<feGaussianBlur stdDeviation="4.5"/>
<feComposite in2="hardAlpha" operator="out"/>
<feColorMatrix type="matrix" values="0 0 0 0 0.729167 0 0 0 0 1 0 0 0 0 0.9675 0 0 0 0.09 0"/>
<feBlend mode="normal" in2="effect1_dropShadow_1645_6163" result="effect2_dropShadow_1645_6163"/>
<feBlend mode="normal" in="SourceGraphic" in2="effect2_dropShadow_1645_6163" result="shape"/>
</filter>
<filter id="filter4_d_1645_6163" x="45" y="38.7998" width="230.293" height="33.3438" filterUnits="userSpaceOnUse" color-interpolation-filters="sRGB">
<feFlood flood-opacity="0" result="BackgroundImageFix"/>
<feColorMatrix in="SourceAlpha" type="matrix" values="0 0 0 0 0 0 0 0 0 0 0 0 0 0 0 0 0 0 127 0" result="hardAlpha"/>
<feOffset dx="1"/>
<feGaussianBlur stdDeviation="0.5"/>
<feComposite in2="hardAlpha" operator="out"/>
<feColorMatrix type="matrix" values="0 0 0 0 0 0 0 0 0 0.756863 0 0 0 0 0.682353 0 0 0 1 0"/>
<feBlend mode="normal" in2="BackgroundImageFix" result="effect1_dropShadow_1645_6163"/>
<feBlend mode="normal" in="SourceGraphic" in2="effect1_dropShadow_1645_6163" result="shape"/>
</filter>
<linearGradient id="paint0_linear_1645_6163" x1="43.8108" y1="125.623" x2="291.544" y2="134.061" gradientUnits="userSpaceOnUse">
<stop stop-color="#021E29" stop-opacity="0.58"/>
<stop offset="0.717014" stop-color="#021E29" stop-opacity="0.551528"/>
<stop offset="1" stop-color="#021E29" stop-opacity="0.54"/>
</linearGradient>
<linearGradient id="paint1_linear_1645_6163" x1="60.7783" y1="145.913" x2="255.043" y2="172.547" gradientUnits="userSpaceOnUse">
<stop stop-color="#021E29" stop-opacity="0.58"/>
<stop offset="0.717014" stop-color="#021E29" stop-opacity="0.551528"/>
<stop offset="1" stop-color="#021E29" stop-opacity="0.54"/>
</linearGradient>
<linearGradient id="paint2_linear_1645_6163" x1="60.7783" y1="271.681" x2="253.35" y2="303.76" gradientUnits="userSpaceOnUse">
<stop stop-color="#021E29" stop-opacity="0.58"/>
<stop offset="0.717014" stop-color="#021E29" stop-opacity="0.551528"/>
<stop offset="1" stop-color="#021E29" stop-opacity="0.54"/>
</linearGradient>
<linearGradient id="paint3_linear_1645_6163" x1="60.7783" y1="377.448" x2="250.164" y2="417.641" gradientUnits="userSpaceOnUse">
<stop stop-color="#021E29" stop-opacity="0.58"/>
<stop offset="0.717014" stop-color="#021E29" stop-opacity="0.551528"/>
<stop offset="1" stop-color="#021E29" stop-opacity="0.54"/>
</linearGradient>
</defs>
</svg>
