<svg width="63" height="64" viewBox="0 0 63 64" fill="none" xmlns="http://www.w3.org/2000/svg">
<path d="M58.3492 29.2943C57.2561 29.2943 56.2504 29.6717 55.4554 30.3035L39.2016 15.6345C40.4656 13.9935 41.2209 11.9434 41.2209 9.71443C41.2209 4.35858 36.8603 0 31.502 0C26.1437 0 21.7831 4.35858 21.7831 9.71443C21.7831 11.9394 22.5383 13.9935 23.8024 15.6345L7.54855 30.3035C6.75355 29.6717 5.74787 29.2943 4.65474 29.2943C2.08688 29.2943 0 31.3802 0 33.9469C0 36.5135 2.08688 38.5995 4.65474 38.5995C5.7121 38.5995 6.68597 38.2458 7.46508 37.6499L15.1011 44.8532C14.7553 45.4174 14.5565 46.081 14.5565 46.7882C14.5565 48.8344 16.222 50.4991 18.2692 50.4991C19.4855 50.4991 20.5627 49.9111 21.2425 49.0092L42.9699 59.0653C42.8944 59.3713 42.8546 59.6891 42.8546 60.0149C42.8546 62.2121 44.6434 64 46.8416 64C49.0398 64 50.8285 62.2121 50.8285 60.0149C50.8285 58.664 50.1528 57.4681 49.1193 56.745L57.1925 38.4524C57.5622 38.5478 57.9478 38.5955 58.3453 38.5955C60.9131 38.5955 63 36.5096 63 33.9429C63 31.3762 60.9131 29.2903 58.3453 29.2903L58.3492 29.2943ZM53.6945 33.9469C53.6945 34.0104 53.6945 34.074 53.6985 34.1376L40.5889 36.883L35.0596 18.7534C36.2243 18.2925 37.2817 17.6171 38.176 16.7668L54.4299 31.4358C53.9648 32.1589 53.6945 33.0211 53.6945 33.9429V33.9469ZM34.8688 42.7792C35.6678 41.9449 36.1567 40.8125 36.1567 39.5689C36.1567 39.5053 36.1567 39.4418 36.1528 39.3782L39.5355 38.671L44.8421 56.0695L34.8688 42.7792ZM20.2129 43.6255L22.0852 38.377L26.8552 39.3742C26.8552 39.4378 26.8512 39.5014 26.8512 39.5649C26.8512 40.1013 26.9426 40.6139 27.1096 41.0906L21.0914 44.3725C20.841 44.0785 20.5429 43.8242 20.2129 43.6216V43.6255ZM16.1584 43.7408L8.52243 36.5374C8.71323 36.2553 8.86826 35.9533 8.99546 35.6355L20.5747 38.0631L18.774 43.113C18.611 43.0892 18.4441 43.0772 18.2731 43.0772C17.4861 43.0772 16.7587 43.3236 16.1584 43.7408ZM27.527 18.5746L21.0914 36.6049L9.30551 34.1336C9.30551 34.07 9.30948 34.0065 9.30948 33.9429C9.30948 33.0211 9.03918 32.1629 8.57411 31.4358L24.8279 16.7668C25.615 17.5098 26.5253 18.1257 27.527 18.5746ZM30.7388 34.9799C29.1051 35.2501 27.7575 36.3745 27.1692 37.8763L22.6059 36.9188L28.9699 19.0872C29.5423 19.2421 30.1306 19.3454 30.7388 19.3931V34.9799ZM28.3816 39.5689C28.3816 37.8485 29.7808 36.446 31.506 36.446C33.2311 36.446 34.6303 37.8446 34.6303 39.5689C34.6303 41.2933 33.2311 42.6918 31.506 42.6918C29.7808 42.6918 28.3816 41.2933 28.3816 39.5689ZM35.8387 37.8803C35.2504 36.3784 33.9029 35.254 32.2692 34.9839V19.3971C32.7223 19.3613 33.1635 19.2977 33.5968 19.2024L39.0863 37.2009L35.8387 37.8803ZM31.502 1.52967C36.0176 1.52967 39.6905 5.20089 39.6905 9.71443C39.6905 14.228 36.0176 17.8992 31.502 17.8992C26.9864 17.8992 23.3135 14.228 23.3135 9.71443C23.3135 5.20089 26.9864 1.52967 31.502 1.52967ZM4.65872 37.0698C2.93754 37.0698 1.53436 35.6712 1.53436 33.9469C1.53436 32.2225 2.93356 30.8239 4.65872 30.8239C6.38387 30.8239 7.78308 32.2225 7.78308 33.9469C7.78308 35.6712 6.38387 37.0698 4.65872 37.0698ZM18.2731 48.9695C17.0687 48.9695 16.0909 47.9921 16.0909 46.7882C16.0909 45.5843 17.0687 44.6069 18.2731 44.6069C19.4776 44.6069 20.4554 45.5843 20.4554 46.7882C20.4554 47.9921 19.4776 48.9695 18.2731 48.9695ZM21.8904 47.6186C21.95 47.3524 21.9858 47.0743 21.9858 46.7882C21.9858 46.4187 21.9302 46.0571 21.8268 45.7194L27.845 42.4375C28.6996 43.5222 30.0193 44.2215 31.506 44.2215C32.2771 44.2215 33.0045 44.0308 33.6485 43.697L43.8881 57.341C43.7927 57.4482 43.7053 57.5595 43.6178 57.6747L21.8904 47.6186ZM46.8455 62.4703C45.4901 62.4703 44.389 61.3698 44.389 60.0149C44.389 58.66 45.4901 57.5595 46.8455 57.5595C48.201 57.5595 49.3021 58.66 49.3021 60.0149C49.3021 61.3698 48.201 62.4703 46.8455 62.4703ZM47.724 56.1252C47.4418 56.0616 47.1476 56.0258 46.8455 56.0258C46.7064 56.0258 46.5713 56.0338 46.4361 56.0457L41.042 38.3531L54.0165 35.6355C54.3702 36.5374 54.9983 37.3042 55.7973 37.8326L47.724 56.1252ZM58.3492 37.0658C56.6281 37.0658 55.2249 35.6672 55.2249 33.9429C55.2249 32.2185 56.6241 30.82 58.3492 30.82C60.0744 30.82 61.4736 32.2185 61.4736 33.9429C61.4736 35.6672 60.0744 37.0658 58.3492 37.0658ZM25.9568 12.9128C24.1919 9.85349 25.2413 5.93196 28.3021 4.16389C28.9779 3.77452 29.7053 3.51229 30.4685 3.38912C31.3032 3.25404 32.1459 3.28185 32.9727 3.47653C33.3861 3.57189 33.6405 3.9851 33.5412 4.39831C33.4418 4.81152 33.0324 5.06581 32.619 4.96648C31.9909 4.81947 31.347 4.79563 30.711 4.89893C30.1306 4.99429 29.5781 5.19295 29.0653 5.48696C26.7359 6.8299 25.937 9.81773 27.2805 12.146C27.9324 13.2744 28.9818 14.081 30.2419 14.4187C31.498 14.7564 32.8137 14.5816 33.9426 13.93C35.3101 13.1433 36.2124 11.7328 36.3595 10.1594C36.3992 9.73827 36.7689 9.42836 37.1942 9.46809C37.6156 9.50782 37.9256 9.8813 37.8859 10.3025C37.6911 12.3685 36.5065 14.22 34.7098 15.257C33.7041 15.8371 32.6031 16.1152 31.5179 16.1152C29.3038 16.1152 27.1454 14.967 25.9608 12.9128H25.9568ZM31.017 10.1197L35.4214 5.71741C35.7195 5.41942 36.2044 5.41942 36.5026 5.71741C36.8007 6.0154 36.8007 6.50012 36.5026 6.79811L31.3907 11.9076C31.2476 12.0507 31.0528 12.1301 30.8501 12.1301C30.8183 12.1301 30.7825 12.1301 30.7507 12.1222C30.5162 12.0904 30.3055 11.9513 30.1863 11.7447L28.5207 8.86019C28.3101 8.49466 28.4333 8.02583 28.799 7.81525C29.1647 7.60467 29.6337 7.72784 29.8444 8.09337L31.0131 10.1157L31.017 10.1197Z" fill="url(#paint0_linear_1184_1270)"/>
<defs>
<linearGradient id="paint0_linear_1184_1270" x1="31.502" y1="64.004" x2="31.502" y2="0" gradientUnits="userSpaceOnUse">
<stop stop-color="#007367"/>
<stop offset="1" stop-color="#0FCED1"/>
</linearGradient>
</defs>
</svg>
