<svg width="995" height="237" viewBox="0 0 995 237" fill="none" xmlns="http://www.w3.org/2000/svg">
<g filter="url(#filter0_bd_1356_429)">
<path d="M14 23C14 15.8203 19.8203 10 27 10H968C975.18 10 981 15.8203 981 23V206C981 213.18 975.18 219 968 219H27C19.8203 219 14 213.18 14 206V23Z" fill="#1F9CA6" fill-opacity="0.12" shape-rendering="crispEdges"/>
<path d="M14.5 23C14.5 16.0964 20.0964 10.5 27 10.5H968C974.904 10.5 980.5 16.0964 980.5 23V206C980.5 212.904 974.904 218.5 968 218.5H27C20.0964 218.5 14.5 212.904 14.5 206V23Z" stroke="url(#paint0_linear_1356_429)" shape-rendering="crispEdges"/>
</g>
<defs>
<filter id="filter0_bd_1356_429" x="0" y="-4" width="995" height="241" filterUnits="userSpaceOnUse" color-interpolation-filters="sRGB">
<feFlood flood-opacity="0" result="BackgroundImageFix"/>
<feGaussianBlur in="BackgroundImageFix" stdDeviation="7"/>
<feComposite in2="SourceAlpha" operator="in" result="effect1_backgroundBlur_1356_429"/>
<feColorMatrix in="SourceAlpha" type="matrix" values="0 0 0 0 0 0 0 0 0 0 0 0 0 0 0 0 0 0 127 0" result="hardAlpha"/>
<feOffset dy="4"/>
<feGaussianBlur stdDeviation="7"/>
<feComposite in2="hardAlpha" operator="out"/>
<feColorMatrix type="matrix" values="0 0 0 0 0.823529 0 0 0 0 0.823529 0 0 0 0 0.823529 0 0 0 0.08 0"/>
<feBlend mode="normal" in2="effect1_backgroundBlur_1356_429" result="effect2_dropShadow_1356_429"/>
<feBlend mode="normal" in="SourceGraphic" in2="effect2_dropShadow_1356_429" result="shape"/>
</filter>
<linearGradient id="paint0_linear_1356_429" x1="1000.5" y1="4.0001" x2="14" y2="235" gradientUnits="userSpaceOnUse">
<stop stop-color="#3C808E" stop-opacity="0.75"/>
<stop offset="1" stop-color="#04656E"/>
</linearGradient>
</defs>
</svg>
