<svg width="693" height="180" viewBox="0 0 693 180" fill="none" xmlns="http://www.w3.org/2000/svg">
<g filter="url(#filter0_bd_1397_612)">
<path d="M47 33C47 25.8203 52.8203 20 60 20H634C641.18 20 647 25.8203 647 33V147C647 154.18 641.18 160 634 160H60C52.8203 160 47 154.18 47 147V33Z" fill="url(#paint0_radial_1397_612)" fill-opacity="0.12" shape-rendering="crispEdges"/>
<path d="M60 20.5H634C640.904 20.5 646.5 26.0964 646.5 33V147C646.5 153.904 640.904 159.5 634 159.5H60C53.0964 159.5 47.5 153.904 47.5 147V33C47.5 26.0964 53.0964 20.5 60 20.5Z" stroke="url(#paint1_linear_1397_612)" stroke-opacity="0.4" shape-rendering="crispEdges"/>
</g>
<g filter="url(#filter1_bd_1397_612)">
<path d="M47 33C47 25.8203 52.8203 20 60 20H634C641.18 20 647 25.8203 647 33V147C647 154.18 641.18 160 634 160H60C52.8203 160 47 154.18 47 147V33Z" fill="url(#paint2_radial_1397_612)" fill-opacity="0.12" shape-rendering="crispEdges"/>
<path d="M60 20.5H634C640.904 20.5 646.5 26.0964 646.5 33V147C646.5 153.904 640.904 159.5 634 159.5H60C53.0964 159.5 47.5 153.904 47.5 147V33C47.5 26.0964 53.0964 20.5 60 20.5Z" stroke="url(#paint3_linear_1397_612)" stroke-opacity="0.4" shape-rendering="crispEdges"/>
</g>
<g filter="url(#filter2_bd_1397_612)">
<path d="M47 33C47 25.8203 52.8203 20 60 20H634C641.18 20 647 25.8203 647 33V147C647 154.18 641.18 160 634 160H60C52.8203 160 47 154.18 47 147V33Z" fill="url(#paint4_radial_1397_612)" fill-opacity="0.12" shape-rendering="crispEdges"/>
<path d="M47.5 33C47.5 26.0964 53.0964 20.5 60 20.5H634C640.904 20.5 646.5 26.0964 646.5 33V147C646.5 153.904 640.904 159.5 634 159.5H60C53.0964 159.5 47.5 153.904 47.5 147V33Z" stroke="url(#paint5_linear_1397_612)" stroke-opacity="0.4" shape-rendering="crispEdges"/>
</g>
<g filter="url(#filter3_bd_1397_612)">
<path d="M47 33C47 25.8203 52.8203 20 60 20H634C641.18 20 647 25.8203 647 33V147C647 154.18 641.18 160 634 160H60C52.8203 160 47 154.18 47 147V33Z" fill="url(#paint6_radial_1397_612)" fill-opacity="0.12" shape-rendering="crispEdges"/>
<path d="M47.5 33C47.5 26.0964 53.0964 20.5 60 20.5H634C640.904 20.5 646.5 26.0964 646.5 33V147C646.5 153.904 640.904 159.5 634 159.5H60C53.0964 159.5 47.5 153.904 47.5 147V33Z" stroke="url(#paint7_linear_1397_612)" stroke-opacity="0.4" shape-rendering="crispEdges"/>
</g>
<g opacity="0.61" filter="url(#filter4_f_1397_612)">
<ellipse cx="280.5" cy="24" rx="280.5" ry="24" transform="matrix(1 0 0 -1 66 114)" fill="#050505" fill-opacity="0.8"/>
</g>
<defs>
<filter id="filter0_bd_1397_612" x="33" y="6" width="628" height="168" filterUnits="userSpaceOnUse" color-interpolation-filters="sRGB">
<feFlood flood-opacity="0" result="BackgroundImageFix"/>
<feGaussianBlur in="BackgroundImageFix" stdDeviation="7"/>
<feComposite in2="SourceAlpha" operator="in" result="effect1_backgroundBlur_1397_612"/>
<feColorMatrix in="SourceAlpha" type="matrix" values="0 0 0 0 0 0 0 0 0 0 0 0 0 0 0 0 0 0 127 0" result="hardAlpha"/>
<feOffset dy="1"/>
<feGaussianBlur stdDeviation="2"/>
<feComposite in2="hardAlpha" operator="out"/>
<feColorMatrix type="matrix" values="0 0 0 0 0.729167 0 0 0 0 1 0 0 0 0 0.9675 0 0 0 0.09 0"/>
<feBlend mode="normal" in2="effect1_backgroundBlur_1397_612" result="effect2_dropShadow_1397_612"/>
<feBlend mode="normal" in="SourceGraphic" in2="effect2_dropShadow_1397_612" result="shape"/>
</filter>
<filter id="filter1_bd_1397_612" x="33" y="6" width="628" height="168" filterUnits="userSpaceOnUse" color-interpolation-filters="sRGB">
<feFlood flood-opacity="0" result="BackgroundImageFix"/>
<feGaussianBlur in="BackgroundImageFix" stdDeviation="7"/>
<feComposite in2="SourceAlpha" operator="in" result="effect1_backgroundBlur_1397_612"/>
<feColorMatrix in="SourceAlpha" type="matrix" values="0 0 0 0 0 0 0 0 0 0 0 0 0 0 0 0 0 0 127 0" result="hardAlpha"/>
<feOffset dy="1"/>
<feGaussianBlur stdDeviation="2"/>
<feComposite in2="hardAlpha" operator="out"/>
<feColorMatrix type="matrix" values="0 0 0 0 0.729167 0 0 0 0 1 0 0 0 0 0.9675 0 0 0 0.09 0"/>
<feBlend mode="normal" in2="effect1_backgroundBlur_1397_612" result="effect2_dropShadow_1397_612"/>
<feBlend mode="normal" in="SourceGraphic" in2="effect2_dropShadow_1397_612" result="shape"/>
</filter>
<filter id="filter2_bd_1397_612" x="33" y="6" width="628" height="168" filterUnits="userSpaceOnUse" color-interpolation-filters="sRGB">
<feFlood flood-opacity="0" result="BackgroundImageFix"/>
<feGaussianBlur in="BackgroundImageFix" stdDeviation="7"/>
<feComposite in2="SourceAlpha" operator="in" result="effect1_backgroundBlur_1397_612"/>
<feColorMatrix in="SourceAlpha" type="matrix" values="0 0 0 0 0 0 0 0 0 0 0 0 0 0 0 0 0 0 127 0" result="hardAlpha"/>
<feOffset dy="1"/>
<feGaussianBlur stdDeviation="2"/>
<feComposite in2="hardAlpha" operator="out"/>
<feColorMatrix type="matrix" values="0 0 0 0 0.729167 0 0 0 0 1 0 0 0 0 0.9675 0 0 0 0.09 0"/>
<feBlend mode="normal" in2="effect1_backgroundBlur_1397_612" result="effect2_dropShadow_1397_612"/>
<feBlend mode="normal" in="SourceGraphic" in2="effect2_dropShadow_1397_612" result="shape"/>
</filter>
<filter id="filter3_bd_1397_612" x="33" y="6" width="628" height="168" filterUnits="userSpaceOnUse" color-interpolation-filters="sRGB">
<feFlood flood-opacity="0" result="BackgroundImageFix"/>
<feGaussianBlur in="BackgroundImageFix" stdDeviation="7"/>
<feComposite in2="SourceAlpha" operator="in" result="effect1_backgroundBlur_1397_612"/>
<feColorMatrix in="SourceAlpha" type="matrix" values="0 0 0 0 0 0 0 0 0 0 0 0 0 0 0 0 0 0 127 0" result="hardAlpha"/>
<feOffset dy="1"/>
<feGaussianBlur stdDeviation="2"/>
<feComposite in2="hardAlpha" operator="out"/>
<feColorMatrix type="matrix" values="0 0 0 0 0.729167 0 0 0 0 1 0 0 0 0 0.9675 0 0 0 0.09 0"/>
<feBlend mode="normal" in2="effect1_backgroundBlur_1397_612" result="effect2_dropShadow_1397_612"/>
<feBlend mode="normal" in="SourceGraphic" in2="effect2_dropShadow_1397_612" result="shape"/>
</filter>
<filter id="filter4_f_1397_612" x="0" y="0" width="693" height="180" filterUnits="userSpaceOnUse" color-interpolation-filters="sRGB">
<feFlood flood-opacity="0" result="BackgroundImageFix"/>
<feBlend mode="normal" in="SourceGraphic" in2="BackgroundImageFix" result="shape"/>
<feGaussianBlur stdDeviation="33" result="effect1_foregroundBlur_1397_612"/>
</filter>
<radialGradient id="paint0_radial_1397_612" cx="0" cy="0" r="1" gradientUnits="userSpaceOnUse" gradientTransform="translate(344.5 62.0001) rotate(18.7681) scale(326.353 1975.33)">
<stop stop-color="#07EDC4" stop-opacity="0.3"/>
<stop offset="1" stop-color="#07EDC4" stop-opacity="0.61"/>
</radialGradient>
<linearGradient id="paint1_linear_1397_612" x1="647" y1="20" x2="33.4381" y2="118.995" gradientUnits="userSpaceOnUse">
<stop stop-color="#BAFFF7"/>
<stop offset="1" stop-color="#BAFFF7" stop-opacity="0"/>
</linearGradient>
<radialGradient id="paint2_radial_1397_612" cx="0" cy="0" r="1" gradientUnits="userSpaceOnUse" gradientTransform="translate(344.5 62.0001) rotate(18.7681) scale(326.353 1975.33)">
<stop stop-color="#07EDC4" stop-opacity="0.3"/>
<stop offset="1" stop-color="#07EDC4" stop-opacity="0.61"/>
</radialGradient>
<linearGradient id="paint3_linear_1397_612" x1="647" y1="20" x2="33.4381" y2="118.995" gradientUnits="userSpaceOnUse">
<stop stop-color="#BAFFF7"/>
<stop offset="1" stop-color="#BAFFF7" stop-opacity="0"/>
</linearGradient>
<radialGradient id="paint4_radial_1397_612" cx="0" cy="0" r="1" gradientUnits="userSpaceOnUse" gradientTransform="translate(344.5 62.0001) rotate(18.7681) scale(326.353 1975.33)">
<stop stop-color="#07EDC4" stop-opacity="0.3"/>
<stop offset="1" stop-color="#07EDC4" stop-opacity="0.61"/>
</radialGradient>
<linearGradient id="paint5_linear_1397_612" x1="647" y1="20" x2="33.4381" y2="118.995" gradientUnits="userSpaceOnUse">
<stop stop-color="#BAFFF7"/>
<stop offset="1" stop-color="#BAFFF7" stop-opacity="0"/>
</linearGradient>
<radialGradient id="paint6_radial_1397_612" cx="0" cy="0" r="1" gradientUnits="userSpaceOnUse" gradientTransform="translate(344.5 62.0001) rotate(18.7681) scale(326.353 1975.33)">
<stop stop-color="#07EDC4" stop-opacity="0.3"/>
<stop offset="1" stop-color="#07EDC4" stop-opacity="0.61"/>
</radialGradient>
<linearGradient id="paint7_linear_1397_612" x1="647" y1="20" x2="33.4381" y2="118.995" gradientUnits="userSpaceOnUse">
<stop stop-color="#BAFFF7"/>
<stop offset="1" stop-color="#BAFFF7" stop-opacity="0"/>
</linearGradient>
</defs>
</svg>
